<?xml version="1.0" standalone="no"?>
 <!DOCTYPE svg PUBLIC "-//W3C//DTD SVG 1.1//EN" 
 "http://www.w3.org/Graphics/SVG/1.1/DTD/svg11.dtd"> 
<svg
  xmlns:svg="http://www.w3.org/2000/svg"
  xmlns="http://www.w3.org/2000/svg"
  xmlns:xlink="http://www.w3.org/1999/xlink"
  version="1.1"
  width="297.0022mm" height="210.0072mm" viewBox="0.0000 0.0000 297.0022 210.0072">
<title>SVG Image created as Dino-Blinker-Edge_Cuts.svg date 2024/12/11 00:23:17 </title>
  <desc>Image generated by PCBNEW </desc>
<g style="fill:#000000; fill-opacity:1.0000;stroke:#000000; stroke-opacity:1.0000;
stroke-linecap:round; stroke-linejoin:round;"
 transform="translate(0 0) scale(1 1)">
<path style="fill:none; 
stroke:#000000; stroke-width:0.1000; stroke-opacity:1; 
stroke-linecap:round; stroke-linejoin:round;fill:none"
d="M 162.3822,82.5500
162.2187,82.5581
162.0547,82.5713
161.8907,82.5897
161.7274,82.6132
161.5651,82.6417
161.4046,82.6753
161.2462,82.7138
161.0906,82.7573
160.9383,82.8058
160.5201,82.9606
160.1169,83.1371
159.7291,83.3350
159.3569,83.5540
159.0005,83.7939
158.6603,84.0543
158.3366,84.3350
158.0296,84.6356
157.7396,84.9559
157.4669,85.2955
157.2118,85.6542
156.9745,86.0316
156.7554,86.4275
156.5548,86.8416
156.3728,87.2736
156.2099,87.7232
156.1209,88.0132
156.0329,88.3441
155.9492,88.6990
155.8731,89.0610
155.8080,89.4133
155.7572,89.7391
155.7240,90.0214
155.7150,90.1411
155.7117,90.2436
155.7112,90.3218
155.7094,90.3900
155.7075,90.4205
155.7048,90.4486
155.7011,90.4745
155.6961,90.4981
155.6897,90.5195
155.6818,90.5388
155.6721,90.5561
155.6605,90.5713
155.6469,90.5846
155.6309,90.5959
155.6125,90.6054
155.5914,90.6131
155.5676,90.6191
155.5408,90.6233
155.5108,90.6259
155.4775,90.6269
155.4406,90.6264
155.4001,90.6244
155.3557,90.6210
155.3073,90.6162
155.1977,90.6027
155.0697,90.5843
154.7534,90.5348
154.5047,90.5009
154.2145,90.4711
153.5331,90.4240
152.7578,90.3938
151.9368,90.3807
151.1185,90.3850
150.3514,90.4070
149.6839,90.4468
149.4026,90.4736
149.1643,90.5049
148.4264,90.6331
147.7042,90.7843
146.9976,90.9585
146.3064,91.1559
145.6307,91.3764
144.9702,91.6202
144.3249,91.8872
143.6947,92.1775
143.0794,92.4912
142.4790,92.8284
141.8933,93.1890
141.3223,93.5731
140.7659,93.9808
140.2239,94.4121
139.6962,94.8671
139.1827,95.3458
138.9358,95.5881
138.7005,95.8257
138.4758,96.0598
138.2606,96.2918
138.0540,96.5230
137.8547,96.7550
137.6618,96.9890
137.4742,97.2264
137.2908,97.4687
137.1105,97.7171
136.9323,97.9731
136.7551,98.2380
136.5779,98.5133
136.3995,98.8002
136.0352,99.4148
135.4116,100.4466
134.7504,101.4448
134.0521,102.4091
133.3170,103.3391
132.5456,104.2344
131.7384,105.0946
130.8958,105.9194
130.0182,106.7083
129.1060,107.4611
128.1598,108.1772
127.1799,108.8564
126.1668,109.4982
125.1210,110.1023
124.0428,110.6682
122.9327,111.1957
121.7912,111.6844
121.5877,111.7680
121.4001,111.8474
121.2323,111.9206
121.0884,111.9858
120.9722,112.0413
120.8877,112.0852
120.8389,112.1156
120.8291,112.1251
120.8280,112.1284
120.8296,112.1307
120.9761,112.1783
121.3027,112.2674
122.2857,112.5177
123.3569,112.7771
123.7940,112.8774
124.0950,112.9408
124.3363,112.9828
124.5838,113.0192
124.8363,113.0500
125.0928,113.0752
125.3522,113.0949
125.6136,113.1090
126.1376,113.1204
126.6565,113.1095
126.9113,113.0957
127.1616,113.0762
127.4064,113.0512
127.6446,113.0207
127.8751,112.9845
128.0968,112.9427
128.5319,112.8413
128.9782,112.7136
129.4351,112.5597
129.9020,112.3803
130.3783,112.1755
130.8633,111.9458
131.3564,111.6915
131.8570,111.4131
132.3644,111.1108
132.8780,110.7850
133.3971,110.4361
133.9212,110.0645
134.4496,109.6705
134.9816,109.2545
135.5167,108.8169
136.0541,108.3580
136.5369,107.9371
136.4883,108.4550
136.4606,108.8912
136.4427,109.4671
136.4344,110.1300
136.4351,110.8274
136.4445,111.5065
136.4623,112.1148
136.4879,112.5997
136.5211,112.9085
136.5726,113.1584
136.6400,113.4347
136.7199,113.7258
136.8084,114.0198
136.9019,114.3049
136.9966,114.5696
137.0890,114.8019
137.1331,114.9023
137.1752,114.9902
137.2160,115.0667
137.2609,115.1428
137.3097,115.2185
137.3623,115.2937
137.4186,115.3682
137.4784,115.4420
137.6078,115.5870
137.7494,115.7277
137.9019,115.8634
138.0642,115.9933
138.2349,116.1164
138.4129,116.2319
138.5969,116.3391
138.7857,116.4370
138.9781,116.5249
139.1729,116.6018
139.3689,116.6671
139.5647,116.7197
139.6623,116.7410
139.7593,116.7589
139.9026,116.7812
139.9670,116.7897
140.0278,116.7965
140.0858,116.8014
140.1416,116.8046
140.1963,116.8059
140.2506,116.8053
140.3052,116.8029
140.3611,116.7985
140.4190,116.7922
140.4798,116.7840
140.5443,116.7737
140.6132,116.7615
140.7679,116.7310
140.9384,116.6927
141.1046,116.6493
141.2660,116.6012
141.4221,116.5484
141.5726,116.4914
141.7169,116.4302
141.8545,116.3653
141.9851,116.2969
142.1081,116.2252
142.2232,116.1504
142.3297,116.0728
142.4273,115.9928
142.5156,115.9104
142.5939,115.8261
142.6620,115.7400
142.7193,115.6524
142.7544,115.5910
142.7848,115.5339
142.8106,115.4797
142.8217,115.4533
142.8317,115.4271
142.8405,115.4010
142.8482,115.3747
142.8546,115.3481
142.8600,115.3212
142.8641,115.2935
142.8671,115.2651
142.8689,115.2358
142.8696,115.2053
142.8691,115.1736
142.8674,115.1403
142.8646,115.1055
142.8606,115.0689
142.8491,114.9896
142.8330,114.9011
142.8122,114.8020
142.7869,114.6911
142.7569,114.5670
142.7222,114.4283
142.6394,114.0558
142.5661,113.6428
142.5048,113.2151
142.4580,112.7985
142.4282,112.4187
142.4178,112.1016
142.4207,111.9746
142.4293,111.8728
142.4441,111.7997
142.4539,111.7748
142.4653,111.7582
142.4678,111.7565
142.4706,111.7563
142.4735,111.7577
142.4766,111.7604
142.4799,111.7646
142.4833,111.7702
142.4905,111.7854
142.4982,111.8057
142.5064,111.8309
142.5149,111.8607
142.5237,111.8948
142.5327,111.9330
142.5420,111.9749
142.5513,112.0204
142.5606,112.0690
142.5699,112.1207
142.5791,112.1750
142.5881,112.2317
142.5969,112.2906
142.6184,112.4301
142.6420,112.5658
142.6677,112.6975
142.6955,112.8251
142.7253,112.9485
142.7570,113.0674
142.7906,113.1819
142.8260,113.2917
142.8633,113.3967
142.9023,113.4968
142.9431,113.5918
142.9855,113.6817
143.0296,113.7662
143.0752,113.8452
143.1224,113.9186
143.1710,113.9863
143.2641,114.1010
143.3634,114.2098
143.4685,114.3124
143.5787,114.4086
143.6935,114.4979
143.8121,114.5801
143.9342,114.6549
144.0589,114.7220
144.1859,114.7811
144.3144,114.8320
144.4438,114.8742
144.5737,114.9076
144.7033,114.9317
144.8321,114.9464
144.9595,114.9513
145.0225,114.9500
145.0849,114.9462
145.2137,114.9303
145.3447,114.9041
145.4768,114.8683
145.6092,114.8235
145.7407,114.7704
145.8706,114.7094
145.9978,114.6412
146.1213,114.5665
146.2402,114.4859
146.3536,114.4000
146.4604,114.3093
146.5598,114.2145
146.6508,114.1163
146.7323,114.0152
146.8034,113.9119
146.8633,113.8069
146.8864,113.7608
146.9066,113.7179
146.9239,113.6766
146.9315,113.6561
146.9385,113.6353
146.9447,113.6141
146.9503,113.5923
146.9552,113.5697
146.9595,113.5461
146.9631,113.5212
146.9662,113.4950
146.9685,113.4670
146.9703,113.4373
146.9715,113.4055
146.9721,113.3714
146.9716,113.2958
146.9688,113.2088
146.9639,113.1088
146.9569,112.9940
146.9479,112.8630
146.9242,112.5456
146.8948,112.0648
146.8708,111.4896
146.8546,110.8924
146.8488,110.3454
146.8492,109.1382
147.3287,109.1397
147.6898,109.1478
148.3183,109.1690
150.0242,109.2374
151.6740,109.3058
152.5289,109.3352
152.6177,109.3364
152.6541,109.3378
152.6855,109.3399
152.7123,109.3429
152.7347,109.3471
152.7443,109.3496
152.7529,109.3525
152.7606,109.3557
152.7673,109.3593
152.7732,109.3633
152.7782,109.3677
152.7823,109.3725
152.7857,109.3778
152.7884,109.3836
152.7903,109.3900
152.7916,109.3968
152.7922,109.4042
152.7917,109.4207
152.7890,109.4396
152.7844,109.4611
152.7783,109.4855
152.7687,109.5387
152.7566,109.6334
152.7424,109.7642
152.7267,109.9260
152.6925,110.3211
152.6581,110.7762
152.6341,111.1827
152.6210,111.5714
152.6191,111.9431
152.6284,112.2986
152.6491,112.6387
152.6815,112.9643
152.7257,113.2761
152.7819,113.5750
152.8502,113.8619
152.9308,114.1375
153.0239,114.4026
153.1297,114.6581
153.2483,114.9047
153.3799,115.1434
153.5248,115.3749
153.6829,115.6000
153.7481,115.6849
153.8165,115.7687
153.8880,115.8511
153.9625,115.9320
154.0397,116.0114
154.1194,116.0889
154.2015,116.1644
154.2857,116.2379
154.3719,116.3090
154.4599,116.3777
154.5495,116.4438
154.6404,116.5071
154.7326,116.5675
154.8257,116.6247
154.9197,116.6787
155.0143,116.7293
155.0988,116.7681
155.1933,116.8030
155.2966,116.8339
155.4075,116.8608
155.5247,116.8835
155.6472,116.9020
155.7738,116.9163
155.9033,116.9262
156.0344,116.9317
156.1662,116.9327
156.2973,116.9292
156.4266,116.9210
156.5529,116.9082
156.6751,116.8906
156.7920,116.8682
156.9024,116.8409
156.9025,116.8409
157.0003,116.8115
157.0993,116.7778
157.1990,116.7401
157.2986,116.6987
157.3976,116.6541
157.4952,116.6067
157.5908,116.5567
157.6838,116.5046
157.7736,116.4508
157.8593,116.3956
157.9405,116.3395
158.0165,116.2827
158.0865,116.2257
158.1501,116.1689
158.2064,116.1126
158.2549,116.0571
158.2870,116.0167
158.3157,115.9792
158.3409,115.9437
158.3631,115.9098
158.3823,115.8765
158.3909,115.8600
158.3988,115.8434
158.4060,115.8266
158.4127,115.8096
158.4188,115.7923
158.4243,115.7745
158.4293,115.7562
158.4338,115.7374
158.4414,115.6975
158.4472,115.6543
158.4515,115.6070
158.4545,115.5548
158.4564,115.4972
158.4574,115.4335
158.4576,115.3628
158.4580,115.2274
158.4599,115.1258
158.4616,115.0869
158.4640,115.0555
158.4671,115.0313
158.4710,115.0140
158.4734,115.0079
158.4759,115.0034
158.4788,115.0004
158.4819,114.9990
158.4853,114.9991
158.4890,115.0007
158.4973,115.0080
158.5069,115.0207
158.5180,115.0384
158.5449,115.0879
158.5758,115.1448
158.6084,115.1995
158.6426,115.2520
158.6784,115.3022
158.7159,115.3501
158.7551,115.3958
158.7960,115.4393
158.8385,115.4806
158.8827,115.5196
158.9287,115.5564
158.9764,115.5910
159.0257,115.6234
159.0769,115.6536
159.1297,115.6815
159.1844,115.7073
159.2408,115.7309
159.2990,115.7523
159.3589,115.7715
159.4207,115.7885
159.4843,115.8033
159.5497,115.8159
159.6169,115.8264
159.6859,115.8347
159.7568,115.8409
159.8296,115.8449
159.9042,115.8467
159.9807,115.8464
160.0591,115.8439
160.1394,115.8393
160.2216,115.8325
160.3058,115.8236
160.3918,115.8125
160.5058,115.7949
160.6157,115.7742
160.7219,115.7502
160.8247,115.7229
160.9244,115.6920
161.0213,115.6573
161.1159,115.6188
161.2084,115.5761
161.2991,115.5293
161.3885,115.4780
161.4769,115.4222
161.5645,115.3617
161.6518,115.2963
161.7390,115.2258
161.8266,115.1501
161.9148,115.0690
162.0436,114.9421
162.1596,114.8167
162.2631,114.6926
162.3540,114.5696
162.4325,114.4473
162.4671,114.3864
162.4986,114.3255
162.5270,114.2647
162.5524,114.2040
162.5747,114.1432
162.5939,114.0823
162.6102,114.0214
162.6234,113.9603
162.6336,113.8991
162.6408,113.8378
162.6450,113.7762
162.6462,113.7143
162.6444,113.6522
162.6397,113.5897
162.6320,113.5269
162.6214,113.4637
162.6078,113.4000
162.5913,113.3360
162.5719,113.2714
162.5496,113.2063
162.4963,113.0744
162.4476,112.9594
162.3974,112.8310
162.2936,112.5369
162.1866,112.1984
162.0782,111.8219
161.9701,111.4139
161.8642,110.9807
161.7621,110.5286
161.6656,110.0642
161.4488,108.9728
162.1234,108.2909
162.7979,107.6090
163.3883,108.1708
163.7188,108.4717
164.0586,108.7538
164.4082,109.0172
164.7682,109.2623
165.1391,109.4893
165.5216,109.6984
165.9162,109.8898
166.3235,110.0637
166.7442,110.2205
167.1787,110.3603
167.6276,110.4833
168.0916,110.5899
168.5713,110.6801
169.0672,110.7544
169.5798,110.8128
170.1099,110.8557
170.5514,110.8786
171.0111,110.8896
171.5092,110.8877
172.0662,110.8724
172.7026,110.8427
173.4387,110.7980
174.2950,110.7374
175.2919,110.6603
177.4582,110.4877
177.6061,110.4753
177.6671,110.4693
177.7202,110.4631
177.7659,110.4565
177.8048,110.4494
177.8374,110.4415
177.8643,110.4326
177.8859,110.4225
177.9029,110.4109
177.9099,110.4045
177.9158,110.3977
177.9252,110.3826
177.9315,110.3655
177.9353,110.3461
177.9372,110.3241
177.9377,110.2995
177.9374,110.2874
177.9364,110.2757
177.9346,110.2643
177.9319,110.2531
177.9282,110.2422
177.9234,110.2314
177.9175,110.2207
177.9104,110.2101
177.9019,110.1994
177.8920,110.1887
177.8805,110.1779
177.8674,110.1669
177.8527,110.1557
177.8361,110.1443
177.8177,110.1325
177.7973,110.1204
177.7748,110.1078
177.7501,110.0947
177.7232,110.0812
177.6940,110.0670
177.6623,110.0522
177.6281,110.0367
177.5518,110.0035
177.4643,109.9669
177.3649,109.9265
177.2529,109.8819
177.1274,109.8327
176.7600,109.6851
176.4205,109.5405
176.1120,109.4004
175.8375,109.2664
175.6001,109.1401
175.4028,109.0229
175.3201,108.9682
175.2486,108.9164
175.1887,108.8676
175.1406,108.8221
175.1225,108.8025
175.1039,108.7810
175.0849,108.7577
175.0656,108.7329
175.0462,108.7068
175.0268,108.6796
175.0076,108.6515
174.9887,108.6229
174.9703,108.5938
174.9524,108.5645
174.9353,108.5352
174.9190,108.5061
174.9038,108.4775
174.8897,108.4496
174.8770,108.4225
174.8656,108.3966
174.7630,108.1510
175.1763,108.1800
175.4098,108.1939
175.7402,108.2102
176.1234,108.2269
176.5156,108.2420
176.8891,108.2599
177.2448,108.2864
177.5837,108.3222
177.9071,108.3674
178.2161,108.4227
178.5118,108.4883
178.7955,108.5646
179.0683,108.6521
179.3313,108.7512
179.5857,108.8623
179.8327,108.9857
180.0734,109.1219
180.3091,109.2714
180.5408,109.4344
180.7697,109.6114
180.9970,109.8028
181.0290,109.8303
181.0601,109.8562
181.0901,109.8803
181.1189,109.9026
181.1464,109.9228
181.1723,109.9410
181.1964,109.9571
181.2188,109.9708
181.2390,109.9823
181.2571,109.9913
181.2729,109.9977
181.2861,110.0015
181.2967,110.0026
181.3009,110.0021
181.3044,110.0008
181.3072,109.9988
181.3092,109.9961
181.3104,109.9927
181.3108,109.9884
181.3269,109.8081
181.3710,109.3832
181.5164,108.0539
181.7224,106.2088
182.3882,105.3750
182.6533,105.0376
182.8944,104.7188
183.1126,104.4164
183.3087,104.1280
183.4838,103.8517
183.6387,103.5852
183.7745,103.3263
183.8919,103.0729
183.9921,102.8228
184.0759,102.5737
184.1442,102.3237
184.1981,102.0703
184.2384,101.8116
184.2660,101.5453
184.2820,101.2692
184.2873,100.9812
184.2877,100.2656
184.0855,100.4096
184.0311,100.4501
183.9538,100.5100
183.7446,100.6769
183.4868,100.8870
183.2091,101.1172
182.9867,101.3006
182.7760,101.4692
182.5757,101.6236
182.3848,101.7645
182.2020,101.8924
182.0262,102.0080
181.8563,102.1119
181.6910,102.2046
181.5293,102.2869
181.3700,102.3594
181.2120,102.4225
181.0540,102.4771
180.8950,102.5236
180.7338,102.5628
180.5692,102.5952
180.4001,102.6214
180.0513,102.6687
177.6881,101.3625
174.7600,99.7390
174.1950,99.4219
174.2398,98.9015
174.2710,98.6164
174.3162,98.3315
174.3760,98.0454
174.4510,97.7565
174.5421,97.4634
174.6499,97.1647
174.7750,96.8589
174.9183,96.5445
175.0803,96.2200
175.2619,95.8840
175.4637,95.5351
175.6863,95.1717
175.9306,94.7924
176.1972,94.3957
176.4868,93.9802
176.8000,93.5443
177.3987,92.7133
177.8621,92.0509
178.0324,91.7986
178.1559,91.6072
178.2285,91.4831
178.2443,91.4482
178.2458,91.4325
178.2436,91.4313
178.2404,91.4306
178.2360,91.4306
178.2305,91.4312
178.2164,91.4339
178.1984,91.4389
178.1766,91.4459
178.1514,91.4549
178.1229,91.4657
178.0915,91.4783
178.0207,91.5084
177.9410,91.5443
177.8543,91.5852
177.7626,91.6303
177.5662,91.7261
177.3419,91.8294
177.0801,91.9445
176.7708,92.0753
176.4041,92.2259
175.9704,92.4005
174.8620,92.8381
174.1342,93.1339
173.8084,93.2755
173.5062,93.4139
173.2266,93.5499
172.9682,93.6843
172.7299,93.8178
172.5104,93.9512
172.3086,94.0854
172.1232,94.2209
171.9529,94.3588
171.7966,94.4996
171.6531,94.6442
171.5211,94.7934
171.3993,94.9479
171.2867,95.1085
171.2678,95.1364
171.2490,95.1630
171.2304,95.1882
171.2121,95.2118
171.1943,95.2338
171.1770,95.2540
171.1603,95.2723
171.1445,95.2886
171.1295,95.3027
171.1155,95.3147
171.1027,95.3243
171.0911,95.3314
171.0809,95.3359
171.0764,95.3372
171.0722,95.3378
171.0684,95.3377
171.0650,95.3368
171.0621,95.3352
171.0596,95.3329
171.0545,95.3249
171.0484,95.3116
171.0413,95.2935
171.0334,95.2709
171.0152,95.2131
170.9945,95.1406
170.9720,95.0558
170.9482,94.9611
170.9239,94.8588
170.8998,94.7515
170.8124,94.3716
170.7074,93.9472
170.5881,93.4900
170.4576,93.0119
170.3194,92.5245
170.1766,92.0399
170.0327,91.5697
169.8908,91.1257
169.5795,90.2207
169.2542,89.3629
168.9152,88.5528
168.5629,87.7911
168.1978,87.0783
167.8204,86.4151
167.4312,85.8021
167.0305,85.2399
166.6188,84.7290
166.1967,84.2700
165.7644,83.8636
165.3226,83.5104
164.8715,83.2109
164.4118,82.9658
163.9438,82.7756
163.4680,82.6409
163.3230,82.6119
163.1737,82.5882
163.0206,82.5700
162.8645,82.5571
162.7056,82.5495
162.5447,82.5471
Z" /> 
</g> 
</svg>
