<?xml version="1.0" standalone="no"?>
 <!DOCTYPE svg PUBLIC "-//W3C//DTD SVG 1.1//EN" 
 "http://www.w3.org/Graphics/SVG/1.1/DTD/svg11.dtd"> 
<svg
  xmlns:svg="http://www.w3.org/2000/svg"
  xmlns="http://www.w3.org/2000/svg"
  xmlns:xlink="http://www.w3.org/1999/xlink"
  version="1.1"
  width="297.0022mm" height="210.0072mm" viewBox="0.0000 0.0000 297.0022 210.0072">
<title>SVG Image created as Dino-Blinker-B_Cu.svg date 2024/12/11 00:23:26 </title>
  <desc>Image generated by PCBNEW </desc>
<g style="fill:#000000; fill-opacity:1.0000;stroke:#000000; stroke-opacity:1.0000;
stroke-linecap:round; stroke-linejoin:round;"
 transform="translate(0 0) scale(1 1)">
<path style="fill:#000000; fill-opacity:1.0000; stroke:none;fill-rule:evenodd;"
d="M 175.1080,105.4955
175.0710,105.5325
175.0178,105.6389
174.9548,105.8907
174.9548,106.2109
175.0178,106.4628
175.0710,106.5691
175.1080,106.6061
175.1974,106.6508
175.2694,106.6508
175.3588,106.6061
175.3958,106.5691
175.4490,106.4628
175.5120,106.2109
175.5120,105.8907
175.4490,105.6389
175.3958,105.5325
175.3588,105.4955
175.2694,105.4508
175.1974,105.4508
Z" /> 
<path style="fill:#000000; fill-opacity:1.0000; stroke:none;fill-rule:evenodd;"
d="M 159.4651,103.5806
159.4281,103.6176
159.3834,103.7070
159.3834,104.0648
159.4281,104.1542
159.4651,104.1912
159.5545,104.2359
159.7694,104.2359
159.7977,104.2218
159.7977,103.5500
159.7694,103.5359
159.5545,103.5359
Z" /> 
<path style="fill:#000000; fill-opacity:1.0000; stroke:none;fill-rule:evenodd;"
d="M 161.0807,103.3823
160.9130,103.4941
160.8012,103.6618
160.7452,103.8859
160.8012,104.1100
160.9130,104.2777
161.0807,104.3895
161.3048,104.4456
161.5290,104.3895
161.6349,104.3190
161.6327,104.3187
161.6014,104.3058
161.5922,104.3020
161.5862,104.3058
161.4433,104.3772
161.4159,104.3877
161.4105,104.3881
161.4055,104.3902
161.3763,104.3931
161.2334,104.3931
161.2041,104.3902
161.1992,104.3881
161.1938,104.3877
161.1663,104.3772
161.0235,104.3058
161.0109,104.2979
161.0072,104.2963
161.0031,104.2930
160.9986,104.2901
160.9960,104.2871
160.9845,104.2777
160.9131,104.2063
160.9036,104.1948
160.9006,104.1922
160.8978,104.1877
160.8944,104.1835
160.8929,104.1799
160.8850,104.1673
160.8135,104.0244
160.8030,103.9970
160.8026,103.9916
160.8006,103.9866
160.7977,103.9573
160.7977,103.8145
160.8006,103.7852
160.8026,103.7802
160.8030,103.7749
160.8135,103.7474
160.8850,103.6045
160.8929,103.5919
160.8944,103.5883
160.8978,103.5842
160.9006,103.5797
160.9036,103.5771
160.9131,103.5656
160.9845,103.4941
160.9960,103.4847
160.9986,103.4817
161.0031,103.4789
161.0072,103.4755
161.0109,103.4740
161.0235,103.4660
161.1663,103.3946
161.1938,103.3841
161.1992,103.3837
161.2041,103.3817
161.2334,103.3788
161.3763,103.3788
161.4055,103.3817
161.4105,103.3837
161.4159,103.3841
161.4433,103.3946
161.4922,103.4190
161.5072,103.4040
161.5408,103.3901
161.5290,103.3823
161.3048,103.3262
Z" /> 
<path style="fill:#000000; fill-opacity:1.0000; stroke:none;fill-rule:evenodd;"
d="M 161.1794,103.7235
161.1424,103.7605
161.0977,103.8499
161.0977,103.9219
161.1424,104.0113
161.1794,104.0483
161.2688,104.0931
161.3409,104.0931
161.4303,104.0483
161.4405,104.0381
161.4405,103.7338
161.4303,103.7235
161.3409,103.6788
161.2688,103.6788
Z" /> 
<path style="fill:#000000; fill-opacity:1.0000; stroke:none;fill-rule:evenodd;"
d="M 161.7405,104.0003
161.7645,103.9884
161.7977,103.9219
161.7977,103.6456
161.7405,103.5599
Z" /> 
<path style="fill:#000000; fill-opacity:1.0000; stroke:none;fill-rule:evenodd;"
d="M 177.0595,103.9977
177.0263,104.0642
177.0263,104.1362
177.0595,104.2027
177.1260,104.2359
177.4123,104.2359
177.4405,104.2218
177.4405,103.9645
177.1260,103.9645
Z" /> 
<path style="fill:#000000; fill-opacity:1.0000; stroke:none;fill-rule:evenodd;"
d="M 173.7023,103.9977
173.6691,104.0642
173.6691,104.1362
173.7023,104.2027
173.7688,104.2359
174.0551,104.2359
174.0834,104.2218
174.0834,103.9645
173.7688,103.9645
Z" /> 
<path style="fill:#000000; fill-opacity:1.0000; stroke:none;fill-rule:evenodd;"
d="M 169.6309,103.5691
169.5977,103.6356
169.5977,103.7029
170.0049,103.6215
169.9787,103.5691
169.9123,103.5359
169.6974,103.5359
Z" /> 
<path style="fill:#000000; fill-opacity:1.0000; stroke:none;fill-rule:evenodd;"
d="M 155.4167,107.1175
178.9758,107.1175
178.9758,106.2716
178.7377,106.2716
178.7377,106.3301
178.7153,106.3842
178.6739,106.4255
178.6198,106.4479
178.5905,106.4508
178.5263,106.4508
178.5263,106.8008
178.5234,106.8301
178.5010,106.8842
178.4596,106.9255
178.4055,106.9479
178.3470,106.9479
178.2929,106.9255
178.2515,106.8842
178.2291,106.8301
178.2263,106.8008
178.2263,106.4508
177.6620,106.4508
177.6472,106.4494
177.6432,106.4496
177.6404,106.4487
177.6327,106.4479
177.6105,106.4387
177.5877,106.4311
177.5836,106.4276
177.5786,106.4255
177.5616,106.4085
177.5435,106.3928
177.5411,106.3880
177.5373,106.3842
177.5281,106.3619
177.5173,106.3404
177.5169,106.3351
177.5149,106.3301
177.5149,106.3060
177.5132,106.2821
177.5149,106.2746
177.5149,106.2716
177.5164,106.2679
177.5197,106.2534
177.7420,105.5865
177.2405,105.5865
177.2405,105.7294
177.2391,105.7442
177.2394,105.7482
177.2382,105.7534
177.2377,105.7587
177.2361,105.7623
177.2328,105.7768
177.1614,105.9911
177.1494,106.0180
177.1459,106.0220
177.1438,106.0270
177.1252,106.0498
176.5241,106.6508
177.0905,106.6508
177.1198,106.6537
177.1739,106.6761
177.2153,106.7175
177.2377,106.7716
177.2377,106.8301
177.2153,106.8842
177.1739,106.9255
177.1198,106.9479
177.0905,106.9508
176.1620,106.9508
176.1327,106.9479
176.1014,106.9350
176.0786,106.9255
176.0373,106.8842
176.0149,106.8301
176.0149,106.7716
176.0180,106.7640
176.0214,106.7557
176.0373,106.7175
176.0559,106.6948
176.8784,105.8723
175.8120,105.8723
175.8120,106.2294
175.8115,106.2345
175.8118,106.2367
175.8102,106.2476
175.8091,106.2587
175.8082,106.2607
175.8075,106.2658
175.7361,106.5515
175.7353,106.5537
175.7352,106.5547
175.7306,106.5669
175.7262,106.5792
175.7255,106.5801
175.7247,106.5822
175.6533,106.7251
175.6454,106.7376
175.6438,106.7413
175.6405,106.7454
175.6376,106.7499
175.6346,106.7525
175.6252,106.7640
175.5538,106.8355
175.5423,106.8449
175.5397,106.8479
175.5351,106.8507
175.5310,106.8541
175.5274,106.8556
175.5148,106.8636
175.3719,106.9350
175.3445,106.9455
175.3391,106.9459
175.3341,106.9479
175.3048,106.9508
175.1620,106.9508
175.1327,106.9479
175.1277,106.9459
175.1224,106.9455
175.0949,106.9350
174.9520,106.8636
174.9394,106.8556
174.9358,106.8541
174.9317,106.8507
174.9272,106.8479
174.9246,106.8449
174.9131,106.8355
174.8416,106.7640
174.8322,106.7525
174.8292,106.7499
174.8264,106.7454
174.8230,106.7413
174.8215,106.7376
174.8135,106.7251
174.7421,106.5822
174.7413,106.5801
174.7406,106.5792
174.7362,106.5669
174.7316,106.5547
174.7315,106.5537
174.7307,106.5515
174.6593,106.2658
174.6586,106.2607
174.6577,106.2587
174.6566,106.2476
174.6550,106.2367
174.6553,106.2345
174.6548,106.2294
174.6548,105.8723
174.6553,105.8672
174.6550,105.8650
174.6566,105.8540
174.6577,105.8430
174.6586,105.8409
174.6593,105.8359
174.7216,105.5865
174.3834,105.5865
174.3834,105.7294
174.3819,105.7442
174.3822,105.7482
174.3810,105.7534
174.3805,105.7587
174.3790,105.7623
174.3757,105.7768
174.3043,105.9911
174.2923,106.0180
174.2888,106.0220
174.2867,106.0270
174.2680,106.0498
173.6670,106.6508
174.2334,106.6508
174.2627,106.6537
174.3167,106.6761
174.3581,106.7175
174.3805,106.7716
174.3805,106.8301
174.3581,106.8842
174.3167,106.9255
174.2627,106.9479
174.2334,106.9508
173.3048,106.9508
173.2756,106.9479
173.2443,106.9350
173.2215,106.9255
173.1801,106.8842
173.1577,106.8301
173.1577,106.7716
173.1608,106.7640
173.1643,106.7557
173.1801,106.7175
173.1988,106.6948
174.0309,105.8627
174.0834,105.7051
174.0834,105.6220
174.0387,105.5325
174.0017,105.4955
173.9123,105.4508
173.6260,105.4508
173.5365,105.4955
173.4823,105.5498
173.4596,105.5684
173.4055,105.5908
173.3470,105.5908
173.2929,105.5684
173.2515,105.5270
173.2291,105.4729
173.2291,105.4144
173.2515,105.3603
173.2702,105.3376
173.3416,105.2662
173.3531,105.2568
173.3557,105.2538
173.3602,105.2509
173.3644,105.2475
173.3680,105.2460
173.3806,105.2381
173.5235,105.1667
173.5509,105.1562
173.5563,105.1558
173.5613,105.1537
173.5905,105.1508
173.9477,105.1508
173.9770,105.1537
173.9819,105.1558
173.9873,105.1562
174.0148,105.1667
174.1576,105.2381
174.1702,105.2460
174.1739,105.2475
174.1780,105.2509
174.1825,105.2538
174.1851,105.2568
174.1966,105.2662
174.2680,105.3376
174.2775,105.3491
174.2805,105.3517
174.2833,105.3562
174.2867,105.3603
174.2882,105.3640
174.2961,105.3766
174.3676,105.5195
174.3781,105.5469
174.3785,105.5523
174.3805,105.5573
174.3834,105.5865
174.7216,105.5865
174.7307,105.5502
174.7315,105.5480
174.7316,105.5469
174.7362,105.5347
174.7406,105.5225
174.7413,105.5216
174.7421,105.5195
174.8135,105.3766
174.8215,105.3640
174.8230,105.3603
174.8264,105.3562
174.8292,105.3517
174.8322,105.3491
174.8416,105.3376
174.9131,105.2662
174.9246,105.2568
174.9272,105.2538
174.9317,105.2509
174.9358,105.2475
174.9394,105.2460
174.9520,105.2381
175.0949,105.1667
175.1224,105.1562
175.1277,105.1558
175.1327,105.1537
175.1620,105.1508
175.3048,105.1508
175.3341,105.1537
175.3391,105.1558
175.3445,105.1562
175.3719,105.1667
175.5148,105.2381
175.5274,105.2460
175.5310,105.2475
175.5351,105.2509
175.5397,105.2538
175.5423,105.2567
175.5538,105.2662
175.6252,105.3376
175.6346,105.3491
175.6376,105.3517
175.6405,105.3562
175.6438,105.3603
175.6454,105.3640
175.6533,105.3766
175.7247,105.5195
175.7255,105.5216
175.7262,105.5225
175.7306,105.5347
175.7352,105.5469
175.7353,105.5480
175.7361,105.5502
175.8075,105.8359
175.8082,105.8409
175.8091,105.8430
175.8102,105.8540
175.8118,105.8650
175.8115,105.8672
175.8120,105.8723
176.8784,105.8723
176.8880,105.8627
176.9405,105.7051
176.9405,105.6220
176.8958,105.5325
176.8588,105.4955
176.7694,105.4508
176.4831,105.4508
176.3937,105.4955
176.3395,105.5498
176.3167,105.5684
176.2627,105.5908
176.2041,105.5908
176.1501,105.5684
176.1087,105.5270
176.0863,105.4729
176.0863,105.4144
176.1087,105.3603
176.1273,105.3376
176.1988,105.2662
176.2103,105.2568
176.2129,105.2538
176.2174,105.2509
176.2215,105.2475
176.2252,105.2460
176.2378,105.2381
176.3806,105.1667
176.4081,105.1562
176.4134,105.1558
176.4184,105.1537
176.4477,105.1508
176.8048,105.1508
176.8341,105.1537
176.8391,105.1558
176.8445,105.1562
176.8719,105.1667
177.0148,105.2381
177.0274,105.2460
177.0310,105.2475
177.0351,105.2509
177.0397,105.2538
177.0423,105.2568
177.0538,105.2662
177.1252,105.3376
177.1346,105.3491
177.1376,105.3517
177.1405,105.3562
177.1438,105.3603
177.1454,105.3640
177.1533,105.3766
177.2247,105.5195
177.2352,105.5469
177.2356,105.5523
177.2377,105.5573
177.2405,105.5865
177.7420,105.5865
177.8768,105.1820
177.8888,105.1551
177.9272,105.1109
177.9795,105.0847
178.0379,105.0806
178.0934,105.0991
178.1376,105.1374
178.1638,105.1898
178.1679,105.2482
178.1614,105.2768
177.8701,106.1508
178.2263,106.1508
178.2263,105.8008
178.2291,105.7716
178.2515,105.7175
178.2929,105.6761
178.3470,105.6537
178.4055,105.6537
178.4596,105.6761
178.5010,105.7175
178.5234,105.7716
178.5263,105.8008
178.5263,106.1508
178.5905,106.1508
178.6198,106.1537
178.6739,106.1761
178.7153,106.2175
178.7377,106.2716
178.9758,106.2716
178.9758,103.3566
178.8091,103.3566
178.8091,103.4152
178.7867,103.4692
178.7453,103.5106
178.6912,103.5330
178.6620,103.5359
178.4548,103.5359
178.4548,104.1362
178.4881,104.2027
178.5545,104.2359
178.6620,104.2359
178.6912,104.2388
178.7453,104.2612
178.7867,104.3026
178.8091,104.3566
178.8091,104.4152
178.7867,104.4692
178.7453,104.5106
178.6912,104.5330
178.6620,104.5359
178.5191,104.5359
178.4899,104.5330
178.4849,104.5310
178.4795,104.5306
178.4520,104.5201
178.3092,104.4486
178.3043,104.4456
178.3020,104.4448
178.2991,104.4423
178.2843,104.4330
178.2720,104.4188
178.2578,104.4065
178.2484,104.3916
178.2459,104.3888
178.2452,104.3865
178.2421,104.3816
178.1707,104.2387
178.1602,104.2112
178.1598,104.2059
178.1577,104.2009
178.1548,104.1716
178.1548,103.6002
177.7405,103.6002
177.7405,104.3859
177.7377,104.4152
177.7153,104.4692
177.6739,104.5106
177.6198,104.5330
177.5613,104.5330
177.5217,104.5166
177.5148,104.5201
177.4873,104.5306
177.4819,104.5310
177.4770,104.5330
177.4477,104.5359
177.0905,104.5359
177.0613,104.5330
177.0563,104.5310
177.0509,104.5306
177.0235,104.5201
176.8806,104.4486
176.8757,104.4456
176.8734,104.4448
176.8705,104.4423
176.8557,104.4330
176.8434,104.4188
176.8292,104.4065
176.8199,104.3916
176.8174,104.3888
176.8166,104.3865
176.8135,104.3816
176.7654,104.2852
176.4519,104.2852
176.4519,104.3437
176.4497,104.3491
176.4296,104.3978
176.4296,104.3978
176.4109,104.4206
176.3395,104.4920
176.3167,104.5106
176.3167,104.5106
176.2939,104.5201
176.2627,104.5330
176.2627,104.5330
176.2627,104.5330
176.2041,104.5330
176.2041,104.5330
176.1729,104.5201
176.1501,104.5106
176.1273,104.4920
176.0559,104.4205
176.0373,104.3978
176.0149,104.3437
176.0149,104.3163
176.0149,104.2852
176.0373,104.2311
176.0559,104.2084
176.1273,104.1370
176.1501,104.1183
176.1501,104.1183
176.1817,104.1052
176.2041,104.0959
176.2627,104.0959
176.2851,104.1052
176.3167,104.1183
176.3395,104.1370
176.4109,104.2084
176.4296,104.2311
176.4497,104.2798
176.4519,104.2852
176.7654,104.2852
176.7421,104.2387
176.7316,104.2112
176.7312,104.2059
176.7291,104.2009
176.7263,104.1716
176.7263,104.0288
176.7291,103.9995
176.7312,103.9945
176.7316,103.9892
176.7421,103.9617
176.8135,103.8188
176.8166,103.8139
176.8174,103.8116
176.8199,103.8088
176.8292,103.7939
176.8434,103.7816
176.8557,103.7674
176.8705,103.7581
176.8734,103.7556
176.8757,103.7548
176.8806,103.7517
177.0235,103.6803
177.0509,103.6698
177.0563,103.6694
177.0613,103.6674
177.0905,103.6645
177.4123,103.6645
177.4405,103.6503
177.4405,103.6356
177.4073,103.5691
177.3409,103.5359
177.1260,103.5359
177.0148,103.5915
176.9873,103.6020
176.9289,103.6062
176.8734,103.5877
176.8292,103.5493
176.8030,103.4970
176.7989,103.4386
175.7394,103.4386
175.7352,103.4970
175.7090,103.5493
175.6648,103.5877
175.6093,103.6062
175.5509,103.6020
175.5235,103.5915
175.4123,103.5359
175.1974,103.5359
175.1080,103.5806
175.0710,103.6176
175.0263,103.7070
175.0263,104.0648
175.0710,104.1542
175.1080,104.1912
175.1974,104.2359
175.4123,104.2359
175.5235,104.1803
175.5509,104.1698
175.6093,104.1657
175.6648,104.1842
175.7090,104.2225
175.7352,104.2749
175.7394,104.3332
175.7209,104.3888
175.6825,104.4330
175.6576,104.4486
175.5148,104.5201
175.4873,104.5306
175.4819,104.5310
175.4770,104.5330
175.4477,104.5359
175.1620,104.5359
175.1327,104.5330
175.1277,104.5310
175.1224,104.5306
175.0949,104.5201
174.9520,104.4486
174.9394,104.4407
174.9358,104.4392
174.9317,104.4358
174.9271,104.4330
174.9246,104.4300
174.9131,104.4205
174.8416,104.3491
174.8322,104.3376
174.8292,104.3350
174.8264,104.3305
174.8230,104.3264
174.8215,104.3227
174.8135,104.3101
174.7421,104.1673
174.7316,104.1398
174.7312,104.1344
174.7291,104.1295
174.7263,104.1002
174.7263,103.6716
174.7291,103.6424
174.7312,103.6374
174.7316,103.6320
174.7421,103.6045
174.7443,103.6002
174.3834,103.6002
174.3834,104.3859
174.3805,104.4152
174.3581,104.4692
174.3167,104.5106
174.2627,104.5330
174.2041,104.5330
174.1645,104.5166
174.1576,104.5201
174.1302,104.5306
174.1248,104.5310
174.1198,104.5330
174.0905,104.5359
173.7334,104.5359
173.7041,104.5330
173.6992,104.5310
173.6938,104.5306
173.6663,104.5201
173.5235,104.4486
173.5186,104.4456
173.5163,104.4448
173.5134,104.4423
173.4986,104.4330
173.4863,104.4188
173.4720,104.4065
173.4627,104.3916
173.4602,104.3888
173.4595,104.3865
173.4564,104.3816
173.4082,104.2852
173.0948,104.2852
173.0948,104.3437
173.0926,104.3491
173.0724,104.3978
173.0724,104.3978
173.0538,104.4206
172.9823,104.4920
172.9596,104.5106
172.9596,104.5106
172.9368,104.5201
172.9055,104.5330
172.9055,104.5330
172.9055,104.5330
172.8470,104.5330
172.8470,104.5330
172.8157,104.5201
172.7929,104.5106
172.7702,104.4920
172.6988,104.4205
172.6801,104.3978
172.6577,104.3437
172.6577,104.3163
172.6577,104.2852
172.6801,104.2311
172.6988,104.2084
172.7702,104.1370
172.7929,104.1183
172.7929,104.1183
172.8246,104.1052
172.8470,104.0959
172.9055,104.0959
172.9279,104.1052
172.9596,104.1183
172.9823,104.1370
173.0538,104.2084
173.0724,104.2311
173.0926,104.2798
173.0948,104.2852
173.4082,104.2852
173.3850,104.2387
173.3744,104.2112
173.3741,104.2059
173.3720,104.2009
173.3691,104.1716
173.3691,104.0288
173.3720,103.9995
173.3741,103.9945
173.3744,103.9892
173.3850,103.9617
173.4564,103.8188
173.4595,103.8139
173.4602,103.8116
173.4627,103.8088
173.4720,103.7939
173.4863,103.7816
173.4986,103.7674
173.5134,103.7581
173.5163,103.7556
173.5186,103.7548
173.5235,103.7517
173.6663,103.6803
173.6938,103.6698
173.6992,103.6694
173.7041,103.6674
173.7334,103.6645
174.0551,103.6645
174.0834,103.6503
174.0834,103.6356
174.0502,103.5691
173.9837,103.5359
173.7688,103.5359
173.6576,103.5915
173.6302,103.6020
173.5718,103.6062
173.5163,103.5877
173.4720,103.5493
173.4459,103.4970
173.4417,103.4386
173.4602,103.3831
173.4831,103.3566
172.5234,103.3566
172.5234,103.4152
172.5010,103.4692
172.4596,103.5106
172.4055,103.5330
172.3763,103.5359
172.2688,103.5359
172.1794,103.5806
172.1424,103.6176
172.0977,103.7070
172.0977,104.3859
172.0948,104.4152
172.0724,104.4692
172.0310,104.5106
171.9770,104.5330
171.9184,104.5330
171.8644,104.5106
171.8230,104.4692
171.8006,104.4152
171.7977,104.3859
171.7977,103.4078
171.5247,103.4078
171.5175,103.4364
171.1604,104.4364
171.1592,104.4389
171.1584,104.4416
171.0155,104.7988
171.0020,104.8249
171.0013,104.8255
171.0010,104.8264
170.9823,104.8491
170.9109,104.9205
170.8994,104.9300
170.8968,104.9330
170.8923,104.9358
170.8882,104.9392
170.8845,104.9407
170.8719,104.9486
170.7291,105.0201
170.7016,105.0306
170.6432,105.0347
170.5877,105.0162
170.5435,104.9779
170.5173,104.9255
170.5132,104.8671
170.5317,104.8116
170.5700,104.7674
170.5949,104.7517
170.7160,104.6912
170.7484,104.6588
170.8588,104.3829
170.5792,103.6002
170.3120,103.6002
170.3120,103.7431
170.3091,103.7723
170.3035,103.7859
170.3006,103.8003
170.2924,103.8127
170.2867,103.8264
170.2763,103.8368
170.2682,103.8490
170.2558,103.8573
170.2453,103.8678
170.2317,103.8734
170.2195,103.8816
170.1914,103.8901
170.1912,103.8902
170.1912,103.8902
170.1912,103.8902
169.5977,104.0089
169.5977,104.1362
169.6309,104.2027
169.6974,104.2359
169.9123,104.2359
170.0235,104.1803
170.0509,104.1698
170.1093,104.1657
170.1648,104.1842
170.2090,104.2225
170.2352,104.2749
170.2394,104.3332
170.2209,104.3888
170.1825,104.4330
170.1576,104.4486
170.0148,104.5201
169.9873,104.5306
169.9819,104.5310
169.9770,104.5330
169.9477,104.5359
169.6620,104.5359
169.6327,104.5330
169.6277,104.5310
169.6224,104.5306
169.5949,104.5201
169.4520,104.4486
169.4471,104.4456
169.4448,104.4448
169.4420,104.4423
169.4271,104.4330
169.4148,104.4188
169.4006,104.4065
169.3913,104.3916
169.3888,104.3888
169.3880,104.3865
169.3850,104.3816
169.3135,104.2387
169.3030,104.2112
169.3026,104.2059
169.3006,104.2009
169.2977,104.1716
169.2977,103.8861
169.2977,103.8861
169.2977,103.8861
169.2977,103.6002
169.3006,103.5709
169.3026,103.5660
169.3030,103.5606
169.3135,103.5331
169.3850,103.3903
169.3880,103.3854
169.3888,103.3831
169.3913,103.3802
169.4006,103.3654
169.4107,103.3566
169.1662,103.3566
169.1662,103.4152
169.1438,103.4692
169.1025,103.5106
169.0484,103.5330
169.0191,103.5359
168.8120,103.5359
168.8120,104.1362
168.8452,104.2027
168.9117,104.2359
169.0191,104.2359
169.0484,104.2388
169.1025,104.2612
169.1438,104.3026
169.1662,104.3566
169.1662,104.4152
169.1438,104.4692
169.1025,104.5106
169.0484,104.5330
169.0191,104.5359
168.8763,104.5359
168.8470,104.5330
168.8420,104.5310
168.8366,104.5306
168.8092,104.5201
168.6663,104.4486
168.6614,104.4456
168.6591,104.4448
168.6562,104.4423
168.6414,104.4330
168.6291,104.4188
168.6149,104.4065
168.6056,104.3916
168.6031,104.3888
168.6023,104.3865
168.5992,104.3816
168.5278,104.2387
168.5173,104.2112
168.5169,104.2059
168.5149,104.2009
168.5120,104.1716
168.5120,104.1002
168.1691,104.1002
168.1691,104.1716
168.1662,104.2009
168.1642,104.2059
168.1638,104.2112
168.1533,104.2387
168.0819,104.3816
168.0788,104.3865
168.0780,104.3888
168.0755,104.3916
168.0662,104.4065
168.0520,104.4188
168.0397,104.4330
168.0248,104.4423
168.0220,104.4448
168.0197,104.4456
168.0148,104.4486
167.8719,104.5201
167.8444,104.5306
167.8391,104.5310
167.8341,104.5330
167.8048,104.5359
167.5191,104.5359
167.4899,104.5330
167.4849,104.5310
167.4795,104.5306
167.4520,104.5201
167.3092,104.4486
167.2843,104.4330
167.2459,104.3888
167.2387,104.3671
165.1679,104.3671
165.1638,104.4255
165.1376,104.4779
165.0934,104.5162
165.0379,104.5347
164.9795,104.5306
164.9520,104.5201
164.8092,104.4486
164.8043,104.4456
164.8020,104.4448
164.7991,104.4423
164.7843,104.4330
164.7720,104.4188
164.7578,104.4065
164.7484,104.3916
164.7459,104.3888
164.7452,104.3865
164.7421,104.3816
164.6707,104.2387
164.6602,104.2112
164.6598,104.2059
164.6577,104.2009
164.6548,104.1716
164.6548,103.3566
164.4519,103.3566
164.4519,103.4152
164.4296,103.4692
164.3882,103.5106
164.3341,103.5330
164.3048,103.5359
164.0977,103.5359
164.0977,104.1362
164.1309,104.2027
164.1974,104.2359
164.3048,104.2359
164.3341,104.2388
164.3882,104.2612
164.4296,104.3026
164.4519,104.3566
164.4519,104.4152
164.4296,104.4692
164.3882,104.5106
164.3341,104.5330
164.3048,104.5359
164.1620,104.5359
164.1327,104.5330
164.1277,104.5310
164.1224,104.5306
164.0949,104.5201
163.9520,104.4486
163.9471,104.4456
163.9448,104.4448
163.9420,104.4423
163.9271,104.4330
163.9148,104.4188
163.9006,104.4065
163.8913,104.3916
163.8888,104.3888
163.8880,104.3865
163.8850,104.3816
163.8135,104.2387
163.8030,104.2112
163.8026,104.2059
163.8006,104.2009
163.7977,104.1716
163.7977,103.6002
163.3834,103.6002
163.3834,104.3859
163.3805,104.4152
163.3581,104.4692
163.3167,104.5106
163.2627,104.5330
163.2041,104.5330
163.1501,104.5106
163.1087,104.4692
163.0863,104.4152
163.0834,104.3859
163.0834,103.6356
163.0502,103.5691
162.9837,103.5359
162.8402,103.5359
162.7508,103.5806
162.7405,103.5909
162.7405,104.3859
162.7377,104.4152
162.7153,104.4692
162.6739,104.5106
162.6198,104.5330
162.5613,104.5330
162.5072,104.5106
162.4658,104.4692
162.4434,104.4152
162.4405,104.3859
162.4405,103.6002
162.0977,103.6002
162.0977,103.9573
162.0948,103.9866
162.0927,103.9916
162.0924,103.9970
162.0819,104.0244
162.0104,104.1673
162.0073,104.1722
162.0066,104.1745
162.0041,104.1774
161.9948,104.1922
161.9805,104.2045
161.9682,104.2187
161.9534,104.2280
161.9505,104.2305
161.9482,104.2313
161.9433,104.2344
161.8859,104.2631
161.9110,104.2800
161.9435,104.3287
161.9548,104.3861
161.9434,104.4435
161.9108,104.4921
161.8880,104.5107
161.6738,104.6536
161.6576,104.6622
161.6546,104.6644
161.6511,104.6657
161.6478,104.6674
161.6442,104.6681
161.6269,104.6743
161.3412,104.7457
161.3121,104.7500
161.3048,104.7489
161.2975,104.7500
161.2685,104.7457
160.9827,104.6743
160.9655,104.6681
160.9619,104.6674
160.9586,104.6657
160.9550,104.6644
160.9521,104.6622
160.9359,104.6536
160.7216,104.5107
160.6989,104.4921
160.6988,104.4920
160.6987,104.4919
160.6800,104.4691
160.5372,104.2548
160.5286,104.2387
160.5263,104.2357
160.5251,104.2322
160.5233,104.2289
160.5226,104.2252
160.5165,104.2080
160.4450,103.9223
160.4407,103.8932
160.4418,103.8859
160.4407,103.8786
160.4450,103.8495
160.5165,103.5638
160.5226,103.5466
160.5233,103.5429
160.5251,103.5396
160.5263,103.5361
160.5286,103.5332
160.5372,103.5170
160.6246,103.3859
160.0977,103.3859
160.0977,104.6002
160.0948,104.6295
160.0927,104.6344
160.0924,104.6398
160.0819,104.6673
160.0104,104.8101
160.0025,104.8227
160.0010,104.8264
159.9976,104.8305
159.9948,104.8350
159.9918,104.8376
159.9823,104.8491
159.9109,104.9205
159.8994,104.9300
159.8968,104.9330
159.8923,104.9358
159.8882,104.9392
159.8845,104.9407
159.8719,104.9486
159.7291,105.0201
159.7016,105.0306
159.6962,105.0310
159.6912,105.0330
159.6620,105.0359
159.4477,105.0359
159.4184,105.0330
159.4134,105.0310
159.4081,105.0306
159.3806,105.0201
159.2378,104.9486
159.2129,104.9330
159.1745,104.8888
159.1560,104.8332
159.1602,104.7749
159.1863,104.7225
159.2305,104.6842
159.2861,104.6657
159.3444,104.6698
159.3719,104.6803
159.4831,104.7359
159.6266,104.7359
159.7160,104.6912
159.7530,104.6542
159.7977,104.5648
159.7977,104.5359
159.5191,104.5359
159.4899,104.5330
159.4849,104.5310
159.4795,104.5306
159.4520,104.5201
159.3092,104.4486
159.2966,104.4407
159.2929,104.4392
159.2888,104.4358
159.2843,104.4330
159.2817,104.4300
159.2702,104.4205
159.1988,104.3491
159.1893,104.3376
159.1863,104.3350
159.1835,104.3305
159.1801,104.3264
159.1786,104.3227
159.1707,104.3101
159.0992,104.1673
159.0887,104.1398
159.0883,104.1344
159.0863,104.1295
159.0834,104.1002
159.0834,103.6716
159.0863,103.6424
159.0883,103.6374
159.0887,103.6320
159.0992,103.6045
159.1707,103.4617
159.1786,103.4491
159.1801,103.4454
159.1835,103.4413
159.1863,103.4368
159.1893,103.4342
159.1988,103.4227
159.2648,103.3566
158.9519,103.3566
158.9519,103.4152
158.9296,103.4692
158.8882,103.5106
158.8341,103.5330
158.8048,103.5359
158.5977,103.5359
158.5977,104.1362
158.6309,104.2027
158.6974,104.2359
158.8048,104.2359
158.8341,104.2388
158.8882,104.2612
158.9296,104.3026
158.9519,104.3566
158.9519,104.4152
158.9296,104.4692
158.8882,104.5106
158.8341,104.5330
158.8048,104.5359
158.6620,104.5359
158.6327,104.5330
158.6277,104.5310
158.6224,104.5306
158.5949,104.5201
158.4520,104.4486
158.4471,104.4456
158.4448,104.4448
158.4420,104.4423
158.4271,104.4330
158.4148,104.4188
158.4006,104.4065
158.3913,104.3916
158.3888,104.3888
158.3880,104.3865
158.3850,104.3816
158.3135,104.2387
158.3030,104.2112
158.3026,104.2059
158.3006,104.2009
158.2977,104.1716
158.2977,103.5359
158.2334,103.5359
158.2041,103.5330
158.1501,103.5106
158.1087,103.4692
158.0863,103.4152
158.0863,103.3859
157.8834,103.3859
157.8834,104.3859
157.8805,104.4152
157.8581,104.4692
157.8167,104.5106
157.7627,104.5330
157.7041,104.5330
157.6501,104.5106
157.6087,104.4692
157.5863,104.4152
157.5834,104.3859
157.5834,103.6002
157.1691,103.6002
157.1691,104.3859
157.1662,104.4152
157.1438,104.4692
157.1025,104.5106
157.0484,104.5330
156.9899,104.5330
156.9358,104.5106
156.8944,104.4692
156.8720,104.4152
156.8691,104.3859
156.8691,103.6356
156.8359,103.5691
156.7694,103.5359
156.6260,103.5359
156.5595,103.5691
156.5263,103.6356
156.5263,104.3859
156.5234,104.4152
156.5010,104.4692
156.4596,104.5106
156.4055,104.5330
156.3470,104.5330
156.2929,104.5106
156.2515,104.4692
156.2291,104.4152
156.2263,104.3859
156.2263,103.6356
156.1930,103.5691
156.1266,103.5359
155.9831,103.5359
155.8937,103.5806
155.8834,103.5909
155.8834,104.3859
155.8805,104.4152
155.8581,104.4692
155.8167,104.5106
155.7627,104.5330
155.7041,104.5330
155.6501,104.5106
155.6087,104.4692
155.5863,104.4152
155.5834,104.3859
155.5834,103.3859
155.5863,103.3566
155.6087,103.3026
155.6501,103.2612
155.7041,103.2388
155.7627,103.2388
155.8167,103.2612
155.8317,103.2762
155.8806,103.2517
155.9081,103.2412
155.9134,103.2409
155.9184,103.2388
155.9477,103.2359
156.1620,103.2359
156.1912,103.2388
156.1962,103.2409
156.2016,103.2412
156.2291,103.2517
156.3719,103.3232
156.3763,103.3259
156.3806,103.3232
156.5235,103.2517
156.5509,103.2412
156.5563,103.2409
156.5613,103.2388
156.5905,103.2359
156.8048,103.2359
156.8341,103.2388
156.8391,103.2409
156.8445,103.2412
156.8719,103.2517
157.0148,103.3232
157.0197,103.3263
157.0220,103.3270
157.0248,103.3295
157.0397,103.3388
157.0520,103.3531
157.0662,103.3654
157.0755,103.3802
157.0780,103.3831
157.0788,103.3854
157.0819,103.3903
157.1533,103.5331
157.1638,103.5606
157.1642,103.5660
157.1662,103.5709
157.1691,103.6002
157.5834,103.6002
157.5834,103.3859
157.5863,103.3566
157.6087,103.3026
157.6501,103.2612
157.7041,103.2388
157.7627,103.2388
157.8167,103.2612
157.8581,103.3026
157.8805,103.3566
157.8834,103.3859
158.0863,103.3859
158.0863,103.3566
158.1087,103.3026
158.1501,103.2612
158.2041,103.2388
158.2334,103.2359
158.2977,103.2359
158.2977,102.9281
157.9519,102.9281
157.9519,102.9866
157.9497,102.9920
157.9296,103.0407
157.9296,103.0407
157.9109,103.0634
157.8395,103.1348
157.8167,103.1535
157.8167,103.1535
157.7906,103.1643
157.7627,103.1759
157.7627,103.1759
157.7627,103.1759
157.7041,103.1759
157.7041,103.1759
157.6763,103.1643
157.6501,103.1535
157.6273,103.1348
157.5559,103.0634
157.5373,103.0407
157.5149,102.9866
157.5149,102.9692
157.5149,102.9281
157.5373,102.8740
157.5559,102.8513
157.6273,102.7798
157.6501,102.7612
157.6501,102.7612
157.6817,102.7481
157.7041,102.7388
157.7627,102.7388
157.7851,102.7481
157.8167,102.7612
157.8395,102.7798
157.9109,102.8513
157.9296,102.8740
157.9497,102.9227
157.9519,102.9281
158.2977,102.9281
158.2977,102.8859
158.3006,102.8566
158.3230,102.8026
158.3644,102.7612
158.4184,102.7388
158.4770,102.7388
158.5310,102.7612
158.5724,102.8026
158.5948,102.8566
158.5977,102.8859
158.5977,103.2359
158.8048,103.2359
158.8341,103.2388
158.8882,103.2612
158.9296,103.3026
158.9519,103.3566
159.2648,103.3566
159.2702,103.3513
159.2817,103.3418
159.2843,103.3388
159.2888,103.3360
159.2929,103.3326
159.2966,103.3311
159.3092,103.3232
159.4520,103.2517
159.4795,103.2412
159.4849,103.2409
159.4899,103.2388
159.5191,103.2359
159.8048,103.2359
159.8341,103.2388
159.8391,103.2409
159.8445,103.2412
159.8719,103.2517
159.8788,103.2552
159.9184,103.2388
159.9770,103.2388
160.0310,103.2612
160.0724,103.3026
160.0948,103.3566
160.0977,103.3859
160.6246,103.3859
160.6800,103.3027
160.6987,103.2800
160.6988,103.2799
160.6989,103.2797
160.7216,103.2611
160.9359,103.1182
160.9521,103.1096
160.9550,103.1074
160.9586,103.1062
160.9619,103.1044
160.9655,103.1037
160.9827,103.0975
161.2685,103.0261
161.2975,103.0218
161.3048,103.0229
161.3121,103.0218
161.3412,103.0261
161.6269,103.0975
161.6442,103.1037
161.6478,103.1044
161.6511,103.1062
161.6546,103.1074
161.6576,103.1096
161.6738,103.1182
161.8880,103.2611
161.9108,103.2797
161.9109,103.2799
161.9110,103.2800
161.9296,103.3027
162.0725,103.5170
162.0863,103.5429
162.0892,103.5574
162.0948,103.5709
162.0977,103.6002
162.4405,103.6002
162.4405,102.8859
162.4434,102.8566
162.4658,102.8026
162.5072,102.7612
162.5613,102.7388
162.6198,102.7388
162.6739,102.7612
162.7153,102.8026
162.7377,102.8566
162.7405,102.8859
162.7405,103.2507
162.7652,103.2412
162.7706,103.2409
162.7756,103.2388
162.8048,103.2359
163.0191,103.2359
163.0484,103.2388
163.0534,103.2409
163.0587,103.2412
163.0862,103.2517
163.2291,103.3232
163.2340,103.3263
163.2363,103.3270
163.2391,103.3295
163.2539,103.3388
163.2663,103.3531
163.2805,103.3654
163.2898,103.3802
163.2923,103.3831
163.2931,103.3854
163.2961,103.3903
163.3676,103.5331
163.3781,103.5606
163.3785,103.5660
163.3805,103.5709
163.3834,103.6002
163.7977,103.6002
163.7977,103.5359
163.7334,103.5359
163.7041,103.5330
163.6501,103.5106
163.6087,103.4692
163.5863,103.4152
163.5863,103.3566
163.6087,103.3026
163.6501,103.2612
163.7041,103.2388
163.7334,103.2359
163.7977,103.2359
163.7977,102.8859
163.8006,102.8566
163.8230,102.8026
163.8644,102.7612
163.9184,102.7388
163.9770,102.7388
164.0310,102.7612
164.0724,102.8026
164.0948,102.8566
164.0977,102.8859
164.0977,103.2359
164.3048,103.2359
164.3341,103.2388
164.3882,103.2612
164.4296,103.3026
164.4519,103.3566
164.6548,103.3566
164.6548,102.8859
164.6577,102.8566
164.6801,102.8026
164.7215,102.7612
164.7756,102.7388
164.8341,102.7388
164.8882,102.7612
164.9296,102.8026
164.9519,102.8566
164.9548,102.8859
164.9548,104.1362
164.9881,104.2027
165.0862,104.2517
165.1111,104.2674
165.1494,104.3116
165.1679,104.3671
167.2387,104.3671
167.2274,104.3332
167.2316,104.2749
167.2578,104.2225
167.3020,104.1842
167.3575,104.1657
167.4159,104.1698
167.4433,104.1803
167.5545,104.2359
167.7694,104.2359
167.8359,104.2027
167.8691,104.1362
167.8691,104.1356
167.8359,104.0691
167.7694,104.0359
167.5905,104.0359
167.5613,104.0330
167.5563,104.0310
167.5509,104.0306
167.5235,104.0201
167.3806,103.9486
167.3757,103.9456
167.3734,103.9448
167.3705,103.9423
167.3557,103.9330
167.3434,103.9188
167.3292,103.9065
167.3199,103.8916
167.3174,103.8888
167.3166,103.8865
167.3135,103.8816
167.2654,103.7852
166.8805,103.7852
166.8805,103.8437
166.8581,103.8978
166.8167,103.9392
166.7627,103.9616
166.7334,103.9645
165.5905,103.9645
165.5613,103.9616
165.5072,103.9392
165.4658,103.8978
165.4434,103.8437
165.4434,103.7852
165.4658,103.7311
165.5072,103.6898
165.5613,103.6674
165.5905,103.6645
166.7334,103.6645
166.7627,103.6674
166.8167,103.6898
166.8581,103.7311
166.8805,103.7852
167.2654,103.7852
167.2421,103.7387
167.2316,103.7112
167.2312,103.7059
167.2291,103.7009
167.2263,103.6716
167.2263,103.6002
167.2291,103.5709
167.2312,103.5660
167.2316,103.5606
167.2421,103.5331
167.3135,103.3903
167.3166,103.3854
167.3174,103.3831
167.3199,103.3802
167.3292,103.3654
167.3434,103.3531
167.3557,103.3388
167.3705,103.3295
167.3734,103.3270
167.3757,103.3263
167.3806,103.3232
167.5235,103.2517
167.5509,103.2412
167.5563,103.2409
167.5613,103.2388
167.5905,103.2359
167.8048,103.2359
167.8341,103.2388
167.8391,103.2409
167.8445,103.2412
167.8719,103.2517
168.0148,103.3232
168.0397,103.3388
168.0780,103.3831
168.0965,103.4386
168.0924,103.4970
168.0662,103.5493
168.0220,103.5877
167.9664,103.6062
167.9081,103.6020
167.8806,103.5915
167.7694,103.5359
167.6260,103.5359
167.5595,103.5691
167.5263,103.6356
167.5263,103.6362
167.5595,103.7027
167.6260,103.7359
167.8048,103.7359
167.8341,103.7388
167.8391,103.7409
167.8445,103.7412
167.8719,103.7517
168.0148,103.8232
168.0197,103.8263
168.0220,103.8270
168.0248,103.8295
168.0397,103.8388
168.0520,103.8531
168.0662,103.8654
168.0755,103.8802
168.0780,103.8831
168.0788,103.8854
168.0819,103.8903
168.1533,104.0331
168.1638,104.0606
168.1642,104.0660
168.1662,104.0709
168.1691,104.1002
168.5120,104.1002
168.5120,103.5359
168.4477,103.5359
168.4184,103.5330
168.3644,103.5106
168.3230,103.4692
168.3006,103.4152
168.3006,103.3566
168.3230,103.3026
168.3644,103.2612
168.4184,103.2388
168.4477,103.2359
168.5120,103.2359
168.5120,102.8859
168.5149,102.8566
168.5373,102.8026
168.5786,102.7612
168.6327,102.7388
168.6912,102.7388
168.7453,102.7612
168.7867,102.8026
168.8091,102.8566
168.8120,102.8859
168.8120,103.2359
169.0191,103.2359
169.0484,103.2388
169.1025,103.2612
169.1438,103.3026
169.1662,103.3566
169.4107,103.3566
169.4148,103.3531
169.4271,103.3388
169.4420,103.3295
169.4448,103.3270
169.4471,103.3263
169.4520,103.3232
169.5949,103.2517
169.6224,103.2412
169.6277,103.2409
169.6327,103.2388
169.6620,103.2359
169.9477,103.2359
169.9770,103.2388
169.9819,103.2409
169.9873,103.2412
170.0148,103.2517
170.1576,103.3232
170.1625,103.3263
170.1648,103.3270
170.1677,103.3295
170.1825,103.3388
170.1948,103.3531
170.2090,103.3654
170.2184,103.3802
170.2209,103.3831
170.2216,103.3854
170.2247,103.3903
170.2961,103.5331
170.3066,103.5606
170.3070,103.5660
170.3091,103.5709
170.3120,103.6002
170.5792,103.6002
170.5207,103.4364
170.5136,103.4078
170.5165,103.3494
170.5415,103.2965
170.5849,103.2572
170.6401,103.2375
170.6985,103.2404
170.7514,103.2655
170.7907,103.3089
170.8032,103.3355
171.0191,103.9399
171.2350,103.3355
171.2476,103.3089
171.2868,103.2655
171.3397,103.2404
171.3982,103.2375
171.4533,103.2572
171.4967,103.2965
171.5217,103.3494
171.5247,103.4078
171.7977,103.4078
171.7977,103.3859
171.8006,103.3566
171.8230,103.3026
171.8644,103.2612
171.9184,103.2388
171.9770,103.2388
172.0310,103.2612
172.0698,103.3000
172.1663,103.2517
172.1938,103.2412
172.1992,103.2409
172.2041,103.2388
172.2334,103.2359
172.3763,103.2359
172.4055,103.2388
172.4596,103.2612
172.5010,103.3026
172.5234,103.3566
173.4831,103.3566
173.4986,103.3388
173.5235,103.3232
173.6663,103.2517
173.6938,103.2412
173.6992,103.2409
173.7041,103.2388
173.7334,103.2359
174.0191,103.2359
174.0484,103.2388
174.0534,103.2409
174.0587,103.2412
174.0862,103.2517
174.2291,103.3232
174.2340,103.3263
174.2363,103.3270
174.2391,103.3295
174.2539,103.3388
174.2663,103.3531
174.2805,103.3654
174.2898,103.3802
174.2923,103.3831
174.2931,103.3854
174.2961,103.3903
174.3676,103.5331
174.3781,103.5606
174.3785,103.5660
174.3805,103.5709
174.3834,103.6002
174.7443,103.6002
174.8135,103.4617
174.8215,103.4491
174.8230,103.4454
174.8264,103.4413
174.8292,103.4368
174.8322,103.4342
174.8416,103.4227
174.9131,103.3513
174.9246,103.3418
174.9271,103.3388
174.9317,103.3360
174.9358,103.3326
174.9394,103.3311
174.9520,103.3232
175.0949,103.2517
175.1224,103.2412
175.1277,103.2409
175.1327,103.2388
175.1620,103.2359
175.4477,103.2359
175.4770,103.2388
175.4819,103.2409
175.4873,103.2412
175.5148,103.2517
175.6576,103.3232
175.6825,103.3388
175.7209,103.3831
175.7394,103.4386
176.7989,103.4386
176.8174,103.3831
176.8557,103.3388
176.8806,103.3232
177.0235,103.2517
177.0509,103.2412
177.0563,103.2409
177.0613,103.2388
177.0905,103.2359
177.3763,103.2359
177.4055,103.2388
177.4105,103.2409
177.4159,103.2412
177.4433,103.2517
177.5862,103.3232
177.5911,103.3263
177.5934,103.3270
177.5963,103.3295
177.6111,103.3388
177.6234,103.3531
177.6376,103.3654
177.6469,103.3802
177.6494,103.3831
177.6502,103.3854
177.6533,103.3903
177.7247,103.5331
177.7352,103.5606
177.7356,103.5660
177.7377,103.5709
177.7405,103.6002
178.1548,103.6002
178.1548,103.5359
178.0905,103.5359
178.0613,103.5330
178.0072,103.5106
177.9658,103.4692
177.9434,103.4152
177.9434,103.3566
177.9658,103.3026
178.0072,103.2612
178.0613,103.2388
178.0905,103.2359
178.1548,103.2359
178.1548,102.8859
178.1577,102.8566
178.1801,102.8026
178.2215,102.7612
178.2756,102.7388
178.3341,102.7388
178.3882,102.7612
178.4296,102.8026
178.4519,102.8566
178.4548,102.8859
178.4548,103.2359
178.6620,103.2359
178.6912,103.2388
178.7453,103.2612
178.7867,103.3026
178.8091,103.3566
178.9758,103.3566
178.9758,102.5721
155.4167,102.5721
Z" /> 
<path style="fill:#000000; fill-opacity:1.0000; stroke:none;fill-rule:evenodd;"
d="M 156.8522,111.9000
155.1522,111.9000
155.1522,113.6000
156.8522,113.6000
Z" /> 
</g>
<g style="fill:#000000; fill-opacity:1.0000; stroke:none;">
<circle cx="158.5422" cy="112.7500" r="0.8500" /> 
<path style="fill:#000000; fill-opacity:1.0000; stroke:none;fill-rule:evenodd;"
d="M 162.5427,82.5471
162.3842,82.5500
162.3803,82.5501
162.2206,82.5580
162.2168,82.5582
162.0566,82.5712
162.0528,82.5716
161.8926,82.5895
161.8888,82.5900
161.7293,82.6129
161.7255,82.6135
161.5670,82.6414
161.5633,82.6421
161.4066,82.6749
161.4026,82.6758
161.2482,82.7133
161.2442,82.7144
161.0927,82.7568
161.0885,82.7580
160.9410,82.8049
160.9356,82.8068
160.5234,82.9593
160.5168,82.9620
160.1203,83.1356
160.1137,83.1387
159.9777,83.2081
159.7324,83.3333
159.7259,83.3369
159.4310,83.5104
159.3601,83.5521
159.3537,83.5561
159.0036,83.7918
158.9975,83.7962
158.6633,84.0520
158.6575,84.0568
158.3394,84.3325
158.3339,84.3376
158.0322,84.6330
158.0271,84.6384
157.9422,84.7321
157.7420,84.9531
157.7373,84.9587
157.4691,85.2927
157.4648,85.2984
157.2138,85.6513
157.2099,85.6572
156.9764,86.0287
156.9729,86.0346
156.7571,86.4246
156.7540,86.4306
156.5562,86.8387
156.5535,86.8446
156.3741,87.2707
156.3718,87.2766
156.2110,87.7203
156.2090,87.7261
156.1216,88.0110
156.1203,88.0155
156.0334,88.3424
156.0325,88.3458
155.9837,88.5528
155.9496,88.6974
155.9489,88.7004
155.8735,89.0595
155.8729,89.0625
155.8083,89.4116
155.8078,89.4150
155.7576,89.7368
155.7569,89.7414
155.7243,90.0188
155.7238,90.0241
155.7152,90.1385
155.7149,90.1437
155.7118,90.2420
155.7117,90.2452
155.7112,90.3218
155.7094,90.3900
155.7075,90.4204
155.7048,90.4486
155.7048,90.4486
155.7011,90.4745
155.6961,90.4981
155.6961,90.4981
155.6897,90.5195
155.6897,90.5195
155.6818,90.5388
155.6818,90.5388
155.6721,90.5561
155.6721,90.5561
155.6721,90.5561
155.6605,90.5713
155.6469,90.5846
155.6469,90.5846
155.6469,90.5846
155.6309,90.5959
155.6309,90.5959
155.6125,90.6054
155.5914,90.6131
155.5914,90.6131
155.5914,90.6131
155.5676,90.6191
155.5676,90.6191
155.5676,90.6191
155.5408,90.6233
155.5108,90.6259
155.4989,90.6263
155.4775,90.6269
155.4775,90.6269
155.4775,90.6269
155.4406,90.6264
155.4001,90.6244
155.4001,90.6244
155.4001,90.6244
155.3918,90.6238
155.3557,90.6210
155.3073,90.6162
155.1977,90.6027
155.0697,90.5843
154.7545,90.5350
154.7523,90.5346
154.5067,90.5011
154.5027,90.5007
154.2165,90.4713
154.2124,90.4709
153.5349,90.4241
153.5313,90.4239
152.7592,90.3938
152.7563,90.3938
151.9380,90.3807
151.9355,90.3807
151.1199,90.3850
151.1171,90.3851
150.3533,90.4069
150.3495,90.4071
149.6860,90.4467
149.6818,90.4470
149.4048,90.4734
149.4004,90.4739
149.1668,90.5045
149.1618,90.5053
148.4285,90.6327
148.4244,90.6335
147.7063,90.7838
147.7021,90.7848
146.9997,90.9580
146.9954,90.9591
146.3086,91.1553
146.3043,91.1566
145.6329,91.3757
145.6285,91.3772
144.9725,91.6194
144.9680,91.6211
144.3271,91.8863
144.3227,91.8882
143.9167,92.0753
143.6969,92.1765
143.6925,92.1787
143.0816,92.4901
143.0773,92.4924
142.6852,92.7126
142.4812,92.8272
142.4769,92.8297
141.8955,93.1877
141.8913,93.1903
141.3244,93.5717
141.3203,93.5745
140.7679,93.9793
140.7640,93.9823
140.4616,94.2229
140.2258,94.4105
140.2220,94.4137
139.7816,94.7934
139.6980,94.8655
139.6944,94.8687
139.1965,95.3329
139.1839,95.3447
139.1816,95.3469
138.9364,95.5875
138.9352,95.5888
138.7011,95.8250
138.6998,95.8264
138.4765,96.0590
138.4750,96.0606
138.2614,96.2909
138.2599,96.2926
138.0548,96.5221
138.0532,96.5239
137.8555,96.7540
137.8539,96.7560
137.6627,96.9880
137.6610,96.9900
137.4750,97.2254
137.4734,97.2274
137.2947,97.4634
137.2915,97.4677
137.2900,97.4697
137.1112,97.7161
137.1098,97.7181
136.9330,97.9721
136.9317,97.9740
136.7557,98.2371
136.7545,98.2389
136.5784,98.5124
136.5774,98.5141
136.4002,98.7991
136.3988,98.8014
136.0352,99.4148
136.0308,99.4219
135.4116,100.4466
135.4116,100.4466
134.7504,101.4448
134.0881,102.3594
134.0521,102.4091
133.3170,103.3391
132.5456,104.2344
131.7384,105.0946
131.4771,105.3505
130.8958,105.9194
130.2049,106.5404
130.0182,106.7083
129.5169,107.1220
129.1060,107.4611
128.1598,108.1772
127.1799,108.8564
126.1668,109.4982
125.1210,110.1023
124.0428,110.6682
122.9327,111.1957
121.7912,111.6844
121.5882,111.7678
121.5872,111.7682
121.4006,111.8471
121.3995,111.8476
121.2331,111.9202
121.2317,111.9209
121.0944,111.9831
121.0415,112.0287
121.0217,112.0957
121.0412,112.1628
121.0938,112.2087
121.1130,112.2157
121.3017,112.2671
121.3037,112.2677
122.2850,112.5176
122.2864,112.5179
123.3562,112.7769
123.3576,112.7772
123.7929,112.8772
123.7951,112.8777
124.0929,112.9404
124.0972,112.9412
124.3347,112.9825
124.3380,112.9830
124.5823,113.0190
124.5853,113.0194
124.8349,113.0498
124.8377,113.0501
125.0914,113.0751
125.0942,113.0753
125.3509,113.0948
125.3536,113.0950
125.6116,113.1089
125.6155,113.1090
126.1350,113.1203
126.1403,113.1203
126.6544,113.1095
126.6585,113.1094
126.9099,113.0957
126.9127,113.0955
127.1602,113.0764
127.1632,113.0761
127.4048,113.0514
127.4080,113.0510
127.6429,113.0209
127.6463,113.0204
127.8732,112.9848
127.8769,112.9842
128.0942,112.9432
128.0994,112.9421
128.5289,112.8420
128.5349,112.8405
128.9754,112.7143
128.9808,112.7127
129.4326,112.5606
129.4375,112.5588
129.6991,112.4583
129.8997,112.3811
129.9042,112.3793
130.0920,112.2986
130.3762,112.1764
130.3803,112.1745
130.8614,111.9467
130.8652,111.9448
131.3547,111.6924
131.3581,111.6906
131.8554,111.4140
131.8586,111.4121
132.3629,111.1116
132.3659,111.1098
132.8766,110.7859
132.8794,110.7841
133.3958,110.4370
133.3984,110.4352
133.5041,110.3603
133.9200,110.0653
133.9224,110.0636
134.4485,109.6714
134.4507,109.6697
134.4971,109.6334
134.9806,109.2553
134.9827,109.2537
135.1239,109.1382
135.2697,109.0189
135.5157,108.8177
135.5177,108.8161
135.7104,108.6515
136.0537,108.3584
136.0545,108.3577
136.5369,107.9371
136.4884,108.4531
136.4882,108.4568
136.4607,108.8892
136.4605,108.8932
136.4428,109.4660
136.4427,109.4683
136.4344,110.1292
136.4344,110.1309
136.4351,110.8266
136.4351,110.8282
136.4445,111.5055
136.4445,111.5074
136.4622,112.1133
136.4623,112.1162
136.4877,112.5963
136.4883,112.6030
136.5205,112.9026
136.5223,112.9143
136.5721,113.1562
136.5731,113.1606
136.6396,113.4330
136.6405,113.4364
136.7195,113.7243
136.7203,113.7272
136.8080,114.0183
136.8089,114.0212
136.9013,114.3033
136.9024,114.3065
136.9959,114.5676
136.9974,114.5716
137.0882,114.7999
137.0899,114.8040
137.1323,114.9005
137.1340,114.9042
137.1741,114.9879
137.1765,114.9926
137.2148,115.0643
137.2174,115.0690
137.2596,115.1407
137.2622,115.1449
137.3084,115.2165
137.3111,115.2204
137.3603,115.2908
137.3611,115.2919
137.3637,115.2954
137.4147,115.3631
137.4174,115.3665
137.4200,115.3699
137.4765,115.4397
137.4804,115.4442
137.6054,115.5842
137.6105,115.5896
137.7470,115.7253
137.7520,115.7300
137.8995,115.8613
137.9045,115.8655
138.0617,115.9913
138.0667,115.9951
138.2324,116.1146
138.2375,116.1180
138.4103,116.2303
138.4155,116.2334
138.5943,116.3376
138.5996,116.3405
138.7830,116.4356
138.7885,116.4383
138.9752,116.5235
138.9811,116.5261
139.1698,116.6006
139.1762,116.6029
139.3654,116.6659
139.3724,116.6680
139.5619,116.7189
139.5676,116.7203
139.6603,116.7406
139.6643,116.7414
139.7576,116.7586
139.7610,116.7592
139.9012,116.7810
139.9040,116.7814
139.9658,116.7896
139.9683,116.7899
140.0263,116.7963
140.0294,116.7966
140.0761,116.8006
140.0839,116.8013
140.0876,116.8015
140.1397,116.8045
140.1437,116.8046
140.1942,116.8058
140.1984,116.8059
140.2484,116.8053
140.2527,116.8052
140.3032,116.8029
140.3073,116.8027
140.3592,116.7986
140.3630,116.7983
140.4174,116.7924
140.4206,116.7920
140.4784,116.7842
140.4812,116.7837
140.5431,116.7739
140.5454,116.7736
140.6121,116.7617
140.6145,116.7613
140.7663,116.7313
140.7695,116.7306
140.9363,116.6932
140.9405,116.6922
141.1025,116.6499
141.1067,116.6487
141.2639,116.6018
141.2681,116.6004
141.4200,116.5491
141.4243,116.5476
141.5704,116.4922
141.5748,116.4904
141.7146,116.4312
141.7191,116.4292
141.8522,116.3665
141.8569,116.3641
141.9014,116.3408
141.9826,116.2982
141.9875,116.2955
142.1056,116.2267
142.1107,116.2235
142.2204,116.1522
142.2258,116.1485
142.3268,116.0750
142.3325,116.0706
142.4243,115.9953
142.4302,115.9901
142.4924,115.9320
142.5123,115.9135
142.5186,115.9072
142.5906,115.8297
142.5970,115.8222
142.6585,115.7444
142.6650,115.7353
142.6655,115.7346
142.7173,115.6554
142.7211,115.6492
142.7535,115.5926
142.7552,115.5894
142.7835,115.5364
142.7860,115.5314
142.8094,115.4823
142.8117,115.4772
142.8209,115.4553
142.8225,115.4513
142.8309,115.4293
142.8325,115.4248
142.8397,115.4034
142.8413,115.3985
142.8474,115.3773
142.8488,115.3721
142.8540,115.3508
142.8552,115.3454
142.8594,115.3239
142.8604,115.3184
142.8637,115.2962
142.8644,115.2909
142.8668,115.2677
142.8672,115.2625
142.8688,115.2383
142.8690,115.2333
142.8691,115.2274
142.8695,115.2076
142.8695,115.2031
142.8691,115.1756
142.8690,115.1715
142.8675,115.1422
142.8672,115.1384
142.8647,115.1071
142.8644,115.1039
142.8608,115.0710
142.8603,115.0668
142.8494,114.9918
142.8487,114.9873
142.8421,114.9513
142.8333,114.9026
142.8327,114.8995
142.8125,114.8031
142.8120,114.8009
142.7935,114.7203
142.7870,114.6918
142.7867,114.6905
142.7569,114.5674
142.7568,114.5667
142.7222,114.4283
142.6394,114.0558
142.5661,113.6428
142.5048,113.2151
142.4580,112.7985
142.4282,112.4187
142.4178,112.1016
142.4179,112.0957
142.4207,111.9746
142.4293,111.8729
142.4293,111.8729
142.4293,111.8728
142.4441,111.7997
142.4539,111.7748
142.4653,111.7582
142.4653,111.7582
142.4662,111.7576
142.4678,111.7565
142.4706,111.7563
142.4735,111.7577
142.4735,111.7577
142.4766,111.7604
142.4799,111.7646
142.4833,111.7702
142.4833,111.7702
142.4905,111.7854
142.4905,111.7854
142.4982,111.8057
142.4982,111.8058
142.5064,111.8309
142.5149,111.8607
142.5237,111.8948
142.5328,111.9330
142.5420,111.9750
142.5513,112.0203
142.5606,112.0690
142.5699,112.1207
142.5791,112.1749
142.5881,112.2317
142.5969,112.2904
142.5970,112.2909
142.6182,112.4288
142.6186,112.4312
142.6418,112.5645
142.6423,112.5670
142.6675,112.6962
142.6680,112.6988
142.6952,112.8238
142.6958,112.8264
142.6969,112.8310
142.7249,112.9470
142.7256,112.9499
142.7566,113.0659
142.7574,113.0689
142.7901,113.1803
142.7911,113.1835
142.8255,113.2900
142.8266,113.2934
142.8627,113.3949
142.8640,113.3985
142.9016,113.4949
142.9032,113.4987
142.9422,113.5898
142.9441,113.5939
142.9845,113.6795
142.9867,113.6838
143.0283,113.7638
143.0309,113.7685
143.0737,113.8426
143.0768,113.8476
143.1206,113.9159
143.1243,113.9212
143.1689,113.9833
143.1733,113.9890
143.2618,114.0982
143.2665,114.1037
143.3611,114.2072
143.3660,114.2123
143.4660,114.3100
143.4712,114.3147
143.5761,114.4063
143.5815,114.4107
143.6907,114.4958
143.6963,114.4998
143.8093,114.5781
143.8151,114.5819
143.9312,114.6531
143.9372,114.6566
144.0558,114.7203
144.0622,114.7235
144.1825,114.7796
144.1893,114.7825
144.3108,114.8306
144.3180,114.8332
144.4401,114.8730
144.4477,114.8752
144.5696,114.9065
144.5777,114.9083
144.6990,114.9309
144.7076,114.9322
144.8275,114.9459
144.8367,114.9466
144.9558,114.9512
144.9632,114.9513
145.0199,114.9501
145.0250,114.9499
145.0811,114.9464
145.0887,114.9457
145.2092,114.9308
145.2183,114.9294
145.3406,114.9049
145.3488,114.9030
145.4731,114.8693
145.4805,114.8671
145.6058,114.8247
145.6125,114.8222
145.7376,114.7716
145.7438,114.7689
145.8676,114.7108
145.8735,114.7078
145.9032,114.6919
145.9949,114.6428
146.0005,114.6396
146.1185,114.5682
146.1240,114.5647
146.2375,114.4878
146.2428,114.4839
146.3509,114.4020
146.3562,114.3977
146.4577,114.3116
146.4631,114.3068
146.5570,114.2172
146.5624,114.2117
146.6479,114.1194
146.6534,114.1130
146.7293,114.0189
146.7349,114.0114
146.8005,113.9162
146.8061,113.9073
146.8457,113.8378
146.8617,113.8098
146.8648,113.8040
146.8857,113.7622
146.8871,113.7595
146.9055,113.7203
146.9076,113.7155
146.9229,113.6791
146.9248,113.6741
146.9308,113.6580
146.9322,113.6541
146.9378,113.6374
146.9391,113.6332
146.9441,113.6163
146.9453,113.6120
146.9498,113.5945
146.9508,113.5902
146.9548,113.5718
146.9556,113.5676
146.9591,113.5481
146.9598,113.5440
146.9623,113.5269
146.9629,113.5231
146.9634,113.5193
146.9660,113.4967
146.9663,113.4933
146.9684,113.4685
146.9686,113.4655
146.9702,113.4387
146.9704,113.4359
146.9707,113.4276
146.9715,113.4067
146.9715,113.4043
146.9721,113.3729
146.9721,113.3700
146.9716,113.2974
146.9715,113.2943
146.9709,113.2736
146.9689,113.2098
146.9688,113.2077
146.9685,113.2032
146.9639,113.1093
146.9639,113.1082
146.9569,112.9943
146.9569,112.9935
146.9479,112.8633
146.9479,112.8627
146.9452,112.8264
146.9280,112.5963
146.9242,112.5456
146.8948,112.0648
146.8948,112.0648
146.8708,111.4896
146.8546,110.8924
146.8488,110.3454
146.8492,109.1382
146.8492,109.1382
146.8492,109.1382
147.3287,109.1397
147.6897,109.1478
148.1612,109.1637
148.3183,109.1690
148.3184,109.1690
148.3184,109.1690
150.0242,109.2374
151.6735,109.3058
151.6744,109.3059
152.5276,109.3351
152.5301,109.3352
152.6177,109.3364
152.6541,109.3378
152.6856,109.3399
152.7123,109.3429
152.7212,109.3446
152.7347,109.3471
152.7347,109.3471
152.7347,109.3471
152.7443,109.3496
152.7443,109.3496
152.7529,109.3525
152.7529,109.3525
152.7606,109.3557
152.7606,109.3557
152.7673,109.3593
152.7673,109.3593
152.7732,109.3633
152.7782,109.3677
152.7823,109.3725
152.7857,109.3778
152.7857,109.3778
152.7884,109.3836
152.7903,109.3900
152.7903,109.3900
152.7916,109.3968
152.7922,109.4042
152.7917,109.4207
152.7890,109.4396
152.7844,109.4611
152.7793,109.4813
152.7775,109.4897
152.7693,109.5356
152.7683,109.5418
152.7567,109.6321
152.7565,109.6345
152.7425,109.7636
152.7423,109.7649
152.7268,109.9253
152.7266,109.9267
152.6926,110.3204
152.6925,110.3217
152.6582,110.7751
152.6580,110.7772
152.6342,111.1812
152.6340,111.1843
152.6211,111.5696
152.6210,111.5732
152.6191,111.9411
152.6191,111.9450
152.6283,112.2964
152.6285,112.3007
152.6490,112.6363
152.6494,112.6411
152.6813,112.9617
152.6819,112.9668
152.7253,113.2734
152.7262,113.2789
152.7813,113.5721
152.7826,113.5779
152.8494,113.8588
152.8511,113.8649
152.9299,114.1343
152.9319,114.1406
153.0228,114.3994
153.0252,114.4057
153.1284,114.6549
153.1312,114.6612
153.2468,114.9016
153.2500,114.9078
153.3783,115.1404
153.3817,115.1463
153.3841,115.1501
153.5230,115.3721
153.5267,115.3776
153.6815,115.5979
153.6845,115.6021
153.7469,115.6834
153.7493,115.6864
153.8153,115.7672
153.8177,115.7700
153.8868,115.8497
153.8892,115.8524
153.9613,115.9307
153.9637,115.9333
154.0385,116.0102
154.0409,116.0126
154.0844,116.0549
154.1182,116.0877
154.1206,116.0900
154.2002,116.1633
154.2027,116.1656
154.2845,116.2368
154.2870,116.2389
154.3706,116.3080
154.3732,116.3101
154.4586,116.3767
154.4612,116.3787
154.5481,116.4428
154.5509,116.4448
154.6390,116.5061
154.6418,116.5080
154.7311,116.5665
154.7341,116.5684
154.8241,116.6238
154.8273,116.6256
154.9180,116.6778
154.9213,116.6796
155.0109,116.7275
155.0177,116.7309
155.0945,116.7661
155.1033,116.7698
155.1897,116.8017
155.1971,116.8041
155.2935,116.8330
155.2998,116.8347
155.4047,116.8601
155.4103,116.8613
155.5222,116.8830
155.5273,116.8839
155.6449,116.9017
155.6495,116.9023
155.7716,116.9160
155.7760,116.9164
155.9011,116.9260
155.9054,116.9263
156.0323,116.9316
156.0366,116.9317
156.1640,116.9327
156.1683,116.9326
156.2950,116.9292
156.2995,116.9290
156.4242,116.9212
156.4290,116.9208
156.5503,116.9084
156.5555,116.9078
156.6723,116.8910
156.6780,116.8900
156.7888,116.8688
156.7952,116.8674
156.8997,116.8416
156.9056,116.8399
156.9981,116.8122
157.0024,116.8108
157.0973,116.7785
157.1013,116.7771
157.1485,116.7592
157.1972,116.7408
157.2008,116.7393
157.2629,116.7136
157.2969,116.6994
157.3003,116.6980
157.3959,116.6549
157.3992,116.6533
157.4936,116.6074
157.4968,116.6058
157.5892,116.5575
157.5924,116.5558
157.6822,116.5055
157.6854,116.5037
157.7719,116.4518
157.7752,116.4498
157.8072,116.4292
157.8576,116.3968
157.8610,116.3945
157.9387,116.3408
157.9423,116.3381
158.0145,116.2842
158.0184,116.2811
158.0843,116.2276
158.0887,116.2238
158.1475,116.1712
158.1525,116.1664
158.1756,116.1433
158.2035,116.1155
158.2091,116.1094
158.2530,116.0593
158.2567,116.0549
158.2862,116.0177
158.2878,116.0157
158.3145,115.9807
158.3168,115.9776
158.3394,115.9458
158.3424,115.9416
158.3613,115.9125
158.3647,115.9069
158.3809,115.8790
158.3836,115.8740
158.3899,115.8619
158.3917,115.8581
158.3978,115.8454
158.3996,115.8414
158.4052,115.8287
158.4068,115.8246
158.4119,115.8117
158.4135,115.8075
158.4151,115.8028
158.4181,115.7943
158.4194,115.7902
158.4237,115.7765
158.4249,115.7724
158.4288,115.7582
158.4298,115.7543
158.4331,115.7401
158.4343,115.7346
158.4364,115.7235
158.4407,115.7008
158.4418,115.6943
158.4421,115.6920
158.4468,115.6569
158.4474,115.6516
158.4477,115.6492
158.4513,115.6090
158.4516,115.6049
158.4544,115.5564
158.4546,115.5533
158.4552,115.5339
158.4564,115.4983
158.4564,115.4962
158.4574,115.4341
158.4574,115.4327
158.4575,115.3979
158.4576,115.3628
158.4577,115.3454
158.4580,115.2274
158.4599,115.1258
158.4609,115.1038
158.4616,115.0869
158.4640,115.0555
158.4671,115.0313
158.4710,115.0140
158.4734,115.0079
158.4759,115.0034
158.4759,115.0034
158.4759,115.0034
158.4788,115.0004
158.4788,115.0004
158.4819,114.9990
158.4819,114.9990
158.4853,114.9991
158.4853,114.9991
158.4890,115.0007
158.4973,115.0080
158.5069,115.0207
158.5069,115.0207
158.5180,115.0384
158.5449,115.0879
158.5449,115.0879
158.5747,115.1427
158.5771,115.1469
158.6071,115.1974
158.6098,115.2017
158.6412,115.2498
158.6441,115.2541
158.6769,115.3000
158.6801,115.3043
158.7142,115.3479
158.7178,115.3522
158.7533,115.3937
158.7571,115.3979
158.7940,115.4372
158.7980,115.4413
158.8364,115.4785
158.8407,115.4825
158.8806,115.5177
158.8851,115.5215
158.9264,115.5546
158.9311,115.5581
158.9740,115.5893
158.9788,115.5926
159.0233,115.6218
159.0283,115.6249
159.0744,115.6521
159.0794,115.6549
159.1272,115.6802
159.1323,115.6828
159.1819,115.7061
159.1869,115.7084
159.2383,115.7298
159.2433,115.7318
159.2965,115.7514
159.3014,115.7531
159.3565,115.7707
159.3614,115.7721
159.4183,115.7878
159.4231,115.7890
159.4647,115.7987
159.4820,115.8028
159.4866,115.8037
159.5474,115.8155
159.5519,115.8163
159.6148,115.8261
159.6190,115.8267
159.6839,115.8345
159.6880,115.8349
159.7549,115.8407
159.7588,115.8410
159.8277,115.8448
159.8315,115.8449
159.9024,115.8466
159.9060,115.8467
159.9791,115.8464
159.9824,115.8463
160.0575,115.8439
160.0607,115.8438
160.1379,115.8393
160.1410,115.8391
160.2202,115.8326
160.2231,115.8323
160.3044,115.8237
160.3071,115.8234
160.3902,115.8127
160.3934,115.8123
160.5038,115.7952
160.5078,115.7945
160.6136,115.7746
160.6179,115.7737
160.7196,115.7508
160.7242,115.7496
160.8222,115.7235
160.8271,115.7221
160.9218,115.6928
160.9268,115.6911
161.0188,115.6582
161.0238,115.6563
161.0272,115.6549
161.1133,115.6198
161.1184,115.6176
161.1414,115.6070
161.2058,115.5773
161.2108,115.5749
161.2967,115.5305
161.3015,115.5279
161.3862,115.4794
161.3907,115.4766
161.4747,115.4236
161.4790,115.4208
161.5625,115.3631
161.5664,115.3602
161.6500,115.2976
161.6535,115.2949
161.7374,115.2271
161.7406,115.2244
161.7452,115.2204
161.8252,115.1513
161.8280,115.1488
161.9132,115.0704
161.9163,115.0675
162.0415,114.9440
162.0455,114.9400
162.1574,114.8191
162.1617,114.8142
162.2608,114.6954
162.2652,114.6897
162.3516,114.5729
162.3562,114.5662
162.4065,114.4878
162.4306,114.4502
162.4341,114.4444
162.4579,114.4026
162.4659,114.3885
162.4682,114.3843
162.4974,114.3278
162.4996,114.3233
162.5259,114.2671
162.5280,114.2623
162.5513,114.2064
162.5533,114.2014
162.5737,114.1458
162.5755,114.1405
162.5775,114.1343
162.5931,114.0850
162.5947,114.0796
162.6094,114.0242
162.6108,114.0186
162.6228,113.9632
162.6239,113.9574
162.6331,113.9021
162.6339,113.8962
162.6383,113.8588
162.6404,113.8407
162.6410,113.8348
162.6448,113.7791
162.6450,113.7732
162.6451,113.7685
162.6461,113.7173
162.6461,113.7113
162.6461,113.7104
162.6445,113.6551
162.6442,113.6492
162.6421,113.6211
162.6399,113.5925
162.6393,113.5869
162.6379,113.5750
162.6341,113.5440
162.6323,113.5296
162.6315,113.5241
162.6307,113.5193
162.6218,113.4663
162.6208,113.4610
162.6155,113.4364
162.6083,113.4025
162.6072,113.3976
162.5919,113.3383
162.5906,113.3336
162.5726,113.2736
162.5711,113.2692
162.5507,113.2094
162.5484,113.2032
162.4966,113.0752
162.4959,113.0735
162.4476,112.9594
162.3974,112.8310
162.2936,112.5369
162.2820,112.5000
159.8728,112.5000
159.8728,112.5000
158.9752,112.5000
159.0081,112.5570
159.0422,112.6842
159.0422,112.8158
159.0081,112.9430
158.9752,113.0000
159.8728,113.0000
159.8156,113.2135
159.8156,113.2135
159.7158,113.4276
159.5803,113.6211
159.4133,113.7881
159.2198,113.9236
159.0057,114.0234
159.0057,114.0234
158.7922,114.0806
158.7922,113.1830
158.7352,113.2159
158.6080,113.2500
158.4764,113.2500
158.3492,113.2159
158.2922,113.1830
158.2922,114.0806
158.0787,114.0234
158.0787,114.0234
157.8646,113.9236
157.6711,113.7881
157.5491,113.6661
157.4877,113.6326
157.4181,113.6376
157.3621,113.6794
157.3452,113.7104
157.2960,113.8423
157.2960,113.8423
157.2097,113.9575
157.2097,113.9575
157.0945,114.0438
157.0945,114.0438
156.9597,114.0941
156.9597,114.0941
156.9528,114.0948
156.9001,114.1005
155.1043,114.1005
155.0447,114.0941
154.9099,114.0438
154.7947,113.9575
154.7084,113.8423
154.6581,113.7075
154.6517,113.6479
154.6517,111.8521
154.6581,111.7925
154.6592,111.7896
154.7084,111.6577
154.7084,111.6577
154.7947,111.5425
154.7947,111.5425
154.9099,111.4562
154.9099,111.4562
155.0447,111.4059
155.0447,111.4059
155.1043,111.3995
155.1043,111.3995
155.1043,111.3995
155.1043,111.3995
156.9001,111.3995
156.9001,111.3995
156.9597,111.4059
157.0945,111.4562
157.0945,111.4562
157.2097,111.5425
157.2097,111.5425
157.2960,111.6577
157.2960,111.6577
157.3452,111.7896
157.3871,111.8455
157.4525,111.8699
157.5208,111.8551
157.5491,111.8339
157.6711,111.7119
157.8646,111.5764
158.0787,111.4766
158.0787,111.4766
158.2922,111.4194
158.2922,112.3170
158.3492,112.2841
158.4764,112.2500
158.6080,112.2500
158.7352,112.2841
158.7922,112.3170
158.7922,111.4194
158.7922,111.4194
159.0057,111.4766
159.0057,111.4766
159.2198,111.5764
159.2198,111.5764
159.4133,111.7119
159.4133,111.7119
159.5803,111.8789
159.5803,111.8789
159.7158,112.0724
159.7158,112.0724
159.8156,112.2865
159.8156,112.2865
159.8728,112.5000
162.2820,112.5000
162.1866,112.1984
162.0782,111.8219
161.9701,111.4139
161.8642,110.9807
161.7621,110.5286
161.6656,110.0642
161.4488,108.9728
162.1234,108.2909
162.7979,107.6090
162.7979,107.6090
163.3873,108.1699
163.3893,108.1717
163.7167,108.4698
163.7210,108.4735
164.0564,108.7519
164.0610,108.7555
164.4059,109.0155
164.4107,109.0189
164.7657,109.2607
164.7708,109.2639
165.1365,109.4877
165.1418,109.4908
165.5190,109.6969
165.5243,109.6997
165.9135,109.8885
165.9189,109.8909
166.3209,110.0626
166.3263,110.0647
166.7415,110.2195
166.7468,110.2213
167.1761,110.3594
167.1813,110.3610
167.6251,110.4826
167.6302,110.4839
168.0893,110.5893
168.0941,110.5903
168.5690,110.6797
168.5736,110.6805
169.0650,110.7541
169.0693,110.7546
169.5778,110.8126
169.5819,110.8130
170.1081,110.8555
170.1117,110.8558
170.5497,110.8785
170.5532,110.8787
171.0094,110.8895
171.0128,110.8895
171.5077,110.8877
171.5107,110.8877
172.0651,110.8724
172.0674,110.8723
172.7018,110.8428
172.7035,110.8427
173.4381,110.7980
173.4394,110.7980
174.2946,110.7375
174.2954,110.7374
175.2916,110.6603
175.2917,110.6602
175.2919,110.6603
177.4581,110.4877
177.4586,110.4877
177.6052,110.4754
177.6070,110.4752
177.6660,110.4694
177.6682,110.4691
177.7186,110.4633
177.7218,110.4628
177.7636,110.4569
177.7683,110.4561
177.8013,110.4501
177.8082,110.4486
177.8325,110.4427
177.8423,110.4399
177.8523,110.4366
177.9097,110.3968
177.9365,110.3323
177.9367,110.3296
177.9369,110.3282
177.9373,110.3201
177.9377,110.3024
177.9377,110.2966
177.9375,110.2911
177.9371,110.2837
177.9368,110.2800
177.9357,110.2714
177.9353,110.2692
177.9334,110.2594
177.9331,110.2583
177.9302,110.2481
177.9300,110.2475
177.9260,110.2372
177.9257,110.2366
177.9207,110.2265
177.9201,110.2254
177.9145,110.2163
177.9132,110.2142
177.9072,110.2061
177.9047,110.2030
177.8988,110.1961
177.8947,110.1917
177.8890,110.1859
177.8831,110.1804
177.8778,110.1756
177.8698,110.1689
177.8650,110.1651
177.8548,110.1573
177.8505,110.1542
177.8380,110.1456
177.8342,110.1431
177.8193,110.1336
177.8160,110.1315
177.8121,110.1292
177.7987,110.1212
177.7958,110.1195
177.7915,110.1171
177.7760,110.1084
177.7736,110.1071
177.7512,110.0953
177.7491,110.0942
177.7241,110.0816
177.7223,110.0807
177.6947,110.0674
177.6932,110.0666
177.6629,110.0525
177.6618,110.0520
177.6289,110.0371
177.6274,110.0364
177.5525,110.0038
177.5511,110.0032
177.4648,109.9671
177.4639,109.9667
177.3650,109.9266
177.3648,109.9265
177.2529,109.8819
177.1274,109.8327
176.7600,109.6851
176.4205,109.5405
176.1120,109.4004
175.8375,109.2664
175.6001,109.1401
175.4028,109.0229
175.3201,108.9682
175.2486,108.9164
175.1887,108.8676
175.1406,108.8221
175.1225,108.8025
175.1039,108.7810
175.0849,108.7577
175.0656,108.7329
175.0462,108.7068
175.0268,108.6796
175.0076,108.6515
174.9887,108.6229
174.9703,108.5938
174.9524,108.5645
174.9353,108.5352
174.9190,108.5061
174.9038,108.4775
174.8897,108.4496
174.8770,108.4225
174.8656,108.3966
174.7630,108.1510
174.7630,108.1510
174.7630,108.1510
175.1756,108.1800
175.1769,108.1801
175.4092,108.1939
175.4105,108.1939
175.7398,108.2102
175.7405,108.2102
176.1231,108.2269
176.1238,108.2269
176.5155,108.2420
176.8891,108.2599
177.2448,108.2864
177.5837,108.3222
177.9071,108.3674
178.2161,108.4227
178.5118,108.4883
178.7955,108.5646
179.0683,108.6521
179.3313,108.7512
179.5857,108.8623
179.8327,108.9857
180.0734,109.1219
180.3091,109.2713
180.5408,109.4343
180.5408,109.4343
180.7697,109.6114
180.9970,109.8028
181.0282,109.8297
181.0298,109.8311
181.0592,109.8555
181.0609,109.8569
181.0892,109.8796
181.0911,109.8811
181.1179,109.9018
181.1200,109.9033
181.1286,109.9097
181.1942,109.9337
181.2624,109.9184
181.3114,109.8687
181.3257,109.8210
181.3269,109.8081
181.3269,109.8080
181.3629,109.4611
181.3710,109.3832
181.4345,108.8025
181.5164,108.0540
181.6388,106.9576
178.8170,106.9576
155.5784,106.9576
155.5784,102.7309
178.8170,102.7309
178.8170,106.9576
181.6388,106.9576
181.7224,106.2088
181.7224,106.2088
182.3879,105.3754
182.3885,105.3746
182.6526,105.0385
182.6539,105.0367
182.8935,104.7200
182.8952,104.7177
183.1116,104.4177
183.1135,104.4149
183.3076,104.1297
183.3098,104.1263
183.4825,103.8537
183.4850,103.8497
183.6374,103.5875
183.6400,103.5828
183.7731,103.3290
183.7757,103.3236
183.8906,103.0759
183.8932,103.0698
183.9908,102.8260
183.9932,102.8194
184.0747,102.5771
184.0768,102.5703
184.1345,102.3594
184.1433,102.3271
184.1450,102.3202
184.1520,102.2869
184.1974,102.0737
184.1986,102.0670
184.2379,101.8147
184.2387,101.8085
184.2657,101.5481
184.2662,101.5425
184.2766,101.3624
184.2819,101.2716
184.2821,101.2668
184.2872,100.9823
184.2873,100.9802
184.2873,100.8870
184.2876,100.5064
184.2679,100.4393
184.2152,100.3935
184.1460,100.3835
184.0917,100.4053
184.0865,100.4090
184.0845,100.4104
184.0321,100.4493
184.0301,100.4508
183.9544,100.5095
183.9532,100.5105
183.7450,100.6766
183.7442,100.6772
183.4871,100.8868
183.4866,100.8872
183.2091,101.1172
182.9867,101.3006
182.7760,101.4692
182.5757,101.6236
182.3848,101.7645
182.2020,101.8924
182.0262,102.0080
182.0262,102.0080
181.8563,102.1119
181.8563,102.1119
181.6910,102.2046
181.5794,102.2614
181.5293,102.2869
181.3700,102.3594
181.3700,102.3594
181.2120,102.4225
181.0540,102.4771
181.0540,102.4771
181.0540,102.4771
180.8950,102.5236
180.8950,102.5236
180.8395,102.5371
180.7338,102.5628
180.5692,102.5952
180.4302,102.6167
180.4001,102.6214
180.3171,102.6326
180.0513,102.6687
177.6881,101.3625
174.7600,99.7390
174.1950,99.4219
174.2398,98.9015
174.2710,98.6164
174.3162,98.3315
174.3760,98.0454
174.4510,97.7565
174.5421,97.4634
174.6499,97.1647
174.7750,96.8589
174.9183,96.5445
175.0803,96.2200
175.2619,95.8840
175.4637,95.5351
175.6863,95.1717
175.9306,94.7924
175.9306,94.7923
176.1972,94.3957
176.4853,93.9823
176.4868,93.9802
176.5085,93.9499
176.8000,93.5444
176.8392,93.4900
177.3982,92.7140
177.3992,92.7126
177.8615,92.0518
177.8627,92.0500
178.0317,91.7996
178.0330,91.7976
178.0731,91.7354
178.0930,91.6684
178.0734,91.6014
178.0207,91.5555
177.9516,91.5454
177.9160,91.5560
177.8551,91.5848
177.8534,91.5856
177.7626,91.6303
177.7625,91.6304
177.7625,91.6304
177.5662,91.7261
177.5662,91.7261
177.5662,91.7261
177.3419,91.8294
177.0801,91.9445
177.0801,91.9445
177.0800,91.9445
176.8749,92.0312
176.7708,92.0753
176.4041,92.2259
175.9704,92.4005
174.8623,92.8380
174.8615,92.8383
174.2577,93.0837
174.1356,93.1334
174.1329,93.1345
173.8095,93.2751
173.8072,93.2761
173.5076,93.4133
173.5050,93.4145
173.2281,93.5492
173.2251,93.5507
172.9699,93.6834
172.9665,93.6852
172.7318,93.8167
172.7280,93.8189
172.5126,93.9500
172.5084,93.9526
172.3109,94.0838
172.3064,94.0870
172.1575,94.1959
172.1256,94.2191
172.1208,94.2229
171.9554,94.3567
171.9505,94.3609
171.7992,94.4973
171.7942,94.5020
171.6556,94.6417
171.6507,94.6469
171.5234,94.7907
171.5189,94.7961
171.4015,94.9452
171.3974,94.9507
171.2873,95.1076
171.2862,95.1093
171.2678,95.1364
171.2649,95.1406
171.2490,95.1630
171.2304,95.1882
171.2121,95.2118
171.1943,95.2338
171.1770,95.2540
171.1603,95.2723
171.1603,95.2723
171.1445,95.2885
171.1295,95.3027
171.1295,95.3027
171.1156,95.3147
171.1155,95.3147
171.1027,95.3243
171.0911,95.3314
171.0809,95.3359
171.0764,95.3372
171.0722,95.3378
171.0722,95.3378
171.0722,95.3378
171.0687,95.3377
171.0684,95.3377
171.0666,95.3372
171.0651,95.3368
171.0650,95.3368
171.0650,95.3368
171.0621,95.3352
171.0596,95.3329
171.0545,95.3249
171.0484,95.3116
171.0413,95.2935
171.0334,95.2709
171.0152,95.2131
170.9945,95.1406
170.9720,95.0558
170.9482,94.9611
170.9239,94.8588
170.8998,94.7515
170.8126,94.3725
170.8122,94.3707
170.7076,93.9479
170.7072,93.9464
170.6739,93.8190
170.5882,93.4905
170.5879,93.4895
170.4577,93.0123
170.4575,93.0114
170.3195,92.5250
170.3192,92.5241
170.1768,92.0404
170.1765,92.0394
170.0329,91.5703
170.0324,91.5689
170.0131,91.5084
169.8912,91.1270
169.8903,91.1245
169.5802,90.2225
169.5789,90.2189
169.5504,90.1437
169.2549,89.3648
169.2534,89.3609
168.9160,88.5548
168.9142,88.5507
168.5639,87.7933
168.5618,87.7889
168.1991,87.0807
168.1965,87.0759
167.8219,86.4177
167.8189,86.4126
167.4329,85.8049
167.4293,85.7994
167.0326,85.2428
167.0282,85.2370
166.6214,84.7321
166.6161,84.7260
166.1997,84.2733
166.1934,84.2670
165.7680,83.8670
165.7606,83.8606
165.3268,83.5138
165.3180,83.5074
164.8765,83.2142
164.8663,83.2081
164.4175,82.9688
164.4058,82.9633
163.9501,82.7781
163.9373,82.7737
163.4727,82.6422
163.4633,82.6400
163.3254,82.6124
163.3205,82.6115
163.1760,82.5886
163.1714,82.5880
163.0228,82.5702
163.0185,82.5698
162.8666,82.5572
162.8624,82.5570
162.7076,82.5495
162.7036,82.5494
162.5466,82.5471
Z" /> 
</g>
<g style="fill:#FFFFFF; fill-opacity:1.0000; stroke:none;">
<circle cx="156.0022" cy="112.7500" r="0.5000" /> 
</g>
<g style="fill:#FFFFFF; fill-opacity:1.0000; stroke:none;">
<circle cx="158.5422" cy="112.7500" r="0.5000" /> 
</g> 
</svg>
