  0
SECTION
  2
HEADER
  9
$ANGBASE
  50
0.0
  9
$ANGDIR
  70
1
  9
$MEASUREMENT
  70
1
  0
ENDSEC
  0
SECTION
  2
TABLES
  0
TABLE
  2
LTYPE
  70
4
  0
LTYPE
  5
40F
  2
CONTINUOUS
  70
0
  3
Solid line
  72
65
  73
0
  40
0.0
  0
LTYPE
  5
410
  2
DASHDOT
 70
0
  3
Dash Dot ____ _ ____ _
 72
65
 73
4
 40
2.0
 49
1.25
 49
-0.25
 49
0.25
 49
-0.25
  0
LTYPE
  5
411
  2
DASHED
 70
0
  3
Dashed __ __ __ __ __
 72
65
 73
2
 40
0.75
 49
0.5
 49
-0.25
  0
LTYPE
  5
43B
  2
DOTTED
 70
0
  3
Dotted .  .  .  .
 72
65
 73
2
 40
0.2
 49
0.0
 49
-0.2
  0
ENDTAB
  0
TABLE
  2
STYLE
  70
4
  0
STYLE
  2
KICAD
  70
0
  40
0
  41
1
  42
1
  50
0
  71
0
  3
isocp.shx
  0
STYLE
  2
KICADB
  70
0
  40
0
  41
1
  42
1
  50
0
  71
0
  3
isocp.shx
  0
STYLE
  2
KICADI
  70
0
  40
0
  41
1
  42
1
  50
15
  71
0
  3
isocp.shx
  0
STYLE
  2
KICADBI
  70
0
  40
0
  41
1
  42
1
  50
15
  71
0
  3
isocp.shx
  0
ENDTAB
  0
TABLE
  2
LAYER
  70
1
  0
LAYER
  2
BLACK
  70
0
  62
7
  6
CONTINUOUS
  0
ENDTAB
  0
ENDSEC
  0
SECTION
  2
ENTITIES
0
LINE
8
BLACK
6
CONTINUOUS
10
158.0256709999999885
20
-113.2540300000000002
11
158.1067769999999939
21
-113.3082229999999981
0
LINE
8
BLACK
6
CONTINUOUS
10
158.1067769999999939
20
-113.3082229999999981
11
158.1609699999999918
21
-113.3893289999999894
0
LINE
8
BLACK
6
CONTINUOUS
10
158.1609699999999918
20
-113.3893289999999894
11
158.1800000000000068
21
-113.4849999999999994
0
LINE
8
BLACK
6
CONTINUOUS
10
158.1800000000000068
20
-113.4849999999999994
11
158.1800000000000068
21
-114.1349999999999909
0
LINE
8
BLACK
6
CONTINUOUS
10
158.1800000000000068
20
-114.1349999999999909
11
158.1609699999999918
21
-114.230671000000001
0
LINE
8
BLACK
6
CONTINUOUS
10
158.1609699999999918
20
-114.230671000000001
11
158.1067769999999939
21
-114.3117769999999922
0
LINE
8
BLACK
6
CONTINUOUS
10
158.1067769999999939
20
-114.3117769999999922
11
158.0256709999999885
21
-114.3659699999999901
0
LINE
8
BLACK
6
CONTINUOUS
10
158.0256709999999885
20
-114.3659699999999901
11
157.9300000000000068
21
-114.3849999999999909
0
LINE
8
BLACK
6
CONTINUOUS
10
157.9300000000000068
20
-114.3849999999999909
11
157.0300000000000011
21
-114.3849999999999909
0
LINE
8
BLACK
6
CONTINUOUS
10
157.0300000000000011
20
-114.3849999999999909
11
156.9343289999999911
21
-114.3659699999999901
0
LINE
8
BLACK
6
CONTINUOUS
10
156.9343289999999911
20
-114.3659699999999901
11
156.8532229999999856
21
-114.3117769999999922
0
LINE
8
BLACK
6
CONTINUOUS
10
156.8532229999999856
20
-114.3117769999999922
11
156.7990299999999877
21
-114.230671000000001
0
LINE
8
BLACK
6
CONTINUOUS
10
156.7990299999999877
20
-114.230671000000001
11
156.7800000000000011
21
-114.1349999999999909
0
LINE
8
BLACK
6
CONTINUOUS
10
156.7800000000000011
20
-114.1349999999999909
11
156.7800000000000011
21
-113.4849999999999994
0
LINE
8
BLACK
6
CONTINUOUS
10
156.7800000000000011
20
-113.4849999999999994
11
156.7990299999999877
21
-113.3893289999999894
0
LINE
8
BLACK
6
CONTINUOUS
10
156.7990299999999877
20
-113.3893289999999894
11
156.8532229999999856
21
-113.3082229999999981
0
LINE
8
BLACK
6
CONTINUOUS
10
156.8532229999999856
20
-113.3082229999999981
11
156.9343289999999911
21
-113.2540300000000002
0
LINE
8
BLACK
6
CONTINUOUS
10
156.9343289999999911
20
-113.2540300000000002
11
157.0300000000000011
21
-113.2349999999999994
0
LINE
8
BLACK
6
CONTINUOUS
10
157.0300000000000011
20
-113.2349999999999994
11
157.9300000000000068
21
-113.2349999999999994
0
LINE
8
BLACK
6
CONTINUOUS
10
157.9300000000000068
20
-113.2349999999999994
11
158.0256709999999885
21
-113.2540300000000002
0
LINE
8
BLACK
6
CONTINUOUS
10
158.0256709999999885
20
-111.2040299999999888
11
158.1067769999999939
21
-111.258223000000001
0
LINE
8
BLACK
6
CONTINUOUS
10
158.1067769999999939
20
-111.258223000000001
11
158.1609699999999918
21
-111.3393289999999922
0
LINE
8
BLACK
6
CONTINUOUS
10
158.1609699999999918
20
-111.3393289999999922
11
158.1800000000000068
21
-111.4349999999999881
0
LINE
8
BLACK
6
CONTINUOUS
10
158.1800000000000068
20
-111.4349999999999881
11
158.1800000000000068
21
-112.0849999999999937
0
LINE
8
BLACK
6
CONTINUOUS
10
158.1800000000000068
20
-112.0849999999999937
11
158.1609699999999918
21
-112.1806709999999896
0
LINE
8
BLACK
6
CONTINUOUS
10
158.1609699999999918
20
-112.1806709999999896
11
158.1067769999999939
21
-112.261776999999995
0
LINE
8
BLACK
6
CONTINUOUS
10
158.1067769999999939
20
-112.261776999999995
11
158.0256709999999885
21
-112.315969999999993
0
LINE
8
BLACK
6
CONTINUOUS
10
158.0256709999999885
20
-112.315969999999993
11
157.9300000000000068
21
-112.3349999999999937
0
LINE
8
BLACK
6
CONTINUOUS
10
157.9300000000000068
20
-112.3349999999999937
11
157.0300000000000011
21
-112.3349999999999937
0
LINE
8
BLACK
6
CONTINUOUS
10
157.0300000000000011
20
-112.3349999999999937
11
156.9343289999999911
21
-112.315969999999993
0
LINE
8
BLACK
6
CONTINUOUS
10
156.9343289999999911
20
-112.315969999999993
11
156.8532229999999856
21
-112.261776999999995
0
LINE
8
BLACK
6
CONTINUOUS
10
156.8532229999999856
20
-112.261776999999995
11
156.7990299999999877
21
-112.1806709999999896
0
LINE
8
BLACK
6
CONTINUOUS
10
156.7990299999999877
20
-112.1806709999999896
11
156.7800000000000011
21
-112.0849999999999937
0
LINE
8
BLACK
6
CONTINUOUS
10
156.7800000000000011
20
-112.0849999999999937
11
156.7800000000000011
21
-111.4349999999999881
0
LINE
8
BLACK
6
CONTINUOUS
10
156.7800000000000011
20
-111.4349999999999881
11
156.7990299999999877
21
-111.3393289999999922
0
LINE
8
BLACK
6
CONTINUOUS
10
156.7990299999999877
20
-111.3393289999999922
11
156.8532229999999856
21
-111.258223000000001
0
LINE
8
BLACK
6
CONTINUOUS
10
156.8532229999999856
20
-111.258223000000001
11
156.9343289999999911
21
-111.2040299999999888
0
LINE
8
BLACK
6
CONTINUOUS
10
156.9343289999999911
20
-111.2040299999999888
11
157.0300000000000011
21
-111.1849999999999881
0
LINE
8
BLACK
6
CONTINUOUS
10
157.0300000000000011
20
-111.1849999999999881
11
157.9300000000000068
21
-111.1849999999999881
0
LINE
8
BLACK
6
CONTINUOUS
10
157.9300000000000068
20
-111.1849999999999881
11
158.0256709999999885
21
-111.2040299999999888
0
LINE
8
BLACK
6
CONTINUOUS
10
169.2736270000000047
20
-110.4358059999999995
11
169.3547329999999818
21
-110.4899999999999949
0
LINE
8
BLACK
6
CONTINUOUS
10
169.3547329999999818
20
-110.4899999999999949
11
169.8143519999999853
21
-110.9496189999999984
0
LINE
8
BLACK
6
CONTINUOUS
10
169.8143519999999853
20
-110.9496189999999984
11
169.8685459999999807
21
-111.0307249999999897
0
LINE
8
BLACK
6
CONTINUOUS
10
169.8685459999999807
20
-111.0307249999999897
11
169.8875759999999957
21
-111.1263959999999997
0
LINE
8
BLACK
6
CONTINUOUS
10
169.8875759999999957
20
-111.1263959999999997
11
169.8685459999999807
21
-111.2220659999999981
0
LINE
8
BLACK
6
CONTINUOUS
10
169.8685459999999807
20
-111.2220659999999981
11
169.8143519999999853
21
-111.3031719999999893
0
LINE
8
BLACK
6
CONTINUOUS
10
169.8143519999999853
20
-111.3031719999999893
11
169.1779559999999947
21
-111.9395679999999942
0
LINE
8
BLACK
6
CONTINUOUS
10
169.1779559999999947
20
-111.9395679999999942
11
169.0968499999999892
21
-111.9937619999999896
0
LINE
8
BLACK
6
CONTINUOUS
10
169.0968499999999892
20
-111.9937619999999896
11
169.0011800000000051
21
-112.0127919999999904
0
LINE
8
BLACK
6
CONTINUOUS
10
169.0011800000000051
20
-112.0127919999999904
11
168.905508999999995
21
-111.9937619999999896
0
LINE
8
BLACK
6
CONTINUOUS
10
168.905508999999995
20
-111.9937619999999896
11
168.8244029999999896
21
-111.9395679999999942
0
LINE
8
BLACK
6
CONTINUOUS
10
168.8244029999999896
20
-111.9395679999999942
11
168.364783999999986
21
-111.4799489999999906
0
LINE
8
BLACK
6
CONTINUOUS
10
168.364783999999986
20
-111.4799489999999906
11
168.3105899999999906
21
-111.3988429999999994
0
LINE
8
BLACK
6
CONTINUOUS
10
168.3105899999999906
20
-111.3988429999999994
11
168.291560000000004
21
-111.3031719999999893
0
LINE
8
BLACK
6
CONTINUOUS
10
168.291560000000004
20
-111.3031719999999893
11
168.3105899999999906
21
-111.207501999999991
0
LINE
8
BLACK
6
CONTINUOUS
10
168.3105899999999906
20
-111.207501999999991
11
168.364783999999986
21
-111.1263959999999997
0
LINE
8
BLACK
6
CONTINUOUS
10
168.364783999999986
20
-111.1263959999999997
11
169.0011800000000051
21
-110.4899999999999949
0
LINE
8
BLACK
6
CONTINUOUS
10
169.0011800000000051
20
-110.4899999999999949
11
169.0822859999999821
21
-110.4358059999999995
0
LINE
8
BLACK
6
CONTINUOUS
10
169.0822859999999821
20
-110.4358059999999995
11
169.1779559999999947
21
-110.4167759999999987
0
LINE
8
BLACK
6
CONTINUOUS
10
169.1779559999999947
20
-110.4167759999999987
11
169.2736270000000047
21
-110.4358059999999995
0
LINE
8
BLACK
6
CONTINUOUS
10
152.9456710000000044
20
-110.7140299999999939
11
153.0267769999999814
21
-110.7682229999999919
0
LINE
8
BLACK
6
CONTINUOUS
10
153.0267769999999814
20
-110.7682229999999919
11
153.0809699999999793
21
-110.8493289999999973
0
LINE
8
BLACK
6
CONTINUOUS
10
153.0809699999999793
20
-110.8493289999999973
11
153.0999999999999943
21
-110.9449999999999932
0
LINE
8
BLACK
6
CONTINUOUS
10
153.0999999999999943
20
-110.9449999999999932
11
153.0999999999999943
21
-111.5949999999999989
0
LINE
8
BLACK
6
CONTINUOUS
10
153.0999999999999943
20
-111.5949999999999989
11
153.0809699999999793
21
-111.6906709999999947
0
LINE
8
BLACK
6
CONTINUOUS
10
153.0809699999999793
20
-111.6906709999999947
11
153.0267769999999814
21
-111.7717770000000002
0
LINE
8
BLACK
6
CONTINUOUS
10
153.0267769999999814
20
-111.7717770000000002
11
152.9456710000000044
21
-111.8259699999999981
0
LINE
8
BLACK
6
CONTINUOUS
10
152.9456710000000044
20
-111.8259699999999981
11
152.8499999999999943
21
-111.8449999999999989
0
LINE
8
BLACK
6
CONTINUOUS
10
152.8499999999999943
20
-111.8449999999999989
11
151.9499999999999886
21
-111.8449999999999989
0
LINE
8
BLACK
6
CONTINUOUS
10
151.9499999999999886
20
-111.8449999999999989
11
151.854329000000007
21
-111.8259699999999981
0
LINE
8
BLACK
6
CONTINUOUS
10
151.854329000000007
20
-111.8259699999999981
11
151.7732230000000015
21
-111.7717770000000002
0
LINE
8
BLACK
6
CONTINUOUS
10
151.7732230000000015
20
-111.7717770000000002
11
151.7190300000000036
21
-111.6906709999999947
0
LINE
8
BLACK
6
CONTINUOUS
10
151.7190300000000036
20
-111.6906709999999947
11
151.6999999999999886
21
-111.5949999999999989
0
LINE
8
BLACK
6
CONTINUOUS
10
151.6999999999999886
20
-111.5949999999999989
11
151.6999999999999886
21
-110.9449999999999932
0
LINE
8
BLACK
6
CONTINUOUS
10
151.6999999999999886
20
-110.9449999999999932
11
151.7190300000000036
21
-110.8493289999999973
0
LINE
8
BLACK
6
CONTINUOUS
10
151.7190300000000036
20
-110.8493289999999973
11
151.7732230000000015
21
-110.7682229999999919
0
LINE
8
BLACK
6
CONTINUOUS
10
151.7732230000000015
20
-110.7682229999999919
11
151.854329000000007
21
-110.7140299999999939
0
LINE
8
BLACK
6
CONTINUOUS
10
151.854329000000007
20
-110.7140299999999939
11
151.9499999999999886
21
-110.6949999999999932
0
LINE
8
BLACK
6
CONTINUOUS
10
151.9499999999999886
20
-110.6949999999999932
11
152.8499999999999943
21
-110.6949999999999932
0
LINE
8
BLACK
6
CONTINUOUS
10
152.8499999999999943
20
-110.6949999999999932
11
152.9456710000000044
21
-110.7140299999999939
0
LINE
8
BLACK
6
CONTINUOUS
10
167.8240590000000054
20
-108.9862380000000002
11
167.9051649999999825
21
-109.0404319999999956
0
LINE
8
BLACK
6
CONTINUOUS
10
167.9051649999999825
20
-109.0404319999999956
11
168.364783999999986
21
-109.5000509999999991
0
LINE
8
BLACK
6
CONTINUOUS
10
168.364783999999986
20
-109.5000509999999991
11
168.4189779999999814
21
-109.5811569999999904
0
LINE
8
BLACK
6
CONTINUOUS
10
168.4189779999999814
20
-109.5811569999999904
11
168.4380079999999964
21
-109.6768280000000004
0
LINE
8
BLACK
6
CONTINUOUS
10
168.4380079999999964
20
-109.6768280000000004
11
168.4189779999999814
21
-109.7724979999999988
0
LINE
8
BLACK
6
CONTINUOUS
10
168.4189779999999814
20
-109.7724979999999988
11
168.364783999999986
21
-109.85360399999999
0
LINE
8
BLACK
6
CONTINUOUS
10
168.364783999999986
20
-109.85360399999999
11
167.7283879999999954
21
-110.4899999999999949
0
LINE
8
BLACK
6
CONTINUOUS
10
167.7283879999999954
20
-110.4899999999999949
11
167.6472819999999899
21
-110.5441939999999903
0
LINE
8
BLACK
6
CONTINUOUS
10
167.6472819999999899
20
-110.5441939999999903
11
167.5516120000000058
21
-110.5632239999999911
0
LINE
8
BLACK
6
CONTINUOUS
10
167.5516120000000058
20
-110.5632239999999911
11
167.4559409999999957
21
-110.5441939999999903
0
LINE
8
BLACK
6
CONTINUOUS
10
167.4559409999999957
20
-110.5441939999999903
11
167.3748349999999903
21
-110.4899999999999949
0
LINE
8
BLACK
6
CONTINUOUS
10
167.3748349999999903
20
-110.4899999999999949
11
166.9152159999999867
21
-110.0303809999999913
0
LINE
8
BLACK
6
CONTINUOUS
10
166.9152159999999867
20
-110.0303809999999913
11
166.8610219999999913
21
-109.9492750000000001
0
LINE
8
BLACK
6
CONTINUOUS
10
166.8610219999999913
20
-109.9492750000000001
11
166.8419920000000047
21
-109.85360399999999
0
LINE
8
BLACK
6
CONTINUOUS
10
166.8419920000000047
20
-109.85360399999999
11
166.8610219999999913
21
-109.7579339999999917
0
LINE
8
BLACK
6
CONTINUOUS
10
166.8610219999999913
20
-109.7579339999999917
11
166.9152159999999867
21
-109.6768280000000004
0
LINE
8
BLACK
6
CONTINUOUS
10
166.9152159999999867
20
-109.6768280000000004
11
167.5516120000000058
21
-109.0404319999999956
0
LINE
8
BLACK
6
CONTINUOUS
10
167.5516120000000058
20
-109.0404319999999956
11
167.6327179999999828
21
-108.9862380000000002
0
LINE
8
BLACK
6
CONTINUOUS
10
167.6327179999999828
20
-108.9862380000000002
11
167.7283879999999954
21
-108.9672079999999994
0
LINE
8
BLACK
6
CONTINUOUS
10
167.7283879999999954
20
-108.9672079999999994
11
167.8240590000000054
21
-108.9862380000000002
0
LINE
8
BLACK
6
CONTINUOUS
10
152.9456710000000044
20
-108.6640299999999968
11
153.0267769999999814
21
-108.7182229999999947
0
LINE
8
BLACK
6
CONTINUOUS
10
153.0267769999999814
20
-108.7182229999999947
11
153.0809699999999793
21
-108.7993290000000002
0
LINE
8
BLACK
6
CONTINUOUS
10
153.0809699999999793
20
-108.7993290000000002
11
153.0999999999999943
21
-108.894999999999996
0
LINE
8
BLACK
6
CONTINUOUS
10
153.0999999999999943
20
-108.894999999999996
11
153.0999999999999943
21
-109.5450000000000017
0
LINE
8
BLACK
6
CONTINUOUS
10
153.0999999999999943
20
-109.5450000000000017
11
153.0809699999999793
21
-109.6406709999999975
0
LINE
8
BLACK
6
CONTINUOUS
10
153.0809699999999793
20
-109.6406709999999975
11
153.0267769999999814
21
-109.7217769999999888
0
LINE
8
BLACK
6
CONTINUOUS
10
153.0267769999999814
20
-109.7217769999999888
11
152.9456710000000044
21
-109.7759700000000009
0
LINE
8
BLACK
6
CONTINUOUS
10
152.9456710000000044
20
-109.7759700000000009
11
152.8499999999999943
21
-109.7950000000000017
0
LINE
8
BLACK
6
CONTINUOUS
10
152.8499999999999943
20
-109.7950000000000017
11
151.9499999999999886
21
-109.7950000000000017
0
LINE
8
BLACK
6
CONTINUOUS
10
151.9499999999999886
20
-109.7950000000000017
11
151.854329000000007
21
-109.7759700000000009
0
LINE
8
BLACK
6
CONTINUOUS
10
151.854329000000007
20
-109.7759700000000009
11
151.7732230000000015
21
-109.7217769999999888
0
LINE
8
BLACK
6
CONTINUOUS
10
151.7732230000000015
20
-109.7217769999999888
11
151.7190300000000036
21
-109.6406709999999975
0
LINE
8
BLACK
6
CONTINUOUS
10
151.7190300000000036
20
-109.6406709999999975
11
151.6999999999999886
21
-109.5450000000000017
0
LINE
8
BLACK
6
CONTINUOUS
10
151.6999999999999886
20
-109.5450000000000017
11
151.6999999999999886
21
-108.894999999999996
0
LINE
8
BLACK
6
CONTINUOUS
10
151.6999999999999886
20
-108.894999999999996
11
151.7190300000000036
21
-108.7993290000000002
0
LINE
8
BLACK
6
CONTINUOUS
10
151.7190300000000036
20
-108.7993290000000002
11
151.7732230000000015
21
-108.7182229999999947
0
LINE
8
BLACK
6
CONTINUOUS
10
151.7732230000000015
20
-108.7182229999999947
11
151.854329000000007
21
-108.6640299999999968
0
LINE
8
BLACK
6
CONTINUOUS
10
151.854329000000007
20
-108.6640299999999968
11
151.9499999999999886
21
-108.644999999999996
0
LINE
8
BLACK
6
CONTINUOUS
10
151.9499999999999886
20
-108.644999999999996
11
152.8499999999999943
21
-108.644999999999996
0
LINE
8
BLACK
6
CONTINUOUS
10
152.8499999999999943
20
-108.644999999999996
11
152.9456710000000044
21
-108.6640299999999968
0
LINE
8
BLACK
6
CONTINUOUS
10
138.8631709999999941
20
-105.9740299999999991
11
138.9442769999999996
21
-106.028222999999997
0
LINE
8
BLACK
6
CONTINUOUS
10
138.9442769999999996
20
-106.028222999999997
11
138.9984699999999975
21
-106.1093289999999882
0
LINE
8
BLACK
6
CONTINUOUS
10
138.9984699999999975
20
-106.1093289999999882
11
139.0174999999999841
21
-106.2049999999999983
0
LINE
8
BLACK
6
CONTINUOUS
10
139.0174999999999841
20
-106.2049999999999983
11
139.0174999999999841
21
-107.1550000000000011
0
LINE
8
BLACK
6
CONTINUOUS
10
139.0174999999999841
20
-107.1550000000000011
11
138.9984699999999975
21
-107.250670999999997
0
LINE
8
BLACK
6
CONTINUOUS
10
138.9984699999999975
20
-107.250670999999997
11
138.9442769999999996
21
-107.3317769999999882
0
LINE
8
BLACK
6
CONTINUOUS
10
138.9442769999999996
20
-107.3317769999999882
11
138.8631709999999941
21
-107.3859700000000004
0
LINE
8
BLACK
6
CONTINUOUS
10
138.8631709999999941
20
-107.3859700000000004
11
138.7674999999999841
21
-107.4050000000000011
0
LINE
8
BLACK
6
CONTINUOUS
10
138.7674999999999841
20
-107.4050000000000011
11
138.0925000000000011
21
-107.4050000000000011
0
LINE
8
BLACK
6
CONTINUOUS
10
138.0925000000000011
20
-107.4050000000000011
11
137.9968289999999911
21
-107.3859700000000004
0
LINE
8
BLACK
6
CONTINUOUS
10
137.9968289999999911
20
-107.3859700000000004
11
137.9157229999999856
21
-107.3317769999999882
0
LINE
8
BLACK
6
CONTINUOUS
10
137.9157229999999856
20
-107.3317769999999882
11
137.8615299999999877
21
-107.250670999999997
0
LINE
8
BLACK
6
CONTINUOUS
10
137.8615299999999877
20
-107.250670999999997
11
137.8425000000000011
21
-107.1550000000000011
0
LINE
8
BLACK
6
CONTINUOUS
10
137.8425000000000011
20
-107.1550000000000011
11
137.8425000000000011
21
-106.2049999999999983
0
LINE
8
BLACK
6
CONTINUOUS
10
137.8425000000000011
20
-106.2049999999999983
11
137.8615299999999877
21
-106.1093289999999882
0
LINE
8
BLACK
6
CONTINUOUS
10
137.8615299999999877
20
-106.1093289999999882
11
137.9157229999999856
21
-106.028222999999997
0
LINE
8
BLACK
6
CONTINUOUS
10
137.9157229999999856
20
-106.028222999999997
11
137.9968289999999911
21
-105.9740299999999991
0
LINE
8
BLACK
6
CONTINUOUS
10
137.9968289999999911
20
-105.9740299999999991
11
138.0925000000000011
21
-105.9549999999999983
0
LINE
8
BLACK
6
CONTINUOUS
10
138.0925000000000011
20
-105.9549999999999983
11
138.7674999999999841
21
-105.9549999999999983
0
LINE
8
BLACK
6
CONTINUOUS
10
138.7674999999999841
20
-105.9549999999999983
11
138.8631709999999941
21
-105.9740299999999991
0
LINE
8
BLACK
6
CONTINUOUS
10
140.9381709999999828
20
-105.9740299999999991
11
141.0192769999999882
21
-106.028222999999997
0
LINE
8
BLACK
6
CONTINUOUS
10
141.0192769999999882
20
-106.028222999999997
11
141.0734699999999862
21
-106.1093289999999882
0
LINE
8
BLACK
6
CONTINUOUS
10
141.0734699999999862
20
-106.1093289999999882
11
141.0925000000000011
21
-106.2049999999999983
0
LINE
8
BLACK
6
CONTINUOUS
10
141.0925000000000011
20
-106.2049999999999983
11
141.0925000000000011
21
-107.1550000000000011
0
LINE
8
BLACK
6
CONTINUOUS
10
141.0925000000000011
20
-107.1550000000000011
11
141.0734699999999862
21
-107.250670999999997
0
LINE
8
BLACK
6
CONTINUOUS
10
141.0734699999999862
20
-107.250670999999997
11
141.0192769999999882
21
-107.3317769999999882
0
LINE
8
BLACK
6
CONTINUOUS
10
141.0192769999999882
20
-107.3317769999999882
11
140.9381709999999828
21
-107.3859700000000004
0
LINE
8
BLACK
6
CONTINUOUS
10
140.9381709999999828
20
-107.3859700000000004
11
140.8425000000000011
21
-107.4050000000000011
0
LINE
8
BLACK
6
CONTINUOUS
10
140.8425000000000011
20
-107.4050000000000011
11
140.1674999999999898
21
-107.4050000000000011
0
LINE
8
BLACK
6
CONTINUOUS
10
140.1674999999999898
20
-107.4050000000000011
11
140.0718289999999797
21
-107.3859700000000004
0
LINE
8
BLACK
6
CONTINUOUS
10
140.0718289999999797
20
-107.3859700000000004
11
139.9907230000000027
21
-107.3317769999999882
0
LINE
8
BLACK
6
CONTINUOUS
10
139.9907230000000027
20
-107.3317769999999882
11
139.9365300000000047
21
-107.250670999999997
0
LINE
8
BLACK
6
CONTINUOUS
10
139.9365300000000047
20
-107.250670999999997
11
139.9174999999999898
21
-107.1550000000000011
0
LINE
8
BLACK
6
CONTINUOUS
10
139.9174999999999898
20
-107.1550000000000011
11
139.9174999999999898
21
-106.2049999999999983
0
LINE
8
BLACK
6
CONTINUOUS
10
139.9174999999999898
20
-106.2049999999999983
11
139.9365300000000047
21
-106.1093289999999882
0
LINE
8
BLACK
6
CONTINUOUS
10
139.9365300000000047
20
-106.1093289999999882
11
139.9907230000000027
21
-106.028222999999997
0
LINE
8
BLACK
6
CONTINUOUS
10
139.9907230000000027
20
-106.028222999999997
11
140.0718289999999797
21
-105.9740299999999991
0
LINE
8
BLACK
6
CONTINUOUS
10
140.0718289999999797
20
-105.9740299999999991
11
140.1674999999999898
21
-105.9549999999999983
0
LINE
8
BLACK
6
CONTINUOUS
10
140.1674999999999898
20
-105.9549999999999983
11
140.8425000000000011
21
-105.9549999999999983
0
LINE
8
BLACK
6
CONTINUOUS
10
140.8425000000000011
20
-105.9549999999999983
11
140.9381709999999828
21
-105.9740299999999991
0
LINE
8
BLACK
6
CONTINUOUS
10
128.2535120000000006
20
-105.0568930000000023
11
128.3346180000000061
21
-105.1110860000000002
0
LINE
8
BLACK
6
CONTINUOUS
10
128.3346180000000061
20
-105.1110860000000002
11
128.388811000000004
21
-105.1921919999999915
0
LINE
8
BLACK
6
CONTINUOUS
10
128.388811000000004
20
-105.1921919999999915
11
128.4078409999999906
21
-105.2878630000000015
0
LINE
8
BLACK
6
CONTINUOUS
10
128.4078409999999906
20
-105.2878630000000015
11
128.4078409999999906
21
-106.5378630000000015
0
LINE
8
BLACK
6
CONTINUOUS
10
128.4078409999999906
20
-106.5378630000000015
11
128.388811000000004
21
-106.6335339999999974
0
LINE
8
BLACK
6
CONTINUOUS
10
128.388811000000004
20
-106.6335339999999974
11
128.3346180000000061
21
-106.7146399999999886
0
LINE
8
BLACK
6
CONTINUOUS
10
128.3346180000000061
20
-106.7146399999999886
11
128.2535120000000006
21
-106.7688330000000008
0
LINE
8
BLACK
6
CONTINUOUS
10
128.2535120000000006
20
-106.7688330000000008
11
128.1578409999999906
21
-106.7878630000000015
0
LINE
8
BLACK
6
CONTINUOUS
10
128.1578409999999906
20
-106.7878630000000015
11
127.3578409999999934
21
-106.7878630000000015
0
LINE
8
BLACK
6
CONTINUOUS
10
127.3578409999999934
20
-106.7878630000000015
11
127.2621699999999976
21
-106.7688330000000008
0
LINE
8
BLACK
6
CONTINUOUS
10
127.2621699999999976
20
-106.7688330000000008
11
127.1810639999999921
21
-106.7146399999999886
0
LINE
8
BLACK
6
CONTINUOUS
10
127.1810639999999921
20
-106.7146399999999886
11
127.1268709999999942
21
-106.6335339999999974
0
LINE
8
BLACK
6
CONTINUOUS
10
127.1268709999999942
20
-106.6335339999999974
11
127.1078409999999934
21
-106.5378630000000015
0
LINE
8
BLACK
6
CONTINUOUS
10
127.1078409999999934
20
-106.5378630000000015
11
127.1078409999999934
21
-105.2878630000000015
0
LINE
8
BLACK
6
CONTINUOUS
10
127.1078409999999934
20
-105.2878630000000015
11
127.1268709999999942
21
-105.1921919999999915
0
LINE
8
BLACK
6
CONTINUOUS
10
127.1268709999999942
20
-105.1921919999999915
11
127.1810639999999921
21
-105.1110860000000002
0
LINE
8
BLACK
6
CONTINUOUS
10
127.1810639999999921
20
-105.1110860000000002
11
127.2621699999999976
21
-105.0568930000000023
0
LINE
8
BLACK
6
CONTINUOUS
10
127.2621699999999976
20
-105.0568930000000023
11
127.3578409999999934
21
-105.0378630000000015
0
LINE
8
BLACK
6
CONTINUOUS
10
127.3578409999999934
20
-105.0378630000000015
11
128.1578409999999906
21
-105.0378630000000015
0
LINE
8
BLACK
6
CONTINUOUS
10
128.1578409999999906
20
-105.0378630000000015
11
128.2535120000000006
21
-105.0568930000000023
0
LINE
8
BLACK
6
CONTINUOUS
10
131.3535119999999949
20
-105.0568930000000023
11
131.4346180000000004
21
-105.1110860000000002
0
LINE
8
BLACK
6
CONTINUOUS
10
131.4346180000000004
20
-105.1110860000000002
11
131.4888109999999983
21
-105.1921919999999915
0
LINE
8
BLACK
6
CONTINUOUS
10
131.4888109999999983
20
-105.1921919999999915
11
131.5078409999999849
21
-105.2878630000000015
0
LINE
8
BLACK
6
CONTINUOUS
10
131.5078409999999849
20
-105.2878630000000015
11
131.5078409999999849
21
-106.5378630000000015
0
LINE
8
BLACK
6
CONTINUOUS
10
131.5078409999999849
20
-106.5378630000000015
11
131.4888109999999983
21
-106.6335339999999974
0
LINE
8
BLACK
6
CONTINUOUS
10
131.4888109999999983
20
-106.6335339999999974
11
131.4346180000000004
21
-106.7146399999999886
0
LINE
8
BLACK
6
CONTINUOUS
10
131.4346180000000004
20
-106.7146399999999886
11
131.3535119999999949
21
-106.7688330000000008
0
LINE
8
BLACK
6
CONTINUOUS
10
131.3535119999999949
20
-106.7688330000000008
11
131.2578409999999849
21
-106.7878630000000015
0
LINE
8
BLACK
6
CONTINUOUS
10
131.2578409999999849
20
-106.7878630000000015
11
130.4578410000000019
21
-106.7878630000000015
0
LINE
8
BLACK
6
CONTINUOUS
10
130.4578410000000019
20
-106.7878630000000015
11
130.3621699999999919
21
-106.7688330000000008
0
LINE
8
BLACK
6
CONTINUOUS
10
130.3621699999999919
20
-106.7688330000000008
11
130.2810639999999864
21
-106.7146399999999886
0
LINE
8
BLACK
6
CONTINUOUS
10
130.2810639999999864
20
-106.7146399999999886
11
130.2268709999999885
21
-106.6335339999999974
0
LINE
8
BLACK
6
CONTINUOUS
10
130.2268709999999885
20
-106.6335339999999974
11
130.2078410000000019
21
-106.5378630000000015
0
LINE
8
BLACK
6
CONTINUOUS
10
130.2078410000000019
20
-106.5378630000000015
11
130.2078410000000019
21
-105.2878630000000015
0
LINE
8
BLACK
6
CONTINUOUS
10
130.2078410000000019
20
-105.2878630000000015
11
130.2268709999999885
21
-105.1921919999999915
0
LINE
8
BLACK
6
CONTINUOUS
10
130.2268709999999885
20
-105.1921919999999915
11
130.2810639999999864
21
-105.1110860000000002
0
LINE
8
BLACK
6
CONTINUOUS
10
130.2810639999999864
20
-105.1110860000000002
11
130.3621699999999919
21
-105.0568930000000023
0
LINE
8
BLACK
6
CONTINUOUS
10
130.3621699999999919
20
-105.0568930000000023
11
130.4578410000000019
21
-105.0378630000000015
0
LINE
8
BLACK
6
CONTINUOUS
10
130.4578410000000019
20
-105.0378630000000015
11
131.2578409999999849
21
-105.0378630000000015
0
LINE
8
BLACK
6
CONTINUOUS
10
131.2578409999999849
20
-105.0378630000000015
11
131.3535119999999949
21
-105.0568930000000023
0
LINE
8
BLACK
6
CONTINUOUS
10
149.310670999999985
20
-105.3390299999999939
11
149.3917769999999905
21
-105.3932229999999919
0
LINE
8
BLACK
6
CONTINUOUS
10
149.3917769999999905
20
-105.3932229999999919
11
149.4459699999999884
21
-105.4743289999999973
0
LINE
8
BLACK
6
CONTINUOUS
10
149.4459699999999884
20
-105.4743289999999973
11
149.4650000000000034
21
-105.5699999999999932
0
LINE
8
BLACK
6
CONTINUOUS
10
149.4650000000000034
20
-105.5699999999999932
11
149.4650000000000034
21
-106.3699999999999903
0
LINE
8
BLACK
6
CONTINUOUS
10
149.4650000000000034
20
-106.3699999999999903
11
149.4459699999999884
21
-106.4656710000000004
0
LINE
8
BLACK
6
CONTINUOUS
10
149.4459699999999884
20
-106.4656710000000004
11
149.3917769999999905
21
-106.5467769999999916
0
LINE
8
BLACK
6
CONTINUOUS
10
149.3917769999999905
20
-106.5467769999999916
11
149.310670999999985
21
-106.6009699999999896
0
LINE
8
BLACK
6
CONTINUOUS
10
149.310670999999985
20
-106.6009699999999896
11
149.2150000000000034
21
-106.6199999999999903
0
LINE
8
BLACK
6
CONTINUOUS
10
149.2150000000000034
20
-106.6199999999999903
11
147.9650000000000034
21
-106.6199999999999903
0
LINE
8
BLACK
6
CONTINUOUS
10
147.9650000000000034
20
-106.6199999999999903
11
147.8693289999999934
21
-106.6009699999999896
0
LINE
8
BLACK
6
CONTINUOUS
10
147.8693289999999934
20
-106.6009699999999896
11
147.7882229999999879
21
-106.5467769999999916
0
LINE
8
BLACK
6
CONTINUOUS
10
147.7882229999999879
20
-106.5467769999999916
11
147.73402999999999
21
-106.4656710000000004
0
LINE
8
BLACK
6
CONTINUOUS
10
147.73402999999999
20
-106.4656710000000004
11
147.7150000000000034
21
-106.3699999999999903
0
LINE
8
BLACK
6
CONTINUOUS
10
147.7150000000000034
20
-106.3699999999999903
11
147.7150000000000034
21
-105.5699999999999932
0
LINE
8
BLACK
6
CONTINUOUS
10
147.7150000000000034
20
-105.5699999999999932
11
147.73402999999999
21
-105.4743289999999973
0
LINE
8
BLACK
6
CONTINUOUS
10
147.73402999999999
20
-105.4743289999999973
11
147.7882229999999879
21
-105.3932229999999919
0
LINE
8
BLACK
6
CONTINUOUS
10
147.7882229999999879
20
-105.3932229999999919
11
147.8693289999999934
21
-105.3390299999999939
0
LINE
8
BLACK
6
CONTINUOUS
10
147.8693289999999934
20
-105.3390299999999939
11
147.9650000000000034
21
-105.3199999999999932
0
LINE
8
BLACK
6
CONTINUOUS
10
147.9650000000000034
20
-105.3199999999999932
11
149.2150000000000034
21
-105.3199999999999932
0
LINE
8
BLACK
6
CONTINUOUS
10
149.2150000000000034
20
-105.3199999999999932
11
149.310670999999985
21
-105.3390299999999939
0
LINE
8
BLACK
6
CONTINUOUS
10
153.1206709999999873
20
-105.3390299999999939
11
153.2017769999999928
21
-105.3932229999999919
0
LINE
8
BLACK
6
CONTINUOUS
10
153.2017769999999928
20
-105.3932229999999919
11
153.2559699999999907
21
-105.4743289999999973
0
LINE
8
BLACK
6
CONTINUOUS
10
153.2559699999999907
20
-105.4743289999999973
11
153.2750000000000057
21
-105.5699999999999932
0
LINE
8
BLACK
6
CONTINUOUS
10
153.2750000000000057
20
-105.5699999999999932
11
153.2750000000000057
21
-106.3699999999999903
0
LINE
8
BLACK
6
CONTINUOUS
10
153.2750000000000057
20
-106.3699999999999903
11
153.2559699999999907
21
-106.4656710000000004
0
LINE
8
BLACK
6
CONTINUOUS
10
153.2559699999999907
20
-106.4656710000000004
11
153.2017769999999928
21
-106.5467769999999916
0
LINE
8
BLACK
6
CONTINUOUS
10
153.2017769999999928
20
-106.5467769999999916
11
153.1206709999999873
21
-106.6009699999999896
0
LINE
8
BLACK
6
CONTINUOUS
10
153.1206709999999873
20
-106.6009699999999896
11
153.0250000000000057
21
-106.6199999999999903
0
LINE
8
BLACK
6
CONTINUOUS
10
153.0250000000000057
20
-106.6199999999999903
11
151.7750000000000057
21
-106.6199999999999903
0
LINE
8
BLACK
6
CONTINUOUS
10
151.7750000000000057
20
-106.6199999999999903
11
151.6793289999999956
21
-106.6009699999999896
0
LINE
8
BLACK
6
CONTINUOUS
10
151.6793289999999956
20
-106.6009699999999896
11
151.5982229999999902
21
-106.5467769999999916
0
LINE
8
BLACK
6
CONTINUOUS
10
151.5982229999999902
20
-106.5467769999999916
11
151.5440299999999922
21
-106.4656710000000004
0
LINE
8
BLACK
6
CONTINUOUS
10
151.5440299999999922
20
-106.4656710000000004
11
151.5250000000000057
21
-106.3699999999999903
0
LINE
8
BLACK
6
CONTINUOUS
10
151.5250000000000057
20
-106.3699999999999903
11
151.5250000000000057
21
-105.5699999999999932
0
LINE
8
BLACK
6
CONTINUOUS
10
151.5250000000000057
20
-105.5699999999999932
11
151.5440299999999922
21
-105.4743289999999973
0
LINE
8
BLACK
6
CONTINUOUS
10
151.5440299999999922
20
-105.4743289999999973
11
151.5982229999999902
21
-105.3932229999999919
0
LINE
8
BLACK
6
CONTINUOUS
10
151.5982229999999902
20
-105.3932229999999919
11
151.6793289999999956
21
-105.3390299999999939
0
LINE
8
BLACK
6
CONTINUOUS
10
151.6793289999999956
20
-105.3390299999999939
11
151.7750000000000057
21
-105.3199999999999932
0
LINE
8
BLACK
6
CONTINUOUS
10
151.7750000000000057
20
-105.3199999999999932
11
153.0250000000000057
21
-105.3199999999999932
0
LINE
8
BLACK
6
CONTINUOUS
10
153.0250000000000057
20
-105.3199999999999932
11
153.1206709999999873
21
-105.3390299999999939
0
LINE
8
BLACK
6
CONTINUOUS
10
126.4506709999999998
20
-103.7890299999999968
11
126.5317769999999911
21
-103.8432229999999947
0
LINE
8
BLACK
6
CONTINUOUS
10
126.5317769999999911
20
-103.8432229999999947
11
126.585969999999989
21
-103.9243290000000002
0
LINE
8
BLACK
6
CONTINUOUS
10
126.585969999999989
20
-103.9243290000000002
11
126.6049999999999898
21
-104.019999999999996
0
LINE
8
BLACK
6
CONTINUOUS
10
126.6049999999999898
20
-104.019999999999996
11
126.6049999999999898
21
-104.8199999999999932
0
LINE
8
BLACK
6
CONTINUOUS
10
126.6049999999999898
20
-104.8199999999999932
11
126.585969999999989
21
-104.915670999999989
0
LINE
8
BLACK
6
CONTINUOUS
10
126.585969999999989
20
-104.915670999999989
11
126.5317769999999911
21
-104.9967769999999945
0
LINE
8
BLACK
6
CONTINUOUS
10
126.5317769999999911
20
-104.9967769999999945
11
126.4506709999999998
21
-105.0509699999999924
0
LINE
8
BLACK
6
CONTINUOUS
10
126.4506709999999998
20
-105.0509699999999924
11
126.3549999999999898
21
-105.0699999999999932
0
LINE
8
BLACK
6
CONTINUOUS
10
126.3549999999999898
20
-105.0699999999999932
11
125.1049999999999898
21
-105.0699999999999932
0
LINE
8
BLACK
6
CONTINUOUS
10
125.1049999999999898
20
-105.0699999999999932
11
125.0093289999999939
21
-105.0509699999999924
0
LINE
8
BLACK
6
CONTINUOUS
10
125.0093289999999939
20
-105.0509699999999924
11
124.9282229999999885
21
-104.9967769999999945
0
LINE
8
BLACK
6
CONTINUOUS
10
124.9282229999999885
20
-104.9967769999999945
11
124.8740299999999905
21
-104.915670999999989
0
LINE
8
BLACK
6
CONTINUOUS
10
124.8740299999999905
20
-104.915670999999989
11
124.8549999999999898
21
-104.8199999999999932
0
LINE
8
BLACK
6
CONTINUOUS
10
124.8549999999999898
20
-104.8199999999999932
11
124.8549999999999898
21
-104.019999999999996
0
LINE
8
BLACK
6
CONTINUOUS
10
124.8549999999999898
20
-104.019999999999996
11
124.8740299999999905
21
-103.9243290000000002
0
LINE
8
BLACK
6
CONTINUOUS
10
124.8740299999999905
20
-103.9243290000000002
11
124.9282229999999885
21
-103.8432229999999947
0
LINE
8
BLACK
6
CONTINUOUS
10
124.9282229999999885
20
-103.8432229999999947
11
125.0093289999999939
21
-103.7890299999999968
0
LINE
8
BLACK
6
CONTINUOUS
10
125.0093289999999939
20
-103.7890299999999968
11
125.1049999999999898
21
-103.769999999999996
0
LINE
8
BLACK
6
CONTINUOUS
10
125.1049999999999898
20
-103.769999999999996
11
126.3549999999999898
21
-103.769999999999996
0
LINE
8
BLACK
6
CONTINUOUS
10
126.3549999999999898
20
-103.769999999999996
11
126.4506709999999998
21
-103.7890299999999968
0
LINE
8
BLACK
6
CONTINUOUS
10
119.875670999999997
20
-103.2840300000000013
11
119.9567769999999882
21
-103.3382229999999993
0
LINE
8
BLACK
6
CONTINUOUS
10
119.9567769999999882
20
-103.3382229999999993
11
120.0109700000000004
21
-103.4193289999999905
0
LINE
8
BLACK
6
CONTINUOUS
10
120.0109700000000004
20
-103.4193289999999905
11
120.0300000000000011
21
-103.5150000000000006
0
LINE
8
BLACK
6
CONTINUOUS
10
120.0300000000000011
20
-103.5150000000000006
11
120.0300000000000011
21
-104.7650000000000006
0
LINE
8
BLACK
6
CONTINUOUS
10
120.0300000000000011
20
-104.7650000000000006
11
120.0109700000000004
21
-104.8606709999999964
0
LINE
8
BLACK
6
CONTINUOUS
10
120.0109700000000004
20
-104.8606709999999964
11
119.9567769999999882
21
-104.9417770000000019
0
LINE
8
BLACK
6
CONTINUOUS
10
119.9567769999999882
20
-104.9417770000000019
11
119.875670999999997
21
-104.9959699999999998
0
LINE
8
BLACK
6
CONTINUOUS
10
119.875670999999997
20
-104.9959699999999998
11
119.7800000000000011
21
-105.0150000000000006
0
LINE
8
BLACK
6
CONTINUOUS
10
119.7800000000000011
20
-105.0150000000000006
11
118.9799999999999898
21
-105.0150000000000006
0
LINE
8
BLACK
6
CONTINUOUS
10
118.9799999999999898
20
-105.0150000000000006
11
118.8843289999999939
21
-104.9959699999999998
0
LINE
8
BLACK
6
CONTINUOUS
10
118.8843289999999939
20
-104.9959699999999998
11
118.8032229999999885
21
-104.9417770000000019
0
LINE
8
BLACK
6
CONTINUOUS
10
118.8032229999999885
20
-104.9417770000000019
11
118.7490299999999905
21
-104.8606709999999964
0
LINE
8
BLACK
6
CONTINUOUS
10
118.7490299999999905
20
-104.8606709999999964
11
118.7299999999999898
21
-104.7650000000000006
0
LINE
8
BLACK
6
CONTINUOUS
10
118.7299999999999898
20
-104.7650000000000006
11
118.7299999999999898
21
-103.5150000000000006
0
LINE
8
BLACK
6
CONTINUOUS
10
118.7299999999999898
20
-103.5150000000000006
11
118.7490299999999905
21
-103.4193289999999905
0
LINE
8
BLACK
6
CONTINUOUS
10
118.7490299999999905
20
-103.4193289999999905
11
118.8032229999999885
21
-103.3382229999999993
0
LINE
8
BLACK
6
CONTINUOUS
10
118.8032229999999885
20
-103.3382229999999993
11
118.8843289999999939
21
-103.2840300000000013
0
LINE
8
BLACK
6
CONTINUOUS
10
118.8843289999999939
20
-103.2840300000000013
11
118.9799999999999898
21
-103.2650000000000006
0
LINE
8
BLACK
6
CONTINUOUS
10
118.9799999999999898
20
-103.2650000000000006
11
119.7800000000000011
21
-103.2650000000000006
0
LINE
8
BLACK
6
CONTINUOUS
10
119.7800000000000011
20
-103.2650000000000006
11
119.875670999999997
21
-103.2840300000000013
0
LINE
8
BLACK
6
CONTINUOUS
10
122.9756709999999913
20
-103.2840300000000013
11
123.0567769999999967
21
-103.3382229999999993
0
LINE
8
BLACK
6
CONTINUOUS
10
123.0567769999999967
20
-103.3382229999999993
11
123.1109699999999947
21
-103.4193289999999905
0
LINE
8
BLACK
6
CONTINUOUS
10
123.1109699999999947
20
-103.4193289999999905
11
123.1299999999999955
21
-103.5150000000000006
0
LINE
8
BLACK
6
CONTINUOUS
10
123.1299999999999955
20
-103.5150000000000006
11
123.1299999999999955
21
-104.7650000000000006
0
LINE
8
BLACK
6
CONTINUOUS
10
123.1299999999999955
20
-104.7650000000000006
11
123.1109699999999947
21
-104.8606709999999964
0
LINE
8
BLACK
6
CONTINUOUS
10
123.1109699999999947
20
-104.8606709999999964
11
123.0567769999999967
21
-104.9417770000000019
0
LINE
8
BLACK
6
CONTINUOUS
10
123.0567769999999967
20
-104.9417770000000019
11
122.9756709999999913
21
-104.9959699999999998
0
LINE
8
BLACK
6
CONTINUOUS
10
122.9756709999999913
20
-104.9959699999999998
11
122.8799999999999955
21
-105.0150000000000006
0
LINE
8
BLACK
6
CONTINUOUS
10
122.8799999999999955
20
-105.0150000000000006
11
122.0799999999999983
21
-105.0150000000000006
0
LINE
8
BLACK
6
CONTINUOUS
10
122.0799999999999983
20
-105.0150000000000006
11
121.9843289999999882
21
-104.9959699999999998
0
LINE
8
BLACK
6
CONTINUOUS
10
121.9843289999999882
20
-104.9959699999999998
11
121.903222999999997
21
-104.9417770000000019
0
LINE
8
BLACK
6
CONTINUOUS
10
121.903222999999997
20
-104.9417770000000019
11
121.8490299999999991
21
-104.8606709999999964
0
LINE
8
BLACK
6
CONTINUOUS
10
121.8490299999999991
20
-104.8606709999999964
11
121.8299999999999983
21
-104.7650000000000006
0
LINE
8
BLACK
6
CONTINUOUS
10
121.8299999999999983
20
-104.7650000000000006
11
121.8299999999999983
21
-103.5150000000000006
0
LINE
8
BLACK
6
CONTINUOUS
10
121.8299999999999983
20
-103.5150000000000006
11
121.8490299999999991
21
-103.4193289999999905
0
LINE
8
BLACK
6
CONTINUOUS
10
121.8490299999999991
20
-103.4193289999999905
11
121.903222999999997
21
-103.3382229999999993
0
LINE
8
BLACK
6
CONTINUOUS
10
121.903222999999997
20
-103.3382229999999993
11
121.9843289999999882
21
-103.2840300000000013
0
LINE
8
BLACK
6
CONTINUOUS
10
121.9843289999999882
20
-103.2840300000000013
11
122.0799999999999983
21
-103.2650000000000006
0
LINE
8
BLACK
6
CONTINUOUS
10
122.0799999999999983
20
-103.2650000000000006
11
122.8799999999999955
21
-103.2650000000000006
0
LINE
8
BLACK
6
CONTINUOUS
10
122.8799999999999955
20
-103.2650000000000006
11
122.9756709999999913
21
-103.2840300000000013
0
LINE
8
BLACK
6
CONTINUOUS
10
159.2456709999999873
20
-103.2840300000000013
11
159.3267769999999928
21
-103.3382229999999993
0
LINE
8
BLACK
6
CONTINUOUS
10
159.3267769999999928
20
-103.3382229999999993
11
159.3809699999999907
21
-103.4193289999999905
0
LINE
8
BLACK
6
CONTINUOUS
10
159.3809699999999907
20
-103.4193289999999905
11
159.4000000000000057
21
-103.5150000000000006
0
LINE
8
BLACK
6
CONTINUOUS
10
159.4000000000000057
20
-103.5150000000000006
11
159.4000000000000057
21
-104.7650000000000006
0
LINE
8
BLACK
6
CONTINUOUS
10
159.4000000000000057
20
-104.7650000000000006
11
159.3809699999999907
21
-104.8606709999999964
0
LINE
8
BLACK
6
CONTINUOUS
10
159.3809699999999907
20
-104.8606709999999964
11
159.3267769999999928
21
-104.9417770000000019
0
LINE
8
BLACK
6
CONTINUOUS
10
159.3267769999999928
20
-104.9417770000000019
11
159.2456709999999873
21
-104.9959699999999998
0
LINE
8
BLACK
6
CONTINUOUS
10
159.2456709999999873
20
-104.9959699999999998
11
159.1500000000000057
21
-105.0150000000000006
0
LINE
8
BLACK
6
CONTINUOUS
10
159.1500000000000057
20
-105.0150000000000006
11
158.3499999999999943
21
-105.0150000000000006
0
LINE
8
BLACK
6
CONTINUOUS
10
158.3499999999999943
20
-105.0150000000000006
11
158.2543289999999843
21
-104.9959699999999998
0
LINE
8
BLACK
6
CONTINUOUS
10
158.2543289999999843
20
-104.9959699999999998
11
158.1732229999999788
21
-104.9417770000000019
0
LINE
8
BLACK
6
CONTINUOUS
10
158.1732229999999788
20
-104.9417770000000019
11
158.1190299999999809
21
-104.8606709999999964
0
LINE
8
BLACK
6
CONTINUOUS
10
158.1190299999999809
20
-104.8606709999999964
11
158.0999999999999943
21
-104.7650000000000006
0
LINE
8
BLACK
6
CONTINUOUS
10
158.0999999999999943
20
-104.7650000000000006
11
158.0999999999999943
21
-103.5150000000000006
0
LINE
8
BLACK
6
CONTINUOUS
10
158.0999999999999943
20
-103.5150000000000006
11
158.1190299999999809
21
-103.4193289999999905
0
LINE
8
BLACK
6
CONTINUOUS
10
158.1190299999999809
20
-103.4193289999999905
11
158.1732229999999788
21
-103.3382229999999993
0
LINE
8
BLACK
6
CONTINUOUS
10
158.1732229999999788
20
-103.3382229999999993
11
158.2543289999999843
21
-103.2840300000000013
0
LINE
8
BLACK
6
CONTINUOUS
10
158.2543289999999843
20
-103.2840300000000013
11
158.3499999999999943
21
-103.2650000000000006
0
LINE
8
BLACK
6
CONTINUOUS
10
158.3499999999999943
20
-103.2650000000000006
11
159.1500000000000057
21
-103.2650000000000006
0
LINE
8
BLACK
6
CONTINUOUS
10
159.1500000000000057
20
-103.2650000000000006
11
159.2456709999999873
21
-103.2840300000000013
0
LINE
8
BLACK
6
CONTINUOUS
10
162.3456709999999816
20
-103.2840300000000013
11
162.4267769999999871
21
-103.3382229999999993
0
LINE
8
BLACK
6
CONTINUOUS
10
162.4267769999999871
20
-103.3382229999999993
11
162.480969999999985
21
-103.4193289999999905
0
LINE
8
BLACK
6
CONTINUOUS
10
162.480969999999985
20
-103.4193289999999905
11
162.5
21
-103.5150000000000006
0
LINE
8
BLACK
6
CONTINUOUS
10
162.5
20
-103.5150000000000006
11
162.5
21
-104.7650000000000006
0
LINE
8
BLACK
6
CONTINUOUS
10
162.5
20
-104.7650000000000006
11
162.480969999999985
21
-104.8606709999999964
0
LINE
8
BLACK
6
CONTINUOUS
10
162.480969999999985
20
-104.8606709999999964
11
162.4267769999999871
21
-104.9417770000000019
0
LINE
8
BLACK
6
CONTINUOUS
10
162.4267769999999871
20
-104.9417770000000019
11
162.3456709999999816
21
-104.9959699999999998
0
LINE
8
BLACK
6
CONTINUOUS
10
162.3456709999999816
20
-104.9959699999999998
11
162.25
21
-105.0150000000000006
0
LINE
8
BLACK
6
CONTINUOUS
10
162.25
20
-105.0150000000000006
11
161.4499999999999886
21
-105.0150000000000006
0
LINE
8
BLACK
6
CONTINUOUS
10
161.4499999999999886
20
-105.0150000000000006
11
161.3543289999999786
21
-104.9959699999999998
0
LINE
8
BLACK
6
CONTINUOUS
10
161.3543289999999786
20
-104.9959699999999998
11
161.2732230000000015
21
-104.9417770000000019
0
LINE
8
BLACK
6
CONTINUOUS
10
161.2732230000000015
20
-104.9417770000000019
11
161.2190300000000036
21
-104.8606709999999964
0
LINE
8
BLACK
6
CONTINUOUS
10
161.2190300000000036
20
-104.8606709999999964
11
161.1999999999999886
21
-104.7650000000000006
0
LINE
8
BLACK
6
CONTINUOUS
10
161.1999999999999886
20
-104.7650000000000006
11
161.1999999999999886
21
-103.5150000000000006
0
LINE
8
BLACK
6
CONTINUOUS
10
161.1999999999999886
20
-103.5150000000000006
11
161.2190300000000036
21
-103.4193289999999905
0
LINE
8
BLACK
6
CONTINUOUS
10
161.2190300000000036
20
-103.4193289999999905
11
161.2732230000000015
21
-103.3382229999999993
0
LINE
8
BLACK
6
CONTINUOUS
10
161.2732230000000015
20
-103.3382229999999993
11
161.3543289999999786
21
-103.2840300000000013
0
LINE
8
BLACK
6
CONTINUOUS
10
161.3543289999999786
20
-103.2840300000000013
11
161.4499999999999886
21
-103.2650000000000006
0
LINE
8
BLACK
6
CONTINUOUS
10
161.4499999999999886
20
-103.2650000000000006
11
162.25
21
-103.2650000000000006
0
LINE
8
BLACK
6
CONTINUOUS
10
162.25
20
-103.2650000000000006
11
162.3456709999999816
21
-103.2840300000000013
0
LINE
8
BLACK
6
CONTINUOUS
10
115.9906709999999919
20
-103.4590299999999985
11
116.0717769999999973
21
-103.5132229999999964
0
LINE
8
BLACK
6
CONTINUOUS
10
116.0717769999999973
20
-103.5132229999999964
11
116.1259699999999953
21
-103.5943290000000019
0
LINE
8
BLACK
6
CONTINUOUS
10
116.1259699999999953
20
-103.5943290000000019
11
116.144999999999996
21
-103.6899999999999977
0
LINE
8
BLACK
6
CONTINUOUS
10
116.144999999999996
20
-103.6899999999999977
11
116.144999999999996
21
-104.5899999999999892
0
LINE
8
BLACK
6
CONTINUOUS
10
116.144999999999996
20
-104.5899999999999892
11
116.1259699999999953
21
-104.6856709999999993
0
LINE
8
BLACK
6
CONTINUOUS
10
116.1259699999999953
20
-104.6856709999999993
11
116.0717769999999973
21
-104.7667769999999905
0
LINE
8
BLACK
6
CONTINUOUS
10
116.0717769999999973
20
-104.7667769999999905
11
115.9906709999999919
21
-104.8209699999999884
0
LINE
8
BLACK
6
CONTINUOUS
10
115.9906709999999919
20
-104.8209699999999884
11
115.894999999999996
21
-104.8399999999999892
0
LINE
8
BLACK
6
CONTINUOUS
10
115.894999999999996
20
-104.8399999999999892
11
115.2449999999999903
21
-104.8399999999999892
0
LINE
8
BLACK
6
CONTINUOUS
10
115.2449999999999903
20
-104.8399999999999892
11
115.1493289999999945
21
-104.8209699999999884
0
LINE
8
BLACK
6
CONTINUOUS
10
115.1493289999999945
20
-104.8209699999999884
11
115.068222999999989
21
-104.7667769999999905
0
LINE
8
BLACK
6
CONTINUOUS
10
115.068222999999989
20
-104.7667769999999905
11
115.0140299999999911
21
-104.6856709999999993
0
LINE
8
BLACK
6
CONTINUOUS
10
115.0140299999999911
20
-104.6856709999999993
11
114.9949999999999903
21
-104.5899999999999892
0
LINE
8
BLACK
6
CONTINUOUS
10
114.9949999999999903
20
-104.5899999999999892
11
114.9949999999999903
21
-103.6899999999999977
0
LINE
8
BLACK
6
CONTINUOUS
10
114.9949999999999903
20
-103.6899999999999977
11
115.0140299999999911
21
-103.5943290000000019
0
LINE
8
BLACK
6
CONTINUOUS
10
115.0140299999999911
20
-103.5943290000000019
11
115.068222999999989
21
-103.5132229999999964
0
LINE
8
BLACK
6
CONTINUOUS
10
115.068222999999989
20
-103.5132229999999964
11
115.1493289999999945
21
-103.4590299999999985
0
LINE
8
BLACK
6
CONTINUOUS
10
115.1493289999999945
20
-103.4590299999999985
11
115.2449999999999903
21
-103.4399999999999977
0
LINE
8
BLACK
6
CONTINUOUS
10
115.2449999999999903
20
-103.4399999999999977
11
115.894999999999996
21
-103.4399999999999977
0
LINE
8
BLACK
6
CONTINUOUS
10
115.894999999999996
20
-103.4399999999999977
11
115.9906709999999919
21
-103.4590299999999985
0
LINE
8
BLACK
6
CONTINUOUS
10
118.040670999999989
20
-103.4590299999999985
11
118.1217769999999945
21
-103.5132229999999964
0
LINE
8
BLACK
6
CONTINUOUS
10
118.1217769999999945
20
-103.5132229999999964
11
118.1759699999999924
21
-103.5943290000000019
0
LINE
8
BLACK
6
CONTINUOUS
10
118.1759699999999924
20
-103.5943290000000019
11
118.1949999999999932
21
-103.6899999999999977
0
LINE
8
BLACK
6
CONTINUOUS
10
118.1949999999999932
20
-103.6899999999999977
11
118.1949999999999932
21
-104.5899999999999892
0
LINE
8
BLACK
6
CONTINUOUS
10
118.1949999999999932
20
-104.5899999999999892
11
118.1759699999999924
21
-104.6856709999999993
0
LINE
8
BLACK
6
CONTINUOUS
10
118.1759699999999924
20
-104.6856709999999993
11
118.1217769999999945
21
-104.7667769999999905
0
LINE
8
BLACK
6
CONTINUOUS
10
118.1217769999999945
20
-104.7667769999999905
11
118.040670999999989
21
-104.8209699999999884
0
LINE
8
BLACK
6
CONTINUOUS
10
118.040670999999989
20
-104.8209699999999884
11
117.9449999999999932
21
-104.8399999999999892
0
LINE
8
BLACK
6
CONTINUOUS
10
117.9449999999999932
20
-104.8399999999999892
11
117.2950000000000017
21
-104.8399999999999892
0
LINE
8
BLACK
6
CONTINUOUS
10
117.2950000000000017
20
-104.8399999999999892
11
117.1993289999999917
21
-104.8209699999999884
0
LINE
8
BLACK
6
CONTINUOUS
10
117.1993289999999917
20
-104.8209699999999884
11
117.1182230000000004
21
-104.7667769999999905
0
LINE
8
BLACK
6
CONTINUOUS
10
117.1182230000000004
20
-104.7667769999999905
11
117.0640299999999883
21
-104.6856709999999993
0
LINE
8
BLACK
6
CONTINUOUS
10
117.0640299999999883
20
-104.6856709999999993
11
117.0450000000000017
21
-104.5899999999999892
0
LINE
8
BLACK
6
CONTINUOUS
10
117.0450000000000017
20
-104.5899999999999892
11
117.0450000000000017
21
-103.6899999999999977
0
LINE
8
BLACK
6
CONTINUOUS
10
117.0450000000000017
20
-103.6899999999999977
11
117.0640299999999883
21
-103.5943290000000019
0
LINE
8
BLACK
6
CONTINUOUS
10
117.0640299999999883
20
-103.5943290000000019
11
117.1182230000000004
21
-103.5132229999999964
0
LINE
8
BLACK
6
CONTINUOUS
10
117.1182230000000004
20
-103.5132229999999964
11
117.1993289999999917
21
-103.4590299999999985
0
LINE
8
BLACK
6
CONTINUOUS
10
117.1993289999999917
20
-103.4590299999999985
11
117.2950000000000017
21
-103.4399999999999977
0
LINE
8
BLACK
6
CONTINUOUS
10
117.2950000000000017
20
-103.4399999999999977
11
117.9449999999999932
21
-103.4399999999999977
0
LINE
8
BLACK
6
CONTINUOUS
10
117.9449999999999932
20
-103.4399999999999977
11
118.040670999999989
21
-103.4590299999999985
0
LINE
8
BLACK
6
CONTINUOUS
10
128.8406709999999862
20
-103.3390299999999939
11
128.9217769999999916
21
-103.3932229999999919
0
LINE
8
BLACK
6
CONTINUOUS
10
128.9217769999999916
20
-103.3932229999999919
11
128.9759699999999896
21
-103.4743289999999973
0
LINE
8
BLACK
6
CONTINUOUS
10
128.9759699999999896
20
-103.4743289999999973
11
128.9950000000000045
21
-103.5699999999999932
0
LINE
8
BLACK
6
CONTINUOUS
10
128.9950000000000045
20
-103.5699999999999932
11
128.9950000000000045
21
-104.2449999999999903
0
LINE
8
BLACK
6
CONTINUOUS
10
128.9950000000000045
20
-104.2449999999999903
11
128.9759699999999896
21
-104.3406710000000004
0
LINE
8
BLACK
6
CONTINUOUS
10
128.9759699999999896
20
-104.3406710000000004
11
128.9217769999999916
21
-104.4217769999999916
0
LINE
8
BLACK
6
CONTINUOUS
10
128.9217769999999916
20
-104.4217769999999916
11
128.8406709999999862
21
-104.4759699999999896
0
LINE
8
BLACK
6
CONTINUOUS
10
128.8406709999999862
20
-104.4759699999999896
11
128.7450000000000045
21
-104.4949999999999903
0
LINE
8
BLACK
6
CONTINUOUS
10
128.7450000000000045
20
-104.4949999999999903
11
127.7949999999999875
21
-104.4949999999999903
0
LINE
8
BLACK
6
CONTINUOUS
10
127.7949999999999875
20
-104.4949999999999903
11
127.6993289999999917
21
-104.4759699999999896
0
LINE
8
BLACK
6
CONTINUOUS
10
127.6993289999999917
20
-104.4759699999999896
11
127.6182230000000004
21
-104.4217769999999916
0
LINE
8
BLACK
6
CONTINUOUS
10
127.6182230000000004
20
-104.4217769999999916
11
127.5640299999999883
21
-104.3406710000000004
0
LINE
8
BLACK
6
CONTINUOUS
10
127.5640299999999883
20
-104.3406710000000004
11
127.5449999999999875
21
-104.2449999999999903
0
LINE
8
BLACK
6
CONTINUOUS
10
127.5449999999999875
20
-104.2449999999999903
11
127.5449999999999875
21
-103.5699999999999932
0
LINE
8
BLACK
6
CONTINUOUS
10
127.5449999999999875
20
-103.5699999999999932
11
127.5640299999999883
21
-103.4743289999999973
0
LINE
8
BLACK
6
CONTINUOUS
10
127.5640299999999883
20
-103.4743289999999973
11
127.6182230000000004
21
-103.3932229999999919
0
LINE
8
BLACK
6
CONTINUOUS
10
127.6182230000000004
20
-103.3932229999999919
11
127.6993289999999917
21
-103.3390299999999939
0
LINE
8
BLACK
6
CONTINUOUS
10
127.6993289999999917
20
-103.3390299999999939
11
127.7949999999999875
21
-103.3199999999999932
0
LINE
8
BLACK
6
CONTINUOUS
10
127.7949999999999875
20
-103.3199999999999932
11
128.7450000000000045
21
-103.3199999999999932
0
LINE
8
BLACK
6
CONTINUOUS
10
128.7450000000000045
20
-103.3199999999999932
11
128.8406709999999862
21
-103.3390299999999939
0
LINE
8
BLACK
6
CONTINUOUS
10
134.1924029999999846
20
-102.4764179999999953
11
134.2410659999999893
21
-102.5089339999999964
0
LINE
8
BLACK
6
CONTINUOUS
10
134.2410659999999893
20
-102.5089339999999964
11
134.2735820000000047
21
-102.5575970000000012
0
LINE
8
BLACK
6
CONTINUOUS
10
134.2735820000000047
20
-102.5575970000000012
11
134.2849999999999966
21
-102.6149999999999949
0
LINE
8
BLACK
6
CONTINUOUS
10
134.2849999999999966
20
-102.6149999999999949
11
134.2849999999999966
21
-104.2650000000000006
0
LINE
8
BLACK
6
CONTINUOUS
10
134.2849999999999966
20
-104.2650000000000006
11
134.2735820000000047
21
-104.3224029999999942
0
LINE
8
BLACK
6
CONTINUOUS
10
134.2735820000000047
20
-104.3224029999999942
11
134.2410659999999893
21
-104.371065999999999
0
LINE
8
BLACK
6
CONTINUOUS
10
134.2410659999999893
20
-104.371065999999999
11
134.1924029999999846
21
-104.4035820000000001
0
LINE
8
BLACK
6
CONTINUOUS
10
134.1924029999999846
20
-104.4035820000000001
11
134.1349999999999909
21
-104.414999999999992
0
LINE
8
BLACK
6
CONTINUOUS
10
134.1349999999999909
20
-104.414999999999992
11
133.835000000000008
21
-104.414999999999992
0
LINE
8
BLACK
6
CONTINUOUS
10
133.835000000000008
20
-104.414999999999992
11
133.7775969999999859
21
-104.4035820000000001
0
LINE
8
BLACK
6
CONTINUOUS
10
133.7775969999999859
20
-104.4035820000000001
11
133.7289339999999811
21
-104.371065999999999
0
LINE
8
BLACK
6
CONTINUOUS
10
133.7289339999999811
20
-104.371065999999999
11
133.6964179999999942
21
-104.3224029999999942
0
LINE
8
BLACK
6
CONTINUOUS
10
133.6964179999999942
20
-104.3224029999999942
11
133.6850000000000023
21
-104.2650000000000006
0
LINE
8
BLACK
6
CONTINUOUS
10
133.6850000000000023
20
-104.2650000000000006
11
133.6850000000000023
21
-102.6149999999999949
0
LINE
8
BLACK
6
CONTINUOUS
10
133.6850000000000023
20
-102.6149999999999949
11
133.6964179999999942
21
-102.5575970000000012
0
LINE
8
BLACK
6
CONTINUOUS
10
133.6964179999999942
20
-102.5575970000000012
11
133.7289339999999811
21
-102.5089339999999964
0
LINE
8
BLACK
6
CONTINUOUS
10
133.7289339999999811
20
-102.5089339999999964
11
133.7775969999999859
21
-102.4764179999999953
0
LINE
8
BLACK
6
CONTINUOUS
10
133.7775969999999859
20
-102.4764179999999953
11
133.835000000000008
21
-102.4649999999999892
0
LINE
8
BLACK
6
CONTINUOUS
10
133.835000000000008
20
-102.4649999999999892
11
134.1349999999999909
21
-102.4649999999999892
0
LINE
8
BLACK
6
CONTINUOUS
10
134.1349999999999909
20
-102.4649999999999892
11
134.1924029999999846
21
-102.4764179999999953
0
LINE
8
BLACK
6
CONTINUOUS
10
135.4624029999999948
20
-102.4764179999999953
11
135.5110659999999996
21
-102.5089339999999964
0
LINE
8
BLACK
6
CONTINUOUS
10
135.5110659999999996
20
-102.5089339999999964
11
135.5435819999999865
21
-102.5575970000000012
0
LINE
8
BLACK
6
CONTINUOUS
10
135.5435819999999865
20
-102.5575970000000012
11
135.5550000000000068
21
-102.6149999999999949
0
LINE
8
BLACK
6
CONTINUOUS
10
135.5550000000000068
20
-102.6149999999999949
11
135.5550000000000068
21
-104.2650000000000006
0
LINE
8
BLACK
6
CONTINUOUS
10
135.5550000000000068
20
-104.2650000000000006
11
135.5435819999999865
21
-104.3224029999999942
0
LINE
8
BLACK
6
CONTINUOUS
10
135.5435819999999865
20
-104.3224029999999942
11
135.5110659999999996
21
-104.371065999999999
0
LINE
8
BLACK
6
CONTINUOUS
10
135.5110659999999996
20
-104.371065999999999
11
135.4624029999999948
21
-104.4035820000000001
0
LINE
8
BLACK
6
CONTINUOUS
10
135.4624029999999948
20
-104.4035820000000001
11
135.4050000000000011
21
-104.414999999999992
0
LINE
8
BLACK
6
CONTINUOUS
10
135.4050000000000011
20
-104.414999999999992
11
135.1049999999999898
21
-104.414999999999992
0
LINE
8
BLACK
6
CONTINUOUS
10
135.1049999999999898
20
-104.414999999999992
11
135.0475969999999961
21
-104.4035820000000001
0
LINE
8
BLACK
6
CONTINUOUS
10
135.0475969999999961
20
-104.4035820000000001
11
134.9989339999999913
21
-104.371065999999999
0
LINE
8
BLACK
6
CONTINUOUS
10
134.9989339999999913
20
-104.371065999999999
11
134.9664180000000044
21
-104.3224029999999942
0
LINE
8
BLACK
6
CONTINUOUS
10
134.9664180000000044
20
-104.3224029999999942
11
134.9549999999999841
21
-104.2650000000000006
0
LINE
8
BLACK
6
CONTINUOUS
10
134.9549999999999841
20
-104.2650000000000006
11
134.9549999999999841
21
-102.6149999999999949
0
LINE
8
BLACK
6
CONTINUOUS
10
134.9549999999999841
20
-102.6149999999999949
11
134.9664180000000044
21
-102.5575970000000012
0
LINE
8
BLACK
6
CONTINUOUS
10
134.9664180000000044
20
-102.5575970000000012
11
134.9989339999999913
21
-102.5089339999999964
0
LINE
8
BLACK
6
CONTINUOUS
10
134.9989339999999913
20
-102.5089339999999964
11
135.0475969999999961
21
-102.4764179999999953
0
LINE
8
BLACK
6
CONTINUOUS
10
135.0475969999999961
20
-102.4764179999999953
11
135.1049999999999898
21
-102.4649999999999892
0
LINE
8
BLACK
6
CONTINUOUS
10
135.1049999999999898
20
-102.4649999999999892
11
135.4050000000000011
21
-102.4649999999999892
0
LINE
8
BLACK
6
CONTINUOUS
10
135.4050000000000011
20
-102.4649999999999892
11
135.4624029999999948
21
-102.4764179999999953
0
LINE
8
BLACK
6
CONTINUOUS
10
136.732403000000005
20
-102.4764179999999953
11
136.7810659999999814
21
-102.5089339999999964
0
LINE
8
BLACK
6
CONTINUOUS
10
136.7810659999999814
20
-102.5089339999999964
11
136.8135819999999967
21
-102.5575970000000012
0
LINE
8
BLACK
6
CONTINUOUS
10
136.8135819999999967
20
-102.5575970000000012
11
136.8249999999999886
21
-102.6149999999999949
0
LINE
8
BLACK
6
CONTINUOUS
10
136.8249999999999886
20
-102.6149999999999949
11
136.8249999999999886
21
-104.2650000000000006
0
LINE
8
BLACK
6
CONTINUOUS
10
136.8249999999999886
20
-104.2650000000000006
11
136.8135819999999967
21
-104.3224029999999942
0
LINE
8
BLACK
6
CONTINUOUS
10
136.8135819999999967
20
-104.3224029999999942
11
136.7810659999999814
21
-104.371065999999999
0
LINE
8
BLACK
6
CONTINUOUS
10
136.7810659999999814
20
-104.371065999999999
11
136.732403000000005
21
-104.4035820000000001
0
LINE
8
BLACK
6
CONTINUOUS
10
136.732403000000005
20
-104.4035820000000001
11
136.6749999999999829
21
-104.414999999999992
0
LINE
8
BLACK
6
CONTINUOUS
10
136.6749999999999829
20
-104.414999999999992
11
136.375
21
-104.414999999999992
0
LINE
8
BLACK
6
CONTINUOUS
10
136.375
20
-104.414999999999992
11
136.3175970000000063
21
-104.4035820000000001
0
LINE
8
BLACK
6
CONTINUOUS
10
136.3175970000000063
20
-104.4035820000000001
11
136.2689340000000016
21
-104.371065999999999
0
LINE
8
BLACK
6
CONTINUOUS
10
136.2689340000000016
20
-104.371065999999999
11
136.2364179999999863
21
-104.3224029999999942
0
LINE
8
BLACK
6
CONTINUOUS
10
136.2364179999999863
20
-104.3224029999999942
11
136.2249999999999943
21
-104.2650000000000006
0
LINE
8
BLACK
6
CONTINUOUS
10
136.2249999999999943
20
-104.2650000000000006
11
136.2249999999999943
21
-102.6149999999999949
0
LINE
8
BLACK
6
CONTINUOUS
10
136.2249999999999943
20
-102.6149999999999949
11
136.2364179999999863
21
-102.5575970000000012
0
LINE
8
BLACK
6
CONTINUOUS
10
136.2364179999999863
20
-102.5575970000000012
11
136.2689340000000016
21
-102.5089339999999964
0
LINE
8
BLACK
6
CONTINUOUS
10
136.2689340000000016
20
-102.5089339999999964
11
136.3175970000000063
21
-102.4764179999999953
0
LINE
8
BLACK
6
CONTINUOUS
10
136.3175970000000063
20
-102.4764179999999953
11
136.375
21
-102.4649999999999892
0
LINE
8
BLACK
6
CONTINUOUS
10
136.375
20
-102.4649999999999892
11
136.6749999999999829
21
-102.4649999999999892
0
LINE
8
BLACK
6
CONTINUOUS
10
136.6749999999999829
20
-102.4649999999999892
11
136.732403000000005
21
-102.4764179999999953
0
LINE
8
BLACK
6
CONTINUOUS
10
138.0024029999999868
20
-102.4764179999999953
11
138.0510659999999916
21
-102.5089339999999964
0
LINE
8
BLACK
6
CONTINUOUS
10
138.0510659999999916
20
-102.5089339999999964
11
138.0835820000000069
21
-102.5575970000000012
0
LINE
8
BLACK
6
CONTINUOUS
10
138.0835820000000069
20
-102.5575970000000012
11
138.0949999999999989
21
-102.6149999999999949
0
LINE
8
BLACK
6
CONTINUOUS
10
138.0949999999999989
20
-102.6149999999999949
11
138.0949999999999989
21
-104.2650000000000006
0
LINE
8
BLACK
6
CONTINUOUS
10
138.0949999999999989
20
-104.2650000000000006
11
138.0835820000000069
21
-104.3224029999999942
0
LINE
8
BLACK
6
CONTINUOUS
10
138.0835820000000069
20
-104.3224029999999942
11
138.0510659999999916
21
-104.371065999999999
0
LINE
8
BLACK
6
CONTINUOUS
10
138.0510659999999916
20
-104.371065999999999
11
138.0024029999999868
21
-104.4035820000000001
0
LINE
8
BLACK
6
CONTINUOUS
10
138.0024029999999868
20
-104.4035820000000001
11
137.9449999999999932
21
-104.414999999999992
0
LINE
8
BLACK
6
CONTINUOUS
10
137.9449999999999932
20
-104.414999999999992
11
137.6449999999999818
21
-104.414999999999992
0
LINE
8
BLACK
6
CONTINUOUS
10
137.6449999999999818
20
-104.414999999999992
11
137.5875969999999882
21
-104.4035820000000001
0
LINE
8
BLACK
6
CONTINUOUS
10
137.5875969999999882
20
-104.4035820000000001
11
137.5389339999999834
21
-104.371065999999999
0
LINE
8
BLACK
6
CONTINUOUS
10
137.5389339999999834
20
-104.371065999999999
11
137.5064179999999965
21
-104.3224029999999942
0
LINE
8
BLACK
6
CONTINUOUS
10
137.5064179999999965
20
-104.3224029999999942
11
137.4950000000000045
21
-104.2650000000000006
0
LINE
8
BLACK
6
CONTINUOUS
10
137.4950000000000045
20
-104.2650000000000006
11
137.4950000000000045
21
-102.6149999999999949
0
LINE
8
BLACK
6
CONTINUOUS
10
137.4950000000000045
20
-102.6149999999999949
11
137.5064179999999965
21
-102.5575970000000012
0
LINE
8
BLACK
6
CONTINUOUS
10
137.5064179999999965
20
-102.5575970000000012
11
137.5389339999999834
21
-102.5089339999999964
0
LINE
8
BLACK
6
CONTINUOUS
10
137.5389339999999834
20
-102.5089339999999964
11
137.5875969999999882
21
-102.4764179999999953
0
LINE
8
BLACK
6
CONTINUOUS
10
137.5875969999999882
20
-102.4764179999999953
11
137.6449999999999818
21
-102.4649999999999892
0
LINE
8
BLACK
6
CONTINUOUS
10
137.6449999999999818
20
-102.4649999999999892
11
137.9449999999999932
21
-102.4649999999999892
0
LINE
8
BLACK
6
CONTINUOUS
10
137.9449999999999932
20
-102.4649999999999892
11
138.0024029999999868
21
-102.4764179999999953
0
LINE
8
BLACK
6
CONTINUOUS
10
139.2724029999999971
20
-102.4764179999999953
11
139.3210660000000018
21
-102.5089339999999964
0
LINE
8
BLACK
6
CONTINUOUS
10
139.3210660000000018
20
-102.5089339999999964
11
139.3535819999999887
21
-102.5575970000000012
0
LINE
8
BLACK
6
CONTINUOUS
10
139.3535819999999887
20
-102.5575970000000012
11
139.3649999999999807
21
-102.6149999999999949
0
LINE
8
BLACK
6
CONTINUOUS
10
139.3649999999999807
20
-102.6149999999999949
11
139.3649999999999807
21
-104.2650000000000006
0
LINE
8
BLACK
6
CONTINUOUS
10
139.3649999999999807
20
-104.2650000000000006
11
139.3535819999999887
21
-104.3224029999999942
0
LINE
8
BLACK
6
CONTINUOUS
10
139.3535819999999887
20
-104.3224029999999942
11
139.3210660000000018
21
-104.371065999999999
0
LINE
8
BLACK
6
CONTINUOUS
10
139.3210660000000018
20
-104.371065999999999
11
139.2724029999999971
21
-104.4035820000000001
0
LINE
8
BLACK
6
CONTINUOUS
10
139.2724029999999971
20
-104.4035820000000001
11
139.2150000000000034
21
-104.414999999999992
0
LINE
8
BLACK
6
CONTINUOUS
10
139.2150000000000034
20
-104.414999999999992
11
138.914999999999992
21
-104.414999999999992
0
LINE
8
BLACK
6
CONTINUOUS
10
138.914999999999992
20
-104.414999999999992
11
138.8575969999999984
21
-104.4035820000000001
0
LINE
8
BLACK
6
CONTINUOUS
10
138.8575969999999984
20
-104.4035820000000001
11
138.8089339999999936
21
-104.371065999999999
0
LINE
8
BLACK
6
CONTINUOUS
10
138.8089339999999936
20
-104.371065999999999
11
138.7764180000000067
21
-104.3224029999999942
0
LINE
8
BLACK
6
CONTINUOUS
10
138.7764180000000067
20
-104.3224029999999942
11
138.7649999999999864
21
-104.2650000000000006
0
LINE
8
BLACK
6
CONTINUOUS
10
138.7649999999999864
20
-104.2650000000000006
11
138.7649999999999864
21
-102.6149999999999949
0
LINE
8
BLACK
6
CONTINUOUS
10
138.7649999999999864
20
-102.6149999999999949
11
138.7764180000000067
21
-102.5575970000000012
0
LINE
8
BLACK
6
CONTINUOUS
10
138.7764180000000067
20
-102.5575970000000012
11
138.8089339999999936
21
-102.5089339999999964
0
LINE
8
BLACK
6
CONTINUOUS
10
138.8089339999999936
20
-102.5089339999999964
11
138.8575969999999984
21
-102.4764179999999953
0
LINE
8
BLACK
6
CONTINUOUS
10
138.8575969999999984
20
-102.4764179999999953
11
138.914999999999992
21
-102.4649999999999892
0
LINE
8
BLACK
6
CONTINUOUS
10
138.914999999999992
20
-102.4649999999999892
11
139.2150000000000034
21
-102.4649999999999892
0
LINE
8
BLACK
6
CONTINUOUS
10
139.2150000000000034
20
-102.4649999999999892
11
139.2724029999999971
21
-102.4764179999999953
0
LINE
8
BLACK
6
CONTINUOUS
10
140.5424030000000073
20
-102.4764179999999953
11
140.5910659999999837
21
-102.5089339999999964
0
LINE
8
BLACK
6
CONTINUOUS
10
140.5910659999999837
20
-102.5089339999999964
11
140.623581999999999
21
-102.5575970000000012
0
LINE
8
BLACK
6
CONTINUOUS
10
140.623581999999999
20
-102.5575970000000012
11
140.6349999999999909
21
-102.6149999999999949
0
LINE
8
BLACK
6
CONTINUOUS
10
140.6349999999999909
20
-102.6149999999999949
11
140.6349999999999909
21
-104.2650000000000006
0
LINE
8
BLACK
6
CONTINUOUS
10
140.6349999999999909
20
-104.2650000000000006
11
140.623581999999999
21
-104.3224029999999942
0
LINE
8
BLACK
6
CONTINUOUS
10
140.623581999999999
20
-104.3224029999999942
11
140.5910659999999837
21
-104.371065999999999
0
LINE
8
BLACK
6
CONTINUOUS
10
140.5910659999999837
20
-104.371065999999999
11
140.5424030000000073
21
-104.4035820000000001
0
LINE
8
BLACK
6
CONTINUOUS
10
140.5424030000000073
20
-104.4035820000000001
11
140.4849999999999852
21
-104.414999999999992
0
LINE
8
BLACK
6
CONTINUOUS
10
140.4849999999999852
20
-104.414999999999992
11
140.1850000000000023
21
-104.414999999999992
0
LINE
8
BLACK
6
CONTINUOUS
10
140.1850000000000023
20
-104.414999999999992
11
140.1275969999999802
21
-104.4035820000000001
0
LINE
8
BLACK
6
CONTINUOUS
10
140.1275969999999802
20
-104.4035820000000001
11
140.0789340000000038
21
-104.371065999999999
0
LINE
8
BLACK
6
CONTINUOUS
10
140.0789340000000038
20
-104.371065999999999
11
140.0464179999999885
21
-104.3224029999999942
0
LINE
8
BLACK
6
CONTINUOUS
10
140.0464179999999885
20
-104.3224029999999942
11
140.0349999999999966
21
-104.2650000000000006
0
LINE
8
BLACK
6
CONTINUOUS
10
140.0349999999999966
20
-104.2650000000000006
11
140.0349999999999966
21
-102.6149999999999949
0
LINE
8
BLACK
6
CONTINUOUS
10
140.0349999999999966
20
-102.6149999999999949
11
140.0464179999999885
21
-102.5575970000000012
0
LINE
8
BLACK
6
CONTINUOUS
10
140.0464179999999885
20
-102.5575970000000012
11
140.0789340000000038
21
-102.5089339999999964
0
LINE
8
BLACK
6
CONTINUOUS
10
140.0789340000000038
20
-102.5089339999999964
11
140.1275969999999802
21
-102.4764179999999953
0
LINE
8
BLACK
6
CONTINUOUS
10
140.1275969999999802
20
-102.4764179999999953
11
140.1850000000000023
21
-102.4649999999999892
0
LINE
8
BLACK
6
CONTINUOUS
10
140.1850000000000023
20
-102.4649999999999892
11
140.4849999999999852
21
-102.4649999999999892
0
LINE
8
BLACK
6
CONTINUOUS
10
140.4849999999999852
20
-102.4649999999999892
11
140.5424030000000073
21
-102.4764179999999953
0
LINE
8
BLACK
6
CONTINUOUS
10
141.8124029999999891
20
-102.4764179999999953
11
141.8610659999999939
21
-102.5089339999999964
0
LINE
8
BLACK
6
CONTINUOUS
10
141.8610659999999939
20
-102.5089339999999964
11
141.8935819999999808
21
-102.5575970000000012
0
LINE
8
BLACK
6
CONTINUOUS
10
141.8935819999999808
20
-102.5575970000000012
11
141.9050000000000011
21
-102.6149999999999949
0
LINE
8
BLACK
6
CONTINUOUS
10
141.9050000000000011
20
-102.6149999999999949
11
141.9050000000000011
21
-104.2650000000000006
0
LINE
8
BLACK
6
CONTINUOUS
10
141.9050000000000011
20
-104.2650000000000006
11
141.8935819999999808
21
-104.3224029999999942
0
LINE
8
BLACK
6
CONTINUOUS
10
141.8935819999999808
20
-104.3224029999999942
11
141.8610659999999939
21
-104.371065999999999
0
LINE
8
BLACK
6
CONTINUOUS
10
141.8610659999999939
20
-104.371065999999999
11
141.8124029999999891
21
-104.4035820000000001
0
LINE
8
BLACK
6
CONTINUOUS
10
141.8124029999999891
20
-104.4035820000000001
11
141.7549999999999955
21
-104.414999999999992
0
LINE
8
BLACK
6
CONTINUOUS
10
141.7549999999999955
20
-104.414999999999992
11
141.4549999999999841
21
-104.414999999999992
0
LINE
8
BLACK
6
CONTINUOUS
10
141.4549999999999841
20
-104.414999999999992
11
141.3975969999999904
21
-104.4035820000000001
0
LINE
8
BLACK
6
CONTINUOUS
10
141.3975969999999904
20
-104.4035820000000001
11
141.3489339999999856
21
-104.371065999999999
0
LINE
8
BLACK
6
CONTINUOUS
10
141.3489339999999856
20
-104.371065999999999
11
141.3164179999999988
21
-104.3224029999999942
0
LINE
8
BLACK
6
CONTINUOUS
10
141.3164179999999988
20
-104.3224029999999942
11
141.3050000000000068
21
-104.2650000000000006
0
LINE
8
BLACK
6
CONTINUOUS
10
141.3050000000000068
20
-104.2650000000000006
11
141.3050000000000068
21
-102.6149999999999949
0
LINE
8
BLACK
6
CONTINUOUS
10
141.3050000000000068
20
-102.6149999999999949
11
141.3164179999999988
21
-102.5575970000000012
0
LINE
8
BLACK
6
CONTINUOUS
10
141.3164179999999988
20
-102.5575970000000012
11
141.3489339999999856
21
-102.5089339999999964
0
LINE
8
BLACK
6
CONTINUOUS
10
141.3489339999999856
20
-102.5089339999999964
11
141.3975969999999904
21
-102.4764179999999953
0
LINE
8
BLACK
6
CONTINUOUS
10
141.3975969999999904
20
-102.4764179999999953
11
141.4549999999999841
21
-102.4649999999999892
0
LINE
8
BLACK
6
CONTINUOUS
10
141.4549999999999841
20
-102.4649999999999892
11
141.7549999999999955
21
-102.4649999999999892
0
LINE
8
BLACK
6
CONTINUOUS
10
141.7549999999999955
20
-102.4649999999999892
11
141.8124029999999891
21
-102.4764179999999953
0
LINE
8
BLACK
6
CONTINUOUS
10
143.0824029999999993
20
-102.4764179999999953
11
143.1310660000000041
21
-102.5089339999999964
0
LINE
8
BLACK
6
CONTINUOUS
10
143.1310660000000041
20
-102.5089339999999964
11
143.163581999999991
21
-102.5575970000000012
0
LINE
8
BLACK
6
CONTINUOUS
10
143.163581999999991
20
-102.5575970000000012
11
143.1749999999999829
21
-102.6149999999999949
0
LINE
8
BLACK
6
CONTINUOUS
10
143.1749999999999829
20
-102.6149999999999949
11
143.1749999999999829
21
-104.2650000000000006
0
LINE
8
BLACK
6
CONTINUOUS
10
143.1749999999999829
20
-104.2650000000000006
11
143.163581999999991
21
-104.3224029999999942
0
LINE
8
BLACK
6
CONTINUOUS
10
143.163581999999991
20
-104.3224029999999942
11
143.1310660000000041
21
-104.371065999999999
0
LINE
8
BLACK
6
CONTINUOUS
10
143.1310660000000041
20
-104.371065999999999
11
143.0824029999999993
21
-104.4035820000000001
0
LINE
8
BLACK
6
CONTINUOUS
10
143.0824029999999993
20
-104.4035820000000001
11
143.0250000000000057
21
-104.414999999999992
0
LINE
8
BLACK
6
CONTINUOUS
10
143.0250000000000057
20
-104.414999999999992
11
142.7249999999999943
21
-104.414999999999992
0
LINE
8
BLACK
6
CONTINUOUS
10
142.7249999999999943
20
-104.414999999999992
11
142.6675970000000007
21
-104.4035820000000001
0
LINE
8
BLACK
6
CONTINUOUS
10
142.6675970000000007
20
-104.4035820000000001
11
142.6189339999999959
21
-104.371065999999999
0
LINE
8
BLACK
6
CONTINUOUS
10
142.6189339999999959
20
-104.371065999999999
11
142.5864179999999806
21
-104.3224029999999942
0
LINE
8
BLACK
6
CONTINUOUS
10
142.5864179999999806
20
-104.3224029999999942
11
142.5749999999999886
21
-104.2650000000000006
0
LINE
8
BLACK
6
CONTINUOUS
10
142.5749999999999886
20
-104.2650000000000006
11
142.5749999999999886
21
-102.6149999999999949
0
LINE
8
BLACK
6
CONTINUOUS
10
142.5749999999999886
20
-102.6149999999999949
11
142.5864179999999806
21
-102.5575970000000012
0
LINE
8
BLACK
6
CONTINUOUS
10
142.5864179999999806
20
-102.5575970000000012
11
142.6189339999999959
21
-102.5089339999999964
0
LINE
8
BLACK
6
CONTINUOUS
10
142.6189339999999959
20
-102.5089339999999964
11
142.6675970000000007
21
-102.4764179999999953
0
LINE
8
BLACK
6
CONTINUOUS
10
142.6675970000000007
20
-102.4764179999999953
11
142.7249999999999943
21
-102.4649999999999892
0
LINE
8
BLACK
6
CONTINUOUS
10
142.7249999999999943
20
-102.4649999999999892
11
143.0250000000000057
21
-102.4649999999999892
0
LINE
8
BLACK
6
CONTINUOUS
10
143.0250000000000057
20
-102.4649999999999892
11
143.0824029999999993
21
-102.4764179999999953
0
LINE
8
BLACK
6
CONTINUOUS
10
149.310670999999985
20
-102.2390299999999996
11
149.3917769999999905
21
-102.2932229999999976
0
LINE
8
BLACK
6
CONTINUOUS
10
149.3917769999999905
20
-102.2932229999999976
11
149.4459699999999884
21
-102.3743289999999888
0
LINE
8
BLACK
6
CONTINUOUS
10
149.4459699999999884
20
-102.3743289999999888
11
149.4650000000000034
21
-102.4699999999999989
0
LINE
8
BLACK
6
CONTINUOUS
10
149.4650000000000034
20
-102.4699999999999989
11
149.4650000000000034
21
-103.269999999999996
0
LINE
8
BLACK
6
CONTINUOUS
10
149.4650000000000034
20
-103.269999999999996
11
149.4459699999999884
21
-103.3656709999999919
0
LINE
8
BLACK
6
CONTINUOUS
10
149.4459699999999884
20
-103.3656709999999919
11
149.3917769999999905
21
-103.4467769999999973
0
LINE
8
BLACK
6
CONTINUOUS
10
149.3917769999999905
20
-103.4467769999999973
11
149.310670999999985
21
-103.5009699999999953
0
LINE
8
BLACK
6
CONTINUOUS
10
149.310670999999985
20
-103.5009699999999953
11
149.2150000000000034
21
-103.519999999999996
0
LINE
8
BLACK
6
CONTINUOUS
10
149.2150000000000034
20
-103.519999999999996
11
147.9650000000000034
21
-103.519999999999996
0
LINE
8
BLACK
6
CONTINUOUS
10
147.9650000000000034
20
-103.519999999999996
11
147.8693289999999934
21
-103.5009699999999953
0
LINE
8
BLACK
6
CONTINUOUS
10
147.8693289999999934
20
-103.5009699999999953
11
147.7882229999999879
21
-103.4467769999999973
0
LINE
8
BLACK
6
CONTINUOUS
10
147.7882229999999879
20
-103.4467769999999973
11
147.73402999999999
21
-103.3656709999999919
0
LINE
8
BLACK
6
CONTINUOUS
10
147.73402999999999
20
-103.3656709999999919
11
147.7150000000000034
21
-103.269999999999996
0
LINE
8
BLACK
6
CONTINUOUS
10
147.7150000000000034
20
-103.269999999999996
11
147.7150000000000034
21
-102.4699999999999989
0
LINE
8
BLACK
6
CONTINUOUS
10
147.7150000000000034
20
-102.4699999999999989
11
147.73402999999999
21
-102.3743289999999888
0
LINE
8
BLACK
6
CONTINUOUS
10
147.73402999999999
20
-102.3743289999999888
11
147.7882229999999879
21
-102.2932229999999976
0
LINE
8
BLACK
6
CONTINUOUS
10
147.7882229999999879
20
-102.2932229999999976
11
147.8693289999999934
21
-102.2390299999999996
0
LINE
8
BLACK
6
CONTINUOUS
10
147.8693289999999934
20
-102.2390299999999996
11
147.9650000000000034
21
-102.2199999999999989
0
LINE
8
BLACK
6
CONTINUOUS
10
147.9650000000000034
20
-102.2199999999999989
11
149.2150000000000034
21
-102.2199999999999989
0
LINE
8
BLACK
6
CONTINUOUS
10
149.2150000000000034
20
-102.2199999999999989
11
149.310670999999985
21
-102.2390299999999996
0
LINE
8
BLACK
6
CONTINUOUS
10
153.1206709999999873
20
-102.2390299999999996
11
153.2017769999999928
21
-102.2932229999999976
0
LINE
8
BLACK
6
CONTINUOUS
10
153.2017769999999928
20
-102.2932229999999976
11
153.2559699999999907
21
-102.3743289999999888
0
LINE
8
BLACK
6
CONTINUOUS
10
153.2559699999999907
20
-102.3743289999999888
11
153.2750000000000057
21
-102.4699999999999989
0
LINE
8
BLACK
6
CONTINUOUS
10
153.2750000000000057
20
-102.4699999999999989
11
153.2750000000000057
21
-103.269999999999996
0
LINE
8
BLACK
6
CONTINUOUS
10
153.2750000000000057
20
-103.269999999999996
11
153.2559699999999907
21
-103.3656709999999919
0
LINE
8
BLACK
6
CONTINUOUS
10
153.2559699999999907
20
-103.3656709999999919
11
153.2017769999999928
21
-103.4467769999999973
0
LINE
8
BLACK
6
CONTINUOUS
10
153.2017769999999928
20
-103.4467769999999973
11
153.1206709999999873
21
-103.5009699999999953
0
LINE
8
BLACK
6
CONTINUOUS
10
153.1206709999999873
20
-103.5009699999999953
11
153.0250000000000057
21
-103.519999999999996
0
LINE
8
BLACK
6
CONTINUOUS
10
153.0250000000000057
20
-103.519999999999996
11
151.7750000000000057
21
-103.519999999999996
0
LINE
8
BLACK
6
CONTINUOUS
10
151.7750000000000057
20
-103.519999999999996
11
151.6793289999999956
21
-103.5009699999999953
0
LINE
8
BLACK
6
CONTINUOUS
10
151.6793289999999956
20
-103.5009699999999953
11
151.5982229999999902
21
-103.4467769999999973
0
LINE
8
BLACK
6
CONTINUOUS
10
151.5982229999999902
20
-103.4467769999999973
11
151.5440299999999922
21
-103.3656709999999919
0
LINE
8
BLACK
6
CONTINUOUS
10
151.5440299999999922
20
-103.3656709999999919
11
151.5250000000000057
21
-103.269999999999996
0
LINE
8
BLACK
6
CONTINUOUS
10
151.5250000000000057
20
-103.269999999999996
11
151.5250000000000057
21
-102.4699999999999989
0
LINE
8
BLACK
6
CONTINUOUS
10
151.5250000000000057
20
-102.4699999999999989
11
151.5440299999999922
21
-102.3743289999999888
0
LINE
8
BLACK
6
CONTINUOUS
10
151.5440299999999922
20
-102.3743289999999888
11
151.5982229999999902
21
-102.2932229999999976
0
LINE
8
BLACK
6
CONTINUOUS
10
151.5982229999999902
20
-102.2932229999999976
11
151.6793289999999956
21
-102.2390299999999996
0
LINE
8
BLACK
6
CONTINUOUS
10
151.6793289999999956
20
-102.2390299999999996
11
151.7750000000000057
21
-102.2199999999999989
0
LINE
8
BLACK
6
CONTINUOUS
10
151.7750000000000057
20
-102.2199999999999989
11
153.0250000000000057
21
-102.2199999999999989
0
LINE
8
BLACK
6
CONTINUOUS
10
153.0250000000000057
20
-102.2199999999999989
11
153.1206709999999873
21
-102.2390299999999996
0
LINE
8
BLACK
6
CONTINUOUS
10
156.9306709999999896
20
-101.5290299999999917
11
157.011776999999995
21
-101.5832229999999896
0
LINE
8
BLACK
6
CONTINUOUS
10
157.011776999999995
20
-101.5832229999999896
11
157.065969999999993
21
-101.6643289999999951
0
LINE
8
BLACK
6
CONTINUOUS
10
157.065969999999993
20
-101.6643289999999951
11
157.0849999999999795
21
-101.7599999999999909
0
LINE
8
BLACK
6
CONTINUOUS
10
157.0849999999999795
20
-101.7599999999999909
11
157.0849999999999795
21
-102.5600000000000023
0
LINE
8
BLACK
6
CONTINUOUS
10
157.0849999999999795
20
-102.5600000000000023
11
157.065969999999993
21
-102.6556709999999981
0
LINE
8
BLACK
6
CONTINUOUS
10
157.065969999999993
20
-102.6556709999999981
11
157.011776999999995
21
-102.7367769999999894
0
LINE
8
BLACK
6
CONTINUOUS
10
157.011776999999995
20
-102.7367769999999894
11
156.9306709999999896
21
-102.7909700000000015
0
LINE
8
BLACK
6
CONTINUOUS
10
156.9306709999999896
20
-102.7909700000000015
11
156.8349999999999795
21
-102.8100000000000023
0
LINE
8
BLACK
6
CONTINUOUS
10
156.8349999999999795
20
-102.8100000000000023
11
155.5849999999999795
21
-102.8100000000000023
0
LINE
8
BLACK
6
CONTINUOUS
10
155.5849999999999795
20
-102.8100000000000023
11
155.4893289999999979
21
-102.7909700000000015
0
LINE
8
BLACK
6
CONTINUOUS
10
155.4893289999999979
20
-102.7909700000000015
11
155.4082229999999925
21
-102.7367769999999894
0
LINE
8
BLACK
6
CONTINUOUS
10
155.4082229999999925
20
-102.7367769999999894
11
155.3540299999999945
21
-102.6556709999999981
0
LINE
8
BLACK
6
CONTINUOUS
10
155.3540299999999945
20
-102.6556709999999981
11
155.3349999999999795
21
-102.5600000000000023
0
LINE
8
BLACK
6
CONTINUOUS
10
155.3349999999999795
20
-102.5600000000000023
11
155.3349999999999795
21
-101.7599999999999909
0
LINE
8
BLACK
6
CONTINUOUS
10
155.3349999999999795
20
-101.7599999999999909
11
155.3540299999999945
21
-101.6643289999999951
0
LINE
8
BLACK
6
CONTINUOUS
10
155.3540299999999945
20
-101.6643289999999951
11
155.4082229999999925
21
-101.5832229999999896
0
LINE
8
BLACK
6
CONTINUOUS
10
155.4082229999999925
20
-101.5832229999999896
11
155.4893289999999979
21
-101.5290299999999917
0
LINE
8
BLACK
6
CONTINUOUS
10
155.4893289999999979
20
-101.5290299999999917
11
155.5849999999999795
21
-101.5099999999999909
0
LINE
8
BLACK
6
CONTINUOUS
10
155.5849999999999795
20
-101.5099999999999909
11
156.8349999999999795
21
-101.5099999999999909
0
LINE
8
BLACK
6
CONTINUOUS
10
156.8349999999999795
20
-101.5099999999999909
11
156.9306709999999896
21
-101.5290299999999917
0
LINE
8
BLACK
6
CONTINUOUS
10
128.8406709999999862
20
-101.2640299999999911
11
128.9217769999999916
21
-101.318222999999989
0
LINE
8
BLACK
6
CONTINUOUS
10
128.9217769999999916
20
-101.318222999999989
11
128.9759699999999896
21
-101.3993289999999945
0
LINE
8
BLACK
6
CONTINUOUS
10
128.9759699999999896
20
-101.3993289999999945
11
128.9950000000000045
21
-101.4949999999999903
0
LINE
8
BLACK
6
CONTINUOUS
10
128.9950000000000045
20
-101.4949999999999903
11
128.9950000000000045
21
-102.1700000000000017
0
LINE
8
BLACK
6
CONTINUOUS
10
128.9950000000000045
20
-102.1700000000000017
11
128.9759699999999896
21
-102.2656709999999975
0
LINE
8
BLACK
6
CONTINUOUS
10
128.9759699999999896
20
-102.2656709999999975
11
128.9217769999999916
21
-102.3467769999999888
0
LINE
8
BLACK
6
CONTINUOUS
10
128.9217769999999916
20
-102.3467769999999888
11
128.8406709999999862
21
-102.4009700000000009
0
LINE
8
BLACK
6
CONTINUOUS
10
128.8406709999999862
20
-102.4009700000000009
11
128.7450000000000045
21
-102.4200000000000017
0
LINE
8
BLACK
6
CONTINUOUS
10
128.7450000000000045
20
-102.4200000000000017
11
127.7949999999999875
21
-102.4200000000000017
0
LINE
8
BLACK
6
CONTINUOUS
10
127.7949999999999875
20
-102.4200000000000017
11
127.6993289999999917
21
-102.4009700000000009
0
LINE
8
BLACK
6
CONTINUOUS
10
127.6993289999999917
20
-102.4009700000000009
11
127.6182230000000004
21
-102.3467769999999888
0
LINE
8
BLACK
6
CONTINUOUS
10
127.6182230000000004
20
-102.3467769999999888
11
127.5640299999999883
21
-102.2656709999999975
0
LINE
8
BLACK
6
CONTINUOUS
10
127.5640299999999883
20
-102.2656709999999975
11
127.5449999999999875
21
-102.1700000000000017
0
LINE
8
BLACK
6
CONTINUOUS
10
127.5449999999999875
20
-102.1700000000000017
11
127.5449999999999875
21
-101.4949999999999903
0
LINE
8
BLACK
6
CONTINUOUS
10
127.5449999999999875
20
-101.4949999999999903
11
127.5640299999999883
21
-101.3993289999999945
0
LINE
8
BLACK
6
CONTINUOUS
10
127.5640299999999883
20
-101.3993289999999945
11
127.6182230000000004
21
-101.318222999999989
0
LINE
8
BLACK
6
CONTINUOUS
10
127.6182230000000004
20
-101.318222999999989
11
127.6993289999999917
21
-101.2640299999999911
0
LINE
8
BLACK
6
CONTINUOUS
10
127.6993289999999917
20
-101.2640299999999911
11
127.7949999999999875
21
-101.2449999999999903
0
LINE
8
BLACK
6
CONTINUOUS
10
127.7949999999999875
20
-101.2449999999999903
11
128.7450000000000045
21
-101.2449999999999903
0
LINE
8
BLACK
6
CONTINUOUS
10
128.7450000000000045
20
-101.2449999999999903
11
128.8406709999999862
21
-101.2640299999999911
0
LINE
8
BLACK
6
CONTINUOUS
10
126.4506709999999998
20
-100.6890300000000025
11
126.5317769999999911
21
-100.7432230000000004
0
LINE
8
BLACK
6
CONTINUOUS
10
126.5317769999999911
20
-100.7432230000000004
11
126.585969999999989
21
-100.8243289999999917
0
LINE
8
BLACK
6
CONTINUOUS
10
126.585969999999989
20
-100.8243289999999917
11
126.6049999999999898
21
-100.9200000000000017
0
LINE
8
BLACK
6
CONTINUOUS
10
126.6049999999999898
20
-100.9200000000000017
11
126.6049999999999898
21
-101.7199999999999989
0
LINE
8
BLACK
6
CONTINUOUS
10
126.6049999999999898
20
-101.7199999999999989
11
126.585969999999989
21
-101.8156709999999947
0
LINE
8
BLACK
6
CONTINUOUS
10
126.585969999999989
20
-101.8156709999999947
11
126.5317769999999911
21
-101.8967770000000002
0
LINE
8
BLACK
6
CONTINUOUS
10
126.5317769999999911
20
-101.8967770000000002
11
126.4506709999999998
21
-101.9509699999999981
0
LINE
8
BLACK
6
CONTINUOUS
10
126.4506709999999998
20
-101.9509699999999981
11
126.3549999999999898
21
-101.9699999999999989
0
LINE
8
BLACK
6
CONTINUOUS
10
126.3549999999999898
20
-101.9699999999999989
11
125.1049999999999898
21
-101.9699999999999989
0
LINE
8
BLACK
6
CONTINUOUS
10
125.1049999999999898
20
-101.9699999999999989
11
125.0093289999999939
21
-101.9509699999999981
0
LINE
8
BLACK
6
CONTINUOUS
10
125.0093289999999939
20
-101.9509699999999981
11
124.9282229999999885
21
-101.8967770000000002
0
LINE
8
BLACK
6
CONTINUOUS
10
124.9282229999999885
20
-101.8967770000000002
11
124.8740299999999905
21
-101.8156709999999947
0
LINE
8
BLACK
6
CONTINUOUS
10
124.8740299999999905
20
-101.8156709999999947
11
124.8549999999999898
21
-101.7199999999999989
0
LINE
8
BLACK
6
CONTINUOUS
10
124.8549999999999898
20
-101.7199999999999989
11
124.8549999999999898
21
-100.9200000000000017
0
LINE
8
BLACK
6
CONTINUOUS
10
124.8549999999999898
20
-100.9200000000000017
11
124.8740299999999905
21
-100.8243289999999917
0
LINE
8
BLACK
6
CONTINUOUS
10
124.8740299999999905
20
-100.8243289999999917
11
124.9282229999999885
21
-100.7432230000000004
0
LINE
8
BLACK
6
CONTINUOUS
10
124.9282229999999885
20
-100.7432230000000004
11
125.0093289999999939
21
-100.6890300000000025
0
LINE
8
BLACK
6
CONTINUOUS
10
125.0093289999999939
20
-100.6890300000000025
11
125.1049999999999898
21
-100.6700000000000017
0
LINE
8
BLACK
6
CONTINUOUS
10
125.1049999999999898
20
-100.6700000000000017
11
126.3549999999999898
21
-100.6700000000000017
0
LINE
8
BLACK
6
CONTINUOUS
10
126.3549999999999898
20
-100.6700000000000017
11
126.4506709999999998
21
-100.6890300000000025
0
LINE
8
BLACK
6
CONTINUOUS
10
146.770670999999993
20
-99.9790299999999945
11
146.8517769999999985
21
-100.0332229999999925
0
LINE
8
BLACK
6
CONTINUOUS
10
146.8517769999999985
20
-100.0332229999999925
11
146.9059699999999964
21
-100.1143289999999979
0
LINE
8
BLACK
6
CONTINUOUS
10
146.9059699999999964
20
-100.1143289999999979
11
146.9249999999999829
21
-100.2099999999999937
0
LINE
8
BLACK
6
CONTINUOUS
10
146.9249999999999829
20
-100.2099999999999937
11
146.9249999999999829
21
-101.0099999999999909
0
LINE
8
BLACK
6
CONTINUOUS
10
146.9249999999999829
20
-101.0099999999999909
11
146.9059699999999964
21
-101.105671000000001
0
LINE
8
BLACK
6
CONTINUOUS
10
146.9059699999999964
20
-101.105671000000001
11
146.8517769999999985
21
-101.1867769999999922
0
LINE
8
BLACK
6
CONTINUOUS
10
146.8517769999999985
20
-101.1867769999999922
11
146.770670999999993
21
-101.2409699999999901
0
LINE
8
BLACK
6
CONTINUOUS
10
146.770670999999993
20
-101.2409699999999901
11
146.6749999999999829
21
-101.2599999999999909
0
LINE
8
BLACK
6
CONTINUOUS
10
146.6749999999999829
20
-101.2599999999999909
11
145.4249999999999829
21
-101.2599999999999909
0
LINE
8
BLACK
6
CONTINUOUS
10
145.4249999999999829
20
-101.2599999999999909
11
145.3293290000000013
21
-101.2409699999999901
0
LINE
8
BLACK
6
CONTINUOUS
10
145.3293290000000013
20
-101.2409699999999901
11
145.2482229999999959
21
-101.1867769999999922
0
LINE
8
BLACK
6
CONTINUOUS
10
145.2482229999999959
20
-101.1867769999999922
11
145.1940299999999979
21
-101.105671000000001
0
LINE
8
BLACK
6
CONTINUOUS
10
145.1940299999999979
20
-101.105671000000001
11
145.1749999999999829
21
-101.0099999999999909
0
LINE
8
BLACK
6
CONTINUOUS
10
145.1749999999999829
20
-101.0099999999999909
11
145.1749999999999829
21
-100.2099999999999937
0
LINE
8
BLACK
6
CONTINUOUS
10
145.1749999999999829
20
-100.2099999999999937
11
145.1940299999999979
21
-100.1143289999999979
0
LINE
8
BLACK
6
CONTINUOUS
10
145.1940299999999979
20
-100.1143289999999979
11
145.2482229999999959
21
-100.0332229999999925
0
LINE
8
BLACK
6
CONTINUOUS
10
145.2482229999999959
20
-100.0332229999999925
11
145.3293290000000013
21
-99.9790299999999945
0
LINE
8
BLACK
6
CONTINUOUS
10
145.3293290000000013
20
-99.9790299999999945
11
145.4249999999999829
21
-99.9599999999999937
0
LINE
8
BLACK
6
CONTINUOUS
10
145.4249999999999829
20
-99.9599999999999937
11
146.6749999999999829
21
-99.9599999999999937
0
LINE
8
BLACK
6
CONTINUOUS
10
146.6749999999999829
20
-99.9599999999999937
11
146.770670999999993
21
-99.9790299999999945
0
LINE
8
BLACK
6
CONTINUOUS
10
151.8506710000000055
20
-99.6990299999999934
11
151.9317769999999825
21
-99.7532229999999913
0
LINE
8
BLACK
6
CONTINUOUS
10
151.9317769999999825
20
-99.7532229999999913
11
151.9859699999999805
21
-99.8343289999999968
0
LINE
8
BLACK
6
CONTINUOUS
10
151.9859699999999805
20
-99.8343289999999968
11
152.0049999999999955
21
-99.9299999999999926
0
LINE
8
BLACK
6
CONTINUOUS
10
152.0049999999999955
20
-99.9299999999999926
11
152.0049999999999955
21
-100.7299999999999898
0
LINE
8
BLACK
6
CONTINUOUS
10
152.0049999999999955
20
-100.7299999999999898
11
151.9859699999999805
21
-100.8256709999999998
0
LINE
8
BLACK
6
CONTINUOUS
10
151.9859699999999805
20
-100.8256709999999998
11
151.9317769999999825
21
-100.9067769999999911
0
LINE
8
BLACK
6
CONTINUOUS
10
151.9317769999999825
20
-100.9067769999999911
11
151.8506710000000055
21
-100.960969999999989
0
LINE
8
BLACK
6
CONTINUOUS
10
151.8506710000000055
20
-100.960969999999989
11
151.7549999999999955
21
-100.9799999999999898
0
LINE
8
BLACK
6
CONTINUOUS
10
151.7549999999999955
20
-100.9799999999999898
11
150.5049999999999955
21
-100.9799999999999898
0
LINE
8
BLACK
6
CONTINUOUS
10
150.5049999999999955
20
-100.9799999999999898
11
150.4093289999999854
21
-100.960969999999989
0
LINE
8
BLACK
6
CONTINUOUS
10
150.4093289999999854
20
-100.960969999999989
11
150.3282229999999799
21
-100.9067769999999911
0
LINE
8
BLACK
6
CONTINUOUS
10
150.3282229999999799
20
-100.9067769999999911
11
150.274029999999982
21
-100.8256709999999998
0
LINE
8
BLACK
6
CONTINUOUS
10
150.274029999999982
20
-100.8256709999999998
11
150.2549999999999955
21
-100.7299999999999898
0
LINE
8
BLACK
6
CONTINUOUS
10
150.2549999999999955
20
-100.7299999999999898
11
150.2549999999999955
21
-99.9299999999999926
0
LINE
8
BLACK
6
CONTINUOUS
10
150.2549999999999955
20
-99.9299999999999926
11
150.274029999999982
21
-99.8343289999999968
0
LINE
8
BLACK
6
CONTINUOUS
10
150.274029999999982
20
-99.8343289999999968
11
150.3282229999999799
21
-99.7532229999999913
0
LINE
8
BLACK
6
CONTINUOUS
10
150.3282229999999799
20
-99.7532229999999913
11
150.4093289999999854
21
-99.6990299999999934
0
LINE
8
BLACK
6
CONTINUOUS
10
150.4093289999999854
20
-99.6990299999999934
11
150.5049999999999955
21
-99.6799999999999926
0
LINE
8
BLACK
6
CONTINUOUS
10
150.5049999999999955
20
-99.6799999999999926
11
151.7549999999999955
21
-99.6799999999999926
0
LINE
8
BLACK
6
CONTINUOUS
10
151.7549999999999955
20
-99.6799999999999926
11
151.8506710000000055
21
-99.6990299999999934
0
LINE
8
BLACK
6
CONTINUOUS
10
156.9306709999999896
20
-98.4290299999999974
11
157.011776999999995
21
-98.4832229999999953
0
LINE
8
BLACK
6
CONTINUOUS
10
157.011776999999995
20
-98.4832229999999953
11
157.065969999999993
21
-98.5643290000000007
0
LINE
8
BLACK
6
CONTINUOUS
10
157.065969999999993
20
-98.5643290000000007
11
157.0849999999999795
21
-98.6599999999999966
0
LINE
8
BLACK
6
CONTINUOUS
10
157.0849999999999795
20
-98.6599999999999966
11
157.0849999999999795
21
-99.4599999999999937
0
LINE
8
BLACK
6
CONTINUOUS
10
157.0849999999999795
20
-99.4599999999999937
11
157.065969999999993
21
-99.5556709999999896
0
LINE
8
BLACK
6
CONTINUOUS
10
157.065969999999993
20
-99.5556709999999896
11
157.011776999999995
21
-99.636776999999995
0
LINE
8
BLACK
6
CONTINUOUS
10
157.011776999999995
20
-99.636776999999995
11
156.9306709999999896
21
-99.690969999999993
0
LINE
8
BLACK
6
CONTINUOUS
10
156.9306709999999896
20
-99.690969999999993
11
156.8349999999999795
21
-99.7099999999999937
0
LINE
8
BLACK
6
CONTINUOUS
10
156.8349999999999795
20
-99.7099999999999937
11
155.5849999999999795
21
-99.7099999999999937
0
LINE
8
BLACK
6
CONTINUOUS
10
155.5849999999999795
20
-99.7099999999999937
11
155.4893289999999979
21
-99.690969999999993
0
LINE
8
BLACK
6
CONTINUOUS
10
155.4893289999999979
20
-99.690969999999993
11
155.4082229999999925
21
-99.636776999999995
0
LINE
8
BLACK
6
CONTINUOUS
10
155.4082229999999925
20
-99.636776999999995
11
155.3540299999999945
21
-99.5556709999999896
0
LINE
8
BLACK
6
CONTINUOUS
10
155.3540299999999945
20
-99.5556709999999896
11
155.3349999999999795
21
-99.4599999999999937
0
LINE
8
BLACK
6
CONTINUOUS
10
155.3349999999999795
20
-99.4599999999999937
11
155.3349999999999795
21
-98.6599999999999966
0
LINE
8
BLACK
6
CONTINUOUS
10
155.3349999999999795
20
-98.6599999999999966
11
155.3540299999999945
21
-98.5643290000000007
0
LINE
8
BLACK
6
CONTINUOUS
10
155.3540299999999945
20
-98.5643290000000007
11
155.4082229999999925
21
-98.4832229999999953
0
LINE
8
BLACK
6
CONTINUOUS
10
155.4082229999999925
20
-98.4832229999999953
11
155.4893289999999979
21
-98.4290299999999974
0
LINE
8
BLACK
6
CONTINUOUS
10
155.4893289999999979
20
-98.4290299999999974
11
155.5849999999999795
21
-98.4099999999999966
0
LINE
8
BLACK
6
CONTINUOUS
10
155.5849999999999795
20
-98.4099999999999966
11
156.8349999999999795
21
-98.4099999999999966
0
LINE
8
BLACK
6
CONTINUOUS
10
156.8349999999999795
20
-98.4099999999999966
11
156.9306709999999896
21
-98.4290299999999974
0
LINE
8
BLACK
6
CONTINUOUS
10
134.1924029999999846
20
-97.5264179999999925
11
134.2410659999999893
21
-97.5589339999999936
0
LINE
8
BLACK
6
CONTINUOUS
10
134.2410659999999893
20
-97.5589339999999936
11
134.2735820000000047
21
-97.6075969999999984
0
LINE
8
BLACK
6
CONTINUOUS
10
134.2735820000000047
20
-97.6075969999999984
11
134.2849999999999966
21
-97.664999999999992
0
LINE
8
BLACK
6
CONTINUOUS
10
134.2849999999999966
20
-97.664999999999992
11
134.2849999999999966
21
-99.3149999999999977
0
LINE
8
BLACK
6
CONTINUOUS
10
134.2849999999999966
20
-99.3149999999999977
11
134.2735820000000047
21
-99.3724029999999914
0
LINE
8
BLACK
6
CONTINUOUS
10
134.2735820000000047
20
-99.3724029999999914
11
134.2410659999999893
21
-99.4210659999999962
0
LINE
8
BLACK
6
CONTINUOUS
10
134.2410659999999893
20
-99.4210659999999962
11
134.1924029999999846
21
-99.4535819999999973
0
LINE
8
BLACK
6
CONTINUOUS
10
134.1924029999999846
20
-99.4535819999999973
11
134.1349999999999909
21
-99.4649999999999892
0
LINE
8
BLACK
6
CONTINUOUS
10
134.1349999999999909
20
-99.4649999999999892
11
133.835000000000008
21
-99.4649999999999892
0
LINE
8
BLACK
6
CONTINUOUS
10
133.835000000000008
20
-99.4649999999999892
11
133.7775969999999859
21
-99.4535819999999973
0
LINE
8
BLACK
6
CONTINUOUS
10
133.7775969999999859
20
-99.4535819999999973
11
133.7289339999999811
21
-99.4210659999999962
0
LINE
8
BLACK
6
CONTINUOUS
10
133.7289339999999811
20
-99.4210659999999962
11
133.6964179999999942
21
-99.3724029999999914
0
LINE
8
BLACK
6
CONTINUOUS
10
133.6964179999999942
20
-99.3724029999999914
11
133.6850000000000023
21
-99.3149999999999977
0
LINE
8
BLACK
6
CONTINUOUS
10
133.6850000000000023
20
-99.3149999999999977
11
133.6850000000000023
21
-97.664999999999992
0
LINE
8
BLACK
6
CONTINUOUS
10
133.6850000000000023
20
-97.664999999999992
11
133.6964179999999942
21
-97.6075969999999984
0
LINE
8
BLACK
6
CONTINUOUS
10
133.6964179999999942
20
-97.6075969999999984
11
133.7289339999999811
21
-97.5589339999999936
0
LINE
8
BLACK
6
CONTINUOUS
10
133.7289339999999811
20
-97.5589339999999936
11
133.7775969999999859
21
-97.5264179999999925
0
LINE
8
BLACK
6
CONTINUOUS
10
133.7775969999999859
20
-97.5264179999999925
11
133.835000000000008
21
-97.5150000000000006
0
LINE
8
BLACK
6
CONTINUOUS
10
133.835000000000008
20
-97.5150000000000006
11
134.1349999999999909
21
-97.5150000000000006
0
LINE
8
BLACK
6
CONTINUOUS
10
134.1349999999999909
20
-97.5150000000000006
11
134.1924029999999846
21
-97.5264179999999925
0
LINE
8
BLACK
6
CONTINUOUS
10
135.4624029999999948
20
-97.5264179999999925
11
135.5110659999999996
21
-97.5589339999999936
0
LINE
8
BLACK
6
CONTINUOUS
10
135.5110659999999996
20
-97.5589339999999936
11
135.5435819999999865
21
-97.6075969999999984
0
LINE
8
BLACK
6
CONTINUOUS
10
135.5435819999999865
20
-97.6075969999999984
11
135.5550000000000068
21
-97.664999999999992
0
LINE
8
BLACK
6
CONTINUOUS
10
135.5550000000000068
20
-97.664999999999992
11
135.5550000000000068
21
-99.3149999999999977
0
LINE
8
BLACK
6
CONTINUOUS
10
135.5550000000000068
20
-99.3149999999999977
11
135.5435819999999865
21
-99.3724029999999914
0
LINE
8
BLACK
6
CONTINUOUS
10
135.5435819999999865
20
-99.3724029999999914
11
135.5110659999999996
21
-99.4210659999999962
0
LINE
8
BLACK
6
CONTINUOUS
10
135.5110659999999996
20
-99.4210659999999962
11
135.4624029999999948
21
-99.4535819999999973
0
LINE
8
BLACK
6
CONTINUOUS
10
135.4624029999999948
20
-99.4535819999999973
11
135.4050000000000011
21
-99.4649999999999892
0
LINE
8
BLACK
6
CONTINUOUS
10
135.4050000000000011
20
-99.4649999999999892
11
135.1049999999999898
21
-99.4649999999999892
0
LINE
8
BLACK
6
CONTINUOUS
10
135.1049999999999898
20
-99.4649999999999892
11
135.0475969999999961
21
-99.4535819999999973
0
LINE
8
BLACK
6
CONTINUOUS
10
135.0475969999999961
20
-99.4535819999999973
11
134.9989339999999913
21
-99.4210659999999962
0
LINE
8
BLACK
6
CONTINUOUS
10
134.9989339999999913
20
-99.4210659999999962
11
134.9664180000000044
21
-99.3724029999999914
0
LINE
8
BLACK
6
CONTINUOUS
10
134.9664180000000044
20
-99.3724029999999914
11
134.9549999999999841
21
-99.3149999999999977
0
LINE
8
BLACK
6
CONTINUOUS
10
134.9549999999999841
20
-99.3149999999999977
11
134.9549999999999841
21
-97.664999999999992
0
LINE
8
BLACK
6
CONTINUOUS
10
134.9549999999999841
20
-97.664999999999992
11
134.9664180000000044
21
-97.6075969999999984
0
LINE
8
BLACK
6
CONTINUOUS
10
134.9664180000000044
20
-97.6075969999999984
11
134.9989339999999913
21
-97.5589339999999936
0
LINE
8
BLACK
6
CONTINUOUS
10
134.9989339999999913
20
-97.5589339999999936
11
135.0475969999999961
21
-97.5264179999999925
0
LINE
8
BLACK
6
CONTINUOUS
10
135.0475969999999961
20
-97.5264179999999925
11
135.1049999999999898
21
-97.5150000000000006
0
LINE
8
BLACK
6
CONTINUOUS
10
135.1049999999999898
20
-97.5150000000000006
11
135.4050000000000011
21
-97.5150000000000006
0
LINE
8
BLACK
6
CONTINUOUS
10
135.4050000000000011
20
-97.5150000000000006
11
135.4624029999999948
21
-97.5264179999999925
0
LINE
8
BLACK
6
CONTINUOUS
10
136.732403000000005
20
-97.5264179999999925
11
136.7810659999999814
21
-97.5589339999999936
0
LINE
8
BLACK
6
CONTINUOUS
10
136.7810659999999814
20
-97.5589339999999936
11
136.8135819999999967
21
-97.6075969999999984
0
LINE
8
BLACK
6
CONTINUOUS
10
136.8135819999999967
20
-97.6075969999999984
11
136.8249999999999886
21
-97.664999999999992
0
LINE
8
BLACK
6
CONTINUOUS
10
136.8249999999999886
20
-97.664999999999992
11
136.8249999999999886
21
-99.3149999999999977
0
LINE
8
BLACK
6
CONTINUOUS
10
136.8249999999999886
20
-99.3149999999999977
11
136.8135819999999967
21
-99.3724029999999914
0
LINE
8
BLACK
6
CONTINUOUS
10
136.8135819999999967
20
-99.3724029999999914
11
136.7810659999999814
21
-99.4210659999999962
0
LINE
8
BLACK
6
CONTINUOUS
10
136.7810659999999814
20
-99.4210659999999962
11
136.732403000000005
21
-99.4535819999999973
0
LINE
8
BLACK
6
CONTINUOUS
10
136.732403000000005
20
-99.4535819999999973
11
136.6749999999999829
21
-99.4649999999999892
0
LINE
8
BLACK
6
CONTINUOUS
10
136.6749999999999829
20
-99.4649999999999892
11
136.375
21
-99.4649999999999892
0
LINE
8
BLACK
6
CONTINUOUS
10
136.375
20
-99.4649999999999892
11
136.3175970000000063
21
-99.4535819999999973
0
LINE
8
BLACK
6
CONTINUOUS
10
136.3175970000000063
20
-99.4535819999999973
11
136.2689340000000016
21
-99.4210659999999962
0
LINE
8
BLACK
6
CONTINUOUS
10
136.2689340000000016
20
-99.4210659999999962
11
136.2364179999999863
21
-99.3724029999999914
0
LINE
8
BLACK
6
CONTINUOUS
10
136.2364179999999863
20
-99.3724029999999914
11
136.2249999999999943
21
-99.3149999999999977
0
LINE
8
BLACK
6
CONTINUOUS
10
136.2249999999999943
20
-99.3149999999999977
11
136.2249999999999943
21
-97.664999999999992
0
LINE
8
BLACK
6
CONTINUOUS
10
136.2249999999999943
20
-97.664999999999992
11
136.2364179999999863
21
-97.6075969999999984
0
LINE
8
BLACK
6
CONTINUOUS
10
136.2364179999999863
20
-97.6075969999999984
11
136.2689340000000016
21
-97.5589339999999936
0
LINE
8
BLACK
6
CONTINUOUS
10
136.2689340000000016
20
-97.5589339999999936
11
136.3175970000000063
21
-97.5264179999999925
0
LINE
8
BLACK
6
CONTINUOUS
10
136.3175970000000063
20
-97.5264179999999925
11
136.375
21
-97.5150000000000006
0
LINE
8
BLACK
6
CONTINUOUS
10
136.375
20
-97.5150000000000006
11
136.6749999999999829
21
-97.5150000000000006
0
LINE
8
BLACK
6
CONTINUOUS
10
136.6749999999999829
20
-97.5150000000000006
11
136.732403000000005
21
-97.5264179999999925
0
LINE
8
BLACK
6
CONTINUOUS
10
138.0024029999999868
20
-97.5264179999999925
11
138.0510659999999916
21
-97.5589339999999936
0
LINE
8
BLACK
6
CONTINUOUS
10
138.0510659999999916
20
-97.5589339999999936
11
138.0835820000000069
21
-97.6075969999999984
0
LINE
8
BLACK
6
CONTINUOUS
10
138.0835820000000069
20
-97.6075969999999984
11
138.0949999999999989
21
-97.664999999999992
0
LINE
8
BLACK
6
CONTINUOUS
10
138.0949999999999989
20
-97.664999999999992
11
138.0949999999999989
21
-99.3149999999999977
0
LINE
8
BLACK
6
CONTINUOUS
10
138.0949999999999989
20
-99.3149999999999977
11
138.0835820000000069
21
-99.3724029999999914
0
LINE
8
BLACK
6
CONTINUOUS
10
138.0835820000000069
20
-99.3724029999999914
11
138.0510659999999916
21
-99.4210659999999962
0
LINE
8
BLACK
6
CONTINUOUS
10
138.0510659999999916
20
-99.4210659999999962
11
138.0024029999999868
21
-99.4535819999999973
0
LINE
8
BLACK
6
CONTINUOUS
10
138.0024029999999868
20
-99.4535819999999973
11
137.9449999999999932
21
-99.4649999999999892
0
LINE
8
BLACK
6
CONTINUOUS
10
137.9449999999999932
20
-99.4649999999999892
11
137.6449999999999818
21
-99.4649999999999892
0
LINE
8
BLACK
6
CONTINUOUS
10
137.6449999999999818
20
-99.4649999999999892
11
137.5875969999999882
21
-99.4535819999999973
0
LINE
8
BLACK
6
CONTINUOUS
10
137.5875969999999882
20
-99.4535819999999973
11
137.5389339999999834
21
-99.4210659999999962
0
LINE
8
BLACK
6
CONTINUOUS
10
137.5389339999999834
20
-99.4210659999999962
11
137.5064179999999965
21
-99.3724029999999914
0
LINE
8
BLACK
6
CONTINUOUS
10
137.5064179999999965
20
-99.3724029999999914
11
137.4950000000000045
21
-99.3149999999999977
0
LINE
8
BLACK
6
CONTINUOUS
10
137.4950000000000045
20
-99.3149999999999977
11
137.4950000000000045
21
-97.664999999999992
0
LINE
8
BLACK
6
CONTINUOUS
10
137.4950000000000045
20
-97.664999999999992
11
137.5064179999999965
21
-97.6075969999999984
0
LINE
8
BLACK
6
CONTINUOUS
10
137.5064179999999965
20
-97.6075969999999984
11
137.5389339999999834
21
-97.5589339999999936
0
LINE
8
BLACK
6
CONTINUOUS
10
137.5389339999999834
20
-97.5589339999999936
11
137.5875969999999882
21
-97.5264179999999925
0
LINE
8
BLACK
6
CONTINUOUS
10
137.5875969999999882
20
-97.5264179999999925
11
137.6449999999999818
21
-97.5150000000000006
0
LINE
8
BLACK
6
CONTINUOUS
10
137.6449999999999818
20
-97.5150000000000006
11
137.9449999999999932
21
-97.5150000000000006
0
LINE
8
BLACK
6
CONTINUOUS
10
137.9449999999999932
20
-97.5150000000000006
11
138.0024029999999868
21
-97.5264179999999925
0
LINE
8
BLACK
6
CONTINUOUS
10
139.2724029999999971
20
-97.5264179999999925
11
139.3210660000000018
21
-97.5589339999999936
0
LINE
8
BLACK
6
CONTINUOUS
10
139.3210660000000018
20
-97.5589339999999936
11
139.3535819999999887
21
-97.6075969999999984
0
LINE
8
BLACK
6
CONTINUOUS
10
139.3535819999999887
20
-97.6075969999999984
11
139.3649999999999807
21
-97.664999999999992
0
LINE
8
BLACK
6
CONTINUOUS
10
139.3649999999999807
20
-97.664999999999992
11
139.3649999999999807
21
-99.3149999999999977
0
LINE
8
BLACK
6
CONTINUOUS
10
139.3649999999999807
20
-99.3149999999999977
11
139.3535819999999887
21
-99.3724029999999914
0
LINE
8
BLACK
6
CONTINUOUS
10
139.3535819999999887
20
-99.3724029999999914
11
139.3210660000000018
21
-99.4210659999999962
0
LINE
8
BLACK
6
CONTINUOUS
10
139.3210660000000018
20
-99.4210659999999962
11
139.2724029999999971
21
-99.4535819999999973
0
LINE
8
BLACK
6
CONTINUOUS
10
139.2724029999999971
20
-99.4535819999999973
11
139.2150000000000034
21
-99.4649999999999892
0
LINE
8
BLACK
6
CONTINUOUS
10
139.2150000000000034
20
-99.4649999999999892
11
138.914999999999992
21
-99.4649999999999892
0
LINE
8
BLACK
6
CONTINUOUS
10
138.914999999999992
20
-99.4649999999999892
11
138.8575969999999984
21
-99.4535819999999973
0
LINE
8
BLACK
6
CONTINUOUS
10
138.8575969999999984
20
-99.4535819999999973
11
138.8089339999999936
21
-99.4210659999999962
0
LINE
8
BLACK
6
CONTINUOUS
10
138.8089339999999936
20
-99.4210659999999962
11
138.7764180000000067
21
-99.3724029999999914
0
LINE
8
BLACK
6
CONTINUOUS
10
138.7764180000000067
20
-99.3724029999999914
11
138.7649999999999864
21
-99.3149999999999977
0
LINE
8
BLACK
6
CONTINUOUS
10
138.7649999999999864
20
-99.3149999999999977
11
138.7649999999999864
21
-97.664999999999992
0
LINE
8
BLACK
6
CONTINUOUS
10
138.7649999999999864
20
-97.664999999999992
11
138.7764180000000067
21
-97.6075969999999984
0
LINE
8
BLACK
6
CONTINUOUS
10
138.7764180000000067
20
-97.6075969999999984
11
138.8089339999999936
21
-97.5589339999999936
0
LINE
8
BLACK
6
CONTINUOUS
10
138.8089339999999936
20
-97.5589339999999936
11
138.8575969999999984
21
-97.5264179999999925
0
LINE
8
BLACK
6
CONTINUOUS
10
138.8575969999999984
20
-97.5264179999999925
11
138.914999999999992
21
-97.5150000000000006
0
LINE
8
BLACK
6
CONTINUOUS
10
138.914999999999992
20
-97.5150000000000006
11
139.2150000000000034
21
-97.5150000000000006
0
LINE
8
BLACK
6
CONTINUOUS
10
139.2150000000000034
20
-97.5150000000000006
11
139.2724029999999971
21
-97.5264179999999925
0
LINE
8
BLACK
6
CONTINUOUS
10
140.5424030000000073
20
-97.5264179999999925
11
140.5910659999999837
21
-97.5589339999999936
0
LINE
8
BLACK
6
CONTINUOUS
10
140.5910659999999837
20
-97.5589339999999936
11
140.623581999999999
21
-97.6075969999999984
0
LINE
8
BLACK
6
CONTINUOUS
10
140.623581999999999
20
-97.6075969999999984
11
140.6349999999999909
21
-97.664999999999992
0
LINE
8
BLACK
6
CONTINUOUS
10
140.6349999999999909
20
-97.664999999999992
11
140.6349999999999909
21
-99.3149999999999977
0
LINE
8
BLACK
6
CONTINUOUS
10
140.6349999999999909
20
-99.3149999999999977
11
140.623581999999999
21
-99.3724029999999914
0
LINE
8
BLACK
6
CONTINUOUS
10
140.623581999999999
20
-99.3724029999999914
11
140.5910659999999837
21
-99.4210659999999962
0
LINE
8
BLACK
6
CONTINUOUS
10
140.5910659999999837
20
-99.4210659999999962
11
140.5424030000000073
21
-99.4535819999999973
0
LINE
8
BLACK
6
CONTINUOUS
10
140.5424030000000073
20
-99.4535819999999973
11
140.4849999999999852
21
-99.4649999999999892
0
LINE
8
BLACK
6
CONTINUOUS
10
140.4849999999999852
20
-99.4649999999999892
11
140.1850000000000023
21
-99.4649999999999892
0
LINE
8
BLACK
6
CONTINUOUS
10
140.1850000000000023
20
-99.4649999999999892
11
140.1275969999999802
21
-99.4535819999999973
0
LINE
8
BLACK
6
CONTINUOUS
10
140.1275969999999802
20
-99.4535819999999973
11
140.0789340000000038
21
-99.4210659999999962
0
LINE
8
BLACK
6
CONTINUOUS
10
140.0789340000000038
20
-99.4210659999999962
11
140.0464179999999885
21
-99.3724029999999914
0
LINE
8
BLACK
6
CONTINUOUS
10
140.0464179999999885
20
-99.3724029999999914
11
140.0349999999999966
21
-99.3149999999999977
0
LINE
8
BLACK
6
CONTINUOUS
10
140.0349999999999966
20
-99.3149999999999977
11
140.0349999999999966
21
-97.664999999999992
0
LINE
8
BLACK
6
CONTINUOUS
10
140.0349999999999966
20
-97.664999999999992
11
140.0464179999999885
21
-97.6075969999999984
0
LINE
8
BLACK
6
CONTINUOUS
10
140.0464179999999885
20
-97.6075969999999984
11
140.0789340000000038
21
-97.5589339999999936
0
LINE
8
BLACK
6
CONTINUOUS
10
140.0789340000000038
20
-97.5589339999999936
11
140.1275969999999802
21
-97.5264179999999925
0
LINE
8
BLACK
6
CONTINUOUS
10
140.1275969999999802
20
-97.5264179999999925
11
140.1850000000000023
21
-97.5150000000000006
0
LINE
8
BLACK
6
CONTINUOUS
10
140.1850000000000023
20
-97.5150000000000006
11
140.4849999999999852
21
-97.5150000000000006
0
LINE
8
BLACK
6
CONTINUOUS
10
140.4849999999999852
20
-97.5150000000000006
11
140.5424030000000073
21
-97.5264179999999925
0
LINE
8
BLACK
6
CONTINUOUS
10
141.8124029999999891
20
-97.5264179999999925
11
141.8610659999999939
21
-97.5589339999999936
0
LINE
8
BLACK
6
CONTINUOUS
10
141.8610659999999939
20
-97.5589339999999936
11
141.8935819999999808
21
-97.6075969999999984
0
LINE
8
BLACK
6
CONTINUOUS
10
141.8935819999999808
20
-97.6075969999999984
11
141.9050000000000011
21
-97.664999999999992
0
LINE
8
BLACK
6
CONTINUOUS
10
141.9050000000000011
20
-97.664999999999992
11
141.9050000000000011
21
-99.3149999999999977
0
LINE
8
BLACK
6
CONTINUOUS
10
141.9050000000000011
20
-99.3149999999999977
11
141.8935819999999808
21
-99.3724029999999914
0
LINE
8
BLACK
6
CONTINUOUS
10
141.8935819999999808
20
-99.3724029999999914
11
141.8610659999999939
21
-99.4210659999999962
0
LINE
8
BLACK
6
CONTINUOUS
10
141.8610659999999939
20
-99.4210659999999962
11
141.8124029999999891
21
-99.4535819999999973
0
LINE
8
BLACK
6
CONTINUOUS
10
141.8124029999999891
20
-99.4535819999999973
11
141.7549999999999955
21
-99.4649999999999892
0
LINE
8
BLACK
6
CONTINUOUS
10
141.7549999999999955
20
-99.4649999999999892
11
141.4549999999999841
21
-99.4649999999999892
0
LINE
8
BLACK
6
CONTINUOUS
10
141.4549999999999841
20
-99.4649999999999892
11
141.3975969999999904
21
-99.4535819999999973
0
LINE
8
BLACK
6
CONTINUOUS
10
141.3975969999999904
20
-99.4535819999999973
11
141.3489339999999856
21
-99.4210659999999962
0
LINE
8
BLACK
6
CONTINUOUS
10
141.3489339999999856
20
-99.4210659999999962
11
141.3164179999999988
21
-99.3724029999999914
0
LINE
8
BLACK
6
CONTINUOUS
10
141.3164179999999988
20
-99.3724029999999914
11
141.3050000000000068
21
-99.3149999999999977
0
LINE
8
BLACK
6
CONTINUOUS
10
141.3050000000000068
20
-99.3149999999999977
11
141.3050000000000068
21
-97.664999999999992
0
LINE
8
BLACK
6
CONTINUOUS
10
141.3050000000000068
20
-97.664999999999992
11
141.3164179999999988
21
-97.6075969999999984
0
LINE
8
BLACK
6
CONTINUOUS
10
141.3164179999999988
20
-97.6075969999999984
11
141.3489339999999856
21
-97.5589339999999936
0
LINE
8
BLACK
6
CONTINUOUS
10
141.3489339999999856
20
-97.5589339999999936
11
141.3975969999999904
21
-97.5264179999999925
0
LINE
8
BLACK
6
CONTINUOUS
10
141.3975969999999904
20
-97.5264179999999925
11
141.4549999999999841
21
-97.5150000000000006
0
LINE
8
BLACK
6
CONTINUOUS
10
141.4549999999999841
20
-97.5150000000000006
11
141.7549999999999955
21
-97.5150000000000006
0
LINE
8
BLACK
6
CONTINUOUS
10
141.7549999999999955
20
-97.5150000000000006
11
141.8124029999999891
21
-97.5264179999999925
0
LINE
8
BLACK
6
CONTINUOUS
10
143.0824029999999993
20
-97.5264179999999925
11
143.1310660000000041
21
-97.5589339999999936
0
LINE
8
BLACK
6
CONTINUOUS
10
143.1310660000000041
20
-97.5589339999999936
11
143.163581999999991
21
-97.6075969999999984
0
LINE
8
BLACK
6
CONTINUOUS
10
143.163581999999991
20
-97.6075969999999984
11
143.1749999999999829
21
-97.664999999999992
0
LINE
8
BLACK
6
CONTINUOUS
10
143.1749999999999829
20
-97.664999999999992
11
143.1749999999999829
21
-99.3149999999999977
0
LINE
8
BLACK
6
CONTINUOUS
10
143.1749999999999829
20
-99.3149999999999977
11
143.163581999999991
21
-99.3724029999999914
0
LINE
8
BLACK
6
CONTINUOUS
10
143.163581999999991
20
-99.3724029999999914
11
143.1310660000000041
21
-99.4210659999999962
0
LINE
8
BLACK
6
CONTINUOUS
10
143.1310660000000041
20
-99.4210659999999962
11
143.0824029999999993
21
-99.4535819999999973
0
LINE
8
BLACK
6
CONTINUOUS
10
143.0824029999999993
20
-99.4535819999999973
11
143.0250000000000057
21
-99.4649999999999892
0
LINE
8
BLACK
6
CONTINUOUS
10
143.0250000000000057
20
-99.4649999999999892
11
142.7249999999999943
21
-99.4649999999999892
0
LINE
8
BLACK
6
CONTINUOUS
10
142.7249999999999943
20
-99.4649999999999892
11
142.6675970000000007
21
-99.4535819999999973
0
LINE
8
BLACK
6
CONTINUOUS
10
142.6675970000000007
20
-99.4535819999999973
11
142.6189339999999959
21
-99.4210659999999962
0
LINE
8
BLACK
6
CONTINUOUS
10
142.6189339999999959
20
-99.4210659999999962
11
142.5864179999999806
21
-99.3724029999999914
0
LINE
8
BLACK
6
CONTINUOUS
10
142.5864179999999806
20
-99.3724029999999914
11
142.5749999999999886
21
-99.3149999999999977
0
LINE
8
BLACK
6
CONTINUOUS
10
142.5749999999999886
20
-99.3149999999999977
11
142.5749999999999886
21
-97.664999999999992
0
LINE
8
BLACK
6
CONTINUOUS
10
142.5749999999999886
20
-97.664999999999992
11
142.5864179999999806
21
-97.6075969999999984
0
LINE
8
BLACK
6
CONTINUOUS
10
142.5864179999999806
20
-97.6075969999999984
11
142.6189339999999959
21
-97.5589339999999936
0
LINE
8
BLACK
6
CONTINUOUS
10
142.6189339999999959
20
-97.5589339999999936
11
142.6675970000000007
21
-97.5264179999999925
0
LINE
8
BLACK
6
CONTINUOUS
10
142.6675970000000007
20
-97.5264179999999925
11
142.7249999999999943
21
-97.5150000000000006
0
LINE
8
BLACK
6
CONTINUOUS
10
142.7249999999999943
20
-97.5150000000000006
11
143.0250000000000057
21
-97.5150000000000006
0
LINE
8
BLACK
6
CONTINUOUS
10
143.0250000000000057
20
-97.5150000000000006
11
143.0824029999999993
21
-97.5264179999999925
0
LINE
8
BLACK
6
CONTINUOUS
10
146.770670999999993
20
-96.8790300000000002
11
146.8517769999999985
21
-96.9332229999999981
0
LINE
8
BLACK
6
CONTINUOUS
10
146.8517769999999985
20
-96.9332229999999981
11
146.9059699999999964
21
-97.0143289999999894
0
LINE
8
BLACK
6
CONTINUOUS
10
146.9059699999999964
20
-97.0143289999999894
11
146.9249999999999829
21
-97.1099999999999994
0
LINE
8
BLACK
6
CONTINUOUS
10
146.9249999999999829
20
-97.1099999999999994
11
146.9249999999999829
21
-97.9099999999999966
0
LINE
8
BLACK
6
CONTINUOUS
10
146.9249999999999829
20
-97.9099999999999966
11
146.9059699999999964
21
-98.0056709999999924
0
LINE
8
BLACK
6
CONTINUOUS
10
146.9059699999999964
20
-98.0056709999999924
11
146.8517769999999985
21
-98.0867769999999979
0
LINE
8
BLACK
6
CONTINUOUS
10
146.8517769999999985
20
-98.0867769999999979
11
146.770670999999993
21
-98.1409699999999958
0
LINE
8
BLACK
6
CONTINUOUS
10
146.770670999999993
20
-98.1409699999999958
11
146.6749999999999829
21
-98.1599999999999966
0
LINE
8
BLACK
6
CONTINUOUS
10
146.6749999999999829
20
-98.1599999999999966
11
145.4249999999999829
21
-98.1599999999999966
0
LINE
8
BLACK
6
CONTINUOUS
10
145.4249999999999829
20
-98.1599999999999966
11
145.3293290000000013
21
-98.1409699999999958
0
LINE
8
BLACK
6
CONTINUOUS
10
145.3293290000000013
20
-98.1409699999999958
11
145.2482229999999959
21
-98.0867769999999979
0
LINE
8
BLACK
6
CONTINUOUS
10
145.2482229999999959
20
-98.0867769999999979
11
145.1940299999999979
21
-98.0056709999999924
0
LINE
8
BLACK
6
CONTINUOUS
10
145.1940299999999979
20
-98.0056709999999924
11
145.1749999999999829
21
-97.9099999999999966
0
LINE
8
BLACK
6
CONTINUOUS
10
145.1749999999999829
20
-97.9099999999999966
11
145.1749999999999829
21
-97.1099999999999994
0
LINE
8
BLACK
6
CONTINUOUS
10
145.1749999999999829
20
-97.1099999999999994
11
145.1940299999999979
21
-97.0143289999999894
0
LINE
8
BLACK
6
CONTINUOUS
10
145.1940299999999979
20
-97.0143289999999894
11
145.2482229999999959
21
-96.9332229999999981
0
LINE
8
BLACK
6
CONTINUOUS
10
145.2482229999999959
20
-96.9332229999999981
11
145.3293290000000013
21
-96.8790300000000002
0
LINE
8
BLACK
6
CONTINUOUS
10
145.3293290000000013
20
-96.8790300000000002
11
145.4249999999999829
21
-96.8599999999999994
0
LINE
8
BLACK
6
CONTINUOUS
10
145.4249999999999829
20
-96.8599999999999994
11
146.6749999999999829
21
-96.8599999999999994
0
LINE
8
BLACK
6
CONTINUOUS
10
146.6749999999999829
20
-96.8599999999999994
11
146.770670999999993
21
-96.8790300000000002
0
LINE
8
BLACK
6
CONTINUOUS
10
151.8506710000000055
20
-96.5990299999999991
11
151.9317769999999825
21
-96.653222999999997
0
LINE
8
BLACK
6
CONTINUOUS
10
151.9317769999999825
20
-96.653222999999997
11
151.9859699999999805
21
-96.7343290000000025
0
LINE
8
BLACK
6
CONTINUOUS
10
151.9859699999999805
20
-96.7343290000000025
11
152.0049999999999955
21
-96.8299999999999983
0
LINE
8
BLACK
6
CONTINUOUS
10
152.0049999999999955
20
-96.8299999999999983
11
152.0049999999999955
21
-97.6299999999999955
0
LINE
8
BLACK
6
CONTINUOUS
10
152.0049999999999955
20
-97.6299999999999955
11
151.9859699999999805
21
-97.7256709999999913
0
LINE
8
BLACK
6
CONTINUOUS
10
151.9859699999999805
20
-97.7256709999999913
11
151.9317769999999825
21
-97.8067769999999967
0
LINE
8
BLACK
6
CONTINUOUS
10
151.9317769999999825
20
-97.8067769999999967
11
151.8506710000000055
21
-97.8609699999999947
0
LINE
8
BLACK
6
CONTINUOUS
10
151.8506710000000055
20
-97.8609699999999947
11
151.7549999999999955
21
-97.8799999999999955
0
LINE
8
BLACK
6
CONTINUOUS
10
151.7549999999999955
20
-97.8799999999999955
11
150.5049999999999955
21
-97.8799999999999955
0
LINE
8
BLACK
6
CONTINUOUS
10
150.5049999999999955
20
-97.8799999999999955
11
150.4093289999999854
21
-97.8609699999999947
0
LINE
8
BLACK
6
CONTINUOUS
10
150.4093289999999854
20
-97.8609699999999947
11
150.3282229999999799
21
-97.8067769999999967
0
LINE
8
BLACK
6
CONTINUOUS
10
150.3282229999999799
20
-97.8067769999999967
11
150.274029999999982
21
-97.7256709999999913
0
LINE
8
BLACK
6
CONTINUOUS
10
150.274029999999982
20
-97.7256709999999913
11
150.2549999999999955
21
-97.6299999999999955
0
LINE
8
BLACK
6
CONTINUOUS
10
150.2549999999999955
20
-97.6299999999999955
11
150.2549999999999955
21
-96.8299999999999983
0
LINE
8
BLACK
6
CONTINUOUS
10
150.2549999999999955
20
-96.8299999999999983
11
150.274029999999982
21
-96.7343290000000025
0
LINE
8
BLACK
6
CONTINUOUS
10
150.274029999999982
20
-96.7343290000000025
11
150.3282229999999799
21
-96.653222999999997
0
LINE
8
BLACK
6
CONTINUOUS
10
150.3282229999999799
20
-96.653222999999997
11
150.4093289999999854
21
-96.5990299999999991
0
LINE
8
BLACK
6
CONTINUOUS
10
150.4093289999999854
20
-96.5990299999999991
11
150.5049999999999955
21
-96.5799999999999983
0
LINE
8
BLACK
6
CONTINUOUS
10
150.5049999999999955
20
-96.5799999999999983
11
151.7549999999999955
21
-96.5799999999999983
0
LINE
8
BLACK
6
CONTINUOUS
10
151.7549999999999955
20
-96.5799999999999983
11
151.8506710000000055
21
-96.5990299999999991
0
LINE
8
BLACK
6
CONTINUOUS
10
155.5456709999999987
20
-96.4690299999999894
11
155.6267770000000041
21
-96.5232230000000015
0
LINE
8
BLACK
6
CONTINUOUS
10
155.6267770000000041
20
-96.5232230000000015
11
155.6809700000000021
21
-96.6043289999999928
0
LINE
8
BLACK
6
CONTINUOUS
10
155.6809700000000021
20
-96.6043289999999928
11
155.6999999999999886
21
-96.6999999999999886
0
LINE
8
BLACK
6
CONTINUOUS
10
155.6999999999999886
20
-96.6999999999999886
11
155.6999999999999886
21
-97.3499999999999943
0
LINE
8
BLACK
6
CONTINUOUS
10
155.6999999999999886
20
-97.3499999999999943
11
155.6809700000000021
21
-97.4456709999999902
0
LINE
8
BLACK
6
CONTINUOUS
10
155.6809700000000021
20
-97.4456709999999902
11
155.6267770000000041
21
-97.5267769999999956
0
LINE
8
BLACK
6
CONTINUOUS
10
155.6267770000000041
20
-97.5267769999999956
11
155.5456709999999987
21
-97.5809699999999935
0
LINE
8
BLACK
6
CONTINUOUS
10
155.5456709999999987
20
-97.5809699999999935
11
155.4499999999999886
21
-97.5999999999999943
0
LINE
8
BLACK
6
CONTINUOUS
10
155.4499999999999886
20
-97.5999999999999943
11
154.5499999999999829
21
-97.5999999999999943
0
LINE
8
BLACK
6
CONTINUOUS
10
154.5499999999999829
20
-97.5999999999999943
11
154.4543290000000013
21
-97.5809699999999935
0
LINE
8
BLACK
6
CONTINUOUS
10
154.4543290000000013
20
-97.5809699999999935
11
154.3732229999999959
21
-97.5267769999999956
0
LINE
8
BLACK
6
CONTINUOUS
10
154.3732229999999959
20
-97.5267769999999956
11
154.3190299999999979
21
-97.4456709999999902
0
LINE
8
BLACK
6
CONTINUOUS
10
154.3190299999999979
20
-97.4456709999999902
11
154.2999999999999829
21
-97.3499999999999943
0
LINE
8
BLACK
6
CONTINUOUS
10
154.2999999999999829
20
-97.3499999999999943
11
154.2999999999999829
21
-96.6999999999999886
0
LINE
8
BLACK
6
CONTINUOUS
10
154.2999999999999829
20
-96.6999999999999886
11
154.3190299999999979
21
-96.6043289999999928
0
LINE
8
BLACK
6
CONTINUOUS
10
154.3190299999999979
20
-96.6043289999999928
11
154.3732229999999959
21
-96.5232230000000015
0
LINE
8
BLACK
6
CONTINUOUS
10
154.3732229999999959
20
-96.5232230000000015
11
154.4543290000000013
21
-96.4690299999999894
0
LINE
8
BLACK
6
CONTINUOUS
10
154.4543290000000013
20
-96.4690299999999894
11
154.5499999999999829
21
-96.4499999999999886
0
LINE
8
BLACK
6
CONTINUOUS
10
154.5499999999999829
20
-96.4499999999999886
11
155.4499999999999886
21
-96.4499999999999886
0
LINE
8
BLACK
6
CONTINUOUS
10
155.4499999999999886
20
-96.4499999999999886
11
155.5456709999999987
21
-96.4690299999999894
0
LINE
8
BLACK
6
CONTINUOUS
10
124.3788429999999892
20
-95.1958059999999904
11
124.4599489999999946
21
-95.25
0
LINE
8
BLACK
6
CONTINUOUS
10
124.4599489999999946
20
-95.25
11
124.9195679999999982
21
-95.7096189999999893
0
LINE
8
BLACK
6
CONTINUOUS
10
124.9195679999999982
20
-95.7096189999999893
11
124.9737619999999936
21
-95.7907249999999948
0
LINE
8
BLACK
6
CONTINUOUS
10
124.9737619999999936
20
-95.7907249999999948
11
124.9927919999999943
21
-95.8863959999999906
0
LINE
8
BLACK
6
CONTINUOUS
10
124.9927919999999943
20
-95.8863959999999906
11
124.9737619999999936
21
-95.982065999999989
0
LINE
8
BLACK
6
CONTINUOUS
10
124.9737619999999936
20
-95.982065999999989
11
124.9195679999999982
21
-96.0631719999999945
0
LINE
8
BLACK
6
CONTINUOUS
10
124.9195679999999982
20
-96.0631719999999945
11
124.2831719999999933
21
-96.6995679999999993
0
LINE
8
BLACK
6
CONTINUOUS
10
124.2831719999999933
20
-96.6995679999999993
11
124.2020659999999879
21
-96.7537619999999947
0
LINE
8
BLACK
6
CONTINUOUS
10
124.2020659999999879
20
-96.7537619999999947
11
124.1063959999999895
21
-96.7727919999999955
0
LINE
8
BLACK
6
CONTINUOUS
10
124.1063959999999895
20
-96.7727919999999955
11
124.0107249999999937
21
-96.7537619999999947
0
LINE
8
BLACK
6
CONTINUOUS
10
124.0107249999999937
20
-96.7537619999999947
11
123.9296189999999882
21
-96.6995679999999993
0
LINE
8
BLACK
6
CONTINUOUS
10
123.9296189999999882
20
-96.6995679999999993
11
123.4699999999999989
21
-96.2399489999999957
0
LINE
8
BLACK
6
CONTINUOUS
10
123.4699999999999989
20
-96.2399489999999957
11
123.4158059999999892
21
-96.1588429999999903
0
LINE
8
BLACK
6
CONTINUOUS
10
123.4158059999999892
20
-96.1588429999999903
11
123.3967759999999885
21
-96.0631719999999945
0
LINE
8
BLACK
6
CONTINUOUS
10
123.3967759999999885
20
-96.0631719999999945
11
123.4158059999999892
21
-95.9675019999999961
0
LINE
8
BLACK
6
CONTINUOUS
10
123.4158059999999892
20
-95.9675019999999961
11
123.4699999999999989
21
-95.8863959999999906
0
LINE
8
BLACK
6
CONTINUOUS
10
123.4699999999999989
20
-95.8863959999999906
11
124.1063959999999895
21
-95.25
0
LINE
8
BLACK
6
CONTINUOUS
10
124.1063959999999895
20
-95.25
11
124.187501999999995
21
-95.1958059999999904
0
LINE
8
BLACK
6
CONTINUOUS
10
124.187501999999995
20
-95.1958059999999904
11
124.2831719999999933
21
-95.1767759999999896
0
LINE
8
BLACK
6
CONTINUOUS
10
124.2831719999999933
20
-95.1767759999999896
11
124.3788429999999892
21
-95.1958059999999904
0
LINE
8
BLACK
6
CONTINUOUS
10
127.4956709999999873
20
-94.3940300000000008
11
127.5767769999999928
21
-94.4482229999999987
0
LINE
8
BLACK
6
CONTINUOUS
10
127.5767769999999928
20
-94.4482229999999987
11
127.6309699999999907
21
-94.5293289999999899
0
LINE
8
BLACK
6
CONTINUOUS
10
127.6309699999999907
20
-94.5293289999999899
11
127.6499999999999915
21
-94.625
0
LINE
8
BLACK
6
CONTINUOUS
10
127.6499999999999915
20
-94.625
11
127.6499999999999915
21
-95.875
0
LINE
8
BLACK
6
CONTINUOUS
10
127.6499999999999915
20
-95.875
11
127.6309699999999907
21
-95.9706709999999958
0
LINE
8
BLACK
6
CONTINUOUS
10
127.6309699999999907
20
-95.9706709999999958
11
127.5767769999999928
21
-96.0517770000000013
0
LINE
8
BLACK
6
CONTINUOUS
10
127.5767769999999928
20
-96.0517770000000013
11
127.4956709999999873
21
-96.1059699999999992
0
LINE
8
BLACK
6
CONTINUOUS
10
127.4956709999999873
20
-96.1059699999999992
11
127.3999999999999915
21
-96.125
0
LINE
8
BLACK
6
CONTINUOUS
10
127.3999999999999915
20
-96.125
11
126.5999999999999943
21
-96.125
0
LINE
8
BLACK
6
CONTINUOUS
10
126.5999999999999943
20
-96.125
11
126.5043289999999985
21
-96.1059699999999992
0
LINE
8
BLACK
6
CONTINUOUS
10
126.5043289999999985
20
-96.1059699999999992
11
126.423222999999993
21
-96.0517770000000013
0
LINE
8
BLACK
6
CONTINUOUS
10
126.423222999999993
20
-96.0517770000000013
11
126.3690299999999951
21
-95.9706709999999958
0
LINE
8
BLACK
6
CONTINUOUS
10
126.3690299999999951
20
-95.9706709999999958
11
126.3499999999999943
21
-95.875
0
LINE
8
BLACK
6
CONTINUOUS
10
126.3499999999999943
20
-95.875
11
126.3499999999999943
21
-94.625
0
LINE
8
BLACK
6
CONTINUOUS
10
126.3499999999999943
20
-94.625
11
126.3690299999999951
21
-94.5293289999999899
0
LINE
8
BLACK
6
CONTINUOUS
10
126.3690299999999951
20
-94.5293289999999899
11
126.423222999999993
21
-94.4482229999999987
0
LINE
8
BLACK
6
CONTINUOUS
10
126.423222999999993
20
-94.4482229999999987
11
126.5043289999999985
21
-94.3940300000000008
0
LINE
8
BLACK
6
CONTINUOUS
10
126.5043289999999985
20
-94.3940300000000008
11
126.5999999999999943
21
-94.375
0
LINE
8
BLACK
6
CONTINUOUS
10
126.5999999999999943
20
-94.375
11
127.3999999999999915
21
-94.375
0
LINE
8
BLACK
6
CONTINUOUS
10
127.3999999999999915
20
-94.375
11
127.4956709999999873
21
-94.3940300000000008
0
LINE
8
BLACK
6
CONTINUOUS
10
130.5956709999999816
20
-94.3940300000000008
11
130.6767769999999871
21
-94.4482229999999987
0
LINE
8
BLACK
6
CONTINUOUS
10
130.6767769999999871
20
-94.4482229999999987
11
130.730969999999985
21
-94.5293289999999899
0
LINE
8
BLACK
6
CONTINUOUS
10
130.730969999999985
20
-94.5293289999999899
11
130.75
21
-94.625
0
LINE
8
BLACK
6
CONTINUOUS
10
130.75
20
-94.625
11
130.75
21
-95.875
0
LINE
8
BLACK
6
CONTINUOUS
10
130.75
20
-95.875
11
130.730969999999985
21
-95.9706709999999958
0
LINE
8
BLACK
6
CONTINUOUS
10
130.730969999999985
20
-95.9706709999999958
11
130.6767769999999871
21
-96.0517770000000013
0
LINE
8
BLACK
6
CONTINUOUS
10
130.6767769999999871
20
-96.0517770000000013
11
130.5956709999999816
21
-96.1059699999999992
0
LINE
8
BLACK
6
CONTINUOUS
10
130.5956709999999816
20
-96.1059699999999992
11
130.5
21
-96.125
0
LINE
8
BLACK
6
CONTINUOUS
10
130.5
20
-96.125
11
129.6999999999999886
21
-96.125
0
LINE
8
BLACK
6
CONTINUOUS
10
129.6999999999999886
20
-96.125
11
129.604329000000007
21
-96.1059699999999992
0
LINE
8
BLACK
6
CONTINUOUS
10
129.604329000000007
20
-96.1059699999999992
11
129.5232230000000015
21
-96.0517770000000013
0
LINE
8
BLACK
6
CONTINUOUS
10
129.5232230000000015
20
-96.0517770000000013
11
129.4690300000000036
21
-95.9706709999999958
0
LINE
8
BLACK
6
CONTINUOUS
10
129.4690300000000036
20
-95.9706709999999958
11
129.4499999999999886
21
-95.875
0
LINE
8
BLACK
6
CONTINUOUS
10
129.4499999999999886
20
-95.875
11
129.4499999999999886
21
-94.625
0
LINE
8
BLACK
6
CONTINUOUS
10
129.4499999999999886
20
-94.625
11
129.4690300000000036
21
-94.5293289999999899
0
LINE
8
BLACK
6
CONTINUOUS
10
129.4690300000000036
20
-94.5293289999999899
11
129.5232230000000015
21
-94.4482229999999987
0
LINE
8
BLACK
6
CONTINUOUS
10
129.5232230000000015
20
-94.4482229999999987
11
129.604329000000007
21
-94.3940300000000008
0
LINE
8
BLACK
6
CONTINUOUS
10
129.604329000000007
20
-94.3940300000000008
11
129.6999999999999886
21
-94.375
0
LINE
8
BLACK
6
CONTINUOUS
10
129.6999999999999886
20
-94.375
11
130.5
21
-94.375
0
LINE
8
BLACK
6
CONTINUOUS
10
130.5
20
-94.375
11
130.5956709999999816
21
-94.3940300000000008
0
LINE
8
BLACK
6
CONTINUOUS
10
135.3406709999999862
20
-94.6190299999999951
11
135.4217769999999916
21
-94.673222999999993
0
LINE
8
BLACK
6
CONTINUOUS
10
135.4217769999999916
20
-94.673222999999993
11
135.4759699999999896
21
-94.7543289999999985
0
LINE
8
BLACK
6
CONTINUOUS
10
135.4759699999999896
20
-94.7543289999999985
11
135.4950000000000045
21
-94.8499999999999943
0
LINE
8
BLACK
6
CONTINUOUS
10
135.4950000000000045
20
-94.8499999999999943
11
135.4950000000000045
21
-95.6499999999999915
0
LINE
8
BLACK
6
CONTINUOUS
10
135.4950000000000045
20
-95.6499999999999915
11
135.4759699999999896
21
-95.7456710000000015
0
LINE
8
BLACK
6
CONTINUOUS
10
135.4759699999999896
20
-95.7456710000000015
11
135.4217769999999916
21
-95.8267769999999928
0
LINE
8
BLACK
6
CONTINUOUS
10
135.4217769999999916
20
-95.8267769999999928
11
135.3406709999999862
21
-95.8809699999999907
0
LINE
8
BLACK
6
CONTINUOUS
10
135.3406709999999862
20
-95.8809699999999907
11
135.2450000000000045
21
-95.8999999999999915
0
LINE
8
BLACK
6
CONTINUOUS
10
135.2450000000000045
20
-95.8999999999999915
11
133.9950000000000045
21
-95.8999999999999915
0
LINE
8
BLACK
6
CONTINUOUS
10
133.9950000000000045
20
-95.8999999999999915
11
133.8993289999999945
21
-95.8809699999999907
0
LINE
8
BLACK
6
CONTINUOUS
10
133.8993289999999945
20
-95.8809699999999907
11
133.818222999999989
21
-95.8267769999999928
0
LINE
8
BLACK
6
CONTINUOUS
10
133.818222999999989
20
-95.8267769999999928
11
133.7640299999999911
21
-95.7456710000000015
0
LINE
8
BLACK
6
CONTINUOUS
10
133.7640299999999911
20
-95.7456710000000015
11
133.7450000000000045
21
-95.6499999999999915
0
LINE
8
BLACK
6
CONTINUOUS
10
133.7450000000000045
20
-95.6499999999999915
11
133.7450000000000045
21
-94.8499999999999943
0
LINE
8
BLACK
6
CONTINUOUS
10
133.7450000000000045
20
-94.8499999999999943
11
133.7640299999999911
21
-94.7543289999999985
0
LINE
8
BLACK
6
CONTINUOUS
10
133.7640299999999911
20
-94.7543289999999985
11
133.818222999999989
21
-94.673222999999993
0
LINE
8
BLACK
6
CONTINUOUS
10
133.818222999999989
20
-94.673222999999993
11
133.8993289999999945
21
-94.6190299999999951
0
LINE
8
BLACK
6
CONTINUOUS
10
133.8993289999999945
20
-94.6190299999999951
11
133.9950000000000045
21
-94.5999999999999943
0
LINE
8
BLACK
6
CONTINUOUS
10
133.9950000000000045
20
-94.5999999999999943
11
135.2450000000000045
21
-94.5999999999999943
0
LINE
8
BLACK
6
CONTINUOUS
10
135.2450000000000045
20
-94.5999999999999943
11
135.3406709999999862
21
-94.6190299999999951
0
LINE
8
BLACK
6
CONTINUOUS
10
151.6756709999999941
20
-94.6940299999999979
11
151.7567769999999996
21
-94.7482229999999959
0
LINE
8
BLACK
6
CONTINUOUS
10
151.7567769999999996
20
-94.7482229999999959
11
151.8109699999999975
21
-94.8293290000000013
0
LINE
8
BLACK
6
CONTINUOUS
10
151.8109699999999975
20
-94.8293290000000013
11
151.8299999999999841
21
-94.9249999999999972
0
LINE
8
BLACK
6
CONTINUOUS
10
151.8299999999999841
20
-94.9249999999999972
11
151.8299999999999841
21
-95.5749999999999886
0
LINE
8
BLACK
6
CONTINUOUS
10
151.8299999999999841
20
-95.5749999999999886
11
151.8109699999999975
21
-95.6706709999999987
0
LINE
8
BLACK
6
CONTINUOUS
10
151.8109699999999975
20
-95.6706709999999987
11
151.7567769999999996
21
-95.7517769999999899
0
LINE
8
BLACK
6
CONTINUOUS
10
151.7567769999999996
20
-95.7517769999999899
11
151.6756709999999941
21
-95.8059700000000021
0
LINE
8
BLACK
6
CONTINUOUS
10
151.6756709999999941
20
-95.8059700000000021
11
151.5799999999999841
21
-95.8249999999999886
0
LINE
8
BLACK
6
CONTINUOUS
10
151.5799999999999841
20
-95.8249999999999886
11
150.6800000000000068
21
-95.8249999999999886
0
LINE
8
BLACK
6
CONTINUOUS
10
150.6800000000000068
20
-95.8249999999999886
11
150.5843289999999968
21
-95.8059700000000021
0
LINE
8
BLACK
6
CONTINUOUS
10
150.5843289999999968
20
-95.8059700000000021
11
150.5032229999999913
21
-95.7517769999999899
0
LINE
8
BLACK
6
CONTINUOUS
10
150.5032229999999913
20
-95.7517769999999899
11
150.4490299999999934
21
-95.6706709999999987
0
LINE
8
BLACK
6
CONTINUOUS
10
150.4490299999999934
20
-95.6706709999999987
11
150.4300000000000068
21
-95.5749999999999886
0
LINE
8
BLACK
6
CONTINUOUS
10
150.4300000000000068
20
-95.5749999999999886
11
150.4300000000000068
21
-94.9249999999999972
0
LINE
8
BLACK
6
CONTINUOUS
10
150.4300000000000068
20
-94.9249999999999972
11
150.4490299999999934
21
-94.8293290000000013
0
LINE
8
BLACK
6
CONTINUOUS
10
150.4490299999999934
20
-94.8293290000000013
11
150.5032229999999913
21
-94.7482229999999959
0
LINE
8
BLACK
6
CONTINUOUS
10
150.5032229999999913
20
-94.7482229999999959
11
150.5843289999999968
21
-94.6940299999999979
0
LINE
8
BLACK
6
CONTINUOUS
10
150.5843289999999968
20
-94.6940299999999979
11
150.6800000000000068
21
-94.6749999999999972
0
LINE
8
BLACK
6
CONTINUOUS
10
150.6800000000000068
20
-94.6749999999999972
11
151.5799999999999841
21
-94.6749999999999972
0
LINE
8
BLACK
6
CONTINUOUS
10
151.5799999999999841
20
-94.6749999999999972
11
151.6756709999999941
21
-94.6940299999999979
0
LINE
8
BLACK
6
CONTINUOUS
10
155.5456709999999987
20
-94.4190299999999922
11
155.6267770000000041
21
-94.4732229999999902
0
LINE
8
BLACK
6
CONTINUOUS
10
155.6267770000000041
20
-94.4732229999999902
11
155.6809700000000021
21
-94.5543289999999956
0
LINE
8
BLACK
6
CONTINUOUS
10
155.6809700000000021
20
-94.5543289999999956
11
155.6999999999999886
21
-94.6499999999999915
0
LINE
8
BLACK
6
CONTINUOUS
10
155.6999999999999886
20
-94.6499999999999915
11
155.6999999999999886
21
-95.2999999999999972
0
LINE
8
BLACK
6
CONTINUOUS
10
155.6999999999999886
20
-95.2999999999999972
11
155.6809700000000021
21
-95.395670999999993
0
LINE
8
BLACK
6
CONTINUOUS
10
155.6809700000000021
20
-95.395670999999993
11
155.6267770000000041
21
-95.4767769999999985
0
LINE
8
BLACK
6
CONTINUOUS
10
155.6267770000000041
20
-95.4767769999999985
11
155.5456709999999987
21
-95.5309699999999964
0
LINE
8
BLACK
6
CONTINUOUS
10
155.5456709999999987
20
-95.5309699999999964
11
155.4499999999999886
21
-95.5499999999999972
0
LINE
8
BLACK
6
CONTINUOUS
10
155.4499999999999886
20
-95.5499999999999972
11
154.5499999999999829
21
-95.5499999999999972
0
LINE
8
BLACK
6
CONTINUOUS
10
154.5499999999999829
20
-95.5499999999999972
11
154.4543290000000013
21
-95.5309699999999964
0
LINE
8
BLACK
6
CONTINUOUS
10
154.4543290000000013
20
-95.5309699999999964
11
154.3732229999999959
21
-95.4767769999999985
0
LINE
8
BLACK
6
CONTINUOUS
10
154.3732229999999959
20
-95.4767769999999985
11
154.3190299999999979
21
-95.395670999999993
0
LINE
8
BLACK
6
CONTINUOUS
10
154.3190299999999979
20
-95.395670999999993
11
154.2999999999999829
21
-95.2999999999999972
0
LINE
8
BLACK
6
CONTINUOUS
10
154.2999999999999829
20
-95.2999999999999972
11
154.2999999999999829
21
-94.6499999999999915
0
LINE
8
BLACK
6
CONTINUOUS
10
154.2999999999999829
20
-94.6499999999999915
11
154.3190299999999979
21
-94.5543289999999956
0
LINE
8
BLACK
6
CONTINUOUS
10
154.3190299999999979
20
-94.5543289999999956
11
154.3732229999999959
21
-94.4732229999999902
0
LINE
8
BLACK
6
CONTINUOUS
10
154.3732229999999959
20
-94.4732229999999902
11
154.4543290000000013
21
-94.4190299999999922
0
LINE
8
BLACK
6
CONTINUOUS
10
154.4543290000000013
20
-94.4190299999999922
11
154.5499999999999829
21
-94.3999999999999915
0
LINE
8
BLACK
6
CONTINUOUS
10
154.5499999999999829
20
-94.3999999999999915
11
155.4499999999999886
21
-94.3999999999999915
0
LINE
8
BLACK
6
CONTINUOUS
10
155.4499999999999886
20
-94.3999999999999915
11
155.5456709999999987
21
-94.4190299999999922
0
LINE
8
BLACK
6
CONTINUOUS
10
122.9292749999999899
20
-93.7462379999999911
11
123.0103809999999953
21
-93.8004320000000007
0
LINE
8
BLACK
6
CONTINUOUS
10
123.0103809999999953
20
-93.8004320000000007
11
123.4699999999999989
21
-94.26005099999999
0
LINE
8
BLACK
6
CONTINUOUS
10
123.4699999999999989
20
-94.26005099999999
11
123.5241939999999943
21
-94.3411569999999955
0
LINE
8
BLACK
6
CONTINUOUS
10
123.5241939999999943
20
-94.3411569999999955
11
123.543223999999995
21
-94.4368279999999913
0
LINE
8
BLACK
6
CONTINUOUS
10
123.543223999999995
20
-94.4368279999999913
11
123.5241939999999943
21
-94.5324979999999897
0
LINE
8
BLACK
6
CONTINUOUS
10
123.5241939999999943
20
-94.5324979999999897
11
123.4699999999999989
21
-94.6136039999999952
0
LINE
8
BLACK
6
CONTINUOUS
10
123.4699999999999989
20
-94.6136039999999952
11
122.833603999999994
21
-95.25
0
LINE
8
BLACK
6
CONTINUOUS
10
122.833603999999994
20
-95.25
11
122.7524979999999886
21
-95.3041939999999954
0
LINE
8
BLACK
6
CONTINUOUS
10
122.7524979999999886
20
-95.3041939999999954
11
122.6568279999999902
21
-95.3232239999999962
0
LINE
8
BLACK
6
CONTINUOUS
10
122.6568279999999902
20
-95.3232239999999962
11
122.5611569999999944
21
-95.3041939999999954
0
LINE
8
BLACK
6
CONTINUOUS
10
122.5611569999999944
20
-95.3041939999999954
11
122.4800509999999889
21
-95.25
0
LINE
8
BLACK
6
CONTINUOUS
10
122.4800509999999889
20
-95.25
11
122.0204319999999996
21
-94.7903809999999964
0
LINE
8
BLACK
6
CONTINUOUS
10
122.0204319999999996
20
-94.7903809999999964
11
121.9662379999999899
21
-94.709274999999991
0
LINE
8
BLACK
6
CONTINUOUS
10
121.9662379999999899
20
-94.709274999999991
11
121.9472079999999892
21
-94.6136039999999952
0
LINE
8
BLACK
6
CONTINUOUS
10
121.9472079999999892
20
-94.6136039999999952
11
121.9662379999999899
21
-94.5179339999999968
0
LINE
8
BLACK
6
CONTINUOUS
10
121.9662379999999899
20
-94.5179339999999968
11
122.0204319999999996
21
-94.4368279999999913
0
LINE
8
BLACK
6
CONTINUOUS
10
122.0204319999999996
20
-94.4368279999999913
11
122.6568279999999902
21
-93.8004320000000007
0
LINE
8
BLACK
6
CONTINUOUS
10
122.6568279999999902
20
-93.8004320000000007
11
122.7379339999999956
21
-93.7462379999999911
0
LINE
8
BLACK
6
CONTINUOUS
10
122.7379339999999956
20
-93.7462379999999911
11
122.833603999999994
21
-93.7272079999999903
0
LINE
8
BLACK
6
CONTINUOUS
10
122.833603999999994
20
-93.7272079999999903
11
122.9292749999999899
21
-93.7462379999999911
0
LINE
8
BLACK
6
CONTINUOUS
10
146.5956709999999816
20
-93.4240300000000019
11
146.6767769999999871
21
-93.4782229999999998
0
LINE
8
BLACK
6
CONTINUOUS
10
146.6767769999999871
20
-93.4782229999999998
11
146.730969999999985
21
-93.5593289999999911
0
LINE
8
BLACK
6
CONTINUOUS
10
146.730969999999985
20
-93.5593289999999911
11
146.75
21
-93.6550000000000011
0
LINE
8
BLACK
6
CONTINUOUS
10
146.75
20
-93.6550000000000011
11
146.75
21
-94.3049999999999926
0
LINE
8
BLACK
6
CONTINUOUS
10
146.75
20
-94.3049999999999926
11
146.730969999999985
21
-94.4006710000000027
0
LINE
8
BLACK
6
CONTINUOUS
10
146.730969999999985
20
-94.4006710000000027
11
146.6767769999999871
21
-94.4817769999999939
0
LINE
8
BLACK
6
CONTINUOUS
10
146.6767769999999871
20
-94.4817769999999939
11
146.5956709999999816
21
-94.5359699999999918
0
LINE
8
BLACK
6
CONTINUOUS
10
146.5956709999999816
20
-94.5359699999999918
11
146.5
21
-94.5549999999999926
0
LINE
8
BLACK
6
CONTINUOUS
10
146.5
20
-94.5549999999999926
11
145.5999999999999943
21
-94.5549999999999926
0
LINE
8
BLACK
6
CONTINUOUS
10
145.5999999999999943
20
-94.5549999999999926
11
145.5043289999999843
21
-94.5359699999999918
0
LINE
8
BLACK
6
CONTINUOUS
10
145.5043289999999843
20
-94.5359699999999918
11
145.4232230000000072
21
-94.4817769999999939
0
LINE
8
BLACK
6
CONTINUOUS
10
145.4232230000000072
20
-94.4817769999999939
11
145.3690299999999809
21
-94.4006710000000027
0
LINE
8
BLACK
6
CONTINUOUS
10
145.3690299999999809
20
-94.4006710000000027
11
145.3499999999999943
21
-94.3049999999999926
0
LINE
8
BLACK
6
CONTINUOUS
10
145.3499999999999943
20
-94.3049999999999926
11
145.3499999999999943
21
-93.6550000000000011
0
LINE
8
BLACK
6
CONTINUOUS
10
145.3499999999999943
20
-93.6550000000000011
11
145.3690299999999809
21
-93.5593289999999911
0
LINE
8
BLACK
6
CONTINUOUS
10
145.3690299999999809
20
-93.5593289999999911
11
145.4232230000000072
21
-93.4782229999999998
0
LINE
8
BLACK
6
CONTINUOUS
10
145.4232230000000072
20
-93.4782229999999998
11
145.5043289999999843
21
-93.4240300000000019
0
LINE
8
BLACK
6
CONTINUOUS
10
145.5043289999999843
20
-93.4240300000000019
11
145.5999999999999943
21
-93.4050000000000011
0
LINE
8
BLACK
6
CONTINUOUS
10
145.5999999999999943
20
-93.4050000000000011
11
146.5
21
-93.4050000000000011
0
LINE
8
BLACK
6
CONTINUOUS
10
146.5
20
-93.4050000000000011
11
146.5956709999999816
21
-93.4240300000000019
0
LINE
8
BLACK
6
CONTINUOUS
10
151.6756709999999941
20
-92.6440300000000008
11
151.7567769999999996
21
-92.6982229999999987
0
LINE
8
BLACK
6
CONTINUOUS
10
151.7567769999999996
20
-92.6982229999999987
11
151.8109699999999975
21
-92.7793289999999899
0
LINE
8
BLACK
6
CONTINUOUS
10
151.8109699999999975
20
-92.7793289999999899
11
151.8299999999999841
21
-92.875
0
LINE
8
BLACK
6
CONTINUOUS
10
151.8299999999999841
20
-92.875
11
151.8299999999999841
21
-93.5249999999999915
0
LINE
8
BLACK
6
CONTINUOUS
10
151.8299999999999841
20
-93.5249999999999915
11
151.8109699999999975
21
-93.6206710000000015
0
LINE
8
BLACK
6
CONTINUOUS
10
151.8109699999999975
20
-93.6206710000000015
11
151.7567769999999996
21
-93.7017769999999928
0
LINE
8
BLACK
6
CONTINUOUS
10
151.7567769999999996
20
-93.7017769999999928
11
151.6756709999999941
21
-93.7559699999999907
0
LINE
8
BLACK
6
CONTINUOUS
10
151.6756709999999941
20
-93.7559699999999907
11
151.5799999999999841
21
-93.7749999999999915
0
LINE
8
BLACK
6
CONTINUOUS
10
151.5799999999999841
20
-93.7749999999999915
11
150.6800000000000068
21
-93.7749999999999915
0
LINE
8
BLACK
6
CONTINUOUS
10
150.6800000000000068
20
-93.7749999999999915
11
150.5843289999999968
21
-93.7559699999999907
0
LINE
8
BLACK
6
CONTINUOUS
10
150.5843289999999968
20
-93.7559699999999907
11
150.5032229999999913
21
-93.7017769999999928
0
LINE
8
BLACK
6
CONTINUOUS
10
150.5032229999999913
20
-93.7017769999999928
11
150.4490299999999934
21
-93.6206710000000015
0
LINE
8
BLACK
6
CONTINUOUS
10
150.4490299999999934
20
-93.6206710000000015
11
150.4300000000000068
21
-93.5249999999999915
0
LINE
8
BLACK
6
CONTINUOUS
10
150.4300000000000068
20
-93.5249999999999915
11
150.4300000000000068
21
-92.875
0
LINE
8
BLACK
6
CONTINUOUS
10
150.4300000000000068
20
-92.875
11
150.4490299999999934
21
-92.7793289999999899
0
LINE
8
BLACK
6
CONTINUOUS
10
150.4490299999999934
20
-92.7793289999999899
11
150.5032229999999913
21
-92.6982229999999987
0
LINE
8
BLACK
6
CONTINUOUS
10
150.5032229999999913
20
-92.6982229999999987
11
150.5843289999999968
21
-92.6440300000000008
0
LINE
8
BLACK
6
CONTINUOUS
10
150.5843289999999968
20
-92.6440300000000008
11
150.6800000000000068
21
-92.625
0
LINE
8
BLACK
6
CONTINUOUS
10
150.6800000000000068
20
-92.625
11
151.5799999999999841
21
-92.625
0
LINE
8
BLACK
6
CONTINUOUS
10
151.5799999999999841
20
-92.625
11
151.6756709999999941
21
-92.6440300000000008
0
LINE
8
BLACK
6
CONTINUOUS
10
137.8806710000000066
20
-92.35902999999999
11
137.9617769999999837
21
-92.4132230000000021
0
LINE
8
BLACK
6
CONTINUOUS
10
137.9617769999999837
20
-92.4132230000000021
11
138.0159699999999816
21
-92.4943289999999934
0
LINE
8
BLACK
6
CONTINUOUS
10
138.0159699999999816
20
-92.4943289999999934
11
138.0349999999999966
21
-92.5899999999999892
0
LINE
8
BLACK
6
CONTINUOUS
10
138.0349999999999966
20
-92.5899999999999892
11
138.0349999999999966
21
-93.3900000000000006
0
LINE
8
BLACK
6
CONTINUOUS
10
138.0349999999999966
20
-93.3900000000000006
11
138.0159699999999816
21
-93.4856709999999964
0
LINE
8
BLACK
6
CONTINUOUS
10
138.0159699999999816
20
-93.4856709999999964
11
137.9617769999999837
21
-93.5667770000000019
0
LINE
8
BLACK
6
CONTINUOUS
10
137.9617769999999837
20
-93.5667770000000019
11
137.8806710000000066
21
-93.6209699999999998
0
LINE
8
BLACK
6
CONTINUOUS
10
137.8806710000000066
20
-93.6209699999999998
11
137.7849999999999966
21
-93.6400000000000006
0
LINE
8
BLACK
6
CONTINUOUS
10
137.7849999999999966
20
-93.6400000000000006
11
136.5349999999999966
21
-93.6400000000000006
0
LINE
8
BLACK
6
CONTINUOUS
10
136.5349999999999966
20
-93.6400000000000006
11
136.4393289999999865
21
-93.6209699999999998
0
LINE
8
BLACK
6
CONTINUOUS
10
136.4393289999999865
20
-93.6209699999999998
11
136.3582229999999811
21
-93.5667770000000019
0
LINE
8
BLACK
6
CONTINUOUS
10
136.3582229999999811
20
-93.5667770000000019
11
136.3040299999999831
21
-93.4856709999999964
0
LINE
8
BLACK
6
CONTINUOUS
10
136.3040299999999831
20
-93.4856709999999964
11
136.2849999999999966
21
-93.3900000000000006
0
LINE
8
BLACK
6
CONTINUOUS
10
136.2849999999999966
20
-93.3900000000000006
11
136.2849999999999966
21
-92.5899999999999892
0
LINE
8
BLACK
6
CONTINUOUS
10
136.2849999999999966
20
-92.5899999999999892
11
136.3040299999999831
21
-92.4943289999999934
0
LINE
8
BLACK
6
CONTINUOUS
10
136.3040299999999831
20
-92.4943289999999934
11
136.3582229999999811
21
-92.4132230000000021
0
LINE
8
BLACK
6
CONTINUOUS
10
136.3582229999999811
20
-92.4132230000000021
11
136.4393289999999865
21
-92.35902999999999
0
LINE
8
BLACK
6
CONTINUOUS
10
136.4393289999999865
20
-92.35902999999999
11
136.5349999999999966
21
-92.3399999999999892
0
LINE
8
BLACK
6
CONTINUOUS
10
136.5349999999999966
20
-92.3399999999999892
11
137.7849999999999966
21
-92.3399999999999892
0
LINE
8
BLACK
6
CONTINUOUS
10
137.7849999999999966
20
-92.3399999999999892
11
137.8806710000000066
21
-92.35902999999999
0
LINE
8
BLACK
6
CONTINUOUS
10
135.3406709999999862
20
-91.5190300000000008
11
135.4217769999999916
21
-91.5732229999999987
0
LINE
8
BLACK
6
CONTINUOUS
10
135.4217769999999916
20
-91.5732229999999987
11
135.4759699999999896
21
-91.6543289999999899
0
LINE
8
BLACK
6
CONTINUOUS
10
135.4759699999999896
20
-91.6543289999999899
11
135.4950000000000045
21
-91.75
0
LINE
8
BLACK
6
CONTINUOUS
10
135.4950000000000045
20
-91.75
11
135.4950000000000045
21
-92.5499999999999972
0
LINE
8
BLACK
6
CONTINUOUS
10
135.4950000000000045
20
-92.5499999999999972
11
135.4759699999999896
21
-92.645670999999993
0
LINE
8
BLACK
6
CONTINUOUS
10
135.4759699999999896
20
-92.645670999999993
11
135.4217769999999916
21
-92.7267769999999985
0
LINE
8
BLACK
6
CONTINUOUS
10
135.4217769999999916
20
-92.7267769999999985
11
135.3406709999999862
21
-92.7809699999999964
0
LINE
8
BLACK
6
CONTINUOUS
10
135.3406709999999862
20
-92.7809699999999964
11
135.2450000000000045
21
-92.7999999999999972
0
LINE
8
BLACK
6
CONTINUOUS
10
135.2450000000000045
20
-92.7999999999999972
11
133.9950000000000045
21
-92.7999999999999972
0
LINE
8
BLACK
6
CONTINUOUS
10
133.9950000000000045
20
-92.7999999999999972
11
133.8993289999999945
21
-92.7809699999999964
0
LINE
8
BLACK
6
CONTINUOUS
10
133.8993289999999945
20
-92.7809699999999964
11
133.818222999999989
21
-92.7267769999999985
0
LINE
8
BLACK
6
CONTINUOUS
10
133.818222999999989
20
-92.7267769999999985
11
133.7640299999999911
21
-92.645670999999993
0
LINE
8
BLACK
6
CONTINUOUS
10
133.7640299999999911
20
-92.645670999999993
11
133.7450000000000045
21
-92.5499999999999972
0
LINE
8
BLACK
6
CONTINUOUS
10
133.7450000000000045
20
-92.5499999999999972
11
133.7450000000000045
21
-91.75
0
LINE
8
BLACK
6
CONTINUOUS
10
133.7450000000000045
20
-91.75
11
133.7640299999999911
21
-91.6543289999999899
0
LINE
8
BLACK
6
CONTINUOUS
10
133.7640299999999911
20
-91.6543289999999899
11
133.818222999999989
21
-91.5732229999999987
0
LINE
8
BLACK
6
CONTINUOUS
10
133.818222999999989
20
-91.5732229999999987
11
133.8993289999999945
21
-91.5190300000000008
0
LINE
8
BLACK
6
CONTINUOUS
10
133.8993289999999945
20
-91.5190300000000008
11
133.9950000000000045
21
-91.5
0
LINE
8
BLACK
6
CONTINUOUS
10
133.9950000000000045
20
-91.5
11
135.2450000000000045
21
-91.5
0
LINE
8
BLACK
6
CONTINUOUS
10
135.2450000000000045
20
-91.5
11
135.3406709999999862
21
-91.5190300000000008
0
LINE
8
BLACK
6
CONTINUOUS
10
146.5956709999999816
20
-91.3740299999999905
11
146.6767769999999871
21
-91.4282230000000027
0
LINE
8
BLACK
6
CONTINUOUS
10
146.6767769999999871
20
-91.4282230000000027
11
146.730969999999985
21
-91.5093289999999939
0
LINE
8
BLACK
6
CONTINUOUS
10
146.730969999999985
20
-91.5093289999999939
11
146.75
21
-91.6049999999999898
0
LINE
8
BLACK
6
CONTINUOUS
10
146.75
20
-91.6049999999999898
11
146.75
21
-92.2549999999999955
0
LINE
8
BLACK
6
CONTINUOUS
10
146.75
20
-92.2549999999999955
11
146.730969999999985
21
-92.3506709999999913
0
LINE
8
BLACK
6
CONTINUOUS
10
146.730969999999985
20
-92.3506709999999913
11
146.6767769999999871
21
-92.4317769999999967
0
LINE
8
BLACK
6
CONTINUOUS
10
146.6767769999999871
20
-92.4317769999999967
11
146.5956709999999816
21
-92.4859699999999947
0
LINE
8
BLACK
6
CONTINUOUS
10
146.5956709999999816
20
-92.4859699999999947
11
146.5
21
-92.5049999999999955
0
LINE
8
BLACK
6
CONTINUOUS
10
146.5
20
-92.5049999999999955
11
145.5999999999999943
21
-92.5049999999999955
0
LINE
8
BLACK
6
CONTINUOUS
10
145.5999999999999943
20
-92.5049999999999955
11
145.5043289999999843
21
-92.4859699999999947
0
LINE
8
BLACK
6
CONTINUOUS
10
145.5043289999999843
20
-92.4859699999999947
11
145.4232230000000072
21
-92.4317769999999967
0
LINE
8
BLACK
6
CONTINUOUS
10
145.4232230000000072
20
-92.4317769999999967
11
145.3690299999999809
21
-92.3506709999999913
0
LINE
8
BLACK
6
CONTINUOUS
10
145.3690299999999809
20
-92.3506709999999913
11
145.3499999999999943
21
-92.2549999999999955
0
LINE
8
BLACK
6
CONTINUOUS
10
145.3499999999999943
20
-92.2549999999999955
11
145.3499999999999943
21
-91.6049999999999898
0
LINE
8
BLACK
6
CONTINUOUS
10
145.3499999999999943
20
-91.6049999999999898
11
145.3690299999999809
21
-91.5093289999999939
0
LINE
8
BLACK
6
CONTINUOUS
10
145.3690299999999809
20
-91.5093289999999939
11
145.4232230000000072
21
-91.4282230000000027
0
LINE
8
BLACK
6
CONTINUOUS
10
145.4232230000000072
20
-91.4282230000000027
11
145.5043289999999843
21
-91.3740299999999905
0
LINE
8
BLACK
6
CONTINUOUS
10
145.5043289999999843
20
-91.3740299999999905
11
145.5999999999999943
21
-91.3549999999999898
0
LINE
8
BLACK
6
CONTINUOUS
10
145.5999999999999943
20
-91.3549999999999898
11
146.5
21
-91.3549999999999898
0
LINE
8
BLACK
6
CONTINUOUS
10
146.5
20
-91.3549999999999898
11
146.5956709999999816
21
-91.3740299999999905
0
LINE
8
BLACK
6
CONTINUOUS
10
137.8806710000000066
20
-89.2590299999999957
11
137.9617769999999837
21
-89.3132229999999936
0
LINE
8
BLACK
6
CONTINUOUS
10
137.9617769999999837
20
-89.3132229999999936
11
138.0159699999999816
21
-89.394328999999999
0
LINE
8
BLACK
6
CONTINUOUS
10
138.0159699999999816
20
-89.394328999999999
11
138.0349999999999966
21
-89.4899999999999949
0
LINE
8
BLACK
6
CONTINUOUS
10
138.0349999999999966
20
-89.4899999999999949
11
138.0349999999999966
21
-90.289999999999992
0
LINE
8
BLACK
6
CONTINUOUS
10
138.0349999999999966
20
-90.289999999999992
11
138.0159699999999816
21
-90.3856710000000021
0
LINE
8
BLACK
6
CONTINUOUS
10
138.0159699999999816
20
-90.3856710000000021
11
137.9617769999999837
21
-90.4667769999999933
0
LINE
8
BLACK
6
CONTINUOUS
10
137.9617769999999837
20
-90.4667769999999933
11
137.8806710000000066
21
-90.5209699999999913
0
LINE
8
BLACK
6
CONTINUOUS
10
137.8806710000000066
20
-90.5209699999999913
11
137.7849999999999966
21
-90.539999999999992
0
LINE
8
BLACK
6
CONTINUOUS
10
137.7849999999999966
20
-90.539999999999992
11
136.5349999999999966
21
-90.539999999999992
0
LINE
8
BLACK
6
CONTINUOUS
10
136.5349999999999966
20
-90.539999999999992
11
136.4393289999999865
21
-90.5209699999999913
0
LINE
8
BLACK
6
CONTINUOUS
10
136.4393289999999865
20
-90.5209699999999913
11
136.3582229999999811
21
-90.4667769999999933
0
LINE
8
BLACK
6
CONTINUOUS
10
136.3582229999999811
20
-90.4667769999999933
11
136.3040299999999831
21
-90.3856710000000021
0
LINE
8
BLACK
6
CONTINUOUS
10
136.3040299999999831
20
-90.3856710000000021
11
136.2849999999999966
21
-90.289999999999992
0
LINE
8
BLACK
6
CONTINUOUS
10
136.2849999999999966
20
-90.289999999999992
11
136.2849999999999966
21
-89.4899999999999949
0
LINE
8
BLACK
6
CONTINUOUS
10
136.2849999999999966
20
-89.4899999999999949
11
136.3040299999999831
21
-89.394328999999999
0
LINE
8
BLACK
6
CONTINUOUS
10
136.3040299999999831
20
-89.394328999999999
11
136.3582229999999811
21
-89.3132229999999936
0
LINE
8
BLACK
6
CONTINUOUS
10
136.3582229999999811
20
-89.3132229999999936
11
136.4393289999999865
21
-89.2590299999999957
0
LINE
8
BLACK
6
CONTINUOUS
10
136.4393289999999865
20
-89.2590299999999957
11
136.5349999999999966
21
-89.2399999999999949
0
LINE
8
BLACK
6
CONTINUOUS
10
136.5349999999999966
20
-89.2399999999999949
11
137.7849999999999966
21
-89.2399999999999949
0
LINE
8
BLACK
6
CONTINUOUS
10
137.7849999999999966
20
-89.2399999999999949
11
137.8806710000000066
21
-89.2590299999999957
0
LINE
8
BLACK
6
CONTINUOUS
10
129.9606709999999907
20
-88.2190299999999894
11
130.0417769999999962
21
-88.2732230000000015
0
LINE
8
BLACK
6
CONTINUOUS
10
130.0417769999999962
20
-88.2732230000000015
11
130.0959699999999941
21
-88.3543289999999928
0
LINE
8
BLACK
6
CONTINUOUS
10
130.0959699999999941
20
-88.3543289999999928
11
130.1149999999999807
21
-88.4500000000000028
0
LINE
8
BLACK
6
CONTINUOUS
10
130.1149999999999807
20
-88.4500000000000028
11
130.1149999999999807
21
-89.3499999999999943
0
LINE
8
BLACK
6
CONTINUOUS
10
130.1149999999999807
20
-89.3499999999999943
11
130.0959699999999941
21
-89.4456709999999902
0
LINE
8
BLACK
6
CONTINUOUS
10
130.0959699999999941
20
-89.4456709999999902
11
130.0417769999999962
21
-89.5267769999999956
0
LINE
8
BLACK
6
CONTINUOUS
10
130.0417769999999962
20
-89.5267769999999956
11
129.9606709999999907
21
-89.5809699999999935
0
LINE
8
BLACK
6
CONTINUOUS
10
129.9606709999999907
20
-89.5809699999999935
11
129.8649999999999807
21
-89.5999999999999943
0
LINE
8
BLACK
6
CONTINUOUS
10
129.8649999999999807
20
-89.5999999999999943
11
129.2150000000000034
21
-89.5999999999999943
0
LINE
8
BLACK
6
CONTINUOUS
10
129.2150000000000034
20
-89.5999999999999943
11
129.1193289999999934
21
-89.5809699999999935
0
LINE
8
BLACK
6
CONTINUOUS
10
129.1193289999999934
20
-89.5809699999999935
11
129.0382229999999879
21
-89.5267769999999956
0
LINE
8
BLACK
6
CONTINUOUS
10
129.0382229999999879
20
-89.5267769999999956
11
128.98402999999999
21
-89.4456709999999902
0
LINE
8
BLACK
6
CONTINUOUS
10
128.98402999999999
20
-89.4456709999999902
11
128.9650000000000034
21
-89.3499999999999943
0
LINE
8
BLACK
6
CONTINUOUS
10
128.9650000000000034
20
-89.3499999999999943
11
128.9650000000000034
21
-88.4500000000000028
0
LINE
8
BLACK
6
CONTINUOUS
10
128.9650000000000034
20
-88.4500000000000028
11
128.98402999999999
21
-88.3543289999999928
0
LINE
8
BLACK
6
CONTINUOUS
10
128.98402999999999
20
-88.3543289999999928
11
129.0382229999999879
21
-88.2732230000000015
0
LINE
8
BLACK
6
CONTINUOUS
10
129.0382229999999879
20
-88.2732230000000015
11
129.1193289999999934
21
-88.2190299999999894
0
LINE
8
BLACK
6
CONTINUOUS
10
129.1193289999999934
20
-88.2190299999999894
11
129.2150000000000034
21
-88.2000000000000028
0
LINE
8
BLACK
6
CONTINUOUS
10
129.2150000000000034
20
-88.2000000000000028
11
129.8649999999999807
21
-88.2000000000000028
0
LINE
8
BLACK
6
CONTINUOUS
10
129.8649999999999807
20
-88.2000000000000028
11
129.9606709999999907
21
-88.2190299999999894
0
LINE
8
BLACK
6
CONTINUOUS
10
132.0106710000000021
20
-88.2190299999999894
11
132.0917770000000075
21
-88.2732230000000015
0
LINE
8
BLACK
6
CONTINUOUS
10
132.0917770000000075
20
-88.2732230000000015
11
132.1459700000000055
21
-88.3543289999999928
0
LINE
8
BLACK
6
CONTINUOUS
10
132.1459700000000055
20
-88.3543289999999928
11
132.164999999999992
21
-88.4500000000000028
0
LINE
8
BLACK
6
CONTINUOUS
10
132.164999999999992
20
-88.4500000000000028
11
132.164999999999992
21
-89.3499999999999943
0
LINE
8
BLACK
6
CONTINUOUS
10
132.164999999999992
20
-89.3499999999999943
11
132.1459700000000055
21
-89.4456709999999902
0
LINE
8
BLACK
6
CONTINUOUS
10
132.1459700000000055
20
-89.4456709999999902
11
132.0917770000000075
21
-89.5267769999999956
0
LINE
8
BLACK
6
CONTINUOUS
10
132.0917770000000075
20
-89.5267769999999956
11
132.0106710000000021
21
-89.5809699999999935
0
LINE
8
BLACK
6
CONTINUOUS
10
132.0106710000000021
20
-89.5809699999999935
11
131.914999999999992
21
-89.5999999999999943
0
LINE
8
BLACK
6
CONTINUOUS
10
131.914999999999992
20
-89.5999999999999943
11
131.2649999999999864
21
-89.5999999999999943
0
LINE
8
BLACK
6
CONTINUOUS
10
131.2649999999999864
20
-89.5999999999999943
11
131.1693290000000047
21
-89.5809699999999935
0
LINE
8
BLACK
6
CONTINUOUS
10
131.1693290000000047
20
-89.5809699999999935
11
131.0882229999999993
21
-89.5267769999999956
0
LINE
8
BLACK
6
CONTINUOUS
10
131.0882229999999993
20
-89.5267769999999956
11
131.0340300000000013
21
-89.4456709999999902
0
LINE
8
BLACK
6
CONTINUOUS
10
131.0340300000000013
20
-89.4456709999999902
11
131.0149999999999864
21
-89.3499999999999943
0
LINE
8
BLACK
6
CONTINUOUS
10
131.0149999999999864
20
-89.3499999999999943
11
131.0149999999999864
21
-88.4500000000000028
0
LINE
8
BLACK
6
CONTINUOUS
10
131.0149999999999864
20
-88.4500000000000028
11
131.0340300000000013
21
-88.3543289999999928
0
LINE
8
BLACK
6
CONTINUOUS
10
131.0340300000000013
20
-88.3543289999999928
11
131.0882229999999993
21
-88.2732230000000015
0
LINE
8
BLACK
6
CONTINUOUS
10
131.0882229999999993
20
-88.2732230000000015
11
131.1693290000000047
21
-88.2190299999999894
0
LINE
8
BLACK
6
CONTINUOUS
10
131.1693290000000047
20
-88.2190299999999894
11
131.2649999999999864
21
-88.2000000000000028
0
LINE
8
BLACK
6
CONTINUOUS
10
131.2649999999999864
20
-88.2000000000000028
11
131.914999999999992
21
-88.2000000000000028
0
LINE
8
BLACK
6
CONTINUOUS
10
131.914999999999992
20
-88.2000000000000028
11
132.0106710000000021
21
-88.2190299999999894
0
LINE
8
BLACK
6
CONTINUOUS
10
132.7456709999999873
20
-84.4090300000000013
11
132.8267769999999928
21
-84.4632229999999993
0
LINE
8
BLACK
6
CONTINUOUS
10
132.8267769999999928
20
-84.4632229999999993
11
132.8809699999999907
21
-84.5443289999999905
0
LINE
8
BLACK
6
CONTINUOUS
10
132.8809699999999907
20
-84.5443289999999905
11
132.9000000000000057
21
-84.6400000000000006
0
LINE
8
BLACK
6
CONTINUOUS
10
132.9000000000000057
20
-84.6400000000000006
11
132.9000000000000057
21
-85.539999999999992
0
LINE
8
BLACK
6
CONTINUOUS
10
132.9000000000000057
20
-85.539999999999992
11
132.8809699999999907
21
-85.6356710000000021
0
LINE
8
BLACK
6
CONTINUOUS
10
132.8809699999999907
20
-85.6356710000000021
11
132.8267769999999928
21
-85.7167769999999933
0
LINE
8
BLACK
6
CONTINUOUS
10
132.8267769999999928
20
-85.7167769999999933
11
132.7456709999999873
21
-85.7709699999999913
0
LINE
8
BLACK
6
CONTINUOUS
10
132.7456709999999873
20
-85.7709699999999913
11
132.6500000000000057
21
-85.789999999999992
0
LINE
8
BLACK
6
CONTINUOUS
10
132.6500000000000057
20
-85.789999999999992
11
132.
21
-85.789999999999992
0
LINE
8
BLACK
6
CONTINUOUS
10
132.
20
-85.789999999999992
11
131.9043289999999899
21
-85.7709699999999913
0
LINE
8
BLACK
6
CONTINUOUS
10
131.9043289999999899
20
-85.7709699999999913
11
131.8232229999999845
21
-85.7167769999999933
0
LINE
8
BLACK
6
CONTINUOUS
10
131.8232229999999845
20
-85.7167769999999933
11
131.7690299999999866
21
-85.6356710000000021
0
LINE
8
BLACK
6
CONTINUOUS
10
131.7690299999999866
20
-85.6356710000000021
11
131.75
21
-85.539999999999992
0
LINE
8
BLACK
6
CONTINUOUS
10
131.75
20
-85.539999999999992
11
131.75
21
-84.6400000000000006
0
LINE
8
BLACK
6
CONTINUOUS
10
131.75
20
-84.6400000000000006
11
131.7690299999999866
21
-84.5443289999999905
0
LINE
8
BLACK
6
CONTINUOUS
10
131.7690299999999866
20
-84.5443289999999905
11
131.8232229999999845
21
-84.4632229999999993
0
LINE
8
BLACK
6
CONTINUOUS
10
131.8232229999999845
20
-84.4632229999999993
11
131.9043289999999899
21
-84.4090300000000013
0
LINE
8
BLACK
6
CONTINUOUS
10
131.9043289999999899
20
-84.4090300000000013
11
132.
21
-84.3900000000000006
0
LINE
8
BLACK
6
CONTINUOUS
10
132.
20
-84.3900000000000006
11
132.6500000000000057
21
-84.3900000000000006
0
LINE
8
BLACK
6
CONTINUOUS
10
132.6500000000000057
20
-84.3900000000000006
11
132.7456709999999873
21
-84.4090300000000013
0
LINE
8
BLACK
6
CONTINUOUS
10
134.7956709999999987
20
-84.4090300000000013
11
134.8767770000000041
21
-84.4632229999999993
0
LINE
8
BLACK
6
CONTINUOUS
10
134.8767770000000041
20
-84.4632229999999993
11
134.9309700000000021
21
-84.5443289999999905
0
LINE
8
BLACK
6
CONTINUOUS
10
134.9309700000000021
20
-84.5443289999999905
11
134.9499999999999886
21
-84.6400000000000006
0
LINE
8
BLACK
6
CONTINUOUS
10
134.9499999999999886
20
-84.6400000000000006
11
134.9499999999999886
21
-85.539999999999992
0
LINE
8
BLACK
6
CONTINUOUS
10
134.9499999999999886
20
-85.539999999999992
11
134.9309700000000021
21
-85.6356710000000021
0
LINE
8
BLACK
6
CONTINUOUS
10
134.9309700000000021
20
-85.6356710000000021
11
134.8767770000000041
21
-85.7167769999999933
0
LINE
8
BLACK
6
CONTINUOUS
10
134.8767770000000041
20
-85.7167769999999933
11
134.7956709999999987
21
-85.7709699999999913
0
LINE
8
BLACK
6
CONTINUOUS
10
134.7956709999999987
20
-85.7709699999999913
11
134.6999999999999886
21
-85.789999999999992
0
LINE
8
BLACK
6
CONTINUOUS
10
134.6999999999999886
20
-85.789999999999992
11
134.0499999999999829
21
-85.789999999999992
0
LINE
8
BLACK
6
CONTINUOUS
10
134.0499999999999829
20
-85.789999999999992
11
133.9543290000000013
21
-85.7709699999999913
0
LINE
8
BLACK
6
CONTINUOUS
10
133.9543290000000013
20
-85.7709699999999913
11
133.8732229999999959
21
-85.7167769999999933
0
LINE
8
BLACK
6
CONTINUOUS
10
133.8732229999999959
20
-85.7167769999999933
11
133.8190299999999979
21
-85.6356710000000021
0
LINE
8
BLACK
6
CONTINUOUS
10
133.8190299999999979
20
-85.6356710000000021
11
133.7999999999999829
21
-85.539999999999992
0
LINE
8
BLACK
6
CONTINUOUS
10
133.7999999999999829
20
-85.539999999999992
11
133.7999999999999829
21
-84.6400000000000006
0
LINE
8
BLACK
6
CONTINUOUS
10
133.7999999999999829
20
-84.6400000000000006
11
133.8190299999999979
21
-84.5443289999999905
0
LINE
8
BLACK
6
CONTINUOUS
10
133.8190299999999979
20
-84.5443289999999905
11
133.8732229999999959
21
-84.4632229999999993
0
LINE
8
BLACK
6
CONTINUOUS
10
133.8732229999999959
20
-84.4632229999999993
11
133.9543290000000013
21
-84.4090300000000013
0
LINE
8
BLACK
6
CONTINUOUS
10
133.9543290000000013
20
-84.4090300000000013
11
134.0499999999999829
21
-84.3900000000000006
0
LINE
8
BLACK
6
CONTINUOUS
10
134.0499999999999829
20
-84.3900000000000006
11
134.6999999999999886
21
-84.3900000000000006
0
LINE
8
BLACK
6
CONTINUOUS
10
134.6999999999999886
20
-84.3900000000000006
11
134.7956709999999987
21
-84.4090300000000013
  0
ENDSEC
  0
EOF
