G04 #@! TF.GenerationSoftware,KiCad,Pcbnew,8.0.6+1*
G04 #@! TF.CreationDate,2024-12-11T00:24:30+00:00*
G04 #@! TF.ProjectId,stencil,7374656e-6369-46c2-9e6b-696361645f70,rev?*
G04 #@! TF.SameCoordinates,Original*
G04 #@! TF.FileFunction,Paste,Top*
G04 #@! TF.FilePolarity,Positive*
%FSLAX46Y46*%
G04 Gerber Fmt 4.6, Leading zero omitted, Abs format (unit mm)*
G04 Created by KiCad (PCBNEW 8.0.6+1) date 2024-12-11 00:24:30*
%MOMM*%
%LPD*%
G01*
G04 APERTURE LIST*
G04 Aperture macros list*
%AMRoundRect*
0 Rectangle with rounded corners*
0 $1 Rounding radius*
0 $2 $3 $4 $5 $6 $7 $8 $9 X,Y pos of 4 corners*
0 Add a 4 corners polygon primitive as box body*
4,1,4,$2,$3,$4,$5,$6,$7,$8,$9,$2,$3,0*
0 Add four circle primitives for the rounded corners*
1,1,$1+$1,$2,$3*
1,1,$1+$1,$4,$5*
1,1,$1+$1,$6,$7*
1,1,$1+$1,$8,$9*
0 Add four rect primitives between the rounded corners*
20,1,$1+$1,$2,$3,$4,$5,0*
20,1,$1+$1,$4,$5,$6,$7,0*
20,1,$1+$1,$6,$7,$8,$9,0*
20,1,$1+$1,$8,$9,$2,$3,0*%
G04 Aperture macros list end*
%ADD10C,0.500000*%
%ADD11C,1.000000*%
%ADD12C,1.050000*%
%ADD13RoundRect,0.250000X0.625000X-0.400000X0.625000X0.400000X-0.625000X0.400000X-0.625000X-0.400000X0*%
%ADD14RoundRect,0.250000X0.400000X0.625000X-0.400000X0.625000X-0.400000X-0.625000X0.400000X-0.625000X0*%
%ADD15RoundRect,0.250000X0.475000X-0.337500X0.475000X0.337500X-0.475000X0.337500X-0.475000X-0.337500X0*%
%ADD16RoundRect,0.250000X0.548008X0.088388X0.088388X0.548008X-0.548008X-0.088388X-0.088388X-0.548008X0*%
%ADD17RoundRect,0.250000X-0.450000X0.325000X-0.450000X-0.325000X0.450000X-0.325000X0.450000X0.325000X0*%
%ADD18RoundRect,0.250000X-0.325000X-0.450000X0.325000X-0.450000X0.325000X0.450000X-0.325000X0.450000X0*%
%ADD19RoundRect,0.250000X-0.625000X0.400000X-0.625000X-0.400000X0.625000X-0.400000X0.625000X0.400000X0*%
%ADD20RoundRect,0.250000X-0.400000X-0.625000X0.400000X-0.625000X0.400000X0.625000X-0.400000X0.625000X0*%
%ADD21RoundRect,0.250000X0.337500X0.475000X-0.337500X0.475000X-0.337500X-0.475000X0.337500X-0.475000X0*%
%ADD22RoundRect,0.150000X-0.150000X0.825000X-0.150000X-0.825000X0.150000X-0.825000X0.150000X0.825000X0*%
%ADD23RoundRect,0.250000X-0.548008X-0.088388X-0.088388X-0.548008X0.548008X0.088388X0.088388X0.548008X0*%
%ADD24RoundRect,0.250000X0.325000X0.450000X-0.325000X0.450000X-0.325000X-0.450000X0.325000X-0.450000X0*%
G04 APERTURE END LIST*
D10*
X120144332Y-38239896D02*
G75*
G02*
X120644332Y-37739932I499968J-4D01*
G01*
X82444332Y-75939896D02*
G75*
G02*
X82944332Y-75439932I499968J-4D01*
G01*
X170244332Y-161739896D02*
G75*
G02*
X169744304Y-161239896I-32J499996D01*
G01*
X82444332Y-88339896D02*
G75*
G02*
X82944332Y-87839932I499968J-4D01*
G01*
D11*
X144944332Y-158489896D02*
G75*
G02*
X143944332Y-158489896I-500000J0D01*
G01*
X143944332Y-158489896D02*
G75*
G02*
X144944332Y-158489896I500000J0D01*
G01*
D10*
X206444332Y-38739896D02*
X206444332Y-49139896D01*
X133044332Y-37739896D02*
X143444332Y-37739896D01*
X107744332Y-38239896D02*
G75*
G02*
X108244332Y-37739932I499968J-4D01*
G01*
X205944332Y-149839896D02*
G75*
G02*
X206444304Y-150339896I-32J-500004D01*
G01*
X143444332Y-37739896D02*
G75*
G02*
X143944304Y-38239896I-32J-500004D01*
G01*
X182644332Y-37739896D02*
X193044332Y-37739896D01*
X206444332Y-51139896D02*
X206444332Y-61539896D01*
X82444332Y-150339896D02*
G75*
G02*
X82944332Y-149839932I499968J-4D01*
G01*
X157344332Y-38239896D02*
G75*
G02*
X157844332Y-37739932I499968J-4D01*
G01*
X82444332Y-63539896D02*
G75*
G02*
X82944332Y-63039932I499968J-4D01*
G01*
X206444332Y-160739896D02*
G75*
G02*
X205444332Y-161739932I-1000032J-4D01*
G01*
X205944332Y-63039896D02*
G75*
G02*
X206444304Y-63539896I-32J-500004D01*
G01*
X205944332Y-100239896D02*
G75*
G02*
X206444304Y-100739896I-32J-500004D01*
G01*
X82444332Y-137939896D02*
G75*
G02*
X82944332Y-137439932I499968J-4D01*
G01*
X155844332Y-37739896D02*
G75*
G02*
X156344304Y-38239896I-32J-500004D01*
G01*
X156344332Y-161239896D02*
G75*
G02*
X155844332Y-161739932I-500032J-4D01*
G01*
X94344332Y-161239896D02*
G75*
G02*
X93844332Y-161739932I-500032J-4D01*
G01*
X206444332Y-100739896D02*
X206444332Y-111139896D01*
X120644332Y-161739896D02*
X131044332Y-161739896D01*
X195044332Y-161739896D02*
G75*
G02*
X194544304Y-161239896I-32J499996D01*
G01*
X205944332Y-50639896D02*
G75*
G02*
X206444304Y-51139896I-32J-500004D01*
G01*
X108244332Y-37739896D02*
X118644332Y-37739896D01*
X205944332Y-125039896D02*
G75*
G02*
X206444304Y-125539896I-32J-500004D01*
G01*
D11*
X174319332Y-158489896D02*
G75*
G02*
X173319332Y-158489896I-500000J0D01*
G01*
X173319332Y-158489896D02*
G75*
G02*
X174319332Y-158489896I500000J0D01*
G01*
D10*
X195044332Y-161739896D02*
X205444332Y-161739896D01*
X194544332Y-38239896D02*
G75*
G02*
X195044332Y-37739932I499968J-4D01*
G01*
X95844332Y-161739896D02*
X106244332Y-161739896D01*
X82944332Y-99239896D02*
G75*
G02*
X82444304Y-98739896I-32J499996D01*
G01*
X82444332Y-51139896D02*
G75*
G02*
X82944332Y-50639932I499968J-4D01*
G01*
X182144332Y-38239896D02*
G75*
G02*
X182644332Y-37739932I499968J-4D01*
G01*
X205944332Y-112639896D02*
G75*
G02*
X206444304Y-113139896I-32J-500004D01*
G01*
X157844332Y-161739896D02*
G75*
G02*
X157344304Y-161239896I-32J499996D01*
G01*
D11*
X115569332Y-40989896D02*
G75*
G02*
X114569332Y-40989896I-500000J0D01*
G01*
X114569332Y-40989896D02*
G75*
G02*
X115569332Y-40989896I500000J0D01*
G01*
D12*
X203719332Y-40989896D02*
G75*
G02*
X202669332Y-40989896I-525000J0D01*
G01*
X202669332Y-40989896D02*
G75*
G02*
X203719332Y-40989896I525000J0D01*
G01*
D10*
X145444332Y-161739896D02*
G75*
G02*
X144944304Y-161239896I-32J499996D01*
G01*
X95844332Y-161739896D02*
G75*
G02*
X95344304Y-161239896I-32J499996D01*
G01*
X195044332Y-37739896D02*
X205444332Y-37739896D01*
X170244332Y-37739896D02*
X180644332Y-37739896D01*
X108244332Y-161739896D02*
X118644332Y-161739896D01*
X133044332Y-161739896D02*
X143444332Y-161739896D01*
X206444332Y-148339896D02*
G75*
G02*
X205944332Y-148839932I-500032J-4D01*
G01*
X181144332Y-161239896D02*
G75*
G02*
X180644332Y-161739932I-500032J-4D01*
G01*
X82944332Y-86839896D02*
G75*
G02*
X82444304Y-86339896I-32J499996D01*
G01*
X82944332Y-111639896D02*
G75*
G02*
X82444304Y-111139896I-32J499996D01*
G01*
X205944332Y-75439896D02*
G75*
G02*
X206444304Y-75939896I-32J-500004D01*
G01*
X118644332Y-37739896D02*
G75*
G02*
X119144304Y-38239896I-32J-500004D01*
G01*
X206444332Y-150339896D02*
X206444332Y-160739896D01*
X82444332Y-75939896D02*
X82444332Y-86339896D01*
X83444332Y-161739896D02*
X93844332Y-161739896D01*
X82444332Y-63539896D02*
X82444332Y-73939896D01*
D11*
X115569332Y-158489896D02*
G75*
G02*
X114569332Y-158489896I-500000J0D01*
G01*
X114569332Y-158489896D02*
G75*
G02*
X115569332Y-158489896I500000J0D01*
G01*
D10*
X170244332Y-161739896D02*
X180644332Y-161739896D01*
X205944332Y-137439896D02*
G75*
G02*
X206444304Y-137939896I-32J-500004D01*
G01*
X83444332Y-161739896D02*
G75*
G02*
X82444304Y-160739896I-32J999996D01*
G01*
X168744332Y-161239896D02*
G75*
G02*
X168244332Y-161739932I-500032J-4D01*
G01*
X206444332Y-73939896D02*
G75*
G02*
X205944332Y-74439932I-500032J-4D01*
G01*
X82944332Y-62039896D02*
G75*
G02*
X82444304Y-61539896I-32J499996D01*
G01*
D11*
X203694332Y-70364896D02*
G75*
G02*
X202694332Y-70364896I-500000J0D01*
G01*
X202694332Y-70364896D02*
G75*
G02*
X203694332Y-70364896I500000J0D01*
G01*
D10*
X193544332Y-161239896D02*
G75*
G02*
X193044332Y-161739932I-500032J-4D01*
G01*
X145444332Y-37739896D02*
X155844332Y-37739896D01*
X82444332Y-113139896D02*
G75*
G02*
X82944332Y-112639932I499968J-4D01*
G01*
D11*
X144944332Y-40989896D02*
G75*
G02*
X143944332Y-40989896I-500000J0D01*
G01*
X143944332Y-40989896D02*
G75*
G02*
X144944332Y-40989896I500000J0D01*
G01*
D10*
X82444332Y-150339896D02*
X82444332Y-160739896D01*
X82444332Y-38739896D02*
X82444332Y-49139896D01*
X206444332Y-125539896D02*
X206444332Y-135939896D01*
X82444332Y-38739896D02*
G75*
G02*
X83444332Y-37739932I999968J-4D01*
G01*
D11*
X203694332Y-99739896D02*
G75*
G02*
X202694332Y-99739896I-500000J0D01*
G01*
X202694332Y-99739896D02*
G75*
G02*
X203694332Y-99739896I500000J0D01*
G01*
D10*
X157844332Y-161739896D02*
X168244332Y-161739896D01*
D11*
X86194332Y-70364896D02*
G75*
G02*
X85194332Y-70364896I-500000J0D01*
G01*
X85194332Y-70364896D02*
G75*
G02*
X86194332Y-70364896I500000J0D01*
G01*
D10*
X206444332Y-75939896D02*
X206444332Y-86339896D01*
X131044332Y-37739896D02*
G75*
G02*
X131544304Y-38239896I-32J-500004D01*
G01*
X120644332Y-161739896D02*
G75*
G02*
X120144304Y-161239896I-32J499996D01*
G01*
X169744332Y-38239896D02*
G75*
G02*
X170244332Y-37739932I499968J-4D01*
G01*
X182644332Y-161739896D02*
X193044332Y-161739896D01*
X82444332Y-125539896D02*
G75*
G02*
X82944332Y-125039932I499968J-4D01*
G01*
X83444332Y-37739896D02*
X93844332Y-37739896D01*
X106744332Y-161239896D02*
G75*
G02*
X106244332Y-161739932I-500032J-4D01*
G01*
X95844332Y-37739896D02*
X106244332Y-37739896D01*
X82944332Y-124039896D02*
G75*
G02*
X82444304Y-123539896I-32J499996D01*
G01*
X131544332Y-161239896D02*
G75*
G02*
X131044332Y-161739932I-500032J-4D01*
G01*
X206444332Y-113139896D02*
X206444332Y-123539896D01*
X82944332Y-74439896D02*
G75*
G02*
X82444304Y-73939896I-32J499996D01*
G01*
X205444332Y-37739896D02*
G75*
G02*
X206444304Y-38739896I-32J-1000004D01*
G01*
X82444332Y-51139896D02*
X82444332Y-61539896D01*
X82444332Y-137939896D02*
X82444332Y-148339896D01*
X82444332Y-88339896D02*
X82444332Y-98739896D01*
X106244332Y-37739896D02*
G75*
G02*
X106744304Y-38239896I-32J-500004D01*
G01*
X119144332Y-161239896D02*
G75*
G02*
X118644332Y-161739932I-500032J-4D01*
G01*
X82944332Y-148839896D02*
G75*
G02*
X82444304Y-148339896I-32J499996D01*
G01*
X145444332Y-161739896D02*
X155844332Y-161739896D01*
X206444332Y-88339896D02*
X206444332Y-98739896D01*
X82444332Y-125539896D02*
X82444332Y-135939896D01*
X82944332Y-136439896D02*
G75*
G02*
X82444304Y-135939896I-32J499996D01*
G01*
X82444332Y-100739896D02*
X82444332Y-111139896D01*
X206444332Y-98739896D02*
G75*
G02*
X205944332Y-99239932I-500032J-4D01*
G01*
X206444332Y-49139896D02*
G75*
G02*
X205944332Y-49639932I-500032J-4D01*
G01*
X206444332Y-86339896D02*
G75*
G02*
X205944332Y-86839932I-500032J-4D01*
G01*
D12*
X86219332Y-158489896D02*
G75*
G02*
X85169332Y-158489896I-525000J0D01*
G01*
X85169332Y-158489896D02*
G75*
G02*
X86219332Y-158489896I525000J0D01*
G01*
D10*
X120644332Y-37739896D02*
X131044332Y-37739896D01*
X93844332Y-37739896D02*
G75*
G02*
X94344304Y-38239896I-32J-500004D01*
G01*
X206444332Y-123539896D02*
G75*
G02*
X205944332Y-124039932I-500032J-4D01*
G01*
D11*
X203694332Y-129114896D02*
G75*
G02*
X202694332Y-129114896I-500000J0D01*
G01*
X202694332Y-129114896D02*
G75*
G02*
X203694332Y-129114896I500000J0D01*
G01*
X174319332Y-40989896D02*
G75*
G02*
X173319332Y-40989896I-500000J0D01*
G01*
X173319332Y-40989896D02*
G75*
G02*
X174319332Y-40989896I500000J0D01*
G01*
D10*
X82444332Y-113139896D02*
X82444332Y-123539896D01*
X144944332Y-38239896D02*
G75*
G02*
X145444332Y-37739932I499968J-4D01*
G01*
X206444332Y-111139896D02*
G75*
G02*
X205944332Y-111639932I-500032J-4D01*
G01*
D11*
X86194332Y-129114896D02*
G75*
G02*
X85194332Y-129114896I-500000J0D01*
G01*
X85194332Y-129114896D02*
G75*
G02*
X86194332Y-129114896I500000J0D01*
G01*
D10*
X206444332Y-63539896D02*
X206444332Y-73939896D01*
X108244332Y-161739896D02*
G75*
G02*
X107744304Y-161239896I-32J499996D01*
G01*
X205944332Y-87839896D02*
G75*
G02*
X206444304Y-88339896I-32J-500004D01*
G01*
D12*
X203719332Y-158489896D02*
G75*
G02*
X202669332Y-158489896I-525000J0D01*
G01*
X202669332Y-158489896D02*
G75*
G02*
X203719332Y-158489896I525000J0D01*
G01*
D10*
X143944332Y-161239896D02*
G75*
G02*
X143444332Y-161739932I-500032J-4D01*
G01*
X206444332Y-61539896D02*
G75*
G02*
X205944332Y-62039932I-500032J-4D01*
G01*
X95344332Y-38239896D02*
G75*
G02*
X95844332Y-37739932I499968J-4D01*
G01*
X157844332Y-37739896D02*
X168244332Y-37739896D01*
X193044332Y-37739896D02*
G75*
G02*
X193544304Y-38239896I-32J-500004D01*
G01*
X206444332Y-137939896D02*
X206444332Y-148339896D01*
D11*
X86194332Y-99739896D02*
G75*
G02*
X85194332Y-99739896I-500000J0D01*
G01*
X85194332Y-99739896D02*
G75*
G02*
X86194332Y-99739896I500000J0D01*
G01*
D10*
X206444332Y-135939896D02*
G75*
G02*
X205944332Y-136439932I-500032J-4D01*
G01*
X168244332Y-37739896D02*
G75*
G02*
X168744304Y-38239896I-32J-500004D01*
G01*
X82944332Y-49639896D02*
G75*
G02*
X82444304Y-49139896I-32J499996D01*
G01*
X182644332Y-161739896D02*
G75*
G02*
X182144304Y-161239896I-32J499996D01*
G01*
D12*
X86219332Y-40989896D02*
G75*
G02*
X85169332Y-40989896I-525000J0D01*
G01*
X85169332Y-40989896D02*
G75*
G02*
X86219332Y-40989896I525000J0D01*
G01*
D10*
X133044332Y-161739896D02*
G75*
G02*
X132544304Y-161239896I-32J499996D01*
G01*
X132544332Y-38239896D02*
G75*
G02*
X133044332Y-37739932I499968J-4D01*
G01*
X180644332Y-37739896D02*
G75*
G02*
X181144304Y-38239896I-32J-500004D01*
G01*
X82444332Y-100739896D02*
G75*
G02*
X82944332Y-100239932I499968J-4D01*
G01*
D13*
G04 #@! TO.C,R12*
X125730000Y-104420000D03*
X125730000Y-101320000D03*
G04 #@! TD*
D14*
G04 #@! TO.C,R4*
X130100000Y-95250000D03*
X127000000Y-95250000D03*
G04 #@! TD*
D13*
G04 #@! TO.C,R7*
X137160000Y-92990000D03*
X137160000Y-89890000D03*
G04 #@! TD*
D15*
G04 #@! TO.C,C1*
X128270000Y-103907500D03*
X128270000Y-101832500D03*
G04 #@! TD*
D16*
G04 #@! TO.C,D4*
X124194784Y-95974784D03*
X122745216Y-94525216D03*
G04 #@! TD*
D17*
G04 #@! TO.C,D9*
X146050000Y-91930000D03*
X146050000Y-93980000D03*
G04 #@! TD*
D18*
G04 #@! TO.C,D7*
X132325000Y-85090000D03*
X134375000Y-85090000D03*
G04 #@! TD*
D13*
G04 #@! TO.C,R6*
X134620000Y-95250000D03*
X134620000Y-92150000D03*
G04 #@! TD*
D17*
G04 #@! TO.C,D10*
X151130000Y-93200000D03*
X151130000Y-95250000D03*
G04 #@! TD*
D19*
G04 #@! TO.C,R1*
X152400000Y-102870000D03*
X152400000Y-105970000D03*
G04 #@! TD*
D13*
G04 #@! TO.C,R9*
X146050000Y-100610000D03*
X146050000Y-97510000D03*
G04 #@! TD*
D17*
G04 #@! TO.C,D1*
X157480000Y-111760000D03*
X157480000Y-113810000D03*
G04 #@! TD*
D20*
G04 #@! TO.C,R11*
X127757841Y-105912863D03*
X130857841Y-105912863D03*
G04 #@! TD*
D17*
G04 #@! TO.C,D8*
X155000000Y-94975000D03*
X155000000Y-97025000D03*
G04 #@! TD*
D19*
G04 #@! TO.C,R2*
X148590000Y-102870000D03*
X148590000Y-105970000D03*
G04 #@! TD*
D17*
G04 #@! TO.C,D2*
X152400000Y-109220000D03*
X152400000Y-111270000D03*
G04 #@! TD*
D21*
G04 #@! TO.C,C2*
X140505000Y-106680000D03*
X138430000Y-106680000D03*
G04 #@! TD*
D20*
G04 #@! TO.C,R3*
X158750000Y-104140000D03*
X161850000Y-104140000D03*
G04 #@! TD*
D13*
G04 #@! TO.C,R10*
X151130000Y-100330000D03*
X151130000Y-97230000D03*
G04 #@! TD*
D18*
G04 #@! TO.C,D6*
X129540000Y-88900000D03*
X131590000Y-88900000D03*
G04 #@! TD*
D22*
G04 #@! TO.C,IC1*
X142875000Y-98490000D03*
X141605000Y-98490000D03*
X140335000Y-98490000D03*
X139065000Y-98490000D03*
X137795000Y-98490000D03*
X136525000Y-98490000D03*
X135255000Y-98490000D03*
X133985000Y-98490000D03*
X133985000Y-103440000D03*
X135255000Y-103440000D03*
X136525000Y-103440000D03*
X137795000Y-103440000D03*
X139065000Y-103440000D03*
X140335000Y-103440000D03*
X141605000Y-103440000D03*
X142875000Y-103440000D03*
G04 #@! TD*
D14*
G04 #@! TO.C,R5*
X122480000Y-104140000D03*
X119380000Y-104140000D03*
G04 #@! TD*
D13*
G04 #@! TO.C,R8*
X156210000Y-102160000D03*
X156210000Y-99060000D03*
G04 #@! TD*
D23*
G04 #@! TO.C,D3*
X167640000Y-109765216D03*
X169089568Y-111214784D03*
G04 #@! TD*
D24*
G04 #@! TO.C,D5*
X117620000Y-104140000D03*
X115570000Y-104140000D03*
G04 #@! TD*
M02*
