  0
SECTION
  2
HEADER
  9
$ANGBASE
  50
0.0
  9
$ANGDIR
  70
1
  9
$MEASUREMENT
  70
1
  0
ENDSEC
  0
SECTION
  2
TABLES
  0
TABLE
  2
LTYPE
  70
4
  0
LTYPE
  5
40F
  2
CONTINUOUS
  70
0
  3
Solid line
  72
65
  73
0
  40
0.0
  0
LTYPE
  5
410
  2
DASHDOT
 70
0
  3
Dash Dot ____ _ ____ _
 72
65
 73
4
 40
2.0
 49
1.25
 49
-0.25
 49
0.25
 49
-0.25
  0
LTYPE
  5
411
  2
DASHED
 70
0
  3
Dashed __ __ __ __ __
 72
65
 73
2
 40
0.75
 49
0.5
 49
-0.25
  0
LTYPE
  5
43B
  2
DOTTED
 70
0
  3
Dotted .  .  .  .
 72
65
 73
2
 40
0.2
 49
0.0
 49
-0.2
  0
ENDTAB
  0
TABLE
  2
STYLE
  70
4
  0
STYLE
  2
KICAD
  70
0
  40
0
  41
1
  42
1
  50
0
  71
0
  3
isocp.shx
  0
STYLE
  2
KICADB
  70
0
  40
0
  41
1
  42
1
  50
0
  71
0
  3
isocp.shx
  0
STYLE
  2
KICADI
  70
0
  40
0
  41
1
  42
1
  50
15
  71
0
  3
isocp.shx
  0
STYLE
  2
KICADBI
  70
0
  40
0
  41
1
  42
1
  50
15
  71
0
  3
isocp.shx
  0
ENDTAB
  0
TABLE
  2
LAYER
  70
1
  0
LAYER
  2
BLACK
  70
0
  62
7
  6
CONTINUOUS
  0
ENDTAB
  0
ENDSEC
  0
SECTION
  2
ENTITIES
0
LINE
8
BLACK
6
CONTINUOUS
10
134.6200000000000045
20
-82.5499999999999972
11
134.7835169999999891
21
-82.5580899999999929
0
LINE
8
BLACK
6
CONTINUOUS
10
134.7835169999999891
20
-82.5580899999999929
11
134.9475209999999947
21
-82.5713429999999988
0
LINE
8
BLACK
6
CONTINUOUS
10
134.9475209999999947
20
-82.5713429999999988
11
135.111471999999992
21
-82.5897259999999989
0
LINE
8
BLACK
6
CONTINUOUS
10
135.111471999999992
20
-82.5897259999999989
11
135.274833000000001
21
-82.6132020000000011
0
LINE
8
BLACK
6
CONTINUOUS
10
135.274833000000001
20
-82.6132020000000011
11
135.4370649999999898
21
-82.641736999999992
0
LINE
8
BLACK
6
CONTINUOUS
10
135.4370649999999898
20
-82.641736999999992
11
135.5976310000000069
21
-82.675296000000003
0
LINE
8
BLACK
6
CONTINUOUS
10
135.5976310000000069
20
-82.675296000000003
11
135.755991999999992
21
-82.7138439999999946
0
LINE
8
BLACK
6
CONTINUOUS
10
135.755991999999992
20
-82.7138439999999946
11
135.911609999999996
21
-82.7573450000000008
0
LINE
8
BLACK
6
CONTINUOUS
10
135.911609999999996
20
-82.7573450000000008
11
136.0639469999999847
21
-82.8057649999999938
0
LINE
8
BLACK
6
CONTINUOUS
10
136.0639469999999847
20
-82.8057649999999938
11
136.4821279999999888
21
-82.9605540000000019
0
LINE
8
BLACK
6
CONTINUOUS
10
136.4821279999999888
20
-82.9605540000000019
11
136.8852779999999996
21
-83.1370589999999936
0
LINE
8
BLACK
6
CONTINUOUS
10
136.8852779999999996
20
-83.1370589999999936
11
137.2731129999999951
21
-83.3349860000000007
0
LINE
8
BLACK
6
CONTINUOUS
10
137.2731129999999951
20
-83.3349860000000007
11
137.6453489999999817
21
-83.5540379999999914
0
LINE
8
BLACK
6
CONTINUOUS
10
137.6453489999999817
20
-83.5540379999999914
11
138.0017039999999895
21
-83.7939229999999924
0
LINE
8
BLACK
6
CONTINUOUS
10
138.0017039999999895
20
-83.7939229999999924
11
138.3418929999999989
21
-84.0543430000000029
0
LINE
8
BLACK
6
CONTINUOUS
10
138.3418929999999989
20
-84.0543430000000029
11
138.665633999999983
21
-84.3350049999999953
0
LINE
8
BLACK
6
CONTINUOUS
10
138.665633999999983
20
-84.3350049999999953
11
138.9726420000000076
21
-84.6356139999999897
0
LINE
8
BLACK
6
CONTINUOUS
10
138.9726420000000076
20
-84.6356139999999897
11
139.2626329999999939
21
-84.9558749999999918
0
LINE
8
BLACK
6
CONTINUOUS
10
139.2626329999999939
20
-84.9558749999999918
11
139.5353250000000003
21
-85.2954919999999959
0
LINE
8
BLACK
6
CONTINUOUS
10
139.5353250000000003
20
-85.2954919999999959
11
139.7904340000000047
21
-85.654170999999991
0
LINE
8
BLACK
6
CONTINUOUS
10
139.7904340000000047
20
-85.654170999999991
11
140.0276759999999854
21
-86.0316179999999946
0
LINE
8
BLACK
6
CONTINUOUS
10
140.0276759999999854
20
-86.0316179999999946
11
140.246768000000003
21
-86.4275359999999893
0
LINE
8
BLACK
6
CONTINUOUS
10
140.246768000000003
20
-86.4275359999999893
11
140.4474249999999813
21
-86.8416319999999899
0
LINE
8
BLACK
6
CONTINUOUS
10
140.4474249999999813
20
-86.8416319999999899
11
140.6293660000000045
21
-87.2736110000000025
0
LINE
8
BLACK
6
CONTINUOUS
10
140.6293660000000045
20
-87.2736110000000025
11
140.7923049999999989
21
-87.7231759999999952
0
LINE
8
BLACK
6
CONTINUOUS
10
140.7923049999999989
20
-87.7231759999999952
11
140.8812739999999906
21
-88.013221999999999
0
LINE
8
BLACK
6
CONTINUOUS
10
140.8812739999999906
20
-88.013221999999999
11
140.9692749999999819
21
-88.3440989999999999
0
LINE
8
BLACK
6
CONTINUOUS
10
140.9692749999999819
20
-88.3440989999999999
11
141.052976000000001
21
-88.6989639999999895
0
LINE
8
BLACK
6
CONTINUOUS
10
141.052976000000001
20
-88.6989639999999895
11
141.1290500000000065
21
-89.0609749999999991
0
LINE
8
BLACK
6
CONTINUOUS
10
141.1290500000000065
20
-89.0609749999999991
11
141.1941659999999956
21
-89.4132869999999969
0
LINE
8
BLACK
6
CONTINUOUS
10
141.1941659999999956
20
-89.4132869999999969
11
141.2449959999999862
21
-89.7390570000000025
0
LINE
8
BLACK
6
CONTINUOUS
10
141.2449959999999862
20
-89.7390570000000025
11
141.2782109999999989
21
-90.0214419999999933
0
LINE
8
BLACK
6
CONTINUOUS
10
141.2782109999999989
20
-90.0214419999999933
11
141.2871719999999982
21
-90.1411009999999919
0
LINE
8
BLACK
6
CONTINUOUS
10
141.2871719999999982
20
-90.1411009999999919
11
141.2904809999999998
21
-90.2435979999999915
0
LINE
8
BLACK
6
CONTINUOUS
10
141.2904809999999998
20
-90.2435979999999915
11
141.2909819999999854
21
-90.3217909999999904
0
LINE
8
BLACK
6
CONTINUOUS
10
141.2909819999999854
20
-90.3217909999999904
11
141.2928100000000029
21
-90.3899809999999917
0
LINE
8
BLACK
6
CONTINUOUS
10
141.2928100000000029
20
-90.3899809999999917
11
141.2946639999999832
21
-90.4204599999999914
0
LINE
8
BLACK
6
CONTINUOUS
10
141.2946639999999832
20
-90.4204599999999914
11
141.2973790000000065
21
-90.4485979999999898
0
LINE
8
BLACK
6
CONTINUOUS
10
141.2973790000000065
20
-90.4485979999999898
11
141.301132999999993
21
-90.474451000000002
0
LINE
8
BLACK
6
CONTINUOUS
10
141.301132999999993
20
-90.474451000000002
11
141.306100999999984
21
-90.4980719999999934
0
LINE
8
BLACK
6
CONTINUOUS
10
141.306100999999984
20
-90.4980719999999934
11
141.3124609999999848
21
-90.5195140000000009
0
LINE
8
BLACK
6
CONTINUOUS
10
141.3124609999999848
20
-90.5195140000000009
11
141.3203879999999799
21
-90.5388310000000018
0
LINE
8
BLACK
6
CONTINUOUS
10
141.3203879999999799
20
-90.5388310000000018
11
141.3300600000000031
21
-90.5560770000000019
0
LINE
8
BLACK
6
CONTINUOUS
10
141.3300600000000031
20
-90.5560770000000019
11
141.3416529999999796
21
-90.5713049999999953
0
LINE
8
BLACK
6
CONTINUOUS
10
141.3416529999999796
20
-90.5713049999999953
11
141.3553440000000023
21
-90.5845690000000019
0
LINE
8
BLACK
6
CONTINUOUS
10
141.3553440000000023
20
-90.5845690000000019
11
141.3713079999999991
21
-90.5959220000000016
0
LINE
8
BLACK
6
CONTINUOUS
10
141.3713079999999991
20
-90.5959220000000016
11
141.3897240000000011
21
-90.6054189999999977
0
LINE
8
BLACK
6
CONTINUOUS
10
141.3897240000000011
20
-90.6054189999999977
11
141.4107659999999953
21
-90.6131129999999985
0
LINE
8
BLACK
6
CONTINUOUS
10
141.4107659999999953
20
-90.6131129999999985
11
141.4346129999999846
21
-90.619056999999998
0
LINE
8
BLACK
6
CONTINUOUS
10
141.4346129999999846
20
-90.619056999999998
11
141.4614399999999819
21
-90.6233059999999995
0
LINE
8
BLACK
6
CONTINUOUS
10
141.4614399999999819
20
-90.6233059999999995
11
141.4914229999999975
21
-90.6259119999999996
0
LINE
8
BLACK
6
CONTINUOUS
10
141.4914229999999975
20
-90.6259119999999996
11
141.5247410000000059
21
-90.6269300000000015
0
LINE
8
BLACK
6
CONTINUOUS
10
141.5247410000000059
20
-90.6269300000000015
11
141.5615679999999941
21
-90.6264129999999994
0
LINE
8
BLACK
6
CONTINUOUS
10
141.5615679999999941
20
-90.6264129999999994
11
141.6020819999999958
21
-90.6244149999999991
0
LINE
8
BLACK
6
CONTINUOUS
10
141.6020819999999958
20
-90.6244149999999991
11
141.646458999999993
21
-90.6209889999999945
0
LINE
8
BLACK
6
CONTINUOUS
10
141.646458999999993
20
-90.6209889999999945
11
141.6948759999999936
21
-90.6161899999999889
0
LINE
8
BLACK
6
CONTINUOUS
10
141.6948759999999936
20
-90.6161899999999889
11
141.8045359999999846
21
-90.6026839999999964
0
LINE
8
BLACK
6
CONTINUOUS
10
141.8045359999999846
20
-90.6026839999999964
11
141.9324729999999875
21
-90.5843259999999901
0
LINE
8
BLACK
6
CONTINUOUS
10
141.9324729999999875
20
-90.5843259999999901
11
142.2488299999999981
21
-90.5347719999999896
0
LINE
8
BLACK
6
CONTINUOUS
10
142.2488299999999981
20
-90.5347719999999896
11
142.4974599999999896
21
-90.5008639999999929
0
LINE
8
BLACK
6
CONTINUOUS
10
142.4974599999999896
20
-90.5008639999999929
11
142.787745000000001
21
-90.471076999999994
0
LINE
8
BLACK
6
CONTINUOUS
10
142.787745000000001
20
-90.471076999999994
11
143.4690829999999835
21
-90.4239949999999908
0
LINE
8
BLACK
6
CONTINUOUS
10
143.4690829999999835
20
-90.4239949999999908
11
144.244449000000003
21
-90.3937859999999915
0
LINE
8
BLACK
6
CONTINUOUS
10
144.244449000000003
20
-90.3937859999999915
11
145.065449000000001
21
-90.380707000000001
0
LINE
8
BLACK
6
CONTINUOUS
10
145.065449000000001
20
-90.380707000000001
11
145.8836890000000039
21
-90.3850180000000023
0
LINE
8
BLACK
6
CONTINUOUS
10
145.8836890000000039
20
-90.3850180000000023
11
146.6507749999999817
21
-90.4069769999999977
0
LINE
8
BLACK
6
CONTINUOUS
10
146.6507749999999817
20
-90.4069769999999977
11
147.3183109999999942
21
-90.4468439999999987
0
LINE
8
BLACK
6
CONTINUOUS
10
147.3183109999999942
20
-90.4468439999999987
11
147.5996250000000032
21
-90.4735730000000018
0
LINE
8
BLACK
6
CONTINUOUS
10
147.5996250000000032
20
-90.4735730000000018
11
147.8379039999999804
21
-90.5048769999999934
0
LINE
8
BLACK
6
CONTINUOUS
10
147.8379039999999804
20
-90.5048769999999934
11
148.5758109999999874
21
-90.6330600000000004
0
LINE
8
BLACK
6
CONTINUOUS
10
148.5758109999999874
20
-90.6330600000000004
11
149.2980220000000031
21
-90.7842559999999992
0
LINE
8
BLACK
6
CONTINUOUS
10
149.2980220000000031
20
-90.7842559999999992
11
150.0046419999999898
21
-90.9585159999999888
0
LINE
8
BLACK
6
CONTINUOUS
10
150.0046419999999898
20
-90.9585159999999888
11
150.6957749999999976
21
-91.1558899999999994
0
LINE
8
BLACK
6
CONTINUOUS
10
150.6957749999999976
20
-91.1558899999999994
11
151.3715259999999887
21
-91.3764290000000017
0
LINE
8
BLACK
6
CONTINUOUS
10
151.3715259999999887
20
-91.3764290000000017
11
152.0319999999999823
21
-91.6201839999999947
0
LINE
8
BLACK
6
CONTINUOUS
10
152.0319999999999823
20
-91.6201839999999947
11
152.6773000000000025
21
-91.8872049999999945
0
LINE
8
BLACK
6
CONTINUOUS
10
152.6773000000000025
20
-91.8872049999999945
11
153.3075309999999831
21
-92.1775439999999975
0
LINE
8
BLACK
6
CONTINUOUS
10
153.3075309999999831
20
-92.1775439999999975
11
153.9227989999999977
21
-92.4912499999999937
0
LINE
8
BLACK
6
CONTINUOUS
10
153.9227989999999977
20
-92.4912499999999937
11
154.5232069999999851
21
-92.8283749999999941
0
LINE
8
BLACK
6
CONTINUOUS
10
154.5232069999999851
20
-92.8283749999999941
11
155.1088609999999903
21
-93.1889690000000002
0
LINE
8
BLACK
6
CONTINUOUS
10
155.1088609999999903
20
-93.1889690000000002
11
155.6798639999999807
21
-93.5730829999999969
0
LINE
8
BLACK
6
CONTINUOUS
10
155.6798639999999807
20
-93.5730829999999969
11
156.2363210000000038
21
-93.9807679999999976
0
LINE
8
BLACK
6
CONTINUOUS
10
156.2363210000000038
20
-93.9807679999999976
11
156.7783369999999934
21
-94.4120750000000015
0
LINE
8
BLACK
6
CONTINUOUS
10
156.7783369999999934
20
-94.4120750000000015
11
157.3060159999999996
21
-94.867053999999996
0
LINE
8
BLACK
6
CONTINUOUS
10
157.3060159999999996
20
-94.867053999999996
11
157.8194629999999847
21
-95.3457549999999969
0
LINE
8
BLACK
6
CONTINUOUS
10
157.8194629999999847
20
-95.3457549999999969
11
158.0664369999999792
21
-95.5881479999999897
0
LINE
8
BLACK
6
CONTINUOUS
10
158.0664369999999792
20
-95.5881479999999897
11
158.301731999999987
21
-95.8256949999999961
0
LINE
8
BLACK
6
CONTINUOUS
10
158.301731999999987
20
-95.8256949999999961
11
158.5264159999999833
21
-96.0597739999999902
0
LINE
8
BLACK
6
CONTINUOUS
10
158.5264159999999833
20
-96.0597739999999902
11
158.7415550000000053
21
-96.2917649999999981
0
LINE
8
BLACK
6
CONTINUOUS
10
158.7415550000000053
20
-96.2917649999999981
11
158.9482169999999996
21
-96.5230469999999912
0
LINE
8
BLACK
6
CONTINUOUS
10
158.9482169999999996
20
-96.5230469999999912
11
159.147467000000006
21
-96.754998999999998
0
LINE
8
BLACK
6
CONTINUOUS
10
159.147467000000006
20
-96.754998999999998
11
159.3403720000000021
21
-96.9889999999999901
0
LINE
8
BLACK
6
CONTINUOUS
10
159.3403720000000021
20
-96.9889999999999901
11
159.5280009999999891
21
-97.226428999999996
0
LINE
8
BLACK
6
CONTINUOUS
10
159.5280009999999891
20
-97.226428999999996
11
159.7114179999999806
21
-97.4686650000000014
0
LINE
8
BLACK
6
CONTINUOUS
10
159.7114179999999806
20
-97.4686650000000014
11
159.8916909999999802
21
-97.7170869999999923
0
LINE
8
BLACK
6
CONTINUOUS
10
159.8916909999999802
20
-97.7170869999999923
11
160.0698869999999943
21
-97.9730739999999969
0
LINE
8
BLACK
6
CONTINUOUS
10
160.0698869999999943
20
-97.9730739999999969
11
160.2470730000000003
21
-98.2380059999999986
0
LINE
8
BLACK
6
CONTINUOUS
10
160.2470730000000003
20
-98.2380059999999986
11
160.4243149999999787
21
-98.5132619999999974
0
LINE
8
BLACK
6
CONTINUOUS
10
160.4243149999999787
20
-98.5132619999999974
11
160.6026799999999923
21
-98.8002189999999985
0
LINE
8
BLACK
6
CONTINUOUS
10
160.6026799999999923
20
-98.8002189999999985
11
160.9670459999999821
21
-99.4147589999999894
0
LINE
8
BLACK
6
CONTINUOUS
10
160.9670459999999821
20
-99.4147589999999894
11
161.5906049999999823
21
-100.4465639999999951
0
LINE
8
BLACK
6
CONTINUOUS
10
161.5906049999999823
20
-100.4465639999999951
11
162.2517770000000041
21
-101.4448099999999897
0
LINE
8
BLACK
6
CONTINUOUS
10
162.2517770000000041
20
-101.4448099999999897
11
162.9501219999999932
21
-102.4091200000000015
0
LINE
8
BLACK
6
CONTINUOUS
10
162.9501219999999932
20
-102.4091200000000015
11
163.6851999999999805
21
-103.339113999999995
0
LINE
8
BLACK
6
CONTINUOUS
10
163.6851999999999805
20
-103.339113999999995
11
164.4565690000000018
21
-104.2344119999999918
0
LINE
8
BLACK
6
CONTINUOUS
10
164.4565690000000018
20
-104.2344119999999918
11
165.2637909999999977
21
-105.0946369999999916
0
LINE
8
BLACK
6
CONTINUOUS
10
165.2637909999999977
20
-105.0946369999999916
11
166.1064250000000015
21
-105.9194069999999925
0
LINE
8
BLACK
6
CONTINUOUS
10
166.1064250000000015
20
-105.9194069999999925
11
166.98402999999999
21
-106.7083449999999942
0
LINE
8
BLACK
6
CONTINUOUS
10
166.98402999999999
20
-106.7083449999999942
11
167.8961659999999938
21
-107.4610709999999898
0
LINE
8
BLACK
6
CONTINUOUS
10
167.8961659999999938
20
-107.4610709999999898
11
168.8423939999999845
21
-108.1772050000000007
0
LINE
8
BLACK
6
CONTINUOUS
10
168.8423939999999845
20
-108.1772050000000007
11
169.8222729999999956
21
-108.8563690000000008
0
LINE
8
BLACK
6
CONTINUOUS
10
169.8222729999999956
20
-108.8563690000000008
11
170.8353620000000035
21
-109.4981829999999974
0
LINE
8
BLACK
6
CONTINUOUS
10
170.8353620000000035
20
-109.4981829999999974
11
171.8812209999999823
21
-110.1022689999999926
0
LINE
8
BLACK
6
CONTINUOUS
10
171.8812209999999823
20
-110.1022689999999926
11
172.9594109999999887
21
-110.6682459999999963
0
LINE
8
BLACK
6
CONTINUOUS
10
172.9594109999999887
20
-110.6682459999999963
11
174.0694900000000018
21
-111.1957359999999966
0
LINE
8
BLACK
6
CONTINUOUS
10
174.0694900000000018
20
-111.1957359999999966
11
175.2110189999999932
21
-111.6843590000000006
0
LINE
8
BLACK
6
CONTINUOUS
10
175.2110189999999932
20
-111.6843590000000006
11
175.4145259999999951
21
-111.7680089999999922
0
LINE
8
BLACK
6
CONTINUOUS
10
175.4145259999999951
20
-111.7680089999999922
11
175.6021179999999902
21
-111.8473589999999973
0
LINE
8
BLACK
6
CONTINUOUS
10
175.6021179999999902
20
-111.8473589999999973
11
175.769849999999991
21
-111.9205809999999985
0
LINE
8
BLACK
6
CONTINUOUS
10
175.769849999999991
20
-111.9205809999999985
11
175.9137779999999793
21
-111.985841999999991
0
LINE
8
BLACK
6
CONTINUOUS
10
175.9137779999999793
20
-111.985841999999991
11
176.0299599999999884
21
-112.0413129999999882
0
LINE
8
BLACK
6
CONTINUOUS
10
176.0299599999999884
20
-112.0413129999999882
11
176.114452
21
-112.0851619999999969
0
LINE
8
BLACK
6
CONTINUOUS
10
176.114452
20
-112.0851619999999969
11
176.1633099999999956
21
-112.1155599999999879
0
LINE
8
BLACK
6
CONTINUOUS
10
176.1633099999999956
20
-112.1155599999999879
11
176.1731439999999793
21
-112.1251419999999968
0
LINE
8
BLACK
6
CONTINUOUS
10
176.1731439999999793
20
-112.1251419999999968
11
176.1741959999999949
21
-112.128428999999997
0
LINE
8
BLACK
6
CONTINUOUS
10
176.1741959999999949
20
-112.128428999999997
11
176.1725899999999854
21
-112.1306749999999965
0
LINE
8
BLACK
6
CONTINUOUS
10
176.1725899999999854
20
-112.1306749999999965
11
176.026093000000003
21
-112.1783209999999968
0
LINE
8
BLACK
6
CONTINUOUS
10
176.026093000000003
20
-112.1783209999999968
11
175.6994619999999827
21
-112.2674289999999928
0
LINE
8
BLACK
6
CONTINUOUS
10
175.6994619999999827
20
-112.2674289999999928
11
174.7165300000000059
21
-112.5177479999999974
0
LINE
8
BLACK
6
CONTINUOUS
10
174.7165300000000059
20
-112.5177479999999974
11
173.645274999999998
21
-112.7770639999999958
0
LINE
8
BLACK
6
CONTINUOUS
10
173.645274999999998
20
-112.7770639999999958
11
173.2082379999999944
21
-112.8774200000000008
0
LINE
8
BLACK
6
CONTINUOUS
10
173.2082379999999944
20
-112.8774200000000008
11
172.9071749999999952
21
-112.940811999999994
0
LINE
8
BLACK
6
CONTINUOUS
10
172.9071749999999952
20
-112.940811999999994
11
172.6658609999999783
21
-112.9827879999999993
0
LINE
8
BLACK
6
CONTINUOUS
10
172.6658609999999783
20
-112.9827879999999993
11
172.418420999999995
21
-113.0191859999999906
0
LINE
8
BLACK
6
CONTINUOUS
10
172.418420999999995
20
-113.0191859999999906
11
172.1659159999999815
21
-113.0500040000000013
0
LINE
8
BLACK
6
CONTINUOUS
10
172.1659159999999815
20
-113.0500040000000013
11
171.9094069999999874
21
-113.0752439999999979
0
LINE
8
BLACK
6
CONTINUOUS
10
171.9094069999999874
20
-113.0752439999999979
11
171.6499560000000031
21
-113.0949039999999997
0
LINE
8
BLACK
6
CONTINUOUS
10
171.6499560000000031
20
-113.0949039999999997
11
171.3886229999999955
21
-113.1089829999999949
0
LINE
8
BLACK
6
CONTINUOUS
10
171.3886229999999955
20
-113.1089829999999949
11
170.8645609999999806
21
-113.1203989999999919
0
LINE
8
BLACK
6
CONTINUOUS
10
170.8645609999999806
20
-113.1203989999999919
11
170.3457109999999943
21
-113.1094879999999989
0
LINE
8
BLACK
6
CONTINUOUS
10
170.3457109999999943
20
-113.1094879999999989
11
170.0908949999999891
21
-113.0956580000000002
0
LINE
8
BLACK
6
CONTINUOUS
10
170.0908949999999891
20
-113.0956580000000002
11
169.840564999999998
21
-113.0762450000000001
0
LINE
8
BLACK
6
CONTINUOUS
10
169.840564999999998
20
-113.0762450000000001
11
169.5957850000000064
21
-113.0512480000000011
0
LINE
8
BLACK
6
CONTINUOUS
10
169.5957850000000064
20
-113.0512480000000011
11
169.3576149999999814
21
-113.0206669999999889
0
LINE
8
BLACK
6
CONTINUOUS
10
169.3576149999999814
20
-113.0206669999999889
11
169.1271169999999984
21
-112.9845009999999945
0
LINE
8
BLACK
6
CONTINUOUS
10
169.1271169999999984
20
-112.9845009999999945
11
168.905350999999996
21
-112.9427499999999895
0
LINE
8
BLACK
6
CONTINUOUS
10
168.905350999999996
20
-112.9427499999999895
11
168.470327999999995
21
-112.8413499999999914
0
LINE
8
BLACK
6
CONTINUOUS
10
168.470327999999995
20
-112.8413499999999914
11
168.0240379999999902
21
-112.7135589999999894
0
LINE
8
BLACK
6
CONTINUOUS
10
168.0240379999999902
20
-112.7135589999999894
11
167.5671150000000011
21
-112.559742
0
LINE
8
BLACK
6
CONTINUOUS
10
167.5671150000000011
20
-112.559742
11
167.1001939999999877
21
-112.3802649999999943
0
LINE
8
BLACK
6
CONTINUOUS
10
167.1001939999999877
20
-112.3802649999999943
11
166.6239080000000001
21
-112.1754919999999913
0
LINE
8
BLACK
6
CONTINUOUS
10
166.6239080000000001
20
-112.1754919999999913
11
166.1388919999999985
21
-111.9457899999999881
0
LINE
8
BLACK
6
CONTINUOUS
10
166.1388919999999985
20
-111.9457899999999881
11
165.645780000000002
21
-111.691521999999992
0
LINE
8
BLACK
6
CONTINUOUS
10
165.645780000000002
20
-111.691521999999992
11
165.1452069999999992
21
-111.4130559999999974
0
LINE
8
BLACK
6
CONTINUOUS
10
165.1452069999999992
20
-111.4130559999999974
11
164.637804999999986
21
-111.110755999999995
0
LINE
8
BLACK
6
CONTINUOUS
10
164.637804999999986
20
-111.110755999999995
11
164.124210000000005
21
-110.7849879999999985
0
LINE
8
BLACK
6
CONTINUOUS
10
164.124210000000005
20
-110.7849879999999985
11
163.605054999999993
21
-110.4361169999999959
0
LINE
8
BLACK
6
CONTINUOUS
10
163.605054999999993
20
-110.4361169999999959
11
163.0809749999999951
21
-110.0645079999999894
0
LINE
8
BLACK
6
CONTINUOUS
10
163.0809749999999951
20
-110.0645079999999894
11
162.5526030000000048
21
-109.6705269999999928
0
LINE
8
BLACK
6
CONTINUOUS
10
162.5526030000000048
20
-109.6705269999999928
11
162.0205749999999796
21
-109.2545389999999941
0
LINE
8
BLACK
6
CONTINUOUS
10
162.0205749999999796
20
-109.2545389999999941
11
161.4855239999999981
21
-108.8169099999999929
0
LINE
8
BLACK
6
CONTINUOUS
10
161.4855239999999981
20
-108.8169099999999929
11
160.9480839999999944
21
-108.358003999999994
0
LINE
8
BLACK
6
CONTINUOUS
10
160.9480839999999944
20
-108.358003999999994
11
160.4652920000000051
21
-107.9370869999999911
0
LINE
8
BLACK
6
CONTINUOUS
10
160.4652920000000051
20
-107.9370869999999911
11
160.5139289999999903
21
-108.4549599999999998
0
LINE
8
BLACK
6
CONTINUOUS
10
160.5139289999999903
20
-108.4549599999999998
11
160.5416339999999877
21
-108.8912289999999956
0
LINE
8
BLACK
6
CONTINUOUS
10
160.5416339999999877
20
-108.8912289999999956
11
160.559474999999992
21
-109.4671230000000008
0
LINE
8
BLACK
6
CONTINUOUS
10
160.559474999999992
20
-109.4671230000000008
11
160.5678379999999947
21
-110.1300339999999949
0
LINE
8
BLACK
6
CONTINUOUS
10
160.5678379999999947
20
-110.1300339999999949
11
160.5671119999999803
21
-110.8273509999999931
0
LINE
8
BLACK
6
CONTINUOUS
10
160.5671119999999803
20
-110.8273509999999931
11
160.5576849999999922
21
-111.5064670000000007
0
LINE
8
BLACK
6
CONTINUOUS
10
160.5576849999999922
20
-111.5064670000000007
11
160.5399459999999863
21
-112.1147709999999904
0
LINE
8
BLACK
6
CONTINUOUS
10
160.5399459999999863
20
-112.1147709999999904
11
160.5142819999999801
21
-112.599655999999996
0
LINE
8
BLACK
6
CONTINUOUS
10
160.5142819999999801
20
-112.599655999999996
11
160.481080999999989
21
-112.9085109999999901
0
LINE
8
BLACK
6
CONTINUOUS
10
160.481080999999989
20
-112.9085109999999901
11
160.429647999999986
21
-113.1584039999999902
0
LINE
8
BLACK
6
CONTINUOUS
10
160.429647999999986
20
-113.1584039999999902
11
160.3621669999999995
21
-113.4347409999999883
0
LINE
8
BLACK
6
CONTINUOUS
10
160.3621669999999995
20
-113.4347409999999883
11
160.2823269999999809
21
-113.7257749999999987
0
LINE
8
BLACK
6
CONTINUOUS
10
160.2823269999999809
20
-113.7257749999999987
11
160.1938199999999881
21
-114.0197589999999934
0
LINE
8
BLACK
6
CONTINUOUS
10
160.1938199999999881
20
-114.0197589999999934
11
160.1003379999999936
21
-114.3049449999999894
0
LINE
8
BLACK
6
CONTINUOUS
10
160.1003379999999936
20
-114.3049449999999894
11
160.0055720000000008
21
-114.569586000000001
0
LINE
8
BLACK
6
CONTINUOUS
10
160.0055720000000008
20
-114.569586000000001
11
159.9132119999999873
21
-114.8019350000000003
0
LINE
8
BLACK
6
CONTINUOUS
10
159.9132119999999873
20
-114.8019350000000003
11
159.8690890000000024
21
-114.9023289999999946
0
LINE
8
BLACK
6
CONTINUOUS
10
159.8690890000000024
20
-114.9023289999999946
11
159.8269520000000057
21
-114.9902450000000016
0
LINE
8
BLACK
6
CONTINUOUS
10
159.8269520000000057
20
-114.9902450000000016
11
159.786186999999984
21
-115.0666879999999992
0
LINE
8
BLACK
6
CONTINUOUS
10
159.786186999999984
20
-115.0666879999999992
11
159.7413139999999885
21
-115.1428109999999947
0
LINE
8
BLACK
6
CONTINUOUS
10
159.7413139999999885
20
-115.1428109999999947
11
159.6924860000000024
21
-115.2185099999999949
0
LINE
8
BLACK
6
CONTINUOUS
10
159.6924860000000024
20
-115.2185099999999949
11
159.639854999999983
21
-115.2936799999999948
0
LINE
8
BLACK
6
CONTINUOUS
10
159.639854999999983
20
-115.2936799999999948
11
159.5835739999999987
21
-115.3682170000000013
0
LINE
8
BLACK
6
CONTINUOUS
10
159.5835739999999987
20
-115.3682170000000013
11
159.5237960000000044
21
-115.4420159999999953
0
LINE
8
BLACK
6
CONTINUOUS
10
159.5237960000000044
20
-115.4420159999999953
11
159.394360000000006
21
-115.5869789999999995
0
LINE
8
BLACK
6
CONTINUOUS
10
159.394360000000006
20
-115.5869789999999995
11
159.2527699999999982
21
-115.7277349999999956
0
LINE
8
BLACK
6
CONTINUOUS
10
159.2527699999999982
20
-115.7277349999999956
11
159.1002499999999884
21
-115.8634449999999987
0
LINE
8
BLACK
6
CONTINUOUS
10
159.1002499999999884
20
-115.8634449999999987
11
158.938020999999992
21
-115.9932719999999904
0
LINE
8
BLACK
6
CONTINUOUS
10
158.938020999999992
20
-115.9932719999999904
11
158.7673079999999857
21
-116.1163809999999899
0
LINE
8
BLACK
6
CONTINUOUS
10
158.7673079999999857
20
-116.1163809999999899
11
158.5893319999999846
21
-116.2319329999999979
0
LINE
8
BLACK
6
CONTINUOUS
10
158.5893319999999846
20
-116.2319329999999979
11
158.4053169999999966
21
-116.3390919999999937
0
LINE
8
BLACK
6
CONTINUOUS
10
158.4053169999999966
20
-116.3390919999999937
11
158.2164850000000058
21
-116.4370199999999897
0
LINE
8
BLACK
6
CONTINUOUS
10
158.2164850000000058
20
-116.4370199999999897
11
158.0240599999999915
21
-116.5248809999999935
0
LINE
8
BLACK
6
CONTINUOUS
10
158.0240599999999915
20
-116.5248809999999935
11
157.8292639999999949
21
-116.6018369999999891
0
LINE
8
BLACK
6
CONTINUOUS
10
157.8292639999999949
20
-116.6018369999999891
11
157.6333199999999977
21
-116.6670519999999982
0
LINE
8
BLACK
6
CONTINUOUS
10
157.6333199999999977
20
-116.6670519999999982
11
157.4374509999999816
21
-116.7196889999999883
0
LINE
8
BLACK
6
CONTINUOUS
10
157.4374509999999816
20
-116.7196889999999883
11
157.3399259999999913
21
-116.7410289999999975
0
LINE
8
BLACK
6
CONTINUOUS
10
157.3399259999999913
20
-116.7410289999999975
11
157.2428799999999853
21
-116.7589100000000002
0
LINE
8
BLACK
6
CONTINUOUS
10
157.2428799999999853
20
-116.7589100000000002
11
157.0996250000000032
21
-116.7811949999999968
0
LINE
8
BLACK
6
CONTINUOUS
10
157.0996250000000032
20
-116.7811949999999968
11
157.0351540000000057
21
-116.7897229999999951
0
LINE
8
BLACK
6
CONTINUOUS
10
157.0351540000000057
20
-116.7897229999999951
11
156.9743629999999825
21
-116.7964779999999934
0
LINE
8
BLACK
6
CONTINUOUS
10
156.9743629999999825
20
-116.7964779999999934
11
156.9164339999999811
21
-116.8014369999999928
0
LINE
8
BLACK
6
CONTINUOUS
10
156.9164339999999811
20
-116.8014369999999928
11
156.8605509999999867
21
-116.8045769999999948
0
LINE
8
BLACK
6
CONTINUOUS
10
156.8605509999999867
20
-116.8045769999999948
11
156.805893999999995
21
-116.8058759999999978
0
LINE
8
BLACK
6
CONTINUOUS
10
156.805893999999995
20
-116.8058759999999978
11
156.7516459999999938
21
-116.8053120000000007
0
LINE
8
BLACK
6
CONTINUOUS
10
156.7516459999999938
20
-116.8053120000000007
11
156.6969899999999996
21
-116.8028609999999929
0
LINE
8
BLACK
6
CONTINUOUS
10
156.6969899999999996
20
-116.8028609999999929
11
156.6411070000000052
21
-116.7985010000000017
0
LINE
8
BLACK
6
CONTINUOUS
10
156.6411070000000052
20
-116.7985010000000017
11
156.5831809999999962
21
-116.7922099999999972
0
LINE
8
BLACK
6
CONTINUOUS
10
156.5831809999999962
20
-116.7922099999999972
11
156.5223929999999939
21
-116.7839649999999949
0
LINE
8
BLACK
6
CONTINUOUS
10
156.5223929999999939
20
-116.7839649999999949
11
156.4579249999999888
21
-116.7737429999999961
0
LINE
8
BLACK
6
CONTINUOUS
10
156.4579249999999888
20
-116.7737429999999961
11
156.3889589999999998
21
-116.7615209999999877
0
LINE
8
BLACK
6
CONTINUOUS
10
156.3889589999999998
20
-116.7615209999999877
11
156.234265999999991
21
-116.7309899999999914
0
LINE
8
BLACK
6
CONTINUOUS
10
156.234265999999991
20
-116.7309899999999914
11
156.06377999999998
21
-116.6926999999999879
0
LINE
8
BLACK
6
CONTINUOUS
10
156.06377999999998
20
-116.6926999999999879
11
155.8976109999999835
21
-116.6493369999999885
0
LINE
8
BLACK
6
CONTINUOUS
10
155.8976109999999835
20
-116.6493369999999885
11
155.7362190000000055
21
-116.6011549999999914
0
LINE
8
BLACK
6
CONTINUOUS
10
155.7362190000000055
20
-116.6011549999999914
11
155.5800669999999855
21
-116.5484099999999899
0
LINE
8
BLACK
6
CONTINUOUS
10
155.5800669999999855
20
-116.5484099999999899
11
155.4296149999999841
21
-116.4913559999999961
0
LINE
8
BLACK
6
CONTINUOUS
10
155.4296149999999841
20
-116.4913559999999961
11
155.2853259999999977
21
-116.4302489999999892
0
LINE
8
BLACK
6
CONTINUOUS
10
155.2853259999999977
20
-116.4302489999999892
11
155.1476619999999969
21
-116.3653439999999932
0
LINE
8
BLACK
6
CONTINUOUS
10
155.1476619999999969
20
-116.3653439999999932
11
155.0170829999999853
21
-116.2968970000000013
0
LINE
8
BLACK
6
CONTINUOUS
10
155.0170829999999853
20
-116.2968970000000013
11
154.8940509999999904
21
-116.2251609999999999
0
LINE
8
BLACK
6
CONTINUOUS
10
154.8940509999999904
20
-116.2251609999999999
11
154.77902899999998
21
-116.150392999999994
0
LINE
8
BLACK
6
CONTINUOUS
10
154.77902899999998
20
-116.150392999999994
11
154.6724769999999864
21
-116.0728479999999934
0
LINE
8
BLACK
6
CONTINUOUS
10
154.6724769999999864
20
-116.0728479999999934
11
154.5748580000000061
21
-115.9927809999999937
0
LINE
8
BLACK
6
CONTINUOUS
10
154.5748580000000061
20
-115.9927809999999937
11
154.4866329999999834
21
-115.9104459999999932
0
LINE
8
BLACK
6
CONTINUOUS
10
154.4866329999999834
20
-115.9104459999999932
11
154.4082630000000051
21
-115.8260999999999967
0
LINE
8
BLACK
6
CONTINUOUS
10
154.4082630000000051
20
-115.8260999999999967
11
154.3402109999999823
21
-115.7399969999999882
0
LINE
8
BLACK
6
CONTINUOUS
10
154.3402109999999823
20
-115.7399969999999882
11
154.2829380000000015
21
-115.6523919999999919
0
LINE
8
BLACK
6
CONTINUOUS
10
154.2829380000000015
20
-115.6523919999999919
11
154.2478160000000003
21
-115.5910439999999966
0
LINE
8
BLACK
6
CONTINUOUS
10
154.2478160000000003
20
-115.5910439999999966
11
154.2173679999999933
21
-115.5339439999999911
0
LINE
8
BLACK
6
CONTINUOUS
10
154.2173679999999933
20
-115.5339439999999911
11
154.1915899999999908
21
-115.4797480000000007
0
LINE
8
BLACK
6
CONTINUOUS
10
154.1915899999999908
20
-115.4797480000000007
11
154.180451000000005
21
-115.4533189999999934
0
LINE
8
BLACK
6
CONTINUOUS
10
154.180451000000005
20
-115.4533189999999934
11
154.1704790000000003
21
-115.4271129999999914
0
LINE
8
BLACK
6
CONTINUOUS
10
154.1704790000000003
20
-115.4271129999999914
11
154.1616729999999791
21
-115.4009609999999952
0
LINE
8
BLACK
6
CONTINUOUS
10
154.1616729999999791
20
-115.4009609999999952
11
154.1540320000000008
21
-115.3746960000000001
0
LINE
8
BLACK
6
CONTINUOUS
10
154.1540320000000008
20
-115.3746960000000001
11
154.1475559999999803
21
-115.3481499999999897
0
LINE
8
BLACK
6
CONTINUOUS
10
154.1475559999999803
20
-115.3481499999999897
11
154.1422450000000026
21
-115.3211539999999928
0
LINE
8
BLACK
6
CONTINUOUS
10
154.1422450000000026
20
-115.3211539999999928
11
154.1380979999999852
21
-115.2935409999999905
0
LINE
8
BLACK
6
CONTINUOUS
10
154.1380979999999852
20
-115.2935409999999905
11
154.1351149999999848
21
-115.2651439999999923
0
LINE
8
BLACK
6
CONTINUOUS
10
154.1351149999999848
20
-115.2651439999999923
11
154.1332950000000039
21
-115.235793000000001
0
LINE
8
BLACK
6
CONTINUOUS
10
154.1332950000000039
20
-115.235793000000001
11
154.1326389999999833
21
-115.2053219999999953
0
LINE
8
BLACK
6
CONTINUOUS
10
154.1326389999999833
20
-115.2053219999999953
11
154.1331449999999847
21
-115.1735619999999898
0
LINE
8
BLACK
6
CONTINUOUS
10
154.1331449999999847
20
-115.1735619999999898
11
154.1348140000000058
21
-115.1403449999999964
0
LINE
8
BLACK
6
CONTINUOUS
10
154.1348140000000058
20
-115.1403449999999964
11
154.1376439999999945
21
-115.1055039999999963
0
LINE
8
BLACK
6
CONTINUOUS
10
154.1376439999999945
20
-115.1055039999999963
11
154.1416360000000054
21
-115.0688710000000015
0
LINE
8
BLACK
6
CONTINUOUS
10
154.1416360000000054
20
-115.0688710000000015
11
154.1531019999999899
21
-114.9895549999999957
0
LINE
8
BLACK
6
CONTINUOUS
10
154.1531019999999899
20
-114.9895549999999957
11
154.1692089999999951
21
-114.9010549999999995
0
LINE
8
BLACK
6
CONTINUOUS
10
154.1692089999999951
20
-114.9010549999999995
11
154.1899540000000002
21
-114.8020269999999954
0
LINE
8
BLACK
6
CONTINUOUS
10
154.1899540000000002
20
-114.8020269999999954
11
154.2153329999999869
21
-114.6911289999999894
0
LINE
8
BLACK
6
CONTINUOUS
10
154.2153329999999869
20
-114.6911289999999894
11
154.2453429999999912
21
-114.5670169999999928
0
LINE
8
BLACK
6
CONTINUOUS
10
154.2453429999999912
20
-114.5670169999999928
11
154.2799809999999923
21
-114.428346999999988
0
LINE
8
BLACK
6
CONTINUOUS
10
154.2799809999999923
20
-114.428346999999988
11
154.3628080000000011
21
-114.0557809999999961
0
LINE
8
BLACK
6
CONTINUOUS
10
154.3628080000000011
20
-114.0557809999999961
11
154.4361049999999977
21
-113.6427759999999978
0
LINE
8
BLACK
6
CONTINUOUS
10
154.4361049999999977
20
-113.6427759999999978
11
154.4973919999999907
21
-113.2150939999999935
0
LINE
8
BLACK
6
CONTINUOUS
10
154.4973919999999907
20
-113.2150939999999935
11
154.5441899999999862
21
-112.798497999999995
0
LINE
8
BLACK
6
CONTINUOUS
10
154.5441899999999862
20
-112.798497999999995
11
154.5740209999999877
21
-112.4187499999999886
0
LINE
8
BLACK
6
CONTINUOUS
10
154.5740209999999877
20
-112.4187499999999886
11
154.5844040000000064
21
-112.1016119999999887
0
LINE
8
BLACK
6
CONTINUOUS
10
154.5844040000000064
20
-112.1016119999999887
11
154.5815289999999891
21
-111.9745719999999949
0
LINE
8
BLACK
6
CONTINUOUS
10
154.5815289999999891
20
-111.9745719999999949
11
154.5728629999999839
21
-111.8728459999999956
0
LINE
8
BLACK
6
CONTINUOUS
10
154.5728629999999839
20
-111.8728459999999956
11
154.5580949999999802
21
-111.7996539999999897
0
LINE
8
BLACK
6
CONTINUOUS
10
154.5580949999999802
20
-111.7996539999999897
11
154.548326000000003
21
-111.7747639999999905
0
LINE
8
BLACK
6
CONTINUOUS
10
154.548326000000003
20
-111.7747639999999905
11
154.5369159999999908
21
-111.7582159999999902
0
LINE
8
BLACK
6
CONTINUOUS
10
154.5369159999999908
20
-111.7582159999999902
11
154.5343529999999816
21
-111.7565209999999922
0
LINE
8
BLACK
6
CONTINUOUS
10
154.5343529999999816
20
-111.7565209999999922
11
154.5316049999999848
21
-111.7563499999999976
0
LINE
8
BLACK
6
CONTINUOUS
10
154.5316049999999848
20
-111.7563499999999976
11
154.5286820000000034
21
-111.7576689999999928
0
LINE
8
BLACK
6
CONTINUOUS
10
154.5286820000000034
20
-111.7576689999999928
11
154.5255909999999915
21
-111.7604429999999951
0
LINE
8
BLACK
6
CONTINUOUS
10
154.5255909999999915
20
-111.7604429999999951
11
154.5223409999999831
21
-111.7646379999999908
0
LINE
8
BLACK
6
CONTINUOUS
10
154.5223409999999831
20
-111.7646379999999908
11
154.5189399999999864
21
-111.7702209999999923
0
LINE
8
BLACK
6
CONTINUOUS
10
154.5189399999999864
20
-111.7702209999999923
11
154.5117199999999968
21
-111.7854129999999913
0
LINE
8
BLACK
6
CONTINUOUS
10
154.5117199999999968
20
-111.7854129999999913
11
154.5039999999999907
21
-111.80574399999999
0
LINE
8
BLACK
6
CONTINUOUS
10
154.5039999999999907
20
-111.80574399999999
11
154.4958450000000028
21
-111.8309419999999932
0
LINE
8
BLACK
6
CONTINUOUS
10
154.4958450000000028
20
-111.8309419999999932
11
154.4873249999999985
21
-111.8607339999999937
0
LINE
8
BLACK
6
CONTINUOUS
10
154.4873249999999985
20
-111.8607339999999937
11
154.4785049999999842
21
-111.8948469999999986
0
LINE
8
BLACK
6
CONTINUOUS
10
154.4785049999999842
20
-111.8948469999999986
11
154.4694549999999822
21
-111.9330080000000009
0
LINE
8
BLACK
6
CONTINUOUS
10
154.4694549999999822
20
-111.9330080000000009
11
154.4602399999999989
21
-111.9749439999999936
0
LINE
8
BLACK
6
CONTINUOUS
10
154.4602399999999989
20
-111.9749439999999936
11
154.4509299999999996
21
-112.0203819999999979
0
LINE
8
BLACK
6
CONTINUOUS
10
154.4509299999999996
20
-112.0203819999999979
11
154.4415899999999908
21
-112.0690499999999901
0
LINE
8
BLACK
6
CONTINUOUS
10
154.4415899999999908
20
-112.0690499999999901
11
154.4322889999999973
21
-112.120673999999994
0
LINE
8
BLACK
6
CONTINUOUS
10
154.4322889999999973
20
-112.120673999999994
11
154.4230949999999893
21
-112.1749809999999883
0
LINE
8
BLACK
6
CONTINUOUS
10
154.4230949999999893
20
-112.1749809999999883
11
154.4140739999999994
21
-112.2316989999999919
0
LINE
8
BLACK
6
CONTINUOUS
10
154.4140739999999994
20
-112.2316989999999919
11
154.4052939999999978
21
-112.2905549999999977
0
LINE
8
BLACK
6
CONTINUOUS
10
154.4052939999999978
20
-112.2905549999999977
11
154.383798999999982
21
-112.4300810000000013
0
LINE
8
BLACK
6
CONTINUOUS
10
154.383798999999982
20
-112.4300810000000013
11
154.3601699999999823
21
-112.565770999999998
0
LINE
8
BLACK
6
CONTINUOUS
10
154.3601699999999823
20
-112.565770999999998
11
154.3344539999999938
21
-112.6974869999999953
0
LINE
8
BLACK
6
CONTINUOUS
10
154.3344539999999938
20
-112.6974869999999953
11
154.3066959999999881
21
-112.8250949999999904
0
LINE
8
BLACK
6
CONTINUOUS
10
154.3066959999999881
20
-112.8250949999999904
11
154.2769419999999911
21
-112.9484569999999906
0
LINE
8
BLACK
6
CONTINUOUS
10
154.2769419999999911
20
-112.9484569999999906
11
154.245238999999998
21
-113.0674369999999982
0
LINE
8
BLACK
6
CONTINUOUS
10
154.245238999999998
20
-113.0674369999999982
11
154.2116340000000037
21
-113.1818990000000014
0
LINE
8
BLACK
6
CONTINUOUS
10
154.2116340000000037
20
-113.1818990000000014
11
154.1761709999999823
21
-113.2917059999999907
0
LINE
8
BLACK
6
CONTINUOUS
10
154.1761709999999823
20
-113.2917059999999907
11
154.1388979999999833
21
-113.3967229999999944
0
LINE
8
BLACK
6
CONTINUOUS
10
154.1388979999999833
20
-113.3967229999999944
11
154.0998589999999808
21
-113.4968129999999888
0
LINE
8
BLACK
6
CONTINUOUS
10
154.0998589999999808
20
-113.4968129999999888
11
154.0591029999999932
21
-113.5918399999999906
0
LINE
8
BLACK
6
CONTINUOUS
10
154.0591029999999932
20
-113.5918399999999906
11
154.0166739999999947
21
-113.6816669999999903
0
LINE
8
BLACK
6
CONTINUOUS
10
154.0166739999999947
20
-113.6816669999999903
11
153.9726189999999804
21
-113.7661579999999901
0
LINE
8
BLACK
6
CONTINUOUS
10
153.9726189999999804
20
-113.7661579999999901
11
153.9269840000000045
21
-113.845175999999995
0
LINE
8
BLACK
6
CONTINUOUS
10
153.9269840000000045
20
-113.845175999999995
11
153.8798160000000053
21
-113.9185869999999881
0
LINE
8
BLACK
6
CONTINUOUS
10
153.8798160000000053
20
-113.9185869999999881
11
153.8311589999999853
21
-113.9862519999999932
0
LINE
8
BLACK
6
CONTINUOUS
10
153.8311589999999853
20
-113.9862519999999932
11
153.7381129999999985
21
-114.1009919999999909
0
LINE
8
BLACK
6
CONTINUOUS
10
153.7381129999999985
20
-114.1009919999999909
11
153.6387529999999799
21
-114.2098209999999909
0
LINE
8
BLACK
6
CONTINUOUS
10
153.6387529999999799
20
-114.2098209999999909
11
153.5336739999999907
21
-114.3124430000000018
0
LINE
8
BLACK
6
CONTINUOUS
10
153.5336739999999907
20
-114.3124430000000018
11
153.4234699999999805
21
-114.4085589999999968
0
LINE
8
BLACK
6
CONTINUOUS
10
153.4234699999999805
20
-114.4085589999999968
11
153.3087329999999895
21
-114.497872000000001
0
LINE
8
BLACK
6
CONTINUOUS
10
153.3087329999999895
20
-114.497872000000001
11
153.1900579999999934
21
-114.5800849999999969
0
LINE
8
BLACK
6
CONTINUOUS
10
153.1900579999999934
20
-114.5800849999999969
11
153.0680380000000014
21
-114.6548990000000003
0
LINE
8
BLACK
6
CONTINUOUS
10
153.0680380000000014
20
-114.6548990000000003
11
152.9432669999999916
21
-114.7220169999999939
0
LINE
8
BLACK
6
CONTINUOUS
10
152.9432669999999916
20
-114.7220169999999939
11
152.8163389999999993
21
-114.781140999999991
0
LINE
8
BLACK
6
CONTINUOUS
10
152.8163389999999993
20
-114.781140999999991
11
152.687847000000005
21
-114.8319739999999882
0
LINE
8
BLACK
6
CONTINUOUS
10
152.687847000000005
20
-114.8319739999999882
11
152.5583839999999896
21
-114.8742159999999899
0
LINE
8
BLACK
6
CONTINUOUS
10
152.5583839999999896
20
-114.8742159999999899
11
152.428543999999988
21
-114.9075720000000018
0
LINE
8
BLACK
6
CONTINUOUS
10
152.428543999999988
20
-114.9075720000000018
11
152.2989220000000046
21
-114.9317429999999973
0
LINE
8
BLACK
6
CONTINUOUS
10
152.2989220000000046
20
-114.9317429999999973
11
152.1701089999999965
21
-114.9464320000000015
0
LINE
8
BLACK
6
CONTINUOUS
10
152.1701089999999965
20
-114.9464320000000015
11
152.0427009999999939
21
-114.9513400000000019
0
LINE
8
BLACK
6
CONTINUOUS
10
152.0427009999999939
20
-114.9513400000000019
11
151.979709999999983
21
-114.9500329999999906
0
LINE
8
BLACK
6
CONTINUOUS
10
151.979709999999983
20
-114.9500329999999906
11
151.9172910000000059
21
-114.9461699999999951
0
LINE
8
BLACK
6
CONTINUOUS
10
151.9172910000000059
20
-114.9461699999999951
11
151.7884530000000041
21
-114.930263999999994
0
LINE
8
BLACK
6
CONTINUOUS
10
151.7884530000000041
20
-114.930263999999994
11
151.6574909999999932
21
-114.9041149999999902
0
LINE
8
BLACK
6
CONTINUOUS
10
151.6574909999999932
20
-114.9041149999999902
11
151.5253659999999911
21
-114.8683359999999993
0
LINE
8
BLACK
6
CONTINUOUS
10
151.5253659999999911
20
-114.8683359999999993
11
151.39303799999999
21
-114.8235430000000008
0
LINE
8
BLACK
6
CONTINUOUS
10
151.39303799999999
20
-114.8235430000000008
11
151.2614690000000053
21
-114.7703519999999884
0
LINE
8
BLACK
6
CONTINUOUS
10
151.2614690000000053
20
-114.7703519999999884
11
151.1316170000000056
21
-114.7093769999999893
0
LINE
8
BLACK
6
CONTINUOUS
10
151.1316170000000056
20
-114.7093769999999893
11
151.0044440000000066
21
-114.6412349999999947
0
LINE
8
BLACK
6
CONTINUOUS
10
151.0044440000000066
20
-114.6412349999999947
11
150.8809109999999976
21
-114.5665399999999892
0
LINE
8
BLACK
6
CONTINUOUS
10
150.8809109999999976
20
-114.5665399999999892
11
150.7619770000000017
21
-114.4859069999999974
0
LINE
8
BLACK
6
CONTINUOUS
10
150.7619770000000017
20
-114.4859069999999974
11
150.6486029999999801
21
-114.399951999999999
0
LINE
8
BLACK
6
CONTINUOUS
10
150.6486029999999801
20
-114.399951999999999
11
150.5417499999999791
21
-114.3092910000000018
0
LINE
8
BLACK
6
CONTINUOUS
10
150.5417499999999791
20
-114.3092910000000018
11
150.4423779999999908
21
-114.2145379999999903
0
LINE
8
BLACK
6
CONTINUOUS
10
150.4423779999999908
20
-114.2145379999999903
11
150.3514480000000049
21
-114.1163079999999894
0
LINE
8
BLACK
6
CONTINUOUS
10
150.3514480000000049
20
-114.1163079999999894
11
150.2699189999999874
21
-114.0152179999999902
0
LINE
8
BLACK
6
CONTINUOUS
10
150.2699189999999874
20
-114.0152179999999902
11
150.1987529999999822
21
-113.9118819999999914
0
LINE
8
BLACK
6
CONTINUOUS
10
150.1987529999999822
20
-113.9118819999999914
11
150.1389099999999814
21
-113.8069160000000011
0
LINE
8
BLACK
6
CONTINUOUS
10
150.1389099999999814
20
-113.8069160000000011
11
150.1157790000000034
21
-113.7607969999999966
0
LINE
8
BLACK
6
CONTINUOUS
10
150.1157790000000034
20
-113.7607969999999966
11
150.0955919999999821
21
-113.7179059999999993
0
LINE
8
BLACK
6
CONTINUOUS
10
150.0955919999999821
20
-113.7179059999999993
11
150.07826799999998
21
-113.6766169999999931
0
LINE
8
BLACK
6
CONTINUOUS
10
150.07826799999998
20
-113.6766169999999931
11
150.0706559999999854
21
-113.6560659999999956
0
LINE
8
BLACK
6
CONTINUOUS
10
150.0706559999999854
20
-113.6560659999999956
11
150.06373099999999
21
-113.6353039999999908
0
LINE
8
BLACK
6
CONTINUOUS
10
150.06373099999999
20
-113.6353039999999908
11
150.0574829999999906
21
-113.6141299999999887
0
LINE
8
BLACK
6
CONTINUOUS
10
150.0574829999999906
20
-113.6141299999999887
11
150.0519009999999867
21
-113.5923409999999905
0
LINE
8
BLACK
6
CONTINUOUS
10
150.0519009999999867
20
-113.5923409999999905
11
150.0469769999999983
21
-113.5697309999999902
0
LINE
8
BLACK
6
CONTINUOUS
10
150.0469769999999983
20
-113.5697309999999902
11
150.0426999999999964
21
-113.5460999999999956
0
LINE
8
BLACK
6
CONTINUOUS
10
150.0426999999999964
20
-113.5460999999999956
11
150.0390600000000063
21
-113.5212420000000009
0
LINE
8
BLACK
6
CONTINUOUS
10
150.0390600000000063
20
-113.5212420000000009
11
150.0360489999999913
21
-113.4949549999999903
0
LINE
8
BLACK
6
CONTINUOUS
10
150.0360489999999913
20
-113.4949549999999903
11
150.0336549999999818
21
-113.4670349999999956
0
LINE
8
BLACK
6
CONTINUOUS
10
150.0336549999999818
20
-113.4670349999999956
11
150.0318690000000004
21
-113.4372800000000012
0
LINE
8
BLACK
6
CONTINUOUS
10
150.0318690000000004
20
-113.4372800000000012
11
150.0306819999999846
21
-113.4054859999999962
0
LINE
8
BLACK
6
CONTINUOUS
10
150.0306819999999846
20
-113.4054859999999962
11
150.0300829999999905
21
-113.3714489999999984
0
LINE
8
BLACK
6
CONTINUOUS
10
150.0300829999999905
20
-113.3714489999999984
11
150.0306109999999933
21
-113.2958349999999967
0
LINE
8
BLACK
6
CONTINUOUS
10
150.0306109999999933
20
-113.2958349999999967
11
150.0333739999999807
21
-113.2088119999999947
0
LINE
8
BLACK
6
CONTINUOUS
10
150.0333739999999807
20
-113.2088119999999947
11
150.0382950000000051
21
-113.108752999999993
0
LINE
8
BLACK
6
CONTINUOUS
10
150.0382950000000051
20
-113.108752999999993
11
150.0452949999999817
21
-112.99403199999999
0
LINE
8
BLACK
6
CONTINUOUS
10
150.0452949999999817
20
-112.99403199999999
11
150.0542949999999962
21
-112.8630220000000008
0
LINE
8
BLACK
6
CONTINUOUS
10
150.0542949999999962
20
-112.8630220000000008
11
150.0779819999999916
21
-112.5456319999999977
0
LINE
8
BLACK
6
CONTINUOUS
10
150.0779819999999916
20
-112.5456319999999977
11
150.1074109999999848
21
-112.0647729999999882
0
LINE
8
BLACK
6
CONTINUOUS
10
150.1074109999999848
20
-112.0647729999999882
11
150.1314469999999801
21
-111.4896430000000009
0
LINE
8
BLACK
6
CONTINUOUS
10
150.1314469999999801
20
-111.4896430000000009
11
150.1476150000000018
21
-110.892438999999996
0
LINE
8
BLACK
6
CONTINUOUS
10
150.1476150000000018
20
-110.892438999999996
11
150.1534359999999992
21
-110.3453569999999928
0
LINE
8
BLACK
6
CONTINUOUS
10
150.1534359999999992
20
-110.3453569999999928
11
150.1530429999999967
21
-109.1381959999999935
0
LINE
8
BLACK
6
CONTINUOUS
10
150.1530429999999967
20
-109.1381959999999935
11
149.6734830000000045
21
-109.1396639999999962
0
LINE
8
BLACK
6
CONTINUOUS
10
149.6734830000000045
20
-109.1396639999999962
11
149.3124329999999986
21
-109.1478309999999965
0
LINE
8
BLACK
6
CONTINUOUS
10
149.3124329999999986
20
-109.1478309999999965
11
148.6838799999999878
21
-109.1689839999999947
0
LINE
8
BLACK
6
CONTINUOUS
10
148.6838799999999878
20
-109.1689839999999947
11
146.9780399999999929
21
-109.2374159999999961
0
LINE
8
BLACK
6
CONTINUOUS
10
146.9780399999999929
20
-109.2374159999999961
11
145.3282279999999957
21
-109.3058499999999924
0
LINE
8
BLACK
6
CONTINUOUS
10
145.3282279999999957
20
-109.3058499999999924
11
144.473321999999996
21
-109.3351689999999934
0
LINE
8
BLACK
6
CONTINUOUS
10
144.473321999999996
20
-109.3351689999999934
11
144.3844969999999819
21
-109.3363779999999963
0
LINE
8
BLACK
6
CONTINUOUS
10
144.3844969999999819
20
-109.3363779999999963
11
144.3480940000000032
21
-109.3377610000000004
0
LINE
8
BLACK
6
CONTINUOUS
10
144.3480940000000032
20
-109.3377610000000004
11
144.3166539999999998
21
-109.3398899999999969
0
LINE
8
BLACK
6
CONTINUOUS
10
144.3166539999999998
20
-109.3398899999999969
11
144.2898959999999988
21
-109.3429349999999971
0
LINE
8
BLACK
6
CONTINUOUS
10
144.2898959999999988
20
-109.3429349999999971
11
144.2675380000000018
21
-109.3470659999999981
0
LINE
8
BLACK
6
CONTINUOUS
10
144.2675380000000018
20
-109.3470659999999981
11
144.2579209999999819
21
-109.3495920000000012
0
LINE
8
BLACK
6
CONTINUOUS
10
144.2579209999999819
20
-109.3495920000000012
11
144.2492979999999818
21
-109.3524519999999995
0
LINE
8
BLACK
6
CONTINUOUS
10
144.2492979999999818
20
-109.3524519999999995
11
144.2416340000000048
21
-109.3556689999999918
0
LINE
8
BLACK
6
CONTINUOUS
10
144.2416340000000048
20
-109.3556689999999918
11
144.234893999999997
21
-109.359263999999996
0
LINE
8
BLACK
6
CONTINUOUS
10
144.234893999999997
20
-109.359263999999996
11
144.2290419999999926
21
-109.3632580000000019
0
LINE
8
BLACK
6
CONTINUOUS
10
144.2290419999999926
20
-109.3632580000000019
11
144.2240439999999921
21
-109.3676710000000014
0
LINE
8
BLACK
6
CONTINUOUS
10
144.2240439999999921
20
-109.3676710000000014
11
144.2198630000000037
21
-109.3725259999999935
0
LINE
8
BLACK
6
CONTINUOUS
10
144.2198630000000037
20
-109.3725259999999935
11
144.2164659999999969
21
-109.3778439999999961
0
LINE
8
BLACK
6
CONTINUOUS
10
144.2164659999999969
20
-109.3778439999999961
11
144.21381599999998
21
-109.3836450000000013
0
LINE
8
BLACK
6
CONTINUOUS
10
144.21381599999998
20
-109.3836450000000013
11
144.2118779999999845
21
-109.3899509999999964
0
LINE
8
BLACK
6
CONTINUOUS
10
144.2118779999999845
20
-109.3899509999999964
11
144.2106179999999824
21
-109.3967839999999967
0
LINE
8
BLACK
6
CONTINUOUS
10
144.2106179999999824
20
-109.3967839999999967
11
144.2099989999999821
21
-109.4041639999999944
0
LINE
8
BLACK
6
CONTINUOUS
10
144.2099989999999821
20
-109.4041639999999944
11
144.2105469999999912
21
-109.4206519999999898
0
LINE
8
BLACK
6
CONTINUOUS
10
144.2105469999999912
20
-109.4206519999999898
11
144.2132389999999873
21
-109.4395839999999964
0
LINE
8
BLACK
6
CONTINUOUS
10
144.2132389999999873
20
-109.4395839999999964
11
144.2177939999999978
21
-109.4611309999999946
0
LINE
8
BLACK
6
CONTINUOUS
10
144.2177939999999978
20
-109.4611309999999946
11
144.2239299999999957
21
-109.4854629999999958
0
LINE
8
BLACK
6
CONTINUOUS
10
144.2239299999999957
20
-109.4854629999999958
11
144.2335009999999897
21
-109.5386659999999921
0
LINE
8
BLACK
6
CONTINUOUS
10
144.2335009999999897
20
-109.5386659999999921
11
144.2456169999999815
21
-109.6333539999999971
0
LINE
8
BLACK
6
CONTINUOUS
10
144.2456169999999815
20
-109.6333539999999971
11
144.2597820000000013
21
-109.7642319999999927
0
LINE
8
BLACK
6
CONTINUOUS
10
144.2597820000000013
20
-109.7642319999999927
11
144.2755060000000071
21
-109.9260069999999985
0
LINE
8
BLACK
6
CONTINUOUS
10
144.2755060000000071
20
-109.9260069999999985
11
144.3096549999999922
21
-110.3210709999999892
0
LINE
8
BLACK
6
CONTINUOUS
10
144.3096549999999922
20
-110.3210709999999892
11
144.3441200000000038
21
-110.7761939999999896
0
LINE
8
BLACK
6
CONTINUOUS
10
144.3441200000000038
20
-110.7761939999999896
11
144.368109000000004
21
-111.1827069999999935
0
LINE
8
BLACK
6
CONTINUOUS
10
144.368109000000004
20
-111.1827069999999935
11
144.3811719999999923
21
-111.5713930000000005
0
LINE
8
BLACK
6
CONTINUOUS
10
144.3811719999999923
20
-111.5713930000000005
11
144.3831339999999841
21
-111.9430729999999983
0
LINE
8
BLACK
6
CONTINUOUS
10
144.3831339999999841
20
-111.9430729999999983
11
144.3738199999999949
21
-112.2985659999999939
0
LINE
8
BLACK
6
CONTINUOUS
10
144.3738199999999949
20
-112.2985659999999939
11
144.3530580000000043
21
-112.6386899999999969
0
LINE
8
BLACK
6
CONTINUOUS
10
144.3530580000000043
20
-112.6386899999999969
11
144.3206720000000018
21
-112.9642649999999975
0
LINE
8
BLACK
6
CONTINUOUS
10
144.3206720000000018
20
-112.9642649999999975
11
144.2764899999999955
21
-113.2761099999999885
0
LINE
8
BLACK
6
CONTINUOUS
10
144.2764899999999955
20
-113.2761099999999885
11
144.2203360000000032
21
-113.5750439999999912
0
LINE
8
BLACK
6
CONTINUOUS
10
144.2203360000000032
20
-113.5750439999999912
11
144.1520359999999812
21
-113.8618859999999984
0
LINE
8
BLACK
6
CONTINUOUS
10
144.1520359999999812
20
-113.8618859999999984
11
144.0714179999999942
21
-114.1374549999999886
0
LINE
8
BLACK
6
CONTINUOUS
10
144.0714179999999942
20
-114.1374549999999886
11
143.9783060000000035
21
-114.4025709999999947
0
LINE
8
BLACK
6
CONTINUOUS
10
143.9783060000000035
20
-114.4025709999999947
11
143.8725269999999909
21
-114.6580519999999979
0
LINE
8
BLACK
6
CONTINUOUS
10
143.8725269999999909
20
-114.6580519999999979
11
143.7539069999999981
21
-114.9047179999999884
0
LINE
8
BLACK
6
CONTINUOUS
10
143.7539069999999981
20
-114.9047179999999884
11
143.6222709999999836
21
-115.1433880000000016
0
LINE
8
BLACK
6
CONTINUOUS
10
143.6222709999999836
20
-115.1433880000000016
11
143.4774459999999863
21
-115.3748809999999878
0
LINE
8
BLACK
6
CONTINUOUS
10
143.4774459999999863
20
-115.3748809999999878
11
143.3192569999999932
21
-115.6000159999999966
0
LINE
8
BLACK
6
CONTINUOUS
10
143.3192569999999932
20
-115.6000159999999966
11
143.254148999999984
21
-115.6849089999999904
0
LINE
8
BLACK
6
CONTINUOUS
10
143.254148999999984
20
-115.6849089999999904
11
143.1857320000000016
21
-115.7686530000000005
0
LINE
8
BLACK
6
CONTINUOUS
10
143.1857320000000016
20
-115.7686530000000005
11
143.1141969999999901
21
-115.8510859999999951
0
LINE
8
BLACK
6
CONTINUOUS
10
143.1141969999999901
20
-115.8510859999999951
11
143.0397370000000024
21
-115.932044999999988
0
LINE
8
BLACK
6
CONTINUOUS
10
143.0397370000000024
20
-115.932044999999988
11
142.9625439999999799
21
-116.0113669999999928
0
LINE
8
BLACK
6
CONTINUOUS
10
142.9625439999999799
20
-116.0113669999999928
11
142.8828100000000063
21
-116.0888899999999921
0
LINE
8
BLACK
6
CONTINUOUS
10
142.8828100000000063
20
-116.0888899999999921
11
142.8007269999999949
21
-116.1644489999999905
0
LINE
8
BLACK
6
CONTINUOUS
10
142.8007269999999949
20
-116.1644489999999905
11
142.7164860000000033
21
-116.2378829999999965
0
LINE
8
BLACK
6
CONTINUOUS
10
142.7164860000000033
20
-116.2378829999999965
11
142.6302799999999991
21
-116.3090289999999953
0
LINE
8
BLACK
6
CONTINUOUS
10
142.6302799999999991
20
-116.3090289999999953
11
142.5423020000000065
21
-116.3777229999999889
0
LINE
8
BLACK
6
CONTINUOUS
10
142.5423020000000065
20
-116.3777229999999889
11
142.4527420000000006
21
-116.4438029999999884
0
LINE
8
BLACK
6
CONTINUOUS
10
142.4527420000000006
20
-116.4438029999999884
11
142.3617930000000058
21
-116.5071059999999932
0
LINE
8
BLACK
6
CONTINUOUS
10
142.3617930000000058
20
-116.5071059999999932
11
142.269646999999992
21
-116.5674689999999885
0
LINE
8
BLACK
6
CONTINUOUS
10
142.269646999999992
20
-116.5674689999999885
11
142.176495999999986
21
-116.6247289999999879
0
LINE
8
BLACK
6
CONTINUOUS
10
142.176495999999986
20
-116.6247289999999879
11
142.0825319999999863
21
-116.6787229999999909
0
LINE
8
BLACK
6
CONTINUOUS
10
142.0825319999999863
20
-116.6787229999999909
11
141.9879469999999912
21
-116.7292889999999943
0
LINE
8
BLACK
6
CONTINUOUS
10
141.9879469999999912
20
-116.7292889999999943
11
141.9033660000000054
21
-116.7681169999999895
0
LINE
8
BLACK
6
CONTINUOUS
10
141.9033660000000054
20
-116.7681169999999895
11
141.8088559999999916
21
-116.8030219999999986
0
LINE
8
BLACK
6
CONTINUOUS
10
141.8088559999999916
20
-116.8030219999999986
11
141.7055900000000008
21
-116.8339330000000018
0
LINE
8
BLACK
6
CONTINUOUS
10
141.7055900000000008
20
-116.8339330000000018
11
141.5947400000000016
21
-116.8607820000000004
0
LINE
8
BLACK
6
CONTINUOUS
10
141.5947400000000016
20
-116.8607820000000004
11
141.4774779999999907
21
-116.8834990000000005
0
LINE
8
BLACK
6
CONTINUOUS
10
141.4774779999999907
20
-116.8834990000000005
11
141.3549779999999885
21
-116.9020149999999916
0
LINE
8
BLACK
6
CONTINUOUS
10
141.3549779999999885
20
-116.9020149999999916
11
141.2284109999999941
21
-116.9162599999999941
0
LINE
8
BLACK
6
CONTINUOUS
10
141.2284109999999941
20
-116.9162599999999941
11
141.0989490000000046
21
-116.9261659999999949
0
LINE
8
BLACK
6
CONTINUOUS
10
141.0989490000000046
20
-116.9261659999999949
11
140.9677659999999833
21
-116.9316630000000004
0
LINE
8
BLACK
6
CONTINUOUS
10
140.9677659999999833
20
-116.9316630000000004
11
140.8360339999999837
21
-116.9326819999999998
0
LINE
8
BLACK
6
CONTINUOUS
10
140.8360339999999837
20
-116.9326819999999998
11
140.7049240000000054
21
-116.9291529999999995
0
LINE
8
BLACK
6
CONTINUOUS
10
140.7049240000000054
20
-116.9291529999999995
11
140.5756099999999833
21
-116.9210080000000005
0
LINE
8
BLACK
6
CONTINUOUS
10
140.5756099999999833
20
-116.9210080000000005
11
140.4492639999999994
21
-116.9081759999999974
0
LINE
8
BLACK
6
CONTINUOUS
10
140.4492639999999994
20
-116.9081759999999974
11
140.3270589999999913
21
-116.8905889999999914
0
LINE
8
BLACK
6
CONTINUOUS
10
140.3270589999999913
20
-116.8905889999999914
11
140.2101659999999868
21
-116.8681780000000003
0
LINE
8
BLACK
6
CONTINUOUS
10
140.2101659999999868
20
-116.8681780000000003
11
140.09975799999998
21
-116.8408719999999903
0
LINE
8
BLACK
6
CONTINUOUS
10
140.09975799999998
20
-116.8408719999999903
11
140.0997229999999831
21
-116.8408719999999903
0
LINE
8
BLACK
6
CONTINUOUS
10
140.0997229999999831
20
-116.8408719999999903
11
140.001938999999993
21
-116.8115249999999889
0
LINE
8
BLACK
6
CONTINUOUS
10
140.001938999999993
20
-116.8115249999999889
11
139.9028849999999977
21
-116.7778009999999966
0
LINE
8
BLACK
6
CONTINUOUS
10
139.9028849999999977
20
-116.7778009999999966
11
139.803213999999997
21
-116.7400749999999903
0
LINE
8
BLACK
6
CONTINUOUS
10
139.803213999999997
20
-116.7400749999999903
11
139.7035759999999982
21
-116.698724999999996
0
LINE
8
BLACK
6
CONTINUOUS
10
139.7035759999999982
20
-116.698724999999996
11
139.6046209999999803
21
-116.6541289999999975
0
LINE
8
BLACK
6
CONTINUOUS
10
139.6046209999999803
20
-116.6541289999999975
11
139.507000000000005
21
-116.606663999999995
0
LINE
8
BLACK
6
CONTINUOUS
10
139.507000000000005
20
-116.606663999999995
11
139.4113639999999918
21
-116.5567049999999938
0
LINE
8
BLACK
6
CONTINUOUS
10
139.4113639999999918
20
-116.5567049999999938
11
139.3183640000000025
21
-116.5046320000000009
0
LINE
8
BLACK
6
CONTINUOUS
10
139.3183640000000025
20
-116.5046320000000009
11
139.2286499999999876
21
-116.4508189999999956
0
LINE
8
BLACK
6
CONTINUOUS
10
139.2286499999999876
20
-116.4508189999999956
11
139.1428729999999803
21
-116.3956459999999993
0
LINE
8
BLACK
6
CONTINUOUS
10
139.1428729999999803
20
-116.3956459999999993
11
139.0616839999999854
21
-116.3394879999999887
0
LINE
8
BLACK
6
CONTINUOUS
10
139.0616839999999854
20
-116.3394879999999887
11
138.985732999999982
21
-116.2827229999999901
0
LINE
8
BLACK
6
CONTINUOUS
10
138.985732999999982
20
-116.2827229999999901
11
138.9156710000000032
21
-116.2257279999999895
0
LINE
8
BLACK
6
CONTINUOUS
10
138.9156710000000032
20
-116.2257279999999895
11
138.8521479999999997
21
-116.1688789999999898
0
LINE
8
BLACK
6
CONTINUOUS
10
138.8521479999999997
20
-116.1688789999999898
11
138.7958160000000021
21
-116.1125550000000004
0
LINE
8
BLACK
6
CONTINUOUS
10
138.7958160000000021
20
-116.1125550000000004
11
138.7473259999999868
21
-116.0571309999999983
0
LINE
8
BLACK
6
CONTINUOUS
10
138.7473259999999868
20
-116.0571309999999983
11
138.7151589999999999
21
-116.0167299999999955
0
LINE
8
BLACK
6
CONTINUOUS
10
138.7151589999999999
20
-116.0167299999999955
11
138.6865359999999896
21
-115.9791629999999998
0
LINE
8
BLACK
6
CONTINUOUS
10
138.6865359999999896
20
-115.9791629999999998
11
138.6612549999999828
21
-115.9437389999999937
0
LINE
8
BLACK
6
CONTINUOUS
10
138.6612549999999828
20
-115.9437389999999937
11
138.639111999999983
21
-115.9097639999999956
0
LINE
8
BLACK
6
CONTINUOUS
10
138.639111999999983
20
-115.9097639999999956
11
138.6199059999999861
21
-115.8765459999999905
0
LINE
8
BLACK
6
CONTINUOUS
10
138.6199059999999861
20
-115.8765459999999905
11
138.6113409999999817
21
-115.8600029999999919
0
LINE
8
BLACK
6
CONTINUOUS
10
138.6113409999999817
20
-115.8600029999999919
11
138.6034339999999929
21
-115.8433899999999994
0
LINE
8
BLACK
6
CONTINUOUS
10
138.6034339999999929
20
-115.8433899999999994
11
138.5961609999999951
21
-115.8266189999999938
0
LINE
8
BLACK
6
CONTINUOUS
10
138.5961609999999951
20
-115.8266189999999938
11
138.589494000000002
21
-115.8096049999999906
0
LINE
8
BLACK
6
CONTINUOUS
10
138.589494000000002
20
-115.8096049999999906
11
138.5834099999999864
21
-115.7922590000000014
0
LINE
8
BLACK
6
CONTINUOUS
10
138.5834099999999864
20
-115.7922590000000014
11
138.5778829999999857
21
-115.7744959999999992
0
LINE
8
BLACK
6
CONTINUOUS
10
138.5778829999999857
20
-115.7744959999999992
11
138.5728880000000061
21
-115.7562289999999905
0
LINE
8
BLACK
6
CONTINUOUS
10
138.5728880000000061
20
-115.7562289999999905
11
138.5683989999999994
21
-115.737370999999996
0
LINE
8
BLACK
6
CONTINUOUS
10
138.5683989999999994
20
-115.737370999999996
11
138.5608399999999847
21
-115.697536999999997
0
LINE
8
BLACK
6
CONTINUOUS
10
138.5608399999999847
20
-115.697536999999997
11
138.5550020000000018
21
-115.6542999999999921
0
LINE
8
BLACK
6
CONTINUOUS
10
138.5550020000000018
20
-115.6542999999999921
11
138.5506849999999872
21
-115.6069679999999948
0
LINE
8
BLACK
6
CONTINUOUS
10
138.5506849999999872
20
-115.6069679999999948
11
138.5476840000000038
21
-115.5548469999999952
0
LINE
8
BLACK
6
CONTINUOUS
10
138.5476840000000038
20
-115.5548469999999952
11
138.5457989999999882
21
-115.4972449999999924
0
LINE
8
BLACK
6
CONTINUOUS
10
138.5457989999999882
20
-115.4972449999999924
11
138.5448260000000005
21
-115.4334669999999932
0
LINE
8
BLACK
6
CONTINUOUS
10
138.5448260000000005
20
-115.4334669999999932
11
138.5445629999999824
21
-115.3628219999999942
0
LINE
8
BLACK
6
CONTINUOUS
10
138.5445629999999824
20
-115.3628219999999942
11
138.5441539999999918
21
-115.2273999999999887
0
LINE
8
BLACK
6
CONTINUOUS
10
138.5441539999999918
20
-115.2273999999999887
11
138.5423049999999989
21
-115.1257679999999937
0
LINE
8
BLACK
6
CONTINUOUS
10
138.5423049999999989
20
-115.1257679999999937
11
138.5405979999999886
21
-115.0868549999999999
0
LINE
8
BLACK
6
CONTINUOUS
10
138.5405979999999886
20
-115.0868549999999999
11
138.5382380000000069
21
-115.055466999999993
0
LINE
8
BLACK
6
CONTINUOUS
10
138.5382380000000069
20
-115.055466999999993
11
138.5351279999999861
21
-115.0312979999999925
0
LINE
8
BLACK
6
CONTINUOUS
10
138.5351279999999861
20
-115.0312979999999925
11
138.5311710000000005
21
-115.0140399999999943
0
LINE
8
BLACK
6
CONTINUOUS
10
138.5311710000000005
20
-115.0140399999999943
11
138.5288439999999923
21
-115.0079069999999888
0
LINE
8
BLACK
6
CONTINUOUS
10
138.5288439999999923
20
-115.0079069999999888
11
138.5262679999999875
21
-115.0033859999999919
0
LINE
8
BLACK
6
CONTINUOUS
10
138.5262679999999875
20
-115.0033859999999919
11
138.5234319999999855
21
-115.0004399999999976
0
LINE
8
BLACK
6
CONTINUOUS
10
138.5234319999999855
20
-115.0004399999999976
11
138.520323999999988
21
-114.9990289999999931
0
LINE
8
BLACK
6
CONTINUOUS
10
138.520323999999988
20
-114.9990289999999931
11
138.5169300000000021
21
-114.9991149999999891
0
LINE
8
BLACK
6
CONTINUOUS
10
138.5169300000000021
20
-114.9991149999999891
11
138.5132389999999987
21
-115.0006609999999938
0
LINE
8
BLACK
6
CONTINUOUS
10
138.5132389999999987
20
-115.0006609999999938
11
138.5049170000000061
21
-115.0079750000000018
0
LINE
8
BLACK
6
CONTINUOUS
10
138.5049170000000061
20
-115.0079750000000018
11
138.4952590000000043
21
-115.0206639999999965
0
LINE
8
BLACK
6
CONTINUOUS
10
138.4952590000000043
20
-115.0206639999999965
11
138.4841689999999801
21
-115.0384209999999996
0
LINE
8
BLACK
6
CONTINUOUS
10
138.4841689999999801
20
-115.0384209999999996
11
138.4573019999999985
21
-115.0879079999999988
0
LINE
8
BLACK
6
CONTINUOUS
10
138.4573019999999985
20
-115.0879079999999988
11
138.4263679999999965
21
-115.144843999999992
0
LINE
8
BLACK
6
CONTINUOUS
10
138.4263679999999965
20
-115.144843999999992
11
138.3938059999999837
21
-115.1995280000000008
0
LINE
8
BLACK
6
CONTINUOUS
10
138.3938059999999837
20
-115.1995280000000008
11
138.3596069999999827
21
-115.251964000000001
0
LINE
8
BLACK
6
CONTINUOUS
10
138.3596069999999827
20
-115.251964000000001
11
138.3237589999999955
21
-115.302156999999994
0
LINE
8
BLACK
6
CONTINUOUS
10
138.3237589999999955
20
-115.302156999999994
11
138.2862539999999854
21
-115.3501100000000008
0
LINE
8
BLACK
6
CONTINUOUS
10
138.2862539999999854
20
-115.3501100000000008
11
138.2470809999999801
21
-115.395826999999997
0
LINE
8
BLACK
6
CONTINUOUS
10
138.2470809999999801
20
-115.395826999999997
11
138.2062310000000025
21
-115.439312000000001
0
LINE
8
BLACK
6
CONTINUOUS
10
138.2062310000000025
20
-115.439312000000001
11
138.1636919999999975
21
-115.4805689999999885
0
LINE
8
BLACK
6
CONTINUOUS
10
138.1636919999999975
20
-115.4805689999999885
11
138.1194559999999854
21
-115.5196019999999919
0
LINE
8
BLACK
6
CONTINUOUS
10
138.1194559999999854
20
-115.5196019999999919
11
138.0735109999999963
21
-115.5564150000000012
0
LINE
8
BLACK
6
CONTINUOUS
10
138.0735109999999963
20
-115.5564150000000012
11
138.0258489999999938
21
-115.5910119999999921
0
LINE
8
BLACK
6
CONTINUOUS
10
138.0258489999999938
20
-115.5910119999999921
11
137.9764590000000055
21
-115.6233959999999996
0
LINE
8
BLACK
6
CONTINUOUS
10
137.9764590000000055
20
-115.6233959999999996
11
137.9253319999999974
21
-115.6535719999999969
0
LINE
8
BLACK
6
CONTINUOUS
10
137.9253319999999974
20
-115.6535719999999969
11
137.8724559999999997
21
-115.6815429999999907
0
LINE
8
BLACK
6
CONTINUOUS
10
137.8724559999999997
20
-115.6815429999999907
11
137.8178220000000067
21
-115.7073139999999967
0
LINE
8
BLACK
6
CONTINUOUS
10
137.8178220000000067
20
-115.7073139999999967
11
137.7614209999999844
21
-115.7308889999999906
0
LINE
8
BLACK
6
CONTINUOUS
10
137.7614209999999844
20
-115.7308889999999906
11
137.7032409999999913
21
-115.7522699999999958
0
LINE
8
BLACK
6
CONTINUOUS
10
137.7032409999999913
20
-115.7522699999999958
11
137.643273999999991
21
-115.7714629999999971
0
LINE
8
BLACK
6
CONTINUOUS
10
137.643273999999991
20
-115.7714629999999971
11
137.5815089999999827
21
-115.7884710000000013
0
LINE
8
BLACK
6
CONTINUOUS
10
137.5815089999999827
20
-115.7884710000000013
11
137.5179359999999917
21
-115.8032979999999981
0
LINE
8
BLACK
6
CONTINUOUS
10
137.5179359999999917
20
-115.8032979999999981
11
137.4525449999999864
21
-115.8159489999999892
0
LINE
8
BLACK
6
CONTINUOUS
10
137.4525449999999864
20
-115.8159489999999892
11
137.3853259999999921
21
-115.8264259999999979
0
LINE
8
BLACK
6
CONTINUOUS
10
137.3853259999999921
20
-115.8264259999999979
11
137.3162690000000055
21
-115.8347339999999974
0
LINE
8
BLACK
6
CONTINUOUS
10
137.3162690000000055
20
-115.8347339999999974
11
137.245363999999995
21
-115.8408769999999919
0
LINE
8
BLACK
6
CONTINUOUS
10
137.245363999999995
20
-115.8408769999999919
11
137.172600999999986
21
-115.8448589999999996
0
LINE
8
BLACK
6
CONTINUOUS
10
137.172600999999986
20
-115.8448589999999996
11
137.0979700000000037
21
-115.8466829999999987
0
LINE
8
BLACK
6
CONTINUOUS
10
137.0979700000000037
20
-115.8466829999999987
11
137.021460999999988
21
-115.8463539999999909
0
LINE
8
BLACK
6
CONTINUOUS
10
137.021460999999988
20
-115.8463539999999909
11
136.9430639999999926
21
-115.843874999999997
0
LINE
8
BLACK
6
CONTINUOUS
10
136.9430639999999926
20
-115.843874999999997
11
136.8627699999999834
21
-115.8392509999999902
0
LINE
8
BLACK
6
CONTINUOUS
10
136.8627699999999834
20
-115.8392509999999902
11
136.7805669999999907
21
-115.8324849999999913
0
LINE
8
BLACK
6
CONTINUOUS
10
136.7805669999999907
20
-115.8324849999999913
11
136.6964459999999804
21
-115.8235820000000018
0
LINE
8
BLACK
6
CONTINUOUS
10
136.6964459999999804
20
-115.8235820000000018
11
136.6103970000000061
21
-115.8125439999999884
0
LINE
8
BLACK
6
CONTINUOUS
10
136.6103970000000061
20
-115.8125439999999884
11
136.4963809999999853
21
-115.794905
0
LINE
8
BLACK
6
CONTINUOUS
10
136.4963809999999853
20
-115.794905
11
136.3864559999999813
21
-115.7741919999999993
0
LINE
8
BLACK
6
CONTINUOUS
10
136.3864559999999813
20
-115.7741919999999993
11
136.2802839999999946
21
-115.7502420000000001
0
LINE
8
BLACK
6
CONTINUOUS
10
136.2802839999999946
20
-115.7502420000000001
11
136.1775240000000053
21
-115.7228879999999975
0
LINE
8
BLACK
6
CONTINUOUS
10
136.1775240000000053
20
-115.7228879999999975
11
136.0778399999999806
21
-115.6919649999999962
0
LINE
8
BLACK
6
CONTINUOUS
10
136.0778399999999806
20
-115.6919649999999962
11
135.980891999999983
21
-115.6573080000000004
0
LINE
8
BLACK
6
CONTINUOUS
10
135.980891999999983
20
-115.6573080000000004
11
135.8863409999999874
21
-115.6187509999999889
0
LINE
8
BLACK
6
CONTINUOUS
10
135.8863409999999874
20
-115.6187509999999889
11
135.7938489999999945
21
-115.576129999999992
0
LINE
8
BLACK
6
CONTINUOUS
10
135.7938489999999945
20
-115.576129999999992
11
135.703078000000005
21
-115.5292779999999908
0
LINE
8
BLACK
6
CONTINUOUS
10
135.703078000000005
20
-115.5292779999999908
11
135.6136889999999937
21
-115.4780310000000014
0
LINE
8
BLACK
6
CONTINUOUS
10
135.6136889999999937
20
-115.4780310000000014
11
135.5253419999999949
21
-115.4222239999999999
0
LINE
8
BLACK
6
CONTINUOUS
10
135.5253419999999949
20
-115.4222239999999999
11
135.4377000000000066
21
-115.3616899999999958
0
LINE
8
BLACK
6
CONTINUOUS
10
135.4377000000000066
20
-115.3616899999999958
11
135.3504240000000038
21
-115.2962649999999911
0
LINE
8
BLACK
6
CONTINUOUS
10
135.3504240000000038
20
-115.2962649999999911
11
135.2631749999999897
21
-115.2257829999999927
0
LINE
8
BLACK
6
CONTINUOUS
10
135.2631749999999897
20
-115.2257829999999927
11
135.1756139999999959
21
-115.150078999999991
0
LINE
8
BLACK
6
CONTINUOUS
10
135.1756139999999959
20
-115.150078999999991
11
135.0874039999999923
21
-115.0689879999999903
0
LINE
8
BLACK
6
CONTINUOUS
10
135.0874039999999923
20
-115.0689879999999903
11
134.95864499999999
21
-114.9420609999999954
0
LINE
8
BLACK
6
CONTINUOUS
10
134.95864499999999
20
-114.9420609999999954
11
134.8425780000000032
21
-114.8167049999999989
0
LINE
8
BLACK
6
CONTINUOUS
10
134.8425780000000032
20
-114.8167049999999989
11
134.7391230000000064
21
-114.6926469999999938
0
LINE
8
BLACK
6
CONTINUOUS
10
134.7391230000000064
20
-114.6926469999999938
11
134.6482019999999977
21
-114.5696140000000014
0
LINE
8
BLACK
6
CONTINUOUS
10
134.6482019999999977
20
-114.5696140000000014
11
134.5697339999999826
21
-114.4473369999999903
0
LINE
8
BLACK
6
CONTINUOUS
10
134.5697339999999826
20
-114.4473369999999903
11
134.5351459999999975
21
-114.3863959999999906
0
LINE
8
BLACK
6
CONTINUOUS
10
134.5351459999999975
20
-114.3863959999999906
11
134.503641999999985
21
-114.3255419999999987
0
LINE
8
BLACK
6
CONTINUOUS
10
134.503641999999985
20
-114.3255419999999987
11
134.4752119999999991
21
-114.2647410000000008
0
LINE
8
BLACK
6
CONTINUOUS
10
134.4752119999999991
20
-114.2647410000000008
11
134.4498449999999821
21
-114.2039580000000001
0
LINE
8
BLACK
6
CONTINUOUS
10
134.4498449999999821
20
-114.2039580000000001
11
134.4275329999999826
21
-114.1431609999999921
0
LINE
8
BLACK
6
CONTINUOUS
10
134.4275329999999826
20
-114.1431609999999921
11
134.4082650000000001
21
-114.0823139999999967
0
LINE
8
BLACK
6
CONTINUOUS
10
134.4082650000000001
20
-114.0823139999999967
11
134.3920310000000029
21
-114.0213839999999976
0
LINE
8
BLACK
6
CONTINUOUS
10
134.3920310000000029
20
-114.0213839999999976
11
134.3788219999999853
21
-113.960337999999993
0
LINE
8
BLACK
6
CONTINUOUS
10
134.3788219999999853
20
-113.960337999999993
11
134.3686270000000036
21
-113.8991399999999885
0
LINE
8
BLACK
6
CONTINUOUS
10
134.3686270000000036
20
-113.8991399999999885
11
134.3614369999999951
21
-113.8377569999999963
0
LINE
8
BLACK
6
CONTINUOUS
10
134.3614369999999951
20
-113.8377569999999963
11
134.3572409999999877
21
-113.7761560000000003
0
LINE
8
BLACK
6
CONTINUOUS
10
134.3572409999999877
20
-113.7761560000000003
11
134.3560310000000015
21
-113.7143019999999893
0
LINE
8
BLACK
6
CONTINUOUS
10
134.3560310000000015
20
-113.7143019999999893
11
134.3577949999999817
21
-113.652159999999995
0
LINE
8
BLACK
6
CONTINUOUS
10
134.3577949999999817
20
-113.652159999999995
11
134.3625240000000076
21
-113.5896979999999985
0
LINE
8
BLACK
6
CONTINUOUS
10
134.3625240000000076
20
-113.5896979999999985
11
134.370207999999991
21
-113.5268809999999888
0
LINE
8
BLACK
6
CONTINUOUS
10
134.370207999999991
20
-113.5268809999999888
11
134.3808379999999829
21
-113.4636759999999924
0
LINE
8
BLACK
6
CONTINUOUS
10
134.3808379999999829
20
-113.4636759999999924
11
134.3944029999999827
21
-113.4000479999999982
0
LINE
8
BLACK
6
CONTINUOUS
10
134.3944029999999827
20
-113.4000479999999982
11
134.4108929999999873
21
-113.3359629999999925
0
LINE
8
BLACK
6
CONTINUOUS
10
134.4108929999999873
20
-113.3359629999999925
11
134.4302989999999909
21
-113.2713869999999901
0
LINE
8
BLACK
6
CONTINUOUS
10
134.4302989999999909
20
-113.2713869999999901
11
134.4526099999999929
21
-113.206286999999989
0
LINE
8
BLACK
6
CONTINUOUS
10
134.4526099999999929
20
-113.206286999999989
11
134.5059109999999976
21
-113.0743779999999958
0
LINE
8
BLACK
6
CONTINUOUS
10
134.5059109999999976
20
-113.0743779999999958
11
134.5546070000000043
21
-112.9594290000000001
0
LINE
8
BLACK
6
CONTINUOUS
10
134.5546070000000043
20
-112.9594290000000001
11
134.6047619999999938
21
-112.8309929999999923
0
LINE
8
BLACK
6
CONTINUOUS
10
134.6047619999999938
20
-112.8309929999999923
11
134.708564999999993
21
-112.5368589999999926
0
LINE
8
BLACK
6
CONTINUOUS
10
134.708564999999993
20
-112.5368589999999926
11
134.8155569999999841
21
-112.1983649999999955
0
LINE
8
BLACK
6
CONTINUOUS
10
134.8155569999999841
20
-112.1983649999999955
11
134.923973999999987
21
-111.8219059999999985
0
LINE
8
BLACK
6
CONTINUOUS
10
134.923973999999987
20
-111.8219059999999985
11
135.0320509999999956
21
-111.4138710000000003
0
LINE
8
BLACK
6
CONTINUOUS
10
135.0320509999999956
20
-111.4138710000000003
11
135.138024999999999
21
-110.9806540000000012
0
LINE
8
BLACK
6
CONTINUOUS
10
135.138024999999999
20
-110.9806540000000012
11
135.2401319999999885
21
-110.5286469999999923
0
LINE
8
BLACK
6
CONTINUOUS
10
135.2401319999999885
20
-110.5286469999999923
11
135.3366089999999815
21
-110.0642399999999981
0
LINE
8
BLACK
6
CONTINUOUS
10
135.3366089999999815
20
-110.0642399999999981
11
135.5534360000000049
21
-108.9728339999999918
0
LINE
8
BLACK
6
CONTINUOUS
10
135.5534360000000049
20
-108.9728339999999918
11
134.8788470000000075
21
-108.290939999999992
0
LINE
8
BLACK
6
CONTINUOUS
10
134.8788470000000075
20
-108.290939999999992
11
134.2042579999999816
21
-107.6090480000000014
0
LINE
8
BLACK
6
CONTINUOUS
10
134.2042579999999816
20
-107.6090480000000014
11
133.6139409999999828
21
-108.1708110000000005
0
LINE
8
BLACK
6
CONTINUOUS
10
133.6139409999999828
20
-108.1708110000000005
11
133.2833559999999977
21
-108.4717129999999941
0
LINE
8
BLACK
6
CONTINUOUS
10
133.2833559999999977
20
-108.4717129999999941
11
132.9435609999999883
21
-108.7537799999999919
0
LINE
8
BLACK
6
CONTINUOUS
10
132.9435609999999883
20
-108.7537799999999919
11
132.5939699999999846
21
-109.0172460000000001
0
LINE
8
BLACK
6
CONTINUOUS
10
132.5939699999999846
20
-109.0172460000000001
11
132.2340010000000063
21
-109.2623439999999988
0
LINE
8
BLACK
6
CONTINUOUS
10
132.2340010000000063
20
-109.2623439999999988
11
131.8630689999999959
21
-109.4893069999999966
0
LINE
8
BLACK
6
CONTINUOUS
10
131.8630689999999959
20
-109.4893069999999966
11
131.480591000000004
21
-109.6983680000000021
0
LINE
8
BLACK
6
CONTINUOUS
10
131.480591000000004
20
-109.6983680000000021
11
131.0859820000000013
21
-109.8897609999999929
0
LINE
8
BLACK
6
CONTINUOUS
10
131.0859820000000013
20
-109.8897609999999929
11
130.6786600000000078
21
-110.0637189999999919
0
LINE
8
BLACK
6
CONTINUOUS
10
130.6786600000000078
20
-110.0637189999999919
11
130.2580399999999941
21
-110.2204739999999958
0
LINE
8
BLACK
6
CONTINUOUS
10
130.2580399999999941
20
-110.2204739999999958
11
129.8235389999999825
21
-110.3602599999999967
0
LINE
8
BLACK
6
CONTINUOUS
10
129.8235389999999825
20
-110.3602599999999967
11
129.3745720000000006
21
-110.4833110000000005
0
LINE
8
BLACK
6
CONTINUOUS
10
129.3745720000000006
20
-110.4833110000000005
11
128.9105559999999855
21
-110.5898589999999899
0
LINE
8
BLACK
6
CONTINUOUS
10
128.9105559999999855
20
-110.5898589999999899
11
128.4309079999999881
21
-110.680137000000002
0
LINE
8
BLACK
6
CONTINUOUS
10
128.4309079999999881
20
-110.680137000000002
11
127.9350429999999932
21
-110.7543799999999976
0
LINE
8
BLACK
6
CONTINUOUS
10
127.9350429999999932
20
-110.7543799999999976
11
127.4223769999999973
21
-110.8128189999999904
0
LINE
8
BLACK
6
CONTINUOUS
10
127.4223769999999973
20
-110.8128189999999904
11
126.892327999999992
21
-110.8556889999999981
0
LINE
8
BLACK
6
CONTINUOUS
10
126.892327999999992
20
-110.8556889999999981
11
126.4507550000000009
21
-110.8786149999999964
0
LINE
8
BLACK
6
CONTINUOUS
10
126.4507550000000009
20
-110.8786149999999964
11
125.9911149999999935
21
-110.8895519999999948
0
LINE
8
BLACK
6
CONTINUOUS
10
125.9911149999999935
20
-110.8895519999999948
11
125.4929869999999994
21
-110.8877289999999931
0
LINE
8
BLACK
6
CONTINUOUS
10
125.4929869999999994
20
-110.8877289999999931
11
124.9359509999999887
21
-110.8723770000000002
0
LINE
8
BLACK
6
CONTINUOUS
10
124.9359509999999887
20
-110.8723770000000002
11
124.2995849999999933
21
-110.8427239999999898
0
LINE
8
BLACK
6
CONTINUOUS
10
124.2995849999999933
20
-110.8427239999999898
11
123.5634689999999978
21
-110.7980019999999968
0
LINE
8
BLACK
6
CONTINUOUS
10
123.5634689999999978
20
-110.7980019999999968
11
122.7071819999999889
21
-110.7374399999999923
0
LINE
8
BLACK
6
CONTINUOUS
10
122.7071819999999889
20
-110.7374399999999923
11
121.7103019999999987
21
-110.6602680000000021
0
LINE
8
BLACK
6
CONTINUOUS
10
121.7103019999999987
20
-110.6602680000000021
11
119.5440259999999881
21
-110.4877249999999975
0
LINE
8
BLACK
6
CONTINUOUS
10
119.5440259999999881
20
-110.4877249999999975
11
119.3960779999999886
21
-110.4752769999999913
0
LINE
8
BLACK
6
CONTINUOUS
10
119.3960779999999886
20
-110.4752769999999913
11
119.3350689999999901
21
-110.4692549999999898
0
LINE
8
BLACK
6
CONTINUOUS
10
119.3350689999999901
20
-110.4692549999999898
11
119.2819799999999901
21
-110.4630809999999883
0
LINE
8
BLACK
6
CONTINUOUS
10
119.2819799999999901
20
-110.4630809999999883
11
119.2362639999999914
21
-110.4565429999999964
0
LINE
8
BLACK
6
CONTINUOUS
10
119.2362639999999914
20
-110.4565429999999964
11
119.197378999999998
21
-110.449427
0
LINE
8
BLACK
6
CONTINUOUS
10
119.197378999999998
20
-110.449427
11
119.1647799999999933
21
-110.441519999999997
0
LINE
8
BLACK
6
CONTINUOUS
10
119.1647799999999933
20
-110.441519999999997
11
119.1379230000000007
21
-110.4326069999999902
0
LINE
8
BLACK
6
CONTINUOUS
10
119.1379230000000007
20
-110.4326069999999902
11
119.1162629999999893
21
-110.422475999999989
0
LINE
8
BLACK
6
CONTINUOUS
10
119.1162629999999893
20
-110.422475999999989
11
119.0992569999999944
21
-110.4109119999999962
0
LINE
8
BLACK
6
CONTINUOUS
10
119.0992569999999944
20
-110.4109119999999962
11
119.0923279999999949
21
-110.4045259999999899
0
LINE
8
BLACK
6
CONTINUOUS
10
119.0923279999999949
20
-110.4045259999999899
11
119.0863599999999991
21
-110.3977029999999928
0
LINE
8
BLACK
6
CONTINUOUS
10
119.0863599999999991
20
-110.3977029999999928
11
119.0770279999999985
21
-110.3826339999999959
0
LINE
8
BLACK
6
CONTINUOUS
10
119.0770279999999985
20
-110.3826339999999959
11
119.0707169999999877
21
-110.3654909999999916
0
LINE
8
BLACK
6
CONTINUOUS
10
119.0707169999999877
20
-110.3654909999999916
11
119.06688299999999
21
-110.3460630000000009
0
LINE
8
BLACK
6
CONTINUOUS
10
119.06688299999999
20
-110.3460630000000009
11
119.0649820000000005
21
-110.3241340000000008
0
LINE
8
BLACK
6
CONTINUOUS
10
119.0649820000000005
20
-110.3241340000000008
11
119.0644689999999883
21
-110.2994909999999891
0
LINE
8
BLACK
6
CONTINUOUS
10
119.0644689999999883
20
-110.2994909999999891
11
119.0647899999999879
21
-110.2874130000000008
0
LINE
8
BLACK
6
CONTINUOUS
10
119.0647899999999879
20
-110.2874130000000008
11
119.0658150000000006
21
-110.2756969999999939
0
LINE
8
BLACK
6
CONTINUOUS
10
119.0658150000000006
20
-110.2756969999999939
11
119.0676339999999982
21
-110.2642910000000001
0
LINE
8
BLACK
6
CONTINUOUS
10
119.0676339999999982
20
-110.2642910000000001
11
119.0703379999999925
21
-110.2531419999999969
0
LINE
8
BLACK
6
CONTINUOUS
10
119.0703379999999925
20
-110.2531419999999969
11
119.0740179999999953
21
-110.2421980000000019
0
LINE
8
BLACK
6
CONTINUOUS
10
119.0740179999999953
20
-110.2421980000000019
11
119.07876499999999
21
-110.2314069999999901
0
LINE
8
BLACK
6
CONTINUOUS
10
119.07876499999999
20
-110.2314069999999901
11
119.0846699999999885
21
-110.2207159999999959
0
LINE
8
BLACK
6
CONTINUOUS
10
119.0846699999999885
20
-110.2207159999999959
11
119.091825
21
-110.2100719999999967
0
LINE
8
BLACK
6
CONTINUOUS
10
119.091825
20
-110.2100719999999967
11
119.1003189999999989
21
-110.1994239999999934
0
LINE
8
BLACK
6
CONTINUOUS
10
119.1003189999999989
20
-110.1994239999999934
11
119.1102439999999945
21
-110.1887189999999919
0
LINE
8
BLACK
6
CONTINUOUS
10
119.1102439999999945
20
-110.1887189999999919
11
119.1216919999999959
21
-110.1779039999999981
0
LINE
8
BLACK
6
CONTINUOUS
10
119.1216919999999959
20
-110.1779039999999981
11
119.1347519999999918
21
-110.1669279999999986
0
LINE
8
BLACK
6
CONTINUOUS
10
119.1347519999999918
20
-110.1669279999999986
11
119.1495159999999913
21
-110.155737000000002
0
LINE
8
BLACK
6
CONTINUOUS
10
119.1495159999999913
20
-110.155737000000002
11
119.1660749999999922
21
-110.1442789999999974
0
LINE
8
BLACK
6
CONTINUOUS
10
119.1660749999999922
20
-110.1442789999999974
11
119.184519999999992
21
-110.1325019999999881
0
LINE
8
BLACK
6
CONTINUOUS
10
119.184519999999992
20
-110.1325019999999881
11
119.2049419999999884
21
-110.1203539999999919
0
LINE
8
BLACK
6
CONTINUOUS
10
119.2049419999999884
20
-110.1203539999999919
11
119.2274309999999957
21
-110.1077820000000003
0
LINE
8
BLACK
6
CONTINUOUS
10
119.2274309999999957
20
-110.1077820000000003
11
119.2520789999999948
21
-110.0947339999999883
0
LINE
8
BLACK
6
CONTINUOUS
10
119.2520789999999948
20
-110.0947339999999883
11
119.2789760000000001
21
-110.0811559999999929
0
LINE
8
BLACK
6
CONTINUOUS
10
119.2789760000000001
20
-110.0811559999999929
11
119.3082149999999899
21
-110.0669979999999981
0
LINE
8
BLACK
6
CONTINUOUS
10
119.3082149999999899
20
-110.0669979999999981
11
119.3398849999999953
21
-110.0522059999999982
0
LINE
8
BLACK
6
CONTINUOUS
10
119.3398849999999953
20
-110.0522059999999982
11
119.3740769999999998
21
-110.036728999999994
0
LINE
8
BLACK
6
CONTINUOUS
10
119.3740769999999998
20
-110.036728999999994
11
119.4503939999999886
21
-110.0035060000000016
0
LINE
8
BLACK
6
CONTINUOUS
10
119.4503939999999886
20
-110.0035060000000016
11
119.5378919999999994
21
-109.9669109999999961
0
LINE
8
BLACK
6
CONTINUOUS
10
119.5378919999999994
20
-109.9669109999999961
11
119.6372999999999962
21
-109.9265240000000006
0
LINE
8
BLACK
6
CONTINUOUS
10
119.6372999999999962
20
-109.9265240000000006
11
119.749344999999991
21
-109.8819259999999929
0
LINE
8
BLACK
6
CONTINUOUS
10
119.749344999999991
20
-109.8819259999999929
11
119.8747549999999933
21
-109.8326979999999935
0
LINE
8
BLACK
6
CONTINUOUS
10
119.8747549999999933
20
-109.8326979999999935
11
120.242219999999989
21
-109.6851009999999889
0
LINE
8
BLACK
6
CONTINUOUS
10
120.242219999999989
20
-109.6851009999999889
11
120.58171999999999
21
-109.5404979999999995
0
LINE
8
BLACK
6
CONTINUOUS
10
120.58171999999999
20
-109.5404979999999995
11
120.8902209999999968
21
-109.4004309999999975
0
LINE
8
BLACK
6
CONTINUOUS
10
120.8902209999999968
20
-109.4004309999999975
11
121.1646899999999931
21
-109.2664429999999953
0
LINE
8
BLACK
6
CONTINUOUS
10
121.1646899999999931
20
-109.2664429999999953
11
121.4020929999999936
21
-109.1400779999999884
0
LINE
8
BLACK
6
CONTINUOUS
10
121.4020929999999936
20
-109.1400779999999884
11
121.5993959999999987
21
-109.0228779999999915
0
LINE
8
BLACK
6
CONTINUOUS
10
121.5993959999999987
20
-109.0228779999999915
11
121.6820609999999903
21
-108.968198000000001
0
LINE
8
BLACK
6
CONTINUOUS
10
121.6820609999999903
20
-108.968198000000001
11
121.7535639999999972
21
-108.9163870000000003
0
LINE
8
BLACK
6
CONTINUOUS
10
121.7535639999999972
20
-108.9163870000000003
11
121.8135249999999985
21
-108.8676399999999944
0
LINE
8
BLACK
6
CONTINUOUS
10
121.8135249999999985
20
-108.8676399999999944
11
121.8615640000000013
21
-108.8221479999999985
0
LINE
8
BLACK
6
CONTINUOUS
10
121.8615640000000013
20
-108.8221479999999985
11
121.8796629999999936
21
-108.8025339999999943
0
LINE
8
BLACK
6
CONTINUOUS
10
121.8796629999999936
20
-108.8025339999999943
11
121.8982989999999944
21
-108.7809699999999964
0
LINE
8
BLACK
6
CONTINUOUS
10
121.8982989999999944
20
-108.7809699999999964
11
121.9173299999999927
21
-108.7576749999999919
0
LINE
8
BLACK
6
CONTINUOUS
10
121.9173299999999927
20
-108.7576749999999919
11
121.9366160000000008
21
-108.7328669999999988
0
LINE
8
BLACK
6
CONTINUOUS
10
121.9366160000000008
20
-108.7328669999999988
11
121.9560159999999911
21
-108.7067629999999951
0
LINE
8
BLACK
6
CONTINUOUS
10
121.9560159999999911
20
-108.7067629999999951
11
121.9753879999999953
21
-108.6795829999999938
0
LINE
8
BLACK
6
CONTINUOUS
10
121.9753879999999953
20
-108.6795829999999938
11
121.9945919999999973
21
-108.6515440000000012
0
LINE
8
BLACK
6
CONTINUOUS
10
121.9945919999999973
20
-108.6515440000000012
11
122.0134860000000003
21
-108.6228649999999902
0
LINE
8
BLACK
6
CONTINUOUS
10
122.0134860000000003
20
-108.6228649999999902
11
122.0319310000000002
21
-108.5937639999999931
0
LINE
8
BLACK
6
CONTINUOUS
10
122.0319310000000002
20
-108.5937639999999931
11
122.0497829999999908
21
-108.5644589999999994
0
LINE
8
BLACK
6
CONTINUOUS
10
122.0497829999999908
20
-108.5644589999999994
11
122.0669039999999939
21
-108.5351679999999988
0
LINE
8
BLACK
6
CONTINUOUS
10
122.0669039999999939
20
-108.5351679999999988
11
122.0831499999999892
21
-108.506108999999995
0
LINE
8
BLACK
6
CONTINUOUS
10
122.0831499999999892
20
-108.506108999999995
11
122.0983829999999983
21
-108.4775009999999895
0
LINE
8
BLACK
6
CONTINUOUS
10
122.0983829999999983
20
-108.4775009999999895
11
122.1124599999999987
21
-108.4495620000000002
0
LINE
8
BLACK
6
CONTINUOUS
10
122.1124599999999987
20
-108.4495620000000002
11
122.1252409999999884
21
-108.4225099999999884
0
LINE
8
BLACK
6
CONTINUOUS
10
122.1252409999999884
20
-108.4225099999999884
11
122.1365839999999992
21
-108.3965630000000004
0
LINE
8
BLACK
6
CONTINUOUS
10
122.1365839999999992
20
-108.3965630000000004
11
122.2391529999999875
21
-108.1510189999999909
0
LINE
8
BLACK
6
CONTINUOUS
10
122.2391529999999875
20
-108.1510189999999909
11
121.8258989999999926
21
-108.1800470000000018
0
LINE
8
BLACK
6
CONTINUOUS
10
121.8258989999999926
20
-108.1800470000000018
11
121.5923699999999883
21
-108.1939160000000015
0
LINE
8
BLACK
6
CONTINUOUS
10
121.5923699999999883
20
-108.1939160000000015
11
121.262014999999991
21
-108.2102199999999925
0
LINE
8
BLACK
6
CONTINUOUS
10
121.262014999999991
20
-108.2102199999999925
11
120.878777999999997
21
-108.2269269999999892
0
LINE
8
BLACK
6
CONTINUOUS
10
120.878777999999997
20
-108.2269269999999892
11
120.4866039999999998
21
-108.2420029999999969
0
LINE
8
BLACK
6
CONTINUOUS
10
120.4866039999999998
20
-108.2420029999999969
11
120.1130679999999984
21
-108.2598519999999951
0
LINE
8
BLACK
6
CONTINUOUS
10
120.1130679999999984
20
-108.2598519999999951
11
119.757411999999988
21
-108.2864399999999989
0
LINE
8
BLACK
6
CONTINUOUS
10
119.757411999999988
20
-108.2864399999999989
11
119.4184750000000008
21
-108.3221699999999998
0
LINE
8
BLACK
6
CONTINUOUS
10
119.4184750000000008
20
-108.3221699999999998
11
119.0950959999999981
21
-108.3674489999999935
0
LINE
8
BLACK
6
CONTINUOUS
10
119.0950959999999981
20
-108.3674489999999935
11
118.7861139999999978
21
-108.422678999999988
0
LINE
8
BLACK
6
CONTINUOUS
10
118.7861139999999978
20
-108.422678999999988
11
118.4903649999999971
21
-108.4882659999999959
0
LINE
8
BLACK
6
CONTINUOUS
10
118.4903649999999971
20
-108.4882659999999959
11
118.2066899999999947
21
-108.5646149999999892
0
LINE
8
BLACK
6
CONTINUOUS
10
118.2066899999999947
20
-108.5646149999999892
11
117.9339259999999996
21
-108.6521299999999997
0
LINE
8
BLACK
6
CONTINUOUS
10
117.9339259999999996
20
-108.6521299999999997
11
117.6709109999999896
21
-108.751215000000002
0
LINE
8
BLACK
6
CONTINUOUS
10
117.6709109999999896
20
-108.751215000000002
11
117.4164849999999944
21
-108.8622749999999968
0
LINE
8
BLACK
6
CONTINUOUS
10
117.4164849999999944
20
-108.8622749999999968
11
117.1694849999999946
21
-108.985714999999999
0
LINE
8
BLACK
6
CONTINUOUS
10
117.1694849999999946
20
-108.985714999999999
11
116.9287499999999937
21
-109.1219389999999976
0
LINE
8
BLACK
6
CONTINUOUS
10
116.9287499999999937
20
-109.1219389999999976
11
116.6931179999999983
21
-109.2713519999999932
0
LINE
8
BLACK
6
CONTINUOUS
10
116.6931179999999983
20
-109.2713519999999932
11
116.4614270000000005
21
-109.4343590000000006
0
LINE
8
BLACK
6
CONTINUOUS
10
116.4614270000000005
20
-109.4343590000000006
11
116.2325170000000014
21
-109.6113629999999972
0
LINE
8
BLACK
6
CONTINUOUS
10
116.2325170000000014
20
-109.6113629999999972
11
116.0052249999999958
21
-109.8027689999999978
0
LINE
8
BLACK
6
CONTINUOUS
10
116.0052249999999958
20
-109.8027689999999978
11
115.9732209999999952
21
-109.8303429999999992
0
LINE
8
BLACK
6
CONTINUOUS
10
115.9732209999999952
20
-109.8303429999999992
11
115.9421179999999936
21
-109.856230999999994
0
LINE
8
BLACK
6
CONTINUOUS
10
115.9421179999999936
20
-109.856230999999994
11
115.9120769999999965
21
-109.8803389999999922
0
LINE
8
BLACK
6
CONTINUOUS
10
115.9120769999999965
20
-109.8803389999999922
11
115.8832599999999928
21
-109.9025719999999922
0
LINE
8
BLACK
6
CONTINUOUS
10
115.8832599999999928
20
-109.9025719999999922
11
115.8558269999999908
21
-109.9228339999999946
0
LINE
8
BLACK
6
CONTINUOUS
10
115.8558269999999908
20
-109.9228339999999946
11
115.829938999999996
21
-109.9410309999999953
0
LINE
8
BLACK
6
CONTINUOUS
10
115.829938999999996
20
-109.9410309999999953
11
115.8057559999999881
21
-109.957066999999995
0
LINE
8
BLACK
6
CONTINUOUS
10
115.8057559999999881
20
-109.957066999999995
11
115.7834409999999963
21
-109.9708459999999945
0
LINE
8
BLACK
6
CONTINUOUS
10
115.7834409999999963
20
-109.9708459999999945
11
115.7631519999999909
21
-109.9822750000000013
0
LINE
8
BLACK
6
CONTINUOUS
10
115.7631519999999909
20
-109.9822750000000013
11
115.7450529999999986
21
-109.9912569999999903
0
LINE
8
BLACK
6
CONTINUOUS
10
115.7450529999999986
20
-109.9912569999999903
11
115.7293019999999899
21
-109.9976969999999881
0
LINE
8
BLACK
6
CONTINUOUS
10
115.7293019999999899
20
-109.9976969999999881
11
115.7160619999999938
21
-110.0015009999999904
0
LINE
8
BLACK
6
CONTINUOUS
10
115.7160619999999938
20
-110.0015009999999904
11
115.7054929999999899
21
-110.0025720000000007
0
LINE
8
BLACK
6
CONTINUOUS
10
115.7054929999999899
20
-110.0025720000000007
11
115.7012609999999881
21
-110.0020540000000011
0
LINE
8
BLACK
6
CONTINUOUS
10
115.7012609999999881
20
-110.0020540000000011
11
115.6977559999999983
21
-110.0008160000000004
0
LINE
8
BLACK
6
CONTINUOUS
10
115.6977559999999983
20
-110.0008160000000004
11
115.6949999999999932
21
-109.9988479999999953
0
LINE
8
BLACK
6
CONTINUOUS
10
115.6949999999999932
20
-109.9988479999999953
11
115.693011999999996
21
-109.996138000000002
0
LINE
8
BLACK
6
CONTINUOUS
10
115.693011999999996
20
-109.996138000000002
11
115.6918129999999962
21
-109.9926729999999964
0
LINE
8
BLACK
6
CONTINUOUS
10
115.6918129999999962
20
-109.9926729999999964
11
115.6914219999999887
21
-109.988441999999992
0
LINE
8
BLACK
6
CONTINUOUS
10
115.6914219999999887
20
-109.988441999999992
11
115.6753099999999961
21
-109.8080819999999989
0
LINE
8
BLACK
6
CONTINUOUS
10
115.6753099999999961
20
-109.8080819999999989
11
115.6311719999999923
21
-109.3832139999999953
0
LINE
8
BLACK
6
CONTINUOUS
10
115.6311719999999923
20
-109.3832139999999953
11
115.4857869999999878
21
-108.0538600000000002
0
LINE
8
BLACK
6
CONTINUOUS
10
115.4857869999999878
20
-108.0538600000000002
11
115.2797629999999884
21
-106.208847999999989
0
LINE
8
BLACK
6
CONTINUOUS
10
115.2797629999999884
20
-106.208847999999989
11
114.6139659999999907
21
-105.3749549999999999
0
LINE
8
BLACK
6
CONTINUOUS
10
114.6139659999999907
20
-105.3749549999999999
11
114.3489409999999964
21
-105.0376389999999986
0
LINE
8
BLACK
6
CONTINUOUS
10
114.3489409999999964
20
-105.0376389999999986
11
114.1078139999999905
21
-104.7188319999999919
0
LINE
8
BLACK
6
CONTINUOUS
10
114.1078139999999905
20
-104.7188319999999919
11
113.8896429999999924
21
-104.4163589999999999
0
LINE
8
BLACK
6
CONTINUOUS
10
113.8896429999999924
20
-104.4163589999999999
11
113.6934899999999971
21
-104.1280439999999885
0
LINE
8
BLACK
6
CONTINUOUS
10
113.6934899999999971
20
-104.1280439999999885
11
113.5184149999999903
21
-103.8517149999999987
0
LINE
8
BLACK
6
CONTINUOUS
10
113.5184149999999903
20
-103.8517149999999987
11
113.3634780000000006
21
-103.5851959999999963
0
LINE
8
BLACK
6
CONTINUOUS
10
113.3634780000000006
20
-103.5851959999999963
11
113.2277389999999997
21
-103.326312999999999
0
LINE
8
BLACK
6
CONTINUOUS
10
113.2277389999999997
20
-103.326312999999999
11
113.1102580000000017
21
-103.072891999999996
0
LINE
8
BLACK
6
CONTINUOUS
10
113.1102580000000017
20
-103.072891999999996
11
113.0100949999999926
21
-102.8227579999999932
0
LINE
8
BLACK
6
CONTINUOUS
10
113.0100949999999926
20
-102.8227579999999932
11
112.9263119999999958
21
-102.5737369999999942
0
LINE
8
BLACK
6
CONTINUOUS
10
112.9263119999999958
20
-102.5737369999999942
11
112.8579669999999879
21
-102.3236550000000022
0
LINE
8
BLACK
6
CONTINUOUS
10
112.8579669999999879
20
-102.3236550000000022
11
112.804120999999995
21
-102.070336999999995
0
LINE
8
BLACK
6
CONTINUOUS
10
112.804120999999995
20
-102.070336999999995
11
112.7638339999999886
21
-101.8116079999999926
0
LINE
8
BLACK
6
CONTINUOUS
10
112.7638339999999886
20
-101.8116079999999926
11
112.7361669999999947
21
-101.5452949999999959
0
LINE
8
BLACK
6
CONTINUOUS
10
112.7361669999999947
20
-101.5452949999999959
11
112.7201799999999992
21
-101.2692229999999967
0
LINE
8
BLACK
6
CONTINUOUS
10
112.7201799999999992
20
-101.2692229999999967
11
112.7149319999999904
21
-100.9812170000000009
0
LINE
8
BLACK
6
CONTINUOUS
10
112.7149319999999904
20
-100.9812170000000009
11
112.714468999999994
21
-100.2656449999999921
0
LINE
8
BLACK
6
CONTINUOUS
10
112.714468999999994
20
-100.2656449999999921
11
112.9167039999999957
21
-100.40964799999999
0
LINE
8
BLACK
6
CONTINUOUS
10
112.9167039999999957
20
-100.40964799999999
11
112.9710889999999921
21
-100.4500769999999932
0
LINE
8
BLACK
6
CONTINUOUS
10
112.9710889999999921
20
-100.4500769999999932
11
113.0484259999999921
21
-100.5100269999999938
0
LINE
8
BLACK
6
CONTINUOUS
10
113.0484259999999921
20
-100.5100269999999938
11
113.2575779999999952
21
-100.6768849999999986
0
LINE
8
BLACK
6
CONTINUOUS
10
113.2575779999999952
20
-100.6768849999999986
11
113.5153999999999996
21
-100.8870059999999995
0
LINE
8
BLACK
6
CONTINUOUS
10
113.5153999999999996
20
-100.8870059999999995
11
113.7931359999999898
21
-101.1171749999999889
0
LINE
8
BLACK
6
CONTINUOUS
10
113.7931359999999898
20
-101.1171749999999889
11
114.01547699999999
21
-101.3005859999999956
0
LINE
8
BLACK
6
CONTINUOUS
10
114.01547699999999
20
-101.3005859999999956
11
114.2262039999999956
21
-101.4691979999999916
0
LINE
8
BLACK
6
CONTINUOUS
10
114.2262039999999956
20
-101.4691979999999916
11
114.4264679999999998
21
-101.6236279999999965
0
LINE
8
BLACK
6
CONTINUOUS
10
114.4264679999999998
20
-101.6236279999999965
11
114.6174229999999881
21
-101.7644930000000016
0
LINE
8
BLACK
6
CONTINUOUS
10
114.6174229999999881
20
-101.7644930000000016
11
114.8002189999999985
21
-101.8924090000000007
0
LINE
8
BLACK
6
CONTINUOUS
10
114.8002189999999985
20
-101.8924090000000007
11
114.9760099999999881
21
-102.007992999999999
0
LINE
8
BLACK
6
CONTINUOUS
10
114.9760099999999881
20
-102.007992999999999
11
115.14594799999999
21
-102.1118639999999971
0
LINE
8
BLACK
6
CONTINUOUS
10
115.14594799999999
20
-102.1118639999999971
11
115.3111839999999972
21
-102.2046369999999911
0
LINE
8
BLACK
6
CONTINUOUS
10
115.3111839999999972
20
-102.2046369999999911
11
115.4728709999999978
21
-102.2869290000000007
0
LINE
8
BLACK
6
CONTINUOUS
10
115.4728709999999978
20
-102.2869290000000007
11
115.6321619999999939
21
-102.3593589999999978
0
LINE
8
BLACK
6
CONTINUOUS
10
115.6321619999999939
20
-102.3593589999999978
11
115.7902079999999927
21
-102.4225419999999929
0
LINE
8
BLACK
6
CONTINUOUS
10
115.7902079999999927
20
-102.4225419999999929
11
115.9481619999999964
21
-102.4770959999999889
0
LINE
8
BLACK
6
CONTINUOUS
10
115.9481619999999964
20
-102.4770959999999889
11
116.107174999999998
21
-102.5236369999999937
0
LINE
8
BLACK
6
CONTINUOUS
10
116.107174999999998
20
-102.5236369999999937
11
116.2684009999999972
21
-102.562782999999996
0
LINE
8
BLACK
6
CONTINUOUS
10
116.2684009999999972
20
-102.562782999999996
11
116.4329910000000012
21
-102.5951510000000013
0
LINE
8
BLACK
6
CONTINUOUS
10
116.4329910000000012
20
-102.5951510000000013
11
116.602097999999998
21
-102.6213580000000007
0
LINE
8
BLACK
6
CONTINUOUS
10
116.602097999999998
20
-102.6213580000000007
11
116.9509240000000005
21
-102.6687459999999987
0
LINE
8
BLACK
6
CONTINUOUS
10
116.9509240000000005
20
-102.6687459999999987
11
119.3140769999999975
21
-101.3624639999999886
0
LINE
8
BLACK
6
CONTINUOUS
10
119.3140769999999975
20
-101.3624639999999886
11
122.2421959999999928
21
-99.7390410000000003
0
LINE
8
BLACK
6
CONTINUOUS
10
122.2421959999999928
20
-99.7390410000000003
11
122.8071640000000002
21
-99.4218989999999962
0
LINE
8
BLACK
6
CONTINUOUS
10
122.8071640000000002
20
-99.4218989999999962
11
122.7624390000000005
21
-98.9014779999999973
0
LINE
8
BLACK
6
CONTINUOUS
10
122.7624390000000005
20
-98.9014779999999973
11
122.7311720000000008
21
-98.6163839999999965
0
LINE
8
BLACK
6
CONTINUOUS
10
122.7311720000000008
20
-98.6163839999999965
11
122.6860059999999919
21
-98.3314969999999988
0
LINE
8
BLACK
6
CONTINUOUS
10
122.6860059999999919
20
-98.3314969999999988
11
122.6262399999999957
21
-98.0453509999999966
0
LINE
8
BLACK
6
CONTINUOUS
10
122.6262399999999957
20
-98.0453509999999966
11
122.5511750000000006
21
-97.7564819999999912
0
LINE
8
BLACK
6
CONTINUOUS
10
122.5511750000000006
20
-97.7564819999999912
11
122.4601109999999977
21
-97.4634239999999892
0
LINE
8
BLACK
6
CONTINUOUS
10
122.4601109999999977
20
-97.4634239999999892
11
122.3523459999999972
21
-97.1647139999999894
0
LINE
8
BLACK
6
CONTINUOUS
10
122.3523459999999972
20
-97.1647139999999894
11
122.2271819999999991
21
-96.8588839999999891
0
LINE
8
BLACK
6
CONTINUOUS
10
122.2271819999999991
20
-96.8588839999999891
11
122.0839169999999996
21
-96.5444710000000015
0
LINE
8
BLACK
6
CONTINUOUS
10
122.0839169999999996
20
-96.5444710000000015
11
121.9218520000000012
21
-96.2200089999999904
0
LINE
8
BLACK
6
CONTINUOUS
10
121.9218520000000012
20
-96.2200089999999904
11
121.7402859999999976
21
-95.8840330000000023
0
LINE
8
BLACK
6
CONTINUOUS
10
121.7402859999999976
20
-95.8840330000000023
11
121.5385199999999912
21
-95.5350779999999986
0
LINE
8
BLACK
6
CONTINUOUS
10
121.5385199999999912
20
-95.5350779999999986
11
121.3158529999999899
21
-95.1716789999999975
0
LINE
8
BLACK
6
CONTINUOUS
10
121.3158529999999899
20
-95.1716789999999975
11
121.0715840000000014
21
-94.7923699999999911
0
LINE
8
BLACK
6
CONTINUOUS
10
121.0715840000000014
20
-94.7923699999999911
11
120.8050139999999999
21
-94.3956879999999927
0
LINE
8
BLACK
6
CONTINUOUS
10
120.8050139999999999
20
-94.3956879999999927
11
120.5154419999999931
21
-93.980165999999997
0
LINE
8
BLACK
6
CONTINUOUS
10
120.5154419999999931
20
-93.980165999999997
11
120.2021689999999978
21
-93.5443389999999937
0
LINE
8
BLACK
6
CONTINUOUS
10
120.2021689999999978
20
-93.5443389999999937
11
119.6034949999999952
21
-92.7133029999999962
0
LINE
8
BLACK
6
CONTINUOUS
10
119.6034949999999952
20
-92.7133029999999962
11
119.1400939999999906
21
-92.0508869999999888
0
LINE
8
BLACK
6
CONTINUOUS
10
119.1400939999999906
20
-92.0508869999999888
11
118.9698489999999964
21
-91.7985829999999936
0
LINE
8
BLACK
6
CONTINUOUS
10
118.9698489999999964
20
-91.7985829999999936
11
118.8462959999999953
21
-91.6072410000000019
0
LINE
8
BLACK
6
CONTINUOUS
10
118.8462959999999953
20
-91.6072410000000019
11
118.7737279999999913
21
-91.4831279999999936
0
LINE
8
BLACK
6
CONTINUOUS
10
118.7737279999999913
20
-91.4831279999999936
11
118.7579039999999964
21
-91.4482419999999934
0
LINE
8
BLACK
6
CONTINUOUS
10
118.7579039999999964
20
-91.4482419999999934
11
118.7564349999999962
21
-91.4325139999999976
0
LINE
8
BLACK
6
CONTINUOUS
10
118.7564349999999962
20
-91.4325139999999976
11
118.7585599999999886
21
-91.4312789999999893
0
LINE
8
BLACK
6
CONTINUOUS
10
118.7585599999999886
20
-91.4312789999999893
11
118.7618319999999983
21
-91.43065
0
LINE
8
BLACK
6
CONTINUOUS
10
118.7618319999999983
20
-91.43065
11
118.7662189999999924
21
-91.4306129999999939
0
LINE
8
BLACK
6
CONTINUOUS
10
118.7662189999999924
20
-91.4306129999999939
11
118.7716909999999899
21
-91.4311560000000014
0
LINE
8
BLACK
6
CONTINUOUS
10
118.7716909999999899
20
-91.4311560000000014
11
118.7857649999999978
21
-91.4339310000000012
0
LINE
8
BLACK
6
CONTINUOUS
10
118.7857649999999978
20
-91.4339310000000012
11
118.8038069999999919
21
-91.4388739999999984
0
LINE
8
BLACK
6
CONTINUOUS
10
118.8038069999999919
20
-91.4388739999999984
11
118.8255679999999899
21
-91.4458819999999974
0
LINE
8
BLACK
6
CONTINUOUS
10
118.8255679999999899
20
-91.4458819999999974
11
118.8508009999999899
21
-91.4548539999999974
0
LINE
8
BLACK
6
CONTINUOUS
10
118.8508009999999899
20
-91.4548539999999974
11
118.8792589999999905
21
-91.4656889999999976
0
LINE
8
BLACK
6
CONTINUOUS
10
118.8792589999999905
20
-91.4656889999999976
11
118.9106929999999949
21
-91.4782859999999971
0
LINE
8
BLACK
6
CONTINUOUS
10
118.9106929999999949
20
-91.4782859999999971
11
118.9814989999999995
21
-91.5083599999999961
0
LINE
8
BLACK
6
CONTINUOUS
10
118.9814989999999995
20
-91.5083599999999961
11
119.0612379999999888
21
-91.5442619999999891
0
LINE
8
BLACK
6
CONTINUOUS
10
119.0612379999999888
20
-91.5442619999999891
11
119.1479289999999907
21
-91.5851839999999982
0
LINE
8
BLACK
6
CONTINUOUS
10
119.1479289999999907
20
-91.5851839999999982
11
119.2395899999999926
21
-91.6303119999999893
0
LINE
8
BLACK
6
CONTINUOUS
10
119.2395899999999926
20
-91.6303119999999893
11
119.4360479999999995
21
-91.7260909999999967
0
LINE
8
BLACK
6
CONTINUOUS
10
119.4360479999999995
20
-91.7260909999999967
11
119.6602769999999936
21
-91.8294420000000002
0
LINE
8
BLACK
6
CONTINUOUS
10
119.6602769999999936
20
-91.8294420000000002
11
119.9221229999999991
21
-91.9444620000000015
0
LINE
8
BLACK
6
CONTINUOUS
10
119.9221229999999991
20
-91.9444620000000015
11
120.2314329999999956
21
-92.075254000000001
0
LINE
8
BLACK
6
CONTINUOUS
10
120.2314329999999956
20
-92.075254000000001
11
120.5980539999999905
21
-92.225915999999998
0
LINE
8
BLACK
6
CONTINUOUS
10
120.5980539999999905
20
-92.225915999999998
11
121.0318319999999943
21
-92.400548999999998
0
LINE
8
BLACK
6
CONTINUOUS
10
121.0318319999999943
20
-92.400548999999998
11
122.1402489999999972
21
-92.8381299999999925
0
LINE
8
BLACK
6
CONTINUOUS
10
122.1402489999999972
20
-92.8381299999999925
11
122.8679810000000003
21
-93.1339430000000021
0
LINE
8
BLACK
6
CONTINUOUS
10
122.8679810000000003
20
-93.1339430000000021
11
123.1938359999999903
21
-93.2755310000000009
0
LINE
8
BLACK
6
CONTINUOUS
10
123.1938359999999903
20
-93.2755310000000009
11
123.4959759999999989
21
-93.4139380000000017
0
LINE
8
BLACK
6
CONTINUOUS
10
123.4959759999999989
20
-93.4139380000000017
11
123.7756189999999918
21
-93.5499389999999948
0
LINE
8
BLACK
6
CONTINUOUS
10
123.7756189999999918
20
-93.5499389999999948
11
124.0339839999999896
21
-93.6843080000000015
0
LINE
8
BLACK
6
CONTINUOUS
10
124.0339839999999896
20
-93.6843080000000015
11
124.2722899999999981
21
-93.8178180000000026
0
LINE
8
BLACK
6
CONTINUOUS
10
124.2722899999999981
20
-93.8178180000000026
11
124.4917549999999977
21
-93.9512440000000026
0
LINE
8
BLACK
6
CONTINUOUS
10
124.4917549999999977
20
-93.9512440000000026
11
124.6935989999999919
21
-94.0853589999999969
0
LINE
8
BLACK
6
CONTINUOUS
10
124.6935989999999919
20
-94.0853589999999969
11
124.8790389999999917
21
-94.2209379999999896
0
LINE
8
BLACK
6
CONTINUOUS
10
124.8790389999999917
20
-94.2209379999999896
11
125.0492959999999982
21
-94.358752999999993
0
LINE
8
BLACK
6
CONTINUOUS
10
125.0492959999999982
20
-94.358752999999993
11
125.2055879999999917
21
-94.4995799999999946
0
LINE
8
BLACK
6
CONTINUOUS
10
125.2055879999999917
20
-94.4995799999999946
11
125.3491319999999973
21
-94.6441919999999897
0
LINE
8
BLACK
6
CONTINUOUS
10
125.3491319999999973
20
-94.6441919999999897
11
125.4811499999999995
21
-94.7933639999999968
0
LINE
8
BLACK
6
CONTINUOUS
10
125.4811499999999995
20
-94.7933639999999968
11
125.6028579999999977
21
-94.9478679999999997
0
LINE
8
BLACK
6
CONTINUOUS
10
125.6028579999999977
20
-94.9478679999999997
11
125.7154759999999953
21
-95.1084790000000027
0
LINE
8
BLACK
6
CONTINUOUS
10
125.7154759999999953
20
-95.1084790000000027
11
125.7343589999999978
21
-95.1363970000000023
0
LINE
8
BLACK
6
CONTINUOUS
10
125.7343589999999978
20
-95.1363970000000023
11
125.7531599999999941
21
-95.1630009999999942
0
LINE
8
BLACK
6
CONTINUOUS
10
125.7531599999999941
20
-95.1630009999999942
11
125.7717629999999929
21
-95.1881739999999894
0
LINE
8
BLACK
6
CONTINUOUS
10
125.7717629999999929
20
-95.1881739999999894
11
125.7900509999999912
21
-95.2118019999999916
0
LINE
8
BLACK
6
CONTINUOUS
10
125.7900509999999912
20
-95.2118019999999916
11
125.8079079999999976
21
-95.2337689999999952
0
LINE
8
BLACK
6
CONTINUOUS
10
125.8079079999999976
20
-95.2337689999999952
11
125.8252179999999925
21
-95.2539609999999897
0
LINE
8
BLACK
6
CONTINUOUS
10
125.8252179999999925
20
-95.2539609999999897
11
125.8418629999999894
21
-95.2722629999999953
0
LINE
8
BLACK
6
CONTINUOUS
10
125.8418629999999894
20
-95.2722629999999953
11
125.8577279999999945
21
-95.2885599999999897
0
LINE
8
BLACK
6
CONTINUOUS
10
125.8577279999999945
20
-95.2885599999999897
11
125.8726969999999881
21
-95.3027349999999984
0
LINE
8
BLACK
6
CONTINUOUS
10
125.8726969999999881
20
-95.3027349999999984
11
125.886651999999998
21
-95.3146759999999915
0
LINE
8
BLACK
6
CONTINUOUS
10
125.886651999999998
20
-95.3146759999999915
11
125.8994769999999903
21
-95.3242649999999969
0
LINE
8
BLACK
6
CONTINUOUS
10
125.8994769999999903
20
-95.3242649999999969
11
125.9110559999999879
21
-95.3313890000000015
0
LINE
8
BLACK
6
CONTINUOUS
10
125.9110559999999879
20
-95.3313890000000015
11
125.9212719999999877
21
-95.3359319999999997
0
LINE
8
BLACK
6
CONTINUOUS
10
125.9212719999999877
20
-95.3359319999999997
11
125.9258329999999972
21
-95.3371989999999983
0
LINE
8
BLACK
6
CONTINUOUS
10
125.9258329999999972
20
-95.3371989999999983
11
125.9300099999999958
21
-95.3377789999999976
0
LINE
8
BLACK
6
CONTINUOUS
10
125.9300099999999958
20
-95.3377789999999976
11
125.9337869999999953
21
-95.337654999999998
0
LINE
8
BLACK
6
CONTINUOUS
10
125.9337869999999953
20
-95.337654999999998
11
125.9371519999999975
21
-95.3368150000000014
0
LINE
8
BLACK
6
CONTINUOUS
10
125.9371519999999975
20
-95.3368150000000014
11
125.9400879999999887
21
-95.3352429999999913
0
LINE
8
BLACK
6
CONTINUOUS
10
125.9400879999999887
20
-95.3352429999999913
11
125.9425819999999874
21
-95.3329249999999888
0
LINE
8
BLACK
6
CONTINUOUS
10
125.9425819999999874
20
-95.3329249999999888
11
125.9476629999999915
21
-95.3248529999999903
0
LINE
8
BLACK
6
CONTINUOUS
10
125.9476629999999915
20
-95.3248529999999903
11
125.9537809999999922
21
-95.3116219999999998
0
LINE
8
BLACK
6
CONTINUOUS
10
125.9537809999999922
20
-95.3116219999999998
11
125.9608539999999977
21
-95.2935279999999949
0
LINE
8
BLACK
6
CONTINUOUS
10
125.9608539999999977
20
-95.2935279999999949
11
125.9687999999999874
21
-95.2708700000000022
0
LINE
8
BLACK
6
CONTINUOUS
10
125.9687999999999874
20
-95.2708700000000022
11
125.98698499999999
21
-95.2130539999999996
0
LINE
8
BLACK
6
CONTINUOUS
10
125.98698499999999
20
-95.2130539999999996
11
126.0076779999999985
21
-95.1405579999999986
0
LINE
8
BLACK
6
CONTINUOUS
10
126.0076779999999985
20
-95.1405579999999986
11
126.0302239999999898
21
-95.0557680000000005
0
LINE
8
BLACK
6
CONTINUOUS
10
126.0302239999999898
20
-95.0557680000000005
11
126.053968999999995
21
-94.9610669999999999
0
LINE
8
BLACK
6
CONTINUOUS
10
126.053968999999995
20
-94.9610669999999999
11
126.0782559999999961
21
-94.8588419999999957
0
LINE
8
BLACK
6
CONTINUOUS
10
126.0782559999999961
20
-94.8588419999999957
11
126.1024290000000008
21
-94.7514769999999942
0
LINE
8
BLACK
6
CONTINUOUS
10
126.1024290000000008
20
-94.7514769999999942
11
126.1897789999999873
21
-94.3716409999999968
0
LINE
8
BLACK
6
CONTINUOUS
10
126.1897789999999873
20
-94.3716409999999968
11
126.2947810000000004
21
-93.9472189999999898
0
LINE
8
BLACK
6
CONTINUOUS
10
126.2947810000000004
20
-93.9472189999999898
11
126.4141479999999973
21
-93.4900209999999987
0
LINE
8
BLACK
6
CONTINUOUS
10
126.4141479999999973
20
-93.4900209999999987
11
126.5445939999999894
21
-93.0118559999999945
0
LINE
8
BLACK
6
CONTINUOUS
10
126.5445939999999894
20
-93.0118559999999945
11
126.6828319999999906
21
-92.5245359999999977
0
LINE
8
BLACK
6
CONTINUOUS
10
126.6828319999999906
20
-92.5245359999999977
11
126.8255759999999981
21
-92.0398689999999959
0
LINE
8
BLACK
6
CONTINUOUS
10
126.8255759999999981
20
-92.0398689999999959
11
126.969539999999995
21
-91.5696669999999955
0
LINE
8
BLACK
6
CONTINUOUS
10
126.969539999999995
20
-91.5696669999999955
11
127.1114350000000002
21
-91.1257389999999958
0
LINE
8
BLACK
6
CONTINUOUS
10
127.1114350000000002
20
-91.1257389999999958
11
127.4226509999999877
21
-90.2207069999999902
0
LINE
8
BLACK
6
CONTINUOUS
10
127.4226509999999877
20
-90.2207069999999902
11
127.7480039999999946
21
-89.362850999999992
0
LINE
8
BLACK
6
CONTINUOUS
10
127.7480039999999946
20
-89.362850999999992
11
128.0870429999999942
21
-88.5527689999999978
0
LINE
8
BLACK
6
CONTINUOUS
10
128.0870429999999942
20
-88.5527689999999978
11
128.4393159999999909
21
-87.791056999999995
0
LINE
8
BLACK
6
CONTINUOUS
10
128.4393159999999909
20
-87.791056999999995
11
128.8043710000000033
21
-87.0783129999999943
0
LINE
8
BLACK
6
CONTINUOUS
10
128.8043710000000033
20
-87.0783129999999943
11
129.1817539999999838
21
-86.4151349999999923
0
LINE
8
BLACK
6
CONTINUOUS
10
129.1817539999999838
20
-86.4151349999999923
11
129.571013999999991
21
-85.8021200000000022
0
LINE
8
BLACK
6
CONTINUOUS
10
129.571013999999991
20
-85.8021200000000022
11
129.971699000000001
21
-85.2398659999999921
0
LINE
8
BLACK
6
CONTINUOUS
10
129.971699000000001
20
-85.2398659999999921
11
130.383355999999992
21
-84.7289699999999897
0
LINE
8
BLACK
6
CONTINUOUS
10
130.383355999999992
20
-84.7289699999999897
11
130.8055329999999969
21
-84.2700289999999939
0
LINE
8
BLACK
6
CONTINUOUS
10
130.8055329999999969
20
-84.2700289999999939
11
131.2377769999999941
21
-83.8636419999999987
0
LINE
8
BLACK
6
CONTINUOUS
10
131.2377769999999941
20
-83.8636419999999987
11
131.6796369999999854
21
-83.5104049999999916
0
LINE
8
BLACK
6
CONTINUOUS
10
131.6796369999999854
20
-83.5104049999999916
11
132.130660000000006
21
-83.2109159999999974
0
LINE
8
BLACK
6
CONTINUOUS
10
132.130660000000006
20
-83.2109159999999974
11
132.5903940000000034
21
-82.9657729999999987
0
LINE
8
BLACK
6
CONTINUOUS
10
132.5903940000000034
20
-82.9657729999999987
11
133.0583859999999845
21
-82.7755729999999943
0
LINE
8
BLACK
6
CONTINUOUS
10
133.0583859999999845
20
-82.7755729999999943
11
133.5341850000000079
21
-82.6409139999999951
0
LINE
8
BLACK
6
CONTINUOUS
10
133.5341850000000079
20
-82.6409139999999951
11
133.6792340000000081
21
-82.6118730000000028
0
LINE
8
BLACK
6
CONTINUOUS
10
133.6792340000000081
20
-82.6118730000000028
11
133.828534999999988
21
-82.5882419999999939
0
LINE
8
BLACK
6
CONTINUOUS
10
133.828534999999988
20
-82.5882419999999939
11
133.9815509999999961
21
-82.5699850000000026
0
LINE
8
BLACK
6
CONTINUOUS
10
133.9815509999999961
20
-82.5699850000000026
11
134.1377439999999979
21
-82.5570669999999893
0
LINE
8
BLACK
6
CONTINUOUS
10
134.1377439999999979
20
-82.5570669999999893
11
134.29657499999999
21
-82.5494539999999972
0
LINE
8
BLACK
6
CONTINUOUS
10
134.29657499999999
20
-82.5494539999999972
11
134.4575059999999951
21
-82.5471099999999893
0
LINE
8
BLACK
6
CONTINUOUS
10
134.4575059999999951
20
-82.5471099999999893
11
134.6200000000000045
21
-82.5499999999999972
  0
ENDSEC
  0
EOF
