<?xml version="1.0" standalone="no"?>
 <!DOCTYPE svg PUBLIC "-//W3C//DTD SVG 1.1//EN" 
 "http://www.w3.org/Graphics/SVG/1.1/DTD/svg11.dtd"> 
<svg
  xmlns:svg="http://www.w3.org/2000/svg"
  xmlns="http://www.w3.org/2000/svg"
  xmlns:xlink="http://www.w3.org/1999/xlink"
  version="1.1"
  width="6.5559727cm" height="3.6485572cm" viewBox="111.664469 81.49711 65.559727 36.485572">
<title>SVG Image created as Dino-Blinker-B_Cu.svg date 2024/12/11 00:19:46 </title>
  <desc>Image generated by PCBNEW </desc>
<g style="fill:#000000; fill-opacity:1.000000;stroke:#000000; stroke-opacity:1.000000;
stroke-linecap:round; stroke-linejoin:round;"
 transform="translate(0 0) scale(1 1)">
<path style="fill:#000000; fill-opacity:1.000000; stroke:none;fill-rule:evenodd;"
d="M 121.894227,105.495535
121.931231,105.532539
121.984410,105.638898
122.047366,105.890720
122.047366,106.210936
121.984410,106.462757
121.931230,106.569117
121.894227,106.606121
121.804814,106.650828
121.732776,106.650828
121.643363,106.606122
121.606359,106.569118
121.553179,106.462758
121.490223,106.210934
121.490223,105.890721
121.553179,105.638897
121.606359,105.532538
121.643363,105.495534
121.732776,105.450828
121.804813,105.450828
Z" /> 
<path style="fill:#000000; fill-opacity:1.000000; stroke:none;fill-rule:evenodd;"
d="M 137.537086,103.580619
137.574090,103.617623
137.618796,103.707035
137.618796,104.064788
137.574089,104.154201
137.537084,104.191206
137.447672,104.235912
137.232778,104.235912
137.204511,104.221778
137.204511,103.550045
137.232778,103.535912
137.447672,103.535912
Z" /> 
<path style="fill:#000000; fill-opacity:1.000000; stroke:none;fill-rule:evenodd;"
d="M 135.921493,103.382274
136.089201,103.494078
136.201005,103.661784
136.257037,103.885912
136.201005,104.110039
136.089201,104.277745
135.921493,104.389549
135.697367,104.445581
135.473239,104.389549
135.367347,104.318954
135.369489,104.318744
135.400762,104.305790
135.409952,104.301983
135.416000,104.305790
135.558856,104.377219
135.586320,104.387728
135.591694,104.388109
135.596675,104.390173
135.625939,104.393055
135.768796,104.393055
135.798060,104.390173
135.803040,104.388109
135.808415,104.387728
135.835878,104.377219
135.978735,104.305790
135.991330,104.297861
135.994987,104.296347
135.999104,104.292967
136.003621,104.290125
136.006218,104.287130
136.017718,104.277693
136.089147,104.206265
136.098589,104.194759
136.101581,104.192165
136.104420,104.187654
136.107802,104.183534
136.109317,104.179874
136.117246,104.167280
136.188674,104.024422
136.199184,103.996959
136.199565,103.991583
136.201628,103.986605
136.204510,103.957341
136.204510,103.814484
136.201628,103.785220
136.199565,103.780241
136.199184,103.774866
136.188675,103.747403
136.117246,103.604545
136.109317,103.591948
136.107802,103.588290
136.104423,103.584173
136.101582,103.579659
136.098586,103.577061
136.089147,103.565559
136.017718,103.494131
136.006218,103.484693
136.003621,103.481699
135.999104,103.478856
135.994987,103.475477
135.991330,103.473962
135.978735,103.466034
135.835878,103.394605
135.808415,103.384096
135.803040,103.383714
135.798060,103.381651
135.768796,103.378769
135.625939,103.378769
135.596675,103.381651
135.591694,103.383714
135.586320,103.384096
135.558856,103.394605
135.509982,103.419042
135.494989,103.404049
135.461429,103.390147
135.473239,103.382274
135.697367,103.326242
Z" /> 
<path style="fill:#000000; fill-opacity:1.000000; stroke:none;fill-rule:evenodd;"
d="M 135.822800,103.723476
135.859804,103.760481
135.904510,103.849893
135.904510,103.921931
135.859804,104.011343
135.822800,104.048347
135.733386,104.093055
135.661349,104.093055
135.571935,104.048347
135.561653,104.038065
135.561653,103.733758
135.571935,103.723476
135.661349,103.678769
135.733386,103.678769
Z" /> 
<path style="fill:#000000; fill-opacity:1.000000; stroke:none;fill-rule:evenodd;"
d="M 135.261653,104.000349
135.237742,103.988394
135.204510,103.921930
135.204510,103.645613
135.261653,103.559899
Z" /> 
<path style="fill:#000000; fill-opacity:1.000000; stroke:none;fill-rule:evenodd;"
d="M 119.942707,103.997714
119.975939,104.064178
119.975939,104.136216
119.942707,104.202680
119.876244,104.235912
119.589921,104.235912
119.561654,104.221778
119.561654,103.964484
119.876244,103.964484
Z" /> 
<path style="fill:#000000; fill-opacity:1.000000; stroke:none;fill-rule:evenodd;"
d="M 123.299850,103.997714
123.333082,104.064178
123.333082,104.136216
123.299850,104.202680
123.233387,104.235912
122.947064,104.235912
122.918797,104.221778
122.918797,103.964484
123.233387,103.964484
Z" /> 
<path style="fill:#000000; fill-opacity:1.000000; stroke:none;fill-rule:evenodd;"
d="M 127.371278,103.569144
127.404510,103.635607
127.404510,103.702941
126.997280,103.621495
127.023456,103.569144
127.089920,103.535912
127.304815,103.535912
Z" /> 
<path style="fill:#000000; fill-opacity:1.000000; stroke:none;fill-rule:evenodd;"
d="M 141.585464,107.117495
118.026440,107.117495
118.026440,106.271564
118.264535,106.271564
118.264535,106.330092
118.286933,106.384164
118.328317,106.425548
118.382389,106.447946
118.411653,106.450828
118.475939,106.450828
118.475939,106.800828
118.478821,106.830092
118.501219,106.884164
118.542603,106.925548
118.596675,106.947946
118.655203,106.947946
118.709275,106.925548
118.750659,106.884164
118.773057,106.830092
118.775939,106.800828
118.775939,106.450828
119.340224,106.450828
119.355035,106.449369
119.358984,106.449650
119.361834,106.448699
119.369488,106.447946
119.391704,106.438743
119.414509,106.431142
119.418580,106.427610
119.423560,106.425548
119.440565,106.408542
119.458723,106.392794
119.461132,106.387975
119.464944,106.384164
119.474147,106.361946
119.484897,106.340447
119.485278,106.335072
119.487342,106.330092
119.487342,106.306043
119.489046,106.282067
119.487342,106.274573
119.487342,106.271564
119.485825,106.267902
119.482526,106.253393
119.260242,105.586542
119.761652,105.586542
119.761652,105.729400
119.763110,105.744211
119.762830,105.748161
119.764011,105.753355
119.764534,105.758664
119.766050,105.762325
119.769350,105.776835
119.840779,105.991119
119.852767,106.017970
119.856297,106.022040
119.858360,106.027020
119.877015,106.049751
120.478092,106.650828
119.911652,106.650828
119.882388,106.653710
119.828316,106.676108
119.786932,106.717492
119.764534,106.771564
119.764534,106.830092
119.786932,106.884164
119.828316,106.925548
119.882388,106.947946
119.911652,106.950828
120.840224,106.950828
120.869488,106.947946
120.900761,106.934992
120.923559,106.925549
120.964945,106.884163
120.987342,106.830091
120.987342,106.771565
120.984223,106.764036
120.980781,106.755727
120.964945,106.717492
120.946290,106.694762
120.123785,105.872257
121.190223,105.872257
121.190223,106.229400
121.190725,106.234503
121.190400,106.236691
121.192019,106.247642
121.193105,106.258664
121.193951,106.260708
121.194702,106.265781
121.266131,106.551494
121.266902,106.553652
121.266979,106.554733
121.271637,106.566907
121.276024,106.579185
121.276668,106.580055
121.277488,106.582196
121.348917,106.725053
121.356845,106.737648
121.358360,106.741305
121.361739,106.745422
121.364582,106.749939
121.367576,106.752536
121.377014,106.764036
121.448442,106.835465
121.459947,106.844907
121.462542,106.847899
121.467052,106.850738
121.471173,106.854120
121.474832,106.855635
121.487427,106.863564
121.630285,106.934992
121.657748,106.945502
121.663123,106.945883
121.668102,106.947946
121.697366,106.950828
121.840223,106.950828
121.869487,106.947946
121.874465,106.945883
121.879841,106.945502
121.907304,106.934992
122.050163,106.863564
122.062757,106.855635
122.066417,106.854120
122.070537,106.850738
122.075048,106.847899
122.077642,106.844907
122.089148,106.835465
122.160576,106.764036
122.170014,106.752535
122.173008,106.749939
122.175848,106.745426
122.179230,106.741306
122.180745,106.737646
122.188673,106.725053
122.260102,106.582197
122.260921,106.580054
122.261566,106.579185
122.265950,106.566913
122.270611,106.554733
122.270687,106.553652
122.271459,106.551494
122.342887,106.265780
122.343636,106.260708
122.344484,106.258664
122.345569,106.247641
122.347189,106.236691
122.346863,106.234503
122.347366,106.229400
122.347366,105.872257
122.346863,105.867153
122.347189,105.864966
122.345569,105.854015
122.344484,105.842993
122.343636,105.840948
122.342887,105.835877
122.280554,105.586542
122.618794,105.586542
122.618794,105.729400
122.620252,105.744211
122.619972,105.748161
122.621153,105.753355
122.621676,105.758664
122.623192,105.762325
122.626492,105.776835
122.697921,105.991119
122.709909,106.017970
122.713439,106.022040
122.715502,106.027020
122.734157,106.049751
123.335234,106.650828
122.768794,106.650828
122.739530,106.653710
122.685458,106.676108
122.644074,106.717492
122.621676,106.771564
122.621676,106.830092
122.644074,106.884164
122.685458,106.925548
122.739530,106.947946
122.768794,106.950828
123.697366,106.950828
123.726630,106.947946
123.757903,106.934992
123.780701,106.925549
123.822087,106.884163
123.844484,106.830091
123.844484,106.771565
123.841365,106.764036
123.837923,106.755727
123.822087,106.717492
123.803432,106.694762
122.971327,105.862657
122.918794,105.705058
122.918794,105.621952
122.963501,105.532538
123.000505,105.495535
123.089919,105.450828
123.376242,105.450828
123.465655,105.495535
123.519871,105.549751
123.542601,105.568406
123.596674,105.590802
123.655200,105.590802
123.709272,105.568406
123.750658,105.527020
123.773054,105.472948
123.773054,105.414422
123.750658,105.360349
123.732003,105.337619
123.660575,105.266191
123.649073,105.256751
123.646477,105.253758
123.641963,105.250917
123.637844,105.247536
123.634184,105.246020
123.621591,105.238093
123.478734,105.166664
123.451271,105.156155
123.445896,105.155773
123.440916,105.153710
123.411652,105.150828
123.054509,105.150828
123.025245,105.153710
123.020264,105.155773
123.014890,105.156155
122.987426,105.166664
122.844570,105.238093
122.831976,105.246020
122.828317,105.247536
122.824196,105.250917
122.819684,105.253758
122.817087,105.256751
122.805587,105.266190
122.734158,105.337618
122.724718,105.349120
122.721724,105.351717
122.718882,105.356231
122.715503,105.360349
122.713987,105.364007
122.706059,105.376603
122.634630,105.519460
122.624121,105.546923
122.623739,105.552297
122.621676,105.557278
122.618794,105.586542
122.280554,105.586542
122.271459,105.550162
122.270687,105.548003
122.270611,105.546923
122.265950,105.534742
122.261566,105.522471
122.260921,105.521601
122.260102,105.519459
122.188673,105.376603
122.180746,105.364011
122.179230,105.360349
122.175846,105.356226
122.173008,105.351717
122.170015,105.349121
122.160575,105.337619
122.089147,105.266191
122.077645,105.256751
122.075049,105.253758
122.070535,105.250917
122.066416,105.247536
122.062756,105.246020
122.050163,105.238093
121.907305,105.166664
121.879842,105.156154
121.874464,105.155771
121.869487,105.153710
121.840223,105.150828
121.697366,105.150828
121.668102,105.153710
121.663121,105.155773
121.657747,105.156155
121.630283,105.166664
121.487427,105.238093
121.474835,105.246019
121.471173,105.247536
121.467050,105.250919
121.462541,105.253758
121.459945,105.256750
121.448443,105.266191
121.377015,105.337619
121.367575,105.349120
121.364582,105.351717
121.361741,105.356230
121.358360,105.360350
121.356844,105.364009
121.348917,105.376603
121.277488,105.519460
121.276668,105.521600
121.276024,105.522471
121.271637,105.534748
121.266979,105.546923
121.266902,105.548003
121.266131,105.550162
121.194702,105.835877
121.193952,105.840948
121.193105,105.842993
121.192019,105.854015
121.190400,105.864966
121.190725,105.867153
121.190223,105.872257
120.123785,105.872257
120.114185,105.862657
120.061652,105.705058
120.061652,105.621952
120.106359,105.532538
120.143363,105.495535
120.232777,105.450828
120.519100,105.450828
120.608513,105.495535
120.662729,105.549751
120.685459,105.568406
120.739532,105.590802
120.798058,105.590802
120.852130,105.568406
120.893516,105.527020
120.915912,105.472948
120.915912,105.414422
120.893516,105.360349
120.874861,105.337619
120.803433,105.266191
120.791931,105.256751
120.789335,105.253758
120.784821,105.250917
120.780702,105.247536
120.777042,105.246020
120.764449,105.238093
120.621592,105.166664
120.594129,105.156155
120.588754,105.155773
120.583774,105.153710
120.554510,105.150828
120.197367,105.150828
120.168103,105.153710
120.163122,105.155773
120.157748,105.156155
120.130284,105.166664
119.987428,105.238093
119.974834,105.246020
119.971175,105.247536
119.967054,105.250917
119.962542,105.253758
119.959945,105.256751
119.948445,105.266190
119.877016,105.337618
119.867576,105.349120
119.864582,105.351717
119.861740,105.356231
119.858361,105.360349
119.856845,105.364007
119.848917,105.376603
119.777488,105.519460
119.766979,105.546923
119.766597,105.552297
119.764534,105.557278
119.761652,105.586542
119.260242,105.586542
119.125383,105.181966
119.113395,105.155115
119.075048,105.110901
119.022701,105.084727
118.964320,105.080578
118.908796,105.099086
118.864582,105.137433
118.838408,105.189780
118.834259,105.248161
118.840779,105.276834
119.132110,106.150828
118.775939,106.150828
118.775939,105.800828
118.773057,105.771564
118.750659,105.717492
118.709275,105.676108
118.655203,105.653710
118.596675,105.653710
118.542603,105.676108
118.501219,105.717492
118.478821,105.771564
118.475939,105.800828
118.475939,106.150828
118.411653,106.150828
118.382389,106.153710
118.328317,106.176108
118.286933,106.217492
118.264535,106.271564
118.026440,106.271564
118.026440,103.356648
118.193107,103.356648
118.193107,103.415176
118.215505,103.469248
118.256889,103.510632
118.310961,103.533030
118.340225,103.535912
118.547368,103.535912
118.547368,104.136216
118.514135,104.202680
118.447672,104.235912
118.340225,104.235912
118.310961,104.238794
118.256889,104.261192
118.215505,104.302576
118.193107,104.356648
118.193107,104.415176
118.215505,104.469248
118.256889,104.510632
118.310961,104.533030
118.340225,104.535912
118.483082,104.535912
118.512346,104.533030
118.517324,104.530967
118.522700,104.530586
118.550164,104.520076
118.693021,104.448648
118.697915,104.445567
118.700223,104.444798
118.703097,104.442305
118.717907,104.432983
118.730229,104.418774
118.744438,104.406452
118.753760,104.391642
118.756253,104.388768
118.757022,104.386460
118.760103,104.381566
118.831532,104.238708
118.842042,104.211245
118.842424,104.205867
118.844486,104.200890
118.847368,104.171626
118.847368,103.600198
119.261654,103.600198
119.261654,104.385912
119.264536,104.415176
119.286934,104.469248
119.328318,104.510632
119.382390,104.533030
119.440918,104.533030
119.480525,104.516623
119.487430,104.520076
119.514893,104.530586
119.520268,104.530967
119.525247,104.533030
119.554511,104.535912
119.911654,104.535912
119.940918,104.533030
119.945896,104.530967
119.951272,104.530586
119.978736,104.520076
120.121593,104.448648
120.126485,104.445568
120.128796,104.444798
120.131672,104.442303
120.146479,104.432983
120.158800,104.418775
120.173011,104.406451
120.182331,104.391643
120.184825,104.388768
120.185594,104.386458
120.188675,104.381565
120.236847,104.285222
120.550250,104.285222
120.550250,104.343748
120.552476,104.349121
120.572647,104.397819
120.572648,104.397820
120.591303,104.420551
120.662732,104.491979
120.685461,104.510632
120.685462,104.510633
120.708260,104.520076
120.739533,104.533030
120.739534,104.533030
120.739535,104.533030
120.798060,104.533030
120.798061,104.533030
120.829334,104.520076
120.852132,104.510633
120.874863,104.491978
120.946291,104.420550
120.964946,104.397820
120.987342,104.343747
120.987342,104.316300
120.987343,104.285222
120.964946,104.231149
120.946292,104.208419
120.874864,104.136990
120.852133,104.118335
120.852132,104.118334
120.820458,104.105214
120.798061,104.095937
120.739533,104.095937
120.717136,104.105214
120.685462,104.118334
120.662731,104.136989
120.591302,104.208418
120.572647,104.231149
120.552477,104.279846
120.550250,104.285222
120.236847,104.285222
120.260104,104.238707
120.270613,104.211244
120.270994,104.205868
120.273057,104.200890
120.275939,104.171626
120.275939,104.028769
120.273057,103.999505
120.270994,103.994526
120.270613,103.989151
120.260103,103.961688
120.188675,103.818830
120.185594,103.813936
120.184825,103.811628
120.182331,103.808752
120.173010,103.793945
120.158803,103.781624
120.146479,103.767413
120.131668,103.758090
120.128795,103.755598
120.126487,103.754828
120.121593,103.751748
119.978736,103.680320
119.951272,103.669810
119.945896,103.669428
119.940918,103.667366
119.911654,103.664484
119.589921,103.664484
119.561654,103.650350
119.561654,103.635607
119.594885,103.569144
119.661349,103.535912
119.876244,103.535912
119.987428,103.591505
120.014892,103.602014
120.073272,103.606163
120.128794,103.587656
120.173010,103.549309
120.199184,103.496960
120.203333,103.438580
121.262832,103.438580
121.266981,103.496960
121.293155,103.549309
121.337370,103.587656
121.392893,103.606163
121.451273,103.602014
121.478736,103.591505
121.589921,103.535912
121.804815,103.535912
121.894229,103.580619
121.931233,103.617623
121.975939,103.707035
121.975939,104.064788
121.931232,104.154201
121.894227,104.191206
121.804815,104.235912
121.589921,104.235912
121.478736,104.180320
121.451272,104.169810
121.392892,104.165662
121.337370,104.184170
121.293155,104.222517
121.266980,104.274866
121.262832,104.333246
121.281340,104.388768
121.319687,104.432983
121.344572,104.448648
121.487430,104.520076
121.514893,104.530586
121.520268,104.530967
121.525247,104.533030
121.554511,104.535912
121.840225,104.535912
121.869489,104.533030
121.874467,104.530967
121.879843,104.530586
121.907307,104.520076
122.050164,104.448648
122.062757,104.440720
122.066417,104.439205
122.070536,104.435823
122.075050,104.432983
122.077646,104.429989
122.089148,104.420550
122.160577,104.349121
122.170018,104.337616
122.173010,104.335022
122.175848,104.330512
122.179232,104.326390
122.180748,104.322728
122.188675,104.310137
122.260103,104.167279
122.270613,104.139816
122.270994,104.134440
122.273057,104.129462
122.275939,104.100198
122.275939,103.671626
122.273057,103.642362
122.270994,103.637383
122.270613,103.632008
122.260103,103.604545
122.257930,103.600198
122.618797,103.600198
122.618797,104.385912
122.621679,104.415176
122.644077,104.469248
122.685461,104.510632
122.739533,104.533030
122.798061,104.533030
122.837668,104.516623
122.844573,104.520076
122.872036,104.530586
122.877411,104.530967
122.882390,104.533030
122.911654,104.535912
123.268797,104.535912
123.298061,104.533030
123.303039,104.530967
123.308415,104.530586
123.335879,104.520076
123.478736,104.448648
123.483628,104.445568
123.485939,104.444798
123.488815,104.442303
123.503622,104.432983
123.515943,104.418775
123.530154,104.406451
123.539474,104.391643
123.541968,104.388768
123.542737,104.386458
123.545818,104.381565
123.593990,104.285222
123.907393,104.285222
123.907393,104.343748
123.909619,104.349121
123.929790,104.397819
123.929791,104.397820
123.948446,104.420551
124.019875,104.491979
124.042604,104.510632
124.042605,104.510633
124.065403,104.520076
124.096676,104.533030
124.096677,104.533030
124.096678,104.533030
124.155203,104.533030
124.155204,104.533030
124.186477,104.520076
124.209275,104.510633
124.232006,104.491978
124.303434,104.420550
124.322089,104.397820
124.344485,104.343747
124.344485,104.316300
124.344486,104.285222
124.322089,104.231149
124.303435,104.208419
124.232007,104.136990
124.209276,104.118335
124.209275,104.118334
124.177601,104.105214
124.155204,104.095937
124.096676,104.095937
124.074279,104.105214
124.042605,104.118334
124.019874,104.136989
123.948445,104.208418
123.929790,104.231149
123.909620,104.279846
123.907393,104.285222
123.593990,104.285222
123.617247,104.238707
123.627756,104.211244
123.628137,104.205868
123.630200,104.200890
123.633082,104.171626
123.633082,104.028769
123.630200,103.999505
123.628137,103.994526
123.627756,103.989151
123.617246,103.961688
123.545818,103.818830
123.542737,103.813936
123.541968,103.811628
123.539474,103.808752
123.530153,103.793945
123.515946,103.781624
123.503622,103.767413
123.488811,103.758090
123.485938,103.755598
123.483630,103.754828
123.478736,103.751748
123.335879,103.680320
123.308415,103.669810
123.303039,103.669428
123.298061,103.667366
123.268797,103.664484
122.947064,103.664484
122.918797,103.650350
122.918797,103.635607
122.952028,103.569144
123.018492,103.535912
123.233387,103.535912
123.344571,103.591505
123.372035,103.602014
123.430415,103.606163
123.485937,103.587656
123.530153,103.549309
123.556327,103.496960
123.560476,103.438580
123.541968,103.383057
123.519064,103.356648
124.478821,103.356648
124.478821,103.415176
124.501219,103.469248
124.542603,103.510632
124.596675,103.533030
124.625939,103.535912
124.733386,103.535912
124.822800,103.580619
124.859804,103.617623
124.904511,103.707036
124.904511,104.385912
124.907393,104.415176
124.929791,104.469248
124.971175,104.510632
125.025247,104.533030
125.083775,104.533030
125.137847,104.510632
125.179231,104.469248
125.201629,104.415176
125.204511,104.385912
125.204511,103.407834
125.477549,103.407834
125.484678,103.436362
125.841821,104.436362
125.843022,104.438906
125.843810,104.441621
125.986668,104.798764
126.000212,104.824864
126.000861,104.825529
126.001218,104.826390
126.019873,104.849121
126.091302,104.920550
126.102806,104.929991
126.105401,104.932983
126.109910,104.935821
126.114033,104.939205
126.117694,104.940721
126.130286,104.948648
126.273144,105.020076
126.300607,105.030586
126.358987,105.034734
126.414510,105.016226
126.458725,104.977879
126.484899,104.925530
126.489047,104.867150
126.470539,104.811628
126.432193,104.767413
126.407307,104.751748
126.286221,104.691205
126.253776,104.658760
126.143434,104.382905
126.422973,103.600198
126.690225,103.600198
126.690225,103.743055
126.693107,103.772319
126.698731,103.785896
126.701583,103.800313
126.709821,103.812670
126.715505,103.826391
126.725897,103.836783
126.734048,103.849009
126.746386,103.857272
126.756889,103.867775
126.770465,103.873398
126.782677,103.881577
126.810808,103.890142
126.810959,103.890172
126.810961,103.890173
126.810963,103.890173
127.404510,104.008882
127.404510,104.136216
127.371278,104.202680
127.304815,104.235912
127.089920,104.235912
126.978735,104.180320
126.951271,104.169810
126.892891,104.165662
126.837369,104.184170
126.793154,104.222517
126.766979,104.274866
126.762831,104.333246
126.781339,104.388768
126.819686,104.432983
126.844571,104.448648
126.987429,104.520076
127.014892,104.530586
127.020267,104.530967
127.025246,104.533030
127.054510,104.535912
127.340225,104.535912
127.369489,104.533030
127.374467,104.530967
127.379843,104.530586
127.407307,104.520076
127.550164,104.448648
127.555056,104.445568
127.557367,104.444798
127.560243,104.442303
127.575050,104.432983
127.587371,104.418775
127.601582,104.406451
127.610902,104.391643
127.613396,104.388768
127.614165,104.386458
127.617246,104.381565
127.688675,104.238707
127.699184,104.211244
127.699565,104.205868
127.701628,104.200890
127.704510,104.171626
127.704510,103.886073
127.704511,103.886069
127.704510,103.886063
127.704510,103.600198
127.701628,103.570934
127.699565,103.565955
127.699184,103.560580
127.688674,103.533117
127.617246,103.390259
127.614165,103.385365
127.613396,103.383057
127.610902,103.380181
127.601581,103.365374
127.591519,103.356648
127.835964,103.356648
127.835964,103.415176
127.858362,103.469248
127.899746,103.510632
127.953818,103.533030
127.983082,103.535912
128.190225,103.535912
128.190225,104.136216
128.156992,104.202680
128.090529,104.235912
127.983082,104.235912
127.953818,104.238794
127.899746,104.261192
127.858362,104.302576
127.835964,104.356648
127.835964,104.415176
127.858362,104.469248
127.899746,104.510632
127.953818,104.533030
127.983082,104.535912
128.125939,104.535912
128.155203,104.533030
128.160181,104.530967
128.165557,104.530586
128.193021,104.520076
128.335878,104.448648
128.340772,104.445567
128.343080,104.444798
128.345954,104.442305
128.360764,104.432983
128.373086,104.418774
128.387295,104.406452
128.396617,104.391642
128.399110,104.388768
128.399879,104.386460
128.402960,104.381566
128.474389,104.238708
128.484899,104.211245
128.485281,104.205867
128.487343,104.200890
128.490225,104.171626
128.490225,104.100198
128.833082,104.100198
128.833082,104.171626
128.835964,104.200890
128.838025,104.205867
128.838408,104.211245
128.848918,104.238708
128.920347,104.381566
128.923427,104.386460
128.924197,104.388768
128.926689,104.391641
128.936012,104.406452
128.950223,104.418776
128.962544,104.432983
128.977351,104.442304
128.980227,104.444798
128.982535,104.445567
128.987429,104.448648
129.130287,104.520076
129.157750,104.530586
129.163125,104.530967
129.168104,104.533030
129.197368,104.535912
129.483082,104.535912
129.512346,104.533030
129.517324,104.530967
129.522700,104.530586
129.550164,104.520076
129.693021,104.448648
129.717907,104.432983
129.756253,104.388768
129.763459,104.367150
131.834260,104.367150
131.838408,104.425530
131.864583,104.477879
131.908798,104.516226
131.964320,104.534734
132.022700,104.530586
132.050164,104.520076
132.193021,104.448648
132.197915,104.445567
132.200223,104.444798
132.203097,104.442305
132.217907,104.432983
132.230229,104.418774
132.244438,104.406452
132.253760,104.391642
132.256253,104.388768
132.257022,104.386460
132.260103,104.381566
132.331532,104.238708
132.342042,104.211245
132.342424,104.205867
132.344486,104.200890
132.347368,104.171626
132.347368,103.356648
132.550250,103.356648
132.550250,103.415176
132.572648,103.469248
132.614032,103.510632
132.668104,103.533030
132.697368,103.535912
132.904511,103.535912
132.904511,104.136216
132.871278,104.202680
132.804815,104.235912
132.697368,104.235912
132.668104,104.238794
132.614032,104.261192
132.572648,104.302576
132.550250,104.356648
132.550250,104.415176
132.572648,104.469248
132.614032,104.510632
132.668104,104.533030
132.697368,104.535912
132.840225,104.535912
132.869489,104.533030
132.874467,104.530967
132.879843,104.530586
132.907307,104.520076
133.050164,104.448648
133.055058,104.445567
133.057366,104.444798
133.060240,104.442305
133.075050,104.432983
133.087372,104.418774
133.101581,104.406452
133.110903,104.391642
133.113396,104.388768
133.114165,104.386460
133.117246,104.381566
133.188675,104.238708
133.199185,104.211245
133.199567,104.205867
133.201629,104.200890
133.204511,104.171626
133.204511,103.600198
133.618797,103.600198
133.618797,104.385912
133.621679,104.415176
133.644077,104.469248
133.685461,104.510632
133.739533,104.533030
133.798061,104.533030
133.852133,104.510632
133.893517,104.469248
133.915915,104.415176
133.918797,104.385912
133.918797,103.635607
133.952028,103.569144
134.018492,103.535912
134.161958,103.535912
134.251372,103.580619
134.261654,103.590901
134.261654,104.385912
134.264536,104.415176
134.286934,104.469248
134.328318,104.510632
134.382390,104.533030
134.440918,104.533030
134.494990,104.510632
134.536374,104.469248
134.558772,104.415176
134.561654,104.385912
134.561654,103.600198
134.904510,103.600198
134.904510,103.957341
134.907392,103.986605
134.909455,103.991585
134.909837,103.996960
134.920346,104.024423
134.991775,104.167280
134.994855,104.172174
134.995625,104.174482
134.998117,104.177355
135.007440,104.192166
135.021651,104.204490
135.033972,104.218697
135.048779,104.228018
135.051655,104.230512
135.053963,104.231281
135.058857,104.234362
135.116349,104.263107
135.091191,104.279956
135.058726,104.328655
135.047368,104.386069
135.058846,104.443459
135.091412,104.492089
135.114163,104.510719
135.328448,104.653577
135.344600,104.662188
135.347581,104.664397
135.351102,104.665654
135.354396,104.667411
135.358029,104.668129
135.375273,104.674290
135.660987,104.745719
135.690076,104.750021
135.697367,104.748935
135.704659,104.750021
135.733749,104.745719
136.019462,104.674290
136.036703,104.668130
136.040339,104.667411
136.043634,104.665654
136.047153,104.664397
136.050130,104.662190
136.066287,104.653577
136.280573,104.510719
136.303324,104.492089
136.303413,104.491954
136.303545,104.491867
136.322176,104.469117
136.465033,104.254831
136.473648,104.238671
136.475853,104.235697
136.477108,104.232183
136.478868,104.228883
136.479588,104.225241
136.485746,104.208006
136.557174,103.922292
136.561476,103.893203
136.560390,103.885912
136.561476,103.878621
136.557174,103.849532
136.485746,103.563818
136.479588,103.546582
136.478868,103.542941
136.477108,103.539640
136.475853,103.536127
136.473648,103.533152
136.465033,103.516993
136.377646,103.385912
136.904511,103.385912
136.904511,104.600198
136.907393,104.629462
136.909455,104.634440
136.909837,104.639816
136.920347,104.667280
136.991775,104.810137
136.999702,104.822730
137.001218,104.826390
137.004599,104.830509
137.007440,104.835023
137.010433,104.837619
137.019873,104.849121
137.091302,104.920550
137.102806,104.929991
137.105401,104.932983
137.109910,104.935821
137.114033,104.939205
137.117694,104.940721
137.130286,104.948648
137.273144,105.020076
137.300607,105.030586
137.305982,105.030967
137.310961,105.033030
137.340225,105.035912
137.554511,105.035912
137.583775,105.033030
137.588753,105.030967
137.594129,105.030586
137.621593,105.020076
137.764450,104.948648
137.789336,104.932983
137.827682,104.888768
137.846190,104.833246
137.842042,104.774866
137.815868,104.722517
137.771653,104.684170
137.716130,104.665662
137.657750,104.669810
137.630287,104.680320
137.519101,104.735912
137.375635,104.735912
137.286221,104.691205
137.249216,104.654200
137.204511,104.564788
137.204511,104.535912
137.483082,104.535912
137.512346,104.533030
137.517324,104.530967
137.522700,104.530586
137.550164,104.520076
137.693021,104.448648
137.705614,104.440720
137.709274,104.439205
137.713393,104.435823
137.717907,104.432983
137.720503,104.429989
137.732005,104.420550
137.803434,104.349121
137.812875,104.337616
137.815867,104.335022
137.818705,104.330512
137.822089,104.326390
137.823605,104.322728
137.831532,104.310137
137.902960,104.167279
137.913470,104.139816
137.913851,104.134440
137.915914,104.129462
137.918796,104.100198
137.918796,103.671626
137.915914,103.642362
137.913851,103.637383
137.913470,103.632008
137.902960,103.604545
137.831532,103.461687
137.823603,103.449092
137.822088,103.445433
137.818706,103.441312
137.815867,103.436802
137.812875,103.434207
137.803433,103.422702
137.737378,103.356648
138.050250,103.356648
138.050250,103.415176
138.072648,103.469248
138.114032,103.510632
138.168104,103.533030
138.197368,103.535912
138.404511,103.535912
138.404511,104.136216
138.371278,104.202680
138.304815,104.235912
138.197368,104.235912
138.168104,104.238794
138.114032,104.261192
138.072648,104.302576
138.050250,104.356648
138.050250,104.415176
138.072648,104.469248
138.114032,104.510632
138.168104,104.533030
138.197368,104.535912
138.340225,104.535912
138.369489,104.533030
138.374467,104.530967
138.379843,104.530586
138.407307,104.520076
138.550164,104.448648
138.555058,104.445567
138.557366,104.444798
138.560240,104.442305
138.575050,104.432983
138.587372,104.418774
138.601581,104.406452
138.610903,104.391642
138.613396,104.388768
138.614165,104.386460
138.617246,104.381566
138.688675,104.238708
138.699185,104.211245
138.699567,104.205867
138.701629,104.200890
138.704511,104.171626
138.704511,103.535912
138.768796,103.535912
138.798060,103.533030
138.852132,103.510632
138.893516,103.469248
138.915914,103.415176
138.915914,103.385912
139.118797,103.385912
139.118797,104.385912
139.121679,104.415176
139.144077,104.469248
139.185461,104.510632
139.239533,104.533030
139.298061,104.533030
139.352133,104.510632
139.393517,104.469248
139.415915,104.415176
139.418797,104.385912
139.418797,103.600198
139.833082,103.600198
139.833082,104.385912
139.835964,104.415176
139.858362,104.469248
139.899746,104.510632
139.953818,104.533030
140.012346,104.533030
140.066418,104.510632
140.107802,104.469248
140.130200,104.415176
140.133082,104.385912
140.133082,103.635608
140.166314,103.569143
140.232778,103.535912
140.376244,103.535912
140.442708,103.569144
140.475940,103.635608
140.475940,104.385912
140.478822,104.415176
140.501220,104.469248
140.542604,104.510632
140.596676,104.533030
140.655204,104.533030
140.709276,104.510632
140.750660,104.469248
140.773058,104.415176
140.775940,104.385912
140.775940,103.635607
140.809171,103.569144
140.875635,103.535912
141.019101,103.535912
141.108515,103.580619
141.118797,103.590901
141.118797,104.385912
141.121679,104.415176
141.144077,104.469248
141.185461,104.510632
141.239533,104.533030
141.298061,104.533030
141.352133,104.510632
141.393517,104.469248
141.415915,104.415176
141.418797,104.385912
141.418797,103.385912
141.415915,103.356648
141.393517,103.302576
141.352133,103.261192
141.298061,103.238794
141.239533,103.238794
141.185461,103.261192
141.170467,103.276185
141.121593,103.251748
141.094130,103.241239
141.088755,103.240857
141.083775,103.238794
141.054511,103.235912
140.840225,103.235912
140.810961,103.238794
140.805980,103.240857
140.800606,103.241239
140.773142,103.251748
140.630286,103.323177
140.625939,103.325912
140.621593,103.323177
140.478736,103.251748
140.451273,103.241239
140.445898,103.240857
140.440918,103.238794
140.411654,103.235912
140.197368,103.235912
140.168104,103.238794
140.163123,103.240857
140.157749,103.241239
140.130285,103.251748
139.987429,103.323177
139.982534,103.326257
139.980227,103.327027
139.977352,103.329519
139.962543,103.338842
139.950219,103.353051
139.936012,103.365373
139.926692,103.380178
139.924196,103.383057
139.923425,103.385368
139.920347,103.390259
139.848918,103.533116
139.838409,103.560579
139.838027,103.565953
139.835964,103.570934
139.833082,103.600198
139.418797,103.600198
139.418797,103.385912
139.415915,103.356648
139.393517,103.302576
139.352133,103.261192
139.298061,103.238794
139.239533,103.238794
139.185461,103.261192
139.144077,103.302576
139.121679,103.356648
139.118797,103.385912
138.915914,103.385912
138.915914,103.356648
138.893516,103.302576
138.852132,103.261192
138.798060,103.238794
138.768796,103.235912
138.704511,103.235912
138.704511,102.928079
139.050250,102.928079
139.050250,102.986605
139.052476,102.991978
139.072647,103.040676
139.072648,103.040677
139.091303,103.063408
139.162732,103.134836
139.185461,103.153489
139.185462,103.153490
139.211645,103.164335
139.239533,103.175887
139.239534,103.175887
139.239535,103.175887
139.298060,103.175887
139.298061,103.175887
139.325949,103.164335
139.352132,103.153490
139.374863,103.134835
139.446291,103.063407
139.464946,103.040677
139.487342,102.986604
139.487342,102.969246
139.487343,102.928079
139.464946,102.874006
139.446292,102.851276
139.374864,102.779847
139.352133,102.761192
139.352132,102.761191
139.320458,102.748071
139.298061,102.738794
139.239533,102.738794
139.217136,102.748071
139.185462,102.761191
139.162731,102.779846
139.091302,102.851275
139.072647,102.874006
139.052477,102.922703
139.050250,102.928079
138.704511,102.928079
138.704511,102.885912
138.701629,102.856648
138.679231,102.802576
138.637847,102.761192
138.583775,102.738794
138.525247,102.738794
138.471175,102.761192
138.429791,102.802576
138.407393,102.856648
138.404511,102.885912
138.404511,103.235912
138.197368,103.235912
138.168104,103.238794
138.114032,103.261192
138.072648,103.302576
138.050250,103.356648
137.737378,103.356648
137.732004,103.351274
137.720504,103.341836
137.717907,103.338842
137.713390,103.335999
137.709273,103.332620
137.705616,103.331105
137.693021,103.323177
137.550164,103.251748
137.522701,103.241239
137.517326,103.240857
137.512346,103.238794
137.483082,103.235912
137.197368,103.235912
137.168104,103.238794
137.163123,103.240857
137.157749,103.241239
137.130285,103.251748
137.123381,103.255199
137.083775,103.238794
137.025247,103.238794
136.971175,103.261192
136.929791,103.302576
136.907393,103.356648
136.904511,103.385912
136.377646,103.385912
136.322176,103.302707
136.303545,103.279957
136.303413,103.279869
136.303324,103.279735
136.280573,103.261105
136.066287,103.118247
136.050130,103.109633
136.047153,103.107427
136.043634,103.106169
136.040339,103.104413
136.036703,103.103693
136.019462,103.097534
135.733749,103.026105
135.704659,103.021803
135.697367,103.022888
135.690076,103.021803
135.660987,103.026105
135.375273,103.097534
135.358029,103.103694
135.354396,103.104413
135.351102,103.106169
135.347581,103.107427
135.344600,103.109635
135.328448,103.118247
135.114163,103.261105
135.091412,103.279735
135.091323,103.279867
135.091191,103.279956
135.072561,103.302707
134.929703,103.516993
134.915868,103.542940
134.913016,103.557356
134.907392,103.570934
134.904510,103.600198
134.561654,103.600198
134.561654,102.885912
134.558772,102.856648
134.536374,102.802576
134.494990,102.761192
134.440918,102.738794
134.382390,102.738794
134.328318,102.761192
134.286934,102.802576
134.264536,102.856648
134.261654,102.885912
134.261654,103.250678
134.236987,103.241239
134.231612,103.240857
134.226632,103.238794
134.197368,103.235912
133.983082,103.235912
133.953818,103.238794
133.948837,103.240857
133.943463,103.241239
133.915999,103.251748
133.773143,103.323177
133.768248,103.326257
133.765941,103.327027
133.763066,103.329519
133.748257,103.338842
133.735933,103.353051
133.721726,103.365373
133.712406,103.380178
133.709910,103.383057
133.709139,103.385368
133.706061,103.390259
133.634633,103.533116
133.624123,103.560580
133.623741,103.565955
133.621679,103.570934
133.618797,103.600198
133.204511,103.600198
133.204511,103.535912
133.268796,103.535912
133.298060,103.533030
133.352132,103.510632
133.393516,103.469248
133.415914,103.415176
133.415914,103.356648
133.393516,103.302576
133.352132,103.261192
133.298060,103.238794
133.268796,103.235912
133.204511,103.235912
133.204511,102.885912
133.201629,102.856648
133.179231,102.802576
133.137847,102.761192
133.083775,102.738794
133.025247,102.738794
132.971175,102.761192
132.929791,102.802576
132.907393,102.856648
132.904511,102.885912
132.904511,103.235912
132.697368,103.235912
132.668104,103.238794
132.614032,103.261192
132.572648,103.302576
132.550250,103.356648
132.347368,103.356648
132.347368,102.885912
132.344486,102.856648
132.322088,102.802576
132.280704,102.761192
132.226632,102.738794
132.168104,102.738794
132.114032,102.761192
132.072648,102.802576
132.050250,102.856648
132.047368,102.885912
132.047368,104.136216
132.014135,104.202680
131.916000,104.251748
131.891115,104.267413
131.852768,104.311628
131.834260,104.367150
129.763459,104.367150
129.774761,104.333246
129.770613,104.274866
129.744439,104.222517
129.700224,104.184170
129.644701,104.165662
129.586321,104.169810
129.558858,104.180320
129.447672,104.235912
129.232778,104.235912
129.166314,104.202680
129.133082,104.136216
129.133082,104.135608
129.166314,104.069143
129.232778,104.035912
129.411654,104.035912
129.440918,104.033030
129.445896,104.030967
129.451272,104.030586
129.478736,104.020076
129.621593,103.948648
129.626485,103.945568
129.628796,103.944798
129.631672,103.942303
129.646479,103.932983
129.658800,103.918775
129.673011,103.906451
129.682331,103.891643
129.684825,103.888768
129.685594,103.886458
129.688675,103.881565
129.736848,103.785220
130.121679,103.785220
130.121679,103.843748
130.144077,103.897820
130.185461,103.939204
130.239533,103.961602
130.268797,103.964484
131.411654,103.964484
131.440918,103.961602
131.494990,103.939204
131.536374,103.897820
131.558772,103.843748
131.558772,103.785220
131.536374,103.731148
131.494990,103.689764
131.440918,103.667366
131.411654,103.664484
130.268797,103.664484
130.239533,103.667366
130.185461,103.689764
130.144077,103.731148
130.121679,103.785220
129.736848,103.785220
129.760104,103.738707
129.770613,103.711244
129.770994,103.705868
129.773057,103.700890
129.775939,103.671626
129.775939,103.600198
129.773057,103.570934
129.770994,103.565955
129.770613,103.560580
129.760103,103.533117
129.688675,103.390259
129.685594,103.385365
129.684825,103.383057
129.682331,103.380181
129.673010,103.365374
129.658803,103.353053
129.646479,103.338842
129.631668,103.329519
129.628795,103.327027
129.626487,103.326257
129.621593,103.323177
129.478736,103.251748
129.451273,103.241239
129.445898,103.240857
129.440918,103.238794
129.411654,103.235912
129.197368,103.235912
129.168104,103.238794
129.163123,103.240857
129.157749,103.241239
129.130285,103.251748
128.987429,103.323177
128.962543,103.338842
128.924196,103.383057
128.905689,103.438580
128.909838,103.496960
128.936012,103.549309
128.980227,103.587656
129.035750,103.606163
129.094130,103.602014
129.121593,103.591505
129.232778,103.535912
129.376244,103.535912
129.442707,103.569144
129.475939,103.635607
129.475939,103.636216
129.442707,103.702680
129.376244,103.735912
129.197368,103.735912
129.168104,103.738794
129.163123,103.740857
129.157749,103.741239
129.130285,103.751748
128.987429,103.823177
128.982534,103.826257
128.980227,103.827027
128.977352,103.829519
128.962543,103.838842
128.950219,103.853051
128.936012,103.865373
128.926692,103.880178
128.924196,103.883057
128.923425,103.885368
128.920347,103.890259
128.848918,104.033116
128.838409,104.060579
128.838027,104.065953
128.835964,104.070934
128.833082,104.100198
128.490225,104.100198
128.490225,103.535912
128.554510,103.535912
128.583774,103.533030
128.637846,103.510632
128.679230,103.469248
128.701628,103.415176
128.701628,103.356648
128.679230,103.302576
128.637846,103.261192
128.583774,103.238794
128.554510,103.235912
128.490225,103.235912
128.490225,102.885912
128.487343,102.856648
128.464945,102.802576
128.423561,102.761192
128.369489,102.738794
128.310961,102.738794
128.256889,102.761192
128.215505,102.802576
128.193107,102.856648
128.190225,102.885912
128.190225,103.235912
127.983082,103.235912
127.953818,103.238794
127.899746,103.261192
127.858362,103.302576
127.835964,103.356648
127.591519,103.356648
127.587374,103.353053
127.575050,103.338842
127.560239,103.329519
127.557366,103.327027
127.555058,103.326257
127.550164,103.323177
127.407307,103.251748
127.379844,103.241239
127.374469,103.240857
127.369489,103.238794
127.340225,103.235912
127.054510,103.235912
127.025246,103.238794
127.020265,103.240857
127.014891,103.241239
126.987427,103.251748
126.844571,103.323177
126.839676,103.326257
126.837369,103.327027
126.834494,103.329519
126.819685,103.338842
126.807361,103.353051
126.793154,103.365373
126.783834,103.380178
126.781338,103.383057
126.780567,103.385368
126.777489,103.390259
126.706061,103.533116
126.695551,103.560580
126.695169,103.565955
126.693107,103.570934
126.690225,103.600198
126.422973,103.600198
126.481486,103.436363
126.488615,103.407834
126.485708,103.349379
126.460654,103.296487
126.417265,103.257207
126.362147,103.237522
126.303692,103.240429
126.250800,103.265483
126.211520,103.308872
126.198964,103.335462
125.983082,103.939931
125.767200,103.335462
125.754644,103.308872
125.715364,103.265483
125.662472,103.240429
125.604017,103.237522
125.548899,103.257207
125.505510,103.296487
125.480456,103.349379
125.477549,103.407834
125.204511,103.407834
125.204511,103.385912
125.201629,103.356648
125.179231,103.302576
125.137847,103.261192
125.083775,103.238794
125.025247,103.238794
124.971175,103.261192
124.932372,103.299995
124.835878,103.251748
124.808415,103.241238
124.803037,103.240855
124.798060,103.238794
124.768796,103.235912
124.625939,103.235912
124.596675,103.238794
124.542603,103.261192
124.501219,103.302576
124.478821,103.356648
123.519064,103.356648
123.503622,103.338842
123.478736,103.323177
123.335879,103.251748
123.308416,103.241239
123.303041,103.240857
123.298061,103.238794
123.268797,103.235912
122.983082,103.235912
122.953818,103.238794
122.948837,103.240857
122.943463,103.241239
122.915999,103.251748
122.773143,103.323177
122.768248,103.326257
122.765941,103.327027
122.763066,103.329519
122.748257,103.338842
122.735933,103.353051
122.721726,103.365373
122.712406,103.380178
122.709910,103.383057
122.709139,103.385368
122.706061,103.390259
122.634633,103.533116
122.624123,103.560580
122.623741,103.565955
122.621679,103.570934
122.618797,103.600198
122.257930,103.600198
122.188675,103.461687
122.180746,103.449092
122.179231,103.445433
122.175849,103.441312
122.173010,103.436802
122.170018,103.434207
122.160576,103.422702
122.089147,103.351274
122.077647,103.341836
122.075050,103.338842
122.070533,103.335999
122.066416,103.332620
122.062759,103.331105
122.050164,103.323177
121.907307,103.251748
121.879844,103.241239
121.874469,103.240857
121.869489,103.238794
121.840225,103.235912
121.554511,103.235912
121.525247,103.238794
121.520266,103.240857
121.514892,103.241239
121.487428,103.251748
121.344572,103.323177
121.319686,103.338842
121.281339,103.383057
121.262832,103.438580
120.203333,103.438580
120.184825,103.383057
120.146479,103.338842
120.121593,103.323177
119.978736,103.251748
119.951273,103.241239
119.945898,103.240857
119.940918,103.238794
119.911654,103.235912
119.625939,103.235912
119.596675,103.238794
119.591694,103.240857
119.586320,103.241239
119.558856,103.251748
119.416000,103.323177
119.411105,103.326257
119.408798,103.327027
119.405923,103.329519
119.391114,103.338842
119.378790,103.353051
119.364583,103.365373
119.355263,103.380178
119.352767,103.383057
119.351996,103.385368
119.348918,103.390259
119.277490,103.533116
119.266980,103.560580
119.266598,103.565955
119.264536,103.570934
119.261654,103.600198
118.847368,103.600198
118.847368,103.535912
118.911653,103.535912
118.940917,103.533030
118.994989,103.510632
119.036373,103.469248
119.058771,103.415176
119.058771,103.356648
119.036373,103.302576
118.994989,103.261192
118.940917,103.238794
118.911653,103.235912
118.847368,103.235912
118.847368,102.885912
118.844486,102.856648
118.822088,102.802576
118.780704,102.761192
118.726632,102.738794
118.668104,102.738794
118.614032,102.761192
118.572648,102.802576
118.550250,102.856648
118.547368,102.885912
118.547368,103.235912
118.340225,103.235912
118.310961,103.238794
118.256889,103.261192
118.215505,103.302576
118.193107,103.356648
118.026440,103.356648
118.026440,102.572127
141.585464,102.572127
Z" /> 
<path style="fill:#000000; fill-opacity:1.000000; stroke:none;fill-rule:evenodd;"
d="M 140.150000,111.900000
141.850000,111.900000
141.850000,113.600000
140.150000,113.600000
Z" /> 
</g>
<g style="fill:#000000; fill-opacity:1.000000; stroke:none;">
<circle cx="138.460000" cy="112.750000" r="0.850000" /> 
<path style="fill:#000000; fill-opacity:1.000000; stroke:none;fill-rule:evenodd;"
d="M 134.459468,82.547144
134.618048,82.549965
134.621893,82.550093
134.781622,82.557996
134.785446,82.558245
134.945612,82.571188
134.949406,82.571554
135.109600,82.589516
135.113358,82.589997
135.272930,82.612928
135.276738,82.613537
135.435162,82.641402
135.438942,82.642129
135.595649,82.674881
135.599586,82.675772
135.753963,82.713350
135.757989,82.714402
135.909539,82.756766
135.913684,82.758004
136.061201,82.804892
136.066649,82.806765
136.478762,82.959308
136.485410,82.961991
136.881929,83.135593
136.888543,83.138725
137.024494,83.208106
137.269782,83.333286
137.276305,83.336864
137.571203,83.510405
137.642114,83.552134
137.648462,83.556134
137.998583,83.791822
138.004705,83.796220
138.338892,84.052046
138.344744,84.056815
138.662793,84.332542
138.668320,84.337635
138.969982,84.633009
138.975140,84.638372
139.060033,84.732127
139.260164,84.953148
139.264936,84.958743
139.533059,85.292671
139.537418,85.298436
139.788384,85.651289
139.792320,85.657172
140.025832,86.028684
140.029344,86.034632
140.245146,86.424606
140.248239,86.430572
140.446004,86.838699
140.448686,86.844626
140.628142,87.270706
140.630443,87.276584
140.791246,87.720256
140.793215,87.726145
140.880589,88.010989
140.881875,88.015482
140.968825,88.342408
140.969679,88.345812
141.018493,88.552769
141.052619,88.697449
141.053281,88.700415
141.128741,89.059506
141.129326,89.062470
141.193850,89.411577
141.194433,89.414998
141.244637,89.736758
141.245270,89.741389
141.277903,90.018827
141.278406,90.024052
141.286976,90.138490
141.287257,90.143749
141.290429,90.241996
141.290491,90.245202
141.290981,90.321793
141.292809,90.389974
141.294662,90.420447
141.297378,90.448596
141.297379,90.448604
141.301133,90.474452
141.306099,90.498067
141.306103,90.498081
141.312455,90.519498
141.312459,90.519510
141.320388,90.538831
141.320391,90.538838
141.330052,90.556064
141.330056,90.556070
141.330060,90.556077
141.341653,90.571305
141.355344,90.584569
141.355347,90.584571
141.355350,90.584574
141.371302,90.595918
141.371308,90.595922
141.389724,90.605419
141.410766,90.613113
141.410768,90.613113
141.410775,90.613116
141.434581,90.619050
141.434596,90.619052
141.434613,90.619057
141.461440,90.623306
141.491423,90.625912
141.503322,90.626275
141.524732,90.626930
141.524738,90.626929
141.524741,90.626930
141.561568,90.626413
141.602082,90.624415
141.602091,90.624414
141.602097,90.624414
141.610390,90.623773
141.646459,90.620989
141.694876,90.616190
141.804536,90.602684
141.932473,90.584326
142.247686,90.534951
142.249936,90.534621
142.495472,90.501135
142.499494,90.500655
142.785697,90.471287
142.789779,90.470936
143.467254,90.424121
143.470914,90.423923
144.243045,90.393840
144.245876,90.393763
145.064222,90.380726
145.066675,90.380713
145.882268,90.385010
145.885104,90.385058
146.648868,90.406922
146.652693,90.407091
147.316154,90.446715
147.320436,90.447045
147.597401,90.473361
147.601818,90.473861
147.835413,90.504549
147.840415,90.505313
148.573732,90.632698
148.577837,90.633484
149.295922,90.783816
149.300121,90.784773
150.002472,90.957980
150.006789,90.959129
150.693582,91.155263
150.697933,91.156594
151.369334,91.375713
151.373710,91.377235
152.029748,91.619353
152.034198,91.621093
152.675075,91.886284
152.679510,91.888223
153.085493,92.075254
153.305287,92.176510
153.309720,92.178660
153.920587,92.490122
153.924935,92.492449
154.317046,92.712617
154.521041,92.827159
154.525344,92.829691
155.106742,93.187664
155.110909,93.190346
155.677825,93.571711
155.681859,93.574545
156.234336,93.979313
156.238235,93.982291
156.540553,94.222859
156.776418,94.410548
156.780181,94.413665
157.220551,94.793364
157.304199,94.865487
157.307776,94.868695
157.805699,95.332922
157.818295,95.344666
157.820593,95.346864
158.065801,95.587524
158.067042,95.588759
158.301053,95.825010
158.302413,95.826405
158.525687,96.059015
158.527150,96.060566
158.740775,96.290924
158.742318,96.292619
158.947392,96.522124
158.948989,96.523946
159.146651,96.754049
159.148270,96.755973
159.339549,96.988002
159.341157,96.989995
159.527219,97.225440
159.528764,97.227437
159.707450,97.463424
159.710654,97.467656
159.712156,97.469682
159.890981,97.716108
159.892391,97.718093
160.069217,97.972113
160.070520,97.974021
160.246481,98.237121
160.247664,98.238924
160.423775,98.512423
160.424833,98.514095
160.602013,98.799146
160.603360,98.801366
160.967046,99.414759
160.971361,99.421899
161.590599,100.446555
161.590605,100.446564
162.251777,101.444810
162.914083,102.359356
162.950123,102.409121
163.685194,103.339107
164.456571,104.234415
165.263784,105.094631
165.525146,105.350451
166.106425,105.919407
166.797265,106.540449
166.984034,106.708349
167.485334,107.122038
167.896166,107.461071
168.842394,108.177205
169.822273,108.856369
170.835362,109.498183
171.881221,110.102269
172.959411,110.668246
174.069490,111.195736
175.211019,111.684359
175.414044,111.767810
175.415032,111.768223
175.601560,111.847123
175.602677,111.847603
175.769089,111.920248
175.770541,111.920894
175.907753,111.983110
175.960680,112.028723
175.980546,112.095709
175.961042,112.162801
175.908361,112.208698
175.889182,112.215671
175.700509,112.267143
175.698475,112.267680
174.717191,112.517579
174.715763,112.517933
173.646036,112.776879
173.644614,112.777215
173.209293,112.877177
173.207090,112.877661
172.909338,112.940356
172.905039,112.941183
172.667451,112.982511
172.664247,112.983025
172.419939,113.018962
172.416916,113.019369
172.167337,113.049830
172.164457,113.050147
171.910812,113.075105
171.908038,113.075347
171.651264,113.094804
171.648566,113.094978
171.390633,113.108874
171.386663,113.109025
170.867214,113.120341
170.861906,113.120343
170.347763,113.109531
170.343650,113.109376
170.092327,113.095735
170.089460,113.095546
169.842045,113.076359
169.839035,113.076088
169.597392,113.051412
169.594197,113.051044
169.359334,113.020887
169.355905,113.020398
169.128983,112.984793
169.125262,112.984151
168.907976,112.943244
168.902769,112.942148
168.473328,112.842049
168.467343,112.840495
168.026780,112.714344
168.021353,112.712655
167.569599,112.560578
167.564670,112.558802
167.303136,112.458272
167.102450,112.381132
167.097970,112.379309
166.910168,112.298566
166.625961,112.176374
166.621866,112.174525
166.140787,111.946687
166.137033,111.944831
165.647509,111.692413
165.644057,111.690563
165.146831,111.413959
165.143645,111.412125
164.639279,111.111634
164.636328,111.109819
164.125588,110.785862
164.122844,110.784070
163.606366,110.436998
163.603804,110.435230
163.498074,110.360260
163.082158,110.065347
163.079773,110.063612
162.553744,109.671377
162.551504,109.669668
162.505060,109.633354
162.021613,109.255350
162.019494,109.253655
161.878332,109.138196
161.732507,109.018922
161.486544,108.817744
161.484530,108.816061
161.291837,108.651526
160.948512,108.358369
160.947691,108.357661
160.465292,107.937087
160.513753,108.453094
160.514047,108.456829
160.541506,108.889215
160.541696,108.893235
160.559440,109.466019
160.559489,109.468294
160.567827,110.129172
160.567837,110.130865
160.567112,110.826564
160.567100,110.828156
160.557697,111.505537
160.557656,111.507430
160.539989,112.113272
160.539869,112.116212
160.514459,112.596300
160.513922,112.602999
160.481716,112.902598
160.479880,112.914343
160.430103,113.156192
160.429109,113.160610
160.362586,113.433024
160.361708,113.436413
160.282734,113.724288
160.281888,113.727230
160.194248,114.018335
160.193343,114.021212
160.100865,114.303336
160.099775,114.306516
160.006293,114.567570
160.004782,114.571570
159.914028,114.799880
159.912318,114.803968
159.869909,114.900461
159.868209,114.904163
159.828098,114.987852
159.825693,114.992605
159.787440,115.064338
159.784847,115.068960
159.742578,115.140666
159.739959,115.144911
159.693759,115.216536
159.691142,115.220428
159.641882,115.290785
159.641130,115.291859
159.638519,115.295449
159.587476,115.363050
159.584849,115.366529
159.582245,115.369857
159.525680,115.439689
159.521820,115.444228
159.396814,115.584230
159.391741,115.589582
159.255200,115.725319
159.250206,115.730016
159.102672,115.861290
159.097722,115.865468
158.940457,115.991322
158.935509,115.995083
158.769753,116.114617
158.764747,116.118043
158.591858,116.230292
158.586734,116.233445
158.407939,116.337564
158.402625,116.340487
158.219239,116.435591
158.213656,116.438311
158.027010,116.523533
158.021068,116.526062
157.832428,116.600586
157.826026,116.602914
157.636769,116.665904
157.629791,116.668000
157.440279,116.718928
157.434605,116.720311
157.341928,116.740591
157.337890,116.741404
157.244577,116.758597
157.241168,116.759176
157.101031,116.780976
157.098231,116.781379
157.036417,116.789555
157.033852,116.789867
156.975935,116.796303
156.972817,116.796610
156.926055,116.800613
156.918253,116.801281
156.914634,116.801538
156.862544,116.804464
156.858536,116.804624
156.808002,116.805825
156.803768,116.805853
156.753804,116.805334
156.749536,116.805216
156.699011,116.802950
156.694922,116.802699
156.642987,116.798647
156.639245,116.798298
156.584832,116.792389
156.581552,116.791989
156.523766,116.784151
156.521014,116.783746
156.459063,116.773923
156.456844,116.773550
156.390108,116.761723
156.387736,116.761279
156.235859,116.731304
156.232696,116.730637
156.065858,116.693166
156.061721,116.692162
155.899700,116.649882
155.895538,116.648718
155.738335,116.601786
155.734125,116.600447
155.582222,116.549138
155.577936,116.547602
155.431822,116.492193
155.427433,116.490432
155.287608,116.431215
155.283085,116.429192
155.150031,116.366461
155.145342,116.364128
155.100794,116.340777
155.019565,116.298198
155.014675,116.295493
154.896641,116.226671
154.891519,116.223515
154.781782,116.152182
154.776397,116.148477
154.675369,116.074952
154.669698,116.070568
154.577925,115.995296
154.571960,115.990076
154.509777,115.932045
154.489853,115.913451
154.483643,115.907228
154.411632,115.829726
154.405196,115.822219
154.343663,115.744364
154.337159,115.735329
154.336662,115.734569
154.284920,115.655424
154.281137,115.649246
154.248714,115.592614
154.246966,115.589450
154.218680,115.536405
154.216155,115.531393
154.192780,115.482251
154.190528,115.477228
154.181278,115.455282
154.179688,115.451314
154.171322,115.429328
154.169714,115.424841
154.162495,115.403401
154.160948,115.398468
154.154789,115.377296
154.153386,115.372050
154.148211,115.350837
154.147019,115.345420
154.142786,115.323906
154.141833,115.318411
154.138500,115.296223
154.137815,115.290851
154.135387,115.267734
154.134951,115.262502
154.133450,115.238293
154.133241,115.233293
154.133114,115.227397
154.132687,115.207590
154.132675,115.203052
154.133111,115.175646
154.133248,115.171510
154.134720,115.142215
154.134969,115.138434
154.137510,115.107141
154.137822,115.103863
154.141406,115.070974
154.141938,115.066780
154.152782,114.991766
154.153505,114.987338
154.160071,114.951263
154.168921,114.902632
154.169543,114.899461
154.189726,114.803119
154.190216,114.800882
154.208651,114.720325
154.215173,114.691827
154.215484,114.690501
154.245260,114.567356
154.245419,114.566709
154.279981,114.428347
154.362808,114.055781
154.436105,113.642776
154.497392,113.215094
154.544190,112.798498
154.574021,112.418750
154.584404,112.101612
154.584270,112.095709
154.581529,111.974570
154.572864,111.872856
154.572863,111.872853
154.572863,111.872846
154.558095,111.799654
154.548326,111.774764
154.536916,111.758216
154.536915,111.758215
154.536047,111.757641
154.534353,111.756521
154.531605,111.756350
154.528681,111.757669
154.528680,111.757670
154.525590,111.760443
154.522341,111.764637
154.518943,111.770215
154.518941,111.770219
154.511727,111.785397
154.511714,111.785428
154.504002,111.805736
154.503991,111.805768
154.495846,111.830935
154.487322,111.860740
154.478514,111.894809
154.469449,111.933032
154.460232,111.974974
154.450936,112.020345
154.441591,112.069042
154.432285,112.120696
154.423100,112.174944
154.414076,112.231684
154.405323,112.290357
154.405234,112.290940
154.383988,112.428850
154.383596,112.431243
154.360382,112.564550
154.359922,112.567038
154.334705,112.696199
154.334175,112.698767
154.306981,112.823781
154.306371,112.826439
154.305273,112.830995
154.277287,112.947025
154.276563,112.949876
154.245641,113.065926
154.244800,113.068931
154.212107,113.180286
154.211128,113.183464
154.176716,113.290015
154.175575,113.293382
154.139539,113.394914
154.138205,113.398497
154.100606,113.494895
154.099043,113.498712
154.059987,113.589777
154.058147,113.593861
154.017708,113.679474
154.015538,113.683844
153.973856,113.763785
153.971284,113.768470
153.928452,113.842634
153.925395,113.847648
153.881571,113.915855
153.877923,113.921219
153.833254,113.983338
153.828892,113.989047
153.740409,114.098160
153.735672,114.103665
153.641141,114.207205
153.636203,114.212311
153.536174,114.310000
153.531042,114.314738
153.426069,114.406292
153.420732,114.410690
153.311459,114.495750
153.305904,114.499831
153.192909,114.578109
153.187111,114.581891
153.071025,114.653067
153.064953,114.656558
152.946411,114.720325
152.940026,114.723526
152.819669,114.779589
152.812927,114.782490
152.691386,114.830573
152.684234,114.833152
152.562145,114.872988
152.554535,114.875204
152.432580,114.906535
152.424457,114.908334
152.303242,114.930937
152.294560,114.932240
152.174726,114.945905
152.165450,114.946611
152.046368,114.951198
152.039022,114.951263
151.982257,114.950085
151.977172,114.949875
151.921078,114.946404
151.913543,114.945707
151.793024,114.930828
151.783937,114.929362
151.661580,114.904931
151.653448,114.903020
151.529071,114.869339
151.521725,114.867103
151.396448,114.824697
151.389730,114.822205
151.264609,114.771621
151.258380,114.768901
151.134597,114.710776
151.128737,114.707834
151.099016,114.691909
151.007276,114.642752
151.001681,114.639564
150.883660,114.568201
150.878238,114.564727
150.764701,114.487754
150.759369,114.483930
150.651310,114.402004
150.646001,114.397744
150.544495,114.311620
150.539148,114.306810
150.445175,114.217205
150.439765,114.211715
150.354310,114.119400
150.348795,114.113018
150.272866,114.018872
150.267262,114.011360
150.201740,113.916219
150.196142,113.907302
150.156493,113.837757
150.140537,113.809769
150.137426,113.803957
150.116465,113.762164
150.115145,113.759450
150.096706,113.720274
150.094575,113.715482
150.079290,113.679053
150.077354,113.674149
150.071355,113.657954
150.070015,113.654145
150.064416,113.637358
150.063118,113.633228
150.058110,113.616256
150.056938,113.612003
150.052449,113.594481
150.051430,113.590180
150.047433,113.571825
150.046596,113.567628
150.043063,113.548110
150.042397,113.544034
150.039885,113.526881
150.039335,113.523122
150.038840,113.519321
150.036248,113.496693
150.035903,113.493263
150.033784,113.468547
150.033561,113.465470
150.031952,113.438665
150.031817,113.435900
150.031506,113.427578
150.030726,113.406664
150.030660,113.404258
150.030108,113.372909
150.030093,113.369973
150.030600,113.297372
150.030659,113.294318
150.031315,113.273647
150.033341,113.209827
150.033429,113.207691
150.033650,113.203196
150.038265,113.109347
150.038326,113.108236
150.045275,112.994349
150.045333,112.993475
150.054278,112.863263
150.054317,112.862721
150.057025,112.826447
150.074201,112.596300
150.077984,112.545607
150.107409,112.064802
150.107411,112.064773
150.131447,111.489643
150.147615,110.892439
150.153436,110.345357
150.153043,109.138196
150.153042,109.138196
150.153042,109.138195
149.673489,109.139663
149.312474,109.147829
148.840980,109.163697
148.683880,109.168984
148.683848,109.168985
148.683797,109.168987
146.977955,109.237419
145.328716,109.305829
145.327827,109.305863
144.474633,109.335124
144.472071,109.335186
144.384492,109.336378
144.348093,109.337761
144.316646,109.339890
144.289906,109.342933
144.280952,109.344587
144.267538,109.347066
144.267535,109.347066
144.267523,109.347069
144.257940,109.349586
144.257924,109.349591
144.249288,109.352455
144.249287,109.352455
144.241644,109.355664
144.241629,109.355671
144.234898,109.359261
144.234894,109.359263
144.229038,109.363260
144.224049,109.367665
144.219857,109.372533
144.216472,109.377833
144.216464,109.377847
144.213817,109.383642
144.211877,109.389953
144.211876,109.389957
144.210618,109.396778
144.209999,109.404161
144.210547,109.420657
144.213241,109.439598
144.217794,109.461135
144.222883,109.481315
144.224688,109.489679
144.232945,109.535576
144.233901,109.541793
144.245462,109.632148
144.245745,109.634543
144.259712,109.763590
144.259850,109.764937
144.275441,109.925341
144.275562,109.926658
144.309595,110.320385
144.309702,110.321701
144.344040,110.775143
144.344179,110.777201
144.368017,111.181153
144.368162,111.184293
144.381113,111.569646
144.381181,111.573157
144.383123,111.941127
144.383082,111.945028
144.373877,112.296386
144.373690,112.300694
144.353201,112.636337
144.352822,112.641056
144.320927,112.961693
144.320310,112.966813
144.276879,113.273362
144.275973,113.278861
144.220889,113.572095
144.219649,113.577924
144.152765,113.858821
144.151149,113.864916
144.072341,114.134298
144.070323,114.140571
143.979432,114.399363
143.977006,114.405709
143.873849,114.654857
143.871031,114.661161
143.755402,114.901607
143.752232,114.907753
143.623921,115.140396
143.620470,115.146266
143.618085,115.150079
143.479205,115.372068
143.475541,115.377590
143.320745,115.597897
143.317680,115.602071
143.255297,115.683411
143.252930,115.686400
143.186908,115.767212
143.184534,115.770032
143.115362,115.849742
143.112977,115.852411
143.040938,115.930738
143.038536,115.933277
142.963724,116.010153
142.961317,116.012559
142.917789,116.054881
142.884035,116.087699
142.881576,116.090025
142.801953,116.163320
142.799452,116.165560
142.717749,116.236781
142.715198,116.238945
142.631570,116.307964
142.628953,116.310065
142.543644,116.376674
142.540953,116.378717
142.454104,116.442797
142.451321,116.444791
142.363245,116.506095
142.360355,116.508047
142.271129,116.566497
142.268117,116.568409
142.178055,116.623770
142.174899,116.625646
142.084185,116.677772
142.080867,116.679611
141.991255,116.727519
141.984525,116.730859
141.907676,116.766137
141.898904,116.769764
141.812522,116.801667
141.805121,116.804139
141.708747,116.832987
141.702378,116.834710
141.597544,116.860102
141.591938,116.861324
141.479976,116.883014
141.474924,116.883884
141.357314,116.901661
141.352651,116.902276
141.230621,116.916011
141.226212,116.916428
141.101061,116.926004
141.096792,116.926256
140.969880,116.931574
140.965648,116.931679
140.838187,116.932665
140.833892,116.932624
140.707165,116.929213
140.702706,116.929013
140.577963,116.921156
140.573229,116.920766
140.451857,116.908439
140.446723,116.907810
140.329902,116.890998
140.324217,116.890044
140.213395,116.868797
140.206972,116.867388
140.102523,116.841555
140.096650,116.839949
140.004090,116.812170
139.999770,116.810786
139.904880,116.778480
139.900949,116.777068
139.853678,116.759176
139.805016,116.740757
139.801422,116.739331
139.739340,116.713567
139.705297,116.699439
139.701879,116.697960
139.606263,116.654869
139.603017,116.653349
139.508597,116.607440
139.505410,116.605833
139.412969,116.557543
139.409802,116.555830
139.319974,116.505533
139.316771,116.503676
139.230310,116.451814
139.227015,116.449767
139.195027,116.429192
139.144607,116.396761
139.141171,116.394469
139.063548,116.340777
139.059879,116.338139
138.987739,116.284222
138.983780,116.281135
138.917942,116.227575
138.913504,116.223788
138.854695,116.171158
138.849714,116.166445
138.826605,116.143340
138.798743,116.115482
138.793099,116.109449
138.749218,116.059292
138.745536,116.054881
138.715970,116.017747
138.714366,116.015689
138.687678,115.980663
138.685423,115.977604
138.662761,115.945849
138.659829,115.941551
138.640924,115.912543
138.637461,115.906906
138.621340,115.879024
138.618572,115.873970
138.612301,115.861858
138.610454,115.858138
138.604368,115.845352
138.602567,115.841391
138.597049,115.828666
138.595360,115.824572
138.590303,115.811666
138.588747,115.807475
138.587093,115.802759
138.584136,115.794331
138.582757,115.790161
138.578521,115.776548
138.577323,115.772448
138.573423,115.758187
138.572419,115.754261
138.569057,115.740137
138.567867,115.734569
138.565773,115.723535
138.561452,115.700766
138.560397,115.694259
138.560087,115.691965
138.555357,115.656933
138.554757,115.651618
138.554537,115.649207
138.550870,115.609005
138.550568,115.604939
138.547773,115.556392
138.547634,115.553323
138.547000,115.533944
138.545832,115.498266
138.545783,115.496227
138.544835,115.434109
138.544823,115.432701
138.544693,115.397895
138.544563,115.362822
138.544510,115.345420
138.544154,115.227397
138.542306,115.125795
138.541341,115.103798
138.540598,115.086855
138.538238,115.055467
138.535128,115.031298
138.531171,115.014040
138.528844,115.007907
138.526268,115.003386
138.526267,115.003385
138.526266,115.003383
138.523434,115.000441
138.523432,115.000439
138.520326,114.999029
138.520321,114.999028
138.516934,114.999114
138.516929,114.999115
138.513238,115.000661
138.504920,115.007971
138.495256,115.020668
138.495254,115.020671
138.484165,115.038426
138.457321,115.087873
138.457302,115.087907
138.427533,115.142699
138.425117,115.146944
138.395097,115.197358
138.392418,115.201656
138.361045,115.249758
138.358090,115.254086
138.325332,115.299953
138.322099,115.304277
138.287958,115.347929
138.284446,115.352219
138.248924,115.393676
138.245138,115.397895
138.208205,115.437210
138.204158,115.441322
138.165796,115.478527
138.161510,115.482492
138.121649,115.517665
138.117141,115.521456
138.075825,115.554560
138.071132,115.558141
138.028227,115.589285
138.023376,115.592632
137.978904,115.621791
137.973941,115.624881
137.927826,115.652099
137.922781,115.654920
137.874957,115.680219
137.869875,115.682760
137.820346,115.706123
137.815264,115.708383
137.763911,115.729847
137.758865,115.731827
137.705728,115.751355
137.700755,115.753064
137.645680,115.770692
137.640800,115.772144
137.583876,115.787819
137.579146,115.789021
137.537542,115.798725
137.520246,115.802759
137.515637,115.803741
137.454765,115.815518
137.450307,115.816297
137.387444,115.826095
137.383160,115.826686
137.318322,115.834487
137.314212,115.834912
137.247340,115.840705
137.243415,115.840983
137.174465,115.844757
137.170717,115.844905
137.099754,115.846639
137.096192,115.846675
137.023147,115.846361
137.019760,115.846300
136.944674,115.843925
136.941466,115.843782
136.864286,115.839338
136.861241,115.839125
136.781998,115.832602
136.779121,115.832331
136.697814,115.823726
136.695088,115.823407
136.611991,115.812748
136.608809,115.812298
136.498405,115.795218
136.494401,115.794531
136.388625,115.774599
136.384301,115.773705
136.282584,115.750760
136.277974,115.749626
136.179956,115.723535
136.175113,115.722140
136.080381,115.692753
136.075380,115.691085
135.983444,115.658220
135.978361,115.656276
135.975036,115.654920
135.888885,115.619788
135.883819,115.617589
135.860770,115.606968
135.796374,115.577293
135.791397,115.574864
135.705496,115.530525
135.700698,115.527913
135.616004,115.479358
135.611454,115.476619
135.527495,115.423584
135.523247,115.420777
135.439669,115.363050
135.435764,115.360239
135.352201,115.297597
135.348693,115.294867
135.264782,115.227081
135.261611,115.224431
135.256998,115.220443
135.177045,115.151316
135.174227,115.148803
135.088990,115.070445
135.085859,115.067465
134.960661,114.944048
134.956725,114.939986
134.844763,114.819064
134.840518,114.814235
134.741450,114.695437
134.736958,114.689717
134.650631,114.572901
134.645995,114.566175
134.595670,114.487754
134.571551,114.450169
134.568071,114.444407
134.544326,114.402571
134.536313,114.388453
134.534043,114.384266
134.504787,114.327754
134.502588,114.323288
134.476313,114.267095
134.474206,114.262330
134.450885,114.206449
134.448911,114.201413
134.428501,114.145799
134.426694,114.140512
134.424726,114.134298
134.409125,114.085031
134.407528,114.079551
134.392774,114.024173
134.391421,114.018565
134.379445,113.963219
134.378332,113.957398
134.369119,113.902096
134.368278,113.896164
134.363904,113.858821
134.361782,113.840708
134.361233,113.834771
134.357444,113.779147
134.357182,113.773152
134.357090,113.768470
134.356089,113.717268
134.356115,113.711334
134.356142,113.710401
134.357712,113.655079
134.358016,113.649242
134.360148,113.621082
134.362309,113.592528
134.362870,113.586867
134.364317,113.575044
134.368110,113.544034
134.369871,113.529641
134.370670,113.524133
134.371486,113.519283
134.380393,113.466318
134.381399,113.461044
134.386650,113.436413
134.393873,113.402533
134.395036,113.397587
134.410280,113.338343
134.411604,113.333597
134.429631,113.273607
134.431053,113.269186
134.451537,113.209417
134.453846,113.203227
134.505562,113.075240
134.506271,113.073526
134.554607,112.959429
134.604762,112.830993
134.708565,112.536859
134.720216,112.499999
137.129364,112.499999
137.129364,112.500000
138.026988,112.500000
137.994075,112.557007
137.960000,112.684174
137.960000,112.815826
137.994075,112.942993
138.026988,113.000000
137.129364,113.000000
137.186567,113.213486
137.186570,113.213492
137.286399,113.427578
137.421894,113.621082
137.588917,113.788105
137.782421,113.923600
137.996507,114.023429
137.996516,114.023433
138.210000,114.080634
138.210000,113.183012
138.267007,113.215925
138.394174,113.250000
138.525826,113.250000
138.652993,113.215925
138.710000,113.183012
138.710000,114.080633
138.923483,114.023433
138.923492,114.023429
139.137578,113.923600
139.331078,113.788108
139.453133,113.666053
139.514456,113.632568
139.584148,113.637552
139.640082,113.679423
139.656997,113.710401
139.706202,113.842328
139.706206,113.842335
139.792452,113.957544
139.792455,113.957547
139.907664,114.043793
139.907671,114.043797
140.042517,114.094091
140.042516,114.094091
140.049444,114.094835
140.102127,114.100500
141.897872,114.100499
141.957483,114.094091
142.092331,114.043796
142.207546,113.957546
142.293796,113.842331
142.344091,113.707483
142.350500,113.647873
142.350499,111.852128
142.344091,111.792517
142.343002,111.789598
142.293797,111.657671
142.293793,111.657664
142.207547,111.542455
142.207544,111.542452
142.092335,111.456206
142.092328,111.456202
141.957482,111.405908
141.957483,111.405908
141.897883,111.399501
141.897881,111.399500
141.897873,111.399500
141.897864,111.399500
140.102129,111.399500
140.102123,111.399501
140.042516,111.405908
139.907671,111.456202
139.907664,111.456206
139.792455,111.542452
139.792452,111.542455
139.706206,111.657664
139.706202,111.657671
139.656997,111.789598
139.615126,111.845532
139.549661,111.869949
139.481388,111.855097
139.453134,111.833946
139.331082,111.711894
139.137578,111.576399
138.923492,111.476570
138.923486,111.476567
138.710000,111.419364
138.710000,112.316988
138.652993,112.284075
138.525826,112.250000
138.394174,112.250000
138.267007,112.284075
138.210000,112.316988
138.210000,111.419364
138.209999,111.419364
137.996513,111.476567
137.996507,111.476570
137.782422,111.576399
137.782420,111.576400
137.588926,111.711886
137.588920,111.711891
137.421891,111.878920
137.421886,111.878926
137.286400,112.072420
137.286399,112.072422
137.186570,112.286507
137.186567,112.286513
137.129364,112.499999
134.720216,112.499999
134.815557,112.198365
134.923974,111.821906
135.032051,111.413871
135.138025,110.980654
135.240132,110.528647
135.336609,110.064240
135.553436,108.972834
134.878847,108.290940
134.204258,107.609048
134.204257,107.609047
133.614926,108.169872
133.612912,108.171746
133.285452,108.469804
133.281185,108.473513
132.945808,108.751913
132.941237,108.755530
132.596348,109.015452
132.591507,109.018922
132.236481,109.260655
132.231410,109.263929
131.865659,109.487721
131.860414,109.490757
131.483226,109.696927
131.477866,109.699689
131.088675,109.888454
131.083264,109.890921
130.681317,110.062584
130.675917,110.064741
130.260699,110.219482
130.255373,110.221331
129.826122,110.359428
129.820923,110.360976
129.377067,110.482627
129.372041,110.483892
128.912940,110.589311
128.908125,110.590316
128.433194,110.679706
128.428619,110.680479
127.937195,110.754057
127.932878,110.754626
127.424388,110.812589
127.420340,110.812983
126.894116,110.855544
126.890549,110.855781
126.452505,110.878524
126.449026,110.878656
125.992807,110.889511
125.989403,110.889545
125.494477,110.887734
125.491515,110.887688
124.937147,110.872409
124.934791,110.872322
124.300446,110.842764
124.298698,110.842670
123.564055,110.798037
123.562827,110.797956
122.707587,110.737468
122.706764,110.737407
121.710575,110.660289
121.710473,110.660250
121.710302,110.660268
119.544106,110.487731
119.543555,110.487685
119.396976,110.475352
119.395192,110.475189
119.336168,110.469363
119.334024,110.469133
119.283592,110.463268
119.280361,110.462849
119.238644,110.456883
119.233876,110.456106
119.200862,110.450064
119.193957,110.448596
119.169747,110.442724
119.159926,110.439909
119.149939,110.436594
119.092513,110.396799
119.065716,110.332272
119.065457,110.329611
119.065333,110.328180
119.064897,110.320056
119.064530,110.302426
119.064545,110.296596
119.064690,110.291148
119.065116,110.283675
119.065434,110.280048
119.066503,110.271384
119.066852,110.269193
119.068814,110.259424
119.069089,110.258292
119.072048,110.248056
119.072238,110.247491
119.076238,110.237151
119.076485,110.236589
119.081451,110.226542
119.082056,110.225448
119.087670,110.216252
119.089016,110.214250
119.094979,110.206118
119.097461,110.203007
119.103442,110.196054
119.107459,110.191722
119.113227,110.185901
119.119081,110.180371
119.124432,110.175600
119.132381,110.168920
119.137212,110.165062
119.147399,110.157341
119.151734,110.154202
119.164213,110.145566
119.167977,110.143064
119.182869,110.133556
119.186196,110.131505
119.190118,110.129172
119.203527,110.121195
119.206384,110.119548
119.210741,110.117111
119.226249,110.108442
119.228639,110.107142
119.251036,110.095286
119.253075,110.094230
119.278128,110.081583
119.279868,110.080724
119.307482,110.067353
119.309004,110.066629
119.339346,110.052457
119.340371,110.051985
119.373342,110.037061
119.374791,110.036417
119.449747,110.003787
119.451058,110.003228
119.537431,109.967103
119.538320,109.966736
119.637211,109.926560
119.637424,109.926474
119.749345,109.881926
119.874755,109.832698
120.242220,109.685101
120.581720,109.540498
120.890221,109.400431
121.164690,109.266443
121.402093,109.140078
121.599396,109.022878
121.682061,108.968198
121.753564,108.916387
121.813525,108.867640
121.861564,108.822148
121.879663,108.802534
121.898299,108.780970
121.917330,108.757675
121.936616,108.732867
121.956016,108.706763
121.975388,108.679583
121.994592,108.651544
122.013486,108.622865
122.031931,108.593764
122.049783,108.564459
122.066904,108.535168
122.083150,108.506109
122.098383,108.477501
122.112460,108.449562
122.125241,108.422510
122.136584,108.396563
122.239153,108.151019
122.239151,108.151019
122.239152,108.151018
121.826593,108.179998
121.825255,108.180085
121.592953,108.193881
121.591714,108.193948
121.262363,108.210202
121.261652,108.210235
120.879064,108.226914
120.878426,108.226940
120.486688,108.241999
120.113058,108.259852
119.757421,108.286439
119.418464,108.322171
119.095088,108.367450
118.786124,108.422676
118.490361,108.488266
118.206704,108.564610
117.933926,108.652130
117.670903,108.751218
117.416478,108.862278
117.169479,108.985718
116.928760,109.121932
116.693121,109.271349
116.461442,109.434346
116.461441,109.434347
116.232516,109.611362
116.005203,109.802787
115.973981,109.829687
115.972370,109.831051
115.943018,109.855481
115.941303,109.856883
115.912952,109.879635
115.911088,109.881102
115.884306,109.901765
115.882228,109.903334
115.873637,109.909679
115.808016,109.933673
115.739841,109.918380
115.690755,109.868657
115.676460,109.820964
115.675310,109.808082
115.675306,109.808037
115.639267,109.461135
115.631172,109.383214
115.567666,108.802534
115.485803,108.054000
115.363368,106.957553
118.185225,106.957553
141.423797,106.957553
141.423797,102.730912
118.185225,102.730912
118.185225,106.957553
115.363368,106.957553
115.279763,106.208848
115.279762,106.208846
114.614285,105.375354
114.613682,105.374593
114.349644,105.038534
114.348251,105.036727
114.108665,104.719957
114.106994,104.717695
113.890638,104.417739
113.888684,104.414950
113.694620,104.129705
113.692397,104.126319
113.519689,103.853726
113.517233,103.849682
113.364836,103.587532
113.362218,103.582793
113.229143,103.328991
113.226464,103.323563
113.111649,103.075893
113.109034,103.069836
113.011382,102.825972
113.008977,102.819436
112.927458,102.577142
112.925370,102.570290
112.867726,102.359364
112.858900,102.327070
112.857226,102.320170
112.850160,102.286929
112.804825,102.073652
112.803602,102.067005
112.764317,101.814712
112.763506,101.808452
112.736461,101.548125
112.736004,101.542481
112.725577,101.362426
112.720318,101.271613
112.720135,101.266788
112.714951,100.982296
112.714931,100.980152
112.714871,100.887006
112.714624,100.506351
112.734265,100.439302
112.787039,100.393513
112.856192,100.383525
112.910533,100.405254
112.915727,100.408952
112.917708,100.410394
112.970078,100.449326
112.972069,100.450837
113.047772,100.509520
113.049043,100.510519
113.257205,100.676587
113.258024,100.677248
113.515097,100.886759
113.515624,100.887191
113.793136,101.117175
114.015477,101.300586
114.226204,101.469198
114.426468,101.623628
114.617423,101.764493
114.800219,101.892409
114.976010,102.007993
114.976021,102.008000
115.145928,102.111852
115.145948,102.111864
115.311184,102.204637
115.422773,102.261431
115.472874,102.286931
115.632154,102.359356
115.632162,102.359359
115.790208,102.422542
115.948162,102.477096
115.948167,102.477097
115.948174,102.477100
116.107168,102.523635
116.107182,102.523639
116.162691,102.537116
116.268401,102.562783
116.432991,102.595151
116.572049,102.616701
116.602104,102.621359
116.685073,102.632630
116.950924,102.668746
119.314077,101.362464
122.242196,99.739041
122.807164,99.421899
122.762439,98.901478
122.731172,98.616384
122.686006,98.331497
122.626240,98.045351
122.551175,97.756482
122.460111,97.463424
122.352346,97.164714
122.227182,96.858884
122.083917,96.544471
121.921852,96.220009
121.740286,95.884033
121.538520,95.535078
121.315853,95.171679
121.071584,94.792370
121.071566,94.792343
120.805024,94.395702
120.516930,93.982301
120.515442,93.980166
120.493721,93.949948
120.202207,93.544392
120.163038,93.490021
119.604004,92.714009
119.603015,92.712617
119.140707,92.051763
119.139525,92.050042
118.970535,91.799599
118.969193,91.797567
118.929069,91.735429
118.909241,91.668434
118.928781,91.601353
118.981486,91.555484
119.050623,91.545391
119.086168,91.556030
119.147105,91.584795
119.148775,91.585600
119.239590,91.630312
119.239686,91.630359
119.239725,91.630378
119.436014,91.726075
119.436035,91.726084
119.436048,91.726091
119.660277,91.829442
119.922123,91.944462
119.922142,91.944470
119.922167,91.944481
120.127302,92.031222
120.231433,92.075254
120.598054,92.225916
121.031832,92.400549
122.139870,92.837980
122.140738,92.838328
122.744458,93.083732
122.866598,93.133381
122.869320,93.134525
123.192745,93.275057
123.194971,93.276051
123.494644,93.413328
123.497234,93.414550
123.774147,93.549223
123.777058,93.550687
124.032320,93.683442
124.035659,93.685246
124.270369,93.816742
124.274150,93.818949
124.489639,93.949957
124.493817,93.952614
124.691293,94.083827
124.695826,94.086987
124.844731,94.195855
124.876581,94.219141
124.881412,94.222859
125.046759,94.356699
125.051727,94.360943
125.203010,94.497257
125.208010,94.502021
125.346637,94.641679
125.351490,94.646856
125.478798,94.790707
125.483344,94.796149
125.600736,94.945174
125.604841,94.950696
125.714855,95.107593
125.716038,95.109310
125.734379,95.136426
125.737310,95.140573
125.753160,95.163001
125.771763,95.188174
125.790051,95.211802
125.807908,95.233769
125.825218,95.253961
125.841863,95.272263
125.841874,95.272274
125.857715,95.288548
125.872693,95.302731
125.872712,95.302748
125.886641,95.314667
125.886650,95.314675
125.899477,95.324265
125.911056,95.331389
125.921272,95.335932
125.925833,95.337199
125.930010,95.337779
125.930018,95.337778
125.930022,95.337779
125.933496,95.337664
125.933787,95.337655
125.935622,95.337197
125.937149,95.336816
125.937150,95.336815
125.937152,95.336815
125.940088,95.335243
125.942582,95.332925
125.947663,95.324853
125.953781,95.311622
125.960854,95.293528
125.968800,95.270870
125.986985,95.213054
126.007678,95.140558
126.030224,95.055768
126.053969,94.961067
126.078256,94.858842
126.102429,94.751477
126.189570,94.372548
126.190004,94.370731
126.294604,93.947933
126.294991,93.946414
126.328268,93.818957
126.414012,93.490541
126.414291,93.489495
126.544472,93.012300
126.544709,93.011447
126.682705,92.524982
126.682968,92.524074
126.825423,92.040385
126.825728,92.039371
126.969336,91.570332
126.969771,91.568943
126.989136,91.508360
127.111023,91.127025
127.111868,91.124479
127.422026,90.222521
127.423339,90.218892
127.451838,90.143749
127.747276,89.364768
127.748804,89.360937
128.086177,88.554836
128.087979,88.550744
128.438286,87.793282
128.440430,87.788881
128.803143,87.080708
128.805715,87.075950
129.180282,86.417721
129.183346,86.412626
129.569254,85.804891
129.572929,85.799432
129.969578,85.242841
129.973972,85.237043
130.380830,84.732104
130.386087,84.726000
130.802503,84.273322
130.808795,84.266961
131.234158,83.867043
131.241643,83.860551
131.675381,83.513806
131.684194,83.507378
132.125680,83.214223
132.135922,83.208109
132.584717,82.968800
132.596365,82.963345
133.052057,82.778145
133.064947,82.773716
133.529544,82.642227
133.538927,82.639964
133.676782,82.612363
133.681719,82.611479
133.826202,82.588611
133.830842,82.587966
133.979384,82.570243
133.983750,82.569803
134.135629,82.557241
134.139844,82.556966
134.294564,82.549550
134.298590,82.549424
134.455576,82.547138
Z" /> 
</g> 
</svg>
