<?xml version="1.0" standalone="no"?>
 <!DOCTYPE svg PUBLIC "-//W3C//DTD SVG 1.1//EN" 
 "http://www.w3.org/Graphics/SVG/1.1/DTD/svg11.dtd"> 
<svg
  xmlns:svg="http://www.w3.org/2000/svg"
  xmlns="http://www.w3.org/2000/svg"
  xmlns:xlink="http://www.w3.org/1999/xlink"
  version="1.1"
  width="6.5559727cm" height="3.6485572cm" viewBox="111.664469 81.49711 65.559727 36.485572">
<title>SVG Image created as Dino-Blinker-B_Mask.svg date 2024/12/11 00:19:46 </title>
  <desc>Image generated by PCBNEW </desc>
<g style="fill:#000000; fill-opacity:1.000000;stroke:#000000; stroke-opacity:1.000000;
stroke-linecap:round; stroke-linejoin:round;"
 transform="translate(0 0) scale(1 1)">
<path style="fill:#000000; fill-opacity:1.000000; stroke:none;fill-rule:evenodd;"
d="M 151.043332,107.349999
150.619999,107.349999
150.196666,107.349999
149.773333,107.349999
149.773333,106.926666
150.196666,106.926666
150.619999,106.926666
151.043332,106.926666
Z" /> 
<path style="fill:#000000; fill-opacity:1.000000; stroke:none;fill-rule:evenodd;"
d="M 153.583333,100.153333
154.006666,100.153333
154.006666,100.576666
153.583333,100.576666
153.159999,100.576666
153.159999,100.153333
153.159999,99.730000
153.583333,99.730000
Z" /> 
<path style="fill:#000000; fill-opacity:1.000000; stroke:none;fill-rule:evenodd;"
d="M 145.539999,104.809999
145.539999,105.233333
145.539999,105.656666
145.539999,106.080000
145.539999,106.503333
145.539999,106.926666
145.539999,107.349999
145.116666,107.349999
144.693333,107.349999
144.270000,107.349999
143.846666,107.349999
143.423333,107.349999
143.000000,107.349999
142.576666,107.349999
142.576666,106.926666
142.576666,106.503333
142.576666,106.080000
142.576666,105.656666
142.576666,105.233333
143.000000,105.233333
143.000000,105.656666
143.000000,106.080000
143.000000,106.503333
143.000000,106.926666
143.423333,106.926666
143.846666,106.926666
144.270000,106.926666
144.693333,106.926666
145.116666,106.926666
145.116666,106.503333
145.116666,106.080000
145.116666,105.656666
145.116666,105.233333
145.116666,104.809999
144.693333,104.809999
144.270000,104.809999
143.846666,104.809999
143.423333,104.809999
143.000000,104.809999
143.000000,105.233333
142.576666,105.233333
142.576666,104.809999
142.576666,104.386666
143.000000,104.386666
143.423333,104.386666
143.846666,104.386666
144.270000,104.386666
144.693333,104.386666
145.116666,104.386666
145.539999,104.386666
Z" /> 
<path style="fill:#000000; fill-opacity:1.000000; stroke:none;fill-rule:evenodd;"
d="M 154.853332,105.656666
154.429999,105.656666
154.429999,105.233333
154.853332,105.233333
Z" /> 
<path style="fill:#000000; fill-opacity:1.000000; stroke:none;fill-rule:evenodd;"
d="M 151.466666,95.496667
151.043332,95.496667
150.619999,95.496667
150.619999,95.073333
151.043332,95.073333
151.466666,95.073333
Z" /> 
<path style="fill:#000000; fill-opacity:1.000000; stroke:none;fill-rule:evenodd;"
d="M 146.386666,105.656666
146.386666,106.080000
146.810000,106.080000
146.810000,105.656666
147.233333,105.656666
147.233333,106.080000
147.233333,106.503333
147.233333,106.926666
146.810000,106.926666
146.810000,107.349999
146.386666,107.349999
145.963333,107.349999
145.963333,106.926666
146.386666,106.926666
146.810000,106.926666
146.810000,106.503333
146.386666,106.503333
146.386666,106.926666
145.963333,106.926666
145.963333,106.503333
145.963333,106.080000
145.963333,105.656666
145.963333,105.233333
146.386666,105.233333
Z" /> 
<path style="fill:#000000; fill-opacity:1.000000; stroke:none;fill-rule:evenodd;"
d="M 154.429999,98.883333
154.006666,98.883333
154.006666,98.460000
154.429999,98.460000
Z" /> 
<path style="fill:#000000; fill-opacity:1.000000; stroke:none;fill-rule:evenodd;"
d="M 144.270000,100.576666
143.846666,100.576666
143.846666,100.153333
144.270000,100.153333
Z" /> 
<path style="fill:#000000; fill-opacity:1.000000; stroke:none;fill-rule:evenodd;"
d="M 143.423333,99.730000
143.000000,99.730000
143.000000,100.153333
142.576666,100.153333
142.576666,99.730000
142.576666,99.306667
143.000000,99.306667
143.423333,99.306667
Z" /> 
<path style="fill:#000000; fill-opacity:1.000000; stroke:none;fill-rule:evenodd;"
d="M 145.539999,100.576666
145.963333,100.576666
146.386666,100.576666
146.386666,100.153333
146.810000,100.153333
147.233333,100.153333
147.233333,100.576666
146.810000,100.576666
146.810000,101.000000
146.386666,101.000000
146.386666,101.423333
146.810000,101.423333
146.810000,101.000000
147.233333,101.000000
147.656666,101.000000
148.079999,101.000000
148.079999,101.423333
147.656666,101.423333
147.656666,101.846666
147.656666,102.270000
147.233333,102.270000
147.233333,101.846666
146.810000,101.846666
146.386666,101.846666
146.386666,102.270000
145.963333,102.270000
145.539999,102.270000
145.116666,102.270000
145.116666,102.693333
145.539999,102.693333
145.539999,103.116666
145.116666,103.116666
144.693333,103.116666
144.270000,103.116666
144.270000,102.693333
144.693333,102.693333
144.693333,102.270000
144.693333,101.846666
144.693333,101.423333
145.116666,101.423333
145.116666,101.846666
145.539999,101.846666
145.963333,101.846666
145.963333,101.423333
145.963333,101.000000
145.539999,101.000000
145.539999,101.423333
145.116666,101.423333
144.693333,101.423333
144.270000,101.423333
144.270000,101.846666
143.846666,101.846666
143.423333,101.846666
143.000000,101.846666
143.000000,101.423333
143.000000,101.000000
143.423333,101.000000
143.423333,101.423333
143.846666,101.423333
144.270000,101.423333
144.270000,101.000000
144.693333,101.000000
145.116666,101.000000
145.539999,101.000000
145.539999,100.576666
145.116666,100.576666
145.116666,101.000000
144.693333,101.000000
144.693333,100.576666
144.693333,100.153333
145.116666,100.153333
145.539999,100.153333
Z" /> 
<path style="fill:#000000; fill-opacity:1.000000; stroke:none;fill-rule:evenodd;"
d="M 147.233333,102.693333
146.810000,102.693333
146.810000,103.116666
146.810000,103.539999
146.386666,103.539999
145.963333,103.539999
145.539999,103.539999
145.539999,103.116666
145.963333,103.116666
145.963333,102.693333
146.386666,102.693333
146.386666,102.270000
146.810000,102.270000
147.233333,102.270000
Z" /> 
<path style="fill:#000000; fill-opacity:1.000000; stroke:none;fill-rule:evenodd;"
d="M 148.079999,96.343333
148.079999,96.766667
147.656666,96.766667
147.656666,96.343333
147.656666,95.920000
148.079999,95.920000
Z" /> 
<path style="fill:#000000; fill-opacity:1.000000; stroke:none;fill-rule:evenodd;"
d="M 154.006666,96.343333
154.006666,96.766667
154.006666,97.190000
153.583333,97.190000
153.159999,97.190000
152.736666,97.190000
152.736666,96.766667
152.736666,96.343333
152.736666,95.920000
153.159999,95.920000
153.583333,95.920000
154.006666,95.920000
Z" /> 
<path style="fill:#000000; fill-opacity:1.000000; stroke:none;fill-rule:evenodd;"
d="M 150.196666,98.883333
149.773333,98.883333
149.773333,98.460000
150.196666,98.460000
Z" /> 
<path style="fill:#000000; fill-opacity:1.000000; stroke:none;fill-rule:evenodd;"
d="M 151.889999,98.883333
151.466666,98.883333
151.466666,98.460000
151.889999,98.460000
Z" /> 
<path style="fill:#000000; fill-opacity:1.000000; stroke:none;fill-rule:evenodd;"
d="M 154.429999,100.153333
154.006666,100.153333
154.006666,99.730000
154.429999,99.730000
Z" /> 
<path style="fill:#000000; fill-opacity:1.000000; stroke:none;fill-rule:evenodd;"
d="M 154.853332,101.000000
154.429999,101.000000
154.429999,100.576666
154.853332,100.576666
Z" /> 
<path style="fill:#000000; fill-opacity:1.000000; stroke:none;fill-rule:evenodd;"
d="M 147.233333,95.496667
147.233333,95.920000
146.810000,95.920000
146.810000,95.496667
146.810000,95.073333
147.233333,95.073333
Z" /> 
<path style="fill:#000000; fill-opacity:1.000000; stroke:none;fill-rule:evenodd;"
d="M 154.429999,101.846666
154.006666,101.846666
154.006666,101.423333
154.429999,101.423333
Z" /> 
<path style="fill:#000000; fill-opacity:1.000000; stroke:none;fill-rule:evenodd;"
d="M 148.079999,104.809999
147.656666,104.809999
147.656666,105.233333
147.656666,105.656666
147.233333,105.656666
147.233333,105.233333
147.233333,104.809999
147.233333,104.386666
147.656666,104.386666
148.079999,104.386666
Z" /> 
<path style="fill:#000000; fill-opacity:1.000000; stroke:none;fill-rule:evenodd;"
d="M 150.619999,95.920000
151.043332,95.920000
151.043332,96.343333
150.619999,96.343333
150.196666,96.343333
150.196666,95.920000
149.773333,95.920000
149.773333,95.496667
150.196666,95.496667
150.619999,95.496667
Z" /> 
<path style="fill:#000000; fill-opacity:1.000000; stroke:none;fill-rule:evenodd;"
d="M 154.853332,99.306667
154.429999,99.306667
154.429999,98.883333
154.853332,98.883333
Z" /> 
<path style="fill:#000000; fill-opacity:1.000000; stroke:none;fill-rule:evenodd;"
d="M 149.349999,96.343333
149.349999,96.766667
149.349999,97.190000
149.773333,97.190000
149.773333,96.766667
149.773333,96.343333
150.196666,96.343333
150.196666,96.766667
151.043332,96.766667
151.043332,96.343333
151.466666,96.343333
151.466666,96.766667
151.466666,97.190000
151.466666,97.613333
151.466666,98.036666
151.466666,98.460000
151.043332,98.460000
151.043332,98.036666
151.043332,97.613333
151.043332,97.190000
150.619999,97.190000
150.619999,97.613333
150.619999,98.036666
150.196666,98.036666
150.196666,97.613333
150.196666,97.190000
149.773333,97.190000
149.773333,97.613333
149.773333,98.036666
149.349999,98.036666
149.349999,97.613333
148.926666,97.613333
148.926666,97.190000
148.503333,97.190000
148.503333,97.613333
148.079999,97.613333
148.079999,98.036666
147.656666,98.036666
147.656666,97.613333
147.233333,97.613333
147.233333,97.190000
147.656666,97.190000
148.079999,97.190000
148.079999,96.766667
148.503333,96.766667
148.503333,96.343333
148.926666,96.343333
148.926666,95.920000
149.349999,95.920000
Z" /> 
<path style="fill:#000000; fill-opacity:1.000000; stroke:none;fill-rule:evenodd;"
d="M 151.466666,99.306667
151.466666,99.730000
151.466666,100.153333
151.043332,100.153333
150.619999,100.153333
150.196666,100.153333
150.196666,99.730000
150.619999,99.730000
151.043332,99.730000
151.043332,99.306667
150.619999,99.306667
150.619999,98.883333
151.043332,98.883333
151.466666,98.883333
Z" /> 
<path style="fill:#000000; fill-opacity:1.000000; stroke:none;fill-rule:evenodd;"
d="M 145.539999,95.496667
145.539999,95.920000
145.539999,96.343333
145.539999,96.766667
145.539999,97.190000
145.539999,97.613333
145.539999,98.036666
145.116666,98.036666
144.693333,98.036666
144.270000,98.036666
143.846666,98.036666
143.423333,98.036666
143.000000,98.036666
142.576666,98.036666
142.576666,97.613333
142.576666,97.190000
142.576666,96.766667
142.576666,96.343333
142.576666,95.920000
143.000000,95.920000
143.000000,96.343333
143.000000,96.766667
143.000000,97.190000
143.000000,97.613333
143.423333,97.613333
143.846666,97.613333
144.270000,97.613333
144.693333,97.613333
145.116666,97.613333
145.116666,97.190000
145.116666,96.766667
145.116666,96.343333
145.116666,95.920000
145.116666,95.496667
144.693333,95.496667
144.270000,95.496667
143.846666,95.496667
143.423333,95.496667
143.000000,95.496667
143.000000,95.920000
142.576666,95.920000
142.576666,95.496667
142.576666,95.073333
143.000000,95.073333
143.423333,95.073333
143.846666,95.073333
144.270000,95.073333
144.693333,95.073333
145.116666,95.073333
145.539999,95.073333
Z" /> 
<path style="fill:#000000; fill-opacity:1.000000; stroke:none;fill-rule:evenodd;"
d="M 143.846666,100.153333
143.423333,100.153333
143.423333,99.730000
143.846666,99.730000
Z" /> 
<path style="fill:#000000; fill-opacity:1.000000; stroke:none;fill-rule:evenodd;"
d="M 153.583333,98.883333
153.159999,98.883333
153.159999,98.460000
153.583333,98.460000
Z" /> 
<path style="fill:#000000; fill-opacity:1.000000; stroke:none;fill-rule:evenodd;"
d="M 147.233333,98.036666
147.656666,98.036666
147.656666,98.460000
147.656666,98.883333
147.233333,98.883333
147.233333,98.460000
146.810000,98.460000
146.810000,98.883333
146.386666,98.883333
146.386666,99.306667
146.386666,99.730000
146.386666,100.153333
145.963333,100.153333
145.539999,100.153333
145.539999,99.730000
145.116666,99.730000
145.116666,99.306667
145.539999,99.306667
145.963333,99.306667
145.963333,98.883333
145.539999,98.883333
145.116666,98.883333
145.116666,98.460000
145.539999,98.460000
145.963333,98.460000
146.386666,98.460000
146.386666,98.036666
146.810000,98.036666
146.810000,97.613333
147.233333,97.613333
Z" /> 
<path style="fill:#000000; fill-opacity:1.000000; stroke:none;fill-rule:evenodd;"
d="M 154.853332,102.693333
154.429999,102.693333
154.429999,102.270000
154.853332,102.270000
Z" /> 
<path style="fill:#000000; fill-opacity:1.000000; stroke:none;fill-rule:evenodd;"
d="M 147.233333,99.306667
147.233333,99.730000
146.810000,99.730000
146.810000,99.306667
146.810000,98.883333
147.233333,98.883333
Z" /> 
<path style="fill:#000000; fill-opacity:1.000000; stroke:none;fill-rule:evenodd;"
d="M 154.853332,95.496667
154.853332,95.920000
154.853332,96.343333
154.853332,96.766667
154.853332,97.190000
154.853332,97.613333
154.853332,98.036666
154.429999,98.036666
154.006666,98.036666
153.583333,98.036666
153.159999,98.036666
152.736666,98.036666
152.313332,98.036666
151.889999,98.036666
151.889999,97.613333
151.889999,97.190000
151.889999,96.766667
151.889999,96.343333
151.889999,95.920000
152.313332,95.920000
152.313332,96.343333
152.313332,96.766667
152.313332,97.190000
152.313332,97.613333
152.736666,97.613333
153.159999,97.613333
153.583333,97.613333
154.006666,97.613333
154.429999,97.613333
154.429999,97.190000
154.429999,96.766667
154.429999,96.343333
154.429999,95.920000
154.429999,95.496667
154.006666,95.496667
153.583333,95.496667
153.159999,95.496667
152.736666,95.496667
152.313332,95.496667
152.313332,95.920000
151.889999,95.920000
151.889999,95.496667
151.889999,95.073333
152.313332,95.073333
152.736666,95.073333
153.159999,95.073333
153.583333,95.073333
154.006666,95.073333
154.429999,95.073333
154.853332,95.073333
Z" /> 
<path style="fill:#000000; fill-opacity:1.000000; stroke:none;fill-rule:evenodd;"
d="M 144.693333,96.343333
144.693333,96.766667
144.693333,97.190000
144.270000,97.190000
143.846666,97.190000
143.423333,97.190000
143.423333,96.766667
143.423333,96.343333
143.423333,95.920000
143.846666,95.920000
144.270000,95.920000
144.693333,95.920000
Z" /> 
<path style="fill:#000000; fill-opacity:1.000000; stroke:none;fill-rule:evenodd;"
d="M 148.926666,105.233333
148.503333,105.233333
148.503333,104.809999
148.926666,104.809999
Z" /> 
<path style="fill:#000000; fill-opacity:1.000000; stroke:none;fill-rule:evenodd;"
d="M 143.000000,101.000000
142.576666,101.000000
142.576666,100.576666
143.000000,100.576666
Z" /> 
<path style="fill:#000000; fill-opacity:1.000000; stroke:none;fill-rule:evenodd;"
d="M 146.386666,95.920000
145.963333,95.920000
145.963333,95.496667
146.386666,95.496667
Z" /> 
<path style="fill:#000000; fill-opacity:1.000000; stroke:none;fill-rule:evenodd;"
d="M 149.349999,99.306667
149.773333,99.306667
149.773333,99.730000
149.773333,100.153333
149.773333,100.576666
150.196666,100.576666
150.619999,100.576666
150.619999,101.000000
150.196666,101.000000
149.773333,101.000000
149.773333,101.423333
149.773333,101.846666
150.196666,101.846666
150.196666,102.270000
150.619999,102.270000
150.619999,101.846666
150.619999,101.423333
151.043332,101.423333
151.889999,101.423333
152.736666,101.423333
152.736666,101.000000
152.313332,101.000000
151.889999,101.000000
151.889999,101.423333
151.043332,101.423333
151.043332,101.000000
151.043332,100.576666
151.466666,100.576666
151.889999,100.576666
152.313332,100.576666
152.736666,100.576666
153.159999,100.576666
153.159999,101.000000
153.583333,101.000000
154.006666,101.000000
154.006666,101.423333
153.583333,101.423333
153.159999,101.423333
153.159999,101.846666
152.736666,101.846666
152.736666,102.270000
153.159999,102.270000
153.159999,101.846666
153.583333,101.846666
154.006666,101.846666
154.006666,102.270000
154.006666,102.693333
154.006666,103.116666
153.583333,103.116666
153.583333,102.693333
153.583333,102.270000
153.159999,102.270000
153.159999,102.693333
153.159999,103.116666
152.736666,103.116666
152.313332,103.116666
152.313332,103.539999
152.736666,103.539999
153.159999,103.539999
153.159999,103.963333
153.583333,103.963333
153.583333,103.539999
154.006666,103.539999
154.006666,103.116666
154.429999,103.116666
154.429999,103.539999
154.853332,103.539999
154.853332,103.963333
154.853332,104.386666
154.429999,104.386666
154.006666,104.386666
154.006666,104.809999
153.583333,104.809999
153.159999,104.809999
153.159999,105.233333
153.159999,105.656666
153.583333,105.656666
153.583333,105.233333
154.006666,105.233333
154.006666,105.656666
154.006666,106.080000
154.429999,106.080000
154.429999,106.503333
154.429999,106.926666
154.006666,106.926666
154.006666,106.503333
153.583333,106.503333
153.583333,106.926666
153.159999,106.926666
153.159999,107.349999
152.736666,107.349999
152.313332,107.349999
151.889999,107.349999
151.889999,106.926666
152.313332,106.926666
152.736666,106.926666
153.159999,106.926666
153.159999,106.503333
152.736666,106.503333
152.736666,106.926666
152.313332,106.926666
152.313332,106.503333
151.889999,106.503333
151.889999,106.926666
151.466666,106.926666
151.043332,106.926666
151.043332,106.503333
150.619999,106.503333
150.619999,106.080000
151.466666,106.080000
151.889999,106.080000
152.313332,106.080000
152.736666,106.080000
153.159999,106.080000
153.159999,105.656666
152.736666,105.656666
152.313332,105.656666
151.889999,105.656666
151.466666,105.656666
151.466666,106.080000
150.619999,106.080000
150.619999,105.656666
151.043332,105.656666
151.043332,105.233333
150.619999,105.233333
150.196666,105.233333
150.196666,105.656666
149.773333,105.656666
149.349999,105.656666
148.926666,105.656666
148.926666,105.233333
149.349999,105.233333
149.349999,104.809999
149.349999,104.386666
149.773333,104.386666
149.773333,104.809999
149.773333,105.233333
150.196666,105.233333
150.196666,104.809999
150.196666,104.386666
150.619999,104.386666
151.043332,104.386666
151.466666,104.386666
151.466666,104.809999
151.466666,105.233333
151.889999,105.233333
152.313332,105.233333
152.736666,105.233333
152.736666,104.809999
152.736666,104.386666
152.736666,103.963333
152.313332,103.963333
151.889999,103.963333
151.466666,103.963333
151.466666,104.386666
151.043332,104.386666
151.043332,103.963333
150.619999,103.963333
150.619999,104.386666
150.196666,104.386666
149.773333,104.386666
149.773333,103.963333
149.773333,103.539999
150.196666,103.539999
150.196666,103.963333
150.619999,103.963333
150.619999,103.539999
151.043332,103.539999
151.043332,103.116666
151.466666,103.116666
151.889999,103.116666
151.889999,102.693333
151.466666,102.693333
151.466666,103.116666
151.043332,103.116666
151.043332,102.693333
151.466666,102.693333
151.466666,102.270000
151.889999,102.270000
152.313332,102.270000
152.313332,101.846666
151.889999,101.846666
151.889999,102.270000
151.466666,102.270000
151.466666,101.846666
151.043332,101.846666
151.043332,102.270000
151.043332,102.693333
150.619999,102.693333
150.619999,103.116666
150.196666,103.116666
150.196666,102.693333
149.773333,102.693333
149.773333,103.116666
149.349999,103.116666
148.926666,103.116666
148.503333,103.116666
148.503333,103.539999
148.079999,103.539999
148.079999,103.963333
147.656666,103.963333
147.656666,103.539999
147.656666,103.116666
148.079999,103.116666
148.079999,102.693333
147.656666,102.693333
147.656666,102.270000
148.079999,102.270000
148.503333,102.270000
148.503333,102.693333
149.349999,102.693333
149.349999,102.270000
149.349999,101.846666
149.349999,101.423333
148.926666,101.423333
148.926666,101.000000
149.349999,101.000000
149.349999,100.576666
149.349999,100.153333
148.926666,100.153333
148.926666,100.576666
148.503333,100.576666
148.503333,100.153333
148.079999,100.153333
148.079999,100.576666
147.656666,100.576666
147.656666,100.153333
147.656666,99.730000
148.079999,99.730000
148.503333,99.730000
148.926666,99.730000
148.926666,99.306667
148.503333,99.306667
148.503333,99.730000
148.079999,99.730000
148.079999,99.306667
147.656666,99.306667
147.656666,98.883333
148.079999,98.883333
148.503333,98.883333
148.926666,98.883333
149.349999,98.883333
Z" /> 
<path style="fill:#000000; fill-opacity:1.000000; stroke:none;fill-rule:evenodd;"
d="M 143.000000,102.693333
143.000000,103.116666
143.000000,103.539999
143.000000,103.963333
142.576666,103.963333
142.576666,103.539999
142.576666,103.116666
142.576666,102.693333
142.576666,102.270000
143.000000,102.270000
Z" /> 
<path style="fill:#000000; fill-opacity:1.000000; stroke:none;fill-rule:evenodd;"
d="M 144.270000,103.539999
144.693333,103.539999
145.116666,103.539999
145.539999,103.539999
145.539999,103.963333
145.116666,103.963333
144.693333,103.963333
144.270000,103.963333
143.846666,103.963333
143.423333,103.963333
143.423333,103.539999
143.846666,103.539999
143.846666,103.116666
144.270000,103.116666
Z" /> 
<path style="fill:#000000; fill-opacity:1.000000; stroke:none;fill-rule:evenodd;"
d="M 144.693333,98.883333
144.693333,99.306667
144.270000,99.306667
144.270000,98.883333
143.846666,98.883333
143.846666,99.306667
143.423333,99.306667
143.423333,98.883333
143.000000,98.883333
142.576666,98.883333
142.576666,98.460000
143.000000,98.460000
143.423333,98.460000
143.846666,98.460000
144.270000,98.460000
144.693333,98.460000
Z" /> 
<path style="fill:#000000; fill-opacity:1.000000; stroke:none;fill-rule:evenodd;"
d="M 146.810000,104.386666
146.810000,104.809999
146.810000,105.233333
146.386666,105.233333
146.386666,104.809999
145.963333,104.809999
145.963333,104.386666
145.963333,103.963333
146.386666,103.963333
146.810000,103.963333
Z" /> 
<path style="fill:#000000; fill-opacity:1.000000; stroke:none;fill-rule:evenodd;"
d="M 144.693333,105.656666
144.693333,106.080000
144.693333,106.503333
144.270000,106.503333
143.846666,106.503333
143.423333,106.503333
143.423333,106.080000
143.423333,105.656666
143.423333,105.233333
143.846666,105.233333
144.270000,105.233333
144.693333,105.233333
Z" /> 
<path style="fill:#000000; fill-opacity:1.000000; stroke:none;fill-rule:evenodd;"
d="M 152.313332,104.809999
151.889999,104.809999
151.889999,104.386666
152.313332,104.386666
Z" /> 
<path style="fill:#000000; fill-opacity:1.000000; stroke:none;fill-rule:evenodd;"
d="M 148.926666,98.036666
149.349999,98.036666
149.349999,98.460000
148.926666,98.460000
148.503333,98.460000
148.079999,98.460000
148.079999,98.036666
148.503333,98.036666
148.503333,97.613333
148.926666,97.613333
Z" /> 
<path style="fill:#000000; fill-opacity:1.000000; stroke:none;fill-rule:evenodd;"
d="M 148.926666,103.963333
148.503333,103.963333
148.503333,103.539999
148.926666,103.539999
Z" /> 
<path style="fill:#000000; fill-opacity:1.000000; stroke:none;fill-rule:evenodd;"
d="M 149.773333,95.496667
149.349999,95.496667
148.926666,95.496667
148.503333,95.496667
148.503333,95.920000
148.079999,95.920000
148.079999,95.496667
147.656666,95.496667
147.656666,95.073333
148.079999,95.073333
148.503333,95.073333
148.926666,95.073333
149.349999,95.073333
149.773333,95.073333
Z" /> 
<path style="fill:#000000; fill-opacity:1.000000; stroke:none;fill-rule:evenodd;"
d="M 154.006666,107.349999
153.583333,107.349999
153.583333,106.926666
154.006666,106.926666
Z" /> 
<path style="fill:#000000; fill-opacity:1.000000; stroke:none;fill-rule:evenodd;"
d="M 148.926666,106.080000
149.349999,106.080000
149.349999,106.503333
149.349999,106.926666
149.349999,107.349999
148.926666,107.349999
148.503333,107.349999
148.503333,106.926666
148.926666,106.926666
148.926666,106.503333
148.503333,106.503333
148.503333,106.926666
148.079999,106.926666
148.079999,107.349999
147.656666,107.349999
147.656666,106.926666
147.656666,106.503333
148.079999,106.503333
148.079999,106.080000
147.656666,106.080000
147.656666,105.656666
148.079999,105.656666
148.503333,105.656666
148.926666,105.656666
Z" /> 
<path style="fill:#000000; fill-opacity:1.000000; stroke:none;fill-rule:evenodd;"
d="M 152.736666,98.883333
153.159999,98.883333
153.159999,99.306667
153.159999,99.730000
152.736666,99.730000
152.736666,99.306667
152.313332,99.306667
151.889999,99.306667
151.889999,98.883333
152.313332,98.883333
152.313332,98.460000
152.736666,98.460000
Z" /> 
<path style="fill:#000000; fill-opacity:1.000000; stroke:none;fill-rule:evenodd;"
d="M 147.233333,96.766667
146.810000,96.766667
146.810000,97.190000
146.810000,97.613333
146.386666,97.613333
146.386666,98.036666
145.963333,98.036666
145.963333,97.613333
145.963333,97.190000
146.386666,97.190000
146.386666,96.766667
145.963333,96.766667
145.963333,96.343333
146.386666,96.343333
146.810000,96.343333
147.233333,96.343333
Z" /> 
<path style="fill:#000000; fill-opacity:1.000000; stroke:none;fill-rule:evenodd;"
d="M 140.150000,111.900000
141.850000,111.900000
141.850000,113.600000
140.150000,113.600000
Z" /> 
</g>
<g style="fill:#000000; fill-opacity:1.000000; stroke:none;">
<circle cx="138.460000" cy="112.750000" r="0.850000" /> 
</g> 
</svg>
