<?xml version="1.0" standalone="no"?>
 <!DOCTYPE svg PUBLIC "-//W3C//DTD SVG 1.1//EN" 
 "http://www.w3.org/Graphics/SVG/1.1/DTD/svg11.dtd"> 
<svg
  xmlns:svg="http://www.w3.org/2000/svg"
  xmlns="http://www.w3.org/2000/svg"
  xmlns:xlink="http://www.w3.org/1999/xlink"
  version="1.1"
  width="6.5559727cm" height="3.6485572cm" viewBox="111.664469 81.49711 65.559727 36.485572">
<title>SVG Image created as Dino-Blinker-F_Paste.svg date 2024/12/11 00:19:46 </title>
  <desc>Image generated by PCBNEW </desc>
<g style="fill:#000000; fill-opacity:1.000000;stroke:#000000; stroke-opacity:1.000000;
stroke-linecap:round; stroke-linejoin:round;"
 transform="translate(0 0) scale(1 1)">
<path style="fill:#000000; fill-opacity:1.000000; stroke:none;fill-rule:evenodd;"
d="M 125.105000,105.070000
125.009329,105.050970
124.928223,104.996777
124.874030,104.915671
124.855000,104.820000
124.855000,104.020000
124.874030,103.924329
124.928223,103.843223
125.009329,103.789030
125.105000,103.770000
126.355000,103.770000
126.450671,103.789030
126.531777,103.843223
126.585970,103.924329
126.605000,104.020000
126.605000,104.820000
126.585970,104.915671
126.531777,104.996777
126.450671,105.050970
126.355000,105.070000
Z" /> 
<path style="fill:#000000; fill-opacity:1.000000; stroke:none;fill-rule:evenodd;"
d="M 125.105000,101.970000
125.009329,101.950970
124.928223,101.896777
124.874030,101.815671
124.855000,101.720000
124.855000,100.920000
124.874030,100.824329
124.928223,100.743223
125.009329,100.689030
125.105000,100.670000
126.355000,100.670000
126.450671,100.689030
126.531777,100.743223
126.585970,100.824329
126.605000,100.920000
126.605000,101.720000
126.585970,101.815671
126.531777,101.896777
126.450671,101.950970
126.355000,101.970000
Z" /> 
<path style="fill:#000000; fill-opacity:1.000000; stroke:none;fill-rule:evenodd;"
d="M 130.750000,95.875000
130.730970,95.970671
130.676777,96.051777
130.595671,96.105970
130.500000,96.125000
129.700000,96.125000
129.604329,96.105970
129.523223,96.051777
129.469030,95.970671
129.450000,95.875000
129.450000,94.625000
129.469030,94.529329
129.523223,94.448223
129.604329,94.394030
129.700000,94.375000
130.500000,94.375000
130.595671,94.394030
130.676777,94.448223
130.730970,94.529329
130.750000,94.625000
Z" /> 
<path style="fill:#000000; fill-opacity:1.000000; stroke:none;fill-rule:evenodd;"
d="M 127.650000,95.875000
127.630970,95.970671
127.576777,96.051777
127.495671,96.105970
127.400000,96.125000
126.600000,96.125000
126.504329,96.105970
126.423223,96.051777
126.369030,95.970671
126.350000,95.875000
126.350000,94.625000
126.369030,94.529329
126.423223,94.448223
126.504329,94.394030
126.600000,94.375000
127.400000,94.375000
127.495671,94.394030
127.576777,94.448223
127.630970,94.529329
127.650000,94.625000
Z" /> 
<path style="fill:#000000; fill-opacity:1.000000; stroke:none;fill-rule:evenodd;"
d="M 136.535000,93.640000
136.439329,93.620970
136.358223,93.566777
136.304030,93.485671
136.285000,93.390000
136.285000,92.590000
136.304030,92.494329
136.358223,92.413223
136.439329,92.359030
136.535000,92.340000
137.785000,92.340000
137.880671,92.359030
137.961777,92.413223
138.015970,92.494329
138.035000,92.590000
138.035000,93.390000
138.015970,93.485671
137.961777,93.566777
137.880671,93.620970
137.785000,93.640000
Z" /> 
<path style="fill:#000000; fill-opacity:1.000000; stroke:none;fill-rule:evenodd;"
d="M 136.535000,90.540000
136.439329,90.520970
136.358223,90.466777
136.304030,90.385671
136.285000,90.290000
136.285000,89.490000
136.304030,89.394329
136.358223,89.313223
136.439329,89.259030
136.535000,89.240000
137.785000,89.240000
137.880671,89.259030
137.961777,89.313223
138.015970,89.394329
138.035000,89.490000
138.035000,90.290000
138.015970,90.385671
137.961777,90.466777
137.880671,90.520970
137.785000,90.540000
Z" /> 
<path style="fill:#000000; fill-opacity:1.000000; stroke:none;fill-rule:evenodd;"
d="M 127.795000,104.495000
127.699329,104.475970
127.618223,104.421777
127.564030,104.340671
127.545000,104.245000
127.545000,103.570000
127.564030,103.474329
127.618223,103.393223
127.699329,103.339030
127.795000,103.320000
128.745000,103.320000
128.840671,103.339030
128.921777,103.393223
128.975970,103.474329
128.995000,103.570000
128.995000,104.245000
128.975970,104.340671
128.921777,104.421777
128.840671,104.475970
128.745000,104.495000
Z" /> 
<path style="fill:#000000; fill-opacity:1.000000; stroke:none;fill-rule:evenodd;"
d="M 127.795000,102.420000
127.699329,102.400970
127.618223,102.346777
127.564030,102.265671
127.545000,102.170000
127.545000,101.495000
127.564030,101.399329
127.618223,101.318223
127.699329,101.264030
127.795000,101.245000
128.745000,101.245000
128.840671,101.264030
128.921777,101.318223
128.975970,101.399329
128.995000,101.495000
128.995000,102.170000
128.975970,102.265671
128.921777,102.346777
128.840671,102.400970
128.745000,102.420000
Z" /> 
<path style="fill:#000000; fill-opacity:1.000000; stroke:none;fill-rule:evenodd;"
d="M 124.283172,96.699568
124.202066,96.753762
124.106396,96.772792
124.010725,96.753762
123.929619,96.699568
123.470000,96.239949
123.415806,96.158843
123.396776,96.063172
123.415806,95.967502
123.470000,95.886396
124.106396,95.250000
124.187502,95.195806
124.283172,95.176776
124.378843,95.195806
124.459949,95.250000
124.919568,95.709619
124.973762,95.790725
124.992792,95.886396
124.973762,95.982066
124.919568,96.063172
Z" /> 
<path style="fill:#000000; fill-opacity:1.000000; stroke:none;fill-rule:evenodd;"
d="M 122.833604,95.250000
122.752498,95.304194
122.656828,95.323224
122.561157,95.304194
122.480051,95.250000
122.020432,94.790381
121.966238,94.709275
121.947208,94.613604
121.966238,94.517934
122.020432,94.436828
122.656828,93.800432
122.737934,93.746238
122.833604,93.727208
122.929275,93.746238
123.010381,93.800432
123.470000,94.260051
123.524194,94.341157
123.543224,94.436828
123.524194,94.532498
123.470000,94.613604
Z" /> 
<path style="fill:#000000; fill-opacity:1.000000; stroke:none;fill-rule:evenodd;"
d="M 146.500000,91.355000
146.595671,91.374030
146.676777,91.428223
146.730970,91.509329
146.750000,91.605000
146.750000,92.255000
146.730970,92.350671
146.676777,92.431777
146.595671,92.485970
146.500000,92.505000
145.600000,92.505000
145.504329,92.485970
145.423223,92.431777
145.369030,92.350671
145.350000,92.255000
145.350000,91.605000
145.369030,91.509329
145.423223,91.428223
145.504329,91.374030
145.600000,91.355000
Z" /> 
<path style="fill:#000000; fill-opacity:1.000000; stroke:none;fill-rule:evenodd;"
d="M 146.500000,93.405000
146.595671,93.424030
146.676777,93.478223
146.730970,93.559329
146.750000,93.655000
146.750000,94.305000
146.730970,94.400671
146.676777,94.481777
146.595671,94.535970
146.500000,94.555000
145.600000,94.555000
145.504329,94.535970
145.423223,94.481777
145.369030,94.400671
145.350000,94.305000
145.350000,93.655000
145.369030,93.559329
145.423223,93.478223
145.504329,93.424030
145.600000,93.405000
Z" /> 
<path style="fill:#000000; fill-opacity:1.000000; stroke:none;fill-rule:evenodd;"
d="M 131.750000,84.640000
131.769030,84.544329
131.823223,84.463223
131.904329,84.409030
132.000000,84.390000
132.650000,84.390000
132.745671,84.409030
132.826777,84.463223
132.880970,84.544329
132.900000,84.640000
132.900000,85.540000
132.880970,85.635671
132.826777,85.716777
132.745671,85.770970
132.650000,85.790000
132.000000,85.790000
131.904329,85.770970
131.823223,85.716777
131.769030,85.635671
131.750000,85.540000
Z" /> 
<path style="fill:#000000; fill-opacity:1.000000; stroke:none;fill-rule:evenodd;"
d="M 133.800000,84.640000
133.819030,84.544329
133.873223,84.463223
133.954329,84.409030
134.050000,84.390000
134.700000,84.390000
134.795671,84.409030
134.876777,84.463223
134.930970,84.544329
134.950000,84.640000
134.950000,85.540000
134.930970,85.635671
134.876777,85.716777
134.795671,85.770970
134.700000,85.790000
134.050000,85.790000
133.954329,85.770970
133.873223,85.716777
133.819030,85.635671
133.800000,85.540000
Z" /> 
<path style="fill:#000000; fill-opacity:1.000000; stroke:none;fill-rule:evenodd;"
d="M 133.995000,95.900000
133.899329,95.880970
133.818223,95.826777
133.764030,95.745671
133.745000,95.650000
133.745000,94.850000
133.764030,94.754329
133.818223,94.673223
133.899329,94.619030
133.995000,94.600000
135.245000,94.600000
135.340671,94.619030
135.421777,94.673223
135.475970,94.754329
135.495000,94.850000
135.495000,95.650000
135.475970,95.745671
135.421777,95.826777
135.340671,95.880970
135.245000,95.900000
Z" /> 
<path style="fill:#000000; fill-opacity:1.000000; stroke:none;fill-rule:evenodd;"
d="M 133.995000,92.800000
133.899329,92.780970
133.818223,92.726777
133.764030,92.645671
133.745000,92.550000
133.745000,91.750000
133.764030,91.654329
133.818223,91.573223
133.899329,91.519030
133.995000,91.500000
135.245000,91.500000
135.340671,91.519030
135.421777,91.573223
135.475970,91.654329
135.495000,91.750000
135.495000,92.550000
135.475970,92.645671
135.421777,92.726777
135.340671,92.780970
135.245000,92.800000
Z" /> 
<path style="fill:#000000; fill-opacity:1.000000; stroke:none;fill-rule:evenodd;"
d="M 151.580000,92.625000
151.675671,92.644030
151.756777,92.698223
151.810970,92.779329
151.830000,92.875000
151.830000,93.525000
151.810970,93.620671
151.756777,93.701777
151.675671,93.755970
151.580000,93.775000
150.680000,93.775000
150.584329,93.755970
150.503223,93.701777
150.449030,93.620671
150.430000,93.525000
150.430000,92.875000
150.449030,92.779329
150.503223,92.698223
150.584329,92.644030
150.680000,92.625000
Z" /> 
<path style="fill:#000000; fill-opacity:1.000000; stroke:none;fill-rule:evenodd;"
d="M 151.580000,94.675000
151.675671,94.694030
151.756777,94.748223
151.810970,94.829329
151.830000,94.925000
151.830000,95.575000
151.810970,95.670671
151.756777,95.751777
151.675671,95.805970
151.580000,95.825000
150.680000,95.825000
150.584329,95.805970
150.503223,95.751777
150.449030,95.670671
150.430000,95.575000
150.430000,94.925000
150.449030,94.829329
150.503223,94.748223
150.584329,94.694030
150.680000,94.675000
Z" /> 
<path style="fill:#000000; fill-opacity:1.000000; stroke:none;fill-rule:evenodd;"
d="M 153.025000,102.220000
153.120671,102.239030
153.201777,102.293223
153.255970,102.374329
153.275000,102.470000
153.275000,103.270000
153.255970,103.365671
153.201777,103.446777
153.120671,103.500970
153.025000,103.520000
151.775000,103.520000
151.679329,103.500970
151.598223,103.446777
151.544030,103.365671
151.525000,103.270000
151.525000,102.470000
151.544030,102.374329
151.598223,102.293223
151.679329,102.239030
151.775000,102.220000
Z" /> 
<path style="fill:#000000; fill-opacity:1.000000; stroke:none;fill-rule:evenodd;"
d="M 153.025000,105.320000
153.120671,105.339030
153.201777,105.393223
153.255970,105.474329
153.275000,105.570000
153.275000,106.370000
153.255970,106.465671
153.201777,106.546777
153.120671,106.600970
153.025000,106.620000
151.775000,106.620000
151.679329,106.600970
151.598223,106.546777
151.544030,106.465671
151.525000,106.370000
151.525000,105.570000
151.544030,105.474329
151.598223,105.393223
151.679329,105.339030
151.775000,105.320000
Z" /> 
<path style="fill:#000000; fill-opacity:1.000000; stroke:none;fill-rule:evenodd;"
d="M 145.425000,101.260000
145.329329,101.240970
145.248223,101.186777
145.194030,101.105671
145.175000,101.010000
145.175000,100.210000
145.194030,100.114329
145.248223,100.033223
145.329329,99.979030
145.425000,99.960000
146.675000,99.960000
146.770671,99.979030
146.851777,100.033223
146.905970,100.114329
146.925000,100.210000
146.925000,101.010000
146.905970,101.105671
146.851777,101.186777
146.770671,101.240970
146.675000,101.260000
Z" /> 
<path style="fill:#000000; fill-opacity:1.000000; stroke:none;fill-rule:evenodd;"
d="M 145.425000,98.160000
145.329329,98.140970
145.248223,98.086777
145.194030,98.005671
145.175000,97.910000
145.175000,97.110000
145.194030,97.014329
145.248223,96.933223
145.329329,96.879030
145.425000,96.860000
146.675000,96.860000
146.770671,96.879030
146.851777,96.933223
146.905970,97.014329
146.925000,97.110000
146.925000,97.910000
146.905970,98.005671
146.851777,98.086777
146.770671,98.140970
146.675000,98.160000
Z" /> 
<path style="fill:#000000; fill-opacity:1.000000; stroke:none;fill-rule:evenodd;"
d="M 157.930000,111.185000
158.025671,111.204030
158.106777,111.258223
158.160970,111.339329
158.180000,111.435000
158.180000,112.085000
158.160970,112.180671
158.106777,112.261777
158.025671,112.315970
157.930000,112.335000
157.030000,112.335000
156.934329,112.315970
156.853223,112.261777
156.799030,112.180671
156.780000,112.085000
156.780000,111.435000
156.799030,111.339329
156.853223,111.258223
156.934329,111.204030
157.030000,111.185000
Z" /> 
<path style="fill:#000000; fill-opacity:1.000000; stroke:none;fill-rule:evenodd;"
d="M 157.930000,113.235000
158.025671,113.254030
158.106777,113.308223
158.160970,113.389329
158.180000,113.485000
158.180000,114.135000
158.160970,114.230671
158.106777,114.311777
158.025671,114.365970
157.930000,114.385000
157.030000,114.385000
156.934329,114.365970
156.853223,114.311777
156.799030,114.230671
156.780000,114.135000
156.780000,113.485000
156.799030,113.389329
156.853223,113.308223
156.934329,113.254030
157.030000,113.235000
Z" /> 
<path style="fill:#000000; fill-opacity:1.000000; stroke:none;fill-rule:evenodd;"
d="M 127.107841,105.287863
127.126871,105.192192
127.181064,105.111086
127.262170,105.056893
127.357841,105.037863
128.157841,105.037863
128.253512,105.056893
128.334618,105.111086
128.388811,105.192192
128.407841,105.287863
128.407841,106.537863
128.388811,106.633534
128.334618,106.714640
128.253512,106.768833
128.157841,106.787863
127.357841,106.787863
127.262170,106.768833
127.181064,106.714640
127.126871,106.633534
127.107841,106.537863
Z" /> 
<path style="fill:#000000; fill-opacity:1.000000; stroke:none;fill-rule:evenodd;"
d="M 130.207841,105.287863
130.226871,105.192192
130.281064,105.111086
130.362170,105.056893
130.457841,105.037863
131.257841,105.037863
131.353512,105.056893
131.434618,105.111086
131.488811,105.192192
131.507841,105.287863
131.507841,106.537863
131.488811,106.633534
131.434618,106.714640
131.353512,106.768833
131.257841,106.787863
130.457841,106.787863
130.362170,106.768833
130.281064,106.714640
130.226871,106.633534
130.207841,106.537863
Z" /> 
<path style="fill:#000000; fill-opacity:1.000000; stroke:none;fill-rule:evenodd;"
d="M 155.450000,94.400000
155.545671,94.419030
155.626777,94.473223
155.680970,94.554329
155.700000,94.650000
155.700000,95.300000
155.680970,95.395671
155.626777,95.476777
155.545671,95.530970
155.450000,95.550000
154.550000,95.550000
154.454329,95.530970
154.373223,95.476777
154.319030,95.395671
154.300000,95.300000
154.300000,94.650000
154.319030,94.554329
154.373223,94.473223
154.454329,94.419030
154.550000,94.400000
Z" /> 
<path style="fill:#000000; fill-opacity:1.000000; stroke:none;fill-rule:evenodd;"
d="M 155.450000,96.450000
155.545671,96.469030
155.626777,96.523223
155.680970,96.604329
155.700000,96.700000
155.700000,97.350000
155.680970,97.445671
155.626777,97.526777
155.545671,97.580970
155.450000,97.600000
154.550000,97.600000
154.454329,97.580970
154.373223,97.526777
154.319030,97.445671
154.300000,97.350000
154.300000,96.700000
154.319030,96.604329
154.373223,96.523223
154.454329,96.469030
154.550000,96.450000
Z" /> 
<path style="fill:#000000; fill-opacity:1.000000; stroke:none;fill-rule:evenodd;"
d="M 149.215000,102.220000
149.310671,102.239030
149.391777,102.293223
149.445970,102.374329
149.465000,102.470000
149.465000,103.270000
149.445970,103.365671
149.391777,103.446777
149.310671,103.500970
149.215000,103.520000
147.965000,103.520000
147.869329,103.500970
147.788223,103.446777
147.734030,103.365671
147.715000,103.270000
147.715000,102.470000
147.734030,102.374329
147.788223,102.293223
147.869329,102.239030
147.965000,102.220000
Z" /> 
<path style="fill:#000000; fill-opacity:1.000000; stroke:none;fill-rule:evenodd;"
d="M 149.215000,105.320000
149.310671,105.339030
149.391777,105.393223
149.445970,105.474329
149.465000,105.570000
149.465000,106.370000
149.445970,106.465671
149.391777,106.546777
149.310671,106.600970
149.215000,106.620000
147.965000,106.620000
147.869329,106.600970
147.788223,106.546777
147.734030,106.465671
147.715000,106.370000
147.715000,105.570000
147.734030,105.474329
147.788223,105.393223
147.869329,105.339030
147.965000,105.320000
Z" /> 
<path style="fill:#000000; fill-opacity:1.000000; stroke:none;fill-rule:evenodd;"
d="M 152.850000,108.645000
152.945671,108.664030
153.026777,108.718223
153.080970,108.799329
153.100000,108.895000
153.100000,109.545000
153.080970,109.640671
153.026777,109.721777
152.945671,109.775970
152.850000,109.795000
151.950000,109.795000
151.854329,109.775970
151.773223,109.721777
151.719030,109.640671
151.700000,109.545000
151.700000,108.895000
151.719030,108.799329
151.773223,108.718223
151.854329,108.664030
151.950000,108.645000
Z" /> 
<path style="fill:#000000; fill-opacity:1.000000; stroke:none;fill-rule:evenodd;"
d="M 152.850000,110.695000
152.945671,110.714030
153.026777,110.768223
153.080970,110.849329
153.100000,110.945000
153.100000,111.595000
153.080970,111.690671
153.026777,111.771777
152.945671,111.825970
152.850000,111.845000
151.950000,111.845000
151.854329,111.825970
151.773223,111.771777
151.719030,111.690671
151.700000,111.595000
151.700000,110.945000
151.719030,110.849329
151.773223,110.768223
151.854329,110.714030
151.950000,110.695000
Z" /> 
<path style="fill:#000000; fill-opacity:1.000000; stroke:none;fill-rule:evenodd;"
d="M 141.092500,107.155000
141.073470,107.250671
141.019277,107.331777
140.938171,107.385970
140.842500,107.405000
140.167500,107.405000
140.071829,107.385970
139.990723,107.331777
139.936530,107.250671
139.917500,107.155000
139.917500,106.205000
139.936530,106.109329
139.990723,106.028223
140.071829,105.974030
140.167500,105.955000
140.842500,105.955000
140.938171,105.974030
141.019277,106.028223
141.073470,106.109329
141.092500,106.205000
Z" /> 
<path style="fill:#000000; fill-opacity:1.000000; stroke:none;fill-rule:evenodd;"
d="M 139.017500,107.155000
138.998470,107.250671
138.944277,107.331777
138.863171,107.385970
138.767500,107.405000
138.092500,107.405000
137.996829,107.385970
137.915723,107.331777
137.861530,107.250671
137.842500,107.155000
137.842500,106.205000
137.861530,106.109329
137.915723,106.028223
137.996829,105.974030
138.092500,105.955000
138.767500,105.955000
138.863171,105.974030
138.944277,106.028223
138.998470,106.109329
139.017500,106.205000
Z" /> 
<path style="fill:#000000; fill-opacity:1.000000; stroke:none;fill-rule:evenodd;"
d="M 158.100000,103.515000
158.119030,103.419329
158.173223,103.338223
158.254329,103.284030
158.350000,103.265000
159.150000,103.265000
159.245671,103.284030
159.326777,103.338223
159.380970,103.419329
159.400000,103.515000
159.400000,104.765000
159.380970,104.860671
159.326777,104.941777
159.245671,104.995970
159.150000,105.015000
158.350000,105.015000
158.254329,104.995970
158.173223,104.941777
158.119030,104.860671
158.100000,104.765000
Z" /> 
<path style="fill:#000000; fill-opacity:1.000000; stroke:none;fill-rule:evenodd;"
d="M 161.200000,103.515000
161.219030,103.419329
161.273223,103.338223
161.354329,103.284030
161.450000,103.265000
162.250000,103.265000
162.345671,103.284030
162.426777,103.338223
162.480970,103.419329
162.500000,103.515000
162.500000,104.765000
162.480970,104.860671
162.426777,104.941777
162.345671,104.995970
162.250000,105.015000
161.450000,105.015000
161.354329,104.995970
161.273223,104.941777
161.219030,104.860671
161.200000,104.765000
Z" /> 
<path style="fill:#000000; fill-opacity:1.000000; stroke:none;fill-rule:evenodd;"
d="M 150.505000,100.980000
150.409329,100.960970
150.328223,100.906777
150.274030,100.825671
150.255000,100.730000
150.255000,99.930000
150.274030,99.834329
150.328223,99.753223
150.409329,99.699030
150.505000,99.680000
151.755000,99.680000
151.850671,99.699030
151.931777,99.753223
151.985970,99.834329
152.005000,99.930000
152.005000,100.730000
151.985970,100.825671
151.931777,100.906777
151.850671,100.960970
151.755000,100.980000
Z" /> 
<path style="fill:#000000; fill-opacity:1.000000; stroke:none;fill-rule:evenodd;"
d="M 150.505000,97.880000
150.409329,97.860970
150.328223,97.806777
150.274030,97.725671
150.255000,97.630000
150.255000,96.830000
150.274030,96.734329
150.328223,96.653223
150.409329,96.599030
150.505000,96.580000
151.755000,96.580000
151.850671,96.599030
151.931777,96.653223
151.985970,96.734329
152.005000,96.830000
152.005000,97.630000
151.985970,97.725671
151.931777,97.806777
151.850671,97.860970
151.755000,97.880000
Z" /> 
<path style="fill:#000000; fill-opacity:1.000000; stroke:none;fill-rule:evenodd;"
d="M 128.965000,88.450000
128.984030,88.354329
129.038223,88.273223
129.119329,88.219030
129.215000,88.200000
129.865000,88.200000
129.960671,88.219030
130.041777,88.273223
130.095970,88.354329
130.115000,88.450000
130.115000,89.350000
130.095970,89.445671
130.041777,89.526777
129.960671,89.580970
129.865000,89.600000
129.215000,89.600000
129.119329,89.580970
129.038223,89.526777
128.984030,89.445671
128.965000,89.350000
Z" /> 
<path style="fill:#000000; fill-opacity:1.000000; stroke:none;fill-rule:evenodd;"
d="M 131.015000,88.450000
131.034030,88.354329
131.088223,88.273223
131.169329,88.219030
131.265000,88.200000
131.915000,88.200000
132.010671,88.219030
132.091777,88.273223
132.145970,88.354329
132.165000,88.450000
132.165000,89.350000
132.145970,89.445671
132.091777,89.526777
132.010671,89.580970
131.915000,89.600000
131.265000,89.600000
131.169329,89.580970
131.088223,89.526777
131.034030,89.445671
131.015000,89.350000
Z" /> 
<path style="fill:#000000; fill-opacity:1.000000; stroke:none;fill-rule:evenodd;"
d="M 143.025000,97.515000
143.082403,97.526418
143.131066,97.558934
143.163582,97.607597
143.175000,97.665000
143.175000,99.315000
143.163582,99.372403
143.131066,99.421066
143.082403,99.453582
143.025000,99.465000
142.725000,99.465000
142.667597,99.453582
142.618934,99.421066
142.586418,99.372403
142.575000,99.315000
142.575000,97.665000
142.586418,97.607597
142.618934,97.558934
142.667597,97.526418
142.725000,97.515000
Z" /> 
<path style="fill:#000000; fill-opacity:1.000000; stroke:none;fill-rule:evenodd;"
d="M 141.755000,97.515000
141.812403,97.526418
141.861066,97.558934
141.893582,97.607597
141.905000,97.665000
141.905000,99.315000
141.893582,99.372403
141.861066,99.421066
141.812403,99.453582
141.755000,99.465000
141.455000,99.465000
141.397597,99.453582
141.348934,99.421066
141.316418,99.372403
141.305000,99.315000
141.305000,97.665000
141.316418,97.607597
141.348934,97.558934
141.397597,97.526418
141.455000,97.515000
Z" /> 
<path style="fill:#000000; fill-opacity:1.000000; stroke:none;fill-rule:evenodd;"
d="M 140.485000,97.515000
140.542403,97.526418
140.591066,97.558934
140.623582,97.607597
140.635000,97.665000
140.635000,99.315000
140.623582,99.372403
140.591066,99.421066
140.542403,99.453582
140.485000,99.465000
140.185000,99.465000
140.127597,99.453582
140.078934,99.421066
140.046418,99.372403
140.035000,99.315000
140.035000,97.665000
140.046418,97.607597
140.078934,97.558934
140.127597,97.526418
140.185000,97.515000
Z" /> 
<path style="fill:#000000; fill-opacity:1.000000; stroke:none;fill-rule:evenodd;"
d="M 139.215000,97.515000
139.272403,97.526418
139.321066,97.558934
139.353582,97.607597
139.365000,97.665000
139.365000,99.315000
139.353582,99.372403
139.321066,99.421066
139.272403,99.453582
139.215000,99.465000
138.915000,99.465000
138.857597,99.453582
138.808934,99.421066
138.776418,99.372403
138.765000,99.315000
138.765000,97.665000
138.776418,97.607597
138.808934,97.558934
138.857597,97.526418
138.915000,97.515000
Z" /> 
<path style="fill:#000000; fill-opacity:1.000000; stroke:none;fill-rule:evenodd;"
d="M 137.945000,97.515000
138.002403,97.526418
138.051066,97.558934
138.083582,97.607597
138.095000,97.665000
138.095000,99.315000
138.083582,99.372403
138.051066,99.421066
138.002403,99.453582
137.945000,99.465000
137.645000,99.465000
137.587597,99.453582
137.538934,99.421066
137.506418,99.372403
137.495000,99.315000
137.495000,97.665000
137.506418,97.607597
137.538934,97.558934
137.587597,97.526418
137.645000,97.515000
Z" /> 
<path style="fill:#000000; fill-opacity:1.000000; stroke:none;fill-rule:evenodd;"
d="M 136.675000,97.515000
136.732403,97.526418
136.781066,97.558934
136.813582,97.607597
136.825000,97.665000
136.825000,99.315000
136.813582,99.372403
136.781066,99.421066
136.732403,99.453582
136.675000,99.465000
136.375000,99.465000
136.317597,99.453582
136.268934,99.421066
136.236418,99.372403
136.225000,99.315000
136.225000,97.665000
136.236418,97.607597
136.268934,97.558934
136.317597,97.526418
136.375000,97.515000
Z" /> 
<path style="fill:#000000; fill-opacity:1.000000; stroke:none;fill-rule:evenodd;"
d="M 135.405000,97.515000
135.462403,97.526418
135.511066,97.558934
135.543582,97.607597
135.555000,97.665000
135.555000,99.315000
135.543582,99.372403
135.511066,99.421066
135.462403,99.453582
135.405000,99.465000
135.105000,99.465000
135.047597,99.453582
134.998934,99.421066
134.966418,99.372403
134.955000,99.315000
134.955000,97.665000
134.966418,97.607597
134.998934,97.558934
135.047597,97.526418
135.105000,97.515000
Z" /> 
<path style="fill:#000000; fill-opacity:1.000000; stroke:none;fill-rule:evenodd;"
d="M 134.135000,97.515000
134.192403,97.526418
134.241066,97.558934
134.273582,97.607597
134.285000,97.665000
134.285000,99.315000
134.273582,99.372403
134.241066,99.421066
134.192403,99.453582
134.135000,99.465000
133.835000,99.465000
133.777597,99.453582
133.728934,99.421066
133.696418,99.372403
133.685000,99.315000
133.685000,97.665000
133.696418,97.607597
133.728934,97.558934
133.777597,97.526418
133.835000,97.515000
Z" /> 
<path style="fill:#000000; fill-opacity:1.000000; stroke:none;fill-rule:evenodd;"
d="M 134.135000,102.465000
134.192403,102.476418
134.241066,102.508934
134.273582,102.557597
134.285000,102.615000
134.285000,104.265000
134.273582,104.322403
134.241066,104.371066
134.192403,104.403582
134.135000,104.415000
133.835000,104.415000
133.777597,104.403582
133.728934,104.371066
133.696418,104.322403
133.685000,104.265000
133.685000,102.615000
133.696418,102.557597
133.728934,102.508934
133.777597,102.476418
133.835000,102.465000
Z" /> 
<path style="fill:#000000; fill-opacity:1.000000; stroke:none;fill-rule:evenodd;"
d="M 135.405000,102.465000
135.462403,102.476418
135.511066,102.508934
135.543582,102.557597
135.555000,102.615000
135.555000,104.265000
135.543582,104.322403
135.511066,104.371066
135.462403,104.403582
135.405000,104.415000
135.105000,104.415000
135.047597,104.403582
134.998934,104.371066
134.966418,104.322403
134.955000,104.265000
134.955000,102.615000
134.966418,102.557597
134.998934,102.508934
135.047597,102.476418
135.105000,102.465000
Z" /> 
<path style="fill:#000000; fill-opacity:1.000000; stroke:none;fill-rule:evenodd;"
d="M 136.675000,102.465000
136.732403,102.476418
136.781066,102.508934
136.813582,102.557597
136.825000,102.615000
136.825000,104.265000
136.813582,104.322403
136.781066,104.371066
136.732403,104.403582
136.675000,104.415000
136.375000,104.415000
136.317597,104.403582
136.268934,104.371066
136.236418,104.322403
136.225000,104.265000
136.225000,102.615000
136.236418,102.557597
136.268934,102.508934
136.317597,102.476418
136.375000,102.465000
Z" /> 
<path style="fill:#000000; fill-opacity:1.000000; stroke:none;fill-rule:evenodd;"
d="M 137.945000,102.465000
138.002403,102.476418
138.051066,102.508934
138.083582,102.557597
138.095000,102.615000
138.095000,104.265000
138.083582,104.322403
138.051066,104.371066
138.002403,104.403582
137.945000,104.415000
137.645000,104.415000
137.587597,104.403582
137.538934,104.371066
137.506418,104.322403
137.495000,104.265000
137.495000,102.615000
137.506418,102.557597
137.538934,102.508934
137.587597,102.476418
137.645000,102.465000
Z" /> 
<path style="fill:#000000; fill-opacity:1.000000; stroke:none;fill-rule:evenodd;"
d="M 139.215000,102.465000
139.272403,102.476418
139.321066,102.508934
139.353582,102.557597
139.365000,102.615000
139.365000,104.265000
139.353582,104.322403
139.321066,104.371066
139.272403,104.403582
139.215000,104.415000
138.915000,104.415000
138.857597,104.403582
138.808934,104.371066
138.776418,104.322403
138.765000,104.265000
138.765000,102.615000
138.776418,102.557597
138.808934,102.508934
138.857597,102.476418
138.915000,102.465000
Z" /> 
<path style="fill:#000000; fill-opacity:1.000000; stroke:none;fill-rule:evenodd;"
d="M 140.485000,102.465000
140.542403,102.476418
140.591066,102.508934
140.623582,102.557597
140.635000,102.615000
140.635000,104.265000
140.623582,104.322403
140.591066,104.371066
140.542403,104.403582
140.485000,104.415000
140.185000,104.415000
140.127597,104.403582
140.078934,104.371066
140.046418,104.322403
140.035000,104.265000
140.035000,102.615000
140.046418,102.557597
140.078934,102.508934
140.127597,102.476418
140.185000,102.465000
Z" /> 
<path style="fill:#000000; fill-opacity:1.000000; stroke:none;fill-rule:evenodd;"
d="M 141.755000,102.465000
141.812403,102.476418
141.861066,102.508934
141.893582,102.557597
141.905000,102.615000
141.905000,104.265000
141.893582,104.322403
141.861066,104.371066
141.812403,104.403582
141.755000,104.415000
141.455000,104.415000
141.397597,104.403582
141.348934,104.371066
141.316418,104.322403
141.305000,104.265000
141.305000,102.615000
141.316418,102.557597
141.348934,102.508934
141.397597,102.476418
141.455000,102.465000
Z" /> 
<path style="fill:#000000; fill-opacity:1.000000; stroke:none;fill-rule:evenodd;"
d="M 143.025000,102.465000
143.082403,102.476418
143.131066,102.508934
143.163582,102.557597
143.175000,102.615000
143.175000,104.265000
143.163582,104.322403
143.131066,104.371066
143.082403,104.403582
143.025000,104.415000
142.725000,104.415000
142.667597,104.403582
142.618934,104.371066
142.586418,104.322403
142.575000,104.265000
142.575000,102.615000
142.586418,102.557597
142.618934,102.508934
142.667597,102.476418
142.725000,102.465000
Z" /> 
<path style="fill:#000000; fill-opacity:1.000000; stroke:none;fill-rule:evenodd;"
d="M 123.130000,104.765000
123.110970,104.860671
123.056777,104.941777
122.975671,104.995970
122.880000,105.015000
122.080000,105.015000
121.984329,104.995970
121.903223,104.941777
121.849030,104.860671
121.830000,104.765000
121.830000,103.515000
121.849030,103.419329
121.903223,103.338223
121.984329,103.284030
122.080000,103.265000
122.880000,103.265000
122.975671,103.284030
123.056777,103.338223
123.110970,103.419329
123.130000,103.515000
Z" /> 
<path style="fill:#000000; fill-opacity:1.000000; stroke:none;fill-rule:evenodd;"
d="M 120.030000,104.765000
120.010970,104.860671
119.956777,104.941777
119.875671,104.995970
119.780000,105.015000
118.980000,105.015000
118.884329,104.995970
118.803223,104.941777
118.749030,104.860671
118.730000,104.765000
118.730000,103.515000
118.749030,103.419329
118.803223,103.338223
118.884329,103.284030
118.980000,103.265000
119.780000,103.265000
119.875671,103.284030
119.956777,103.338223
120.010970,103.419329
120.030000,103.515000
Z" /> 
<path style="fill:#000000; fill-opacity:1.000000; stroke:none;fill-rule:evenodd;"
d="M 155.585000,102.810000
155.489329,102.790970
155.408223,102.736777
155.354030,102.655671
155.335000,102.560000
155.335000,101.760000
155.354030,101.664329
155.408223,101.583223
155.489329,101.529030
155.585000,101.510000
156.835000,101.510000
156.930671,101.529030
157.011777,101.583223
157.065970,101.664329
157.085000,101.760000
157.085000,102.560000
157.065970,102.655671
157.011777,102.736777
156.930671,102.790970
156.835000,102.810000
Z" /> 
<path style="fill:#000000; fill-opacity:1.000000; stroke:none;fill-rule:evenodd;"
d="M 155.585000,99.710000
155.489329,99.690970
155.408223,99.636777
155.354030,99.555671
155.335000,99.460000
155.335000,98.660000
155.354030,98.564329
155.408223,98.483223
155.489329,98.429030
155.585000,98.410000
156.835000,98.410000
156.930671,98.429030
157.011777,98.483223
157.065970,98.564329
157.085000,98.660000
157.085000,99.460000
157.065970,99.555671
157.011777,99.636777
156.930671,99.690970
156.835000,99.710000
Z" /> 
<path style="fill:#000000; fill-opacity:1.000000; stroke:none;fill-rule:evenodd;"
d="M 167.551612,109.040432
167.632718,108.986238
167.728388,108.967208
167.824059,108.986238
167.905165,109.040432
168.364784,109.500051
168.418978,109.581157
168.438008,109.676828
168.418978,109.772498
168.364784,109.853604
167.728388,110.490000
167.647282,110.544194
167.551612,110.563224
167.455941,110.544194
167.374835,110.490000
166.915216,110.030381
166.861022,109.949275
166.841992,109.853604
166.861022,109.757934
166.915216,109.676828
Z" /> 
<path style="fill:#000000; fill-opacity:1.000000; stroke:none;fill-rule:evenodd;"
d="M 169.001180,110.490000
169.082286,110.435806
169.177956,110.416776
169.273627,110.435806
169.354733,110.490000
169.814352,110.949619
169.868546,111.030725
169.887576,111.126396
169.868546,111.222066
169.814352,111.303172
169.177956,111.939568
169.096850,111.993762
169.001180,112.012792
168.905509,111.993762
168.824403,111.939568
168.364784,111.479949
168.310590,111.398843
168.291560,111.303172
168.310590,111.207502
168.364784,111.126396
Z" /> 
<path style="fill:#000000; fill-opacity:1.000000; stroke:none;fill-rule:evenodd;"
d="M 118.195000,104.590000
118.175970,104.685671
118.121777,104.766777
118.040671,104.820970
117.945000,104.840000
117.295000,104.840000
117.199329,104.820970
117.118223,104.766777
117.064030,104.685671
117.045000,104.590000
117.045000,103.690000
117.064030,103.594329
117.118223,103.513223
117.199329,103.459030
117.295000,103.440000
117.945000,103.440000
118.040671,103.459030
118.121777,103.513223
118.175970,103.594329
118.195000,103.690000
Z" /> 
<path style="fill:#000000; fill-opacity:1.000000; stroke:none;fill-rule:evenodd;"
d="M 116.145000,104.590000
116.125970,104.685671
116.071777,104.766777
115.990671,104.820970
115.895000,104.840000
115.245000,104.840000
115.149329,104.820970
115.068223,104.766777
115.014030,104.685671
114.995000,104.590000
114.995000,103.690000
115.014030,103.594329
115.068223,103.513223
115.149329,103.459030
115.245000,103.440000
115.895000,103.440000
115.990671,103.459030
116.071777,103.513223
116.125970,103.594329
116.145000,103.690000
Z" /> 
</g> 
</svg>
