<?xml version="1.0" standalone="no"?>
 <!DOCTYPE svg PUBLIC "-//W3C//DTD SVG 1.1//EN" 
 "http://www.w3.org/Graphics/SVG/1.1/DTD/svg11.dtd"> 
<svg
  xmlns:svg="http://www.w3.org/2000/svg"
  xmlns="http://www.w3.org/2000/svg"
  xmlns:xlink="http://www.w3.org/1999/xlink"
  version="1.1"
  width="6.5559727cm" height="3.6485572cm" viewBox="111.664469 81.49711 65.559727 36.485572">
<title>SVG Image created as Dino-Blinker-F_SilkS.svg date 2024/12/11 00:19:46 </title>
  <desc>Image generated by PCBNEW </desc>
<g style="fill:#000000; fill-opacity:1.000000;stroke:#000000; stroke-opacity:1.000000;
stroke-linecap:round; stroke-linejoin:round;"
 transform="translate(0 0) scale(1 1)">
</g>
<g style="fill:none; 
stroke:#000000; stroke-width:0.150000; stroke-opacity:1; 
stroke-linecap:round; stroke-linejoin:round;">
<g transform="rotate(-90.000000 123.910000 102.870000)">
<text x="123.910000" y="103.370000"
textLength="3.154762" font-size="1.333333" lengthAdjust="spacingAndGlyphs"
text-anchor="middle" opacity="0" stroke-opacity="0">R12</text>
</g>
<g class="stroked-text"><desc>R12</desc>
<path d="M124.364819 103.512857
L123.888628 103.846190
" />
<path d="M124.364819 104.084285
L123.364819 104.084285
" />
<path d="M123.364819 104.084285
L123.364819 103.703333
" />
<path d="M123.364819 103.703333
L123.412438 103.608095
" />
<path d="M123.412438 103.608095
L123.460057 103.560476
" />
<path d="M123.460057 103.560476
L123.555295 103.512857
" />
<path d="M123.555295 103.512857
L123.698152 103.512857
" />
<path d="M123.698152 103.512857
L123.793390 103.560476
" />
<path d="M123.793390 103.560476
L123.841009 103.608095
" />
<path d="M123.841009 103.608095
L123.888628 103.703333
" />
<path d="M123.888628 103.703333
L123.888628 104.084285
" />
<path d="M124.364819 102.560476
L124.364819 103.131904
" />
<path d="M124.364819 102.846190
L123.364819 102.846190
" />
<path d="M123.364819 102.846190
L123.507676 102.941428
" />
<path d="M123.507676 102.941428
L123.602914 103.036666
" />
<path d="M123.602914 103.036666
L123.650533 103.131904
" />
<path d="M123.460057 102.179523
L123.412438 102.131904
" />
<path d="M123.412438 102.131904
L123.364819 102.036666
" />
<path d="M123.364819 102.036666
L123.364819 101.798571
" />
<path d="M123.364819 101.798571
L123.412438 101.703333
" />
<path d="M123.412438 101.703333
L123.460057 101.655714
" />
<path d="M123.460057 101.655714
L123.555295 101.608095
" />
<path d="M123.555295 101.608095
L123.650533 101.608095
" />
<path d="M123.650533 101.608095
L123.793390 101.655714
" />
<path d="M123.793390 101.655714
L124.364819 102.227142
" />
<path d="M124.364819 102.227142
L124.364819 101.608095
" />
</g><text x="128.550000" y="97.570000"
textLength="2.202381" font-size="1.333333" lengthAdjust="spacingAndGlyphs"
text-anchor="middle" opacity="0" stroke-opacity="0">R4</text>
<g class="stroked-text"><desc>R4</desc>
<path d="M128.383333 97.524819
L128.050000 97.048628
" />
<path d="M127.811905 97.524819
L127.811905 96.524819
" />
<path d="M127.811905 96.524819
L128.192857 96.524819
" />
<path d="M128.192857 96.524819
L128.288095 96.572438
" />
<path d="M128.288095 96.572438
L128.335714 96.620057
" />
<path d="M128.335714 96.620057
L128.383333 96.715295
" />
<path d="M128.383333 96.715295
L128.383333 96.858152
" />
<path d="M128.383333 96.858152
L128.335714 96.953390
" />
<path d="M128.335714 96.953390
L128.288095 97.001009
" />
<path d="M128.288095 97.001009
L128.192857 97.048628
" />
<path d="M128.192857 97.048628
L127.811905 97.048628
" />
<path d="M129.240476 96.858152
L129.240476 97.524819
" />
<path d="M129.002381 96.477200
L128.764286 97.191485
" />
<path d="M128.764286 97.191485
L129.383333 97.191485
" />
</g><g transform="rotate(-90.000000 135.340000 90.170000)">
<text x="135.340000" y="90.670000"
textLength="2.202381" font-size="1.333333" lengthAdjust="spacingAndGlyphs"
text-anchor="middle" opacity="0" stroke-opacity="0">R7</text>
</g>
<g class="stroked-text"><desc>R7</desc>
<path d="M135.794819 90.336666
L135.318628 90.669999
" />
<path d="M135.794819 90.908094
L134.794819 90.908094
" />
<path d="M134.794819 90.908094
L134.794819 90.527142
" />
<path d="M134.794819 90.527142
L134.842438 90.431904
" />
<path d="M134.842438 90.431904
L134.890057 90.384285
" />
<path d="M134.890057 90.384285
L134.985295 90.336666
" />
<path d="M134.985295 90.336666
L135.128152 90.336666
" />
<path d="M135.128152 90.336666
L135.223390 90.384285
" />
<path d="M135.223390 90.384285
L135.271009 90.431904
" />
<path d="M135.271009 90.431904
L135.318628 90.527142
" />
<path d="M135.318628 90.527142
L135.318628 90.908094
" />
<path d="M134.794819 90.003332
L134.794819 89.336666
" />
<path d="M134.794819 89.336666
L135.794819 89.765237
" />
</g><g transform="rotate(-90.000000 128.270000 100.330000)">
<text x="128.270000" y="100.830000"
textLength="2.202381" font-size="1.333333" lengthAdjust="spacingAndGlyphs"
text-anchor="middle" opacity="0" stroke-opacity="0">C1</text>
</g>
<g class="stroked-text"><desc>C1</desc>
<path d="M128.629580 100.496666
L128.677200 100.544285
" />
<path d="M128.677200 100.544285
L128.724819 100.687142
" />
<path d="M128.724819 100.687142
L128.724819 100.782380
" />
<path d="M128.724819 100.782380
L128.677200 100.925237
" />
<path d="M128.677200 100.925237
L128.581961 101.020475
" />
<path d="M128.581961 101.020475
L128.486723 101.068094
" />
<path d="M128.486723 101.068094
L128.296247 101.115713
" />
<path d="M128.296247 101.115713
L128.153390 101.115713
" />
<path d="M128.153390 101.115713
L127.962914 101.068094
" />
<path d="M127.962914 101.068094
L127.867676 101.020475
" />
<path d="M127.867676 101.020475
L127.772438 100.925237
" />
<path d="M127.772438 100.925237
L127.724819 100.782380
" />
<path d="M127.724819 100.782380
L127.724819 100.687142
" />
<path d="M127.724819 100.687142
L127.772438 100.544285
" />
<path d="M127.772438 100.544285
L127.820057 100.496666
" />
<path d="M128.724819 99.544285
L128.724819 100.115713
" />
<path d="M128.724819 99.829999
L127.724819 99.829999
" />
<path d="M127.724819 99.829999
L127.867676 99.925237
" />
<path d="M127.867676 99.925237
L127.962914 100.020475
" />
<path d="M127.962914 100.020475
L128.010533 100.115713
" />
</g><g transform="rotate(-45.000000 125.730000 97.790000)">
<text x="125.730000" y="98.290000"
textLength="2.202381" font-size="1.333333" lengthAdjust="spacingAndGlyphs"
text-anchor="middle" opacity="0" stroke-opacity="0">D4</text>
</g>
<g class="stroked-text"><desc>D4</desc>
<path d="M125.529693 98.633517
L124.822587 97.926410
" />
<path d="M124.822587 97.926410
L124.990945 97.758051
" />
<path d="M124.990945 97.758051
L125.125632 97.690708
" />
<path d="M125.125632 97.690708
L125.260319 97.690708
" />
<path d="M125.260319 97.690708
L125.361335 97.724380
" />
<path d="M125.361335 97.724380
L125.529693 97.825395
" />
<path d="M125.529693 97.825395
L125.630709 97.926410
" />
<path d="M125.630709 97.926410
L125.731724 98.094769
" />
<path d="M125.731724 98.094769
L125.765396 98.195784
" />
<path d="M125.765396 98.195784
L125.765396 98.330471
" />
<path d="M125.765396 98.330471
L125.698052 98.465158
" />
<path d="M125.698052 98.465158
L125.529693 98.633517
" />
<path d="M126.068441 97.151960
L126.539846 97.623364
" />
<path d="M125.630709 97.050945
L125.967426 97.724380
" />
<path d="M125.967426 97.724380
L126.405159 97.286647
" />
</g><g transform="rotate(-90.000000 147.700000 92.955000)">
<text x="147.700000" y="93.455000"
textLength="2.202381" font-size="1.333333" lengthAdjust="spacingAndGlyphs"
text-anchor="middle" opacity="0" stroke-opacity="0">D9</text>
</g>
<g class="stroked-text"><desc>D9</desc>
<path d="M148.154819 93.693094
L147.154819 93.693094
" />
<path d="M147.154819 93.693094
L147.154819 93.454999
" />
<path d="M147.154819 93.454999
L147.202438 93.312142
" />
<path d="M147.202438 93.312142
L147.297676 93.216904
" />
<path d="M147.297676 93.216904
L147.392914 93.169285
" />
<path d="M147.392914 93.169285
L147.583390 93.121666
" />
<path d="M147.583390 93.121666
L147.726247 93.121666
" />
<path d="M147.726247 93.121666
L147.916723 93.169285
" />
<path d="M147.916723 93.169285
L148.011961 93.216904
" />
<path d="M148.011961 93.216904
L148.107200 93.312142
" />
<path d="M148.107200 93.312142
L148.154819 93.454999
" />
<path d="M148.154819 93.454999
L148.154819 93.693094
" />
<path d="M148.154819 92.645475
L148.154819 92.454999
" />
<path d="M148.154819 92.454999
L148.107200 92.359761
" />
<path d="M148.107200 92.359761
L148.059580 92.312142
" />
<path d="M148.059580 92.312142
L147.916723 92.216904
" />
<path d="M147.916723 92.216904
L147.726247 92.169285
" />
<path d="M147.726247 92.169285
L147.345295 92.169285
" />
<path d="M147.345295 92.169285
L147.250057 92.216904
" />
<path d="M147.250057 92.216904
L147.202438 92.264523
" />
<path d="M147.202438 92.264523
L147.154819 92.359761
" />
<path d="M147.154819 92.359761
L147.154819 92.550237
" />
<path d="M147.154819 92.550237
L147.202438 92.645475
" />
<path d="M147.202438 92.645475
L147.250057 92.693094
" />
<path d="M147.250057 92.693094
L147.345295 92.740713
" />
<path d="M147.345295 92.740713
L147.583390 92.740713
" />
<path d="M147.583390 92.740713
L147.678628 92.693094
" />
<path d="M147.678628 92.693094
L147.726247 92.645475
" />
<path d="M147.726247 92.645475
L147.773866 92.550237
" />
<path d="M147.773866 92.550237
L147.773866 92.359761
" />
<path d="M147.773866 92.359761
L147.726247 92.264523
" />
<path d="M147.726247 92.264523
L147.678628 92.216904
" />
<path d="M147.678628 92.216904
L147.583390 92.169285
" />
</g><g transform="rotate(-90.000000 143.330000 112.750000)">
<text x="143.330000" y="113.250000"
textLength="1.964286" font-size="1.333333" lengthAdjust="spacingAndGlyphs"
text-anchor="middle" opacity="0" stroke-opacity="0">J1</text>
</g>
<g class="stroked-text"><desc>J1</desc>
<path d="M142.784819 113.083333
L143.499104 113.083333
" />
<path d="M143.499104 113.083333
L143.641961 113.130952
" />
<path d="M143.641961 113.130952
L143.737200 113.226190
" />
<path d="M143.737200 113.226190
L143.784819 113.369047
" />
<path d="M143.784819 113.369047
L143.784819 113.464285
" />
<path d="M143.784819 112.083333
L143.784819 112.654761
" />
<path d="M143.784819 112.369047
L142.784819 112.369047
" />
<path d="M142.784819 112.369047
L142.927676 112.464285
" />
<path d="M142.927676 112.464285
L143.022914 112.559523
" />
<path d="M143.022914 112.559523
L143.070533 112.654761
" />
</g><text x="134.000000" y="83.940000"
textLength="2.202381" font-size="1.333333" lengthAdjust="spacingAndGlyphs"
text-anchor="middle" opacity="0" stroke-opacity="0">D7</text>
<g class="stroked-text"><desc>D7</desc>
<path d="M133.261905 83.894819
L133.261905 82.894819
" />
<path d="M133.261905 82.894819
L133.500000 82.894819
" />
<path d="M133.500000 82.894819
L133.642857 82.942438
" />
<path d="M133.642857 82.942438
L133.738095 83.037676
" />
<path d="M133.738095 83.037676
L133.785714 83.132914
" />
<path d="M133.785714 83.132914
L133.833333 83.323390
" />
<path d="M133.833333 83.323390
L133.833333 83.466247
" />
<path d="M133.833333 83.466247
L133.785714 83.656723
" />
<path d="M133.785714 83.656723
L133.738095 83.751961
" />
<path d="M133.738095 83.751961
L133.642857 83.847200
" />
<path d="M133.642857 83.847200
L133.500000 83.894819
" />
<path d="M133.500000 83.894819
L133.261905 83.894819
" />
<path d="M134.166667 82.894819
L134.833333 82.894819
" />
<path d="M134.833333 82.894819
L134.404762 83.894819
" />
</g><g transform="rotate(-90.000000 132.800000 93.700000)">
<text x="132.800000" y="94.200000"
textLength="2.202381" font-size="1.333333" lengthAdjust="spacingAndGlyphs"
text-anchor="middle" opacity="0" stroke-opacity="0">R6</text>
</g>
<g class="stroked-text"><desc>R6</desc>
<path d="M133.254819 93.866666
L132.778628 94.199999
" />
<path d="M133.254819 94.438094
L132.254819 94.438094
" />
<path d="M132.254819 94.438094
L132.254819 94.057142
" />
<path d="M132.254819 94.057142
L132.302438 93.961904
" />
<path d="M132.302438 93.961904
L132.350057 93.914285
" />
<path d="M132.350057 93.914285
L132.445295 93.866666
" />
<path d="M132.445295 93.866666
L132.588152 93.866666
" />
<path d="M132.588152 93.866666
L132.683390 93.914285
" />
<path d="M132.683390 93.914285
L132.731009 93.961904
" />
<path d="M132.731009 93.961904
L132.778628 94.057142
" />
<path d="M132.778628 94.057142
L132.778628 94.438094
" />
<path d="M132.254819 93.009523
L132.254819 93.199999
" />
<path d="M132.254819 93.199999
L132.302438 93.295237
" />
<path d="M132.302438 93.295237
L132.350057 93.342856
" />
<path d="M132.350057 93.342856
L132.492914 93.438094
" />
<path d="M132.492914 93.438094
L132.683390 93.485713
" />
<path d="M132.683390 93.485713
L133.064342 93.485713
" />
<path d="M133.064342 93.485713
L133.159580 93.438094
" />
<path d="M133.159580 93.438094
L133.207200 93.390475
" />
<path d="M133.207200 93.390475
L133.254819 93.295237
" />
<path d="M133.254819 93.295237
L133.254819 93.104761
" />
<path d="M133.254819 93.104761
L133.207200 93.009523
" />
<path d="M133.207200 93.009523
L133.159580 92.961904
" />
<path d="M133.159580 92.961904
L133.064342 92.914285
" />
<path d="M133.064342 92.914285
L132.826247 92.914285
" />
<path d="M132.826247 92.914285
L132.731009 92.961904
" />
<path d="M132.731009 92.961904
L132.683390 93.009523
" />
<path d="M132.683390 93.009523
L132.635771 93.104761
" />
<path d="M132.635771 93.104761
L132.635771 93.295237
" />
<path d="M132.635771 93.295237
L132.683390 93.390475
" />
<path d="M132.683390 93.390475
L132.731009 93.438094
" />
<path d="M132.731009 93.438094
L132.826247 93.485713
" />
</g><g transform="rotate(-90.000000 152.780000 94.225000)">
<text x="152.780000" y="94.725000"
textLength="3.154762" font-size="1.333333" lengthAdjust="spacingAndGlyphs"
text-anchor="middle" opacity="0" stroke-opacity="0">D10</text>
</g>
<g class="stroked-text"><desc>D10</desc>
<path d="M153.234819 95.439285
L152.234819 95.439285
" />
<path d="M152.234819 95.439285
L152.234819 95.201190
" />
<path d="M152.234819 95.201190
L152.282438 95.058333
" />
<path d="M152.282438 95.058333
L152.377676 94.963095
" />
<path d="M152.377676 94.963095
L152.472914 94.915476
" />
<path d="M152.472914 94.915476
L152.663390 94.867857
" />
<path d="M152.663390 94.867857
L152.806247 94.867857
" />
<path d="M152.806247 94.867857
L152.996723 94.915476
" />
<path d="M152.996723 94.915476
L153.091961 94.963095
" />
<path d="M153.091961 94.963095
L153.187200 95.058333
" />
<path d="M153.187200 95.058333
L153.234819 95.201190
" />
<path d="M153.234819 95.201190
L153.234819 95.439285
" />
<path d="M153.234819 93.915476
L153.234819 94.486904
" />
<path d="M153.234819 94.201190
L152.234819 94.201190
" />
<path d="M152.234819 94.201190
L152.377676 94.296428
" />
<path d="M152.377676 94.296428
L152.472914 94.391666
" />
<path d="M152.472914 94.391666
L152.520533 94.486904
" />
<path d="M152.234819 93.296428
L152.234819 93.201190
" />
<path d="M152.234819 93.201190
L152.282438 93.105952
" />
<path d="M152.282438 93.105952
L152.330057 93.058333
" />
<path d="M152.330057 93.058333
L152.425295 93.010714
" />
<path d="M152.425295 93.010714
L152.615771 92.963095
" />
<path d="M152.615771 92.963095
L152.853866 92.963095
" />
<path d="M152.853866 92.963095
L153.044342 93.010714
" />
<path d="M153.044342 93.010714
L153.139580 93.058333
" />
<path d="M153.139580 93.058333
L153.187200 93.105952
" />
<path d="M153.187200 93.105952
L153.234819 93.201190
" />
<path d="M153.234819 93.201190
L153.234819 93.296428
" />
<path d="M153.234819 93.296428
L153.187200 93.391666
" />
<path d="M153.187200 93.391666
L153.139580 93.439285
" />
<path d="M153.139580 93.439285
L153.044342 93.486904
" />
<path d="M153.044342 93.486904
L152.853866 93.534523
" />
<path d="M152.853866 93.534523
L152.615771 93.534523
" />
<path d="M152.615771 93.534523
L152.425295 93.486904
" />
<path d="M152.425295 93.486904
L152.330057 93.439285
" />
<path d="M152.330057 93.439285
L152.282438 93.391666
" />
<path d="M152.282438 93.391666
L152.234819 93.296428
" />
</g><g transform="rotate(-90.000000 154.220000 104.420000)">
<text x="154.220000" y="104.920000"
textLength="2.202381" font-size="1.333333" lengthAdjust="spacingAndGlyphs"
text-anchor="middle" opacity="0" stroke-opacity="0">R1</text>
</g>
<g class="stroked-text"><desc>R1</desc>
<path d="M154.674819 104.586666
L154.198628 104.919999
" />
<path d="M154.674819 105.158094
L153.674819 105.158094
" />
<path d="M153.674819 105.158094
L153.674819 104.777142
" />
<path d="M153.674819 104.777142
L153.722438 104.681904
" />
<path d="M153.722438 104.681904
L153.770057 104.634285
" />
<path d="M153.770057 104.634285
L153.865295 104.586666
" />
<path d="M153.865295 104.586666
L154.008152 104.586666
" />
<path d="M154.008152 104.586666
L154.103390 104.634285
" />
<path d="M154.103390 104.634285
L154.151009 104.681904
" />
<path d="M154.151009 104.681904
L154.198628 104.777142
" />
<path d="M154.198628 104.777142
L154.198628 105.158094
" />
<path d="M154.674819 103.634285
L154.674819 104.205713
" />
<path d="M154.674819 103.919999
L153.674819 103.919999
" />
<path d="M153.674819 103.919999
L153.817676 104.015237
" />
<path d="M153.817676 104.015237
L153.912914 104.110475
" />
<path d="M153.912914 104.110475
L153.960533 104.205713
" />
</g><g transform="rotate(-90.000000 144.230000 96.520000)">
<text x="144.230000" y="97.020000"
textLength="2.202381" font-size="1.333333" lengthAdjust="spacingAndGlyphs"
text-anchor="middle" opacity="0" stroke-opacity="0">R9</text>
</g>
<g class="stroked-text"><desc>R9</desc>
<path d="M144.684819 96.686666
L144.208628 97.019999
" />
<path d="M144.684819 97.258094
L143.684819 97.258094
" />
<path d="M143.684819 97.258094
L143.684819 96.877142
" />
<path d="M143.684819 96.877142
L143.732438 96.781904
" />
<path d="M143.732438 96.781904
L143.780057 96.734285
" />
<path d="M143.780057 96.734285
L143.875295 96.686666
" />
<path d="M143.875295 96.686666
L144.018152 96.686666
" />
<path d="M144.018152 96.686666
L144.113390 96.734285
" />
<path d="M144.113390 96.734285
L144.161009 96.781904
" />
<path d="M144.161009 96.781904
L144.208628 96.877142
" />
<path d="M144.208628 96.877142
L144.208628 97.258094
" />
<path d="M144.684819 96.210475
L144.684819 96.019999
" />
<path d="M144.684819 96.019999
L144.637200 95.924761
" />
<path d="M144.637200 95.924761
L144.589580 95.877142
" />
<path d="M144.589580 95.877142
L144.446723 95.781904
" />
<path d="M144.446723 95.781904
L144.256247 95.734285
" />
<path d="M144.256247 95.734285
L143.875295 95.734285
" />
<path d="M143.875295 95.734285
L143.780057 95.781904
" />
<path d="M143.780057 95.781904
L143.732438 95.829523
" />
<path d="M143.732438 95.829523
L143.684819 95.924761
" />
<path d="M143.684819 95.924761
L143.684819 96.115237
" />
<path d="M143.684819 96.115237
L143.732438 96.210475
" />
<path d="M143.732438 96.210475
L143.780057 96.258094
" />
<path d="M143.780057 96.258094
L143.875295 96.305713
" />
<path d="M143.875295 96.305713
L144.113390 96.305713
" />
<path d="M144.113390 96.305713
L144.208628 96.258094
" />
<path d="M144.208628 96.258094
L144.256247 96.210475
" />
<path d="M144.256247 96.210475
L144.303866 96.115237
" />
<path d="M144.303866 96.115237
L144.303866 95.924761
" />
<path d="M144.303866 95.924761
L144.256247 95.829523
" />
<path d="M144.256247 95.829523
L144.208628 95.781904
" />
<path d="M144.208628 95.781904
L144.113390 95.734285
" />
</g><g transform="rotate(-90.000000 159.130000 112.785000)">
<text x="159.130000" y="113.285000"
textLength="2.202381" font-size="1.333333" lengthAdjust="spacingAndGlyphs"
text-anchor="middle" opacity="0" stroke-opacity="0">D1</text>
</g>
<g class="stroked-text"><desc>D1</desc>
<path d="M159.584819 113.523094
L158.584819 113.523094
" />
<path d="M158.584819 113.523094
L158.584819 113.284999
" />
<path d="M158.584819 113.284999
L158.632438 113.142142
" />
<path d="M158.632438 113.142142
L158.727676 113.046904
" />
<path d="M158.727676 113.046904
L158.822914 112.999285
" />
<path d="M158.822914 112.999285
L159.013390 112.951666
" />
<path d="M159.013390 112.951666
L159.156247 112.951666
" />
<path d="M159.156247 112.951666
L159.346723 112.999285
" />
<path d="M159.346723 112.999285
L159.441961 113.046904
" />
<path d="M159.441961 113.046904
L159.537200 113.142142
" />
<path d="M159.537200 113.142142
L159.584819 113.284999
" />
<path d="M159.584819 113.284999
L159.584819 113.523094
" />
<path d="M159.584819 111.999285
L159.584819 112.570713
" />
<path d="M159.584819 112.284999
L158.584819 112.284999
" />
<path d="M158.584819 112.284999
L158.727676 112.380237
" />
<path d="M158.727676 112.380237
L158.822914 112.475475
" />
<path d="M158.822914 112.475475
L158.870533 112.570713
" />
</g><text x="130.810000" y="104.592863"
textLength="3.154762" font-size="1.333333" lengthAdjust="spacingAndGlyphs"
text-anchor="middle" opacity="0" stroke-opacity="0">R11</text>
<g class="stroked-text"><desc>R11</desc>
<path d="M130.167142 104.547682
L129.833809 104.071491
" />
<path d="M129.595714 104.547682
L129.595714 103.547682
" />
<path d="M129.595714 103.547682
L129.976666 103.547682
" />
<path d="M129.976666 103.547682
L130.071904 103.595301
" />
<path d="M130.071904 103.595301
L130.119523 103.642920
" />
<path d="M130.119523 103.642920
L130.167142 103.738158
" />
<path d="M130.167142 103.738158
L130.167142 103.881015
" />
<path d="M130.167142 103.881015
L130.119523 103.976253
" />
<path d="M130.119523 103.976253
L130.071904 104.023872
" />
<path d="M130.071904 104.023872
L129.976666 104.071491
" />
<path d="M129.976666 104.071491
L129.595714 104.071491
" />
<path d="M131.119523 104.547682
L130.548095 104.547682
" />
<path d="M130.833809 104.547682
L130.833809 103.547682
" />
<path d="M130.833809 103.547682
L130.738571 103.690539
" />
<path d="M130.738571 103.690539
L130.643333 103.785777
" />
<path d="M130.643333 103.785777
L130.548095 103.833396
" />
<path d="M132.071904 104.547682
L131.500476 104.547682
" />
<path d="M131.786190 104.547682
L131.786190 103.547682
" />
<path d="M131.786190 103.547682
L131.690952 103.690539
" />
<path d="M131.690952 103.690539
L131.595714 103.785777
" />
<path d="M131.595714 103.785777
L131.500476 103.833396
" />
</g><g transform="rotate(-90.000000 156.790000 96.725000)">
<text x="156.790000" y="97.225000"
textLength="2.202381" font-size="1.333333" lengthAdjust="spacingAndGlyphs"
text-anchor="middle" opacity="0" stroke-opacity="0">D8</text>
</g>
<g class="stroked-text"><desc>D8</desc>
<path d="M157.244819 97.463094
L156.244819 97.463094
" />
<path d="M156.244819 97.463094
L156.244819 97.224999
" />
<path d="M156.244819 97.224999
L156.292438 97.082142
" />
<path d="M156.292438 97.082142
L156.387676 96.986904
" />
<path d="M156.387676 96.986904
L156.482914 96.939285
" />
<path d="M156.482914 96.939285
L156.673390 96.891666
" />
<path d="M156.673390 96.891666
L156.816247 96.891666
" />
<path d="M156.816247 96.891666
L157.006723 96.939285
" />
<path d="M157.006723 96.939285
L157.101961 96.986904
" />
<path d="M157.101961 96.986904
L157.197200 97.082142
" />
<path d="M157.197200 97.082142
L157.244819 97.224999
" />
<path d="M157.244819 97.224999
L157.244819 97.463094
" />
<path d="M156.673390 96.320237
L156.625771 96.415475
" />
<path d="M156.625771 96.415475
L156.578152 96.463094
" />
<path d="M156.578152 96.463094
L156.482914 96.510713
" />
<path d="M156.482914 96.510713
L156.435295 96.510713
" />
<path d="M156.435295 96.510713
L156.340057 96.463094
" />
<path d="M156.340057 96.463094
L156.292438 96.415475
" />
<path d="M156.292438 96.415475
L156.244819 96.320237
" />
<path d="M156.244819 96.320237
L156.244819 96.129761
" />
<path d="M156.244819 96.129761
L156.292438 96.034523
" />
<path d="M156.292438 96.034523
L156.340057 95.986904
" />
<path d="M156.340057 95.986904
L156.435295 95.939285
" />
<path d="M156.435295 95.939285
L156.482914 95.939285
" />
<path d="M156.482914 95.939285
L156.578152 95.986904
" />
<path d="M156.578152 95.986904
L156.625771 96.034523
" />
<path d="M156.625771 96.034523
L156.673390 96.129761
" />
<path d="M156.673390 96.129761
L156.673390 96.320237
" />
<path d="M156.673390 96.320237
L156.721009 96.415475
" />
<path d="M156.721009 96.415475
L156.768628 96.463094
" />
<path d="M156.768628 96.463094
L156.863866 96.510713
" />
<path d="M156.863866 96.510713
L157.054342 96.510713
" />
<path d="M157.054342 96.510713
L157.149580 96.463094
" />
<path d="M157.149580 96.463094
L157.197200 96.415475
" />
<path d="M157.197200 96.415475
L157.244819 96.320237
" />
<path d="M157.244819 96.320237
L157.244819 96.129761
" />
<path d="M157.244819 96.129761
L157.197200 96.034523
" />
<path d="M157.197200 96.034523
L157.149580 95.986904
" />
<path d="M157.149580 95.986904
L157.054342 95.939285
" />
<path d="M157.054342 95.939285
L156.863866 95.939285
" />
<path d="M156.863866 95.939285
L156.768628 95.986904
" />
<path d="M156.768628 95.986904
L156.721009 96.034523
" />
<path d="M156.721009 96.034523
L156.673390 96.129761
" />
</g><g transform="rotate(-90.000000 150.410000 104.420000)">
<text x="150.410000" y="104.920000"
textLength="2.202381" font-size="1.333333" lengthAdjust="spacingAndGlyphs"
text-anchor="middle" opacity="0" stroke-opacity="0">R2</text>
</g>
<g class="stroked-text"><desc>R2</desc>
<path d="M150.864819 104.586666
L150.388628 104.919999
" />
<path d="M150.864819 105.158094
L149.864819 105.158094
" />
<path d="M149.864819 105.158094
L149.864819 104.777142
" />
<path d="M149.864819 104.777142
L149.912438 104.681904
" />
<path d="M149.912438 104.681904
L149.960057 104.634285
" />
<path d="M149.960057 104.634285
L150.055295 104.586666
" />
<path d="M150.055295 104.586666
L150.198152 104.586666
" />
<path d="M150.198152 104.586666
L150.293390 104.634285
" />
<path d="M150.293390 104.634285
L150.341009 104.681904
" />
<path d="M150.341009 104.681904
L150.388628 104.777142
" />
<path d="M150.388628 104.777142
L150.388628 105.158094
" />
<path d="M149.960057 104.205713
L149.912438 104.158094
" />
<path d="M149.912438 104.158094
L149.864819 104.062856
" />
<path d="M149.864819 104.062856
L149.864819 103.824761
" />
<path d="M149.864819 103.824761
L149.912438 103.729523
" />
<path d="M149.912438 103.729523
L149.960057 103.681904
" />
<path d="M149.960057 103.681904
L150.055295 103.634285
" />
<path d="M150.055295 103.634285
L150.150533 103.634285
" />
<path d="M150.150533 103.634285
L150.293390 103.681904
" />
<path d="M150.293390 103.681904
L150.864819 104.253332
" />
<path d="M150.864819 104.253332
L150.864819 103.634285
" />
</g><g transform="rotate(-90.000000 154.050000 110.245000)">
<text x="154.050000" y="110.745000"
textLength="2.202381" font-size="1.333333" lengthAdjust="spacingAndGlyphs"
text-anchor="middle" opacity="0" stroke-opacity="0">D2</text>
</g>
<g class="stroked-text"><desc>D2</desc>
<path d="M154.504819 110.983094
L153.504819 110.983094
" />
<path d="M153.504819 110.983094
L153.504819 110.744999
" />
<path d="M153.504819 110.744999
L153.552438 110.602142
" />
<path d="M153.552438 110.602142
L153.647676 110.506904
" />
<path d="M153.647676 110.506904
L153.742914 110.459285
" />
<path d="M153.742914 110.459285
L153.933390 110.411666
" />
<path d="M153.933390 110.411666
L154.076247 110.411666
" />
<path d="M154.076247 110.411666
L154.266723 110.459285
" />
<path d="M154.266723 110.459285
L154.361961 110.506904
" />
<path d="M154.361961 110.506904
L154.457200 110.602142
" />
<path d="M154.457200 110.602142
L154.504819 110.744999
" />
<path d="M154.504819 110.744999
L154.504819 110.983094
" />
<path d="M153.600057 110.030713
L153.552438 109.983094
" />
<path d="M153.552438 109.983094
L153.504819 109.887856
" />
<path d="M153.504819 109.887856
L153.504819 109.649761
" />
<path d="M153.504819 109.649761
L153.552438 109.554523
" />
<path d="M153.552438 109.554523
L153.600057 109.506904
" />
<path d="M153.600057 109.506904
L153.695295 109.459285
" />
<path d="M153.695295 109.459285
L153.790533 109.459285
" />
<path d="M153.790533 109.459285
L153.933390 109.506904
" />
<path d="M153.933390 109.506904
L154.504819 110.078332
" />
<path d="M154.504819 110.078332
L154.504819 109.459285
" />
</g><text x="137.160000" y="105.910000"
textLength="2.202381" font-size="1.333333" lengthAdjust="spacingAndGlyphs"
text-anchor="middle" opacity="0" stroke-opacity="0">C2</text>
<g class="stroked-text"><desc>C2</desc>
<path d="M136.993333 105.769580
L136.945714 105.817200
" />
<path d="M136.945714 105.817200
L136.802857 105.864819
" />
<path d="M136.802857 105.864819
L136.707619 105.864819
" />
<path d="M136.707619 105.864819
L136.564762 105.817200
" />
<path d="M136.564762 105.817200
L136.469524 105.721961
" />
<path d="M136.469524 105.721961
L136.421905 105.626723
" />
<path d="M136.421905 105.626723
L136.374286 105.436247
" />
<path d="M136.374286 105.436247
L136.374286 105.293390
" />
<path d="M136.374286 105.293390
L136.421905 105.102914
" />
<path d="M136.421905 105.102914
L136.469524 105.007676
" />
<path d="M136.469524 105.007676
L136.564762 104.912438
" />
<path d="M136.564762 104.912438
L136.707619 104.864819
" />
<path d="M136.707619 104.864819
L136.802857 104.864819
" />
<path d="M136.802857 104.864819
L136.945714 104.912438
" />
<path d="M136.945714 104.912438
L136.993333 104.960057
" />
<path d="M137.374286 104.960057
L137.421905 104.912438
" />
<path d="M137.421905 104.912438
L137.517143 104.864819
" />
<path d="M137.517143 104.864819
L137.755238 104.864819
" />
<path d="M137.755238 104.864819
L137.850476 104.912438
" />
<path d="M137.850476 104.912438
L137.898095 104.960057
" />
<path d="M137.898095 104.960057
L137.945714 105.055295
" />
<path d="M137.945714 105.055295
L137.945714 105.150533
" />
<path d="M137.945714 105.150533
L137.898095 105.293390
" />
<path d="M137.898095 105.293390
L137.326667 105.864819
" />
<path d="M137.326667 105.864819
L137.945714 105.864819
" />
</g><text x="160.300000" y="102.820000"
textLength="2.202381" font-size="1.333333" lengthAdjust="spacingAndGlyphs"
text-anchor="middle" opacity="0" stroke-opacity="0">R3</text>
<g class="stroked-text"><desc>R3</desc>
<path d="M160.133333 102.774819
L159.800000 102.298628
" />
<path d="M159.561905 102.774819
L159.561905 101.774819
" />
<path d="M159.561905 101.774819
L159.942857 101.774819
" />
<path d="M159.942857 101.774819
L160.038095 101.822438
" />
<path d="M160.038095 101.822438
L160.085714 101.870057
" />
<path d="M160.085714 101.870057
L160.133333 101.965295
" />
<path d="M160.133333 101.965295
L160.133333 102.108152
" />
<path d="M160.133333 102.108152
L160.085714 102.203390
" />
<path d="M160.085714 102.203390
L160.038095 102.251009
" />
<path d="M160.038095 102.251009
L159.942857 102.298628
" />
<path d="M159.942857 102.298628
L159.561905 102.298628
" />
<path d="M160.466667 101.774819
L161.085714 101.774819
" />
<path d="M161.085714 101.774819
L160.752381 102.155771
" />
<path d="M160.752381 102.155771
L160.895238 102.155771
" />
<path d="M160.895238 102.155771
L160.990476 102.203390
" />
<path d="M160.990476 102.203390
L161.038095 102.251009
" />
<path d="M161.038095 102.251009
L161.085714 102.346247
" />
<path d="M161.085714 102.346247
L161.085714 102.584342
" />
<path d="M161.085714 102.584342
L161.038095 102.679580
" />
<path d="M161.038095 102.679580
L160.990476 102.727200
" />
<path d="M160.990476 102.727200
L160.895238 102.774819
" />
<path d="M160.895238 102.774819
L160.609524 102.774819
" />
<path d="M160.609524 102.774819
L160.514286 102.727200
" />
<path d="M160.514286 102.727200
L160.466667 102.679580
" />
</g><g transform="rotate(-90.000000 149.310000 98.780000)">
<text x="149.310000" y="99.280000"
textLength="3.154762" font-size="1.333333" lengthAdjust="spacingAndGlyphs"
text-anchor="middle" opacity="0" stroke-opacity="0">R10</text>
</g>
<g class="stroked-text"><desc>R10</desc>
<path d="M149.764819 99.422857
L149.288628 99.756190
" />
<path d="M149.764819 99.994285
L148.764819 99.994285
" />
<path d="M148.764819 99.994285
L148.764819 99.613333
" />
<path d="M148.764819 99.613333
L148.812438 99.518095
" />
<path d="M148.812438 99.518095
L148.860057 99.470476
" />
<path d="M148.860057 99.470476
L148.955295 99.422857
" />
<path d="M148.955295 99.422857
L149.098152 99.422857
" />
<path d="M149.098152 99.422857
L149.193390 99.470476
" />
<path d="M149.193390 99.470476
L149.241009 99.518095
" />
<path d="M149.241009 99.518095
L149.288628 99.613333
" />
<path d="M149.288628 99.613333
L149.288628 99.994285
" />
<path d="M149.764819 98.470476
L149.764819 99.041904
" />
<path d="M149.764819 98.756190
L148.764819 98.756190
" />
<path d="M148.764819 98.756190
L148.907676 98.851428
" />
<path d="M148.907676 98.851428
L149.002914 98.946666
" />
<path d="M149.002914 98.946666
L149.050533 99.041904
" />
<path d="M148.764819 97.851428
L148.764819 97.756190
" />
<path d="M148.764819 97.756190
L148.812438 97.660952
" />
<path d="M148.812438 97.660952
L148.860057 97.613333
" />
<path d="M148.860057 97.613333
L148.955295 97.565714
" />
<path d="M148.955295 97.565714
L149.145771 97.518095
" />
<path d="M149.145771 97.518095
L149.383866 97.518095
" />
<path d="M149.383866 97.518095
L149.574342 97.565714
" />
<path d="M149.574342 97.565714
L149.669580 97.613333
" />
<path d="M149.669580 97.613333
L149.717200 97.660952
" />
<path d="M149.717200 97.660952
L149.764819 97.756190
" />
<path d="M149.764819 97.756190
L149.764819 97.851428
" />
<path d="M149.764819 97.851428
L149.717200 97.946666
" />
<path d="M149.717200 97.946666
L149.669580 97.994285
" />
<path d="M149.669580 97.994285
L149.574342 98.041904
" />
<path d="M149.574342 98.041904
L149.383866 98.089523
" />
<path d="M149.383866 98.089523
L149.145771 98.089523
" />
<path d="M149.145771 98.089523
L148.955295 98.041904
" />
<path d="M148.955295 98.041904
L148.860057 97.994285
" />
<path d="M148.860057 97.994285
L148.812438 97.946666
" />
<path d="M148.812438 97.946666
L148.764819 97.851428
" />
</g><text x="130.565000" y="87.750000"
textLength="2.202381" font-size="1.333333" lengthAdjust="spacingAndGlyphs"
text-anchor="middle" opacity="0" stroke-opacity="0">D6</text>
<g class="stroked-text"><desc>D6</desc>
<path d="M129.826905 87.704819
L129.826905 86.704819
" />
<path d="M129.826905 86.704819
L130.065000 86.704819
" />
<path d="M130.065000 86.704819
L130.207857 86.752438
" />
<path d="M130.207857 86.752438
L130.303095 86.847676
" />
<path d="M130.303095 86.847676
L130.350714 86.942914
" />
<path d="M130.350714 86.942914
L130.398333 87.133390
" />
<path d="M130.398333 87.133390
L130.398333 87.276247
" />
<path d="M130.398333 87.276247
L130.350714 87.466723
" />
<path d="M130.350714 87.466723
L130.303095 87.561961
" />
<path d="M130.303095 87.561961
L130.207857 87.657200
" />
<path d="M130.207857 87.657200
L130.065000 87.704819
" />
<path d="M130.065000 87.704819
L129.826905 87.704819
" />
<path d="M131.255476 86.704819
L131.065000 86.704819
" />
<path d="M131.065000 86.704819
L130.969762 86.752438
" />
<path d="M130.969762 86.752438
L130.922143 86.800057
" />
<path d="M130.922143 86.800057
L130.826905 86.942914
" />
<path d="M130.826905 86.942914
L130.779286 87.133390
" />
<path d="M130.779286 87.133390
L130.779286 87.514342
" />
<path d="M130.779286 87.514342
L130.826905 87.609580
" />
<path d="M130.826905 87.609580
L130.874524 87.657200
" />
<path d="M130.874524 87.657200
L130.969762 87.704819
" />
<path d="M130.969762 87.704819
L131.160238 87.704819
" />
<path d="M131.160238 87.704819
L131.255476 87.657200
" />
<path d="M131.255476 87.657200
L131.303095 87.609580
" />
<path d="M131.303095 87.609580
L131.350714 87.514342
" />
<path d="M131.350714 87.514342
L131.350714 87.276247
" />
<path d="M131.350714 87.276247
L131.303095 87.181009
" />
<path d="M131.303095 87.181009
L131.255476 87.133390
" />
<path d="M131.255476 87.133390
L131.160238 87.085771
" />
<path d="M131.160238 87.085771
L130.969762 87.085771
" />
<path d="M130.969762 87.085771
L130.874524 87.133390
" />
<path d="M130.874524 87.133390
L130.826905 87.181009
" />
<path d="M130.826905 87.181009
L130.779286 87.276247
" />
</g><g transform="rotate(-90.000000 144.330000 100.965000)">
<text x="144.330000" y="101.465000"
textLength="2.678571" font-size="1.333333" lengthAdjust="spacingAndGlyphs"
text-anchor="middle" opacity="0" stroke-opacity="0">IC1</text>
</g>
<g class="stroked-text"><desc>IC1</desc>
<path d="M144.784819 101.941189
L143.784819 101.941189
" />
<path d="M144.689580 100.893571
L144.737200 100.941190
" />
<path d="M144.737200 100.941190
L144.784819 101.084047
" />
<path d="M144.784819 101.084047
L144.784819 101.179285
" />
<path d="M144.784819 101.179285
L144.737200 101.322142
" />
<path d="M144.737200 101.322142
L144.641961 101.417380
" />
<path d="M144.641961 101.417380
L144.546723 101.464999
" />
<path d="M144.546723 101.464999
L144.356247 101.512618
" />
<path d="M144.356247 101.512618
L144.213390 101.512618
" />
<path d="M144.213390 101.512618
L144.022914 101.464999
" />
<path d="M144.022914 101.464999
L143.927676 101.417380
" />
<path d="M143.927676 101.417380
L143.832438 101.322142
" />
<path d="M143.832438 101.322142
L143.784819 101.179285
" />
<path d="M143.784819 101.179285
L143.784819 101.084047
" />
<path d="M143.784819 101.084047
L143.832438 100.941190
" />
<path d="M143.832438 100.941190
L143.880057 100.893571
" />
<path d="M144.784819 99.941190
L144.784819 100.512618
" />
<path d="M144.784819 100.226904
L143.784819 100.226904
" />
<path d="M143.784819 100.226904
L143.927676 100.322142
" />
<path d="M143.927676 100.322142
L144.022914 100.417380
" />
<path d="M144.022914 100.417380
L144.070533 100.512618
" />
</g><text x="120.930000" y="106.460000"
textLength="2.202381" font-size="1.333333" lengthAdjust="spacingAndGlyphs"
text-anchor="middle" opacity="0" stroke-opacity="0">R5</text>
<g class="stroked-text"><desc>R5</desc>
<path d="M120.763333 106.414819
L120.430000 105.938628
" />
<path d="M120.191905 106.414819
L120.191905 105.414819
" />
<path d="M120.191905 105.414819
L120.572857 105.414819
" />
<path d="M120.572857 105.414819
L120.668095 105.462438
" />
<path d="M120.668095 105.462438
L120.715714 105.510057
" />
<path d="M120.715714 105.510057
L120.763333 105.605295
" />
<path d="M120.763333 105.605295
L120.763333 105.748152
" />
<path d="M120.763333 105.748152
L120.715714 105.843390
" />
<path d="M120.715714 105.843390
L120.668095 105.891009
" />
<path d="M120.668095 105.891009
L120.572857 105.938628
" />
<path d="M120.572857 105.938628
L120.191905 105.938628
" />
<path d="M121.668095 105.414819
L121.191905 105.414819
" />
<path d="M121.191905 105.414819
L121.144286 105.891009
" />
<path d="M121.144286 105.891009
L121.191905 105.843390
" />
<path d="M121.191905 105.843390
L121.287143 105.795771
" />
<path d="M121.287143 105.795771
L121.525238 105.795771
" />
<path d="M121.525238 105.795771
L121.620476 105.843390
" />
<path d="M121.620476 105.843390
L121.668095 105.891009
" />
<path d="M121.668095 105.891009
L121.715714 105.986247
" />
<path d="M121.715714 105.986247
L121.715714 106.224342
" />
<path d="M121.715714 106.224342
L121.668095 106.319580
" />
<path d="M121.668095 106.319580
L121.620476 106.367200
" />
<path d="M121.620476 106.367200
L121.525238 106.414819
" />
<path d="M121.525238 106.414819
L121.287143 106.414819
" />
<path d="M121.287143 106.414819
L121.191905 106.367200
" />
<path d="M121.191905 106.367200
L121.144286 106.319580
" />
</g><g transform="rotate(-90.000000 154.390000 100.610000)">
<text x="154.390000" y="101.110000"
textLength="2.202381" font-size="1.333333" lengthAdjust="spacingAndGlyphs"
text-anchor="middle" opacity="0" stroke-opacity="0">R8</text>
</g>
<g class="stroked-text"><desc>R8</desc>
<path d="M154.844819 100.776666
L154.368628 101.109999
" />
<path d="M154.844819 101.348094
L153.844819 101.348094
" />
<path d="M153.844819 101.348094
L153.844819 100.967142
" />
<path d="M153.844819 100.967142
L153.892438 100.871904
" />
<path d="M153.892438 100.871904
L153.940057 100.824285
" />
<path d="M153.940057 100.824285
L154.035295 100.776666
" />
<path d="M154.035295 100.776666
L154.178152 100.776666
" />
<path d="M154.178152 100.776666
L154.273390 100.824285
" />
<path d="M154.273390 100.824285
L154.321009 100.871904
" />
<path d="M154.321009 100.871904
L154.368628 100.967142
" />
<path d="M154.368628 100.967142
L154.368628 101.348094
" />
<path d="M154.273390 100.205237
L154.225771 100.300475
" />
<path d="M154.225771 100.300475
L154.178152 100.348094
" />
<path d="M154.178152 100.348094
L154.082914 100.395713
" />
<path d="M154.082914 100.395713
L154.035295 100.395713
" />
<path d="M154.035295 100.395713
L153.940057 100.348094
" />
<path d="M153.940057 100.348094
L153.892438 100.300475
" />
<path d="M153.892438 100.300475
L153.844819 100.205237
" />
<path d="M153.844819 100.205237
L153.844819 100.014761
" />
<path d="M153.844819 100.014761
L153.892438 99.919523
" />
<path d="M153.892438 99.919523
L153.940057 99.871904
" />
<path d="M153.940057 99.871904
L154.035295 99.824285
" />
<path d="M154.035295 99.824285
L154.082914 99.824285
" />
<path d="M154.082914 99.824285
L154.178152 99.871904
" />
<path d="M154.178152 99.871904
L154.225771 99.919523
" />
<path d="M154.225771 99.919523
L154.273390 100.014761
" />
<path d="M154.273390 100.014761
L154.273390 100.205237
" />
<path d="M154.273390 100.205237
L154.321009 100.300475
" />
<path d="M154.321009 100.300475
L154.368628 100.348094
" />
<path d="M154.368628 100.348094
L154.463866 100.395713
" />
<path d="M154.463866 100.395713
L154.654342 100.395713
" />
<path d="M154.654342 100.395713
L154.749580 100.348094
" />
<path d="M154.749580 100.348094
L154.797200 100.300475
" />
<path d="M154.797200 100.300475
L154.844819 100.205237
" />
<path d="M154.844819 100.205237
L154.844819 100.014761
" />
<path d="M154.844819 100.014761
L154.797200 99.919523
" />
<path d="M154.797200 99.919523
L154.749580 99.871904
" />
<path d="M154.749580 99.871904
L154.654342 99.824285
" />
<path d="M154.654342 99.824285
L154.463866 99.824285
" />
<path d="M154.463866 99.824285
L154.368628 99.871904
" />
<path d="M154.368628 99.871904
L154.321009 99.919523
" />
<path d="M154.321009 99.919523
L154.273390 100.014761
" />
</g><g transform="rotate(45.000000 165.100000 109.219999)">
<text x="165.100000" y="109.719999"
textLength="2.202381" font-size="1.333333" lengthAdjust="spacingAndGlyphs"
text-anchor="middle" opacity="0" stroke-opacity="0">D3</text>
</g>
<g class="stroked-text"><desc>D3</desc>
<path d="M164.256482 109.019692
L164.963589 108.312586
" />
<path d="M164.963589 108.312586
L165.131948 108.480944
" />
<path d="M165.131948 108.480944
L165.199291 108.615631
" />
<path d="M165.199291 108.615631
L165.199291 108.750318
" />
<path d="M165.199291 108.750318
L165.165619 108.851334
" />
<path d="M165.165619 108.851334
L165.064604 109.019692
" />
<path d="M165.064604 109.019692
L164.963589 109.120708
" />
<path d="M164.963589 109.120708
L164.795230 109.221723
" />
<path d="M164.795230 109.221723
L164.694215 109.255395
" />
<path d="M164.694215 109.255395
L164.559528 109.255395
" />
<path d="M164.559528 109.255395
L164.424841 109.188051
" />
<path d="M164.424841 109.188051
L164.256482 109.019692
" />
<path d="M165.603352 108.952349
L166.041085 109.390082
" />
<path d="M166.041085 109.390082
L165.536009 109.423753
" />
<path d="M165.536009 109.423753
L165.637024 109.524769
" />
<path d="M165.637024 109.524769
L165.670696 109.625784
" />
<path d="M165.670696 109.625784
L165.670696 109.693127
" />
<path d="M165.670696 109.693127
L165.637024 109.794143
" />
<path d="M165.637024 109.794143
L165.468665 109.962501
" />
<path d="M165.468665 109.962501
L165.367650 109.996173
" />
<path d="M165.367650 109.996173
L165.300306 109.996173
" />
<path d="M165.300306 109.996173
L165.199291 109.962501
" />
<path d="M165.199291 109.962501
L164.997261 109.760471
" />
<path d="M164.997261 109.760471
L164.963589 109.659456
" />
<path d="M164.963589 109.659456
L164.963589 109.592112
" />
</g><text x="116.595000" y="106.290000"
textLength="2.202381" font-size="1.333333" lengthAdjust="spacingAndGlyphs"
text-anchor="middle" opacity="0" stroke-opacity="0">D5</text>
<g class="stroked-text"><desc>D5</desc>
<path d="M115.856905 106.244819
L115.856905 105.244819
" />
<path d="M115.856905 105.244819
L116.095000 105.244819
" />
<path d="M116.095000 105.244819
L116.237857 105.292438
" />
<path d="M116.237857 105.292438
L116.333095 105.387676
" />
<path d="M116.333095 105.387676
L116.380714 105.482914
" />
<path d="M116.380714 105.482914
L116.428333 105.673390
" />
<path d="M116.428333 105.673390
L116.428333 105.816247
" />
<path d="M116.428333 105.816247
L116.380714 106.006723
" />
<path d="M116.380714 106.006723
L116.333095 106.101961
" />
<path d="M116.333095 106.101961
L116.237857 106.197200
" />
<path d="M116.237857 106.197200
L116.095000 106.244819
" />
<path d="M116.095000 106.244819
L115.856905 106.244819
" />
<path d="M117.333095 105.244819
L116.856905 105.244819
" />
<path d="M116.856905 105.244819
L116.809286 105.721009
" />
<path d="M116.809286 105.721009
L116.856905 105.673390
" />
<path d="M116.856905 105.673390
L116.952143 105.625771
" />
<path d="M116.952143 105.625771
L117.190238 105.625771
" />
<path d="M117.190238 105.625771
L117.285476 105.673390
" />
<path d="M117.285476 105.673390
L117.333095 105.721009
" />
<path d="M117.333095 105.721009
L117.380714 105.816247
" />
<path d="M117.380714 105.816247
L117.380714 106.054342
" />
<path d="M117.380714 106.054342
L117.333095 106.149580
" />
<path d="M117.333095 106.149580
L117.285476 106.197200
" />
<path d="M117.285476 106.197200
L117.190238 106.244819
" />
<path d="M117.190238 106.244819
L116.952143 106.244819
" />
<path d="M116.952143 106.244819
L116.856905 106.197200
" />
<path d="M116.856905 106.197200
L116.809286 106.149580
" />
</g></g>
<g style="fill:none; 
stroke:#000000; stroke-width:0.120000; stroke-opacity:1; 
stroke-linecap:round; stroke-linejoin:round;">
<path d="M124.820000 103.597064
L124.820000 102.142936
" />
<path d="M126.640000 103.597064
L126.640000 102.142936
" />
<path d="M129.277064 94.340000
L127.822936 94.340000
" />
<path d="M129.277064 96.160000
L127.822936 96.160000
" />
<path d="M136.250000 92.167064
L136.250000 90.712936
" />
<path d="M138.070000 92.167064
L138.070000 90.712936
" />
<path d="M127.535000 103.131252
L127.535000 102.608748
" />
<path d="M129.005000 103.131252
L129.005000 102.608748
" />
<path d="M122.084071 95.221716
L124.106396 97.244041
" />
<path d="M124.106396 97.244041
L125.464041 95.886396
" />
<path d="M125.464041 95.886396
L123.441716 93.864071
" />
<path d="M145.090000 91.095000
L145.090000 93.955000
" />
<path d="M147.010000 91.095000
L145.090000 91.095000
" />
<path d="M147.010000 93.955000
L147.010000 91.095000
" />
<path d="M137.130000 111.420000
L137.130000 114.080000
" />
<path d="M139.730000 111.420000
L137.130000 111.420000
" />
<path d="M139.730000 111.420000
L139.730000 114.080000
" />
<path d="M139.730000 114.080000
L137.130000 114.080000
" />
<path d="M141.000000 111.420000
L142.330000 111.420000
" />
<path d="M142.330000 111.420000
L142.330000 112.750000
" />
<path d="M131.490000 84.130000
L131.490000 86.050000
" />
<path d="M131.490000 86.050000
L134.350000 86.050000
" />
<path d="M134.350000 84.130000
L131.490000 84.130000
" />
<path d="M133.710000 94.427064
L133.710000 92.972936
" />
<path d="M135.530000 94.427064
L135.530000 92.972936
" />
<path d="M150.170000 92.365000
L150.170000 95.225000
" />
<path d="M152.090000 92.365000
L150.170000 92.365000
" />
<path d="M152.090000 95.225000
L152.090000 92.365000
" />
<path d="M151.490000 103.692936
L151.490000 105.147064
" />
<path d="M153.310000 103.692936
L153.310000 105.147064
" />
<path d="M145.140000 99.787064
L145.140000 98.332936
" />
<path d="M146.960000 99.787064
L146.960000 98.332936
" />
<path d="M156.520000 110.925000
L156.520000 113.785000
" />
<path d="M158.440000 110.925000
L156.520000 110.925000
" />
<path d="M158.440000 113.785000
L158.440000 110.925000
" />
<path d="M128.580777 105.002863
L130.034905 105.002863
" />
<path d="M128.580777 106.822863
L130.034905 106.822863
" />
<path d="M154.040000 94.140000
L154.040000 97.000000
" />
<path d="M155.960000 94.140000
L154.040000 94.140000
" />
<path d="M155.960000 97.000000
L155.960000 94.140000
" />
<path d="M147.680000 103.692936
L147.680000 105.147064
" />
<path d="M149.500000 103.692936
L149.500000 105.147064
" />
<path d="M151.440000 108.385000
L151.440000 111.245000
" />
<path d="M153.360000 108.385000
L151.440000 108.385000
" />
<path d="M153.360000 111.245000
L153.360000 108.385000
" />
<path d="M139.728752 105.945000
L139.206248 105.945000
" />
<path d="M139.728752 107.415000
L139.206248 107.415000
" />
<path d="M159.572936 103.230000
L161.027064 103.230000
" />
<path d="M159.572936 105.050000
L161.027064 105.050000
" />
<path d="M150.220000 99.507064
L150.220000 98.052936
" />
<path d="M152.040000 99.507064
L152.040000 98.052936
" />
<path d="M128.705000 87.940000
L128.705000 89.860000
" />
<path d="M128.705000 89.860000
L131.565000 89.860000
" />
<path d="M131.565000 87.940000
L128.705000 87.940000
" />
<path d="M133.370000 100.965000
L133.370000 99.015000
" />
<path d="M133.370000 100.965000
L133.370000 102.915000
" />
<path d="M143.490000 100.965000
L143.490000 99.015000
" />
<path d="M143.490000 100.965000
L143.490000 102.915000
" />
<path style="fill:#000000; fill-opacity:1.000000; 
stroke:#000000; stroke-width:0.120000; stroke-opacity:1; 
stroke-linecap:round; stroke-linejoin:round;fill-rule:evenodd;"
d="M 143.765000,98.505000
143.435000,98.265000
143.765000,98.025000
Z" /> 
</g>
<g style="fill:none; 
stroke:#000000; stroke-width:0.120000; stroke-opacity:1; 
stroke-linecap:round; stroke-linejoin:round;">
<path d="M121.657064 103.230000
L120.202936 103.230000
" />
<path d="M121.657064 105.050000
L120.202936 105.050000
" />
<path d="M155.300000 101.337064
L155.300000 99.882936
" />
<path d="M157.120000 101.337064
L157.120000 99.882936
" />
<path d="M166.370743 109.853604
L168.393068 111.875929
" />
<path d="M167.728388 108.495959
L166.370743 109.853604
" />
<path d="M169.750713 110.518284
L167.728388 108.495959
" />
<path d="M115.595000 105.100000
L118.455000 105.100000
" />
<path d="M118.455000 103.180000
L115.595000 103.180000
" />
<path d="M118.455000 105.100000
L118.455000 103.180000
" />
</g> 
</svg>
