  0
SECTION
  2
HEADER
  9
$ANGBASE
  50
0.0
  9
$ANGDIR
  70
1
  9
$MEASUREMENT
  70
0
  0
ENDSEC
  0
SECTION
  2
TABLES
  0
TABLE
  2
LTYPE
  70
4
  0
LTYPE
  5
40F
  2
CONTINUOUS
  70
0
  3
Solid line
  72
65
  73
0
  40
0.0
  0
LTYPE
  5
410
  2
DASHDOT
 70
0
  3
Dash Dot ____ _ ____ _
 72
65
 73
4
 40
2.0
 49
1.25
 49
-0.25
 49
0.25
 49
-0.25
  0
LTYPE
  5
411
  2
DASHED
 70
0
  3
Dashed __ __ __ __ __
 72
65
 73
2
 40
0.75
 49
0.5
 49
-0.25
  0
LTYPE
  5
43B
  2
DOTTED
 70
0
  3
Dotted .  .  .  .
 72
65
 73
2
 40
0.2
 49
0.0
 49
-0.2
  0
ENDTAB
  0
TABLE
  2
STYLE
  70
4
  0
STYLE
  2
KICAD
  70
0
  40
0
  41
1
  42
1
  50
0
  71
0
  3
isocp.shx
  0
STYLE
  2
KICADB
  70
0
  40
0
  41
1
  42
1
  50
0
  71
0
  3
isocp.shx
  0
STYLE
  2
KICADI
  70
0
  40
0
  41
1
  42
1
  50
15
  71
0
  3
isocp.shx
  0
STYLE
  2
KICADBI
  70
0
  40
0
  41
1
  42
1
  50
15
  71
0
  3
isocp.shx
  0
ENDTAB
  0
TABLE
  2
LAYER
  70
1
  0
LAYER
  2
BLACK
  70
0
  62
7
  6
CONTINUOUS
  0
ENDTAB
  0
ENDSEC
  0
SECTION
  2
ENTITIES
0
LINE
8
BLACK
6
CONTINUOUS
10
6.2214831102362202
20
-4.4588200787401577
11
6.2246762598425196
21
-4.4609536614173226
0
LINE
8
BLACK
6
CONTINUOUS
10
6.2246762598425196
20
-4.4609536614173226
11
6.2268098425196845
21
-4.464146811023622
0
LINE
8
BLACK
6
CONTINUOUS
10
6.2268098425196845
20
-4.464146811023622
11
6.2275590551181104
21
-4.4679133858267717
0
LINE
8
BLACK
6
CONTINUOUS
10
6.2275590551181104
20
-4.4679133858267717
11
6.2275590551181104
21
-4.4935039370078735
0
LINE
8
BLACK
6
CONTINUOUS
10
6.2275590551181104
20
-4.4935039370078735
11
6.2268098425196845
21
-4.4972705118110232
0
LINE
8
BLACK
6
CONTINUOUS
10
6.2268098425196845
20
-4.4972705118110232
11
6.2246762598425196
21
-4.5004636614173226
0
LINE
8
BLACK
6
CONTINUOUS
10
6.2246762598425196
20
-4.5004636614173226
11
6.2214831102362202
21
-4.5025972440944884
0
LINE
8
BLACK
6
CONTINUOUS
10
6.2214831102362202
20
-4.5025972440944884
11
6.2177165354330706
21
-4.5033464566929133
0
LINE
8
BLACK
6
CONTINUOUS
10
6.2177165354330706
20
-4.5033464566929133
11
6.1822834645669289
21
-4.5033464566929133
0
LINE
8
BLACK
6
CONTINUOUS
10
6.1822834645669289
20
-4.5033464566929133
11
6.1785168897637792
21
-4.5025972440944884
0
LINE
8
BLACK
6
CONTINUOUS
10
6.1785168897637792
20
-4.5025972440944884
11
6.1753237401574799
21
-4.5004636614173226
0
LINE
8
BLACK
6
CONTINUOUS
10
6.1753237401574799
20
-4.5004636614173226
11
6.173190157480315
21
-4.4972705118110232
0
LINE
8
BLACK
6
CONTINUOUS
10
6.173190157480315
20
-4.4972705118110232
11
6.17244094488189
21
-4.4935039370078735
0
LINE
8
BLACK
6
CONTINUOUS
10
6.17244094488189
20
-4.4935039370078735
11
6.17244094488189
21
-4.4679133858267717
0
LINE
8
BLACK
6
CONTINUOUS
10
6.17244094488189
20
-4.4679133858267717
11
6.173190157480315
21
-4.464146811023622
0
LINE
8
BLACK
6
CONTINUOUS
10
6.173190157480315
20
-4.464146811023622
11
6.1753237401574799
21
-4.4609536614173226
0
LINE
8
BLACK
6
CONTINUOUS
10
6.1753237401574799
20
-4.4609536614173226
11
6.1785168897637792
21
-4.4588200787401577
0
LINE
8
BLACK
6
CONTINUOUS
10
6.1785168897637792
20
-4.4588200787401577
11
6.1822834645669289
21
-4.4580708661417319
0
LINE
8
BLACK
6
CONTINUOUS
10
6.1822834645669289
20
-4.4580708661417319
11
6.2177165354330706
21
-4.4580708661417319
0
LINE
8
BLACK
6
CONTINUOUS
10
6.2177165354330706
20
-4.4580708661417319
11
6.2214831102362202
21
-4.4588200787401577
0
LINE
8
BLACK
6
CONTINUOUS
10
6.2214831102362202
20
-4.3781114173228346
11
6.2246762598425196
21
-4.3802449999999995
0
LINE
8
BLACK
6
CONTINUOUS
10
6.2246762598425196
20
-4.3802449999999995
11
6.2268098425196845
21
-4.3834381496062989
0
LINE
8
BLACK
6
CONTINUOUS
10
6.2268098425196845
20
-4.3834381496062989
11
6.2275590551181104
21
-4.3872047244094485
0
LINE
8
BLACK
6
CONTINUOUS
10
6.2275590551181104
20
-4.3872047244094485
11
6.2275590551181104
21
-4.4127952755905513
0
LINE
8
BLACK
6
CONTINUOUS
10
6.2275590551181104
20
-4.4127952755905513
11
6.2268098425196845
21
-4.416561850393701
0
LINE
8
BLACK
6
CONTINUOUS
10
6.2268098425196845
20
-4.416561850393701
11
6.2246762598425196
21
-4.4197550000000003
0
LINE
8
BLACK
6
CONTINUOUS
10
6.2246762598425196
20
-4.4197550000000003
11
6.2214831102362202
21
-4.4218885826771652
0
LINE
8
BLACK
6
CONTINUOUS
10
6.2214831102362202
20
-4.4218885826771652
11
6.2177165354330706
21
-4.4226377952755902
0
LINE
8
BLACK
6
CONTINUOUS
10
6.2177165354330706
20
-4.4226377952755902
11
6.1822834645669289
21
-4.4226377952755902
0
LINE
8
BLACK
6
CONTINUOUS
10
6.1822834645669289
20
-4.4226377952755902
11
6.1785168897637792
21
-4.4218885826771652
0
LINE
8
BLACK
6
CONTINUOUS
10
6.1785168897637792
20
-4.4218885826771652
11
6.1753237401574799
21
-4.4197550000000003
0
LINE
8
BLACK
6
CONTINUOUS
10
6.1753237401574799
20
-4.4197550000000003
11
6.173190157480315
21
-4.416561850393701
0
LINE
8
BLACK
6
CONTINUOUS
10
6.173190157480315
20
-4.416561850393701
11
6.17244094488189
21
-4.4127952755905513
0
LINE
8
BLACK
6
CONTINUOUS
10
6.17244094488189
20
-4.4127952755905513
11
6.17244094488189
21
-4.3872047244094485
0
LINE
8
BLACK
6
CONTINUOUS
10
6.17244094488189
20
-4.3872047244094485
11
6.173190157480315
21
-4.3834381496062989
0
LINE
8
BLACK
6
CONTINUOUS
10
6.173190157480315
20
-4.3834381496062989
11
6.1753237401574799
21
-4.3802449999999995
0
LINE
8
BLACK
6
CONTINUOUS
10
6.1753237401574799
20
-4.3802449999999995
11
6.1785168897637792
21
-4.3781114173228346
0
LINE
8
BLACK
6
CONTINUOUS
10
6.1785168897637792
20
-4.3781114173228346
11
6.1822834645669289
21
-4.3773622047244096
0
LINE
8
BLACK
6
CONTINUOUS
10
6.1822834645669289
20
-4.3773622047244096
11
6.2177165354330706
21
-4.3773622047244096
0
LINE
8
BLACK
6
CONTINUOUS
10
6.2177165354330706
20
-4.3773622047244096
11
6.2214831102362202
21
-4.3781114173228346
0
LINE
8
BLACK
6
CONTINUOUS
10
6.6643160236220469
20
-4.347866377952756
11
6.6675091732283462
21
-4.3499999999999996
0
LINE
8
BLACK
6
CONTINUOUS
10
6.6675091732283462
20
-4.3499999999999996
11
6.6856044094488185
21
-4.3680952362204719
0
LINE
8
BLACK
6
CONTINUOUS
10
6.6856044094488185
20
-4.3680952362204719
11
6.6877380314960631
21
-4.3712883858267713
0
LINE
8
BLACK
6
CONTINUOUS
10
6.6877380314960631
20
-4.3712883858267713
11
6.688487244094488
21
-4.3750549606299209
0
LINE
8
BLACK
6
CONTINUOUS
10
6.688487244094488
20
-4.3750549606299209
11
6.6877380314960631
21
-4.3788214960629919
0
LINE
8
BLACK
6
CONTINUOUS
10
6.6877380314960631
20
-4.3788214960629919
11
6.6856044094488185
21
-4.3820146456692912
0
LINE
8
BLACK
6
CONTINUOUS
10
6.6856044094488185
20
-4.3820146456692912
11
6.6605494488188972
21
-4.4070696062992125
0
LINE
8
BLACK
6
CONTINUOUS
10
6.6605494488188972
20
-4.4070696062992125
11
6.6573562992125979
21
-4.4092032283464562
0
LINE
8
BLACK
6
CONTINUOUS
10
6.6573562992125979
20
-4.4092032283464562
11
6.6535897637795278
21
-4.409952440944882
0
LINE
8
BLACK
6
CONTINUOUS
10
6.6535897637795278
20
-4.409952440944882
11
6.6498231889763781
21
-4.4092032283464562
0
LINE
8
BLACK
6
CONTINUOUS
10
6.6498231889763781
20
-4.4092032283464562
11
6.6466300393700788
21
-4.4070696062992125
0
LINE
8
BLACK
6
CONTINUOUS
10
6.6466300393700788
20
-4.4070696062992125
11
6.6285348031496065
21
-4.3889743700787403
0
LINE
8
BLACK
6
CONTINUOUS
10
6.6285348031496065
20
-4.3889743700787403
11
6.626401181102362
21
-4.3857812204724409
0
LINE
8
BLACK
6
CONTINUOUS
10
6.626401181102362
20
-4.3857812204724409
11
6.625651968503937
21
-4.3820146456692912
0
LINE
8
BLACK
6
CONTINUOUS
10
6.625651968503937
20
-4.3820146456692912
11
6.626401181102362
21
-4.3782481102362203
0
LINE
8
BLACK
6
CONTINUOUS
10
6.626401181102362
20
-4.3782481102362203
11
6.6285348031496065
21
-4.3750549606299209
0
LINE
8
BLACK
6
CONTINUOUS
10
6.6285348031496065
20
-4.3750549606299209
11
6.6535897637795278
21
-4.3499999999999996
0
LINE
8
BLACK
6
CONTINUOUS
10
6.6535897637795278
20
-4.3499999999999996
11
6.6567829133858263
21
-4.347866377952756
0
LINE
8
BLACK
6
CONTINUOUS
10
6.6567829133858263
20
-4.347866377952756
11
6.6605494488188972
21
-4.347117165354331
0
LINE
8
BLACK
6
CONTINUOUS
10
6.6605494488188972
20
-4.347117165354331
11
6.6643160236220469
21
-4.347866377952756
0
LINE
8
BLACK
6
CONTINUOUS
10
6.0214831102362201
20
-4.3588200787401572
11
6.0246762598425194
21
-4.360953661417323
0
LINE
8
BLACK
6
CONTINUOUS
10
6.0246762598425194
20
-4.360953661417323
11
6.0268098425196852
21
-4.3641468110236223
0
LINE
8
BLACK
6
CONTINUOUS
10
6.0268098425196852
20
-4.3641468110236223
11
6.0275590551181102
21
-4.3679133858267711
0
LINE
8
BLACK
6
CONTINUOUS
10
6.0275590551181102
20
-4.3679133858267711
11
6.0275590551181102
21
-4.3935039370078739
0
LINE
8
BLACK
6
CONTINUOUS
10
6.0275590551181102
20
-4.3935039370078739
11
6.0268098425196852
21
-4.3972705118110236
0
LINE
8
BLACK
6
CONTINUOUS
10
6.0268098425196852
20
-4.3972705118110236
11
6.0246762598425194
21
-4.4004636614173229
0
LINE
8
BLACK
6
CONTINUOUS
10
6.0246762598425194
20
-4.4004636614173229
11
6.0214831102362201
21
-4.4025972440944878
0
LINE
8
BLACK
6
CONTINUOUS
10
6.0214831102362201
20
-4.4025972440944878
11
6.0177165354330704
21
-4.4033464566929137
0
LINE
8
BLACK
6
CONTINUOUS
10
6.0177165354330704
20
-4.4033464566929137
11
5.9822834645669287
21
-4.4033464566929137
0
LINE
8
BLACK
6
CONTINUOUS
10
5.9822834645669287
20
-4.4033464566929137
11
5.978516889763779
21
-4.4025972440944878
0
LINE
8
BLACK
6
CONTINUOUS
10
5.978516889763779
20
-4.4025972440944878
11
5.9753237401574806
21
-4.4004636614173229
0
LINE
8
BLACK
6
CONTINUOUS
10
5.9753237401574806
20
-4.4004636614173229
11
5.9731901574803148
21
-4.3972705118110236
0
LINE
8
BLACK
6
CONTINUOUS
10
5.9731901574803148
20
-4.3972705118110236
11
5.9724409448818898
21
-4.3935039370078739
0
LINE
8
BLACK
6
CONTINUOUS
10
5.9724409448818898
20
-4.3935039370078739
11
5.9724409448818898
21
-4.3679133858267711
0
LINE
8
BLACK
6
CONTINUOUS
10
5.9724409448818898
20
-4.3679133858267711
11
5.9731901574803148
21
-4.3641468110236223
0
LINE
8
BLACK
6
CONTINUOUS
10
5.9731901574803148
20
-4.3641468110236223
11
5.9753237401574806
21
-4.360953661417323
0
LINE
8
BLACK
6
CONTINUOUS
10
5.9753237401574806
20
-4.360953661417323
11
5.978516889763779
21
-4.3588200787401572
0
LINE
8
BLACK
6
CONTINUOUS
10
5.978516889763779
20
-4.3588200787401572
11
5.9822834645669287
21
-4.3580708661417322
0
LINE
8
BLACK
6
CONTINUOUS
10
5.9822834645669287
20
-4.3580708661417322
11
6.0177165354330704
21
-4.3580708661417322
0
LINE
8
BLACK
6
CONTINUOUS
10
6.0177165354330704
20
-4.3580708661417322
11
6.0214831102362201
21
-4.3588200787401572
0
LINE
8
BLACK
6
CONTINUOUS
10
6.6072464173228349
20
-4.2907967716535431
11
6.6104395669291334
21
-4.2929303937007877
0
LINE
8
BLACK
6
CONTINUOUS
10
6.6104395669291334
20
-4.2929303937007877
11
6.6285348031496065
21
-4.3110256299212599
0
LINE
8
BLACK
6
CONTINUOUS
10
6.6285348031496065
20
-4.3110256299212599
11
6.6306684251968502
21
-4.3142187795275593
0
LINE
8
BLACK
6
CONTINUOUS
10
6.6306684251968502
20
-4.3142187795275593
11
6.6314176377952752
21
-4.317985354330709
0
LINE
8
BLACK
6
CONTINUOUS
10
6.6314176377952752
20
-4.317985354330709
11
6.6306684251968502
21
-4.321751889763779
0
LINE
8
BLACK
6
CONTINUOUS
10
6.6306684251968502
20
-4.321751889763779
11
6.6285348031496065
21
-4.3249450393700783
0
LINE
8
BLACK
6
CONTINUOUS
10
6.6285348031496065
20
-4.3249450393700783
11
6.6034798425196852
21
-4.3499999999999996
0
LINE
8
BLACK
6
CONTINUOUS
10
6.6034798425196852
20
-4.3499999999999996
11
6.6002866929133859
21
-4.3521336220472442
0
LINE
8
BLACK
6
CONTINUOUS
10
6.6002866929133859
20
-4.3521336220472442
11
6.5965201574803149
21
-4.3528828346456692
0
LINE
8
BLACK
6
CONTINUOUS
10
6.5965201574803149
20
-4.3528828346456692
11
6.5927535826771653
21
-4.3521336220472442
0
LINE
8
BLACK
6
CONTINUOUS
10
6.5927535826771653
20
-4.3521336220472442
11
6.5895604330708659
21
-4.3499999999999996
0
LINE
8
BLACK
6
CONTINUOUS
10
6.5895604330708659
20
-4.3499999999999996
11
6.5714651968503937
21
-4.3319047637795274
0
LINE
8
BLACK
6
CONTINUOUS
10
6.5714651968503937
20
-4.3319047637795274
11
6.5693315748031491
21
-4.328711614173228
0
LINE
8
BLACK
6
CONTINUOUS
10
6.5693315748031491
20
-4.328711614173228
11
6.5685823622047241
21
-4.3249450393700783
0
LINE
8
BLACK
6
CONTINUOUS
10
6.5685823622047241
20
-4.3249450393700783
11
6.5693315748031491
21
-4.3211785039370074
0
LINE
8
BLACK
6
CONTINUOUS
10
6.5693315748031491
20
-4.3211785039370074
11
6.5714651968503937
21
-4.317985354330709
0
LINE
8
BLACK
6
CONTINUOUS
10
6.5714651968503937
20
-4.317985354330709
11
6.5965201574803149
21
-4.2929303937007877
0
LINE
8
BLACK
6
CONTINUOUS
10
6.5965201574803149
20
-4.2929303937007877
11
6.5997133070866143
21
-4.2907967716535431
0
LINE
8
BLACK
6
CONTINUOUS
10
6.5997133070866143
20
-4.2907967716535431
11
6.6034798425196852
21
-4.2900475590551181
0
LINE
8
BLACK
6
CONTINUOUS
10
6.6034798425196852
20
-4.2900475590551181
11
6.6072464173228349
21
-4.2907967716535431
0
LINE
8
BLACK
6
CONTINUOUS
10
6.0214831102362201
20
-4.278111417322835
11
6.0246762598425194
21
-4.2802449999999999
0
LINE
8
BLACK
6
CONTINUOUS
10
6.0246762598425194
20
-4.2802449999999999
11
6.0268098425196852
21
-4.2834381496062992
0
LINE
8
BLACK
6
CONTINUOUS
10
6.0268098425196852
20
-4.2834381496062992
11
6.0275590551181102
21
-4.2872047244094489
0
LINE
8
BLACK
6
CONTINUOUS
10
6.0275590551181102
20
-4.2872047244094489
11
6.0275590551181102
21
-4.3127952755905508
0
LINE
8
BLACK
6
CONTINUOUS
10
6.0275590551181102
20
-4.3127952755905508
11
6.0268098425196852
21
-4.3165618503937004
0
LINE
8
BLACK
6
CONTINUOUS
10
6.0268098425196852
20
-4.3165618503937004
11
6.0246762598425194
21
-4.3197549999999998
0
LINE
8
BLACK
6
CONTINUOUS
10
6.0246762598425194
20
-4.3197549999999998
11
6.0214831102362201
21
-4.3218885826771656
0
LINE
8
BLACK
6
CONTINUOUS
10
6.0214831102362201
20
-4.3218885826771656
11
6.0177165354330704
21
-4.3226377952755906
0
LINE
8
BLACK
6
CONTINUOUS
10
6.0177165354330704
20
-4.3226377952755906
11
5.9822834645669287
21
-4.3226377952755906
0
LINE
8
BLACK
6
CONTINUOUS
10
5.9822834645669287
20
-4.3226377952755906
11
5.978516889763779
21
-4.3218885826771656
0
LINE
8
BLACK
6
CONTINUOUS
10
5.978516889763779
20
-4.3218885826771656
11
5.9753237401574806
21
-4.3197549999999998
0
LINE
8
BLACK
6
CONTINUOUS
10
5.9753237401574806
20
-4.3197549999999998
11
5.9731901574803148
21
-4.3165618503937004
0
LINE
8
BLACK
6
CONTINUOUS
10
5.9731901574803148
20
-4.3165618503937004
11
5.9724409448818898
21
-4.3127952755905508
0
LINE
8
BLACK
6
CONTINUOUS
10
5.9724409448818898
20
-4.3127952755905508
11
5.9724409448818898
21
-4.2872047244094489
0
LINE
8
BLACK
6
CONTINUOUS
10
5.9724409448818898
20
-4.2872047244094489
11
5.9731901574803148
21
-4.2834381496062992
0
LINE
8
BLACK
6
CONTINUOUS
10
5.9731901574803148
20
-4.2834381496062992
11
5.9753237401574806
21
-4.2802449999999999
0
LINE
8
BLACK
6
CONTINUOUS
10
5.9753237401574806
20
-4.2802449999999999
11
5.978516889763779
21
-4.278111417322835
0
LINE
8
BLACK
6
CONTINUOUS
10
5.978516889763779
20
-4.278111417322835
11
5.9822834645669287
21
-4.2773622047244091
0
LINE
8
BLACK
6
CONTINUOUS
10
5.9822834645669287
20
-4.2773622047244091
11
6.0177165354330704
21
-4.2773622047244091
0
LINE
8
BLACK
6
CONTINUOUS
10
6.0177165354330704
20
-4.2773622047244091
11
6.0214831102362201
21
-4.278111417322835
0
LINE
8
BLACK
6
CONTINUOUS
10
5.4670539763779527
20
-4.1722059055118113
11
5.470247125984252
21
-4.1743394881889762
0
LINE
8
BLACK
6
CONTINUOUS
10
5.470247125984252
20
-4.1743394881889762
11
5.4723807086614169
21
-4.1775326377952755
0
LINE
8
BLACK
6
CONTINUOUS
10
5.4723807086614169
20
-4.1775326377952755
11
5.4731299212598428
21
-4.1812992125984252
0
LINE
8
BLACK
6
CONTINUOUS
10
5.4731299212598428
20
-4.1812992125984252
11
5.4731299212598428
21
-4.2187007874015743
0
LINE
8
BLACK
6
CONTINUOUS
10
5.4731299212598428
20
-4.2187007874015743
11
5.4723807086614169
21
-4.222467362204724
0
LINE
8
BLACK
6
CONTINUOUS
10
5.4723807086614169
20
-4.222467362204724
11
5.470247125984252
21
-4.2256605118110233
0
LINE
8
BLACK
6
CONTINUOUS
10
5.470247125984252
20
-4.2256605118110233
11
5.4670539763779527
21
-4.2277940944881891
0
LINE
8
BLACK
6
CONTINUOUS
10
5.4670539763779527
20
-4.2277940944881891
11
5.463287401574803
21
-4.2285433070866141
0
LINE
8
BLACK
6
CONTINUOUS
10
5.463287401574803
20
-4.2285433070866141
11
5.4367125984251965
21
-4.2285433070866141
0
LINE
8
BLACK
6
CONTINUOUS
10
5.4367125984251965
20
-4.2285433070866141
11
5.4329460236220468
21
-4.2277940944881891
0
LINE
8
BLACK
6
CONTINUOUS
10
5.4329460236220468
20
-4.2277940944881891
11
5.4297528740157475
21
-4.2256605118110233
0
LINE
8
BLACK
6
CONTINUOUS
10
5.4297528740157475
20
-4.2256605118110233
11
5.4276192913385826
21
-4.222467362204724
0
LINE
8
BLACK
6
CONTINUOUS
10
5.4276192913385826
20
-4.222467362204724
11
5.4268700787401576
21
-4.2187007874015743
0
LINE
8
BLACK
6
CONTINUOUS
10
5.4268700787401576
20
-4.2187007874015743
11
5.4268700787401576
21
-4.1812992125984252
0
LINE
8
BLACK
6
CONTINUOUS
10
5.4268700787401576
20
-4.1812992125984252
11
5.4276192913385826
21
-4.1775326377952755
0
LINE
8
BLACK
6
CONTINUOUS
10
5.4276192913385826
20
-4.1775326377952755
11
5.4297528740157475
21
-4.1743394881889762
0
LINE
8
BLACK
6
CONTINUOUS
10
5.4297528740157475
20
-4.1743394881889762
11
5.4329460236220468
21
-4.1722059055118113
0
LINE
8
BLACK
6
CONTINUOUS
10
5.4329460236220468
20
-4.1722059055118113
11
5.4367125984251965
21
-4.1714566929133854
0
LINE
8
BLACK
6
CONTINUOUS
10
5.4367125984251965
20
-4.1714566929133854
11
5.463287401574803
21
-4.1714566929133854
0
LINE
8
BLACK
6
CONTINUOUS
10
5.463287401574803
20
-4.1714566929133854
11
5.4670539763779527
21
-4.1722059055118113
0
LINE
8
BLACK
6
CONTINUOUS
10
5.5487468897637795
20
-4.1722059055118113
11
5.5519400393700788
21
-4.1743394881889762
0
LINE
8
BLACK
6
CONTINUOUS
10
5.5519400393700788
20
-4.1743394881889762
11
5.5540736220472438
21
-4.1775326377952755
0
LINE
8
BLACK
6
CONTINUOUS
10
5.5540736220472438
20
-4.1775326377952755
11
5.5548228346456687
21
-4.1812992125984252
0
LINE
8
BLACK
6
CONTINUOUS
10
5.5548228346456687
20
-4.1812992125984252
11
5.5548228346456687
21
-4.2187007874015743
0
LINE
8
BLACK
6
CONTINUOUS
10
5.5548228346456687
20
-4.2187007874015743
11
5.5540736220472438
21
-4.222467362204724
0
LINE
8
BLACK
6
CONTINUOUS
10
5.5540736220472438
20
-4.222467362204724
11
5.5519400393700788
21
-4.2256605118110233
0
LINE
8
BLACK
6
CONTINUOUS
10
5.5519400393700788
20
-4.2256605118110233
11
5.5487468897637795
21
-4.2277940944881891
0
LINE
8
BLACK
6
CONTINUOUS
10
5.5487468897637795
20
-4.2277940944881891
11
5.5449803149606298
21
-4.2285433070866141
0
LINE
8
BLACK
6
CONTINUOUS
10
5.5449803149606298
20
-4.2285433070866141
11
5.5184055118110233
21
-4.2285433070866141
0
LINE
8
BLACK
6
CONTINUOUS
10
5.5184055118110233
20
-4.2285433070866141
11
5.5146389370078737
21
-4.2277940944881891
0
LINE
8
BLACK
6
CONTINUOUS
10
5.5146389370078737
20
-4.2277940944881891
11
5.5114457874015743
21
-4.2256605118110233
0
LINE
8
BLACK
6
CONTINUOUS
10
5.5114457874015743
20
-4.2256605118110233
11
5.5093122047244094
21
-4.222467362204724
0
LINE
8
BLACK
6
CONTINUOUS
10
5.5093122047244094
20
-4.222467362204724
11
5.5085629921259844
21
-4.2187007874015743
0
LINE
8
BLACK
6
CONTINUOUS
10
5.5085629921259844
20
-4.2187007874015743
11
5.5085629921259844
21
-4.1812992125984252
0
LINE
8
BLACK
6
CONTINUOUS
10
5.5085629921259844
20
-4.1812992125984252
11
5.5093122047244094
21
-4.1775326377952755
0
LINE
8
BLACK
6
CONTINUOUS
10
5.5093122047244094
20
-4.1775326377952755
11
5.5114457874015743
21
-4.1743394881889762
0
LINE
8
BLACK
6
CONTINUOUS
10
5.5114457874015743
20
-4.1743394881889762
11
5.5146389370078737
21
-4.1722059055118113
0
LINE
8
BLACK
6
CONTINUOUS
10
5.5146389370078737
20
-4.1722059055118113
11
5.5184055118110233
21
-4.1714566929133854
0
LINE
8
BLACK
6
CONTINUOUS
10
5.5184055118110233
20
-4.1714566929133854
11
5.5449803149606298
21
-4.1714566929133854
0
LINE
8
BLACK
6
CONTINUOUS
10
5.5449803149606298
20
-4.1714566929133854
11
5.5487468897637795
21
-4.1722059055118113
0
LINE
8
BLACK
6
CONTINUOUS
10
5.0493508661417321
20
-4.1360981496062994
11
5.0525440157480315
21
-4.1382317322834643
0
LINE
8
BLACK
6
CONTINUOUS
10
5.0525440157480315
20
-4.1382317322834643
11
5.0546775984251964
21
-4.1414248818897637
0
LINE
8
BLACK
6
CONTINUOUS
10
5.0546775984251964
20
-4.1414248818897637
11
5.0554268110236222
21
-4.1451914566929133
0
LINE
8
BLACK
6
CONTINUOUS
10
5.0554268110236222
20
-4.1451914566929133
11
5.0554268110236222
21
-4.1944040551181105
0
LINE
8
BLACK
6
CONTINUOUS
10
5.0554268110236222
20
-4.1944040551181105
11
5.0546775984251964
21
-4.1981706299212593
0
LINE
8
BLACK
6
CONTINUOUS
10
5.0546775984251964
20
-4.1981706299212593
11
5.0525440157480315
21
-4.2013637795275587
0
LINE
8
BLACK
6
CONTINUOUS
10
5.0525440157480315
20
-4.2013637795275587
11
5.0493508661417321
21
-4.2034973622047245
0
LINE
8
BLACK
6
CONTINUOUS
10
5.0493508661417321
20
-4.2034973622047245
11
5.0455842913385824
21
-4.2042465748031494
0
LINE
8
BLACK
6
CONTINUOUS
10
5.0455842913385824
20
-4.2042465748031494
11
5.0140882283464565
21
-4.2042465748031494
0
LINE
8
BLACK
6
CONTINUOUS
10
5.0140882283464565
20
-4.2042465748031494
11
5.0103216535433068
21
-4.2034973622047245
0
LINE
8
BLACK
6
CONTINUOUS
10
5.0103216535433068
20
-4.2034973622047245
11
5.0071285039370075
21
-4.2013637795275587
0
LINE
8
BLACK
6
CONTINUOUS
10
5.0071285039370075
20
-4.2013637795275587
11
5.0049949212598426
21
-4.1981706299212593
0
LINE
8
BLACK
6
CONTINUOUS
10
5.0049949212598426
20
-4.1981706299212593
11
5.0042457086614176
21
-4.1944040551181105
0
LINE
8
BLACK
6
CONTINUOUS
10
5.0042457086614176
20
-4.1944040551181105
11
5.0042457086614176
21
-4.1451914566929133
0
LINE
8
BLACK
6
CONTINUOUS
10
5.0042457086614176
20
-4.1451914566929133
11
5.0049949212598426
21
-4.1414248818897637
0
LINE
8
BLACK
6
CONTINUOUS
10
5.0049949212598426
20
-4.1414248818897637
11
5.0071285039370075
21
-4.1382317322834643
0
LINE
8
BLACK
6
CONTINUOUS
10
5.0071285039370075
20
-4.1382317322834643
11
5.0103216535433068
21
-4.1360981496062994
0
LINE
8
BLACK
6
CONTINUOUS
10
5.0103216535433068
20
-4.1360981496062994
11
5.0140882283464565
21
-4.1353489370078735
0
LINE
8
BLACK
6
CONTINUOUS
10
5.0140882283464565
20
-4.1353489370078735
11
5.0455842913385824
21
-4.1353489370078735
0
LINE
8
BLACK
6
CONTINUOUS
10
5.0455842913385824
20
-4.1353489370078735
11
5.0493508661417321
21
-4.1360981496062994
0
LINE
8
BLACK
6
CONTINUOUS
10
5.1713981102362201
20
-4.1360981496062994
11
5.1745912598425194
21
-4.1382317322834643
0
LINE
8
BLACK
6
CONTINUOUS
10
5.1745912598425194
20
-4.1382317322834643
11
5.1767248425196852
21
-4.1414248818897637
0
LINE
8
BLACK
6
CONTINUOUS
10
5.1767248425196852
20
-4.1414248818897637
11
5.1774740551181102
21
-4.1451914566929133
0
LINE
8
BLACK
6
CONTINUOUS
10
5.1774740551181102
20
-4.1451914566929133
11
5.1774740551181102
21
-4.1944040551181105
0
LINE
8
BLACK
6
CONTINUOUS
10
5.1774740551181102
20
-4.1944040551181105
11
5.1767248425196852
21
-4.1981706299212593
0
LINE
8
BLACK
6
CONTINUOUS
10
5.1767248425196852
20
-4.1981706299212593
11
5.1745912598425194
21
-4.2013637795275587
0
LINE
8
BLACK
6
CONTINUOUS
10
5.1745912598425194
20
-4.2013637795275587
11
5.1713981102362201
21
-4.2034973622047245
0
LINE
8
BLACK
6
CONTINUOUS
10
5.1713981102362201
20
-4.2034973622047245
11
5.1676315354330704
21
-4.2042465748031494
0
LINE
8
BLACK
6
CONTINUOUS
10
5.1676315354330704
20
-4.2042465748031494
11
5.1361354724409445
21
-4.2042465748031494
0
LINE
8
BLACK
6
CONTINUOUS
10
5.1361354724409445
20
-4.2042465748031494
11
5.1323688976377948
21
-4.2034973622047245
0
LINE
8
BLACK
6
CONTINUOUS
10
5.1323688976377948
20
-4.2034973622047245
11
5.1291757480314963
21
-4.2013637795275587
0
LINE
8
BLACK
6
CONTINUOUS
10
5.1291757480314963
20
-4.2013637795275587
11
5.1270421653543305
21
-4.1981706299212593
0
LINE
8
BLACK
6
CONTINUOUS
10
5.1270421653543305
20
-4.1981706299212593
11
5.1262929527559056
21
-4.1944040551181105
0
LINE
8
BLACK
6
CONTINUOUS
10
5.1262929527559056
20
-4.1944040551181105
11
5.1262929527559056
21
-4.1451914566929133
0
LINE
8
BLACK
6
CONTINUOUS
10
5.1262929527559056
20
-4.1451914566929133
11
5.1270421653543305
21
-4.1414248818897637
0
LINE
8
BLACK
6
CONTINUOUS
10
5.1270421653543305
20
-4.1414248818897637
11
5.1291757480314963
21
-4.1382317322834643
0
LINE
8
BLACK
6
CONTINUOUS
10
5.1291757480314963
20
-4.1382317322834643
11
5.1323688976377948
21
-4.1360981496062994
0
LINE
8
BLACK
6
CONTINUOUS
10
5.1323688976377948
20
-4.1360981496062994
11
5.1361354724409445
21
-4.1353489370078735
0
LINE
8
BLACK
6
CONTINUOUS
10
5.1361354724409445
20
-4.1353489370078735
11
5.1676315354330704
21
-4.1353489370078735
0
LINE
8
BLACK
6
CONTINUOUS
10
5.1676315354330704
20
-4.1353489370078735
11
5.1713981102362201
21
-4.1360981496062994
0
LINE
8
BLACK
6
CONTINUOUS
10
5.8783728740157475
20
-4.1472059055118109
11
5.8815660236220468
21
-4.1493394881889767
0
LINE
8
BLACK
6
CONTINUOUS
10
5.8815660236220468
20
-4.1493394881889767
11
5.8836996062992126
21
-4.1525326377952751
0
LINE
8
BLACK
6
CONTINUOUS
10
5.8836996062992126
20
-4.1525326377952751
11
5.8844488188976376
21
-4.1562992125984248
0
LINE
8
BLACK
6
CONTINUOUS
10
5.8844488188976376
20
-4.1562992125984248
11
5.8844488188976376
21
-4.1877952755905508
0
LINE
8
BLACK
6
CONTINUOUS
10
5.8844488188976376
20
-4.1877952755905508
11
5.8836996062992126
21
-4.1915618503937004
0
LINE
8
BLACK
6
CONTINUOUS
10
5.8836996062992126
20
-4.1915618503937004
11
5.8815660236220468
21
-4.1947549999999998
0
LINE
8
BLACK
6
CONTINUOUS
10
5.8815660236220468
20
-4.1947549999999998
11
5.8783728740157475
21
-4.1968885826771656
0
LINE
8
BLACK
6
CONTINUOUS
10
5.8783728740157475
20
-4.1968885826771656
11
5.8746062992125987
21
-4.1976377952755906
0
LINE
8
BLACK
6
CONTINUOUS
10
5.8746062992125987
20
-4.1976377952755906
11
5.8253937007874015
21
-4.1976377952755906
0
LINE
8
BLACK
6
CONTINUOUS
10
5.8253937007874015
20
-4.1976377952755906
11
5.8216271259842518
21
-4.1968885826771656
0
LINE
8
BLACK
6
CONTINUOUS
10
5.8216271259842518
20
-4.1968885826771656
11
5.8184339763779525
21
-4.1947549999999998
0
LINE
8
BLACK
6
CONTINUOUS
10
5.8184339763779525
20
-4.1947549999999998
11
5.8163003937007876
21
-4.1915618503937004
0
LINE
8
BLACK
6
CONTINUOUS
10
5.8163003937007876
20
-4.1915618503937004
11
5.8155511811023617
21
-4.1877952755905508
0
LINE
8
BLACK
6
CONTINUOUS
10
5.8155511811023617
20
-4.1877952755905508
11
5.8155511811023617
21
-4.1562992125984248
0
LINE
8
BLACK
6
CONTINUOUS
10
5.8155511811023617
20
-4.1562992125984248
11
5.8163003937007876
21
-4.1525326377952751
0
LINE
8
BLACK
6
CONTINUOUS
10
5.8163003937007876
20
-4.1525326377952751
11
5.8184339763779525
21
-4.1493394881889767
0
LINE
8
BLACK
6
CONTINUOUS
10
5.8184339763779525
20
-4.1493394881889767
11
5.8216271259842518
21
-4.1472059055118109
0
LINE
8
BLACK
6
CONTINUOUS
10
5.8216271259842518
20
-4.1472059055118109
11
5.8253937007874015
21
-4.1464566929133859
0
LINE
8
BLACK
6
CONTINUOUS
10
5.8253937007874015
20
-4.1464566929133859
11
5.8746062992125987
21
-4.1464566929133859
0
LINE
8
BLACK
6
CONTINUOUS
10
5.8746062992125987
20
-4.1464566929133859
11
5.8783728740157475
21
-4.1472059055118109
0
LINE
8
BLACK
6
CONTINUOUS
10
6.0283728740157478
20
-4.1472059055118109
11
6.0315660236220472
21
-4.1493394881889767
0
LINE
8
BLACK
6
CONTINUOUS
10
6.0315660236220472
20
-4.1493394881889767
11
6.0336996062992121
21
-4.1525326377952751
0
LINE
8
BLACK
6
CONTINUOUS
10
6.0336996062992121
20
-4.1525326377952751
11
6.034448818897638
21
-4.1562992125984248
0
LINE
8
BLACK
6
CONTINUOUS
10
6.034448818897638
20
-4.1562992125984248
11
6.034448818897638
21
-4.1877952755905508
0
LINE
8
BLACK
6
CONTINUOUS
10
6.034448818897638
20
-4.1877952755905508
11
6.0336996062992121
21
-4.1915618503937004
0
LINE
8
BLACK
6
CONTINUOUS
10
6.0336996062992121
20
-4.1915618503937004
11
6.0315660236220472
21
-4.1947549999999998
0
LINE
8
BLACK
6
CONTINUOUS
10
6.0315660236220472
20
-4.1947549999999998
11
6.0283728740157478
21
-4.1968885826771656
0
LINE
8
BLACK
6
CONTINUOUS
10
6.0283728740157478
20
-4.1968885826771656
11
6.0246062992125982
21
-4.1976377952755906
0
LINE
8
BLACK
6
CONTINUOUS
10
6.0246062992125982
20
-4.1976377952755906
11
5.9753937007874018
21
-4.1976377952755906
0
LINE
8
BLACK
6
CONTINUOUS
10
5.9753937007874018
20
-4.1976377952755906
11
5.9716271259842522
21
-4.1968885826771656
0
LINE
8
BLACK
6
CONTINUOUS
10
5.9716271259842522
20
-4.1968885826771656
11
5.9684339763779528
21
-4.1947549999999998
0
LINE
8
BLACK
6
CONTINUOUS
10
5.9684339763779528
20
-4.1947549999999998
11
5.966300393700787
21
-4.1915618503937004
0
LINE
8
BLACK
6
CONTINUOUS
10
5.966300393700787
20
-4.1915618503937004
11
5.965551181102362
21
-4.1877952755905508
0
LINE
8
BLACK
6
CONTINUOUS
10
5.965551181102362
20
-4.1877952755905508
11
5.965551181102362
21
-4.1562992125984248
0
LINE
8
BLACK
6
CONTINUOUS
10
5.965551181102362
20
-4.1562992125984248
11
5.966300393700787
21
-4.1525326377952751
0
LINE
8
BLACK
6
CONTINUOUS
10
5.966300393700787
20
-4.1525326377952751
11
5.9684339763779528
21
-4.1493394881889767
0
LINE
8
BLACK
6
CONTINUOUS
10
5.9684339763779528
20
-4.1493394881889767
11
5.9716271259842522
21
-4.1472059055118109
0
LINE
8
BLACK
6
CONTINUOUS
10
5.9716271259842522
20
-4.1472059055118109
11
5.9753937007874018
21
-4.1464566929133859
0
LINE
8
BLACK
6
CONTINUOUS
10
5.9753937007874018
20
-4.1464566929133859
11
6.0246062992125982
21
-4.1464566929133859
0
LINE
8
BLACK
6
CONTINUOUS
10
6.0246062992125982
20
-4.1464566929133859
11
6.0283728740157478
21
-4.1472059055118109
0
LINE
8
BLACK
6
CONTINUOUS
10
4.978372874015748
20
-4.0861822834645665
11
4.9815660236220474
21
-4.0883158661417323
0
LINE
8
BLACK
6
CONTINUOUS
10
4.9815660236220474
20
-4.0883158661417323
11
4.9836996062992123
21
-4.0915090157480316
0
LINE
8
BLACK
6
CONTINUOUS
10
4.9836996062992123
20
-4.0915090157480316
11
4.9844488188976372
21
-4.0952755905511813
0
LINE
8
BLACK
6
CONTINUOUS
10
4.9844488188976372
20
-4.0952755905511813
11
4.9844488188976372
21
-4.1267716535433072
0
LINE
8
BLACK
6
CONTINUOUS
10
4.9844488188976372
20
-4.1267716535433072
11
4.9836996062992123
21
-4.1305382283464569
0
LINE
8
BLACK
6
CONTINUOUS
10
4.9836996062992123
20
-4.1305382283464569
11
4.9815660236220474
21
-4.1337313779527562
0
LINE
8
BLACK
6
CONTINUOUS
10
4.9815660236220474
20
-4.1337313779527562
11
4.978372874015748
21
-4.1358649606299211
0
LINE
8
BLACK
6
CONTINUOUS
10
4.978372874015748
20
-4.1358649606299211
11
4.9746062992125983
21
-4.1366141732283461
0
LINE
8
BLACK
6
CONTINUOUS
10
4.9746062992125983
20
-4.1366141732283461
11
4.9253937007874011
21
-4.1366141732283461
0
LINE
8
BLACK
6
CONTINUOUS
10
4.9253937007874011
20
-4.1366141732283461
11
4.9216271259842514
21
-4.1358649606299211
0
LINE
8
BLACK
6
CONTINUOUS
10
4.9216271259842514
20
-4.1358649606299211
11
4.918433976377953
21
-4.1337313779527562
0
LINE
8
BLACK
6
CONTINUOUS
10
4.918433976377953
20
-4.1337313779527562
11
4.9163003937007872
21
-4.1305382283464569
0
LINE
8
BLACK
6
CONTINUOUS
10
4.9163003937007872
20
-4.1305382283464569
11
4.9155511811023622
21
-4.1267716535433072
0
LINE
8
BLACK
6
CONTINUOUS
10
4.9155511811023622
20
-4.1267716535433072
11
4.9155511811023622
21
-4.0952755905511813
0
LINE
8
BLACK
6
CONTINUOUS
10
4.9155511811023622
20
-4.0952755905511813
11
4.9163003937007872
21
-4.0915090157480316
0
LINE
8
BLACK
6
CONTINUOUS
10
4.9163003937007872
20
-4.0915090157480316
11
4.918433976377953
21
-4.0883158661417323
0
LINE
8
BLACK
6
CONTINUOUS
10
4.918433976377953
20
-4.0883158661417323
11
4.9216271259842514
21
-4.0861822834645665
0
LINE
8
BLACK
6
CONTINUOUS
10
4.9216271259842514
20
-4.0861822834645665
11
4.9253937007874011
21
-4.0854330708661415
0
LINE
8
BLACK
6
CONTINUOUS
10
4.9253937007874011
20
-4.0854330708661415
11
4.9746062992125983
21
-4.0854330708661415
0
LINE
8
BLACK
6
CONTINUOUS
10
4.9746062992125983
20
-4.0854330708661415
11
4.978372874015748
21
-4.0861822834645665
0
LINE
8
BLACK
6
CONTINUOUS
10
4.7195146062992128
20
-4.0663003937007876
11
4.7227077559055113
21
-4.0684339763779525
0
LINE
8
BLACK
6
CONTINUOUS
10
4.7227077559055113
20
-4.0684339763779525
11
4.7248413385826771
21
-4.0716271259842518
0
LINE
8
BLACK
6
CONTINUOUS
10
4.7248413385826771
20
-4.0716271259842518
11
4.7255905511811021
21
-4.0753937007874015
0
LINE
8
BLACK
6
CONTINUOUS
10
4.7255905511811021
20
-4.0753937007874015
11
4.7255905511811021
21
-4.1246062992125987
0
LINE
8
BLACK
6
CONTINUOUS
10
4.7255905511811021
20
-4.1246062992125987
11
4.7248413385826771
21
-4.1283728740157484
0
LINE
8
BLACK
6
CONTINUOUS
10
4.7248413385826771
20
-4.1283728740157484
11
4.7227077559055113
21
-4.1315660236220468
0
LINE
8
BLACK
6
CONTINUOUS
10
4.7227077559055113
20
-4.1315660236220468
11
4.7195146062992128
21
-4.1336996062992126
0
LINE
8
BLACK
6
CONTINUOUS
10
4.7195146062992128
20
-4.1336996062992126
11
4.7157480314960631
21
-4.1344488188976376
0
LINE
8
BLACK
6
CONTINUOUS
10
4.7157480314960631
20
-4.1344488188976376
11
4.6842519685039372
21
-4.1344488188976376
0
LINE
8
BLACK
6
CONTINUOUS
10
4.6842519685039372
20
-4.1344488188976376
11
4.6804853937007875
21
-4.1336996062992126
0
LINE
8
BLACK
6
CONTINUOUS
10
4.6804853937007875
20
-4.1336996062992126
11
4.6772922440944882
21
-4.1315660236220468
0
LINE
8
BLACK
6
CONTINUOUS
10
4.6772922440944882
20
-4.1315660236220468
11
4.6751586614173224
21
-4.1283728740157484
0
LINE
8
BLACK
6
CONTINUOUS
10
4.6751586614173224
20
-4.1283728740157484
11
4.6744094488188974
21
-4.1246062992125987
0
LINE
8
BLACK
6
CONTINUOUS
10
4.6744094488188974
20
-4.1246062992125987
11
4.6744094488188974
21
-4.0753937007874015
0
LINE
8
BLACK
6
CONTINUOUS
10
4.6744094488188974
20
-4.0753937007874015
11
4.6751586614173224
21
-4.0716271259842518
0
LINE
8
BLACK
6
CONTINUOUS
10
4.6751586614173224
20
-4.0716271259842518
11
4.6772922440944882
21
-4.0684339763779525
0
LINE
8
BLACK
6
CONTINUOUS
10
4.6772922440944882
20
-4.0684339763779525
11
4.6804853937007875
21
-4.0663003937007876
0
LINE
8
BLACK
6
CONTINUOUS
10
4.6804853937007875
20
-4.0663003937007876
11
4.6842519685039372
21
-4.0655511811023617
0
LINE
8
BLACK
6
CONTINUOUS
10
4.6842519685039372
20
-4.0655511811023617
11
4.7157480314960631
21
-4.0655511811023617
0
LINE
8
BLACK
6
CONTINUOUS
10
4.7157480314960631
20
-4.0655511811023617
11
4.7195146062992128
21
-4.0663003937007876
0
LINE
8
BLACK
6
CONTINUOUS
10
4.8415618503937008
20
-4.0663003937007876
11
4.8447550000000001
21
-4.0684339763779525
0
LINE
8
BLACK
6
CONTINUOUS
10
4.8447550000000001
20
-4.0684339763779525
11
4.846888582677165
21
-4.0716271259842518
0
LINE
8
BLACK
6
CONTINUOUS
10
4.846888582677165
20
-4.0716271259842518
11
4.84763779527559
21
-4.0753937007874015
0
LINE
8
BLACK
6
CONTINUOUS
10
4.84763779527559
20
-4.0753937007874015
11
4.84763779527559
21
-4.1246062992125987
0
LINE
8
BLACK
6
CONTINUOUS
10
4.84763779527559
20
-4.1246062992125987
11
4.846888582677165
21
-4.1283728740157484
0
LINE
8
BLACK
6
CONTINUOUS
10
4.846888582677165
20
-4.1283728740157484
11
4.8447550000000001
21
-4.1315660236220468
0
LINE
8
BLACK
6
CONTINUOUS
10
4.8447550000000001
20
-4.1315660236220468
11
4.8415618503937008
21
-4.1336996062992126
0
LINE
8
BLACK
6
CONTINUOUS
10
4.8415618503937008
20
-4.1336996062992126
11
4.8377952755905511
21
-4.1344488188976376
0
LINE
8
BLACK
6
CONTINUOUS
10
4.8377952755905511
20
-4.1344488188976376
11
4.8062992125984252
21
-4.1344488188976376
0
LINE
8
BLACK
6
CONTINUOUS
10
4.8062992125984252
20
-4.1344488188976376
11
4.8025326377952755
21
-4.1336996062992126
0
LINE
8
BLACK
6
CONTINUOUS
10
4.8025326377952755
20
-4.1336996062992126
11
4.7993394881889762
21
-4.1315660236220468
0
LINE
8
BLACK
6
CONTINUOUS
10
4.7993394881889762
20
-4.1315660236220468
11
4.7972059055118113
21
-4.1283728740157484
0
LINE
8
BLACK
6
CONTINUOUS
10
4.7972059055118113
20
-4.1283728740157484
11
4.7964566929133854
21
-4.1246062992125987
0
LINE
8
BLACK
6
CONTINUOUS
10
4.7964566929133854
20
-4.1246062992125987
11
4.7964566929133854
21
-4.0753937007874015
0
LINE
8
BLACK
6
CONTINUOUS
10
4.7964566929133854
20
-4.0753937007874015
11
4.7972059055118113
21
-4.0716271259842518
0
LINE
8
BLACK
6
CONTINUOUS
10
4.7972059055118113
20
-4.0716271259842518
11
4.7993394881889762
21
-4.0684339763779525
0
LINE
8
BLACK
6
CONTINUOUS
10
4.7993394881889762
20
-4.0684339763779525
11
4.8025326377952755
21
-4.0663003937007876
0
LINE
8
BLACK
6
CONTINUOUS
10
4.8025326377952755
20
-4.0663003937007876
11
4.8062992125984252
21
-4.0655511811023617
0
LINE
8
BLACK
6
CONTINUOUS
10
4.8062992125984252
20
-4.0655511811023617
11
4.8377952755905511
21
-4.0655511811023617
0
LINE
8
BLACK
6
CONTINUOUS
10
4.8377952755905511
20
-4.0655511811023617
11
4.8415618503937008
21
-4.0663003937007876
0
LINE
8
BLACK
6
CONTINUOUS
10
6.2695146062992126
20
-4.0663003937007876
11
6.272707755905512
21
-4.0684339763779525
0
LINE
8
BLACK
6
CONTINUOUS
10
6.272707755905512
20
-4.0684339763779525
11
6.2748413385826769
21
-4.0716271259842518
0
LINE
8
BLACK
6
CONTINUOUS
10
6.2748413385826769
20
-4.0716271259842518
11
6.2755905511811019
21
-4.0753937007874015
0
LINE
8
BLACK
6
CONTINUOUS
10
6.2755905511811019
20
-4.0753937007874015
11
6.2755905511811019
21
-4.1246062992125987
0
LINE
8
BLACK
6
CONTINUOUS
10
6.2755905511811019
20
-4.1246062992125987
11
6.2748413385826769
21
-4.1283728740157484
0
LINE
8
BLACK
6
CONTINUOUS
10
6.2748413385826769
20
-4.1283728740157484
11
6.272707755905512
21
-4.1315660236220468
0
LINE
8
BLACK
6
CONTINUOUS
10
6.272707755905512
20
-4.1315660236220468
11
6.2695146062992126
21
-4.1336996062992126
0
LINE
8
BLACK
6
CONTINUOUS
10
6.2695146062992126
20
-4.1336996062992126
11
6.265748031496063
21
-4.1344488188976376
0
LINE
8
BLACK
6
CONTINUOUS
10
6.265748031496063
20
-4.1344488188976376
11
6.234251968503937
21
-4.1344488188976376
0
LINE
8
BLACK
6
CONTINUOUS
10
6.234251968503937
20
-4.1344488188976376
11
6.2304853937007874
21
-4.1336996062992126
0
LINE
8
BLACK
6
CONTINUOUS
10
6.2304853937007874
20
-4.1336996062992126
11
6.227292244094488
21
-4.1315660236220468
0
LINE
8
BLACK
6
CONTINUOUS
10
6.227292244094488
20
-4.1315660236220468
11
6.2251586614173231
21
-4.1283728740157484
0
LINE
8
BLACK
6
CONTINUOUS
10
6.2251586614173231
20
-4.1283728740157484
11
6.2244094488188972
21
-4.1246062992125987
0
LINE
8
BLACK
6
CONTINUOUS
10
6.2244094488188972
20
-4.1246062992125987
11
6.2244094488188972
21
-4.0753937007874015
0
LINE
8
BLACK
6
CONTINUOUS
10
6.2244094488188972
20
-4.0753937007874015
11
6.2251586614173231
21
-4.0716271259842518
0
LINE
8
BLACK
6
CONTINUOUS
10
6.2251586614173231
20
-4.0716271259842518
11
6.227292244094488
21
-4.0684339763779525
0
LINE
8
BLACK
6
CONTINUOUS
10
6.227292244094488
20
-4.0684339763779525
11
6.2304853937007874
21
-4.0663003937007876
0
LINE
8
BLACK
6
CONTINUOUS
10
6.2304853937007874
20
-4.0663003937007876
11
6.234251968503937
21
-4.0655511811023617
0
LINE
8
BLACK
6
CONTINUOUS
10
6.234251968503937
20
-4.0655511811023617
11
6.265748031496063
21
-4.0655511811023617
0
LINE
8
BLACK
6
CONTINUOUS
10
6.265748031496063
20
-4.0655511811023617
11
6.2695146062992126
21
-4.0663003937007876
0
LINE
8
BLACK
6
CONTINUOUS
10
6.3915618503937006
20
-4.0663003937007876
11
6.394755
21
-4.0684339763779525
0
LINE
8
BLACK
6
CONTINUOUS
10
6.394755
20
-4.0684339763779525
11
6.3968885826771649
21
-4.0716271259842518
0
LINE
8
BLACK
6
CONTINUOUS
10
6.3968885826771649
20
-4.0716271259842518
11
6.3976377952755907
21
-4.0753937007874015
0
LINE
8
BLACK
6
CONTINUOUS
10
6.3976377952755907
20
-4.0753937007874015
11
6.3976377952755907
21
-4.1246062992125987
0
LINE
8
BLACK
6
CONTINUOUS
10
6.3976377952755907
20
-4.1246062992125987
11
6.3968885826771649
21
-4.1283728740157484
0
LINE
8
BLACK
6
CONTINUOUS
10
6.3968885826771649
20
-4.1283728740157484
11
6.394755
21
-4.1315660236220468
0
LINE
8
BLACK
6
CONTINUOUS
10
6.394755
20
-4.1315660236220468
11
6.3915618503937006
21
-4.1336996062992126
0
LINE
8
BLACK
6
CONTINUOUS
10
6.3915618503937006
20
-4.1336996062992126
11
6.3877952755905509
21
-4.1344488188976376
0
LINE
8
BLACK
6
CONTINUOUS
10
6.3877952755905509
20
-4.1344488188976376
11
6.356299212598425
21
-4.1344488188976376
0
LINE
8
BLACK
6
CONTINUOUS
10
6.356299212598425
20
-4.1344488188976376
11
6.3525326377952753
21
-4.1336996062992126
0
LINE
8
BLACK
6
CONTINUOUS
10
6.3525326377952753
20
-4.1336996062992126
11
6.349339488188976
21
-4.1315660236220468
0
LINE
8
BLACK
6
CONTINUOUS
10
6.349339488188976
20
-4.1315660236220468
11
6.3472059055118111
21
-4.1283728740157484
0
LINE
8
BLACK
6
CONTINUOUS
10
6.3472059055118111
20
-4.1283728740157484
11
6.3464566929133861
21
-4.1246062992125987
0
LINE
8
BLACK
6
CONTINUOUS
10
6.3464566929133861
20
-4.1246062992125987
11
6.3464566929133861
21
-4.0753937007874015
0
LINE
8
BLACK
6
CONTINUOUS
10
6.3464566929133861
20
-4.0753937007874015
11
6.3472059055118111
21
-4.0716271259842518
0
LINE
8
BLACK
6
CONTINUOUS
10
6.3472059055118111
20
-4.0716271259842518
11
6.349339488188976
21
-4.0684339763779525
0
LINE
8
BLACK
6
CONTINUOUS
10
6.349339488188976
20
-4.0684339763779525
11
6.3525326377952753
21
-4.0663003937007876
0
LINE
8
BLACK
6
CONTINUOUS
10
6.3525326377952753
20
-4.0663003937007876
11
6.356299212598425
21
-4.0655511811023617
0
LINE
8
BLACK
6
CONTINUOUS
10
6.356299212598425
20
-4.0655511811023617
11
6.3877952755905509
21
-4.0655511811023617
0
LINE
8
BLACK
6
CONTINUOUS
10
6.3877952755905509
20
-4.0655511811023617
11
6.3915618503937006
21
-4.0663003937007876
0
LINE
8
BLACK
6
CONTINUOUS
10
4.5665618503937004
20
-4.0731901574803144
11
4.5697549999999998
21
-4.0753237401574802
0
LINE
8
BLACK
6
CONTINUOUS
10
4.5697549999999998
20
-4.0753237401574802
11
4.5718885826771656
21
-4.0785168897637796
0
LINE
8
BLACK
6
CONTINUOUS
10
4.5718885826771656
20
-4.0785168897637796
11
4.5726377952755906
21
-4.0822834645669293
0
LINE
8
BLACK
6
CONTINUOUS
10
4.5726377952755906
20
-4.0822834645669293
11
4.5726377952755906
21
-4.1177165354330709
0
LINE
8
BLACK
6
CONTINUOUS
10
4.5726377952755906
20
-4.1177165354330709
11
4.5718885826771656
21
-4.1214831102362206
0
LINE
8
BLACK
6
CONTINUOUS
10
4.5718885826771656
20
-4.1214831102362206
11
4.5697549999999998
21
-4.12467625984252
0
LINE
8
BLACK
6
CONTINUOUS
10
4.5697549999999998
20
-4.12467625984252
11
4.5665618503937004
21
-4.1268098425196849
0
LINE
8
BLACK
6
CONTINUOUS
10
4.5665618503937004
20
-4.1268098425196849
11
4.5627952755905508
21
-4.1275590551181098
0
LINE
8
BLACK
6
CONTINUOUS
10
4.5627952755905508
20
-4.1275590551181098
11
4.5372047244094489
21
-4.1275590551181098
0
LINE
8
BLACK
6
CONTINUOUS
10
4.5372047244094489
20
-4.1275590551181098
11
4.5334381496062992
21
-4.1268098425196849
0
LINE
8
BLACK
6
CONTINUOUS
10
4.5334381496062992
20
-4.1268098425196849
11
4.5302449999999999
21
-4.12467625984252
0
LINE
8
BLACK
6
CONTINUOUS
10
4.5302449999999999
20
-4.12467625984252
11
4.528111417322835
21
-4.1214831102362206
0
LINE
8
BLACK
6
CONTINUOUS
10
4.528111417322835
20
-4.1214831102362206
11
4.5273622047244091
21
-4.1177165354330709
0
LINE
8
BLACK
6
CONTINUOUS
10
4.5273622047244091
20
-4.1177165354330709
11
4.5273622047244091
21
-4.0822834645669293
0
LINE
8
BLACK
6
CONTINUOUS
10
4.5273622047244091
20
-4.0822834645669293
11
4.528111417322835
21
-4.0785168897637796
0
LINE
8
BLACK
6
CONTINUOUS
10
4.528111417322835
20
-4.0785168897637796
11
4.5302449999999999
21
-4.0753237401574802
0
LINE
8
BLACK
6
CONTINUOUS
10
4.5302449999999999
20
-4.0753237401574802
11
4.5334381496062992
21
-4.0731901574803144
0
LINE
8
BLACK
6
CONTINUOUS
10
4.5334381496062992
20
-4.0731901574803144
11
4.5372047244094489
21
-4.0724409448818895
0
LINE
8
BLACK
6
CONTINUOUS
10
4.5372047244094489
20
-4.0724409448818895
11
4.5627952755905508
21
-4.0724409448818895
0
LINE
8
BLACK
6
CONTINUOUS
10
4.5627952755905508
20
-4.0724409448818895
11
4.5665618503937004
21
-4.0731901574803144
0
LINE
8
BLACK
6
CONTINUOUS
10
4.6472705118110236
20
-4.0731901574803144
11
4.6504636614173229
21
-4.0753237401574802
0
LINE
8
BLACK
6
CONTINUOUS
10
4.6504636614173229
20
-4.0753237401574802
11
4.6525972440944878
21
-4.0785168897637796
0
LINE
8
BLACK
6
CONTINUOUS
10
4.6525972440944878
20
-4.0785168897637796
11
4.6533464566929137
21
-4.0822834645669293
0
LINE
8
BLACK
6
CONTINUOUS
10
4.6533464566929137
20
-4.0822834645669293
11
4.6533464566929137
21
-4.1177165354330709
0
LINE
8
BLACK
6
CONTINUOUS
10
4.6533464566929137
20
-4.1177165354330709
11
4.6525972440944878
21
-4.1214831102362206
0
LINE
8
BLACK
6
CONTINUOUS
10
4.6525972440944878
20
-4.1214831102362206
11
4.6504636614173229
21
-4.12467625984252
0
LINE
8
BLACK
6
CONTINUOUS
10
4.6504636614173229
20
-4.12467625984252
11
4.6472705118110236
21
-4.1268098425196849
0
LINE
8
BLACK
6
CONTINUOUS
10
4.6472705118110236
20
-4.1268098425196849
11
4.6435039370078739
21
-4.1275590551181098
0
LINE
8
BLACK
6
CONTINUOUS
10
4.6435039370078739
20
-4.1275590551181098
11
4.6179133858267711
21
-4.1275590551181098
0
LINE
8
BLACK
6
CONTINUOUS
10
4.6179133858267711
20
-4.1275590551181098
11
4.6141468110236223
21
-4.1268098425196849
0
LINE
8
BLACK
6
CONTINUOUS
10
4.6141468110236223
20
-4.1268098425196849
11
4.610953661417323
21
-4.12467625984252
0
LINE
8
BLACK
6
CONTINUOUS
10
4.610953661417323
20
-4.12467625984252
11
4.6088200787401572
21
-4.1214831102362206
0
LINE
8
BLACK
6
CONTINUOUS
10
4.6088200787401572
20
-4.1214831102362206
11
4.6080708661417322
21
-4.1177165354330709
0
LINE
8
BLACK
6
CONTINUOUS
10
4.6080708661417322
20
-4.1177165354330709
11
4.6080708661417322
21
-4.0822834645669293
0
LINE
8
BLACK
6
CONTINUOUS
10
4.6080708661417322
20
-4.0822834645669293
11
4.6088200787401572
21
-4.0785168897637796
0
LINE
8
BLACK
6
CONTINUOUS
10
4.6088200787401572
20
-4.0785168897637796
11
4.610953661417323
21
-4.0753237401574802
0
LINE
8
BLACK
6
CONTINUOUS
10
4.610953661417323
20
-4.0753237401574802
11
4.6141468110236223
21
-4.0731901574803144
0
LINE
8
BLACK
6
CONTINUOUS
10
4.6141468110236223
20
-4.0731901574803144
11
4.6179133858267711
21
-4.0724409448818895
0
LINE
8
BLACK
6
CONTINUOUS
10
4.6179133858267711
20
-4.0724409448818895
11
4.6435039370078739
21
-4.0724409448818895
0
LINE
8
BLACK
6
CONTINUOUS
10
4.6435039370078739
20
-4.0724409448818895
11
4.6472705118110236
21
-4.0731901574803144
0
LINE
8
BLACK
6
CONTINUOUS
10
5.0724673622047245
20
-4.0684657480314961
11
5.0756605118110238
21
-4.070599330708661
0
LINE
8
BLACK
6
CONTINUOUS
10
5.0756605118110238
20
-4.070599330708661
11
5.0777940944881887
21
-4.0737924803149603
0
LINE
8
BLACK
6
CONTINUOUS
10
5.0777940944881887
20
-4.0737924803149603
11
5.0785433070866137
21
-4.07755905511811
0
LINE
8
BLACK
6
CONTINUOUS
10
5.0785433070866137
20
-4.07755905511811
11
5.0785433070866137
21
-4.1041338582677165
0
LINE
8
BLACK
6
CONTINUOUS
10
5.0785433070866137
20
-4.1041338582677165
11
5.0777940944881887
21
-4.1079004330708662
0
LINE
8
BLACK
6
CONTINUOUS
10
5.0777940944881887
20
-4.1079004330708662
11
5.0756605118110238
21
-4.1110935826771655
0
LINE
8
BLACK
6
CONTINUOUS
10
5.0756605118110238
20
-4.1110935826771655
11
5.0724673622047245
21
-4.1132271653543304
0
LINE
8
BLACK
6
CONTINUOUS
10
5.0724673622047245
20
-4.1132271653543304
11
5.0687007874015748
21
-4.1139763779527554
0
LINE
8
BLACK
6
CONTINUOUS
10
5.0687007874015748
20
-4.1139763779527554
11
5.0312992125984248
21
-4.1139763779527554
0
LINE
8
BLACK
6
CONTINUOUS
10
5.0312992125984248
20
-4.1139763779527554
11
5.0275326377952751
21
-4.1132271653543304
0
LINE
8
BLACK
6
CONTINUOUS
10
5.0275326377952751
20
-4.1132271653543304
11
5.0243394881889767
21
-4.1110935826771655
0
LINE
8
BLACK
6
CONTINUOUS
10
5.0243394881889767
20
-4.1110935826771655
11
5.0222059055118109
21
-4.1079004330708662
0
LINE
8
BLACK
6
CONTINUOUS
10
5.0222059055118109
20
-4.1079004330708662
11
5.0214566929133859
21
-4.1041338582677165
0
LINE
8
BLACK
6
CONTINUOUS
10
5.0214566929133859
20
-4.1041338582677165
11
5.0214566929133859
21
-4.07755905511811
0
LINE
8
BLACK
6
CONTINUOUS
10
5.0214566929133859
20
-4.07755905511811
11
5.0222059055118109
21
-4.0737924803149603
0
LINE
8
BLACK
6
CONTINUOUS
10
5.0222059055118109
20
-4.0737924803149603
11
5.0243394881889767
21
-4.070599330708661
0
LINE
8
BLACK
6
CONTINUOUS
10
5.0243394881889767
20
-4.070599330708661
11
5.0275326377952751
21
-4.0684657480314961
0
LINE
8
BLACK
6
CONTINUOUS
10
5.0275326377952751
20
-4.0684657480314961
11
5.0312992125984248
21
-4.0677165354330711
0
LINE
8
BLACK
6
CONTINUOUS
10
5.0312992125984248
20
-4.0677165354330711
11
5.0687007874015748
21
-4.0677165354330711
0
LINE
8
BLACK
6
CONTINUOUS
10
5.0687007874015748
20
-4.0677165354330711
11
5.0724673622047245
21
-4.0684657480314961
0
LINE
8
BLACK
6
CONTINUOUS
10
5.2831654724409445
20
-4.0345046456692915
11
5.2850813385826774
21
-4.035784803149606
0
LINE
8
BLACK
6
CONTINUOUS
10
5.2850813385826774
20
-4.035784803149606
11
5.2863614960629919
21
-4.0377006692913389
0
LINE
8
BLACK
6
CONTINUOUS
10
5.2863614960629919
20
-4.0377006692913389
11
5.2868110236220467
21
-4.0399606299212598
0
LINE
8
BLACK
6
CONTINUOUS
10
5.2868110236220467
20
-4.0399606299212598
11
5.2868110236220467
21
-4.10492125984252
0
LINE
8
BLACK
6
CONTINUOUS
10
5.2868110236220467
20
-4.10492125984252
11
5.2863614960629919
21
-4.1071812204724409
0
LINE
8
BLACK
6
CONTINUOUS
10
5.2863614960629919
20
-4.1071812204724409
11
5.2850813385826774
21
-4.1090970866141729
0
LINE
8
BLACK
6
CONTINUOUS
10
5.2850813385826774
20
-4.1090970866141729
11
5.2831654724409445
21
-4.1103772440944883
0
LINE
8
BLACK
6
CONTINUOUS
10
5.2831654724409445
20
-4.1103772440944883
11
5.2809055118110235
21
-4.1108267716535432
0
LINE
8
BLACK
6
CONTINUOUS
10
5.2809055118110235
20
-4.1108267716535432
11
5.2690944881889763
21
-4.1108267716535432
0
LINE
8
BLACK
6
CONTINUOUS
10
5.2690944881889763
20
-4.1108267716535432
11
5.2668345275590553
21
-4.1103772440944883
0
LINE
8
BLACK
6
CONTINUOUS
10
5.2668345275590553
20
-4.1103772440944883
11
5.2649186614173225
21
-4.1090970866141729
0
LINE
8
BLACK
6
CONTINUOUS
10
5.2649186614173225
20
-4.1090970866141729
11
5.2636385039370079
21
-4.1071812204724409
0
LINE
8
BLACK
6
CONTINUOUS
10
5.2636385039370079
20
-4.1071812204724409
11
5.2631889763779522
21
-4.10492125984252
0
LINE
8
BLACK
6
CONTINUOUS
10
5.2631889763779522
20
-4.10492125984252
11
5.2631889763779522
21
-4.0399606299212598
0
LINE
8
BLACK
6
CONTINUOUS
10
5.2631889763779522
20
-4.0399606299212598
11
5.2636385039370079
21
-4.0377006692913389
0
LINE
8
BLACK
6
CONTINUOUS
10
5.2636385039370079
20
-4.0377006692913389
11
5.2649186614173225
21
-4.035784803149606
0
LINE
8
BLACK
6
CONTINUOUS
10
5.2649186614173225
20
-4.035784803149606
11
5.2668345275590553
21
-4.0345046456692915
0
LINE
8
BLACK
6
CONTINUOUS
10
5.2668345275590553
20
-4.0345046456692915
11
5.2690944881889763
21
-4.0340551181102358
0
LINE
8
BLACK
6
CONTINUOUS
10
5.2690944881889763
20
-4.0340551181102358
11
5.2809055118110235
21
-4.0340551181102358
0
LINE
8
BLACK
6
CONTINUOUS
10
5.2809055118110235
20
-4.0340551181102358
11
5.2831654724409445
21
-4.0345046456692915
0
LINE
8
BLACK
6
CONTINUOUS
10
5.3331654724409452
20
-4.0345046456692915
11
5.3350813385826772
21
-4.035784803149606
0
LINE
8
BLACK
6
CONTINUOUS
10
5.3350813385826772
20
-4.035784803149606
11
5.3363614960629917
21
-4.0377006692913389
0
LINE
8
BLACK
6
CONTINUOUS
10
5.3363614960629917
20
-4.0377006692913389
11
5.3368110236220474
21
-4.0399606299212598
0
LINE
8
BLACK
6
CONTINUOUS
10
5.3368110236220474
20
-4.0399606299212598
11
5.3368110236220474
21
-4.10492125984252
0
LINE
8
BLACK
6
CONTINUOUS
10
5.3368110236220474
20
-4.10492125984252
11
5.3363614960629917
21
-4.1071812204724409
0
LINE
8
BLACK
6
CONTINUOUS
10
5.3363614960629917
20
-4.1071812204724409
11
5.3350813385826772
21
-4.1090970866141729
0
LINE
8
BLACK
6
CONTINUOUS
10
5.3350813385826772
20
-4.1090970866141729
11
5.3331654724409452
21
-4.1103772440944883
0
LINE
8
BLACK
6
CONTINUOUS
10
5.3331654724409452
20
-4.1103772440944883
11
5.3309055118110233
21
-4.1108267716535432
0
LINE
8
BLACK
6
CONTINUOUS
10
5.3309055118110233
20
-4.1108267716535432
11
5.3190944881889761
21
-4.1108267716535432
0
LINE
8
BLACK
6
CONTINUOUS
10
5.3190944881889761
20
-4.1108267716535432
11
5.3168345275590552
21
-4.1103772440944883
0
LINE
8
BLACK
6
CONTINUOUS
10
5.3168345275590552
20
-4.1103772440944883
11
5.3149186614173223
21
-4.1090970866141729
0
LINE
8
BLACK
6
CONTINUOUS
10
5.3149186614173223
20
-4.1090970866141729
11
5.3136385039370078
21
-4.1071812204724409
0
LINE
8
BLACK
6
CONTINUOUS
10
5.3136385039370078
20
-4.1071812204724409
11
5.313188976377953
21
-4.10492125984252
0
LINE
8
BLACK
6
CONTINUOUS
10
5.313188976377953
20
-4.10492125984252
11
5.313188976377953
21
-4.0399606299212598
0
LINE
8
BLACK
6
CONTINUOUS
10
5.313188976377953
20
-4.0399606299212598
11
5.3136385039370078
21
-4.0377006692913389
0
LINE
8
BLACK
6
CONTINUOUS
10
5.3136385039370078
20
-4.0377006692913389
11
5.3149186614173223
21
-4.035784803149606
0
LINE
8
BLACK
6
CONTINUOUS
10
5.3149186614173223
20
-4.035784803149606
11
5.3168345275590552
21
-4.0345046456692915
0
LINE
8
BLACK
6
CONTINUOUS
10
5.3168345275590552
20
-4.0345046456692915
11
5.3190944881889761
21
-4.0340551181102358
0
LINE
8
BLACK
6
CONTINUOUS
10
5.3190944881889761
20
-4.0340551181102358
11
5.3309055118110233
21
-4.0340551181102358
0
LINE
8
BLACK
6
CONTINUOUS
10
5.3309055118110233
20
-4.0340551181102358
11
5.3331654724409452
21
-4.0345046456692915
0
LINE
8
BLACK
6
CONTINUOUS
10
5.383165472440945
20
-4.0345046456692915
11
5.385081338582677
21
-4.035784803149606
0
LINE
8
BLACK
6
CONTINUOUS
10
5.385081338582677
20
-4.035784803149606
11
5.3863614960629924
21
-4.0377006692913389
0
LINE
8
BLACK
6
CONTINUOUS
10
5.3863614960629924
20
-4.0377006692913389
11
5.3868110236220472
21
-4.0399606299212598
0
LINE
8
BLACK
6
CONTINUOUS
10
5.3868110236220472
20
-4.0399606299212598
11
5.3868110236220472
21
-4.10492125984252
0
LINE
8
BLACK
6
CONTINUOUS
10
5.3868110236220472
20
-4.10492125984252
11
5.3863614960629924
21
-4.1071812204724409
0
LINE
8
BLACK
6
CONTINUOUS
10
5.3863614960629924
20
-4.1071812204724409
11
5.385081338582677
21
-4.1090970866141729
0
LINE
8
BLACK
6
CONTINUOUS
10
5.385081338582677
20
-4.1090970866141729
11
5.383165472440945
21
-4.1103772440944883
0
LINE
8
BLACK
6
CONTINUOUS
10
5.383165472440945
20
-4.1103772440944883
11
5.3809055118110232
21
-4.1108267716535432
0
LINE
8
BLACK
6
CONTINUOUS
10
5.3809055118110232
20
-4.1108267716535432
11
5.3690944881889759
21
-4.1108267716535432
0
LINE
8
BLACK
6
CONTINUOUS
10
5.3690944881889759
20
-4.1108267716535432
11
5.366834527559055
21
-4.1103772440944883
0
LINE
8
BLACK
6
CONTINUOUS
10
5.366834527559055
20
-4.1103772440944883
11
5.364918661417323
21
-4.1090970866141729
0
LINE
8
BLACK
6
CONTINUOUS
10
5.364918661417323
20
-4.1090970866141729
11
5.3636385039370076
21
-4.1071812204724409
0
LINE
8
BLACK
6
CONTINUOUS
10
5.3636385039370076
20
-4.1071812204724409
11
5.3631889763779528
21
-4.10492125984252
0
LINE
8
BLACK
6
CONTINUOUS
10
5.3631889763779528
20
-4.10492125984252
11
5.3631889763779528
21
-4.0399606299212598
0
LINE
8
BLACK
6
CONTINUOUS
10
5.3631889763779528
20
-4.0399606299212598
11
5.3636385039370076
21
-4.0377006692913389
0
LINE
8
BLACK
6
CONTINUOUS
10
5.3636385039370076
20
-4.0377006692913389
11
5.364918661417323
21
-4.035784803149606
0
LINE
8
BLACK
6
CONTINUOUS
10
5.364918661417323
20
-4.035784803149606
11
5.366834527559055
21
-4.0345046456692915
0
LINE
8
BLACK
6
CONTINUOUS
10
5.366834527559055
20
-4.0345046456692915
11
5.3690944881889759
21
-4.0340551181102358
0
LINE
8
BLACK
6
CONTINUOUS
10
5.3690944881889759
20
-4.0340551181102358
11
5.3809055118110232
21
-4.0340551181102358
0
LINE
8
BLACK
6
CONTINUOUS
10
5.3809055118110232
20
-4.0340551181102358
11
5.383165472440945
21
-4.0345046456692915
0
LINE
8
BLACK
6
CONTINUOUS
10
5.4331654724409448
20
-4.0345046456692915
11
5.4350813385826768
21
-4.035784803149606
0
LINE
8
BLACK
6
CONTINUOUS
10
5.4350813385826768
20
-4.035784803149606
11
5.4363614960629922
21
-4.0377006692913389
0
LINE
8
BLACK
6
CONTINUOUS
10
5.4363614960629922
20
-4.0377006692913389
11
5.436811023622047
21
-4.0399606299212598
0
LINE
8
BLACK
6
CONTINUOUS
10
5.436811023622047
20
-4.0399606299212598
11
5.436811023622047
21
-4.10492125984252
0
LINE
8
BLACK
6
CONTINUOUS
10
5.436811023622047
20
-4.10492125984252
11
5.4363614960629922
21
-4.1071812204724409
0
LINE
8
BLACK
6
CONTINUOUS
10
5.4363614960629922
20
-4.1071812204724409
11
5.4350813385826768
21
-4.1090970866141729
0
LINE
8
BLACK
6
CONTINUOUS
10
5.4350813385826768
20
-4.1090970866141729
11
5.4331654724409448
21
-4.1103772440944883
0
LINE
8
BLACK
6
CONTINUOUS
10
5.4331654724409448
20
-4.1103772440944883
11
5.4309055118110239
21
-4.1108267716535432
0
LINE
8
BLACK
6
CONTINUOUS
10
5.4309055118110239
20
-4.1108267716535432
11
5.4190944881889767
21
-4.1108267716535432
0
LINE
8
BLACK
6
CONTINUOUS
10
5.4190944881889767
20
-4.1108267716535432
11
5.4168345275590548
21
-4.1103772440944883
0
LINE
8
BLACK
6
CONTINUOUS
10
5.4168345275590548
20
-4.1103772440944883
11
5.4149186614173228
21
-4.1090970866141729
0
LINE
8
BLACK
6
CONTINUOUS
10
5.4149186614173228
20
-4.1090970866141729
11
5.4136385039370074
21
-4.1071812204724409
0
LINE
8
BLACK
6
CONTINUOUS
10
5.4136385039370074
20
-4.1071812204724409
11
5.4131889763779526
21
-4.10492125984252
0
LINE
8
BLACK
6
CONTINUOUS
10
5.4131889763779526
20
-4.10492125984252
11
5.4131889763779526
21
-4.0399606299212598
0
LINE
8
BLACK
6
CONTINUOUS
10
5.4131889763779526
20
-4.0399606299212598
11
5.4136385039370074
21
-4.0377006692913389
0
LINE
8
BLACK
6
CONTINUOUS
10
5.4136385039370074
20
-4.0377006692913389
11
5.4149186614173228
21
-4.035784803149606
0
LINE
8
BLACK
6
CONTINUOUS
10
5.4149186614173228
20
-4.035784803149606
11
5.4168345275590548
21
-4.0345046456692915
0
LINE
8
BLACK
6
CONTINUOUS
10
5.4168345275590548
20
-4.0345046456692915
11
5.4190944881889767
21
-4.0340551181102358
0
LINE
8
BLACK
6
CONTINUOUS
10
5.4190944881889767
20
-4.0340551181102358
11
5.4309055118110239
21
-4.0340551181102358
0
LINE
8
BLACK
6
CONTINUOUS
10
5.4309055118110239
20
-4.0340551181102358
11
5.4331654724409448
21
-4.0345046456692915
0
LINE
8
BLACK
6
CONTINUOUS
10
5.4831654724409447
20
-4.0345046456692915
11
5.4850813385826767
21
-4.035784803149606
0
LINE
8
BLACK
6
CONTINUOUS
10
5.4850813385826767
20
-4.035784803149606
11
5.4863614960629921
21
-4.0377006692913389
0
LINE
8
BLACK
6
CONTINUOUS
10
5.4863614960629921
20
-4.0377006692913389
11
5.4868110236220469
21
-4.0399606299212598
0
LINE
8
BLACK
6
CONTINUOUS
10
5.4868110236220469
20
-4.0399606299212598
11
5.4868110236220469
21
-4.10492125984252
0
LINE
8
BLACK
6
CONTINUOUS
10
5.4868110236220469
20
-4.10492125984252
11
5.4863614960629921
21
-4.1071812204724409
0
LINE
8
BLACK
6
CONTINUOUS
10
5.4863614960629921
20
-4.1071812204724409
11
5.4850813385826767
21
-4.1090970866141729
0
LINE
8
BLACK
6
CONTINUOUS
10
5.4850813385826767
20
-4.1090970866141729
11
5.4831654724409447
21
-4.1103772440944883
0
LINE
8
BLACK
6
CONTINUOUS
10
5.4831654724409447
20
-4.1103772440944883
11
5.4809055118110237
21
-4.1108267716535432
0
LINE
8
BLACK
6
CONTINUOUS
10
5.4809055118110237
20
-4.1108267716535432
11
5.4690944881889765
21
-4.1108267716535432
0
LINE
8
BLACK
6
CONTINUOUS
10
5.4690944881889765
20
-4.1108267716535432
11
5.4668345275590546
21
-4.1103772440944883
0
LINE
8
BLACK
6
CONTINUOUS
10
5.4668345275590546
20
-4.1103772440944883
11
5.4649186614173226
21
-4.1090970866141729
0
LINE
8
BLACK
6
CONTINUOUS
10
5.4649186614173226
20
-4.1090970866141729
11
5.4636385039370081
21
-4.1071812204724409
0
LINE
8
BLACK
6
CONTINUOUS
10
5.4636385039370081
20
-4.1071812204724409
11
5.4631889763779524
21
-4.10492125984252
0
LINE
8
BLACK
6
CONTINUOUS
10
5.4631889763779524
20
-4.10492125984252
11
5.4631889763779524
21
-4.0399606299212598
0
LINE
8
BLACK
6
CONTINUOUS
10
5.4631889763779524
20
-4.0399606299212598
11
5.4636385039370081
21
-4.0377006692913389
0
LINE
8
BLACK
6
CONTINUOUS
10
5.4636385039370081
20
-4.0377006692913389
11
5.4649186614173226
21
-4.035784803149606
0
LINE
8
BLACK
6
CONTINUOUS
10
5.4649186614173226
20
-4.035784803149606
11
5.4668345275590546
21
-4.0345046456692915
0
LINE
8
BLACK
6
CONTINUOUS
10
5.4668345275590546
20
-4.0345046456692915
11
5.4690944881889765
21
-4.0340551181102358
0
LINE
8
BLACK
6
CONTINUOUS
10
5.4690944881889765
20
-4.0340551181102358
11
5.4809055118110237
21
-4.0340551181102358
0
LINE
8
BLACK
6
CONTINUOUS
10
5.4809055118110237
20
-4.0340551181102358
11
5.4831654724409447
21
-4.0345046456692915
0
LINE
8
BLACK
6
CONTINUOUS
10
5.5331654724409445
20
-4.0345046456692915
11
5.5350813385826774
21
-4.035784803149606
0
LINE
8
BLACK
6
CONTINUOUS
10
5.5350813385826774
20
-4.035784803149606
11
5.5363614960629919
21
-4.0377006692913389
0
LINE
8
BLACK
6
CONTINUOUS
10
5.5363614960629919
20
-4.0377006692913389
11
5.5368110236220467
21
-4.0399606299212598
0
LINE
8
BLACK
6
CONTINUOUS
10
5.5368110236220467
20
-4.0399606299212598
11
5.5368110236220467
21
-4.10492125984252
0
LINE
8
BLACK
6
CONTINUOUS
10
5.5368110236220467
20
-4.10492125984252
11
5.5363614960629919
21
-4.1071812204724409
0
LINE
8
BLACK
6
CONTINUOUS
10
5.5363614960629919
20
-4.1071812204724409
11
5.5350813385826774
21
-4.1090970866141729
0
LINE
8
BLACK
6
CONTINUOUS
10
5.5350813385826774
20
-4.1090970866141729
11
5.5331654724409445
21
-4.1103772440944883
0
LINE
8
BLACK
6
CONTINUOUS
10
5.5331654724409445
20
-4.1103772440944883
11
5.5309055118110235
21
-4.1108267716535432
0
LINE
8
BLACK
6
CONTINUOUS
10
5.5309055118110235
20
-4.1108267716535432
11
5.5190944881889763
21
-4.1108267716535432
0
LINE
8
BLACK
6
CONTINUOUS
10
5.5190944881889763
20
-4.1108267716535432
11
5.5168345275590553
21
-4.1103772440944883
0
LINE
8
BLACK
6
CONTINUOUS
10
5.5168345275590553
20
-4.1103772440944883
11
5.5149186614173225
21
-4.1090970866141729
0
LINE
8
BLACK
6
CONTINUOUS
10
5.5149186614173225
20
-4.1090970866141729
11
5.5136385039370079
21
-4.1071812204724409
0
LINE
8
BLACK
6
CONTINUOUS
10
5.5136385039370079
20
-4.1071812204724409
11
5.5131889763779522
21
-4.10492125984252
0
LINE
8
BLACK
6
CONTINUOUS
10
5.5131889763779522
20
-4.10492125984252
11
5.5131889763779522
21
-4.0399606299212598
0
LINE
8
BLACK
6
CONTINUOUS
10
5.5131889763779522
20
-4.0399606299212598
11
5.5136385039370079
21
-4.0377006692913389
0
LINE
8
BLACK
6
CONTINUOUS
10
5.5136385039370079
20
-4.0377006692913389
11
5.5149186614173225
21
-4.035784803149606
0
LINE
8
BLACK
6
CONTINUOUS
10
5.5149186614173225
20
-4.035784803149606
11
5.5168345275590553
21
-4.0345046456692915
0
LINE
8
BLACK
6
CONTINUOUS
10
5.5168345275590553
20
-4.0345046456692915
11
5.5190944881889763
21
-4.0340551181102358
0
LINE
8
BLACK
6
CONTINUOUS
10
5.5190944881889763
20
-4.0340551181102358
11
5.5309055118110235
21
-4.0340551181102358
0
LINE
8
BLACK
6
CONTINUOUS
10
5.5309055118110235
20
-4.0340551181102358
11
5.5331654724409445
21
-4.0345046456692915
0
LINE
8
BLACK
6
CONTINUOUS
10
5.5831654724409452
20
-4.0345046456692915
11
5.5850813385826772
21
-4.035784803149606
0
LINE
8
BLACK
6
CONTINUOUS
10
5.5850813385826772
20
-4.035784803149606
11
5.5863614960629917
21
-4.0377006692913389
0
LINE
8
BLACK
6
CONTINUOUS
10
5.5863614960629917
20
-4.0377006692913389
11
5.5868110236220474
21
-4.0399606299212598
0
LINE
8
BLACK
6
CONTINUOUS
10
5.5868110236220474
20
-4.0399606299212598
11
5.5868110236220474
21
-4.10492125984252
0
LINE
8
BLACK
6
CONTINUOUS
10
5.5868110236220474
20
-4.10492125984252
11
5.5863614960629917
21
-4.1071812204724409
0
LINE
8
BLACK
6
CONTINUOUS
10
5.5863614960629917
20
-4.1071812204724409
11
5.5850813385826772
21
-4.1090970866141729
0
LINE
8
BLACK
6
CONTINUOUS
10
5.5850813385826772
20
-4.1090970866141729
11
5.5831654724409452
21
-4.1103772440944883
0
LINE
8
BLACK
6
CONTINUOUS
10
5.5831654724409452
20
-4.1103772440944883
11
5.5809055118110233
21
-4.1108267716535432
0
LINE
8
BLACK
6
CONTINUOUS
10
5.5809055118110233
20
-4.1108267716535432
11
5.5690944881889761
21
-4.1108267716535432
0
LINE
8
BLACK
6
CONTINUOUS
10
5.5690944881889761
20
-4.1108267716535432
11
5.5668345275590552
21
-4.1103772440944883
0
LINE
8
BLACK
6
CONTINUOUS
10
5.5668345275590552
20
-4.1103772440944883
11
5.5649186614173223
21
-4.1090970866141729
0
LINE
8
BLACK
6
CONTINUOUS
10
5.5649186614173223
20
-4.1090970866141729
11
5.5636385039370078
21
-4.1071812204724409
0
LINE
8
BLACK
6
CONTINUOUS
10
5.5636385039370078
20
-4.1071812204724409
11
5.563188976377953
21
-4.10492125984252
0
LINE
8
BLACK
6
CONTINUOUS
10
5.563188976377953
20
-4.10492125984252
11
5.563188976377953
21
-4.0399606299212598
0
LINE
8
BLACK
6
CONTINUOUS
10
5.563188976377953
20
-4.0399606299212598
11
5.5636385039370078
21
-4.0377006692913389
0
LINE
8
BLACK
6
CONTINUOUS
10
5.5636385039370078
20
-4.0377006692913389
11
5.5649186614173223
21
-4.035784803149606
0
LINE
8
BLACK
6
CONTINUOUS
10
5.5649186614173223
20
-4.035784803149606
11
5.5668345275590552
21
-4.0345046456692915
0
LINE
8
BLACK
6
CONTINUOUS
10
5.5668345275590552
20
-4.0345046456692915
11
5.5690944881889761
21
-4.0340551181102358
0
LINE
8
BLACK
6
CONTINUOUS
10
5.5690944881889761
20
-4.0340551181102358
11
5.5809055118110233
21
-4.0340551181102358
0
LINE
8
BLACK
6
CONTINUOUS
10
5.5809055118110233
20
-4.0340551181102358
11
5.5831654724409452
21
-4.0345046456692915
0
LINE
8
BLACK
6
CONTINUOUS
10
5.633165472440945
20
-4.0345046456692915
11
5.635081338582677
21
-4.035784803149606
0
LINE
8
BLACK
6
CONTINUOUS
10
5.635081338582677
20
-4.035784803149606
11
5.6363614960629924
21
-4.0377006692913389
0
LINE
8
BLACK
6
CONTINUOUS
10
5.6363614960629924
20
-4.0377006692913389
11
5.6368110236220472
21
-4.0399606299212598
0
LINE
8
BLACK
6
CONTINUOUS
10
5.6368110236220472
20
-4.0399606299212598
11
5.6368110236220472
21
-4.10492125984252
0
LINE
8
BLACK
6
CONTINUOUS
10
5.6368110236220472
20
-4.10492125984252
11
5.6363614960629924
21
-4.1071812204724409
0
LINE
8
BLACK
6
CONTINUOUS
10
5.6363614960629924
20
-4.1071812204724409
11
5.635081338582677
21
-4.1090970866141729
0
LINE
8
BLACK
6
CONTINUOUS
10
5.635081338582677
20
-4.1090970866141729
11
5.633165472440945
21
-4.1103772440944883
0
LINE
8
BLACK
6
CONTINUOUS
10
5.633165472440945
20
-4.1103772440944883
11
5.6309055118110232
21
-4.1108267716535432
0
LINE
8
BLACK
6
CONTINUOUS
10
5.6309055118110232
20
-4.1108267716535432
11
5.6190944881889759
21
-4.1108267716535432
0
LINE
8
BLACK
6
CONTINUOUS
10
5.6190944881889759
20
-4.1108267716535432
11
5.616834527559055
21
-4.1103772440944883
0
LINE
8
BLACK
6
CONTINUOUS
10
5.616834527559055
20
-4.1103772440944883
11
5.614918661417323
21
-4.1090970866141729
0
LINE
8
BLACK
6
CONTINUOUS
10
5.614918661417323
20
-4.1090970866141729
11
5.6136385039370076
21
-4.1071812204724409
0
LINE
8
BLACK
6
CONTINUOUS
10
5.6136385039370076
20
-4.1071812204724409
11
5.6131889763779528
21
-4.10492125984252
0
LINE
8
BLACK
6
CONTINUOUS
10
5.6131889763779528
20
-4.10492125984252
11
5.6131889763779528
21
-4.0399606299212598
0
LINE
8
BLACK
6
CONTINUOUS
10
5.6131889763779528
20
-4.0399606299212598
11
5.6136385039370076
21
-4.0377006692913389
0
LINE
8
BLACK
6
CONTINUOUS
10
5.6136385039370076
20
-4.0377006692913389
11
5.614918661417323
21
-4.035784803149606
0
LINE
8
BLACK
6
CONTINUOUS
10
5.614918661417323
20
-4.035784803149606
11
5.616834527559055
21
-4.0345046456692915
0
LINE
8
BLACK
6
CONTINUOUS
10
5.616834527559055
20
-4.0345046456692915
11
5.6190944881889759
21
-4.0340551181102358
0
LINE
8
BLACK
6
CONTINUOUS
10
5.6190944881889759
20
-4.0340551181102358
11
5.6309055118110232
21
-4.0340551181102358
0
LINE
8
BLACK
6
CONTINUOUS
10
5.6309055118110232
20
-4.0340551181102358
11
5.633165472440945
21
-4.0345046456692915
0
LINE
8
BLACK
6
CONTINUOUS
10
5.8783728740157475
20
-4.0251586614173229
11
5.8815660236220468
21
-4.0272922440944878
0
LINE
8
BLACK
6
CONTINUOUS
10
5.8815660236220468
20
-4.0272922440944878
11
5.8836996062992126
21
-4.0304853937007872
0
LINE
8
BLACK
6
CONTINUOUS
10
5.8836996062992126
20
-4.0304853937007872
11
5.8844488188976376
21
-4.0342519685039369
0
LINE
8
BLACK
6
CONTINUOUS
10
5.8844488188976376
20
-4.0342519685039369
11
5.8844488188976376
21
-4.0657480314960628
0
LINE
8
BLACK
6
CONTINUOUS
10
5.8844488188976376
20
-4.0657480314960628
11
5.8836996062992126
21
-4.0695146062992125
0
LINE
8
BLACK
6
CONTINUOUS
10
5.8836996062992126
20
-4.0695146062992125
11
5.8815660236220468
21
-4.0727077559055118
0
LINE
8
BLACK
6
CONTINUOUS
10
5.8815660236220468
20
-4.0727077559055118
11
5.8783728740157475
21
-4.0748413385826767
0
LINE
8
BLACK
6
CONTINUOUS
10
5.8783728740157475
20
-4.0748413385826767
11
5.8746062992125987
21
-4.0755905511811026
0
LINE
8
BLACK
6
CONTINUOUS
10
5.8746062992125987
20
-4.0755905511811026
11
5.8253937007874015
21
-4.0755905511811026
0
LINE
8
BLACK
6
CONTINUOUS
10
5.8253937007874015
20
-4.0755905511811026
11
5.8216271259842518
21
-4.0748413385826767
0
LINE
8
BLACK
6
CONTINUOUS
10
5.8216271259842518
20
-4.0748413385826767
11
5.8184339763779525
21
-4.0727077559055118
0
LINE
8
BLACK
6
CONTINUOUS
10
5.8184339763779525
20
-4.0727077559055118
11
5.8163003937007876
21
-4.0695146062992125
0
LINE
8
BLACK
6
CONTINUOUS
10
5.8163003937007876
20
-4.0695146062992125
11
5.8155511811023617
21
-4.0657480314960628
0
LINE
8
BLACK
6
CONTINUOUS
10
5.8155511811023617
20
-4.0657480314960628
11
5.8155511811023617
21
-4.0342519685039369
0
LINE
8
BLACK
6
CONTINUOUS
10
5.8155511811023617
20
-4.0342519685039369
11
5.8163003937007876
21
-4.0304853937007872
0
LINE
8
BLACK
6
CONTINUOUS
10
5.8163003937007876
20
-4.0304853937007872
11
5.8184339763779525
21
-4.0272922440944878
0
LINE
8
BLACK
6
CONTINUOUS
10
5.8184339763779525
20
-4.0272922440944878
11
5.8216271259842518
21
-4.0251586614173229
0
LINE
8
BLACK
6
CONTINUOUS
10
5.8216271259842518
20
-4.0251586614173229
11
5.8253937007874015
21
-4.0244094488188979
0
LINE
8
BLACK
6
CONTINUOUS
10
5.8253937007874015
20
-4.0244094488188979
11
5.8746062992125987
21
-4.0244094488188979
0
LINE
8
BLACK
6
CONTINUOUS
10
5.8746062992125987
20
-4.0244094488188979
11
5.8783728740157475
21
-4.0251586614173229
0
LINE
8
BLACK
6
CONTINUOUS
10
6.0283728740157478
20
-4.0251586614173229
11
6.0315660236220472
21
-4.0272922440944878
0
LINE
8
BLACK
6
CONTINUOUS
10
6.0315660236220472
20
-4.0272922440944878
11
6.0336996062992121
21
-4.0304853937007872
0
LINE
8
BLACK
6
CONTINUOUS
10
6.0336996062992121
20
-4.0304853937007872
11
6.034448818897638
21
-4.0342519685039369
0
LINE
8
BLACK
6
CONTINUOUS
10
6.034448818897638
20
-4.0342519685039369
11
6.034448818897638
21
-4.0657480314960628
0
LINE
8
BLACK
6
CONTINUOUS
10
6.034448818897638
20
-4.0657480314960628
11
6.0336996062992121
21
-4.0695146062992125
0
LINE
8
BLACK
6
CONTINUOUS
10
6.0336996062992121
20
-4.0695146062992125
11
6.0315660236220472
21
-4.0727077559055118
0
LINE
8
BLACK
6
CONTINUOUS
10
6.0315660236220472
20
-4.0727077559055118
11
6.0283728740157478
21
-4.0748413385826767
0
LINE
8
BLACK
6
CONTINUOUS
10
6.0283728740157478
20
-4.0748413385826767
11
6.0246062992125982
21
-4.0755905511811026
0
LINE
8
BLACK
6
CONTINUOUS
10
6.0246062992125982
20
-4.0755905511811026
11
5.9753937007874018
21
-4.0755905511811026
0
LINE
8
BLACK
6
CONTINUOUS
10
5.9753937007874018
20
-4.0755905511811026
11
5.9716271259842522
21
-4.0748413385826767
0
LINE
8
BLACK
6
CONTINUOUS
10
5.9716271259842522
20
-4.0748413385826767
11
5.9684339763779528
21
-4.0727077559055118
0
LINE
8
BLACK
6
CONTINUOUS
10
5.9684339763779528
20
-4.0727077559055118
11
5.966300393700787
21
-4.0695146062992125
0
LINE
8
BLACK
6
CONTINUOUS
10
5.966300393700787
20
-4.0695146062992125
11
5.965551181102362
21
-4.0657480314960628
0
LINE
8
BLACK
6
CONTINUOUS
10
5.965551181102362
20
-4.0657480314960628
11
5.965551181102362
21
-4.0342519685039369
0
LINE
8
BLACK
6
CONTINUOUS
10
5.965551181102362
20
-4.0342519685039369
11
5.966300393700787
21
-4.0304853937007872
0
LINE
8
BLACK
6
CONTINUOUS
10
5.966300393700787
20
-4.0304853937007872
11
5.9684339763779528
21
-4.0272922440944878
0
LINE
8
BLACK
6
CONTINUOUS
10
5.9684339763779528
20
-4.0272922440944878
11
5.9716271259842522
21
-4.0251586614173229
0
LINE
8
BLACK
6
CONTINUOUS
10
5.9716271259842522
20
-4.0251586614173229
11
5.9753937007874018
21
-4.0244094488188979
0
LINE
8
BLACK
6
CONTINUOUS
10
5.9753937007874018
20
-4.0244094488188979
11
6.0246062992125982
21
-4.0244094488188979
0
LINE
8
BLACK
6
CONTINUOUS
10
6.0246062992125982
20
-4.0244094488188979
11
6.0283728740157478
21
-4.0251586614173229
0
LINE
8
BLACK
6
CONTINUOUS
10
6.1783728740157482
20
-3.997205905511811
11
6.1815660236220475
21
-3.9993394881889763
0
LINE
8
BLACK
6
CONTINUOUS
10
6.1815660236220475
20
-3.9993394881889763
11
6.1836996062992124
21
-4.0025326377952757
0
LINE
8
BLACK
6
CONTINUOUS
10
6.1836996062992124
20
-4.0025326377952757
11
6.1844488188976374
21
-4.0062992125984254
0
LINE
8
BLACK
6
CONTINUOUS
10
6.1844488188976374
20
-4.0062992125984254
11
6.1844488188976374
21
-4.0377952755905513
0
LINE
8
BLACK
6
CONTINUOUS
10
6.1844488188976374
20
-4.0377952755905513
11
6.1836996062992124
21
-4.041561850393701
0
LINE
8
BLACK
6
CONTINUOUS
10
6.1836996062992124
20
-4.041561850393701
11
6.1815660236220475
21
-4.0447550000000003
0
LINE
8
BLACK
6
CONTINUOUS
10
6.1815660236220475
20
-4.0447550000000003
11
6.1783728740157482
21
-4.0468885826771652
0
LINE
8
BLACK
6
CONTINUOUS
10
6.1783728740157482
20
-4.0468885826771652
11
6.1746062992125985
21
-4.0476377952755902
0
LINE
8
BLACK
6
CONTINUOUS
10
6.1746062992125985
20
-4.0476377952755902
11
6.1253937007874013
21
-4.0476377952755902
0
LINE
8
BLACK
6
CONTINUOUS
10
6.1253937007874013
20
-4.0476377952755902
11
6.1216271259842516
21
-4.0468885826771652
0
LINE
8
BLACK
6
CONTINUOUS
10
6.1216271259842516
20
-4.0468885826771652
11
6.1184339763779523
21
-4.0447550000000003
0
LINE
8
BLACK
6
CONTINUOUS
10
6.1184339763779523
20
-4.0447550000000003
11
6.1163003937007874
21
-4.041561850393701
0
LINE
8
BLACK
6
CONTINUOUS
10
6.1163003937007874
20
-4.041561850393701
11
6.1155511811023624
21
-4.0377952755905513
0
LINE
8
BLACK
6
CONTINUOUS
10
6.1155511811023624
20
-4.0377952755905513
11
6.1155511811023624
21
-4.0062992125984254
0
LINE
8
BLACK
6
CONTINUOUS
10
6.1155511811023624
20
-4.0062992125984254
11
6.1163003937007874
21
-4.0025326377952757
0
LINE
8
BLACK
6
CONTINUOUS
10
6.1163003937007874
20
-4.0025326377952757
11
6.1184339763779523
21
-3.9993394881889763
0
LINE
8
BLACK
6
CONTINUOUS
10
6.1184339763779523
20
-3.9993394881889763
11
6.1216271259842516
21
-3.997205905511811
0
LINE
8
BLACK
6
CONTINUOUS
10
6.1216271259842516
20
-3.997205905511811
11
6.1253937007874013
21
-3.9964566929133856
0
LINE
8
BLACK
6
CONTINUOUS
10
6.1253937007874013
20
-3.9964566929133856
11
6.1746062992125985
21
-3.9964566929133856
0
LINE
8
BLACK
6
CONTINUOUS
10
6.1746062992125985
20
-3.9964566929133856
11
6.1783728740157482
21
-3.997205905511811
0
LINE
8
BLACK
6
CONTINUOUS
10
5.0724673622047245
20
-3.9867728346456692
11
5.0756605118110238
21
-3.9889064173228346
0
LINE
8
BLACK
6
CONTINUOUS
10
5.0756605118110238
20
-3.9889064173228346
11
5.0777940944881887
21
-3.9920995669291339
0
LINE
8
BLACK
6
CONTINUOUS
10
5.0777940944881887
20
-3.9920995669291339
11
5.0785433070866137
21
-3.9958661417322832
0
LINE
8
BLACK
6
CONTINUOUS
10
5.0785433070866137
20
-3.9958661417322832
11
5.0785433070866137
21
-4.0224409448818896
0
LINE
8
BLACK
6
CONTINUOUS
10
5.0785433070866137
20
-4.0224409448818896
11
5.0777940944881887
21
-4.0262075196850393
0
LINE
8
BLACK
6
CONTINUOUS
10
5.0777940944881887
20
-4.0262075196850393
11
5.0756605118110238
21
-4.0294006692913387
0
LINE
8
BLACK
6
CONTINUOUS
10
5.0756605118110238
20
-4.0294006692913387
11
5.0724673622047245
21
-4.0315342519685036
0
LINE
8
BLACK
6
CONTINUOUS
10
5.0724673622047245
20
-4.0315342519685036
11
5.0687007874015748
21
-4.0322834645669294
0
LINE
8
BLACK
6
CONTINUOUS
10
5.0687007874015748
20
-4.0322834645669294
11
5.0312992125984248
21
-4.0322834645669294
0
LINE
8
BLACK
6
CONTINUOUS
10
5.0312992125984248
20
-4.0322834645669294
11
5.0275326377952751
21
-4.0315342519685036
0
LINE
8
BLACK
6
CONTINUOUS
10
5.0275326377952751
20
-4.0315342519685036
11
5.0243394881889767
21
-4.0294006692913387
0
LINE
8
BLACK
6
CONTINUOUS
10
5.0243394881889767
20
-4.0294006692913387
11
5.0222059055118109
21
-4.0262075196850393
0
LINE
8
BLACK
6
CONTINUOUS
10
5.0222059055118109
20
-4.0262075196850393
11
5.0214566929133859
21
-4.0224409448818896
0
LINE
8
BLACK
6
CONTINUOUS
10
5.0214566929133859
20
-4.0224409448818896
11
5.0214566929133859
21
-3.9958661417322832
0
LINE
8
BLACK
6
CONTINUOUS
10
5.0214566929133859
20
-3.9958661417322832
11
5.0222059055118109
21
-3.9920995669291339
0
LINE
8
BLACK
6
CONTINUOUS
10
5.0222059055118109
20
-3.9920995669291339
11
5.0243394881889767
21
-3.9889064173228346
0
LINE
8
BLACK
6
CONTINUOUS
10
5.0243394881889767
20
-3.9889064173228346
11
5.0275326377952751
21
-3.9867728346456692
0
LINE
8
BLACK
6
CONTINUOUS
10
5.0275326377952751
20
-3.9867728346456692
11
5.0312992125984248
21
-3.9860236220472438
0
LINE
8
BLACK
6
CONTINUOUS
10
5.0312992125984248
20
-3.9860236220472438
11
5.0687007874015748
21
-3.9860236220472438
0
LINE
8
BLACK
6
CONTINUOUS
10
5.0687007874015748
20
-3.9860236220472438
11
5.0724673622047245
21
-3.9867728346456692
0
LINE
8
BLACK
6
CONTINUOUS
10
4.978372874015748
20
-3.9641350393700785
11
4.9815660236220474
21
-3.9662686220472438
0
LINE
8
BLACK
6
CONTINUOUS
10
4.9815660236220474
20
-3.9662686220472438
11
4.9836996062992123
21
-3.9694617716535432
0
LINE
8
BLACK
6
CONTINUOUS
10
4.9836996062992123
20
-3.9694617716535432
11
4.9844488188976372
21
-3.9732283464566929
0
LINE
8
BLACK
6
CONTINUOUS
10
4.9844488188976372
20
-3.9732283464566929
11
4.9844488188976372
21
-4.0047244094488192
0
LINE
8
BLACK
6
CONTINUOUS
10
4.9844488188976372
20
-4.0047244094488192
11
4.9836996062992123
21
-4.008490984251968
0
LINE
8
BLACK
6
CONTINUOUS
10
4.9836996062992123
20
-4.008490984251968
11
4.9815660236220474
21
-4.0116841338582674
0
LINE
8
BLACK
6
CONTINUOUS
10
4.9815660236220474
20
-4.0116841338582674
11
4.978372874015748
21
-4.0138177165354332
0
LINE
8
BLACK
6
CONTINUOUS
10
4.978372874015748
20
-4.0138177165354332
11
4.9746062992125983
21
-4.0145669291338582
0
LINE
8
BLACK
6
CONTINUOUS
10
4.9746062992125983
20
-4.0145669291338582
11
4.9253937007874011
21
-4.0145669291338582
0
LINE
8
BLACK
6
CONTINUOUS
10
4.9253937007874011
20
-4.0145669291338582
11
4.9216271259842514
21
-4.0138177165354332
0
LINE
8
BLACK
6
CONTINUOUS
10
4.9216271259842514
20
-4.0138177165354332
11
4.918433976377953
21
-4.0116841338582674
0
LINE
8
BLACK
6
CONTINUOUS
10
4.918433976377953
20
-4.0116841338582674
11
4.9163003937007872
21
-4.008490984251968
0
LINE
8
BLACK
6
CONTINUOUS
10
4.9163003937007872
20
-4.008490984251968
11
4.9155511811023622
21
-4.0047244094488192
0
LINE
8
BLACK
6
CONTINUOUS
10
4.9155511811023622
20
-4.0047244094488192
11
4.9155511811023622
21
-3.9732283464566929
0
LINE
8
BLACK
6
CONTINUOUS
10
4.9155511811023622
20
-3.9732283464566929
11
4.9163003937007872
21
-3.9694617716535432
0
LINE
8
BLACK
6
CONTINUOUS
10
4.9163003937007872
20
-3.9694617716535432
11
4.918433976377953
21
-3.9662686220472438
0
LINE
8
BLACK
6
CONTINUOUS
10
4.918433976377953
20
-3.9662686220472438
11
4.9216271259842514
21
-3.9641350393700785
0
LINE
8
BLACK
6
CONTINUOUS
10
4.9216271259842514
20
-3.9641350393700785
11
4.9253937007874011
21
-3.9633858267716535
0
LINE
8
BLACK
6
CONTINUOUS
10
4.9253937007874011
20
-3.9633858267716535
11
4.9746062992125983
21
-3.9633858267716535
0
LINE
8
BLACK
6
CONTINUOUS
10
4.9746062992125983
20
-3.9633858267716535
11
4.978372874015748
21
-3.9641350393700785
0
LINE
8
BLACK
6
CONTINUOUS
10
5.7783728740157478
20
-3.936182283464567
11
5.7815660236220472
21
-3.9383158661417323
0
LINE
8
BLACK
6
CONTINUOUS
10
5.7815660236220472
20
-3.9383158661417323
11
5.7836996062992121
21
-3.9415090157480313
0
LINE
8
BLACK
6
CONTINUOUS
10
5.7836996062992121
20
-3.9415090157480313
11
5.784448818897638
21
-3.9452755905511809
0
LINE
8
BLACK
6
CONTINUOUS
10
5.784448818897638
20
-3.9452755905511809
11
5.784448818897638
21
-3.9767716535433069
0
LINE
8
BLACK
6
CONTINUOUS
10
5.784448818897638
20
-3.9767716535433069
11
5.7836996062992121
21
-3.9805382283464565
0
LINE
8
BLACK
6
CONTINUOUS
10
5.7836996062992121
20
-3.9805382283464565
11
5.7815660236220472
21
-3.9837313779527559
0
LINE
8
BLACK
6
CONTINUOUS
10
5.7815660236220472
20
-3.9837313779527559
11
5.7783728740157478
21
-3.9858649606299212
0
LINE
8
BLACK
6
CONTINUOUS
10
5.7783728740157478
20
-3.9858649606299212
11
5.7746062992125982
21
-3.9866141732283462
0
LINE
8
BLACK
6
CONTINUOUS
10
5.7746062992125982
20
-3.9866141732283462
11
5.7253937007874018
21
-3.9866141732283462
0
LINE
8
BLACK
6
CONTINUOUS
10
5.7253937007874018
20
-3.9866141732283462
11
5.7216271259842522
21
-3.9858649606299212
0
LINE
8
BLACK
6
CONTINUOUS
10
5.7216271259842522
20
-3.9858649606299212
11
5.7184339763779528
21
-3.9837313779527559
0
LINE
8
BLACK
6
CONTINUOUS
10
5.7184339763779528
20
-3.9837313779527559
11
5.716300393700787
21
-3.9805382283464565
0
LINE
8
BLACK
6
CONTINUOUS
10
5.716300393700787
20
-3.9805382283464565
11
5.715551181102362
21
-3.9767716535433069
0
LINE
8
BLACK
6
CONTINUOUS
10
5.715551181102362
20
-3.9767716535433069
11
5.715551181102362
21
-3.9452755905511809
0
LINE
8
BLACK
6
CONTINUOUS
10
5.715551181102362
20
-3.9452755905511809
11
5.716300393700787
21
-3.9415090157480313
0
LINE
8
BLACK
6
CONTINUOUS
10
5.716300393700787
20
-3.9415090157480313
11
5.7184339763779528
21
-3.9383158661417323
0
LINE
8
BLACK
6
CONTINUOUS
10
5.7184339763779528
20
-3.9383158661417323
11
5.7216271259842522
21
-3.936182283464567
0
LINE
8
BLACK
6
CONTINUOUS
10
5.7216271259842522
20
-3.936182283464567
11
5.7253937007874018
21
-3.9354330708661416
0
LINE
8
BLACK
6
CONTINUOUS
10
5.7253937007874018
20
-3.9354330708661416
11
5.7746062992125982
21
-3.9354330708661416
0
LINE
8
BLACK
6
CONTINUOUS
10
5.7746062992125982
20
-3.9354330708661416
11
5.7783728740157478
21
-3.936182283464567
0
LINE
8
BLACK
6
CONTINUOUS
10
5.978372874015748
20
-3.9251586614173228
11
5.9815660236220474
21
-3.9272922440944882
0
LINE
8
BLACK
6
CONTINUOUS
10
5.9815660236220474
20
-3.9272922440944882
11
5.9836996062992123
21
-3.9304853937007875
0
LINE
8
BLACK
6
CONTINUOUS
10
5.9836996062992123
20
-3.9304853937007875
11
5.9844488188976372
21
-3.9342519685039368
0
LINE
8
BLACK
6
CONTINUOUS
10
5.9844488188976372
20
-3.9342519685039368
11
5.9844488188976372
21
-3.9657480314960627
0
LINE
8
BLACK
6
CONTINUOUS
10
5.9844488188976372
20
-3.9657480314960627
11
5.9836996062992123
21
-3.9695146062992124
0
LINE
8
BLACK
6
CONTINUOUS
10
5.9836996062992123
20
-3.9695146062992124
11
5.9815660236220474
21
-3.9727077559055117
0
LINE
8
BLACK
6
CONTINUOUS
10
5.9815660236220474
20
-3.9727077559055117
11
5.978372874015748
21
-3.9748413385826771
0
LINE
8
BLACK
6
CONTINUOUS
10
5.978372874015748
20
-3.9748413385826771
11
5.9746062992125983
21
-3.9755905511811021
0
LINE
8
BLACK
6
CONTINUOUS
10
5.9746062992125983
20
-3.9755905511811021
11
5.9253937007874011
21
-3.9755905511811021
0
LINE
8
BLACK
6
CONTINUOUS
10
5.9253937007874011
20
-3.9755905511811021
11
5.9216271259842514
21
-3.9748413385826771
0
LINE
8
BLACK
6
CONTINUOUS
10
5.9216271259842514
20
-3.9748413385826771
11
5.918433976377953
21
-3.9727077559055117
0
LINE
8
BLACK
6
CONTINUOUS
10
5.918433976377953
20
-3.9727077559055117
11
5.9163003937007872
21
-3.9695146062992124
0
LINE
8
BLACK
6
CONTINUOUS
10
5.9163003937007872
20
-3.9695146062992124
11
5.9155511811023622
21
-3.9657480314960627
0
LINE
8
BLACK
6
CONTINUOUS
10
5.9155511811023622
20
-3.9657480314960627
11
5.9155511811023622
21
-3.9342519685039368
0
LINE
8
BLACK
6
CONTINUOUS
10
5.9155511811023622
20
-3.9342519685039368
11
5.9163003937007872
21
-3.9304853937007875
0
LINE
8
BLACK
6
CONTINUOUS
10
5.9163003937007872
20
-3.9304853937007875
11
5.918433976377953
21
-3.9272922440944882
0
LINE
8
BLACK
6
CONTINUOUS
10
5.918433976377953
20
-3.9272922440944882
11
5.9216271259842514
21
-3.9251586614173228
0
LINE
8
BLACK
6
CONTINUOUS
10
5.9216271259842514
20
-3.9251586614173228
11
5.9253937007874011
21
-3.9244094488188974
0
LINE
8
BLACK
6
CONTINUOUS
10
5.9253937007874011
20
-3.9244094488188974
11
5.9746062992125983
21
-3.9244094488188974
0
LINE
8
BLACK
6
CONTINUOUS
10
5.9746062992125983
20
-3.9244094488188974
11
5.978372874015748
21
-3.9251586614173228
0
LINE
8
BLACK
6
CONTINUOUS
10
6.1783728740157482
20
-3.8751586614173226
11
6.1815660236220475
21
-3.8772922440944879
0
LINE
8
BLACK
6
CONTINUOUS
10
6.1815660236220475
20
-3.8772922440944879
11
6.1836996062992124
21
-3.8804853937007873
0
LINE
8
BLACK
6
CONTINUOUS
10
6.1836996062992124
20
-3.8804853937007873
11
6.1844488188976374
21
-3.8842519685039369
0
LINE
8
BLACK
6
CONTINUOUS
10
6.1844488188976374
20
-3.8842519685039369
11
6.1844488188976374
21
-3.9157480314960629
0
LINE
8
BLACK
6
CONTINUOUS
10
6.1844488188976374
20
-3.9157480314960629
11
6.1836996062992124
21
-3.9195146062992126
0
LINE
8
BLACK
6
CONTINUOUS
10
6.1836996062992124
20
-3.9195146062992126
11
6.1815660236220475
21
-3.9227077559055119
0
LINE
8
BLACK
6
CONTINUOUS
10
6.1815660236220475
20
-3.9227077559055119
11
6.1783728740157482
21
-3.9248413385826773
0
LINE
8
BLACK
6
CONTINUOUS
10
6.1783728740157482
20
-3.9248413385826773
11
6.1746062992125985
21
-3.9255905511811022
0
LINE
8
BLACK
6
CONTINUOUS
10
6.1746062992125985
20
-3.9255905511811022
11
6.1253937007874013
21
-3.9255905511811022
0
LINE
8
BLACK
6
CONTINUOUS
10
6.1253937007874013
20
-3.9255905511811022
11
6.1216271259842516
21
-3.9248413385826773
0
LINE
8
BLACK
6
CONTINUOUS
10
6.1216271259842516
20
-3.9248413385826773
11
6.1184339763779523
21
-3.9227077559055119
0
LINE
8
BLACK
6
CONTINUOUS
10
6.1184339763779523
20
-3.9227077559055119
11
6.1163003937007874
21
-3.9195146062992126
0
LINE
8
BLACK
6
CONTINUOUS
10
6.1163003937007874
20
-3.9195146062992126
11
6.1155511811023624
21
-3.9157480314960629
0
LINE
8
BLACK
6
CONTINUOUS
10
6.1155511811023624
20
-3.9157480314960629
11
6.1155511811023624
21
-3.8842519685039369
0
LINE
8
BLACK
6
CONTINUOUS
10
6.1155511811023624
20
-3.8842519685039369
11
6.1163003937007874
21
-3.8804853937007873
0
LINE
8
BLACK
6
CONTINUOUS
10
6.1163003937007874
20
-3.8804853937007873
11
6.1184339763779523
21
-3.8772922440944879
0
LINE
8
BLACK
6
CONTINUOUS
10
6.1184339763779523
20
-3.8772922440944879
11
6.1216271259842516
21
-3.8751586614173226
0
LINE
8
BLACK
6
CONTINUOUS
10
6.1216271259842516
20
-3.8751586614173226
11
6.1253937007874013
21
-3.8744094488188976
0
LINE
8
BLACK
6
CONTINUOUS
10
6.1253937007874013
20
-3.8744094488188976
11
6.1746062992125985
21
-3.8744094488188976
0
LINE
8
BLACK
6
CONTINUOUS
10
6.1746062992125985
20
-3.8744094488188976
11
6.1783728740157482
21
-3.8751586614173226
0
LINE
8
BLACK
6
CONTINUOUS
10
5.2831654724409445
20
-3.8396227559055118
11
5.2850813385826774
21
-3.8409029133858268
0
LINE
8
BLACK
6
CONTINUOUS
10
5.2850813385826774
20
-3.8409029133858268
11
5.2863614960629919
21
-3.8428187795275588
0
LINE
8
BLACK
6
CONTINUOUS
10
5.2863614960629919
20
-3.8428187795275588
11
5.2868110236220467
21
-3.8450787401574802
0
LINE
8
BLACK
6
CONTINUOUS
10
5.2868110236220467
20
-3.8450787401574802
11
5.2868110236220467
21
-3.9100393700787399
0
LINE
8
BLACK
6
CONTINUOUS
10
5.2868110236220467
20
-3.9100393700787399
11
5.2863614960629919
21
-3.9122993307086613
0
LINE
8
BLACK
6
CONTINUOUS
10
5.2863614960629919
20
-3.9122993307086613
11
5.2850813385826774
21
-3.9142151968503938
0
LINE
8
BLACK
6
CONTINUOUS
10
5.2850813385826774
20
-3.9142151968503938
11
5.2831654724409445
21
-3.9154953543307087
0
LINE
8
BLACK
6
CONTINUOUS
10
5.2831654724409445
20
-3.9154953543307087
11
5.2809055118110235
21
-3.9159448818897635
0
LINE
8
BLACK
6
CONTINUOUS
10
5.2809055118110235
20
-3.9159448818897635
11
5.2690944881889763
21
-3.9159448818897635
0
LINE
8
BLACK
6
CONTINUOUS
10
5.2690944881889763
20
-3.9159448818897635
11
5.2668345275590553
21
-3.9154953543307087
0
LINE
8
BLACK
6
CONTINUOUS
10
5.2668345275590553
20
-3.9154953543307087
11
5.2649186614173225
21
-3.9142151968503938
0
LINE
8
BLACK
6
CONTINUOUS
10
5.2649186614173225
20
-3.9142151968503938
11
5.2636385039370079
21
-3.9122993307086613
0
LINE
8
BLACK
6
CONTINUOUS
10
5.2636385039370079
20
-3.9122993307086613
11
5.2631889763779522
21
-3.9100393700787399
0
LINE
8
BLACK
6
CONTINUOUS
10
5.2631889763779522
20
-3.9100393700787399
11
5.2631889763779522
21
-3.8450787401574802
0
LINE
8
BLACK
6
CONTINUOUS
10
5.2631889763779522
20
-3.8450787401574802
11
5.2636385039370079
21
-3.8428187795275588
0
LINE
8
BLACK
6
CONTINUOUS
10
5.2636385039370079
20
-3.8428187795275588
11
5.2649186614173225
21
-3.8409029133858268
0
LINE
8
BLACK
6
CONTINUOUS
10
5.2649186614173225
20
-3.8409029133858268
11
5.2668345275590553
21
-3.8396227559055118
0
LINE
8
BLACK
6
CONTINUOUS
10
5.2668345275590553
20
-3.8396227559055118
11
5.2690944881889763
21
-3.8391732283464566
0
LINE
8
BLACK
6
CONTINUOUS
10
5.2690944881889763
20
-3.8391732283464566
11
5.2809055118110235
21
-3.8391732283464566
0
LINE
8
BLACK
6
CONTINUOUS
10
5.2809055118110235
20
-3.8391732283464566
11
5.2831654724409445
21
-3.8396227559055118
0
LINE
8
BLACK
6
CONTINUOUS
10
5.3331654724409452
20
-3.8396227559055118
11
5.3350813385826772
21
-3.8409029133858268
0
LINE
8
BLACK
6
CONTINUOUS
10
5.3350813385826772
20
-3.8409029133858268
11
5.3363614960629917
21
-3.8428187795275588
0
LINE
8
BLACK
6
CONTINUOUS
10
5.3363614960629917
20
-3.8428187795275588
11
5.3368110236220474
21
-3.8450787401574802
0
LINE
8
BLACK
6
CONTINUOUS
10
5.3368110236220474
20
-3.8450787401574802
11
5.3368110236220474
21
-3.9100393700787399
0
LINE
8
BLACK
6
CONTINUOUS
10
5.3368110236220474
20
-3.9100393700787399
11
5.3363614960629917
21
-3.9122993307086613
0
LINE
8
BLACK
6
CONTINUOUS
10
5.3363614960629917
20
-3.9122993307086613
11
5.3350813385826772
21
-3.9142151968503938
0
LINE
8
BLACK
6
CONTINUOUS
10
5.3350813385826772
20
-3.9142151968503938
11
5.3331654724409452
21
-3.9154953543307087
0
LINE
8
BLACK
6
CONTINUOUS
10
5.3331654724409452
20
-3.9154953543307087
11
5.3309055118110233
21
-3.9159448818897635
0
LINE
8
BLACK
6
CONTINUOUS
10
5.3309055118110233
20
-3.9159448818897635
11
5.3190944881889761
21
-3.9159448818897635
0
LINE
8
BLACK
6
CONTINUOUS
10
5.3190944881889761
20
-3.9159448818897635
11
5.3168345275590552
21
-3.9154953543307087
0
LINE
8
BLACK
6
CONTINUOUS
10
5.3168345275590552
20
-3.9154953543307087
11
5.3149186614173223
21
-3.9142151968503938
0
LINE
8
BLACK
6
CONTINUOUS
10
5.3149186614173223
20
-3.9142151968503938
11
5.3136385039370078
21
-3.9122993307086613
0
LINE
8
BLACK
6
CONTINUOUS
10
5.3136385039370078
20
-3.9122993307086613
11
5.313188976377953
21
-3.9100393700787399
0
LINE
8
BLACK
6
CONTINUOUS
10
5.313188976377953
20
-3.9100393700787399
11
5.313188976377953
21
-3.8450787401574802
0
LINE
8
BLACK
6
CONTINUOUS
10
5.313188976377953
20
-3.8450787401574802
11
5.3136385039370078
21
-3.8428187795275588
0
LINE
8
BLACK
6
CONTINUOUS
10
5.3136385039370078
20
-3.8428187795275588
11
5.3149186614173223
21
-3.8409029133858268
0
LINE
8
BLACK
6
CONTINUOUS
10
5.3149186614173223
20
-3.8409029133858268
11
5.3168345275590552
21
-3.8396227559055118
0
LINE
8
BLACK
6
CONTINUOUS
10
5.3168345275590552
20
-3.8396227559055118
11
5.3190944881889761
21
-3.8391732283464566
0
LINE
8
BLACK
6
CONTINUOUS
10
5.3190944881889761
20
-3.8391732283464566
11
5.3309055118110233
21
-3.8391732283464566
0
LINE
8
BLACK
6
CONTINUOUS
10
5.3309055118110233
20
-3.8391732283464566
11
5.3331654724409452
21
-3.8396227559055118
0
LINE
8
BLACK
6
CONTINUOUS
10
5.383165472440945
20
-3.8396227559055118
11
5.385081338582677
21
-3.8409029133858268
0
LINE
8
BLACK
6
CONTINUOUS
10
5.385081338582677
20
-3.8409029133858268
11
5.3863614960629924
21
-3.8428187795275588
0
LINE
8
BLACK
6
CONTINUOUS
10
5.3863614960629924
20
-3.8428187795275588
11
5.3868110236220472
21
-3.8450787401574802
0
LINE
8
BLACK
6
CONTINUOUS
10
5.3868110236220472
20
-3.8450787401574802
11
5.3868110236220472
21
-3.9100393700787399
0
LINE
8
BLACK
6
CONTINUOUS
10
5.3868110236220472
20
-3.9100393700787399
11
5.3863614960629924
21
-3.9122993307086613
0
LINE
8
BLACK
6
CONTINUOUS
10
5.3863614960629924
20
-3.9122993307086613
11
5.385081338582677
21
-3.9142151968503938
0
LINE
8
BLACK
6
CONTINUOUS
10
5.385081338582677
20
-3.9142151968503938
11
5.383165472440945
21
-3.9154953543307087
0
LINE
8
BLACK
6
CONTINUOUS
10
5.383165472440945
20
-3.9154953543307087
11
5.3809055118110232
21
-3.9159448818897635
0
LINE
8
BLACK
6
CONTINUOUS
10
5.3809055118110232
20
-3.9159448818897635
11
5.3690944881889759
21
-3.9159448818897635
0
LINE
8
BLACK
6
CONTINUOUS
10
5.3690944881889759
20
-3.9159448818897635
11
5.366834527559055
21
-3.9154953543307087
0
LINE
8
BLACK
6
CONTINUOUS
10
5.366834527559055
20
-3.9154953543307087
11
5.364918661417323
21
-3.9142151968503938
0
LINE
8
BLACK
6
CONTINUOUS
10
5.364918661417323
20
-3.9142151968503938
11
5.3636385039370076
21
-3.9122993307086613
0
LINE
8
BLACK
6
CONTINUOUS
10
5.3636385039370076
20
-3.9122993307086613
11
5.3631889763779528
21
-3.9100393700787399
0
LINE
8
BLACK
6
CONTINUOUS
10
5.3631889763779528
20
-3.9100393700787399
11
5.3631889763779528
21
-3.8450787401574802
0
LINE
8
BLACK
6
CONTINUOUS
10
5.3631889763779528
20
-3.8450787401574802
11
5.3636385039370076
21
-3.8428187795275588
0
LINE
8
BLACK
6
CONTINUOUS
10
5.3636385039370076
20
-3.8428187795275588
11
5.364918661417323
21
-3.8409029133858268
0
LINE
8
BLACK
6
CONTINUOUS
10
5.364918661417323
20
-3.8409029133858268
11
5.366834527559055
21
-3.8396227559055118
0
LINE
8
BLACK
6
CONTINUOUS
10
5.366834527559055
20
-3.8396227559055118
11
5.3690944881889759
21
-3.8391732283464566
0
LINE
8
BLACK
6
CONTINUOUS
10
5.3690944881889759
20
-3.8391732283464566
11
5.3809055118110232
21
-3.8391732283464566
0
LINE
8
BLACK
6
CONTINUOUS
10
5.3809055118110232
20
-3.8391732283464566
11
5.383165472440945
21
-3.8396227559055118
0
LINE
8
BLACK
6
CONTINUOUS
10
5.4331654724409448
20
-3.8396227559055118
11
5.4350813385826768
21
-3.8409029133858268
0
LINE
8
BLACK
6
CONTINUOUS
10
5.4350813385826768
20
-3.8409029133858268
11
5.4363614960629922
21
-3.8428187795275588
0
LINE
8
BLACK
6
CONTINUOUS
10
5.4363614960629922
20
-3.8428187795275588
11
5.436811023622047
21
-3.8450787401574802
0
LINE
8
BLACK
6
CONTINUOUS
10
5.436811023622047
20
-3.8450787401574802
11
5.436811023622047
21
-3.9100393700787399
0
LINE
8
BLACK
6
CONTINUOUS
10
5.436811023622047
20
-3.9100393700787399
11
5.4363614960629922
21
-3.9122993307086613
0
LINE
8
BLACK
6
CONTINUOUS
10
5.4363614960629922
20
-3.9122993307086613
11
5.4350813385826768
21
-3.9142151968503938
0
LINE
8
BLACK
6
CONTINUOUS
10
5.4350813385826768
20
-3.9142151968503938
11
5.4331654724409448
21
-3.9154953543307087
0
LINE
8
BLACK
6
CONTINUOUS
10
5.4331654724409448
20
-3.9154953543307087
11
5.4309055118110239
21
-3.9159448818897635
0
LINE
8
BLACK
6
CONTINUOUS
10
5.4309055118110239
20
-3.9159448818897635
11
5.4190944881889767
21
-3.9159448818897635
0
LINE
8
BLACK
6
CONTINUOUS
10
5.4190944881889767
20
-3.9159448818897635
11
5.4168345275590548
21
-3.9154953543307087
0
LINE
8
BLACK
6
CONTINUOUS
10
5.4168345275590548
20
-3.9154953543307087
11
5.4149186614173228
21
-3.9142151968503938
0
LINE
8
BLACK
6
CONTINUOUS
10
5.4149186614173228
20
-3.9142151968503938
11
5.4136385039370074
21
-3.9122993307086613
0
LINE
8
BLACK
6
CONTINUOUS
10
5.4136385039370074
20
-3.9122993307086613
11
5.4131889763779526
21
-3.9100393700787399
0
LINE
8
BLACK
6
CONTINUOUS
10
5.4131889763779526
20
-3.9100393700787399
11
5.4131889763779526
21
-3.8450787401574802
0
LINE
8
BLACK
6
CONTINUOUS
10
5.4131889763779526
20
-3.8450787401574802
11
5.4136385039370074
21
-3.8428187795275588
0
LINE
8
BLACK
6
CONTINUOUS
10
5.4136385039370074
20
-3.8428187795275588
11
5.4149186614173228
21
-3.8409029133858268
0
LINE
8
BLACK
6
CONTINUOUS
10
5.4149186614173228
20
-3.8409029133858268
11
5.4168345275590548
21
-3.8396227559055118
0
LINE
8
BLACK
6
CONTINUOUS
10
5.4168345275590548
20
-3.8396227559055118
11
5.4190944881889767
21
-3.8391732283464566
0
LINE
8
BLACK
6
CONTINUOUS
10
5.4190944881889767
20
-3.8391732283464566
11
5.4309055118110239
21
-3.8391732283464566
0
LINE
8
BLACK
6
CONTINUOUS
10
5.4309055118110239
20
-3.8391732283464566
11
5.4331654724409448
21
-3.8396227559055118
0
LINE
8
BLACK
6
CONTINUOUS
10
5.4831654724409447
20
-3.8396227559055118
11
5.4850813385826767
21
-3.8409029133858268
0
LINE
8
BLACK
6
CONTINUOUS
10
5.4850813385826767
20
-3.8409029133858268
11
5.4863614960629921
21
-3.8428187795275588
0
LINE
8
BLACK
6
CONTINUOUS
10
5.4863614960629921
20
-3.8428187795275588
11
5.4868110236220469
21
-3.8450787401574802
0
LINE
8
BLACK
6
CONTINUOUS
10
5.4868110236220469
20
-3.8450787401574802
11
5.4868110236220469
21
-3.9100393700787399
0
LINE
8
BLACK
6
CONTINUOUS
10
5.4868110236220469
20
-3.9100393700787399
11
5.4863614960629921
21
-3.9122993307086613
0
LINE
8
BLACK
6
CONTINUOUS
10
5.4863614960629921
20
-3.9122993307086613
11
5.4850813385826767
21
-3.9142151968503938
0
LINE
8
BLACK
6
CONTINUOUS
10
5.4850813385826767
20
-3.9142151968503938
11
5.4831654724409447
21
-3.9154953543307087
0
LINE
8
BLACK
6
CONTINUOUS
10
5.4831654724409447
20
-3.9154953543307087
11
5.4809055118110237
21
-3.9159448818897635
0
LINE
8
BLACK
6
CONTINUOUS
10
5.4809055118110237
20
-3.9159448818897635
11
5.4690944881889765
21
-3.9159448818897635
0
LINE
8
BLACK
6
CONTINUOUS
10
5.4690944881889765
20
-3.9159448818897635
11
5.4668345275590546
21
-3.9154953543307087
0
LINE
8
BLACK
6
CONTINUOUS
10
5.4668345275590546
20
-3.9154953543307087
11
5.4649186614173226
21
-3.9142151968503938
0
LINE
8
BLACK
6
CONTINUOUS
10
5.4649186614173226
20
-3.9142151968503938
11
5.4636385039370081
21
-3.9122993307086613
0
LINE
8
BLACK
6
CONTINUOUS
10
5.4636385039370081
20
-3.9122993307086613
11
5.4631889763779524
21
-3.9100393700787399
0
LINE
8
BLACK
6
CONTINUOUS
10
5.4631889763779524
20
-3.9100393700787399
11
5.4631889763779524
21
-3.8450787401574802
0
LINE
8
BLACK
6
CONTINUOUS
10
5.4631889763779524
20
-3.8450787401574802
11
5.4636385039370081
21
-3.8428187795275588
0
LINE
8
BLACK
6
CONTINUOUS
10
5.4636385039370081
20
-3.8428187795275588
11
5.4649186614173226
21
-3.8409029133858268
0
LINE
8
BLACK
6
CONTINUOUS
10
5.4649186614173226
20
-3.8409029133858268
11
5.4668345275590546
21
-3.8396227559055118
0
LINE
8
BLACK
6
CONTINUOUS
10
5.4668345275590546
20
-3.8396227559055118
11
5.4690944881889765
21
-3.8391732283464566
0
LINE
8
BLACK
6
CONTINUOUS
10
5.4690944881889765
20
-3.8391732283464566
11
5.4809055118110237
21
-3.8391732283464566
0
LINE
8
BLACK
6
CONTINUOUS
10
5.4809055118110237
20
-3.8391732283464566
11
5.4831654724409447
21
-3.8396227559055118
0
LINE
8
BLACK
6
CONTINUOUS
10
5.5331654724409445
20
-3.8396227559055118
11
5.5350813385826774
21
-3.8409029133858268
0
LINE
8
BLACK
6
CONTINUOUS
10
5.5350813385826774
20
-3.8409029133858268
11
5.5363614960629919
21
-3.8428187795275588
0
LINE
8
BLACK
6
CONTINUOUS
10
5.5363614960629919
20
-3.8428187795275588
11
5.5368110236220467
21
-3.8450787401574802
0
LINE
8
BLACK
6
CONTINUOUS
10
5.5368110236220467
20
-3.8450787401574802
11
5.5368110236220467
21
-3.9100393700787399
0
LINE
8
BLACK
6
CONTINUOUS
10
5.5368110236220467
20
-3.9100393700787399
11
5.5363614960629919
21
-3.9122993307086613
0
LINE
8
BLACK
6
CONTINUOUS
10
5.5363614960629919
20
-3.9122993307086613
11
5.5350813385826774
21
-3.9142151968503938
0
LINE
8
BLACK
6
CONTINUOUS
10
5.5350813385826774
20
-3.9142151968503938
11
5.5331654724409445
21
-3.9154953543307087
0
LINE
8
BLACK
6
CONTINUOUS
10
5.5331654724409445
20
-3.9154953543307087
11
5.5309055118110235
21
-3.9159448818897635
0
LINE
8
BLACK
6
CONTINUOUS
10
5.5309055118110235
20
-3.9159448818897635
11
5.5190944881889763
21
-3.9159448818897635
0
LINE
8
BLACK
6
CONTINUOUS
10
5.5190944881889763
20
-3.9159448818897635
11
5.5168345275590553
21
-3.9154953543307087
0
LINE
8
BLACK
6
CONTINUOUS
10
5.5168345275590553
20
-3.9154953543307087
11
5.5149186614173225
21
-3.9142151968503938
0
LINE
8
BLACK
6
CONTINUOUS
10
5.5149186614173225
20
-3.9142151968503938
11
5.5136385039370079
21
-3.9122993307086613
0
LINE
8
BLACK
6
CONTINUOUS
10
5.5136385039370079
20
-3.9122993307086613
11
5.5131889763779522
21
-3.9100393700787399
0
LINE
8
BLACK
6
CONTINUOUS
10
5.5131889763779522
20
-3.9100393700787399
11
5.5131889763779522
21
-3.8450787401574802
0
LINE
8
BLACK
6
CONTINUOUS
10
5.5131889763779522
20
-3.8450787401574802
11
5.5136385039370079
21
-3.8428187795275588
0
LINE
8
BLACK
6
CONTINUOUS
10
5.5136385039370079
20
-3.8428187795275588
11
5.5149186614173225
21
-3.8409029133858268
0
LINE
8
BLACK
6
CONTINUOUS
10
5.5149186614173225
20
-3.8409029133858268
11
5.5168345275590553
21
-3.8396227559055118
0
LINE
8
BLACK
6
CONTINUOUS
10
5.5168345275590553
20
-3.8396227559055118
11
5.5190944881889763
21
-3.8391732283464566
0
LINE
8
BLACK
6
CONTINUOUS
10
5.5190944881889763
20
-3.8391732283464566
11
5.5309055118110235
21
-3.8391732283464566
0
LINE
8
BLACK
6
CONTINUOUS
10
5.5309055118110235
20
-3.8391732283464566
11
5.5331654724409445
21
-3.8396227559055118
0
LINE
8
BLACK
6
CONTINUOUS
10
5.5831654724409452
20
-3.8396227559055118
11
5.5850813385826772
21
-3.8409029133858268
0
LINE
8
BLACK
6
CONTINUOUS
10
5.5850813385826772
20
-3.8409029133858268
11
5.5863614960629917
21
-3.8428187795275588
0
LINE
8
BLACK
6
CONTINUOUS
10
5.5863614960629917
20
-3.8428187795275588
11
5.5868110236220474
21
-3.8450787401574802
0
LINE
8
BLACK
6
CONTINUOUS
10
5.5868110236220474
20
-3.8450787401574802
11
5.5868110236220474
21
-3.9100393700787399
0
LINE
8
BLACK
6
CONTINUOUS
10
5.5868110236220474
20
-3.9100393700787399
11
5.5863614960629917
21
-3.9122993307086613
0
LINE
8
BLACK
6
CONTINUOUS
10
5.5863614960629917
20
-3.9122993307086613
11
5.5850813385826772
21
-3.9142151968503938
0
LINE
8
BLACK
6
CONTINUOUS
10
5.5850813385826772
20
-3.9142151968503938
11
5.5831654724409452
21
-3.9154953543307087
0
LINE
8
BLACK
6
CONTINUOUS
10
5.5831654724409452
20
-3.9154953543307087
11
5.5809055118110233
21
-3.9159448818897635
0
LINE
8
BLACK
6
CONTINUOUS
10
5.5809055118110233
20
-3.9159448818897635
11
5.5690944881889761
21
-3.9159448818897635
0
LINE
8
BLACK
6
CONTINUOUS
10
5.5690944881889761
20
-3.9159448818897635
11
5.5668345275590552
21
-3.9154953543307087
0
LINE
8
BLACK
6
CONTINUOUS
10
5.5668345275590552
20
-3.9154953543307087
11
5.5649186614173223
21
-3.9142151968503938
0
LINE
8
BLACK
6
CONTINUOUS
10
5.5649186614173223
20
-3.9142151968503938
11
5.5636385039370078
21
-3.9122993307086613
0
LINE
8
BLACK
6
CONTINUOUS
10
5.5636385039370078
20
-3.9122993307086613
11
5.563188976377953
21
-3.9100393700787399
0
LINE
8
BLACK
6
CONTINUOUS
10
5.563188976377953
20
-3.9100393700787399
11
5.563188976377953
21
-3.8450787401574802
0
LINE
8
BLACK
6
CONTINUOUS
10
5.563188976377953
20
-3.8450787401574802
11
5.5636385039370078
21
-3.8428187795275588
0
LINE
8
BLACK
6
CONTINUOUS
10
5.5636385039370078
20
-3.8428187795275588
11
5.5649186614173223
21
-3.8409029133858268
0
LINE
8
BLACK
6
CONTINUOUS
10
5.5649186614173223
20
-3.8409029133858268
11
5.5668345275590552
21
-3.8396227559055118
0
LINE
8
BLACK
6
CONTINUOUS
10
5.5668345275590552
20
-3.8396227559055118
11
5.5690944881889761
21
-3.8391732283464566
0
LINE
8
BLACK
6
CONTINUOUS
10
5.5690944881889761
20
-3.8391732283464566
11
5.5809055118110233
21
-3.8391732283464566
0
LINE
8
BLACK
6
CONTINUOUS
10
5.5809055118110233
20
-3.8391732283464566
11
5.5831654724409452
21
-3.8396227559055118
0
LINE
8
BLACK
6
CONTINUOUS
10
5.633165472440945
20
-3.8396227559055118
11
5.635081338582677
21
-3.8409029133858268
0
LINE
8
BLACK
6
CONTINUOUS
10
5.635081338582677
20
-3.8409029133858268
11
5.6363614960629924
21
-3.8428187795275588
0
LINE
8
BLACK
6
CONTINUOUS
10
5.6363614960629924
20
-3.8428187795275588
11
5.6368110236220472
21
-3.8450787401574802
0
LINE
8
BLACK
6
CONTINUOUS
10
5.6368110236220472
20
-3.8450787401574802
11
5.6368110236220472
21
-3.9100393700787399
0
LINE
8
BLACK
6
CONTINUOUS
10
5.6368110236220472
20
-3.9100393700787399
11
5.6363614960629924
21
-3.9122993307086613
0
LINE
8
BLACK
6
CONTINUOUS
10
5.6363614960629924
20
-3.9122993307086613
11
5.635081338582677
21
-3.9142151968503938
0
LINE
8
BLACK
6
CONTINUOUS
10
5.635081338582677
20
-3.9142151968503938
11
5.633165472440945
21
-3.9154953543307087
0
LINE
8
BLACK
6
CONTINUOUS
10
5.633165472440945
20
-3.9154953543307087
11
5.6309055118110232
21
-3.9159448818897635
0
LINE
8
BLACK
6
CONTINUOUS
10
5.6309055118110232
20
-3.9159448818897635
11
5.6190944881889759
21
-3.9159448818897635
0
LINE
8
BLACK
6
CONTINUOUS
10
5.6190944881889759
20
-3.9159448818897635
11
5.616834527559055
21
-3.9154953543307087
0
LINE
8
BLACK
6
CONTINUOUS
10
5.616834527559055
20
-3.9154953543307087
11
5.614918661417323
21
-3.9142151968503938
0
LINE
8
BLACK
6
CONTINUOUS
10
5.614918661417323
20
-3.9142151968503938
11
5.6136385039370076
21
-3.9122993307086613
0
LINE
8
BLACK
6
CONTINUOUS
10
5.6136385039370076
20
-3.9122993307086613
11
5.6131889763779528
21
-3.9100393700787399
0
LINE
8
BLACK
6
CONTINUOUS
10
5.6131889763779528
20
-3.9100393700787399
11
5.6131889763779528
21
-3.8450787401574802
0
LINE
8
BLACK
6
CONTINUOUS
10
5.6131889763779528
20
-3.8450787401574802
11
5.6136385039370076
21
-3.8428187795275588
0
LINE
8
BLACK
6
CONTINUOUS
10
5.6136385039370076
20
-3.8428187795275588
11
5.614918661417323
21
-3.8409029133858268
0
LINE
8
BLACK
6
CONTINUOUS
10
5.614918661417323
20
-3.8409029133858268
11
5.616834527559055
21
-3.8396227559055118
0
LINE
8
BLACK
6
CONTINUOUS
10
5.616834527559055
20
-3.8396227559055118
11
5.6190944881889759
21
-3.8391732283464566
0
LINE
8
BLACK
6
CONTINUOUS
10
5.6190944881889759
20
-3.8391732283464566
11
5.6309055118110232
21
-3.8391732283464566
0
LINE
8
BLACK
6
CONTINUOUS
10
5.6309055118110232
20
-3.8391732283464566
11
5.633165472440945
21
-3.8396227559055118
0
LINE
8
BLACK
6
CONTINUOUS
10
5.7783728740157478
20
-3.8141350393700786
11
5.7815660236220472
21
-3.8162686220472439
0
LINE
8
BLACK
6
CONTINUOUS
10
5.7815660236220472
20
-3.8162686220472439
11
5.7836996062992121
21
-3.8194617716535433
0
LINE
8
BLACK
6
CONTINUOUS
10
5.7836996062992121
20
-3.8194617716535433
11
5.784448818897638
21
-3.823228346456693
0
LINE
8
BLACK
6
CONTINUOUS
10
5.784448818897638
20
-3.823228346456693
11
5.784448818897638
21
-3.8547244094488189
0
LINE
8
BLACK
6
CONTINUOUS
10
5.784448818897638
20
-3.8547244094488189
11
5.7836996062992121
21
-3.8584909842519686
0
LINE
8
BLACK
6
CONTINUOUS
10
5.7836996062992121
20
-3.8584909842519686
11
5.7815660236220472
21
-3.8616841338582675
0
LINE
8
BLACK
6
CONTINUOUS
10
5.7815660236220472
20
-3.8616841338582675
11
5.7783728740157478
21
-3.8638177165354328
0
LINE
8
BLACK
6
CONTINUOUS
10
5.7783728740157478
20
-3.8638177165354328
11
5.7746062992125982
21
-3.8645669291338582
0
LINE
8
BLACK
6
CONTINUOUS
10
5.7746062992125982
20
-3.8645669291338582
11
5.7253937007874018
21
-3.8645669291338582
0
LINE
8
BLACK
6
CONTINUOUS
10
5.7253937007874018
20
-3.8645669291338582
11
5.7216271259842522
21
-3.8638177165354328
0
LINE
8
BLACK
6
CONTINUOUS
10
5.7216271259842522
20
-3.8638177165354328
11
5.7184339763779528
21
-3.8616841338582675
0
LINE
8
BLACK
6
CONTINUOUS
10
5.7184339763779528
20
-3.8616841338582675
11
5.716300393700787
21
-3.8584909842519686
0
LINE
8
BLACK
6
CONTINUOUS
10
5.716300393700787
20
-3.8584909842519686
11
5.715551181102362
21
-3.8547244094488189
0
LINE
8
BLACK
6
CONTINUOUS
10
5.715551181102362
20
-3.8547244094488189
11
5.715551181102362
21
-3.823228346456693
0
LINE
8
BLACK
6
CONTINUOUS
10
5.715551181102362
20
-3.823228346456693
11
5.716300393700787
21
-3.8194617716535433
0
LINE
8
BLACK
6
CONTINUOUS
10
5.716300393700787
20
-3.8194617716535433
11
5.7184339763779528
21
-3.8162686220472439
0
LINE
8
BLACK
6
CONTINUOUS
10
5.7184339763779528
20
-3.8162686220472439
11
5.7216271259842522
21
-3.8141350393700786
0
LINE
8
BLACK
6
CONTINUOUS
10
5.7216271259842522
20
-3.8141350393700786
11
5.7253937007874018
21
-3.8133858267716536
0
LINE
8
BLACK
6
CONTINUOUS
10
5.7253937007874018
20
-3.8133858267716536
11
5.7746062992125982
21
-3.8133858267716536
0
LINE
8
BLACK
6
CONTINUOUS
10
5.7746062992125982
20
-3.8133858267716536
11
5.7783728740157478
21
-3.8141350393700786
0
LINE
8
BLACK
6
CONTINUOUS
10
5.978372874015748
20
-3.8031114173228344
11
5.9815660236220474
21
-3.8052449999999998
0
LINE
8
BLACK
6
CONTINUOUS
10
5.9815660236220474
20
-3.8052449999999998
11
5.9836996062992123
21
-3.8084381496062991
0
LINE
8
BLACK
6
CONTINUOUS
10
5.9836996062992123
20
-3.8084381496062991
11
5.9844488188976372
21
-3.8122047244094488
0
LINE
8
BLACK
6
CONTINUOUS
10
5.9844488188976372
20
-3.8122047244094488
11
5.9844488188976372
21
-3.8437007874015747
0
LINE
8
BLACK
6
CONTINUOUS
10
5.9844488188976372
20
-3.8437007874015747
11
5.9836996062992123
21
-3.8474673622047244
0
LINE
8
BLACK
6
CONTINUOUS
10
5.9836996062992123
20
-3.8474673622047244
11
5.9815660236220474
21
-3.8506605118110238
0
LINE
8
BLACK
6
CONTINUOUS
10
5.9815660236220474
20
-3.8506605118110238
11
5.978372874015748
21
-3.8527940944881891
0
LINE
8
BLACK
6
CONTINUOUS
10
5.978372874015748
20
-3.8527940944881891
11
5.9746062992125983
21
-3.8535433070866141
0
LINE
8
BLACK
6
CONTINUOUS
10
5.9746062992125983
20
-3.8535433070866141
11
5.9253937007874011
21
-3.8535433070866141
0
LINE
8
BLACK
6
CONTINUOUS
10
5.9253937007874011
20
-3.8535433070866141
11
5.9216271259842514
21
-3.8527940944881891
0
LINE
8
BLACK
6
CONTINUOUS
10
5.9216271259842514
20
-3.8527940944881891
11
5.918433976377953
21
-3.8506605118110238
0
LINE
8
BLACK
6
CONTINUOUS
10
5.918433976377953
20
-3.8506605118110238
11
5.9163003937007872
21
-3.8474673622047244
0
LINE
8
BLACK
6
CONTINUOUS
10
5.9163003937007872
20
-3.8474673622047244
11
5.9155511811023622
21
-3.8437007874015747
0
LINE
8
BLACK
6
CONTINUOUS
10
5.9155511811023622
20
-3.8437007874015747
11
5.9155511811023622
21
-3.8122047244094488
0
LINE
8
BLACK
6
CONTINUOUS
10
5.9155511811023622
20
-3.8122047244094488
11
5.9163003937007872
21
-3.8084381496062991
0
LINE
8
BLACK
6
CONTINUOUS
10
5.9163003937007872
20
-3.8084381496062991
11
5.918433976377953
21
-3.8052449999999998
0
LINE
8
BLACK
6
CONTINUOUS
10
5.918433976377953
20
-3.8052449999999998
11
5.9216271259842514
21
-3.8031114173228344
0
LINE
8
BLACK
6
CONTINUOUS
10
5.9216271259842514
20
-3.8031114173228344
11
5.9253937007874011
21
-3.8023622047244094
0
LINE
8
BLACK
6
CONTINUOUS
10
5.9253937007874011
20
-3.8023622047244094
11
5.9746062992125983
21
-3.8023622047244094
0
LINE
8
BLACK
6
CONTINUOUS
10
5.9746062992125983
20
-3.8023622047244094
11
5.978372874015748
21
-3.8031114173228344
0
LINE
8
BLACK
6
CONTINUOUS
10
6.1238453149606293
20
-3.7979933070866139
11
6.1270384645669287
21
-3.8001268897637797
0
LINE
8
BLACK
6
CONTINUOUS
10
6.1270384645669287
20
-3.8001268897637797
11
6.1291720472440945
21
-3.8033200393700786
0
LINE
8
BLACK
6
CONTINUOUS
10
6.1291720472440945
20
-3.8033200393700786
11
6.1299212598425195
21
-3.8070866141732282
0
LINE
8
BLACK
6
CONTINUOUS
10
6.1299212598425195
20
-3.8070866141732282
11
6.1299212598425195
21
-3.8326771653543306
0
LINE
8
BLACK
6
CONTINUOUS
10
6.1299212598425195
20
-3.8326771653543306
11
6.1291720472440945
21
-3.8364437401574802
0
LINE
8
BLACK
6
CONTINUOUS
10
6.1291720472440945
20
-3.8364437401574802
11
6.1270384645669287
21
-3.8396368897637796
0
LINE
8
BLACK
6
CONTINUOUS
10
6.1270384645669287
20
-3.8396368897637796
11
6.1238453149606293
21
-3.8417704724409449
0
LINE
8
BLACK
6
CONTINUOUS
10
6.1238453149606293
20
-3.8417704724409449
11
6.1200787401574805
21
-3.8425196850393699
0
LINE
8
BLACK
6
CONTINUOUS
10
6.1200787401574805
20
-3.8425196850393699
11
6.0846456692913389
21
-3.8425196850393699
0
LINE
8
BLACK
6
CONTINUOUS
10
6.0846456692913389
20
-3.8425196850393699
11
6.0808790944881892
21
-3.8417704724409449
0
LINE
8
BLACK
6
CONTINUOUS
10
6.0808790944881892
20
-3.8417704724409449
11
6.0776859448818898
21
-3.8396368897637796
0
LINE
8
BLACK
6
CONTINUOUS
10
6.0776859448818898
20
-3.8396368897637796
11
6.0755523622047241
21
-3.8364437401574802
0
LINE
8
BLACK
6
CONTINUOUS
10
6.0755523622047241
20
-3.8364437401574802
11
6.0748031496062991
21
-3.8326771653543306
0
LINE
8
BLACK
6
CONTINUOUS
10
6.0748031496062991
20
-3.8326771653543306
11
6.0748031496062991
21
-3.8070866141732282
0
LINE
8
BLACK
6
CONTINUOUS
10
6.0748031496062991
20
-3.8070866141732282
11
6.0755523622047241
21
-3.8033200393700786
0
LINE
8
BLACK
6
CONTINUOUS
10
6.0755523622047241
20
-3.8033200393700786
11
6.0776859448818898
21
-3.8001268897637797
0
LINE
8
BLACK
6
CONTINUOUS
10
6.0776859448818898
20
-3.8001268897637797
11
6.0808790944881892
21
-3.7979933070866139
0
LINE
8
BLACK
6
CONTINUOUS
10
6.0808790944881892
20
-3.7979933070866139
11
6.0846456692913389
21
-3.7972440944881889
0
LINE
8
BLACK
6
CONTINUOUS
10
6.0846456692913389
20
-3.7972440944881889
11
6.1200787401574805
21
-3.7972440944881889
0
LINE
8
BLACK
6
CONTINUOUS
10
6.1200787401574805
20
-3.7972440944881889
11
6.1238453149606293
21
-3.7979933070866139
0
LINE
8
BLACK
6
CONTINUOUS
10
4.8968048425196846
20
-3.7478663779527559
11
4.899997992125984
21
-3.75
0
LINE
8
BLACK
6
CONTINUOUS
10
4.899997992125984
20
-3.75
11
4.9180932283464562
21
-3.7680952362204723
0
LINE
8
BLACK
6
CONTINUOUS
10
4.9180932283464562
20
-3.7680952362204723
11
4.9202268503937008
21
-3.7712883858267716
0
LINE
8
BLACK
6
CONTINUOUS
10
4.9202268503937008
20
-3.7712883858267716
11
4.9209760629921258
21
-3.7750549606299213
0
LINE
8
BLACK
6
CONTINUOUS
10
4.9209760629921258
20
-3.7750549606299213
11
4.9202268503937008
21
-3.7788214960629922
0
LINE
8
BLACK
6
CONTINUOUS
10
4.9202268503937008
20
-3.7788214960629922
11
4.9180932283464562
21
-3.7820146456692911
0
LINE
8
BLACK
6
CONTINUOUS
10
4.9180932283464562
20
-3.7820146456692911
11
4.8930382677165349
21
-3.8070696062992124
0
LINE
8
BLACK
6
CONTINUOUS
10
4.8930382677165349
20
-3.8070696062992124
11
4.8898451181102365
21
-3.8092032283464565
0
LINE
8
BLACK
6
CONTINUOUS
10
4.8898451181102365
20
-3.8092032283464565
11
4.8860785826771655
21
-3.8099524409448819
0
LINE
8
BLACK
6
CONTINUOUS
10
4.8860785826771655
20
-3.8099524409448819
11
4.8823120078740159
21
-3.8092032283464565
0
LINE
8
BLACK
6
CONTINUOUS
10
4.8823120078740159
20
-3.8092032283464565
11
4.8791188582677165
21
-3.8070696062992124
0
LINE
8
BLACK
6
CONTINUOUS
10
4.8791188582677165
20
-3.8070696062992124
11
4.8610236220472443
21
-3.7889743700787402
0
LINE
8
BLACK
6
CONTINUOUS
10
4.8610236220472443
20
-3.7889743700787402
11
4.8588899999999997
21
-3.7857812204724408
0
LINE
8
BLACK
6
CONTINUOUS
10
4.8588899999999997
20
-3.7857812204724408
11
4.8581407874015747
21
-3.7820146456692911
0
LINE
8
BLACK
6
CONTINUOUS
10
4.8581407874015747
20
-3.7820146456692911
11
4.8588899999999997
21
-3.7782481102362202
0
LINE
8
BLACK
6
CONTINUOUS
10
4.8588899999999997
20
-3.7782481102362202
11
4.8610236220472443
21
-3.7750549606299213
0
LINE
8
BLACK
6
CONTINUOUS
10
4.8610236220472443
20
-3.7750549606299213
11
4.8860785826771655
21
-3.75
0
LINE
8
BLACK
6
CONTINUOUS
10
4.8860785826771655
20
-3.75
11
4.8892717322834649
21
-3.7478663779527559
0
LINE
8
BLACK
6
CONTINUOUS
10
4.8892717322834649
20
-3.7478663779527559
11
4.8930382677165349
21
-3.7471171653543305
0
LINE
8
BLACK
6
CONTINUOUS
10
4.8930382677165349
20
-3.7471171653543305
11
4.8968048425196846
21
-3.7478663779527559
0
LINE
8
BLACK
6
CONTINUOUS
10
5.0195146062992126
20
-3.7163003937007875
11
5.022707755905512
21
-3.7184339763779528
0
LINE
8
BLACK
6
CONTINUOUS
10
5.022707755905512
20
-3.7184339763779528
11
5.0248413385826769
21
-3.7216271259842517
0
LINE
8
BLACK
6
CONTINUOUS
10
5.0248413385826769
20
-3.7216271259842517
11
5.0255905511811019
21
-3.7253937007874014
0
LINE
8
BLACK
6
CONTINUOUS
10
5.0255905511811019
20
-3.7253937007874014
11
5.0255905511811019
21
-3.7746062992125982
0
LINE
8
BLACK
6
CONTINUOUS
10
5.0255905511811019
20
-3.7746062992125982
11
5.0248413385826769
21
-3.7783728740157478
0
LINE
8
BLACK
6
CONTINUOUS
10
5.0248413385826769
20
-3.7783728740157478
11
5.022707755905512
21
-3.7815660236220472
0
LINE
8
BLACK
6
CONTINUOUS
10
5.022707755905512
20
-3.7815660236220472
11
5.0195146062992126
21
-3.7836996062992125
0
LINE
8
BLACK
6
CONTINUOUS
10
5.0195146062992126
20
-3.7836996062992125
11
5.015748031496063
21
-3.7844488188976375
0
LINE
8
BLACK
6
CONTINUOUS
10
5.015748031496063
20
-3.7844488188976375
11
4.984251968503937
21
-3.7844488188976375
0
LINE
8
BLACK
6
CONTINUOUS
10
4.984251968503937
20
-3.7844488188976375
11
4.9804853937007874
21
-3.7836996062992125
0
LINE
8
BLACK
6
CONTINUOUS
10
4.9804853937007874
20
-3.7836996062992125
11
4.977292244094488
21
-3.7815660236220472
0
LINE
8
BLACK
6
CONTINUOUS
10
4.977292244094488
20
-3.7815660236220472
11
4.9751586614173231
21
-3.7783728740157478
0
LINE
8
BLACK
6
CONTINUOUS
10
4.9751586614173231
20
-3.7783728740157478
11
4.9744094488188972
21
-3.7746062992125982
0
LINE
8
BLACK
6
CONTINUOUS
10
4.9744094488188972
20
-3.7746062992125982
11
4.9744094488188972
21
-3.7253937007874014
0
LINE
8
BLACK
6
CONTINUOUS
10
4.9744094488188972
20
-3.7253937007874014
11
4.9751586614173231
21
-3.7216271259842517
0
LINE
8
BLACK
6
CONTINUOUS
10
4.9751586614173231
20
-3.7216271259842517
11
4.977292244094488
21
-3.7184339763779528
0
LINE
8
BLACK
6
CONTINUOUS
10
4.977292244094488
20
-3.7184339763779528
11
4.9804853937007874
21
-3.7163003937007875
0
LINE
8
BLACK
6
CONTINUOUS
10
4.9804853937007874
20
-3.7163003937007875
11
4.984251968503937
21
-3.715551181102362
0
LINE
8
BLACK
6
CONTINUOUS
10
4.984251968503937
20
-3.715551181102362
11
5.015748031496063
21
-3.715551181102362
0
LINE
8
BLACK
6
CONTINUOUS
10
5.015748031496063
20
-3.715551181102362
11
5.0195146062992126
21
-3.7163003937007875
0
LINE
8
BLACK
6
CONTINUOUS
10
5.1415618503937006
20
-3.7163003937007875
11
5.144755
21
-3.7184339763779528
0
LINE
8
BLACK
6
CONTINUOUS
10
5.144755
20
-3.7184339763779528
11
5.1468885826771649
21
-3.7216271259842517
0
LINE
8
BLACK
6
CONTINUOUS
10
5.1468885826771649
20
-3.7216271259842517
11
5.1476377952755907
21
-3.7253937007874014
0
LINE
8
BLACK
6
CONTINUOUS
10
5.1476377952755907
20
-3.7253937007874014
11
5.1476377952755907
21
-3.7746062992125982
0
LINE
8
BLACK
6
CONTINUOUS
10
5.1476377952755907
20
-3.7746062992125982
11
5.1468885826771649
21
-3.7783728740157478
0
LINE
8
BLACK
6
CONTINUOUS
10
5.1468885826771649
20
-3.7783728740157478
11
5.144755
21
-3.7815660236220472
0
LINE
8
BLACK
6
CONTINUOUS
10
5.144755
20
-3.7815660236220472
11
5.1415618503937006
21
-3.7836996062992125
0
LINE
8
BLACK
6
CONTINUOUS
10
5.1415618503937006
20
-3.7836996062992125
11
5.1377952755905509
21
-3.7844488188976375
0
LINE
8
BLACK
6
CONTINUOUS
10
5.1377952755905509
20
-3.7844488188976375
11
5.106299212598425
21
-3.7844488188976375
0
LINE
8
BLACK
6
CONTINUOUS
10
5.106299212598425
20
-3.7844488188976375
11
5.1025326377952753
21
-3.7836996062992125
0
LINE
8
BLACK
6
CONTINUOUS
10
5.1025326377952753
20
-3.7836996062992125
11
5.099339488188976
21
-3.7815660236220472
0
LINE
8
BLACK
6
CONTINUOUS
10
5.099339488188976
20
-3.7815660236220472
11
5.0972059055118111
21
-3.7783728740157478
0
LINE
8
BLACK
6
CONTINUOUS
10
5.0972059055118111
20
-3.7783728740157478
11
5.0964566929133861
21
-3.7746062992125982
0
LINE
8
BLACK
6
CONTINUOUS
10
5.0964566929133861
20
-3.7746062992125982
11
5.0964566929133861
21
-3.7253937007874014
0
LINE
8
BLACK
6
CONTINUOUS
10
5.0964566929133861
20
-3.7253937007874014
11
5.0972059055118111
21
-3.7216271259842517
0
LINE
8
BLACK
6
CONTINUOUS
10
5.0972059055118111
20
-3.7216271259842517
11
5.099339488188976
21
-3.7184339763779528
0
LINE
8
BLACK
6
CONTINUOUS
10
5.099339488188976
20
-3.7184339763779528
11
5.1025326377952753
21
-3.7163003937007875
0
LINE
8
BLACK
6
CONTINUOUS
10
5.1025326377952753
20
-3.7163003937007875
11
5.106299212598425
21
-3.715551181102362
0
LINE
8
BLACK
6
CONTINUOUS
10
5.106299212598425
20
-3.715551181102362
11
5.1377952755905509
21
-3.715551181102362
0
LINE
8
BLACK
6
CONTINUOUS
10
5.1377952755905509
20
-3.715551181102362
11
5.1415618503937006
21
-3.7163003937007875
0
LINE
8
BLACK
6
CONTINUOUS
10
5.3283728740157477
20
-3.7251586614173227
11
5.331566023622047
21
-3.727292244094488
0
LINE
8
BLACK
6
CONTINUOUS
10
5.331566023622047
20
-3.727292244094488
11
5.3336996062992128
21
-3.7304853937007874
0
LINE
8
BLACK
6
CONTINUOUS
10
5.3336996062992128
20
-3.7304853937007874
11
5.3344488188976378
21
-3.734251968503937
0
LINE
8
BLACK
6
CONTINUOUS
10
5.3344488188976378
20
-3.734251968503937
11
5.3344488188976378
21
-3.765748031496063
0
LINE
8
BLACK
6
CONTINUOUS
10
5.3344488188976378
20
-3.765748031496063
11
5.3336996062992128
21
-3.7695146062992126
0
LINE
8
BLACK
6
CONTINUOUS
10
5.3336996062992128
20
-3.7695146062992126
11
5.331566023622047
21
-3.7727077559055116
0
LINE
8
BLACK
6
CONTINUOUS
10
5.331566023622047
20
-3.7727077559055116
11
5.3283728740157477
21
-3.7748413385826769
0
LINE
8
BLACK
6
CONTINUOUS
10
5.3283728740157477
20
-3.7748413385826769
11
5.324606299212598
21
-3.7755905511811023
0
LINE
8
BLACK
6
CONTINUOUS
10
5.324606299212598
20
-3.7755905511811023
11
5.2753937007874017
21
-3.7755905511811023
0
LINE
8
BLACK
6
CONTINUOUS
10
5.2753937007874017
20
-3.7755905511811023
11
5.271627125984252
21
-3.7748413385826769
0
LINE
8
BLACK
6
CONTINUOUS
10
5.271627125984252
20
-3.7748413385826769
11
5.2684339763779526
21
-3.7727077559055116
0
LINE
8
BLACK
6
CONTINUOUS
10
5.2684339763779526
20
-3.7727077559055116
11
5.2663003937007868
21
-3.7695146062992126
0
LINE
8
BLACK
6
CONTINUOUS
10
5.2663003937007868
20
-3.7695146062992126
11
5.2655511811023619
21
-3.765748031496063
0
LINE
8
BLACK
6
CONTINUOUS
10
5.2655511811023619
20
-3.765748031496063
11
5.2655511811023619
21
-3.734251968503937
0
LINE
8
BLACK
6
CONTINUOUS
10
5.2655511811023619
20
-3.734251968503937
11
5.2663003937007868
21
-3.7304853937007874
0
LINE
8
BLACK
6
CONTINUOUS
10
5.2663003937007868
20
-3.7304853937007874
11
5.2684339763779526
21
-3.727292244094488
0
LINE
8
BLACK
6
CONTINUOUS
10
5.2684339763779526
20
-3.727292244094488
11
5.271627125984252
21
-3.7251586614173227
0
LINE
8
BLACK
6
CONTINUOUS
10
5.271627125984252
20
-3.7251586614173227
11
5.2753937007874017
21
-3.7244094488188977
0
LINE
8
BLACK
6
CONTINUOUS
10
5.2753937007874017
20
-3.7244094488188977
11
5.324606299212598
21
-3.7244094488188977
0
LINE
8
BLACK
6
CONTINUOUS
10
5.324606299212598
20
-3.7244094488188977
11
5.3283728740157477
21
-3.7251586614173227
0
LINE
8
BLACK
6
CONTINUOUS
10
5.9714831102362202
20
-3.7281114173228347
11
5.9746762598425196
21
-3.730245
0
LINE
8
BLACK
6
CONTINUOUS
10
5.9746762598425196
20
-3.730245
11
5.9768098425196845
21
-3.7334381496062989
0
LINE
8
BLACK
6
CONTINUOUS
10
5.9768098425196845
20
-3.7334381496062989
11
5.9775590551181104
21
-3.7372047244094486
0
LINE
8
BLACK
6
CONTINUOUS
10
5.9775590551181104
20
-3.7372047244094486
11
5.9775590551181104
21
-3.7627952755905509
0
LINE
8
BLACK
6
CONTINUOUS
10
5.9775590551181104
20
-3.7627952755905509
11
5.9768098425196845
21
-3.7665618503937006
0
LINE
8
BLACK
6
CONTINUOUS
10
5.9768098425196845
20
-3.7665618503937006
11
5.9746762598425196
21
-3.769755
0
LINE
8
BLACK
6
CONTINUOUS
10
5.9746762598425196
20
-3.769755
11
5.9714831102362202
21
-3.7718885826771653
0
LINE
8
BLACK
6
CONTINUOUS
10
5.9714831102362202
20
-3.7718885826771653
11
5.9677165354330706
21
-3.7726377952755903
0
LINE
8
BLACK
6
CONTINUOUS
10
5.9677165354330706
20
-3.7726377952755903
11
5.9322834645669289
21
-3.7726377952755903
0
LINE
8
BLACK
6
CONTINUOUS
10
5.9322834645669289
20
-3.7726377952755903
11
5.9285168897637792
21
-3.7718885826771653
0
LINE
8
BLACK
6
CONTINUOUS
10
5.9285168897637792
20
-3.7718885826771653
11
5.9253237401574799
21
-3.769755
0
LINE
8
BLACK
6
CONTINUOUS
10
5.9253237401574799
20
-3.769755
11
5.923190157480315
21
-3.7665618503937006
0
LINE
8
BLACK
6
CONTINUOUS
10
5.923190157480315
20
-3.7665618503937006
11
5.92244094488189
21
-3.7627952755905509
0
LINE
8
BLACK
6
CONTINUOUS
10
5.92244094488189
20
-3.7627952755905509
11
5.92244094488189
21
-3.7372047244094486
0
LINE
8
BLACK
6
CONTINUOUS
10
5.92244094488189
20
-3.7372047244094486
11
5.923190157480315
21
-3.7334381496062989
0
LINE
8
BLACK
6
CONTINUOUS
10
5.923190157480315
20
-3.7334381496062989
11
5.9253237401574799
21
-3.730245
0
LINE
8
BLACK
6
CONTINUOUS
10
5.9253237401574799
20
-3.730245
11
5.9285168897637792
21
-3.7281114173228347
0
LINE
8
BLACK
6
CONTINUOUS
10
5.9285168897637792
20
-3.7281114173228347
11
5.9322834645669289
21
-3.7273622047244093
0
LINE
8
BLACK
6
CONTINUOUS
10
5.9322834645669289
20
-3.7273622047244093
11
5.9677165354330706
21
-3.7273622047244093
0
LINE
8
BLACK
6
CONTINUOUS
10
5.9677165354330706
20
-3.7273622047244093
11
5.9714831102362202
21
-3.7281114173228347
0
LINE
8
BLACK
6
CONTINUOUS
10
6.1238453149606293
20
-3.7172846456692912
11
6.1270384645669287
21
-3.7194182283464565
0
LINE
8
BLACK
6
CONTINUOUS
10
6.1270384645669287
20
-3.7194182283464565
11
6.1291720472440945
21
-3.7226113779527559
0
LINE
8
BLACK
6
CONTINUOUS
10
6.1291720472440945
20
-3.7226113779527559
11
6.1299212598425195
21
-3.7263779527559056
0
LINE
8
BLACK
6
CONTINUOUS
10
6.1299212598425195
20
-3.7263779527559056
11
6.1299212598425195
21
-3.7519685039370079
0
LINE
8
BLACK
6
CONTINUOUS
10
6.1299212598425195
20
-3.7519685039370079
11
6.1291720472440945
21
-3.7557350787401576
0
LINE
8
BLACK
6
CONTINUOUS
10
6.1291720472440945
20
-3.7557350787401576
11
6.1270384645669287
21
-3.7589282283464565
0
LINE
8
BLACK
6
CONTINUOUS
10
6.1270384645669287
20
-3.7589282283464565
11
6.1238453149606293
21
-3.7610618110236218
0
LINE
8
BLACK
6
CONTINUOUS
10
6.1238453149606293
20
-3.7610618110236218
11
6.1200787401574805
21
-3.7618110236220472
0
LINE
8
BLACK
6
CONTINUOUS
10
6.1200787401574805
20
-3.7618110236220472
11
6.0846456692913389
21
-3.7618110236220472
0
LINE
8
BLACK
6
CONTINUOUS
10
6.0846456692913389
20
-3.7618110236220472
11
6.0808790944881892
21
-3.7610618110236218
0
LINE
8
BLACK
6
CONTINUOUS
10
6.0808790944881892
20
-3.7610618110236218
11
6.0776859448818898
21
-3.7589282283464565
0
LINE
8
BLACK
6
CONTINUOUS
10
6.0776859448818898
20
-3.7589282283464565
11
6.0755523622047241
21
-3.7557350787401576
0
LINE
8
BLACK
6
CONTINUOUS
10
6.0755523622047241
20
-3.7557350787401576
11
6.0748031496062991
21
-3.7519685039370079
0
LINE
8
BLACK
6
CONTINUOUS
10
6.0748031496062991
20
-3.7519685039370079
11
6.0748031496062991
21
-3.7263779527559056
0
LINE
8
BLACK
6
CONTINUOUS
10
6.0748031496062991
20
-3.7263779527559056
11
6.0755523622047241
21
-3.7226113779527559
0
LINE
8
BLACK
6
CONTINUOUS
10
6.0755523622047241
20
-3.7226113779527559
11
6.0776859448818898
21
-3.7194182283464565
0
LINE
8
BLACK
6
CONTINUOUS
10
6.0776859448818898
20
-3.7194182283464565
11
6.0808790944881892
21
-3.7172846456692912
0
LINE
8
BLACK
6
CONTINUOUS
10
6.0808790944881892
20
-3.7172846456692912
11
6.0846456692913389
21
-3.7165354330708662
0
LINE
8
BLACK
6
CONTINUOUS
10
6.0846456692913389
20
-3.7165354330708662
11
6.1200787401574805
21
-3.7165354330708662
0
LINE
8
BLACK
6
CONTINUOUS
10
6.1200787401574805
20
-3.7165354330708662
11
6.1238453149606293
21
-3.7172846456692912
0
LINE
8
BLACK
6
CONTINUOUS
10
4.8397352362204726
20
-3.690796771653543
11
4.842928385826772
21
-3.6929303937007871
0
LINE
8
BLACK
6
CONTINUOUS
10
4.842928385826772
20
-3.6929303937007871
11
4.8610236220472443
21
-3.7110256299212598
0
LINE
8
BLACK
6
CONTINUOUS
10
4.8610236220472443
20
-3.7110256299212598
11
4.8631572440944879
21
-3.7142187795275592
0
LINE
8
BLACK
6
CONTINUOUS
10
4.8631572440944879
20
-3.7142187795275592
11
4.8639064566929129
21
-3.7179853543307084
0
LINE
8
BLACK
6
CONTINUOUS
10
4.8639064566929129
20
-3.7179853543307084
11
4.8631572440944879
21
-3.7217518897637794
0
LINE
8
BLACK
6
CONTINUOUS
10
4.8631572440944879
20
-3.7217518897637794
11
4.8610236220472443
21
-3.7249450393700787
0
LINE
8
BLACK
6
CONTINUOUS
10
4.8610236220472443
20
-3.7249450393700787
11
4.835968661417323
21
-3.75
0
LINE
8
BLACK
6
CONTINUOUS
10
4.835968661417323
20
-3.75
11
4.8327755118110236
21
-3.7521336220472441
0
LINE
8
BLACK
6
CONTINUOUS
10
4.8327755118110236
20
-3.7521336220472441
11
4.8290089763779527
21
-3.7528828346456691
0
LINE
8
BLACK
6
CONTINUOUS
10
4.8290089763779527
20
-3.7528828346456691
11
4.825242401574803
21
-3.7521336220472441
0
LINE
8
BLACK
6
CONTINUOUS
10
4.825242401574803
20
-3.7521336220472441
11
4.8220492519685036
21
-3.75
0
LINE
8
BLACK
6
CONTINUOUS
10
4.8220492519685036
20
-3.75
11
4.8039540157480314
21
-3.7319047637795273
0
LINE
8
BLACK
6
CONTINUOUS
10
4.8039540157480314
20
-3.7319047637795273
11
4.8018203937007877
21
-3.7287116141732284
0
LINE
8
BLACK
6
CONTINUOUS
10
4.8018203937007877
20
-3.7287116141732284
11
4.8010711811023619
21
-3.7249450393700787
0
LINE
8
BLACK
6
CONTINUOUS
10
4.8010711811023619
20
-3.7249450393700787
11
4.8018203937007877
21
-3.7211785039370078
0
LINE
8
BLACK
6
CONTINUOUS
10
4.8018203937007877
20
-3.7211785039370078
11
4.8039540157480314
21
-3.7179853543307084
0
LINE
8
BLACK
6
CONTINUOUS
10
4.8039540157480314
20
-3.7179853543307084
11
4.8290089763779527
21
-3.6929303937007871
0
LINE
8
BLACK
6
CONTINUOUS
10
4.8290089763779527
20
-3.6929303937007871
11
4.832202125984252
21
-3.690796771653543
0
LINE
8
BLACK
6
CONTINUOUS
10
4.832202125984252
20
-3.690796771653543
11
4.835968661417323
21
-3.6900475590551181
0
LINE
8
BLACK
6
CONTINUOUS
10
4.835968661417323
20
-3.6900475590551181
11
4.8397352362204726
21
-3.690796771653543
0
LINE
8
BLACK
6
CONTINUOUS
10
5.7714831102362201
20
-3.6781114173228344
11
5.7746762598425194
21
-3.6802449999999998
0
LINE
8
BLACK
6
CONTINUOUS
10
5.7746762598425194
20
-3.6802449999999998
11
5.7768098425196852
21
-3.6834381496062991
0
LINE
8
BLACK
6
CONTINUOUS
10
5.7768098425196852
20
-3.6834381496062991
11
5.7775590551181102
21
-3.6872047244094488
0
LINE
8
BLACK
6
CONTINUOUS
10
5.7775590551181102
20
-3.6872047244094488
11
5.7775590551181102
21
-3.7127952755905511
0
LINE
8
BLACK
6
CONTINUOUS
10
5.7775590551181102
20
-3.7127952755905511
11
5.7768098425196852
21
-3.7165618503937008
0
LINE
8
BLACK
6
CONTINUOUS
10
5.7768098425196852
20
-3.7165618503937008
11
5.7746762598425194
21
-3.7197549999999997
0
LINE
8
BLACK
6
CONTINUOUS
10
5.7746762598425194
20
-3.7197549999999997
11
5.7714831102362201
21
-3.7218885826771655
0
LINE
8
BLACK
6
CONTINUOUS
10
5.7714831102362201
20
-3.7218885826771655
11
5.7677165354330704
21
-3.7226377952755905
0
LINE
8
BLACK
6
CONTINUOUS
10
5.7677165354330704
20
-3.7226377952755905
11
5.7322834645669287
21
-3.7226377952755905
0
LINE
8
BLACK
6
CONTINUOUS
10
5.7322834645669287
20
-3.7226377952755905
11
5.728516889763779
21
-3.7218885826771655
0
LINE
8
BLACK
6
CONTINUOUS
10
5.728516889763779
20
-3.7218885826771655
11
5.7253237401574806
21
-3.7197549999999997
0
LINE
8
BLACK
6
CONTINUOUS
10
5.7253237401574806
20
-3.7197549999999997
11
5.7231901574803148
21
-3.7165618503937008
0
LINE
8
BLACK
6
CONTINUOUS
10
5.7231901574803148
20
-3.7165618503937008
11
5.7224409448818898
21
-3.7127952755905511
0
LINE
8
BLACK
6
CONTINUOUS
10
5.7224409448818898
20
-3.7127952755905511
11
5.7224409448818898
21
-3.6872047244094488
0
LINE
8
BLACK
6
CONTINUOUS
10
5.7224409448818898
20
-3.6872047244094488
11
5.7231901574803148
21
-3.6834381496062991
0
LINE
8
BLACK
6
CONTINUOUS
10
5.7231901574803148
20
-3.6834381496062991
11
5.7253237401574806
21
-3.6802449999999998
0
LINE
8
BLACK
6
CONTINUOUS
10
5.7253237401574806
20
-3.6802449999999998
11
5.728516889763779
21
-3.6781114173228344
0
LINE
8
BLACK
6
CONTINUOUS
10
5.728516889763779
20
-3.6781114173228344
11
5.7322834645669287
21
-3.6773622047244094
0
LINE
8
BLACK
6
CONTINUOUS
10
5.7322834645669287
20
-3.6773622047244094
11
5.7677165354330704
21
-3.6773622047244094
0
LINE
8
BLACK
6
CONTINUOUS
10
5.7677165354330704
20
-3.6773622047244094
11
5.7714831102362201
21
-3.6781114173228344
0
LINE
8
BLACK
6
CONTINUOUS
10
5.9714831102362202
20
-3.6474027559055116
11
5.9746762598425196
21
-3.6495363385826769
0
LINE
8
BLACK
6
CONTINUOUS
10
5.9746762598425196
20
-3.6495363385826769
11
5.9768098425196845
21
-3.6527294881889762
0
LINE
8
BLACK
6
CONTINUOUS
10
5.9768098425196845
20
-3.6527294881889762
11
5.9775590551181104
21
-3.6564960629921259
0
LINE
8
BLACK
6
CONTINUOUS
10
5.9775590551181104
20
-3.6564960629921259
11
5.9775590551181104
21
-3.6820866141732282
0
LINE
8
BLACK
6
CONTINUOUS
10
5.9775590551181104
20
-3.6820866141732282
11
5.9768098425196845
21
-3.6858531889763779
0
LINE
8
BLACK
6
CONTINUOUS
10
5.9768098425196845
20
-3.6858531889763779
11
5.9746762598425196
21
-3.6890463385826773
0
LINE
8
BLACK
6
CONTINUOUS
10
5.9746762598425196
20
-3.6890463385826773
11
5.9714831102362202
21
-3.6911799212598426
0
LINE
8
BLACK
6
CONTINUOUS
10
5.9714831102362202
20
-3.6911799212598426
11
5.9677165354330706
21
-3.6919291338582676
0
LINE
8
BLACK
6
CONTINUOUS
10
5.9677165354330706
20
-3.6919291338582676
11
5.9322834645669289
21
-3.6919291338582676
0
LINE
8
BLACK
6
CONTINUOUS
10
5.9322834645669289
20
-3.6919291338582676
11
5.9285168897637792
21
-3.6911799212598426
0
LINE
8
BLACK
6
CONTINUOUS
10
5.9285168897637792
20
-3.6911799212598426
11
5.9253237401574799
21
-3.6890463385826773
0
LINE
8
BLACK
6
CONTINUOUS
10
5.9253237401574799
20
-3.6890463385826773
11
5.923190157480315
21
-3.6858531889763779
0
LINE
8
BLACK
6
CONTINUOUS
10
5.923190157480315
20
-3.6858531889763779
11
5.92244094488189
21
-3.6820866141732282
0
LINE
8
BLACK
6
CONTINUOUS
10
5.92244094488189
20
-3.6820866141732282
11
5.92244094488189
21
-3.6564960629921259
0
LINE
8
BLACK
6
CONTINUOUS
10
5.92244094488189
20
-3.6564960629921259
11
5.923190157480315
21
-3.6527294881889762
0
LINE
8
BLACK
6
CONTINUOUS
10
5.923190157480315
20
-3.6527294881889762
11
5.9253237401574799
21
-3.6495363385826769
0
LINE
8
BLACK
6
CONTINUOUS
10
5.9253237401574799
20
-3.6495363385826769
11
5.9285168897637792
21
-3.6474027559055116
0
LINE
8
BLACK
6
CONTINUOUS
10
5.9285168897637792
20
-3.6474027559055116
11
5.9322834645669289
21
-3.6466535433070866
0
LINE
8
BLACK
6
CONTINUOUS
10
5.9322834645669289
20
-3.6466535433070866
11
5.9677165354330706
21
-3.6466535433070866
0
LINE
8
BLACK
6
CONTINUOUS
10
5.9677165354330706
20
-3.6466535433070866
11
5.9714831102362202
21
-3.6474027559055116
0
LINE
8
BLACK
6
CONTINUOUS
10
5.4283728740157482
20
-3.6361822834645667
11
5.4315660236220475
21
-3.6383158661417321
0
LINE
8
BLACK
6
CONTINUOUS
10
5.4315660236220475
20
-3.6383158661417321
11
5.4336996062992124
21
-3.6415090157480314
0
LINE
8
BLACK
6
CONTINUOUS
10
5.4336996062992124
20
-3.6415090157480314
11
5.4344488188976374
21
-3.6452755905511811
0
LINE
8
BLACK
6
CONTINUOUS
10
5.4344488188976374
20
-3.6452755905511811
11
5.4344488188976374
21
-3.676771653543307
0
LINE
8
BLACK
6
CONTINUOUS
10
5.4344488188976374
20
-3.676771653543307
11
5.4336996062992124
21
-3.6805382283464567
0
LINE
8
BLACK
6
CONTINUOUS
10
5.4336996062992124
20
-3.6805382283464567
11
5.4315660236220475
21
-3.6837313779527556
0
LINE
8
BLACK
6
CONTINUOUS
10
5.4315660236220475
20
-3.6837313779527556
11
5.4283728740157482
21
-3.685864960629921
0
LINE
8
BLACK
6
CONTINUOUS
10
5.4283728740157482
20
-3.685864960629921
11
5.4246062992125985
21
-3.6866141732283464
0
LINE
8
BLACK
6
CONTINUOUS
10
5.4246062992125985
20
-3.6866141732283464
11
5.3753937007874013
21
-3.6866141732283464
0
LINE
8
BLACK
6
CONTINUOUS
10
5.3753937007874013
20
-3.6866141732283464
11
5.3716271259842516
21
-3.685864960629921
0
LINE
8
BLACK
6
CONTINUOUS
10
5.3716271259842516
20
-3.685864960629921
11
5.3684339763779523
21
-3.6837313779527556
0
LINE
8
BLACK
6
CONTINUOUS
10
5.3684339763779523
20
-3.6837313779527556
11
5.3663003937007874
21
-3.6805382283464567
0
LINE
8
BLACK
6
CONTINUOUS
10
5.3663003937007874
20
-3.6805382283464567
11
5.3655511811023624
21
-3.676771653543307
0
LINE
8
BLACK
6
CONTINUOUS
10
5.3655511811023624
20
-3.676771653543307
11
5.3655511811023624
21
-3.6452755905511811
0
LINE
8
BLACK
6
CONTINUOUS
10
5.3655511811023624
20
-3.6452755905511811
11
5.3663003937007874
21
-3.6415090157480314
0
LINE
8
BLACK
6
CONTINUOUS
10
5.3663003937007874
20
-3.6415090157480314
11
5.3684339763779523
21
-3.6383158661417321
0
LINE
8
BLACK
6
CONTINUOUS
10
5.3684339763779523
20
-3.6383158661417321
11
5.3716271259842516
21
-3.6361822834645667
0
LINE
8
BLACK
6
CONTINUOUS
10
5.3716271259842516
20
-3.6361822834645667
11
5.3753937007874013
21
-3.6354330708661418
0
LINE
8
BLACK
6
CONTINUOUS
10
5.3753937007874013
20
-3.6354330708661418
11
5.4246062992125985
21
-3.6354330708661418
0
LINE
8
BLACK
6
CONTINUOUS
10
5.4246062992125985
20
-3.6354330708661418
11
5.4283728740157482
21
-3.6361822834645667
0
LINE
8
BLACK
6
CONTINUOUS
10
5.3283728740157477
20
-3.6031114173228347
11
5.331566023622047
21
-3.605245
0
LINE
8
BLACK
6
CONTINUOUS
10
5.331566023622047
20
-3.605245
11
5.3336996062992128
21
-3.6084381496062989
0
LINE
8
BLACK
6
CONTINUOUS
10
5.3336996062992128
20
-3.6084381496062989
11
5.3344488188976378
21
-3.6122047244094486
0
LINE
8
BLACK
6
CONTINUOUS
10
5.3344488188976378
20
-3.6122047244094486
11
5.3344488188976378
21
-3.6437007874015745
0
LINE
8
BLACK
6
CONTINUOUS
10
5.3344488188976378
20
-3.6437007874015745
11
5.3336996062992128
21
-3.6474673622047242
0
LINE
8
BLACK
6
CONTINUOUS
10
5.3336996062992128
20
-3.6474673622047242
11
5.331566023622047
21
-3.6506605118110236
0
LINE
8
BLACK
6
CONTINUOUS
10
5.331566023622047
20
-3.6506605118110236
11
5.3283728740157477
21
-3.6527940944881889
0
LINE
8
BLACK
6
CONTINUOUS
10
5.3283728740157477
20
-3.6527940944881889
11
5.324606299212598
21
-3.6535433070866139
0
LINE
8
BLACK
6
CONTINUOUS
10
5.324606299212598
20
-3.6535433070866139
11
5.2753937007874017
21
-3.6535433070866139
0
LINE
8
BLACK
6
CONTINUOUS
10
5.2753937007874017
20
-3.6535433070866139
11
5.271627125984252
21
-3.6527940944881889
0
LINE
8
BLACK
6
CONTINUOUS
10
5.271627125984252
20
-3.6527940944881889
11
5.2684339763779526
21
-3.6506605118110236
0
LINE
8
BLACK
6
CONTINUOUS
10
5.2684339763779526
20
-3.6506605118110236
11
5.2663003937007868
21
-3.6474673622047242
0
LINE
8
BLACK
6
CONTINUOUS
10
5.2663003937007868
20
-3.6474673622047242
11
5.2655511811023619
21
-3.6437007874015745
0
LINE
8
BLACK
6
CONTINUOUS
10
5.2655511811023619
20
-3.6437007874015745
11
5.2655511811023619
21
-3.6122047244094486
0
LINE
8
BLACK
6
CONTINUOUS
10
5.2655511811023619
20
-3.6122047244094486
11
5.2663003937007868
21
-3.6084381496062989
0
LINE
8
BLACK
6
CONTINUOUS
10
5.2663003937007868
20
-3.6084381496062989
11
5.2684339763779526
21
-3.605245
0
LINE
8
BLACK
6
CONTINUOUS
10
5.2684339763779526
20
-3.605245
11
5.271627125984252
21
-3.6031114173228347
0
LINE
8
BLACK
6
CONTINUOUS
10
5.271627125984252
20
-3.6031114173228347
11
5.2753937007874017
21
-3.6023622047244093
0
LINE
8
BLACK
6
CONTINUOUS
10
5.2753937007874017
20
-3.6023622047244093
11
5.324606299212598
21
-3.6023622047244093
0
LINE
8
BLACK
6
CONTINUOUS
10
5.324606299212598
20
-3.6023622047244093
11
5.3283728740157477
21
-3.6031114173228347
0
LINE
8
BLACK
6
CONTINUOUS
10
5.7714831102362201
20
-3.5974027559055117
11
5.7746762598425194
21
-3.5995363385826771
0
LINE
8
BLACK
6
CONTINUOUS
10
5.7746762598425194
20
-3.5995363385826771
11
5.7768098425196852
21
-3.6027294881889764
0
LINE
8
BLACK
6
CONTINUOUS
10
5.7768098425196852
20
-3.6027294881889764
11
5.7775590551181102
21
-3.6064960629921261
0
LINE
8
BLACK
6
CONTINUOUS
10
5.7775590551181102
20
-3.6064960629921261
11
5.7775590551181102
21
-3.6320866141732284
0
LINE
8
BLACK
6
CONTINUOUS
10
5.7775590551181102
20
-3.6320866141732284
11
5.7768098425196852
21
-3.6358531889763777
0
LINE
8
BLACK
6
CONTINUOUS
10
5.7768098425196852
20
-3.6358531889763777
11
5.7746762598425194
21
-3.639046338582677
0
LINE
8
BLACK
6
CONTINUOUS
10
5.7746762598425194
20
-3.639046338582677
11
5.7714831102362201
21
-3.6411799212598424
0
LINE
8
BLACK
6
CONTINUOUS
10
5.7714831102362201
20
-3.6411799212598424
11
5.7677165354330704
21
-3.6419291338582678
0
LINE
8
BLACK
6
CONTINUOUS
10
5.7677165354330704
20
-3.6419291338582678
11
5.7322834645669287
21
-3.6419291338582678
0
LINE
8
BLACK
6
CONTINUOUS
10
5.7322834645669287
20
-3.6419291338582678
11
5.728516889763779
21
-3.6411799212598424
0
LINE
8
BLACK
6
CONTINUOUS
10
5.728516889763779
20
-3.6411799212598424
11
5.7253237401574806
21
-3.639046338582677
0
LINE
8
BLACK
6
CONTINUOUS
10
5.7253237401574806
20
-3.639046338582677
11
5.7231901574803148
21
-3.6358531889763777
0
LINE
8
BLACK
6
CONTINUOUS
10
5.7231901574803148
20
-3.6358531889763777
11
5.7224409448818898
21
-3.6320866141732284
0
LINE
8
BLACK
6
CONTINUOUS
10
5.7224409448818898
20
-3.6320866141732284
11
5.7224409448818898
21
-3.6064960629921261
0
LINE
8
BLACK
6
CONTINUOUS
10
5.7224409448818898
20
-3.6064960629921261
11
5.7231901574803148
21
-3.6027294881889764
0
LINE
8
BLACK
6
CONTINUOUS
10
5.7231901574803148
20
-3.6027294881889764
11
5.7253237401574806
21
-3.5995363385826771
0
LINE
8
BLACK
6
CONTINUOUS
10
5.7253237401574806
20
-3.5995363385826771
11
5.728516889763779
21
-3.5974027559055117
0
LINE
8
BLACK
6
CONTINUOUS
10
5.728516889763779
20
-3.5974027559055117
11
5.7322834645669287
21
-3.5966535433070868
0
LINE
8
BLACK
6
CONTINUOUS
10
5.7322834645669287
20
-3.5966535433070868
11
5.7677165354330704
21
-3.5966535433070868
0
LINE
8
BLACK
6
CONTINUOUS
10
5.7677165354330704
20
-3.5966535433070868
11
5.7714831102362201
21
-3.5974027559055117
0
LINE
8
BLACK
6
CONTINUOUS
10
5.4283728740157482
20
-3.5141350393700788
11
5.4315660236220475
21
-3.5162686220472441
0
LINE
8
BLACK
6
CONTINUOUS
10
5.4315660236220475
20
-3.5162686220472441
11
5.4336996062992124
21
-3.519461771653543
0
LINE
8
BLACK
6
CONTINUOUS
10
5.4336996062992124
20
-3.519461771653543
11
5.4344488188976374
21
-3.5232283464566927
0
LINE
8
BLACK
6
CONTINUOUS
10
5.4344488188976374
20
-3.5232283464566927
11
5.4344488188976374
21
-3.5547244094488186
0
LINE
8
BLACK
6
CONTINUOUS
10
5.4344488188976374
20
-3.5547244094488186
11
5.4336996062992124
21
-3.5584909842519683
0
LINE
8
BLACK
6
CONTINUOUS
10
5.4336996062992124
20
-3.5584909842519683
11
5.4315660236220475
21
-3.5616841338582677
0
LINE
8
BLACK
6
CONTINUOUS
10
5.4315660236220475
20
-3.5616841338582677
11
5.4283728740157482
21
-3.563817716535433
0
LINE
8
BLACK
6
CONTINUOUS
10
5.4283728740157482
20
-3.563817716535433
11
5.4246062992125985
21
-3.564566929133858
0
LINE
8
BLACK
6
CONTINUOUS
10
5.4246062992125985
20
-3.564566929133858
11
5.3753937007874013
21
-3.564566929133858
0
LINE
8
BLACK
6
CONTINUOUS
10
5.3753937007874013
20
-3.564566929133858
11
5.3716271259842516
21
-3.563817716535433
0
LINE
8
BLACK
6
CONTINUOUS
10
5.3716271259842516
20
-3.563817716535433
11
5.3684339763779523
21
-3.5616841338582677
0
LINE
8
BLACK
6
CONTINUOUS
10
5.3684339763779523
20
-3.5616841338582677
11
5.3663003937007874
21
-3.5584909842519683
0
LINE
8
BLACK
6
CONTINUOUS
10
5.3663003937007874
20
-3.5584909842519683
11
5.3655511811023624
21
-3.5547244094488186
0
LINE
8
BLACK
6
CONTINUOUS
10
5.3655511811023624
20
-3.5547244094488186
11
5.3655511811023624
21
-3.5232283464566927
0
LINE
8
BLACK
6
CONTINUOUS
10
5.3655511811023624
20
-3.5232283464566927
11
5.3663003937007874
21
-3.519461771653543
0
LINE
8
BLACK
6
CONTINUOUS
10
5.3663003937007874
20
-3.519461771653543
11
5.3684339763779523
21
-3.5162686220472441
0
LINE
8
BLACK
6
CONTINUOUS
10
5.3684339763779523
20
-3.5162686220472441
11
5.3716271259842516
21
-3.5141350393700788
0
LINE
8
BLACK
6
CONTINUOUS
10
5.3716271259842516
20
-3.5141350393700788
11
5.3753937007874013
21
-3.5133858267716533
0
LINE
8
BLACK
6
CONTINUOUS
10
5.3753937007874013
20
-3.5133858267716533
11
5.4246062992125985
21
-3.5133858267716533
0
LINE
8
BLACK
6
CONTINUOUS
10
5.4246062992125985
20
-3.5133858267716533
11
5.4283728740157482
21
-3.5141350393700788
0
LINE
8
BLACK
6
CONTINUOUS
10
5.1165618503937003
20
-3.4731901574803148
11
5.1197549999999996
21
-3.4753237401574801
0
LINE
8
BLACK
6
CONTINUOUS
10
5.1197549999999996
20
-3.4753237401574801
11
5.1218885826771654
21
-3.4785168897637795
0
LINE
8
BLACK
6
CONTINUOUS
10
5.1218885826771654
20
-3.4785168897637795
11
5.1226377952755904
21
-3.4822834645669292
0
LINE
8
BLACK
6
CONTINUOUS
10
5.1226377952755904
20
-3.4822834645669292
11
5.1226377952755904
21
-3.5177165354330708
0
LINE
8
BLACK
6
CONTINUOUS
10
5.1226377952755904
20
-3.5177165354330708
11
5.1218885826771654
21
-3.5214831102362205
0
LINE
8
BLACK
6
CONTINUOUS
10
5.1218885826771654
20
-3.5214831102362205
11
5.1197549999999996
21
-3.5246762598425194
0
LINE
8
BLACK
6
CONTINUOUS
10
5.1197549999999996
20
-3.5246762598425194
11
5.1165618503937003
21
-3.5268098425196848
0
LINE
8
BLACK
6
CONTINUOUS
10
5.1165618503937003
20
-3.5268098425196848
11
5.1127952755905515
21
-3.5275590551181102
0
LINE
8
BLACK
6
CONTINUOUS
10
5.1127952755905515
20
-3.5275590551181102
11
5.0872047244094487
21
-3.5275590551181102
0
LINE
8
BLACK
6
CONTINUOUS
10
5.0872047244094487
20
-3.5275590551181102
11
5.083438149606299
21
-3.5268098425196848
0
LINE
8
BLACK
6
CONTINUOUS
10
5.083438149606299
20
-3.5268098425196848
11
5.0802449999999997
21
-3.5246762598425194
0
LINE
8
BLACK
6
CONTINUOUS
10
5.0802449999999997
20
-3.5246762598425194
11
5.0781114173228348
21
-3.5214831102362205
0
LINE
8
BLACK
6
CONTINUOUS
10
5.0781114173228348
20
-3.5214831102362205
11
5.0773622047244089
21
-3.5177165354330708
0
LINE
8
BLACK
6
CONTINUOUS
10
5.0773622047244089
20
-3.5177165354330708
11
5.0773622047244089
21
-3.4822834645669292
0
LINE
8
BLACK
6
CONTINUOUS
10
5.0773622047244089
20
-3.4822834645669292
11
5.0781114173228348
21
-3.4785168897637795
0
LINE
8
BLACK
6
CONTINUOUS
10
5.0781114173228348
20
-3.4785168897637795
11
5.0802449999999997
21
-3.4753237401574801
0
LINE
8
BLACK
6
CONTINUOUS
10
5.0802449999999997
20
-3.4753237401574801
11
5.083438149606299
21
-3.4731901574803148
0
LINE
8
BLACK
6
CONTINUOUS
10
5.083438149606299
20
-3.4731901574803148
11
5.0872047244094487
21
-3.4724409448818898
0
LINE
8
BLACK
6
CONTINUOUS
10
5.0872047244094487
20
-3.4724409448818898
11
5.1127952755905515
21
-3.4724409448818898
0
LINE
8
BLACK
6
CONTINUOUS
10
5.1127952755905515
20
-3.4724409448818898
11
5.1165618503937003
21
-3.4731901574803148
0
LINE
8
BLACK
6
CONTINUOUS
10
5.1972705118110234
20
-3.4731901574803148
11
5.2004636614173227
21
-3.4753237401574801
0
LINE
8
BLACK
6
CONTINUOUS
10
5.2004636614173227
20
-3.4753237401574801
11
5.2025972440944876
21
-3.4785168897637795
0
LINE
8
BLACK
6
CONTINUOUS
10
5.2025972440944876
20
-3.4785168897637795
11
5.2033464566929135
21
-3.4822834645669292
0
LINE
8
BLACK
6
CONTINUOUS
10
5.2033464566929135
20
-3.4822834645669292
11
5.2033464566929135
21
-3.5177165354330708
0
LINE
8
BLACK
6
CONTINUOUS
10
5.2033464566929135
20
-3.5177165354330708
11
5.2025972440944876
21
-3.5214831102362205
0
LINE
8
BLACK
6
CONTINUOUS
10
5.2025972440944876
20
-3.5214831102362205
11
5.2004636614173227
21
-3.5246762598425194
0
LINE
8
BLACK
6
CONTINUOUS
10
5.2004636614173227
20
-3.5246762598425194
11
5.1972705118110234
21
-3.5268098425196848
0
LINE
8
BLACK
6
CONTINUOUS
10
5.1972705118110234
20
-3.5268098425196848
11
5.1935039370078737
21
-3.5275590551181102
0
LINE
8
BLACK
6
CONTINUOUS
10
5.1935039370078737
20
-3.5275590551181102
11
5.1679133858267718
21
-3.5275590551181102
0
LINE
8
BLACK
6
CONTINUOUS
10
5.1679133858267718
20
-3.5275590551181102
11
5.1641468110236222
21
-3.5268098425196848
0
LINE
8
BLACK
6
CONTINUOUS
10
5.1641468110236222
20
-3.5268098425196848
11
5.1609536614173228
21
-3.5246762598425194
0
LINE
8
BLACK
6
CONTINUOUS
10
5.1609536614173228
20
-3.5246762598425194
11
5.158820078740157
21
-3.5214831102362205
0
LINE
8
BLACK
6
CONTINUOUS
10
5.158820078740157
20
-3.5214831102362205
11
5.158070866141732
21
-3.5177165354330708
0
LINE
8
BLACK
6
CONTINUOUS
10
5.158070866141732
20
-3.5177165354330708
11
5.158070866141732
21
-3.4822834645669292
0
LINE
8
BLACK
6
CONTINUOUS
10
5.158070866141732
20
-3.4822834645669292
11
5.158820078740157
21
-3.4785168897637795
0
LINE
8
BLACK
6
CONTINUOUS
10
5.158820078740157
20
-3.4785168897637795
11
5.1609536614173228
21
-3.4753237401574801
0
LINE
8
BLACK
6
CONTINUOUS
10
5.1609536614173228
20
-3.4753237401574801
11
5.1641468110236222
21
-3.4731901574803148
0
LINE
8
BLACK
6
CONTINUOUS
10
5.1641468110236222
20
-3.4731901574803148
11
5.1679133858267718
21
-3.4724409448818898
0
LINE
8
BLACK
6
CONTINUOUS
10
5.1679133858267718
20
-3.4724409448818898
11
5.1935039370078737
21
-3.4724409448818898
0
LINE
8
BLACK
6
CONTINUOUS
10
5.1935039370078737
20
-3.4724409448818898
11
5.1972705118110234
21
-3.4731901574803148
0
LINE
8
BLACK
6
CONTINUOUS
10
5.2262075196850395
20
-3.3231901574803149
11
5.2294006692913388
21
-3.3253237401574802
0
LINE
8
BLACK
6
CONTINUOUS
10
5.2294006692913388
20
-3.3253237401574802
11
5.2315342519685037
21
-3.3285168897637796
0
LINE
8
BLACK
6
CONTINUOUS
10
5.2315342519685037
20
-3.3285168897637796
11
5.2322834645669287
21
-3.3322834645669293
0
LINE
8
BLACK
6
CONTINUOUS
10
5.2322834645669287
20
-3.3322834645669293
11
5.2322834645669287
21
-3.3677165354330709
0
LINE
8
BLACK
6
CONTINUOUS
10
5.2322834645669287
20
-3.3677165354330709
11
5.2315342519685037
21
-3.3714831102362206
0
LINE
8
BLACK
6
CONTINUOUS
10
5.2315342519685037
20
-3.3714831102362206
11
5.2294006692913388
21
-3.3746762598425195
0
LINE
8
BLACK
6
CONTINUOUS
10
5.2294006692913388
20
-3.3746762598425195
11
5.2262075196850395
21
-3.3768098425196849
0
LINE
8
BLACK
6
CONTINUOUS
10
5.2262075196850395
20
-3.3768098425196849
11
5.2224409448818898
21
-3.3775590551181103
0
LINE
8
BLACK
6
CONTINUOUS
10
5.2224409448818898
20
-3.3775590551181103
11
5.1968503937007871
21
-3.3775590551181103
0
LINE
8
BLACK
6
CONTINUOUS
10
5.1968503937007871
20
-3.3775590551181103
11
5.1930838188976374
21
-3.3768098425196849
0
LINE
8
BLACK
6
CONTINUOUS
10
5.1930838188976374
20
-3.3768098425196849
11
5.189890669291338
21
-3.3746762598425195
0
LINE
8
BLACK
6
CONTINUOUS
10
5.189890669291338
20
-3.3746762598425195
11
5.1877570866141731
21
-3.3714831102362206
0
LINE
8
BLACK
6
CONTINUOUS
10
5.1877570866141731
20
-3.3714831102362206
11
5.1870078740157481
21
-3.3677165354330709
0
LINE
8
BLACK
6
CONTINUOUS
10
5.1870078740157481
20
-3.3677165354330709
11
5.1870078740157481
21
-3.3322834645669293
0
LINE
8
BLACK
6
CONTINUOUS
10
5.1870078740157481
20
-3.3322834645669293
11
5.1877570866141731
21
-3.3285168897637796
0
LINE
8
BLACK
6
CONTINUOUS
10
5.1877570866141731
20
-3.3285168897637796
11
5.189890669291338
21
-3.3253237401574802
0
LINE
8
BLACK
6
CONTINUOUS
10
5.189890669291338
20
-3.3253237401574802
11
5.1930838188976374
21
-3.3231901574803149
0
LINE
8
BLACK
6
CONTINUOUS
10
5.1930838188976374
20
-3.3231901574803149
11
5.1968503937007871
21
-3.3224409448818899
0
LINE
8
BLACK
6
CONTINUOUS
10
5.1968503937007871
20
-3.3224409448818899
11
5.2224409448818898
21
-3.3224409448818899
0
LINE
8
BLACK
6
CONTINUOUS
10
5.2224409448818898
20
-3.3224409448818899
11
5.2262075196850395
21
-3.3231901574803149
0
LINE
8
BLACK
6
CONTINUOUS
10
5.3069161811023617
20
-3.3231901574803149
11
5.3101093307086611
21
-3.3253237401574802
0
LINE
8
BLACK
6
CONTINUOUS
10
5.3101093307086611
20
-3.3253237401574802
11
5.3122429133858269
21
-3.3285168897637796
0
LINE
8
BLACK
6
CONTINUOUS
10
5.3122429133858269
20
-3.3285168897637796
11
5.3129921259842519
21
-3.3322834645669293
0
LINE
8
BLACK
6
CONTINUOUS
10
5.3129921259842519
20
-3.3322834645669293
11
5.3129921259842519
21
-3.3677165354330709
0
LINE
8
BLACK
6
CONTINUOUS
10
5.3129921259842519
20
-3.3677165354330709
11
5.3122429133858269
21
-3.3714831102362206
0
LINE
8
BLACK
6
CONTINUOUS
10
5.3122429133858269
20
-3.3714831102362206
11
5.3101093307086611
21
-3.3746762598425195
0
LINE
8
BLACK
6
CONTINUOUS
10
5.3101093307086611
20
-3.3746762598425195
11
5.3069161811023617
21
-3.3768098425196849
0
LINE
8
BLACK
6
CONTINUOUS
10
5.3069161811023617
20
-3.3768098425196849
11
5.3031496062992121
21
-3.3775590551181103
0
LINE
8
BLACK
6
CONTINUOUS
10
5.3031496062992121
20
-3.3775590551181103
11
5.2775590551181102
21
-3.3775590551181103
0
LINE
8
BLACK
6
CONTINUOUS
10
5.2775590551181102
20
-3.3775590551181103
11
5.2737924803149605
21
-3.3768098425196849
0
LINE
8
BLACK
6
CONTINUOUS
10
5.2737924803149605
20
-3.3768098425196849
11
5.2705993307086612
21
-3.3746762598425195
0
LINE
8
BLACK
6
CONTINUOUS
10
5.2705993307086612
20
-3.3746762598425195
11
5.2684657480314963
21
-3.3714831102362206
0
LINE
8
BLACK
6
CONTINUOUS
10
5.2684657480314963
20
-3.3714831102362206
11
5.2677165354330704
21
-3.3677165354330709
0
LINE
8
BLACK
6
CONTINUOUS
10
5.2677165354330704
20
-3.3677165354330709
11
5.2677165354330704
21
-3.3322834645669293
0
LINE
8
BLACK
6
CONTINUOUS
10
5.2677165354330704
20
-3.3322834645669293
11
5.2684657480314963
21
-3.3285168897637796
0
LINE
8
BLACK
6
CONTINUOUS
10
5.2684657480314963
20
-3.3285168897637796
11
5.2705993307086612
21
-3.3253237401574802
0
LINE
8
BLACK
6
CONTINUOUS
10
5.2705993307086612
20
-3.3253237401574802
11
5.2737924803149605
21
-3.3231901574803149
0
LINE
8
BLACK
6
CONTINUOUS
10
5.2737924803149605
20
-3.3231901574803149
11
5.2775590551181102
21
-3.3224409448818899
0
LINE
8
BLACK
6
CONTINUOUS
10
5.2775590551181102
20
-3.3224409448818899
11
5.3031496062992121
21
-3.3224409448818899
0
LINE
8
BLACK
6
CONTINUOUS
10
5.3031496062992121
20
-3.3224409448818899
11
5.3069161811023617
21
-3.3231901574803149
  0
ENDSEC
  0
EOF
