  0
SECTION
  2
HEADER
  9
$ANGBASE
  50
0.0
  9
$ANGDIR
  70
1
  9
$MEASUREMENT
  70
0
  0
ENDSEC
  0
SECTION
  2
TABLES
  0
TABLE
  2
LTYPE
  70
4
  0
LTYPE
  5
40F
  2
CONTINUOUS
  70
0
  3
Solid line
  72
65
  73
0
  40
0.0
  0
LTYPE
  5
410
  2
DASHDOT
 70
0
  3
Dash Dot ____ _ ____ _
 72
65
 73
4
 40
2.0
 49
1.25
 49
-0.25
 49
0.25
 49
-0.25
  0
LTYPE
  5
411
  2
DASHED
 70
0
  3
Dashed __ __ __ __ __
 72
65
 73
2
 40
0.75
 49
0.5
 49
-0.25
  0
LTYPE
  5
43B
  2
DOTTED
 70
0
  3
Dotted .  .  .  .
 72
65
 73
2
 40
0.2
 49
0.0
 49
-0.2
  0
ENDTAB
  0
TABLE
  2
STYLE
  70
4
  0
STYLE
  2
KICAD
  70
0
  40
0
  41
1
  42
1
  50
0
  71
0
  3
isocp.shx
  0
STYLE
  2
KICADB
  70
0
  40
0
  41
1
  42
1
  50
0
  71
0
  3
isocp.shx
  0
STYLE
  2
KICADI
  70
0
  40
0
  41
1
  42
1
  50
15
  71
0
  3
isocp.shx
  0
STYLE
  2
KICADBI
  70
0
  40
0
  41
1
  42
1
  50
15
  71
0
  3
isocp.shx
  0
ENDTAB
  0
TABLE
  2
LAYER
  70
1
  0
LAYER
  2
BLACK
  70
0
  62
7
  6
CONTINUOUS
  0
ENDTAB
  0
ENDSEC
  0
SECTION
  2
ENTITIES
0
LINE
8
BLACK
6
CONTINUOUS
10
5.5846456692913389
20
-4.4724409448818898
11
5.5177165354330704
21
-4.4724409448818898
0
LINE
8
BLACK
6
CONTINUOUS
10
5.5177165354330704
20
-4.4724409448818898
11
5.5177165354330704
21
-4.4055118110236222
0
LINE
8
BLACK
6
CONTINUOUS
10
5.5177165354330704
20
-4.4055118110236222
11
5.5846456692913389
21
-4.4055118110236222
0
LINE
8
BLACK
6
CONTINUOUS
10
5.5846456692913389
20
-4.4055118110236222
11
5.5846456692913389
21
-4.4724409448818898
0
LINE
8
BLACK
6
CONTINUOUS
10
5.4615222047244094
20
-4.4071496850393697
11
5.4679133858267717
21
-4.4099951968503932
0
LINE
8
BLACK
6
CONTINUOUS
10
5.4679133858267717
20
-4.4099951968503932
11
5.4735732677165352
21
-4.4141073622047244
0
LINE
8
BLACK
6
CONTINUOUS
10
5.4735732677165352
20
-4.4141073622047244
11
5.4782544881889761
21
-4.4193064173228347
0
LINE
8
BLACK
6
CONTINUOUS
10
5.4782544881889761
20
-4.4193064173228347
11
5.4817525196850392
21
-4.4253651181102365
0
LINE
8
BLACK
6
CONTINUOUS
10
5.4817525196850392
20
-4.4253651181102365
11
5.4839143700787396
21
-4.4320187007874017
0
LINE
8
BLACK
6
CONTINUOUS
10
5.4839143700787396
20
-4.4320187007874017
11
5.4846456692913383
21
-4.4389763779527556
0
LINE
8
BLACK
6
CONTINUOUS
10
5.4846456692913383
20
-4.4389763779527556
11
5.4839143700787396
21
-4.4459340551181104
0
LINE
8
BLACK
6
CONTINUOUS
10
5.4839143700787396
20
-4.4459340551181104
11
5.4817525196850392
21
-4.4525876377952756
0
LINE
8
BLACK
6
CONTINUOUS
10
5.4817525196850392
20
-4.4525876377952756
11
5.4782544881889761
21
-4.4586463385826773
0
LINE
8
BLACK
6
CONTINUOUS
10
5.4782544881889761
20
-4.4586463385826773
11
5.4735732677165352
21
-4.4638453937007876
0
LINE
8
BLACK
6
CONTINUOUS
10
5.4735732677165352
20
-4.4638453937007876
11
5.4679133858267717
21
-4.4679575590551179
0
LINE
8
BLACK
6
CONTINUOUS
10
5.4679133858267717
20
-4.4679575590551179
11
5.4615222047244094
21
-4.4708030708661415
0
LINE
8
BLACK
6
CONTINUOUS
10
5.4615222047244094
20
-4.4708030708661415
11
5.4546790944881884
21
-4.4722576377952752
0
LINE
8
BLACK
6
CONTINUOUS
10
5.4546790944881884
20
-4.4722576377952752
11
5.4476831102362206
21
-4.4722576377952752
0
LINE
8
BLACK
6
CONTINUOUS
10
5.4476831102362206
20
-4.4722576377952752
11
5.4408399999999997
21
-4.4708030708661415
0
LINE
8
BLACK
6
CONTINUOUS
10
5.4408399999999997
20
-4.4708030708661415
11
5.4344488188976374
21
-4.4679575590551179
0
LINE
8
BLACK
6
CONTINUOUS
10
5.4344488188976374
20
-4.4679575590551179
11
5.4287889370078739
21
-4.4638453937007876
0
LINE
8
BLACK
6
CONTINUOUS
10
5.4287889370078739
20
-4.4638453937007876
11
5.424107716535433
21
-4.4586463385826773
0
LINE
8
BLACK
6
CONTINUOUS
10
5.424107716535433
20
-4.4586463385826773
11
5.4206096850393699
21
-4.4525876377952756
0
LINE
8
BLACK
6
CONTINUOUS
10
5.4206096850393699
20
-4.4525876377952756
11
5.4184478346456695
21
-4.4459340551181104
0
LINE
8
BLACK
6
CONTINUOUS
10
5.4184478346456695
20
-4.4459340551181104
11
5.4177165354330707
21
-4.4389763779527556
0
LINE
8
BLACK
6
CONTINUOUS
10
5.4177165354330707
20
-4.4389763779527556
11
5.4184478346456695
21
-4.4320187007874017
0
LINE
8
BLACK
6
CONTINUOUS
10
5.4184478346456695
20
-4.4320187007874017
11
5.4206096850393699
21
-4.4253651181102365
0
LINE
8
BLACK
6
CONTINUOUS
10
5.4206096850393699
20
-4.4253651181102365
11
5.424107716535433
21
-4.4193064173228347
0
LINE
8
BLACK
6
CONTINUOUS
10
5.424107716535433
20
-4.4193064173228347
11
5.4287889370078739
21
-4.4141073622047244
0
LINE
8
BLACK
6
CONTINUOUS
10
5.4287889370078739
20
-4.4141073622047244
11
5.4344488188976374
21
-4.4099951968503932
0
LINE
8
BLACK
6
CONTINUOUS
10
5.4344488188976374
20
-4.4099951968503932
11
5.4408399999999997
21
-4.4071496850393697
0
LINE
8
BLACK
6
CONTINUOUS
10
5.4408399999999997
20
-4.4071496850393697
11
5.4476831102362206
21
-4.405695118110236
0
LINE
8
BLACK
6
CONTINUOUS
10
5.4476831102362206
20
-4.405695118110236
11
5.4546790944881884
21
-4.405695118110236
0
LINE
8
BLACK
6
CONTINUOUS
10
5.4546790944881884
20
-4.405695118110236
11
5.4615222047244094
21
-4.4071496850393697
0
LINE
8
BLACK
6
CONTINUOUS
10
5.6965879133858266
20
-4.1597112598425197
11
5.6965879133858266
21
-4.1763779527559057
0
LINE
8
BLACK
6
CONTINUOUS
10
5.6965879133858266
20
-4.1763779527559057
11
5.6965879133858266
21
-4.1930446062992122
0
LINE
8
BLACK
6
CONTINUOUS
10
5.6965879133858266
20
-4.1930446062992122
11
5.6799212598425193
21
-4.1930446062992122
0
LINE
8
BLACK
6
CONTINUOUS
10
5.6799212598425193
20
-4.1930446062992122
11
5.6632545669291341
21
-4.1930446062992122
0
LINE
8
BLACK
6
CONTINUOUS
10
5.6632545669291341
20
-4.1930446062992122
11
5.6465879133858268
21
-4.1930446062992122
0
LINE
8
BLACK
6
CONTINUOUS
10
5.6465879133858268
20
-4.1930446062992122
11
5.6465879133858268
21
-4.1763779527559057
0
LINE
8
BLACK
6
CONTINUOUS
10
5.6465879133858268
20
-4.1763779527559057
11
5.6465879133858268
21
-4.1597112598425197
0
LINE
8
BLACK
6
CONTINUOUS
10
5.6465879133858268
20
-4.1597112598425197
11
5.6465879133858268
21
-4.1430446062992123
0
LINE
8
BLACK
6
CONTINUOUS
10
5.6465879133858268
20
-4.1430446062992123
11
5.6632545669291341
21
-4.1430446062992123
0
LINE
8
BLACK
6
CONTINUOUS
10
5.6632545669291341
20
-4.1430446062992123
11
5.6799212598425193
21
-4.1430446062992123
0
LINE
8
BLACK
6
CONTINUOUS
10
5.6799212598425193
20
-4.1430446062992123
11
5.6965879133858266
21
-4.1430446062992123
0
LINE
8
BLACK
6
CONTINUOUS
10
5.6965879133858266
20
-4.1430446062992123
11
5.6965879133858266
21
-4.1597112598425197
0
LINE
8
BLACK
6
CONTINUOUS
10
5.7299212204724412
20
-4.1263779133858263
11
5.7299212204724412
21
-4.1430446062992123
0
LINE
8
BLACK
6
CONTINUOUS
10
5.7299212204724412
20
-4.1430446062992123
11
5.7299212204724412
21
-4.1597112598425197
0
LINE
8
BLACK
6
CONTINUOUS
10
5.7299212204724412
20
-4.1597112598425197
11
5.7299212204724412
21
-4.1763779527559057
0
LINE
8
BLACK
6
CONTINUOUS
10
5.7299212204724412
20
-4.1763779527559057
11
5.7299212204724412
21
-4.1930446062992122
0
LINE
8
BLACK
6
CONTINUOUS
10
5.7299212204724412
20
-4.1930446062992122
11
5.7299212204724412
21
-4.2097112598425195
0
LINE
8
BLACK
6
CONTINUOUS
10
5.7299212204724412
20
-4.2097112598425195
11
5.7299212204724412
21
-4.2263779133858268
0
LINE
8
BLACK
6
CONTINUOUS
10
5.7299212204724412
20
-4.2263779133858268
11
5.7132545669291339
21
-4.2263779133858268
0
LINE
8
BLACK
6
CONTINUOUS
10
5.7132545669291339
20
-4.2263779133858268
11
5.6965879133858266
21
-4.2263779133858268
0
LINE
8
BLACK
6
CONTINUOUS
10
5.6965879133858266
20
-4.2263779133858268
11
5.6799212598425193
21
-4.2263779133858268
0
LINE
8
BLACK
6
CONTINUOUS
10
5.6799212598425193
20
-4.2263779133858268
11
5.6632545669291341
21
-4.2263779133858268
0
LINE
8
BLACK
6
CONTINUOUS
10
5.6632545669291341
20
-4.2263779133858268
11
5.6465879133858268
21
-4.2263779133858268
0
LINE
8
BLACK
6
CONTINUOUS
10
5.6465879133858268
20
-4.2263779133858268
11
5.6299212598425195
21
-4.2263779133858268
0
LINE
8
BLACK
6
CONTINUOUS
10
5.6299212598425195
20
-4.2263779133858268
11
5.6132545669291334
21
-4.2263779133858268
0
LINE
8
BLACK
6
CONTINUOUS
10
5.6132545669291334
20
-4.2263779133858268
11
5.6132545669291334
21
-4.2097112598425195
0
LINE
8
BLACK
6
CONTINUOUS
10
5.6132545669291334
20
-4.2097112598425195
11
5.6132545669291334
21
-4.1930446062992122
0
LINE
8
BLACK
6
CONTINUOUS
10
5.6132545669291334
20
-4.1930446062992122
11
5.6132545669291334
21
-4.1763779527559057
0
LINE
8
BLACK
6
CONTINUOUS
10
5.6132545669291334
20
-4.1763779527559057
11
5.6132545669291334
21
-4.1597112598425197
0
LINE
8
BLACK
6
CONTINUOUS
10
5.6132545669291334
20
-4.1597112598425197
11
5.6132545669291334
21
-4.1430446062992123
0
LINE
8
BLACK
6
CONTINUOUS
10
5.6132545669291334
20
-4.1430446062992123
11
5.6132545669291334
21
-4.1263779133858263
0
LINE
8
BLACK
6
CONTINUOUS
10
5.6132545669291334
20
-4.1263779133858263
11
5.6132545669291334
21
-4.1097112598425198
0
LINE
8
BLACK
6
CONTINUOUS
10
5.6132545669291334
20
-4.1097112598425198
11
5.6299212598425195
21
-4.1097112598425198
0
LINE
8
BLACK
6
CONTINUOUS
10
5.6299212598425195
20
-4.1097112598425198
11
5.6465879133858268
21
-4.1097112598425198
0
LINE
8
BLACK
6
CONTINUOUS
10
5.6465879133858268
20
-4.1097112598425198
11
5.6632545669291341
21
-4.1097112598425198
0
LINE
8
BLACK
6
CONTINUOUS
10
5.6632545669291341
20
-4.1097112598425198
11
5.6799212598425193
21
-4.1097112598425198
0
LINE
8
BLACK
6
CONTINUOUS
10
5.6799212598425193
20
-4.1097112598425198
11
5.6965879133858266
21
-4.1097112598425198
0
LINE
8
BLACK
6
CONTINUOUS
10
5.6965879133858266
20
-4.1097112598425198
11
5.7132545669291339
21
-4.1097112598425198
0
LINE
8
BLACK
6
CONTINUOUS
10
5.7132545669291339
20
-4.1097112598425198
11
5.7299212204724412
21
-4.1097112598425198
0
LINE
8
BLACK
6
CONTINUOUS
10
5.7299212204724412
20
-4.1097112598425198
11
5.7299212204724412
21
-4.1263779133858263
0
LINE
8
BLACK
6
CONTINUOUS
10
5.6299212598425195
20
-4.1430446062992123
11
5.6299212598425195
21
-4.1597112598425197
0
LINE
8
BLACK
6
CONTINUOUS
10
5.6299212598425195
20
-4.1597112598425197
11
5.6299212598425195
21
-4.1763779527559057
0
LINE
8
BLACK
6
CONTINUOUS
10
5.6299212598425195
20
-4.1763779527559057
11
5.6299212598425195
21
-4.1930446062992122
0
LINE
8
BLACK
6
CONTINUOUS
10
5.6299212598425195
20
-4.1930446062992122
11
5.6299212598425195
21
-4.2097112598425195
0
LINE
8
BLACK
6
CONTINUOUS
10
5.6299212598425195
20
-4.2097112598425195
11
5.6465879133858268
21
-4.2097112598425195
0
LINE
8
BLACK
6
CONTINUOUS
10
5.6465879133858268
20
-4.2097112598425195
11
5.6632545669291341
21
-4.2097112598425195
0
LINE
8
BLACK
6
CONTINUOUS
10
5.6632545669291341
20
-4.2097112598425195
11
5.6799212598425193
21
-4.2097112598425195
0
LINE
8
BLACK
6
CONTINUOUS
10
5.6799212598425193
20
-4.2097112598425195
11
5.6965879133858266
21
-4.2097112598425195
0
LINE
8
BLACK
6
CONTINUOUS
10
5.6965879133858266
20
-4.2097112598425195
11
5.7132545669291339
21
-4.2097112598425195
0
LINE
8
BLACK
6
CONTINUOUS
10
5.7132545669291339
20
-4.2097112598425195
11
5.7132545669291339
21
-4.1930446062992122
0
LINE
8
BLACK
6
CONTINUOUS
10
5.7132545669291339
20
-4.1930446062992122
11
5.7132545669291339
21
-4.1763779527559057
0
LINE
8
BLACK
6
CONTINUOUS
10
5.7132545669291339
20
-4.1763779527559057
11
5.7132545669291339
21
-4.1597112598425197
0
LINE
8
BLACK
6
CONTINUOUS
10
5.7132545669291339
20
-4.1597112598425197
11
5.7132545669291339
21
-4.1430446062992123
0
LINE
8
BLACK
6
CONTINUOUS
10
5.7132545669291339
20
-4.1430446062992123
11
5.7132545669291339
21
-4.1263779133858263
0
LINE
8
BLACK
6
CONTINUOUS
10
5.7132545669291339
20
-4.1263779133858263
11
5.6965879133858266
21
-4.1263779133858263
0
LINE
8
BLACK
6
CONTINUOUS
10
5.6965879133858266
20
-4.1263779133858263
11
5.6799212598425193
21
-4.1263779133858263
0
LINE
8
BLACK
6
CONTINUOUS
10
5.6799212598425193
20
-4.1263779133858263
11
5.6632545669291341
21
-4.1263779133858263
0
LINE
8
BLACK
6
CONTINUOUS
10
5.6632545669291341
20
-4.1263779133858263
11
5.6465879133858268
21
-4.1263779133858263
0
LINE
8
BLACK
6
CONTINUOUS
10
5.6465879133858268
20
-4.1263779133858263
11
5.6299212598425195
21
-4.1263779133858263
0
LINE
8
BLACK
6
CONTINUOUS
10
5.6299212598425195
20
-4.1263779133858263
11
5.6299212598425195
21
-4.1430446062992123
0
LINE
8
BLACK
6
CONTINUOUS
10
5.7632545669291337
20
-4.1597112598425197
11
5.7632545669291337
21
-4.1763779527559057
0
LINE
8
BLACK
6
CONTINUOUS
10
5.7632545669291337
20
-4.1763779527559057
11
5.7799212598425198
21
-4.1763779527559057
0
LINE
8
BLACK
6
CONTINUOUS
10
5.7799212598425198
20
-4.1763779527559057
11
5.7799212598425198
21
-4.1597112598425197
0
LINE
8
BLACK
6
CONTINUOUS
10
5.7799212598425198
20
-4.1597112598425197
11
5.7965879133858262
21
-4.1597112598425197
0
LINE
8
BLACK
6
CONTINUOUS
10
5.7965879133858262
20
-4.1597112598425197
11
5.7965879133858262
21
-4.1763779527559057
0
LINE
8
BLACK
6
CONTINUOUS
10
5.7965879133858262
20
-4.1763779527559057
11
5.7965879133858262
21
-4.1930446062992122
0
LINE
8
BLACK
6
CONTINUOUS
10
5.7965879133858262
20
-4.1930446062992122
11
5.7965879133858262
21
-4.2097112598425195
0
LINE
8
BLACK
6
CONTINUOUS
10
5.7965879133858262
20
-4.2097112598425195
11
5.7799212598425198
21
-4.2097112598425195
0
LINE
8
BLACK
6
CONTINUOUS
10
5.7799212598425198
20
-4.2097112598425195
11
5.7799212598425198
21
-4.2263779133858268
0
LINE
8
BLACK
6
CONTINUOUS
10
5.7799212598425198
20
-4.2263779133858268
11
5.7632545669291337
21
-4.2263779133858268
0
LINE
8
BLACK
6
CONTINUOUS
10
5.7632545669291337
20
-4.2263779133858268
11
5.7465879133858264
21
-4.2263779133858268
0
LINE
8
BLACK
6
CONTINUOUS
10
5.7465879133858264
20
-4.2263779133858268
11
5.7465879133858264
21
-4.2097112598425195
0
LINE
8
BLACK
6
CONTINUOUS
10
5.7465879133858264
20
-4.2097112598425195
11
5.7465879133858264
21
-4.1930446062992122
0
LINE
8
BLACK
6
CONTINUOUS
10
5.7465879133858264
20
-4.1930446062992122
11
5.7465879133858264
21
-4.1763779527559057
0
LINE
8
BLACK
6
CONTINUOUS
10
5.7465879133858264
20
-4.1763779527559057
11
5.7465879133858264
21
-4.1597112598425197
0
LINE
8
BLACK
6
CONTINUOUS
10
5.7465879133858264
20
-4.1597112598425197
11
5.7465879133858264
21
-4.1430446062992123
0
LINE
8
BLACK
6
CONTINUOUS
10
5.7465879133858264
20
-4.1430446062992123
11
5.7632545669291337
21
-4.1430446062992123
0
LINE
8
BLACK
6
CONTINUOUS
10
5.7632545669291337
20
-4.1430446062992123
11
5.7632545669291337
21
-4.1597112598425197
0
LINE
8
BLACK
6
CONTINUOUS
10
5.7632545669291337
20
-4.2097112598425195
11
5.7799212598425198
21
-4.2097112598425195
0
LINE
8
BLACK
6
CONTINUOUS
10
5.7799212598425198
20
-4.2097112598425195
11
5.7799212598425198
21
-4.1930446062992122
0
LINE
8
BLACK
6
CONTINUOUS
10
5.7799212598425198
20
-4.1930446062992122
11
5.7632545669291337
21
-4.1930446062992122
0
LINE
8
BLACK
6
CONTINUOUS
10
5.7632545669291337
20
-4.1930446062992122
11
5.7632545669291337
21
-4.2097112598425195
0
LINE
8
BLACK
6
CONTINUOUS
10
5.8632545669291334
20
-4.1763779527559057
11
5.8799212204724407
21
-4.1763779527559057
0
LINE
8
BLACK
6
CONTINUOUS
10
5.8799212204724407
20
-4.1763779527559057
11
5.8799212204724407
21
-4.1930446062992122
0
LINE
8
BLACK
6
CONTINUOUS
10
5.8799212204724407
20
-4.1930446062992122
11
5.8799212204724407
21
-4.2097112598425195
0
LINE
8
BLACK
6
CONTINUOUS
10
5.8799212204724407
20
-4.2097112598425195
11
5.8799212204724407
21
-4.2263779133858268
0
LINE
8
BLACK
6
CONTINUOUS
10
5.8799212204724407
20
-4.2263779133858268
11
5.8632545669291334
21
-4.2263779133858268
0
LINE
8
BLACK
6
CONTINUOUS
10
5.8632545669291334
20
-4.2263779133858268
11
5.846587913385827
21
-4.2263779133858268
0
LINE
8
BLACK
6
CONTINUOUS
10
5.846587913385827
20
-4.2263779133858268
11
5.846587913385827
21
-4.2097112598425195
0
LINE
8
BLACK
6
CONTINUOUS
10
5.846587913385827
20
-4.2097112598425195
11
5.8299212204724409
21
-4.2097112598425195
0
LINE
8
BLACK
6
CONTINUOUS
10
5.8299212204724409
20
-4.2097112598425195
11
5.8299212204724409
21
-4.2263779133858268
0
LINE
8
BLACK
6
CONTINUOUS
10
5.8299212204724409
20
-4.2263779133858268
11
5.8132545669291336
21
-4.2263779133858268
0
LINE
8
BLACK
6
CONTINUOUS
10
5.8132545669291336
20
-4.2263779133858268
11
5.8132545669291336
21
-4.2097112598425195
0
LINE
8
BLACK
6
CONTINUOUS
10
5.8132545669291336
20
-4.2097112598425195
11
5.8132545669291336
21
-4.1930446062992122
0
LINE
8
BLACK
6
CONTINUOUS
10
5.8132545669291336
20
-4.1930446062992122
11
5.8299212204724409
21
-4.1930446062992122
0
LINE
8
BLACK
6
CONTINUOUS
10
5.8299212204724409
20
-4.1930446062992122
11
5.8299212204724409
21
-4.1763779527559057
0
LINE
8
BLACK
6
CONTINUOUS
10
5.8299212204724409
20
-4.1763779527559057
11
5.8132545669291336
21
-4.1763779527559057
0
LINE
8
BLACK
6
CONTINUOUS
10
5.8132545669291336
20
-4.1763779527559057
11
5.8132545669291336
21
-4.1597112598425197
0
LINE
8
BLACK
6
CONTINUOUS
10
5.8132545669291336
20
-4.1597112598425197
11
5.8299212204724409
21
-4.1597112598425197
0
LINE
8
BLACK
6
CONTINUOUS
10
5.8299212204724409
20
-4.1597112598425197
11
5.846587913385827
21
-4.1597112598425197
0
LINE
8
BLACK
6
CONTINUOUS
10
5.846587913385827
20
-4.1597112598425197
11
5.8632545669291334
21
-4.1597112598425197
0
LINE
8
BLACK
6
CONTINUOUS
10
5.8632545669291334
20
-4.1597112598425197
11
5.8632545669291334
21
-4.1763779527559057
0
LINE
8
BLACK
6
CONTINUOUS
10
5.846587913385827
20
-4.2097112598425195
11
5.8632545669291334
21
-4.2097112598425195
0
LINE
8
BLACK
6
CONTINUOUS
10
5.8632545669291334
20
-4.2097112598425195
11
5.8632545669291334
21
-4.1930446062992122
0
LINE
8
BLACK
6
CONTINUOUS
10
5.8632545669291334
20
-4.1930446062992122
11
5.846587913385827
21
-4.1930446062992122
0
LINE
8
BLACK
6
CONTINUOUS
10
5.846587913385827
20
-4.1930446062992122
11
5.846587913385827
21
-4.2097112598425195
0
LINE
8
BLACK
6
CONTINUOUS
10
5.9465878740157478
20
-4.2263779133858268
11
5.9299212204724405
21
-4.2263779133858268
0
LINE
8
BLACK
6
CONTINUOUS
10
5.9299212204724405
20
-4.2263779133858268
11
5.9132545669291341
21
-4.2263779133858268
0
LINE
8
BLACK
6
CONTINUOUS
10
5.9132545669291341
20
-4.2263779133858268
11
5.8965879133858268
21
-4.2263779133858268
0
LINE
8
BLACK
6
CONTINUOUS
10
5.8965879133858268
20
-4.2263779133858268
11
5.8965879133858268
21
-4.2097112598425195
0
LINE
8
BLACK
6
CONTINUOUS
10
5.8965879133858268
20
-4.2097112598425195
11
5.9132545669291341
21
-4.2097112598425195
0
LINE
8
BLACK
6
CONTINUOUS
10
5.9132545669291341
20
-4.2097112598425195
11
5.9299212204724405
21
-4.2097112598425195
0
LINE
8
BLACK
6
CONTINUOUS
10
5.9299212204724405
20
-4.2097112598425195
11
5.9465878740157478
21
-4.2097112598425195
0
LINE
8
BLACK
6
CONTINUOUS
10
5.9465878740157478
20
-4.2097112598425195
11
5.9465878740157478
21
-4.2263779133858268
0
LINE
8
BLACK
6
CONTINUOUS
10
5.9965878740157477
20
-4.1263779133858263
11
5.9799212204724412
21
-4.1263779133858263
0
LINE
8
BLACK
6
CONTINUOUS
10
5.9799212204724412
20
-4.1263779133858263
11
5.9799212204724412
21
-4.1097112598425198
0
LINE
8
BLACK
6
CONTINUOUS
10
5.9799212204724412
20
-4.1097112598425198
11
5.9965878740157477
21
-4.1097112598425198
0
LINE
8
BLACK
6
CONTINUOUS
10
5.9965878740157477
20
-4.1097112598425198
11
5.9965878740157477
21
-4.1263779133858263
0
LINE
8
BLACK
6
CONTINUOUS
10
5.8799212204724407
20
-3.9097112992125984
11
5.8965879133858268
21
-3.9097112992125984
0
LINE
8
BLACK
6
CONTINUOUS
10
5.8965879133858268
20
-3.9097112992125984
11
5.8965879133858268
21
-3.9263779527559053
0
LINE
8
BLACK
6
CONTINUOUS
10
5.8965879133858268
20
-3.9263779527559053
11
5.8965879133858268
21
-3.9430446062992126
0
LINE
8
BLACK
6
CONTINUOUS
10
5.8965879133858268
20
-3.9430446062992126
11
5.8965879133858268
21
-3.9597112598425195
0
LINE
8
BLACK
6
CONTINUOUS
10
5.8965879133858268
20
-3.9597112598425195
11
5.9132545669291341
21
-3.9597112598425195
0
LINE
8
BLACK
6
CONTINUOUS
10
5.9132545669291341
20
-3.9597112598425195
11
5.9299212204724405
21
-3.9597112598425195
0
LINE
8
BLACK
6
CONTINUOUS
10
5.9299212204724405
20
-3.9597112598425195
11
5.9299212204724405
21
-3.9763779527559056
0
LINE
8
BLACK
6
CONTINUOUS
10
5.9299212204724405
20
-3.9763779527559056
11
5.9132545669291341
21
-3.9763779527559056
0
LINE
8
BLACK
6
CONTINUOUS
10
5.9132545669291341
20
-3.9763779527559056
11
5.8965879133858268
21
-3.9763779527559056
0
LINE
8
BLACK
6
CONTINUOUS
10
5.8965879133858268
20
-3.9763779527559056
11
5.8965879133858268
21
-3.9930446062992124
0
LINE
8
BLACK
6
CONTINUOUS
10
5.8965879133858268
20
-3.9930446062992124
11
5.8965879133858268
21
-4.0097112598425193
0
LINE
8
BLACK
6
CONTINUOUS
10
5.8965879133858268
20
-4.0097112598425193
11
5.9132545669291341
21
-4.0097112598425193
0
LINE
8
BLACK
6
CONTINUOUS
10
5.9132545669291341
20
-4.0097112598425193
11
5.9132545669291341
21
-4.0263779527559054
0
LINE
8
BLACK
6
CONTINUOUS
10
5.9132545669291341
20
-4.0263779527559054
11
5.9299212204724405
21
-4.0263779527559054
0
LINE
8
BLACK
6
CONTINUOUS
10
5.9299212204724405
20
-4.0263779527559054
11
5.9299212204724405
21
-4.0097112598425193
0
LINE
8
BLACK
6
CONTINUOUS
10
5.9299212204724405
20
-4.0097112598425193
11
5.9299212204724405
21
-3.9930446062992124
0
LINE
8
BLACK
6
CONTINUOUS
10
5.9299212204724405
20
-3.9930446062992124
11
5.9465878740157478
21
-3.9930446062992124
0
LINE
8
BLACK
6
CONTINUOUS
10
5.9465878740157478
20
-3.9930446062992124
11
5.9465878740157478
21
-3.9763779527559056
0
LINE
8
BLACK
6
CONTINUOUS
10
5.9465878740157478
20
-3.9763779527559056
11
5.9465878740157478
21
-3.9597112598425195
0
LINE
8
BLACK
6
CONTINUOUS
10
5.9465878740157478
20
-3.9597112598425195
11
5.9632545669291339
21
-3.9597112598425195
0
LINE
8
BLACK
6
CONTINUOUS
10
5.9632545669291339
20
-3.9597112598425195
11
5.9799212204724412
21
-3.9597112598425195
0
LINE
8
BLACK
6
CONTINUOUS
10
5.9799212204724412
20
-3.9597112598425195
11
5.9965878740157477
21
-3.9597112598425195
0
LINE
8
BLACK
6
CONTINUOUS
10
5.9965878740157477
20
-3.9597112598425195
11
6.0132545669291337
21
-3.9597112598425195
0
LINE
8
BLACK
6
CONTINUOUS
10
6.0132545669291337
20
-3.9597112598425195
11
6.0299212204724411
21
-3.9597112598425195
0
LINE
8
BLACK
6
CONTINUOUS
10
6.0299212204724411
20
-3.9597112598425195
11
6.0299212204724411
21
-3.9763779527559056
0
LINE
8
BLACK
6
CONTINUOUS
10
6.0299212204724411
20
-3.9763779527559056
11
6.0465879133858262
21
-3.9763779527559056
0
LINE
8
BLACK
6
CONTINUOUS
10
6.0465879133858262
20
-3.9763779527559056
11
6.0632545669291336
21
-3.9763779527559056
0
LINE
8
BLACK
6
CONTINUOUS
10
6.0632545669291336
20
-3.9763779527559056
11
6.0632545669291336
21
-3.9930446062992124
0
LINE
8
BLACK
6
CONTINUOUS
10
6.0632545669291336
20
-3.9930446062992124
11
6.0465879133858262
21
-3.9930446062992124
0
LINE
8
BLACK
6
CONTINUOUS
10
6.0465879133858262
20
-3.9930446062992124
11
6.0299212204724411
21
-3.9930446062992124
0
LINE
8
BLACK
6
CONTINUOUS
10
6.0299212204724411
20
-3.9930446062992124
11
6.0299212204724411
21
-4.0097112598425193
0
LINE
8
BLACK
6
CONTINUOUS
10
6.0299212204724411
20
-4.0097112598425193
11
6.0132545669291337
21
-4.0097112598425193
0
LINE
8
BLACK
6
CONTINUOUS
10
6.0132545669291337
20
-4.0097112598425193
11
6.0132545669291337
21
-4.0263779527559054
0
LINE
8
BLACK
6
CONTINUOUS
10
6.0132545669291337
20
-4.0263779527559054
11
6.0299212204724411
21
-4.0263779527559054
0
LINE
8
BLACK
6
CONTINUOUS
10
6.0299212204724411
20
-4.0263779527559054
11
6.0299212204724411
21
-4.0097112598425193
0
LINE
8
BLACK
6
CONTINUOUS
10
6.0299212204724411
20
-4.0097112598425193
11
6.0465879133858262
21
-4.0097112598425193
0
LINE
8
BLACK
6
CONTINUOUS
10
6.0465879133858262
20
-4.0097112598425193
11
6.0632545669291336
21
-4.0097112598425193
0
LINE
8
BLACK
6
CONTINUOUS
10
6.0632545669291336
20
-4.0097112598425193
11
6.0632545669291336
21
-4.0263779527559054
0
LINE
8
BLACK
6
CONTINUOUS
10
6.0632545669291336
20
-4.0263779527559054
11
6.0632545669291336
21
-4.0430446062992127
0
LINE
8
BLACK
6
CONTINUOUS
10
6.0632545669291336
20
-4.0430446062992127
11
6.0632545669291336
21
-4.05971125984252
0
LINE
8
BLACK
6
CONTINUOUS
10
6.0632545669291336
20
-4.05971125984252
11
6.0465879133858262
21
-4.05971125984252
0
LINE
8
BLACK
6
CONTINUOUS
10
6.0465879133858262
20
-4.05971125984252
11
6.0465879133858262
21
-4.0430446062992127
0
LINE
8
BLACK
6
CONTINUOUS
10
6.0465879133858262
20
-4.0430446062992127
11
6.0465879133858262
21
-4.0263779527559054
0
LINE
8
BLACK
6
CONTINUOUS
10
6.0465879133858262
20
-4.0263779527559054
11
6.0299212204724411
21
-4.0263779527559054
0
LINE
8
BLACK
6
CONTINUOUS
10
6.0299212204724411
20
-4.0263779527559054
11
6.0299212204724411
21
-4.0430446062992127
0
LINE
8
BLACK
6
CONTINUOUS
10
6.0299212204724411
20
-4.0430446062992127
11
6.0299212204724411
21
-4.05971125984252
0
LINE
8
BLACK
6
CONTINUOUS
10
6.0299212204724411
20
-4.05971125984252
11
6.0132545669291337
21
-4.05971125984252
0
LINE
8
BLACK
6
CONTINUOUS
10
6.0132545669291337
20
-4.05971125984252
11
5.9965878740157477
21
-4.05971125984252
0
LINE
8
BLACK
6
CONTINUOUS
10
5.9965878740157477
20
-4.05971125984252
11
5.9965878740157477
21
-4.0763779133858264
0
LINE
8
BLACK
6
CONTINUOUS
10
5.9965878740157477
20
-4.0763779133858264
11
6.0132545669291337
21
-4.0763779133858264
0
LINE
8
BLACK
6
CONTINUOUS
10
6.0132545669291337
20
-4.0763779133858264
11
6.0299212204724411
21
-4.0763779133858264
0
LINE
8
BLACK
6
CONTINUOUS
10
6.0299212204724411
20
-4.0763779133858264
11
6.0299212204724411
21
-4.0930446062992125
0
LINE
8
BLACK
6
CONTINUOUS
10
6.0299212204724411
20
-4.0930446062992125
11
6.0465879133858262
21
-4.0930446062992125
0
LINE
8
BLACK
6
CONTINUOUS
10
6.0465879133858262
20
-4.0930446062992125
11
6.0465879133858262
21
-4.0763779133858264
0
LINE
8
BLACK
6
CONTINUOUS
10
6.0465879133858262
20
-4.0763779133858264
11
6.0632545669291336
21
-4.0763779133858264
0
LINE
8
BLACK
6
CONTINUOUS
10
6.0632545669291336
20
-4.0763779133858264
11
6.0632545669291336
21
-4.05971125984252
0
LINE
8
BLACK
6
CONTINUOUS
10
6.0632545669291336
20
-4.05971125984252
11
6.0799212204724409
21
-4.05971125984252
0
LINE
8
BLACK
6
CONTINUOUS
10
6.0799212204724409
20
-4.05971125984252
11
6.0799212204724409
21
-4.0763779133858264
0
LINE
8
BLACK
6
CONTINUOUS
10
6.0799212204724409
20
-4.0763779133858264
11
6.0965878740157482
21
-4.0763779133858264
0
LINE
8
BLACK
6
CONTINUOUS
10
6.0965878740157482
20
-4.0763779133858264
11
6.0965878740157482
21
-4.0930446062992125
0
LINE
8
BLACK
6
CONTINUOUS
10
6.0965878740157482
20
-4.0930446062992125
11
6.0965878740157482
21
-4.1097112598425198
0
LINE
8
BLACK
6
CONTINUOUS
10
6.0965878740157482
20
-4.1097112598425198
11
6.0799212204724409
21
-4.1097112598425198
0
LINE
8
BLACK
6
CONTINUOUS
10
6.0799212204724409
20
-4.1097112598425198
11
6.0632545669291336
21
-4.1097112598425198
0
LINE
8
BLACK
6
CONTINUOUS
10
6.0632545669291336
20
-4.1097112598425198
11
6.0632545669291336
21
-4.1263779133858263
0
LINE
8
BLACK
6
CONTINUOUS
10
6.0632545669291336
20
-4.1263779133858263
11
6.0465879133858262
21
-4.1263779133858263
0
LINE
8
BLACK
6
CONTINUOUS
10
6.0465879133858262
20
-4.1263779133858263
11
6.0299212204724411
21
-4.1263779133858263
0
LINE
8
BLACK
6
CONTINUOUS
10
6.0299212204724411
20
-4.1263779133858263
11
6.0299212204724411
21
-4.1430446062992123
0
LINE
8
BLACK
6
CONTINUOUS
10
6.0299212204724411
20
-4.1430446062992123
11
6.0299212204724411
21
-4.1597112598425197
0
LINE
8
BLACK
6
CONTINUOUS
10
6.0299212204724411
20
-4.1597112598425197
11
6.0465879133858262
21
-4.1597112598425197
0
LINE
8
BLACK
6
CONTINUOUS
10
6.0465879133858262
20
-4.1597112598425197
11
6.0465879133858262
21
-4.1430446062992123
0
LINE
8
BLACK
6
CONTINUOUS
10
6.0465879133858262
20
-4.1430446062992123
11
6.0632545669291336
21
-4.1430446062992123
0
LINE
8
BLACK
6
CONTINUOUS
10
6.0632545669291336
20
-4.1430446062992123
11
6.0632545669291336
21
-4.1597112598425197
0
LINE
8
BLACK
6
CONTINUOUS
10
6.0632545669291336
20
-4.1597112598425197
11
6.0632545669291336
21
-4.1763779527559057
0
LINE
8
BLACK
6
CONTINUOUS
10
6.0632545669291336
20
-4.1763779527559057
11
6.0799212204724409
21
-4.1763779527559057
0
LINE
8
BLACK
6
CONTINUOUS
10
6.0799212204724409
20
-4.1763779527559057
11
6.0799212204724409
21
-4.1930446062992122
0
LINE
8
BLACK
6
CONTINUOUS
10
6.0799212204724409
20
-4.1930446062992122
11
6.0799212204724409
21
-4.2097112598425195
0
LINE
8
BLACK
6
CONTINUOUS
10
6.0799212204724409
20
-4.2097112598425195
11
6.0632545669291336
21
-4.2097112598425195
0
LINE
8
BLACK
6
CONTINUOUS
10
6.0632545669291336
20
-4.2097112598425195
11
6.0632545669291336
21
-4.1930446062992122
0
LINE
8
BLACK
6
CONTINUOUS
10
6.0632545669291336
20
-4.1930446062992122
11
6.0465879133858262
21
-4.1930446062992122
0
LINE
8
BLACK
6
CONTINUOUS
10
6.0465879133858262
20
-4.1930446062992122
11
6.0465879133858262
21
-4.2097112598425195
0
LINE
8
BLACK
6
CONTINUOUS
10
6.0465879133858262
20
-4.2097112598425195
11
6.0299212204724411
21
-4.2097112598425195
0
LINE
8
BLACK
6
CONTINUOUS
10
6.0299212204724411
20
-4.2097112598425195
11
6.0299212204724411
21
-4.2263779133858268
0
LINE
8
BLACK
6
CONTINUOUS
10
6.0299212204724411
20
-4.2263779133858268
11
6.0132545669291337
21
-4.2263779133858268
0
LINE
8
BLACK
6
CONTINUOUS
10
6.0132545669291337
20
-4.2263779133858268
11
5.9965878740157477
21
-4.2263779133858268
0
LINE
8
BLACK
6
CONTINUOUS
10
5.9965878740157477
20
-4.2263779133858268
11
5.9799212204724412
21
-4.2263779133858268
0
LINE
8
BLACK
6
CONTINUOUS
10
5.9799212204724412
20
-4.2263779133858268
11
5.9799212204724412
21
-4.2097112598425195
0
LINE
8
BLACK
6
CONTINUOUS
10
5.9799212204724412
20
-4.2097112598425195
11
5.9632545669291339
21
-4.2097112598425195
0
LINE
8
BLACK
6
CONTINUOUS
10
5.9632545669291339
20
-4.2097112598425195
11
5.9465878740157478
21
-4.2097112598425195
0
LINE
8
BLACK
6
CONTINUOUS
10
5.9465878740157478
20
-4.2097112598425195
11
5.9465878740157478
21
-4.1930446062992122
0
LINE
8
BLACK
6
CONTINUOUS
10
5.9465878740157478
20
-4.1930446062992122
11
5.9299212204724405
21
-4.1930446062992122
0
LINE
8
BLACK
6
CONTINUOUS
10
5.9299212204724405
20
-4.1930446062992122
11
5.9299212204724405
21
-4.1763779527559057
0
LINE
8
BLACK
6
CONTINUOUS
10
5.9299212204724405
20
-4.1763779527559057
11
5.9299212204724405
21
-4.1597112598425197
0
LINE
8
BLACK
6
CONTINUOUS
10
5.9299212204724405
20
-4.1597112598425197
11
5.9465878740157478
21
-4.1597112598425197
0
LINE
8
BLACK
6
CONTINUOUS
10
5.9465878740157478
20
-4.1597112598425197
11
5.9465878740157478
21
-4.1430446062992123
0
LINE
8
BLACK
6
CONTINUOUS
10
5.9465878740157478
20
-4.1430446062992123
11
5.9299212204724405
21
-4.1430446062992123
0
LINE
8
BLACK
6
CONTINUOUS
10
5.9299212204724405
20
-4.1430446062992123
11
5.9132545669291341
21
-4.1430446062992123
0
LINE
8
BLACK
6
CONTINUOUS
10
5.9132545669291341
20
-4.1430446062992123
11
5.9132545669291341
21
-4.1597112598425197
0
LINE
8
BLACK
6
CONTINUOUS
10
5.9132545669291341
20
-4.1597112598425197
11
5.8965879133858268
21
-4.1597112598425197
0
LINE
8
BLACK
6
CONTINUOUS
10
5.8965879133858268
20
-4.1597112598425197
11
5.8799212204724407
21
-4.1597112598425197
0
LINE
8
BLACK
6
CONTINUOUS
10
5.8799212204724407
20
-4.1597112598425197
11
5.8632545669291334
21
-4.1597112598425197
0
LINE
8
BLACK
6
CONTINUOUS
10
5.8632545669291334
20
-4.1597112598425197
11
5.8632545669291334
21
-4.1430446062992123
0
LINE
8
BLACK
6
CONTINUOUS
10
5.8632545669291334
20
-4.1430446062992123
11
5.8799212204724407
21
-4.1430446062992123
0
LINE
8
BLACK
6
CONTINUOUS
10
5.8799212204724407
20
-4.1430446062992123
11
5.8799212204724407
21
-4.1263779133858263
0
LINE
8
BLACK
6
CONTINUOUS
10
5.8799212204724407
20
-4.1263779133858263
11
5.8799212204724407
21
-4.1097112598425198
0
LINE
8
BLACK
6
CONTINUOUS
10
5.8799212204724407
20
-4.1097112598425198
11
5.8965879133858268
21
-4.1097112598425198
0
LINE
8
BLACK
6
CONTINUOUS
10
5.8965879133858268
20
-4.1097112598425198
11
5.8965879133858268
21
-4.1263779133858263
0
LINE
8
BLACK
6
CONTINUOUS
10
5.8965879133858268
20
-4.1263779133858263
11
5.8965879133858268
21
-4.1430446062992123
0
LINE
8
BLACK
6
CONTINUOUS
10
5.8965879133858268
20
-4.1430446062992123
11
5.9132545669291341
21
-4.1430446062992123
0
LINE
8
BLACK
6
CONTINUOUS
10
5.9132545669291341
20
-4.1430446062992123
11
5.9132545669291341
21
-4.1263779133858263
0
LINE
8
BLACK
6
CONTINUOUS
10
5.9132545669291341
20
-4.1263779133858263
11
5.9132545669291341
21
-4.1097112598425198
0
LINE
8
BLACK
6
CONTINUOUS
10
5.9132545669291341
20
-4.1097112598425198
11
5.8965879133858268
21
-4.1097112598425198
0
LINE
8
BLACK
6
CONTINUOUS
10
5.8965879133858268
20
-4.1097112598425198
11
5.8965879133858268
21
-4.0930446062992125
0
LINE
8
BLACK
6
CONTINUOUS
10
5.8965879133858268
20
-4.0930446062992125
11
5.8965879133858268
21
-4.0763779133858264
0
LINE
8
BLACK
6
CONTINUOUS
10
5.8965879133858268
20
-4.0763779133858264
11
5.9132545669291341
21
-4.0763779133858264
0
LINE
8
BLACK
6
CONTINUOUS
10
5.9132545669291341
20
-4.0763779133858264
11
5.9132545669291341
21
-4.0930446062992125
0
LINE
8
BLACK
6
CONTINUOUS
10
5.9132545669291341
20
-4.0930446062992125
11
5.9299212204724405
21
-4.0930446062992125
0
LINE
8
BLACK
6
CONTINUOUS
10
5.9299212204724405
20
-4.0930446062992125
11
5.9299212204724405
21
-4.0763779133858264
0
LINE
8
BLACK
6
CONTINUOUS
10
5.9299212204724405
20
-4.0763779133858264
11
5.9465878740157478
21
-4.0763779133858264
0
LINE
8
BLACK
6
CONTINUOUS
10
5.9465878740157478
20
-4.0763779133858264
11
5.9465878740157478
21
-4.05971125984252
0
LINE
8
BLACK
6
CONTINUOUS
10
5.9465878740157478
20
-4.05971125984252
11
5.9465878740157478
21
-4.0430446062992127
0
LINE
8
BLACK
6
CONTINUOUS
10
5.9465878740157478
20
-4.0430446062992127
11
5.9632545669291339
21
-4.0430446062992127
0
LINE
8
BLACK
6
CONTINUOUS
10
5.9632545669291339
20
-4.0430446062992127
11
5.9632545669291339
21
-4.0263779527559054
0
LINE
8
BLACK
6
CONTINUOUS
10
5.9632545669291339
20
-4.0263779527559054
11
5.9632545669291339
21
-4.0097112598425193
0
LINE
8
BLACK
6
CONTINUOUS
10
5.9632545669291339
20
-4.0097112598425193
11
5.9465878740157478
21
-4.0097112598425193
0
LINE
8
BLACK
6
CONTINUOUS
10
5.9465878740157478
20
-4.0097112598425193
11
5.9465878740157478
21
-4.0263779527559054
0
LINE
8
BLACK
6
CONTINUOUS
10
5.9465878740157478
20
-4.0263779527559054
11
5.9465878740157478
21
-4.0430446062992127
0
LINE
8
BLACK
6
CONTINUOUS
10
5.9465878740157478
20
-4.0430446062992127
11
5.9299212204724405
21
-4.0430446062992127
0
LINE
8
BLACK
6
CONTINUOUS
10
5.9299212204724405
20
-4.0430446062992127
11
5.9299212204724405
21
-4.05971125984252
0
LINE
8
BLACK
6
CONTINUOUS
10
5.9299212204724405
20
-4.05971125984252
11
5.9132545669291341
21
-4.05971125984252
0
LINE
8
BLACK
6
CONTINUOUS
10
5.9132545669291341
20
-4.05971125984252
11
5.9132545669291341
21
-4.0430446062992127
0
LINE
8
BLACK
6
CONTINUOUS
10
5.9132545669291341
20
-4.0430446062992127
11
5.8965879133858268
21
-4.0430446062992127
0
LINE
8
BLACK
6
CONTINUOUS
10
5.8965879133858268
20
-4.0430446062992127
11
5.8965879133858268
21
-4.05971125984252
0
LINE
8
BLACK
6
CONTINUOUS
10
5.8965879133858268
20
-4.05971125984252
11
5.8799212204724407
21
-4.05971125984252
0
LINE
8
BLACK
6
CONTINUOUS
10
5.8799212204724407
20
-4.05971125984252
11
5.8632545669291334
21
-4.05971125984252
0
LINE
8
BLACK
6
CONTINUOUS
10
5.8632545669291334
20
-4.05971125984252
11
5.846587913385827
21
-4.05971125984252
0
LINE
8
BLACK
6
CONTINUOUS
10
5.846587913385827
20
-4.05971125984252
11
5.846587913385827
21
-4.0763779133858264
0
LINE
8
BLACK
6
CONTINUOUS
10
5.846587913385827
20
-4.0763779133858264
11
5.8299212204724409
21
-4.0763779133858264
0
LINE
8
BLACK
6
CONTINUOUS
10
5.8299212204724409
20
-4.0763779133858264
11
5.8299212204724409
21
-4.0930446062992125
0
LINE
8
BLACK
6
CONTINUOUS
10
5.8299212204724409
20
-4.0930446062992125
11
5.8132545669291336
21
-4.0930446062992125
0
LINE
8
BLACK
6
CONTINUOUS
10
5.8132545669291336
20
-4.0930446062992125
11
5.8132545669291336
21
-4.0763779133858264
0
LINE
8
BLACK
6
CONTINUOUS
10
5.8132545669291336
20
-4.0763779133858264
11
5.8132545669291336
21
-4.05971125984252
0
LINE
8
BLACK
6
CONTINUOUS
10
5.8132545669291336
20
-4.05971125984252
11
5.8299212204724409
21
-4.05971125984252
0
LINE
8
BLACK
6
CONTINUOUS
10
5.8299212204724409
20
-4.05971125984252
11
5.8299212204724409
21
-4.0430446062992127
0
LINE
8
BLACK
6
CONTINUOUS
10
5.8299212204724409
20
-4.0430446062992127
11
5.8132545669291336
21
-4.0430446062992127
0
LINE
8
BLACK
6
CONTINUOUS
10
5.8132545669291336
20
-4.0430446062992127
11
5.8132545669291336
21
-4.0263779527559054
0
LINE
8
BLACK
6
CONTINUOUS
10
5.8132545669291336
20
-4.0263779527559054
11
5.8299212204724409
21
-4.0263779527559054
0
LINE
8
BLACK
6
CONTINUOUS
10
5.8299212204724409
20
-4.0263779527559054
11
5.846587913385827
21
-4.0263779527559054
0
LINE
8
BLACK
6
CONTINUOUS
10
5.846587913385827
20
-4.0263779527559054
11
5.846587913385827
21
-4.0430446062992127
0
LINE
8
BLACK
6
CONTINUOUS
10
5.846587913385827
20
-4.0430446062992127
11
5.8799212204724407
21
-4.0430446062992127
0
LINE
8
BLACK
6
CONTINUOUS
10
5.8799212204724407
20
-4.0430446062992127
11
5.8799212204724407
21
-4.0263779527559054
0
LINE
8
BLACK
6
CONTINUOUS
10
5.8799212204724407
20
-4.0263779527559054
11
5.8799212204724407
21
-4.0097112598425193
0
LINE
8
BLACK
6
CONTINUOUS
10
5.8799212204724407
20
-4.0097112598425193
11
5.8799212204724407
21
-3.9930446062992124
0
LINE
8
BLACK
6
CONTINUOUS
10
5.8799212204724407
20
-3.9930446062992124
11
5.8632545669291334
21
-3.9930446062992124
0
LINE
8
BLACK
6
CONTINUOUS
10
5.8632545669291334
20
-3.9930446062992124
11
5.8632545669291334
21
-3.9763779527559056
0
LINE
8
BLACK
6
CONTINUOUS
10
5.8632545669291334
20
-3.9763779527559056
11
5.8799212204724407
21
-3.9763779527559056
0
LINE
8
BLACK
6
CONTINUOUS
10
5.8799212204724407
20
-3.9763779527559056
11
5.8799212204724407
21
-3.9597112598425195
0
LINE
8
BLACK
6
CONTINUOUS
10
5.8799212204724407
20
-3.9597112598425195
11
5.8799212204724407
21
-3.9430446062992126
0
LINE
8
BLACK
6
CONTINUOUS
10
5.8799212204724407
20
-3.9430446062992126
11
5.8632545669291334
21
-3.9430446062992126
0
LINE
8
BLACK
6
CONTINUOUS
10
5.8632545669291334
20
-3.9430446062992126
11
5.8632545669291334
21
-3.9597112598425195
0
LINE
8
BLACK
6
CONTINUOUS
10
5.8632545669291334
20
-3.9597112598425195
11
5.846587913385827
21
-3.9597112598425195
0
LINE
8
BLACK
6
CONTINUOUS
10
5.846587913385827
20
-3.9597112598425195
11
5.846587913385827
21
-3.9430446062992126
0
LINE
8
BLACK
6
CONTINUOUS
10
5.846587913385827
20
-3.9430446062992126
11
5.8299212204724409
21
-3.9430446062992126
0
LINE
8
BLACK
6
CONTINUOUS
10
5.8299212204724409
20
-3.9430446062992126
11
5.8299212204724409
21
-3.9597112598425195
0
LINE
8
BLACK
6
CONTINUOUS
10
5.8299212204724409
20
-3.9597112598425195
11
5.8132545669291336
21
-3.9597112598425195
0
LINE
8
BLACK
6
CONTINUOUS
10
5.8132545669291336
20
-3.9597112598425195
11
5.8132545669291336
21
-3.9430446062992126
0
LINE
8
BLACK
6
CONTINUOUS
10
5.8132545669291336
20
-3.9430446062992126
11
5.8132545669291336
21
-3.9263779527559053
0
LINE
8
BLACK
6
CONTINUOUS
10
5.8132545669291336
20
-3.9263779527559053
11
5.8299212204724409
21
-3.9263779527559053
0
LINE
8
BLACK
6
CONTINUOUS
10
5.8299212204724409
20
-3.9263779527559053
11
5.8299212204724409
21
-3.9097112992125984
0
LINE
8
BLACK
6
CONTINUOUS
10
5.8299212204724409
20
-3.9097112992125984
11
5.8132545669291336
21
-3.9097112992125984
0
LINE
8
BLACK
6
CONTINUOUS
10
5.8132545669291336
20
-3.9097112992125984
11
5.8132545669291336
21
-3.8930446062992123
0
LINE
8
BLACK
6
CONTINUOUS
10
5.8132545669291336
20
-3.8930446062992123
11
5.8299212204724409
21
-3.8930446062992123
0
LINE
8
BLACK
6
CONTINUOUS
10
5.8299212204724409
20
-3.8930446062992123
11
5.846587913385827
21
-3.8930446062992123
0
LINE
8
BLACK
6
CONTINUOUS
10
5.846587913385827
20
-3.8930446062992123
11
5.8632545669291334
21
-3.8930446062992123
0
LINE
8
BLACK
6
CONTINUOUS
10
5.8632545669291334
20
-3.8930446062992123
11
5.8799212204724407
21
-3.8930446062992123
0
LINE
8
BLACK
6
CONTINUOUS
10
5.8799212204724407
20
-3.8930446062992123
11
5.8799212204724407
21
-3.9097112992125984
0
LINE
8
BLACK
6
CONTINUOUS
10
5.9799212204724412
20
-4.2097112598425195
11
5.9965878740157477
21
-4.2097112598425195
0
LINE
8
BLACK
6
CONTINUOUS
10
5.9965878740157477
20
-4.2097112598425195
11
5.9965878740157477
21
-4.1930446062992122
0
LINE
8
BLACK
6
CONTINUOUS
10
5.9965878740157477
20
-4.1930446062992122
11
5.9799212204724412
21
-4.1930446062992122
0
LINE
8
BLACK
6
CONTINUOUS
10
5.9799212204724412
20
-4.1930446062992122
11
5.9799212204724412
21
-4.2097112598425195
0
LINE
8
BLACK
6
CONTINUOUS
10
6.0132545669291337
20
-4.2097112598425195
11
6.0299212204724411
21
-4.2097112598425195
0
LINE
8
BLACK
6
CONTINUOUS
10
6.0299212204724411
20
-4.2097112598425195
11
6.0299212204724411
21
-4.1930446062992122
0
LINE
8
BLACK
6
CONTINUOUS
10
6.0299212204724411
20
-4.1930446062992122
11
6.0132545669291337
21
-4.1930446062992122
0
LINE
8
BLACK
6
CONTINUOUS
10
6.0132545669291337
20
-4.1930446062992122
11
6.0132545669291337
21
-4.2097112598425195
0
LINE
8
BLACK
6
CONTINUOUS
10
5.9632545669291339
20
-4.1763779527559057
11
5.9799212204724412
21
-4.1763779527559057
0
LINE
8
BLACK
6
CONTINUOUS
10
5.9799212204724412
20
-4.1763779527559057
11
5.9965878740157477
21
-4.1763779527559057
0
LINE
8
BLACK
6
CONTINUOUS
10
5.9965878740157477
20
-4.1763779527559057
11
6.0132545669291337
21
-4.1763779527559057
0
LINE
8
BLACK
6
CONTINUOUS
10
6.0132545669291337
20
-4.1763779527559057
11
6.0299212204724411
21
-4.1763779527559057
0
LINE
8
BLACK
6
CONTINUOUS
10
6.0299212204724411
20
-4.1763779527559057
11
6.0299212204724411
21
-4.1597112598425197
0
LINE
8
BLACK
6
CONTINUOUS
10
6.0299212204724411
20
-4.1597112598425197
11
6.0132545669291337
21
-4.1597112598425197
0
LINE
8
BLACK
6
CONTINUOUS
10
6.0132545669291337
20
-4.1597112598425197
11
5.9965878740157477
21
-4.1597112598425197
0
LINE
8
BLACK
6
CONTINUOUS
10
5.9965878740157477
20
-4.1597112598425197
11
5.9799212204724412
21
-4.1597112598425197
0
LINE
8
BLACK
6
CONTINUOUS
10
5.9799212204724412
20
-4.1597112598425197
11
5.9632545669291339
21
-4.1597112598425197
0
LINE
8
BLACK
6
CONTINUOUS
10
5.9632545669291339
20
-4.1597112598425197
11
5.9632545669291339
21
-4.1763779527559057
0
LINE
8
BLACK
6
CONTINUOUS
10
5.9632545669291339
20
-4.1097112598425198
11
5.9632545669291339
21
-4.1263779133858263
0
LINE
8
BLACK
6
CONTINUOUS
10
5.9632545669291339
20
-4.1263779133858263
11
5.9632545669291339
21
-4.1430446062992123
0
LINE
8
BLACK
6
CONTINUOUS
10
5.9632545669291339
20
-4.1430446062992123
11
5.9799212204724412
21
-4.1430446062992123
0
LINE
8
BLACK
6
CONTINUOUS
10
5.9799212204724412
20
-4.1430446062992123
11
5.9965878740157477
21
-4.1430446062992123
0
LINE
8
BLACK
6
CONTINUOUS
10
5.9965878740157477
20
-4.1430446062992123
11
6.0132545669291337
21
-4.1430446062992123
0
LINE
8
BLACK
6
CONTINUOUS
10
6.0132545669291337
20
-4.1430446062992123
11
6.0132545669291337
21
-4.1263779133858263
0
LINE
8
BLACK
6
CONTINUOUS
10
6.0132545669291337
20
-4.1263779133858263
11
6.0132545669291337
21
-4.1097112598425198
0
LINE
8
BLACK
6
CONTINUOUS
10
6.0132545669291337
20
-4.1097112598425198
11
6.0132545669291337
21
-4.0930446062992125
0
LINE
8
BLACK
6
CONTINUOUS
10
6.0132545669291337
20
-4.0930446062992125
11
5.9965878740157477
21
-4.0930446062992125
0
LINE
8
BLACK
6
CONTINUOUS
10
5.9965878740157477
20
-4.0930446062992125
11
5.9799212204724412
21
-4.0930446062992125
0
LINE
8
BLACK
6
CONTINUOUS
10
5.9799212204724412
20
-4.0930446062992125
11
5.9632545669291339
21
-4.0930446062992125
0
LINE
8
BLACK
6
CONTINUOUS
10
5.9632545669291339
20
-4.0930446062992125
11
5.9632545669291339
21
-4.1097112598425198
0
LINE
8
BLACK
6
CONTINUOUS
10
5.9299212204724405
20
-4.1097112598425198
11
5.9465878740157478
21
-4.1097112598425198
0
LINE
8
BLACK
6
CONTINUOUS
10
5.9465878740157478
20
-4.1097112598425198
11
5.9465878740157478
21
-4.0930446062992125
0
LINE
8
BLACK
6
CONTINUOUS
10
5.9465878740157478
20
-4.0930446062992125
11
5.9299212204724405
21
-4.0930446062992125
0
LINE
8
BLACK
6
CONTINUOUS
10
5.9299212204724405
20
-4.0930446062992125
11
5.9299212204724405
21
-4.1097112598425198
0
LINE
8
BLACK
6
CONTINUOUS
10
5.9632545669291339
20
-4.05971125984252
11
5.9799212204724412
21
-4.05971125984252
0
LINE
8
BLACK
6
CONTINUOUS
10
5.9799212204724412
20
-4.05971125984252
11
5.9799212204724412
21
-4.0430446062992127
0
LINE
8
BLACK
6
CONTINUOUS
10
5.9799212204724412
20
-4.0430446062992127
11
5.9632545669291339
21
-4.0430446062992127
0
LINE
8
BLACK
6
CONTINUOUS
10
5.9632545669291339
20
-4.0430446062992127
11
5.9632545669291339
21
-4.05971125984252
0
LINE
8
BLACK
6
CONTINUOUS
10
5.9799212204724412
20
-4.0263779527559054
11
5.9965878740157477
21
-4.0263779527559054
0
LINE
8
BLACK
6
CONTINUOUS
10
5.9965878740157477
20
-4.0263779527559054
11
5.9965878740157477
21
-4.0097112598425193
0
LINE
8
BLACK
6
CONTINUOUS
10
5.9965878740157477
20
-4.0097112598425193
11
5.9799212204724412
21
-4.0097112598425193
0
LINE
8
BLACK
6
CONTINUOUS
10
5.9799212204724412
20
-4.0097112598425193
11
5.9799212204724412
21
-4.0263779527559054
0
LINE
8
BLACK
6
CONTINUOUS
10
5.9799212204724412
20
-3.9930446062992124
11
6.0132545669291337
21
-3.9930446062992124
0
LINE
8
BLACK
6
CONTINUOUS
10
6.0132545669291337
20
-3.9930446062992124
11
6.0132545669291337
21
-3.9763779527559056
0
LINE
8
BLACK
6
CONTINUOUS
10
6.0132545669291337
20
-3.9763779527559056
11
5.9965878740157477
21
-3.9763779527559056
0
LINE
8
BLACK
6
CONTINUOUS
10
5.9965878740157477
20
-3.9763779527559056
11
5.9799212204724412
21
-3.9763779527559056
0
LINE
8
BLACK
6
CONTINUOUS
10
5.9799212204724412
20
-3.9763779527559056
11
5.9799212204724412
21
-3.9930446062992124
0
LINE
8
BLACK
6
CONTINUOUS
10
5.846587913385827
20
-3.9263779527559053
11
5.8632545669291334
21
-3.9263779527559053
0
LINE
8
BLACK
6
CONTINUOUS
10
5.8632545669291334
20
-3.9263779527559053
11
5.8632545669291334
21
-3.9097112992125984
0
LINE
8
BLACK
6
CONTINUOUS
10
5.8632545669291334
20
-3.9097112992125984
11
5.846587913385827
21
-3.9097112992125984
0
LINE
8
BLACK
6
CONTINUOUS
10
5.846587913385827
20
-3.9097112992125984
11
5.846587913385827
21
-3.9263779527559053
0
LINE
8
BLACK
6
CONTINUOUS
10
6.0632545669291336
20
-4.2263779133858268
11
6.0465879133858262
21
-4.2263779133858268
0
LINE
8
BLACK
6
CONTINUOUS
10
6.0465879133858262
20
-4.2263779133858268
11
6.0465879133858262
21
-4.2097112598425195
0
LINE
8
BLACK
6
CONTINUOUS
10
6.0465879133858262
20
-4.2097112598425195
11
6.0632545669291336
21
-4.2097112598425195
0
LINE
8
BLACK
6
CONTINUOUS
10
6.0632545669291336
20
-4.2097112598425195
11
6.0632545669291336
21
-4.2263779133858268
0
LINE
8
BLACK
6
CONTINUOUS
10
5.8299212204724409
20
-4.1263779133858263
11
5.8132545669291336
21
-4.1263779133858263
0
LINE
8
BLACK
6
CONTINUOUS
10
5.8132545669291336
20
-4.1263779133858263
11
5.8132545669291336
21
-4.1430446062992123
0
LINE
8
BLACK
6
CONTINUOUS
10
5.8132545669291336
20
-4.1430446062992123
11
5.8132545669291336
21
-4.1597112598425197
0
LINE
8
BLACK
6
CONTINUOUS
10
5.8132545669291336
20
-4.1597112598425197
11
5.7965879133858262
21
-4.1597112598425197
0
LINE
8
BLACK
6
CONTINUOUS
10
5.7965879133858262
20
-4.1597112598425197
11
5.7965879133858262
21
-4.1430446062992123
0
LINE
8
BLACK
6
CONTINUOUS
10
5.7965879133858262
20
-4.1430446062992123
11
5.7965879133858262
21
-4.1263779133858263
0
LINE
8
BLACK
6
CONTINUOUS
10
5.7965879133858262
20
-4.1263779133858263
11
5.7965879133858262
21
-4.1097112598425198
0
LINE
8
BLACK
6
CONTINUOUS
10
5.7965879133858262
20
-4.1097112598425198
11
5.8132545669291336
21
-4.1097112598425198
0
LINE
8
BLACK
6
CONTINUOUS
10
5.8132545669291336
20
-4.1097112598425198
11
5.8299212204724409
21
-4.1097112598425198
0
LINE
8
BLACK
6
CONTINUOUS
10
5.8299212204724409
20
-4.1097112598425198
11
5.8299212204724409
21
-4.1263779133858263
0
LINE
8
BLACK
6
CONTINUOUS
10
6.0965878740157482
20
-4.1597112598425197
11
6.0799212204724409
21
-4.1597112598425197
0
LINE
8
BLACK
6
CONTINUOUS
10
6.0799212204724409
20
-4.1597112598425197
11
6.0799212204724409
21
-4.1430446062992123
0
LINE
8
BLACK
6
CONTINUOUS
10
6.0799212204724409
20
-4.1430446062992123
11
6.0965878740157482
21
-4.1430446062992123
0
LINE
8
BLACK
6
CONTINUOUS
10
6.0965878740157482
20
-4.1430446062992123
11
6.0965878740157482
21
-4.1597112598425197
0
LINE
8
BLACK
6
CONTINUOUS
10
5.7799212598425198
20
-4.1097112598425198
11
5.7799212598425198
21
-4.1263779133858263
0
LINE
8
BLACK
6
CONTINUOUS
10
5.7799212598425198
20
-4.1263779133858263
11
5.7799212598425198
21
-4.1430446062992123
0
LINE
8
BLACK
6
CONTINUOUS
10
5.7799212598425198
20
-4.1430446062992123
11
5.7632545669291337
21
-4.1430446062992123
0
LINE
8
BLACK
6
CONTINUOUS
10
5.7632545669291337
20
-4.1430446062992123
11
5.7632545669291337
21
-4.1263779133858263
0
LINE
8
BLACK
6
CONTINUOUS
10
5.7632545669291337
20
-4.1263779133858263
11
5.7465879133858264
21
-4.1263779133858263
0
LINE
8
BLACK
6
CONTINUOUS
10
5.7465879133858264
20
-4.1263779133858263
11
5.7465879133858264
21
-4.1097112598425198
0
LINE
8
BLACK
6
CONTINUOUS
10
5.7465879133858264
20
-4.1097112598425198
11
5.7465879133858264
21
-4.0930446062992125
0
LINE
8
BLACK
6
CONTINUOUS
10
5.7465879133858264
20
-4.0930446062992125
11
5.7632545669291337
21
-4.0930446062992125
0
LINE
8
BLACK
6
CONTINUOUS
10
5.7632545669291337
20
-4.0930446062992125
11
5.7799212598425198
21
-4.0930446062992125
0
LINE
8
BLACK
6
CONTINUOUS
10
5.7799212598425198
20
-4.0930446062992125
11
5.7799212598425198
21
-4.1097112598425198
0
LINE
8
BLACK
6
CONTINUOUS
10
5.8632545669291334
20
-4.1430446062992123
11
5.846587913385827
21
-4.1430446062992123
0
LINE
8
BLACK
6
CONTINUOUS
10
5.846587913385827
20
-4.1430446062992123
11
5.846587913385827
21
-4.1263779133858263
0
LINE
8
BLACK
6
CONTINUOUS
10
5.846587913385827
20
-4.1263779133858263
11
5.8632545669291334
21
-4.1263779133858263
0
LINE
8
BLACK
6
CONTINUOUS
10
5.8632545669291334
20
-4.1263779133858263
11
5.8632545669291334
21
-4.1430446062992123
0
LINE
8
BLACK
6
CONTINUOUS
10
5.6299212598425195
20
-4.0430446062992127
11
5.6299212598425195
21
-4.05971125984252
0
LINE
8
BLACK
6
CONTINUOUS
10
5.6299212598425195
20
-4.05971125984252
11
5.6299212598425195
21
-4.0763779133858264
0
LINE
8
BLACK
6
CONTINUOUS
10
5.6299212598425195
20
-4.0763779133858264
11
5.6299212598425195
21
-4.0930446062992125
0
LINE
8
BLACK
6
CONTINUOUS
10
5.6299212598425195
20
-4.0930446062992125
11
5.6132545669291334
21
-4.0930446062992125
0
LINE
8
BLACK
6
CONTINUOUS
10
5.6132545669291334
20
-4.0930446062992125
11
5.6132545669291334
21
-4.0763779133858264
0
LINE
8
BLACK
6
CONTINUOUS
10
5.6132545669291334
20
-4.0763779133858264
11
5.6132545669291334
21
-4.05971125984252
0
LINE
8
BLACK
6
CONTINUOUS
10
5.6132545669291334
20
-4.05971125984252
11
5.6132545669291334
21
-4.0430446062992127
0
LINE
8
BLACK
6
CONTINUOUS
10
5.6132545669291334
20
-4.0430446062992127
11
5.6132545669291334
21
-4.0263779527559054
0
LINE
8
BLACK
6
CONTINUOUS
10
5.6132545669291334
20
-4.0263779527559054
11
5.6299212598425195
21
-4.0263779527559054
0
LINE
8
BLACK
6
CONTINUOUS
10
5.6299212598425195
20
-4.0263779527559054
11
5.6299212598425195
21
-4.0430446062992127
0
LINE
8
BLACK
6
CONTINUOUS
10
5.6799212598425193
20
-4.0763779133858264
11
5.6965879133858266
21
-4.0763779133858264
0
LINE
8
BLACK
6
CONTINUOUS
10
5.6965879133858266
20
-4.0763779133858264
11
5.7132545669291339
21
-4.0763779133858264
0
LINE
8
BLACK
6
CONTINUOUS
10
5.7132545669291339
20
-4.0763779133858264
11
5.7299212204724412
21
-4.0763779133858264
0
LINE
8
BLACK
6
CONTINUOUS
10
5.7299212204724412
20
-4.0763779133858264
11
5.7299212204724412
21
-4.0930446062992125
0
LINE
8
BLACK
6
CONTINUOUS
10
5.7299212204724412
20
-4.0930446062992125
11
5.7132545669291339
21
-4.0930446062992125
0
LINE
8
BLACK
6
CONTINUOUS
10
5.7132545669291339
20
-4.0930446062992125
11
5.6965879133858266
21
-4.0930446062992125
0
LINE
8
BLACK
6
CONTINUOUS
10
5.6965879133858266
20
-4.0930446062992125
11
5.6799212598425193
21
-4.0930446062992125
0
LINE
8
BLACK
6
CONTINUOUS
10
5.6799212598425193
20
-4.0930446062992125
11
5.6632545669291341
21
-4.0930446062992125
0
LINE
8
BLACK
6
CONTINUOUS
10
5.6632545669291341
20
-4.0930446062992125
11
5.6465879133858268
21
-4.0930446062992125
0
LINE
8
BLACK
6
CONTINUOUS
10
5.6465879133858268
20
-4.0930446062992125
11
5.6465879133858268
21
-4.0763779133858264
0
LINE
8
BLACK
6
CONTINUOUS
10
5.6465879133858268
20
-4.0763779133858264
11
5.6632545669291341
21
-4.0763779133858264
0
LINE
8
BLACK
6
CONTINUOUS
10
5.6632545669291341
20
-4.0763779133858264
11
5.6632545669291341
21
-4.05971125984252
0
LINE
8
BLACK
6
CONTINUOUS
10
5.6632545669291341
20
-4.05971125984252
11
5.6799212598425193
21
-4.05971125984252
0
LINE
8
BLACK
6
CONTINUOUS
10
5.6799212598425193
20
-4.05971125984252
11
5.6799212598425193
21
-4.0763779133858264
0
LINE
8
BLACK
6
CONTINUOUS
10
5.8632545669291334
20
-4.0930446062992125
11
5.846587913385827
21
-4.0930446062992125
0
LINE
8
BLACK
6
CONTINUOUS
10
5.846587913385827
20
-4.0930446062992125
11
5.846587913385827
21
-4.0763779133858264
0
LINE
8
BLACK
6
CONTINUOUS
10
5.846587913385827
20
-4.0763779133858264
11
5.8632545669291334
21
-4.0763779133858264
0
LINE
8
BLACK
6
CONTINUOUS
10
5.8632545669291334
20
-4.0763779133858264
11
5.8632545669291334
21
-4.0930446062992125
0
LINE
8
BLACK
6
CONTINUOUS
10
5.7965879133858262
20
-4.0430446062992127
11
5.7799212598425198
21
-4.0430446062992127
0
LINE
8
BLACK
6
CONTINUOUS
10
5.7799212598425198
20
-4.0430446062992127
11
5.7799212598425198
21
-4.05971125984252
0
LINE
8
BLACK
6
CONTINUOUS
10
5.7799212598425198
20
-4.05971125984252
11
5.7799212598425198
21
-4.0763779133858264
0
LINE
8
BLACK
6
CONTINUOUS
10
5.7799212598425198
20
-4.0763779133858264
11
5.7632545669291337
21
-4.0763779133858264
0
LINE
8
BLACK
6
CONTINUOUS
10
5.7632545669291337
20
-4.0763779133858264
11
5.7465879133858264
21
-4.0763779133858264
0
LINE
8
BLACK
6
CONTINUOUS
10
5.7465879133858264
20
-4.0763779133858264
11
5.7299212204724412
21
-4.0763779133858264
0
LINE
8
BLACK
6
CONTINUOUS
10
5.7299212204724412
20
-4.0763779133858264
11
5.7299212204724412
21
-4.05971125984252
0
LINE
8
BLACK
6
CONTINUOUS
10
5.7299212204724412
20
-4.05971125984252
11
5.7465879133858264
21
-4.05971125984252
0
LINE
8
BLACK
6
CONTINUOUS
10
5.7465879133858264
20
-4.05971125984252
11
5.7465879133858264
21
-4.0430446062992127
0
LINE
8
BLACK
6
CONTINUOUS
10
5.7465879133858264
20
-4.0430446062992127
11
5.7632545669291337
21
-4.0430446062992127
0
LINE
8
BLACK
6
CONTINUOUS
10
5.7632545669291337
20
-4.0430446062992127
11
5.7632545669291337
21
-4.0263779527559054
0
LINE
8
BLACK
6
CONTINUOUS
10
5.7632545669291337
20
-4.0263779527559054
11
5.7799212598425198
21
-4.0263779527559054
0
LINE
8
BLACK
6
CONTINUOUS
10
5.7799212598425198
20
-4.0263779527559054
11
5.7965879133858262
21
-4.0263779527559054
0
LINE
8
BLACK
6
CONTINUOUS
10
5.7965879133858262
20
-4.0263779527559054
11
5.7965879133858262
21
-4.0430446062992127
0
LINE
8
BLACK
6
CONTINUOUS
10
5.7299212204724412
20
-3.9597112598425195
11
5.7465879133858264
21
-3.9597112598425195
0
LINE
8
BLACK
6
CONTINUOUS
10
5.7465879133858264
20
-3.9597112598425195
11
5.7632545669291337
21
-3.9597112598425195
0
LINE
8
BLACK
6
CONTINUOUS
10
5.7632545669291337
20
-3.9597112598425195
11
5.7632545669291337
21
-3.9430446062992126
0
LINE
8
BLACK
6
CONTINUOUS
10
5.7632545669291337
20
-3.9430446062992126
11
5.7799212598425198
21
-3.9430446062992126
0
LINE
8
BLACK
6
CONTINUOUS
10
5.7799212598425198
20
-3.9430446062992126
11
5.7965879133858262
21
-3.9430446062992126
0
LINE
8
BLACK
6
CONTINUOUS
10
5.7965879133858262
20
-3.9430446062992126
11
5.7965879133858262
21
-3.9597112598425195
0
LINE
8
BLACK
6
CONTINUOUS
10
5.7965879133858262
20
-3.9597112598425195
11
5.7799212598425198
21
-3.9597112598425195
0
LINE
8
BLACK
6
CONTINUOUS
10
5.7799212598425198
20
-3.9597112598425195
11
5.7799212598425198
21
-3.9763779527559056
0
LINE
8
BLACK
6
CONTINUOUS
10
5.7799212598425198
20
-3.9763779527559056
11
5.7632545669291337
21
-3.9763779527559056
0
LINE
8
BLACK
6
CONTINUOUS
10
5.7632545669291337
20
-3.9763779527559056
11
5.7632545669291337
21
-3.9930446062992124
0
LINE
8
BLACK
6
CONTINUOUS
10
5.7632545669291337
20
-3.9930446062992124
11
5.7799212598425198
21
-3.9930446062992124
0
LINE
8
BLACK
6
CONTINUOUS
10
5.7799212598425198
20
-3.9930446062992124
11
5.7799212598425198
21
-3.9763779527559056
0
LINE
8
BLACK
6
CONTINUOUS
10
5.7799212598425198
20
-3.9763779527559056
11
5.7965879133858262
21
-3.9763779527559056
0
LINE
8
BLACK
6
CONTINUOUS
10
5.7965879133858262
20
-3.9763779527559056
11
5.8132545669291336
21
-3.9763779527559056
0
LINE
8
BLACK
6
CONTINUOUS
10
5.8132545669291336
20
-3.9763779527559056
11
5.8299212204724409
21
-3.9763779527559056
0
LINE
8
BLACK
6
CONTINUOUS
10
5.8299212204724409
20
-3.9763779527559056
11
5.8299212204724409
21
-3.9930446062992124
0
LINE
8
BLACK
6
CONTINUOUS
10
5.8299212204724409
20
-3.9930446062992124
11
5.8132545669291336
21
-3.9930446062992124
0
LINE
8
BLACK
6
CONTINUOUS
10
5.8132545669291336
20
-3.9930446062992124
11
5.8132545669291336
21
-4.0097112598425193
0
LINE
8
BLACK
6
CONTINUOUS
10
5.8132545669291336
20
-4.0097112598425193
11
5.8132545669291336
21
-4.0263779527559054
0
LINE
8
BLACK
6
CONTINUOUS
10
5.8132545669291336
20
-4.0263779527559054
11
5.7965879133858262
21
-4.0263779527559054
0
LINE
8
BLACK
6
CONTINUOUS
10
5.7965879133858262
20
-4.0263779527559054
11
5.7965879133858262
21
-4.0097112598425193
0
LINE
8
BLACK
6
CONTINUOUS
10
5.7965879133858262
20
-4.0097112598425193
11
5.7799212598425198
21
-4.0097112598425193
0
LINE
8
BLACK
6
CONTINUOUS
10
5.7799212598425198
20
-4.0097112598425193
11
5.7632545669291337
21
-4.0097112598425193
0
LINE
8
BLACK
6
CONTINUOUS
10
5.7632545669291337
20
-4.0097112598425193
11
5.7632545669291337
21
-4.0263779527559054
0
LINE
8
BLACK
6
CONTINUOUS
10
5.7632545669291337
20
-4.0263779527559054
11
5.7465879133858264
21
-4.0263779527559054
0
LINE
8
BLACK
6
CONTINUOUS
10
5.7465879133858264
20
-4.0263779527559054
11
5.7299212204724412
21
-4.0263779527559054
0
LINE
8
BLACK
6
CONTINUOUS
10
5.7299212204724412
20
-4.0263779527559054
11
5.7132545669291339
21
-4.0263779527559054
0
LINE
8
BLACK
6
CONTINUOUS
10
5.7132545669291339
20
-4.0263779527559054
11
5.7132545669291339
21
-4.0430446062992127
0
LINE
8
BLACK
6
CONTINUOUS
10
5.7132545669291339
20
-4.0430446062992127
11
5.7299212204724412
21
-4.0430446062992127
0
LINE
8
BLACK
6
CONTINUOUS
10
5.7299212204724412
20
-4.0430446062992127
11
5.7299212204724412
21
-4.05971125984252
0
LINE
8
BLACK
6
CONTINUOUS
10
5.7299212204724412
20
-4.05971125984252
11
5.7132545669291339
21
-4.05971125984252
0
LINE
8
BLACK
6
CONTINUOUS
10
5.7132545669291339
20
-4.05971125984252
11
5.6965879133858266
21
-4.05971125984252
0
LINE
8
BLACK
6
CONTINUOUS
10
5.6965879133858266
20
-4.05971125984252
11
5.6799212598425193
21
-4.05971125984252
0
LINE
8
BLACK
6
CONTINUOUS
10
5.6799212598425193
20
-4.05971125984252
11
5.6799212598425193
21
-4.0430446062992127
0
LINE
8
BLACK
6
CONTINUOUS
10
5.6799212598425193
20
-4.0430446062992127
11
5.6965879133858266
21
-4.0430446062992127
0
LINE
8
BLACK
6
CONTINUOUS
10
5.6965879133858266
20
-4.0430446062992127
11
5.6965879133858266
21
-4.0263779527559054
0
LINE
8
BLACK
6
CONTINUOUS
10
5.6965879133858266
20
-4.0263779527559054
11
5.6965879133858266
21
-4.0097112598425193
0
LINE
8
BLACK
6
CONTINUOUS
10
5.6965879133858266
20
-4.0097112598425193
11
5.6965879133858266
21
-3.9930446062992124
0
LINE
8
BLACK
6
CONTINUOUS
10
5.6965879133858266
20
-3.9930446062992124
11
5.6799212598425193
21
-3.9930446062992124
0
LINE
8
BLACK
6
CONTINUOUS
10
5.6799212598425193
20
-3.9930446062992124
11
5.6799212598425193
21
-4.0097112598425193
0
LINE
8
BLACK
6
CONTINUOUS
10
5.6799212598425193
20
-4.0097112598425193
11
5.6632545669291341
21
-4.0097112598425193
0
LINE
8
BLACK
6
CONTINUOUS
10
5.6632545669291341
20
-4.0097112598425193
11
5.6465879133858268
21
-4.0097112598425193
0
LINE
8
BLACK
6
CONTINUOUS
10
5.6465879133858268
20
-4.0097112598425193
11
5.6299212598425195
21
-4.0097112598425193
0
LINE
8
BLACK
6
CONTINUOUS
10
5.6299212598425195
20
-4.0097112598425193
11
5.6299212598425195
21
-3.9930446062992124
0
LINE
8
BLACK
6
CONTINUOUS
10
5.6299212598425195
20
-3.9930446062992124
11
5.6299212598425195
21
-3.9763779527559056
0
LINE
8
BLACK
6
CONTINUOUS
10
5.6299212598425195
20
-3.9763779527559056
11
5.6465879133858268
21
-3.9763779527559056
0
LINE
8
BLACK
6
CONTINUOUS
10
5.6465879133858268
20
-3.9763779527559056
11
5.6465879133858268
21
-3.9930446062992124
0
LINE
8
BLACK
6
CONTINUOUS
10
5.6465879133858268
20
-3.9930446062992124
11
5.6632545669291341
21
-3.9930446062992124
0
LINE
8
BLACK
6
CONTINUOUS
10
5.6632545669291341
20
-3.9930446062992124
11
5.6799212598425193
21
-3.9930446062992124
0
LINE
8
BLACK
6
CONTINUOUS
10
5.6799212598425193
20
-3.9930446062992124
11
5.6799212598425193
21
-3.9763779527559056
0
LINE
8
BLACK
6
CONTINUOUS
10
5.6799212598425193
20
-3.9763779527559056
11
5.6965879133858266
21
-3.9763779527559056
0
LINE
8
BLACK
6
CONTINUOUS
10
5.6965879133858266
20
-3.9763779527559056
11
5.6965879133858266
21
-3.9597112598425195
0
LINE
8
BLACK
6
CONTINUOUS
10
5.6965879133858266
20
-3.9597112598425195
11
5.6965879133858266
21
-3.9430446062992126
0
LINE
8
BLACK
6
CONTINUOUS
10
5.6965879133858266
20
-3.9430446062992126
11
5.7132545669291339
21
-3.9430446062992126
0
LINE
8
BLACK
6
CONTINUOUS
10
5.7132545669291339
20
-3.9430446062992126
11
5.7299212204724412
21
-3.9430446062992126
0
LINE
8
BLACK
6
CONTINUOUS
10
5.7299212204724412
20
-3.9430446062992126
11
5.7299212204724412
21
-3.9597112598425195
0
LINE
8
BLACK
6
CONTINUOUS
10
5.7132545669291339
20
-3.9763779527559056
11
5.7299212204724412
21
-3.9763779527559056
0
LINE
8
BLACK
6
CONTINUOUS
10
5.7299212204724412
20
-3.9763779527559056
11
5.7299212204724412
21
-3.9597112598425195
0
LINE
8
BLACK
6
CONTINUOUS
10
5.7299212204724412
20
-3.9597112598425195
11
5.7132545669291339
21
-3.9597112598425195
0
LINE
8
BLACK
6
CONTINUOUS
10
5.7132545669291339
20
-3.9597112598425195
11
5.7132545669291339
21
-3.9763779527559056
0
LINE
8
BLACK
6
CONTINUOUS
10
5.7299212204724412
20
-4.0097112598425193
11
5.7465879133858264
21
-4.0097112598425193
0
LINE
8
BLACK
6
CONTINUOUS
10
5.7465879133858264
20
-4.0097112598425193
11
5.7465879133858264
21
-3.9930446062992124
0
LINE
8
BLACK
6
CONTINUOUS
10
5.7465879133858264
20
-3.9930446062992124
11
5.7465879133858264
21
-3.9763779527559056
0
LINE
8
BLACK
6
CONTINUOUS
10
5.7465879133858264
20
-3.9763779527559056
11
5.7299212204724412
21
-3.9763779527559056
0
LINE
8
BLACK
6
CONTINUOUS
10
5.7299212204724412
20
-3.9763779527559056
11
5.7299212204724412
21
-3.9930446062992124
0
LINE
8
BLACK
6
CONTINUOUS
10
5.7299212204724412
20
-3.9930446062992124
11
5.7132545669291339
21
-3.9930446062992124
0
LINE
8
BLACK
6
CONTINUOUS
10
5.7132545669291339
20
-3.9930446062992124
11
5.7132545669291339
21
-4.0097112598425193
0
LINE
8
BLACK
6
CONTINUOUS
10
5.7132545669291339
20
-4.0097112598425193
11
5.7299212204724412
21
-4.0097112598425193
0
LINE
8
BLACK
6
CONTINUOUS
10
6.0965878740157482
20
-4.0430446062992127
11
6.0799212204724409
21
-4.0430446062992127
0
LINE
8
BLACK
6
CONTINUOUS
10
6.0799212204724409
20
-4.0430446062992127
11
6.0799212204724409
21
-4.0263779527559054
0
LINE
8
BLACK
6
CONTINUOUS
10
6.0799212204724409
20
-4.0263779527559054
11
6.0965878740157482
21
-4.0263779527559054
0
LINE
8
BLACK
6
CONTINUOUS
10
6.0965878740157482
20
-4.0263779527559054
11
6.0965878740157482
21
-4.0430446062992127
0
LINE
8
BLACK
6
CONTINUOUS
10
6.0799212204724409
20
-4.0097112598425193
11
6.0632545669291336
21
-4.0097112598425193
0
LINE
8
BLACK
6
CONTINUOUS
10
6.0632545669291336
20
-4.0097112598425193
11
6.0632545669291336
21
-3.9930446062992124
0
LINE
8
BLACK
6
CONTINUOUS
10
6.0632545669291336
20
-3.9930446062992124
11
6.0799212204724409
21
-3.9930446062992124
0
LINE
8
BLACK
6
CONTINUOUS
10
6.0799212204724409
20
-3.9930446062992124
11
6.0799212204724409
21
-4.0097112598425193
0
LINE
8
BLACK
6
CONTINUOUS
10
5.6299212598425195
20
-3.9763779527559056
11
5.6132545669291334
21
-3.9763779527559056
0
LINE
8
BLACK
6
CONTINUOUS
10
5.6132545669291334
20
-3.9763779527559056
11
5.6132545669291334
21
-3.9597112598425195
0
LINE
8
BLACK
6
CONTINUOUS
10
5.6132545669291334
20
-3.9597112598425195
11
5.6299212598425195
21
-3.9597112598425195
0
LINE
8
BLACK
6
CONTINUOUS
10
5.6299212598425195
20
-3.9597112598425195
11
5.6299212598425195
21
-3.9763779527559056
0
LINE
8
BLACK
6
CONTINUOUS
10
6.0965878740157482
20
-3.9763779527559056
11
6.0799212204724409
21
-3.9763779527559056
0
LINE
8
BLACK
6
CONTINUOUS
10
6.0799212204724409
20
-3.9763779527559056
11
6.0799212204724409
21
-3.9597112598425195
0
LINE
8
BLACK
6
CONTINUOUS
10
6.0799212204724409
20
-3.9597112598425195
11
6.0965878740157482
21
-3.9597112598425195
0
LINE
8
BLACK
6
CONTINUOUS
10
6.0965878740157482
20
-3.9597112598425195
11
6.0965878740157482
21
-3.9763779527559056
0
LINE
8
BLACK
6
CONTINUOUS
10
5.6799212598425193
20
-3.9597112598425195
11
5.6632545669291341
21
-3.9597112598425195
0
LINE
8
BLACK
6
CONTINUOUS
10
5.6632545669291341
20
-3.9597112598425195
11
5.6632545669291341
21
-3.9430446062992126
0
LINE
8
BLACK
6
CONTINUOUS
10
5.6632545669291341
20
-3.9430446062992126
11
5.6799212598425193
21
-3.9430446062992126
0
LINE
8
BLACK
6
CONTINUOUS
10
5.6799212598425193
20
-3.9430446062992126
11
5.6799212598425193
21
-3.9597112598425195
0
LINE
8
BLACK
6
CONTINUOUS
10
6.0465879133858262
20
-3.9430446062992126
11
6.0632545669291336
21
-3.9430446062992126
0
LINE
8
BLACK
6
CONTINUOUS
10
6.0632545669291336
20
-3.9430446062992126
11
6.0632545669291336
21
-3.9597112598425195
0
LINE
8
BLACK
6
CONTINUOUS
10
6.0632545669291336
20
-3.9597112598425195
11
6.0465879133858262
21
-3.9597112598425195
0
LINE
8
BLACK
6
CONTINUOUS
10
6.0465879133858262
20
-3.9597112598425195
11
6.0299212204724411
21
-3.9597112598425195
0
LINE
8
BLACK
6
CONTINUOUS
10
6.0299212204724411
20
-3.9597112598425195
11
6.0299212204724411
21
-3.9430446062992126
0
LINE
8
BLACK
6
CONTINUOUS
10
6.0299212204724411
20
-3.9430446062992126
11
6.0299212204724411
21
-3.9263779527559053
0
LINE
8
BLACK
6
CONTINUOUS
10
6.0299212204724411
20
-3.9263779527559053
11
6.0465879133858262
21
-3.9263779527559053
0
LINE
8
BLACK
6
CONTINUOUS
10
6.0465879133858262
20
-3.9263779527559053
11
6.0465879133858262
21
-3.9430446062992126
0
LINE
8
BLACK
6
CONTINUOUS
10
5.6465879133858268
20
-3.9263779527559053
11
5.6299212598425195
21
-3.9263779527559053
0
LINE
8
BLACK
6
CONTINUOUS
10
5.6299212598425195
20
-3.9263779527559053
11
5.6299212598425195
21
-3.9430446062992126
0
LINE
8
BLACK
6
CONTINUOUS
10
5.6299212598425195
20
-3.9430446062992126
11
5.6132545669291334
21
-3.9430446062992126
0
LINE
8
BLACK
6
CONTINUOUS
10
5.6132545669291334
20
-3.9430446062992126
11
5.6132545669291334
21
-3.9263779527559053
0
LINE
8
BLACK
6
CONTINUOUS
10
5.6132545669291334
20
-3.9263779527559053
11
5.6132545669291334
21
-3.9097112992125984
0
LINE
8
BLACK
6
CONTINUOUS
10
5.6132545669291334
20
-3.9097112992125984
11
5.6299212598425195
21
-3.9097112992125984
0
LINE
8
BLACK
6
CONTINUOUS
10
5.6299212598425195
20
-3.9097112992125984
11
5.6465879133858268
21
-3.9097112992125984
0
LINE
8
BLACK
6
CONTINUOUS
10
5.6465879133858268
20
-3.9097112992125984
11
5.6465879133858268
21
-3.9263779527559053
0
LINE
8
BLACK
6
CONTINUOUS
10
5.6632545669291341
20
-3.9430446062992126
11
5.6465879133858268
21
-3.9430446062992126
0
LINE
8
BLACK
6
CONTINUOUS
10
5.6465879133858268
20
-3.9430446062992126
11
5.6465879133858268
21
-3.9263779527559053
0
LINE
8
BLACK
6
CONTINUOUS
10
5.6465879133858268
20
-3.9263779527559053
11
5.6632545669291341
21
-3.9263779527559053
0
LINE
8
BLACK
6
CONTINUOUS
10
5.6632545669291341
20
-3.9263779527559053
11
5.6632545669291341
21
-3.9430446062992126
0
LINE
8
BLACK
6
CONTINUOUS
10
5.7965879133858262
20
-3.8597112598425194
11
5.8132545669291336
21
-3.8597112598425194
0
LINE
8
BLACK
6
CONTINUOUS
10
5.8132545669291336
20
-3.8597112598425194
11
5.8132545669291336
21
-3.8763779527559055
0
LINE
8
BLACK
6
CONTINUOUS
10
5.8132545669291336
20
-3.8763779527559055
11
5.8132545669291336
21
-3.8930446062992123
0
LINE
8
BLACK
6
CONTINUOUS
10
5.8132545669291336
20
-3.8930446062992123
11
5.7965879133858262
21
-3.8930446062992123
0
LINE
8
BLACK
6
CONTINUOUS
10
5.7965879133858262
20
-3.8930446062992123
11
5.7965879133858262
21
-3.8763779527559055
0
LINE
8
BLACK
6
CONTINUOUS
10
5.7965879133858262
20
-3.8763779527559055
11
5.7799212598425198
21
-3.8763779527559055
0
LINE
8
BLACK
6
CONTINUOUS
10
5.7799212598425198
20
-3.8763779527559055
11
5.7799212598425198
21
-3.8930446062992123
0
LINE
8
BLACK
6
CONTINUOUS
10
5.7799212598425198
20
-3.8930446062992123
11
5.7632545669291337
21
-3.8930446062992123
0
LINE
8
BLACK
6
CONTINUOUS
10
5.7632545669291337
20
-3.8930446062992123
11
5.7632545669291337
21
-3.9097112992125984
0
LINE
8
BLACK
6
CONTINUOUS
10
5.7632545669291337
20
-3.9097112992125984
11
5.7632545669291337
21
-3.9263779527559053
0
LINE
8
BLACK
6
CONTINUOUS
10
5.7632545669291337
20
-3.9263779527559053
11
5.7632545669291337
21
-3.9430446062992126
0
LINE
8
BLACK
6
CONTINUOUS
10
5.7632545669291337
20
-3.9430446062992126
11
5.7465879133858264
21
-3.9430446062992126
0
LINE
8
BLACK
6
CONTINUOUS
10
5.7465879133858264
20
-3.9430446062992126
11
5.7299212204724412
21
-3.9430446062992126
0
LINE
8
BLACK
6
CONTINUOUS
10
5.7299212204724412
20
-3.9430446062992126
11
5.7299212204724412
21
-3.9263779527559053
0
LINE
8
BLACK
6
CONTINUOUS
10
5.7299212204724412
20
-3.9263779527559053
11
5.7132545669291339
21
-3.9263779527559053
0
LINE
8
BLACK
6
CONTINUOUS
10
5.7132545669291339
20
-3.9263779527559053
11
5.7132545669291339
21
-3.9097112992125984
0
LINE
8
BLACK
6
CONTINUOUS
10
5.7132545669291339
20
-3.9097112992125984
11
5.7299212204724412
21
-3.9097112992125984
0
LINE
8
BLACK
6
CONTINUOUS
10
5.7299212204724412
20
-3.9097112992125984
11
5.7465879133858264
21
-3.9097112992125984
0
LINE
8
BLACK
6
CONTINUOUS
10
5.7465879133858264
20
-3.9097112992125984
11
5.7465879133858264
21
-3.8930446062992123
0
LINE
8
BLACK
6
CONTINUOUS
10
5.7465879133858264
20
-3.8930446062992123
11
5.7299212204724412
21
-3.8930446062992123
0
LINE
8
BLACK
6
CONTINUOUS
10
5.7299212204724412
20
-3.8930446062992123
11
5.7132545669291339
21
-3.8930446062992123
0
LINE
8
BLACK
6
CONTINUOUS
10
5.7132545669291339
20
-3.8930446062992123
11
5.7132545669291339
21
-3.8763779527559055
0
LINE
8
BLACK
6
CONTINUOUS
10
5.7132545669291339
20
-3.8763779527559055
11
5.7299212204724412
21
-3.8763779527559055
0
LINE
8
BLACK
6
CONTINUOUS
10
5.7299212204724412
20
-3.8763779527559055
11
5.7465879133858264
21
-3.8763779527559055
0
LINE
8
BLACK
6
CONTINUOUS
10
5.7465879133858264
20
-3.8763779527559055
11
5.7632545669291337
21
-3.8763779527559055
0
LINE
8
BLACK
6
CONTINUOUS
10
5.7632545669291337
20
-3.8763779527559055
11
5.7632545669291337
21
-3.8597112598425194
0
LINE
8
BLACK
6
CONTINUOUS
10
5.7632545669291337
20
-3.8597112598425194
11
5.7799212598425198
21
-3.8597112598425194
0
LINE
8
BLACK
6
CONTINUOUS
10
5.7799212598425198
20
-3.8597112598425194
11
5.7799212598425198
21
-3.8430446062992125
0
LINE
8
BLACK
6
CONTINUOUS
10
5.7799212598425198
20
-3.8430446062992125
11
5.7965879133858262
21
-3.8430446062992125
0
LINE
8
BLACK
6
CONTINUOUS
10
5.7965879133858262
20
-3.8430446062992125
11
5.7965879133858262
21
-3.8597112598425194
0
LINE
8
BLACK
6
CONTINUOUS
10
5.9632545669291339
20
-3.9097112992125984
11
5.9632545669291339
21
-3.9263779527559053
0
LINE
8
BLACK
6
CONTINUOUS
10
5.9632545669291339
20
-3.9263779527559053
11
5.9632545669291339
21
-3.9430446062992126
0
LINE
8
BLACK
6
CONTINUOUS
10
5.9632545669291339
20
-3.9430446062992126
11
5.9465878740157478
21
-3.9430446062992126
0
LINE
8
BLACK
6
CONTINUOUS
10
5.9465878740157478
20
-3.9430446062992126
11
5.9299212204724405
21
-3.9430446062992126
0
LINE
8
BLACK
6
CONTINUOUS
10
5.9299212204724405
20
-3.9430446062992126
11
5.9132545669291341
21
-3.9430446062992126
0
LINE
8
BLACK
6
CONTINUOUS
10
5.9132545669291341
20
-3.9430446062992126
11
5.9132545669291341
21
-3.9263779527559053
0
LINE
8
BLACK
6
CONTINUOUS
10
5.9132545669291341
20
-3.9263779527559053
11
5.9299212204724405
21
-3.9263779527559053
0
LINE
8
BLACK
6
CONTINUOUS
10
5.9299212204724405
20
-3.9263779527559053
11
5.9465878740157478
21
-3.9263779527559053
0
LINE
8
BLACK
6
CONTINUOUS
10
5.9465878740157478
20
-3.9263779527559053
11
5.9465878740157478
21
-3.9097112992125984
0
LINE
8
BLACK
6
CONTINUOUS
10
5.9465878740157478
20
-3.9097112992125984
11
5.9299212204724405
21
-3.9097112992125984
0
LINE
8
BLACK
6
CONTINUOUS
10
5.9299212204724405
20
-3.9097112992125984
11
5.9299212204724405
21
-3.8930446062992123
0
LINE
8
BLACK
6
CONTINUOUS
10
5.9299212204724405
20
-3.8930446062992123
11
5.9465878740157478
21
-3.8930446062992123
0
LINE
8
BLACK
6
CONTINUOUS
10
5.9465878740157478
20
-3.8930446062992123
11
5.9632545669291339
21
-3.8930446062992123
0
LINE
8
BLACK
6
CONTINUOUS
10
5.9632545669291339
20
-3.8930446062992123
11
5.9632545669291339
21
-3.9097112992125984
0
LINE
8
BLACK
6
CONTINUOUS
10
6.0799212204724409
20
-3.9430446062992126
11
6.0632545669291336
21
-3.9430446062992126
0
LINE
8
BLACK
6
CONTINUOUS
10
6.0632545669291336
20
-3.9430446062992126
11
6.0632545669291336
21
-3.9263779527559053
0
LINE
8
BLACK
6
CONTINUOUS
10
6.0632545669291336
20
-3.9263779527559053
11
6.0799212204724409
21
-3.9263779527559053
0
LINE
8
BLACK
6
CONTINUOUS
10
6.0799212204724409
20
-3.9263779527559053
11
6.0799212204724409
21
-3.9430446062992126
0
LINE
8
BLACK
6
CONTINUOUS
10
5.7965879133858262
20
-3.9097112992125984
11
5.7965879133858262
21
-3.9263779527559053
0
LINE
8
BLACK
6
CONTINUOUS
10
5.7965879133858262
20
-3.9263779527559053
11
5.7799212598425198
21
-3.9263779527559053
0
LINE
8
BLACK
6
CONTINUOUS
10
5.7799212598425198
20
-3.9263779527559053
11
5.7799212598425198
21
-3.9097112992125984
0
LINE
8
BLACK
6
CONTINUOUS
10
5.7799212598425198
20
-3.9097112992125984
11
5.7799212598425198
21
-3.8930446062992123
0
LINE
8
BLACK
6
CONTINUOUS
10
5.7799212598425198
20
-3.8930446062992123
11
5.7965879133858262
21
-3.8930446062992123
0
LINE
8
BLACK
6
CONTINUOUS
10
5.7965879133858262
20
-3.8930446062992123
11
5.7965879133858262
21
-3.9097112992125984
0
LINE
8
BLACK
6
CONTINUOUS
10
6.0132545669291337
20
-3.8930446062992123
11
6.0299212204724411
21
-3.8930446062992123
0
LINE
8
BLACK
6
CONTINUOUS
10
6.0299212204724411
20
-3.8930446062992123
11
6.0299212204724411
21
-3.9097112992125984
0
LINE
8
BLACK
6
CONTINUOUS
10
6.0299212204724411
20
-3.9097112992125984
11
6.0299212204724411
21
-3.9263779527559053
0
LINE
8
BLACK
6
CONTINUOUS
10
6.0299212204724411
20
-3.9263779527559053
11
6.0132545669291337
21
-3.9263779527559053
0
LINE
8
BLACK
6
CONTINUOUS
10
6.0132545669291337
20
-3.9263779527559053
11
6.0132545669291337
21
-3.9097112992125984
0
LINE
8
BLACK
6
CONTINUOUS
10
6.0132545669291337
20
-3.9097112992125984
11
5.9965878740157477
21
-3.9097112992125984
0
LINE
8
BLACK
6
CONTINUOUS
10
5.9965878740157477
20
-3.9097112992125984
11
5.9799212204724412
21
-3.9097112992125984
0
LINE
8
BLACK
6
CONTINUOUS
10
5.9799212204724412
20
-3.9097112992125984
11
5.9799212204724412
21
-3.8930446062992123
0
LINE
8
BLACK
6
CONTINUOUS
10
5.9799212204724412
20
-3.8930446062992123
11
5.9965878740157477
21
-3.8930446062992123
0
LINE
8
BLACK
6
CONTINUOUS
10
5.9965878740157477
20
-3.8930446062992123
11
5.9965878740157477
21
-3.8763779527559055
0
LINE
8
BLACK
6
CONTINUOUS
10
5.9965878740157477
20
-3.8763779527559055
11
6.0132545669291337
21
-3.8763779527559055
0
LINE
8
BLACK
6
CONTINUOUS
10
6.0132545669291337
20
-3.8763779527559055
11
6.0132545669291337
21
-3.8930446062992123
0
LINE
8
BLACK
6
CONTINUOUS
10
5.6965879133858266
20
-3.8930446062992123
11
5.6965879133858266
21
-3.9097112992125984
0
LINE
8
BLACK
6
CONTINUOUS
10
5.6965879133858266
20
-3.9097112992125984
11
5.6799212598425193
21
-3.9097112992125984
0
LINE
8
BLACK
6
CONTINUOUS
10
5.6799212598425193
20
-3.9097112992125984
11
5.6799212598425193
21
-3.8930446062992123
0
LINE
8
BLACK
6
CONTINUOUS
10
5.6799212598425193
20
-3.8930446062992123
11
5.6632545669291341
21
-3.8930446062992123
0
LINE
8
BLACK
6
CONTINUOUS
10
5.6632545669291341
20
-3.8930446062992123
11
5.6632545669291341
21
-3.9097112992125984
0
LINE
8
BLACK
6
CONTINUOUS
10
5.6632545669291341
20
-3.9097112992125984
11
5.6465879133858268
21
-3.9097112992125984
0
LINE
8
BLACK
6
CONTINUOUS
10
5.6465879133858268
20
-3.9097112992125984
11
5.6465879133858268
21
-3.8930446062992123
0
LINE
8
BLACK
6
CONTINUOUS
10
5.6465879133858268
20
-3.8930446062992123
11
5.6299212598425195
21
-3.8930446062992123
0
LINE
8
BLACK
6
CONTINUOUS
10
5.6299212598425195
20
-3.8930446062992123
11
5.6132545669291334
21
-3.8930446062992123
0
LINE
8
BLACK
6
CONTINUOUS
10
5.6132545669291334
20
-3.8930446062992123
11
5.6132545669291334
21
-3.8763779527559055
0
LINE
8
BLACK
6
CONTINUOUS
10
5.6132545669291334
20
-3.8763779527559055
11
5.6299212598425195
21
-3.8763779527559055
0
LINE
8
BLACK
6
CONTINUOUS
10
5.6299212598425195
20
-3.8763779527559055
11
5.6465879133858268
21
-3.8763779527559055
0
LINE
8
BLACK
6
CONTINUOUS
10
5.6465879133858268
20
-3.8763779527559055
11
5.6632545669291341
21
-3.8763779527559055
0
LINE
8
BLACK
6
CONTINUOUS
10
5.6632545669291341
20
-3.8763779527559055
11
5.6799212598425193
21
-3.8763779527559055
0
LINE
8
BLACK
6
CONTINUOUS
10
5.6799212598425193
20
-3.8763779527559055
11
5.6965879133858266
21
-3.8763779527559055
0
LINE
8
BLACK
6
CONTINUOUS
10
5.6965879133858266
20
-3.8763779527559055
11
5.6965879133858266
21
-3.8930446062992123
0
LINE
8
BLACK
6
CONTINUOUS
10
6.0965878740157482
20
-3.9097112992125984
11
6.0799212204724409
21
-3.9097112992125984
0
LINE
8
BLACK
6
CONTINUOUS
10
6.0799212204724409
20
-3.9097112992125984
11
6.0799212204724409
21
-3.8930446062992123
0
LINE
8
BLACK
6
CONTINUOUS
10
6.0799212204724409
20
-3.8930446062992123
11
6.0965878740157482
21
-3.8930446062992123
0
LINE
8
BLACK
6
CONTINUOUS
10
6.0965878740157482
20
-3.8930446062992123
11
6.0965878740157482
21
-3.9097112992125984
0
LINE
8
BLACK
6
CONTINUOUS
10
5.9132545669291341
20
-3.8930446062992123
11
5.8965879133858268
21
-3.8930446062992123
0
LINE
8
BLACK
6
CONTINUOUS
10
5.8965879133858268
20
-3.8930446062992123
11
5.8965879133858268
21
-3.8763779527559055
0
LINE
8
BLACK
6
CONTINUOUS
10
5.8965879133858268
20
-3.8763779527559055
11
5.9132545669291341
21
-3.8763779527559055
0
LINE
8
BLACK
6
CONTINUOUS
10
5.9132545669291341
20
-3.8763779527559055
11
5.9132545669291341
21
-3.8930446062992123
0
LINE
8
BLACK
6
CONTINUOUS
10
5.9799212204724412
20
-3.8930446062992123
11
5.9632545669291339
21
-3.8930446062992123
0
LINE
8
BLACK
6
CONTINUOUS
10
5.9632545669291339
20
-3.8930446062992123
11
5.9632545669291339
21
-3.8763779527559055
0
LINE
8
BLACK
6
CONTINUOUS
10
5.9632545669291339
20
-3.8763779527559055
11
5.9799212204724412
21
-3.8763779527559055
0
LINE
8
BLACK
6
CONTINUOUS
10
5.9799212204724412
20
-3.8763779527559055
11
5.9799212204724412
21
-3.8930446062992123
0
LINE
8
BLACK
6
CONTINUOUS
10
6.0465879133858262
20
-3.8930446062992123
11
6.0299212204724411
21
-3.8930446062992123
0
LINE
8
BLACK
6
CONTINUOUS
10
6.0299212204724411
20
-3.8930446062992123
11
6.0299212204724411
21
-3.8763779527559055
0
LINE
8
BLACK
6
CONTINUOUS
10
6.0299212204724411
20
-3.8763779527559055
11
6.0465879133858262
21
-3.8763779527559055
0
LINE
8
BLACK
6
CONTINUOUS
10
6.0465879133858262
20
-3.8763779527559055
11
6.0465879133858262
21
-3.8930446062992123
0
LINE
8
BLACK
6
CONTINUOUS
10
6.0799212204724409
20
-3.8930446062992123
11
6.0632545669291336
21
-3.8930446062992123
0
LINE
8
BLACK
6
CONTINUOUS
10
6.0632545669291336
20
-3.8930446062992123
11
6.0632545669291336
21
-3.8763779527559055
0
LINE
8
BLACK
6
CONTINUOUS
10
6.0632545669291336
20
-3.8763779527559055
11
6.0799212204724409
21
-3.8763779527559055
0
LINE
8
BLACK
6
CONTINUOUS
10
6.0799212204724409
20
-3.8763779527559055
11
6.0799212204724409
21
-3.8930446062992123
0
LINE
8
BLACK
6
CONTINUOUS
10
5.8632545669291334
20
-3.8597112598425194
11
5.8799212204724407
21
-3.8597112598425194
0
LINE
8
BLACK
6
CONTINUOUS
10
5.8799212204724407
20
-3.8597112598425194
11
5.8799212204724407
21
-3.8763779527559055
0
LINE
8
BLACK
6
CONTINUOUS
10
5.8799212204724407
20
-3.8763779527559055
11
5.8632545669291334
21
-3.8763779527559055
0
LINE
8
BLACK
6
CONTINUOUS
10
5.8632545669291334
20
-3.8763779527559055
11
5.846587913385827
21
-3.8763779527559055
0
LINE
8
BLACK
6
CONTINUOUS
10
5.846587913385827
20
-3.8763779527559055
11
5.8299212204724409
21
-3.8763779527559055
0
LINE
8
BLACK
6
CONTINUOUS
10
5.8299212204724409
20
-3.8763779527559055
11
5.8299212204724409
21
-3.8597112598425194
0
LINE
8
BLACK
6
CONTINUOUS
10
5.8299212204724409
20
-3.8597112598425194
11
5.846587913385827
21
-3.8597112598425194
0
LINE
8
BLACK
6
CONTINUOUS
10
5.846587913385827
20
-3.8597112598425194
11
5.846587913385827
21
-3.8430446062992125
0
LINE
8
BLACK
6
CONTINUOUS
10
5.846587913385827
20
-3.8430446062992125
11
5.8632545669291334
21
-3.8430446062992125
0
LINE
8
BLACK
6
CONTINUOUS
10
5.8632545669291334
20
-3.8430446062992125
11
5.8632545669291334
21
-3.8597112598425194
0
LINE
8
BLACK
6
CONTINUOUS
10
5.8799212204724407
20
-3.7930446062992127
11
5.8799212204724407
21
-3.8097112992125983
0
LINE
8
BLACK
6
CONTINUOUS
10
5.8799212204724407
20
-3.8097112992125983
11
5.8799212204724407
21
-3.8263779527559056
0
LINE
8
BLACK
6
CONTINUOUS
10
5.8799212204724407
20
-3.8263779527559056
11
5.8965879133858268
21
-3.8263779527559056
0
LINE
8
BLACK
6
CONTINUOUS
10
5.8965879133858268
20
-3.8263779527559056
11
5.8965879133858268
21
-3.8097112992125983
0
LINE
8
BLACK
6
CONTINUOUS
10
5.8965879133858268
20
-3.8097112992125983
11
5.8965879133858268
21
-3.7930446062992127
0
LINE
8
BLACK
6
CONTINUOUS
10
5.8965879133858268
20
-3.7930446062992127
11
5.9132545669291341
21
-3.7930446062992127
0
LINE
8
BLACK
6
CONTINUOUS
10
5.9132545669291341
20
-3.7930446062992127
11
5.9132545669291341
21
-3.8097112992125983
0
LINE
8
BLACK
6
CONTINUOUS
10
5.9132545669291341
20
-3.8097112992125983
11
5.9465878740157478
21
-3.8097112992125983
0
LINE
8
BLACK
6
CONTINUOUS
10
5.9465878740157478
20
-3.8097112992125983
11
5.9465878740157478
21
-3.7930446062992127
0
LINE
8
BLACK
6
CONTINUOUS
10
5.9465878740157478
20
-3.7930446062992127
11
5.9632545669291339
21
-3.7930446062992127
0
LINE
8
BLACK
6
CONTINUOUS
10
5.9632545669291339
20
-3.7930446062992127
11
5.9632545669291339
21
-3.8097112992125983
0
LINE
8
BLACK
6
CONTINUOUS
10
5.9632545669291339
20
-3.8097112992125983
11
5.9632545669291339
21
-3.8263779527559056
0
LINE
8
BLACK
6
CONTINUOUS
10
5.9632545669291339
20
-3.8263779527559056
11
5.9632545669291339
21
-3.8430446062992125
0
LINE
8
BLACK
6
CONTINUOUS
10
5.9632545669291339
20
-3.8430446062992125
11
5.9632545669291339
21
-3.8597112598425194
0
LINE
8
BLACK
6
CONTINUOUS
10
5.9632545669291339
20
-3.8597112598425194
11
5.9632545669291339
21
-3.8763779527559055
0
LINE
8
BLACK
6
CONTINUOUS
10
5.9632545669291339
20
-3.8763779527559055
11
5.9465878740157478
21
-3.8763779527559055
0
LINE
8
BLACK
6
CONTINUOUS
10
5.9465878740157478
20
-3.8763779527559055
11
5.9465878740157478
21
-3.8597112598425194
0
LINE
8
BLACK
6
CONTINUOUS
10
5.9465878740157478
20
-3.8597112598425194
11
5.9465878740157478
21
-3.8430446062992125
0
LINE
8
BLACK
6
CONTINUOUS
10
5.9465878740157478
20
-3.8430446062992125
11
5.9465878740157478
21
-3.8263779527559056
0
LINE
8
BLACK
6
CONTINUOUS
10
5.9465878740157478
20
-3.8263779527559056
11
5.9299212204724405
21
-3.8263779527559056
0
LINE
8
BLACK
6
CONTINUOUS
10
5.9299212204724405
20
-3.8263779527559056
11
5.9299212204724405
21
-3.8430446062992125
0
LINE
8
BLACK
6
CONTINUOUS
10
5.9299212204724405
20
-3.8430446062992125
11
5.9299212204724405
21
-3.8597112598425194
0
LINE
8
BLACK
6
CONTINUOUS
10
5.9299212204724405
20
-3.8597112598425194
11
5.9132545669291341
21
-3.8597112598425194
0
LINE
8
BLACK
6
CONTINUOUS
10
5.9132545669291341
20
-3.8597112598425194
11
5.9132545669291341
21
-3.8430446062992125
0
LINE
8
BLACK
6
CONTINUOUS
10
5.9132545669291341
20
-3.8430446062992125
11
5.9132545669291341
21
-3.8263779527559056
0
LINE
8
BLACK
6
CONTINUOUS
10
5.9132545669291341
20
-3.8263779527559056
11
5.8965879133858268
21
-3.8263779527559056
0
LINE
8
BLACK
6
CONTINUOUS
10
5.8965879133858268
20
-3.8263779527559056
11
5.8965879133858268
21
-3.8430446062992125
0
LINE
8
BLACK
6
CONTINUOUS
10
5.8965879133858268
20
-3.8430446062992125
11
5.8965879133858268
21
-3.8597112598425194
0
LINE
8
BLACK
6
CONTINUOUS
10
5.8965879133858268
20
-3.8597112598425194
11
5.8799212204724407
21
-3.8597112598425194
0
LINE
8
BLACK
6
CONTINUOUS
10
5.8799212204724407
20
-3.8597112598425194
11
5.8799212204724407
21
-3.8430446062992125
0
LINE
8
BLACK
6
CONTINUOUS
10
5.8799212204724407
20
-3.8430446062992125
11
5.8632545669291334
21
-3.8430446062992125
0
LINE
8
BLACK
6
CONTINUOUS
10
5.8632545669291334
20
-3.8430446062992125
11
5.8632545669291334
21
-3.8263779527559056
0
LINE
8
BLACK
6
CONTINUOUS
10
5.8632545669291334
20
-3.8263779527559056
11
5.846587913385827
21
-3.8263779527559056
0
LINE
8
BLACK
6
CONTINUOUS
10
5.846587913385827
20
-3.8263779527559056
11
5.846587913385827
21
-3.8430446062992125
0
LINE
8
BLACK
6
CONTINUOUS
10
5.846587913385827
20
-3.8430446062992125
11
5.8299212204724409
21
-3.8430446062992125
0
LINE
8
BLACK
6
CONTINUOUS
10
5.8299212204724409
20
-3.8430446062992125
11
5.8299212204724409
21
-3.8597112598425194
0
LINE
8
BLACK
6
CONTINUOUS
10
5.8299212204724409
20
-3.8597112598425194
11
5.8132545669291336
21
-3.8597112598425194
0
LINE
8
BLACK
6
CONTINUOUS
10
5.8132545669291336
20
-3.8597112598425194
11
5.8132545669291336
21
-3.8430446062992125
0
LINE
8
BLACK
6
CONTINUOUS
10
5.8132545669291336
20
-3.8430446062992125
11
5.7965879133858262
21
-3.8430446062992125
0
LINE
8
BLACK
6
CONTINUOUS
10
5.7965879133858262
20
-3.8430446062992125
11
5.7965879133858262
21
-3.8263779527559056
0
LINE
8
BLACK
6
CONTINUOUS
10
5.7965879133858262
20
-3.8263779527559056
11
5.8132545669291336
21
-3.8263779527559056
0
LINE
8
BLACK
6
CONTINUOUS
10
5.8132545669291336
20
-3.8263779527559056
11
5.8299212204724409
21
-3.8263779527559056
0
LINE
8
BLACK
6
CONTINUOUS
10
5.8299212204724409
20
-3.8263779527559056
11
5.8299212204724409
21
-3.8097112992125983
0
LINE
8
BLACK
6
CONTINUOUS
10
5.8299212204724409
20
-3.8097112992125983
11
5.846587913385827
21
-3.8097112992125983
0
LINE
8
BLACK
6
CONTINUOUS
10
5.846587913385827
20
-3.8097112992125983
11
5.846587913385827
21
-3.7930446062992127
0
LINE
8
BLACK
6
CONTINUOUS
10
5.846587913385827
20
-3.7930446062992127
11
5.8632545669291334
21
-3.7930446062992127
0
LINE
8
BLACK
6
CONTINUOUS
10
5.8632545669291334
20
-3.7930446062992127
11
5.8632545669291334
21
-3.7763779527559054
0
LINE
8
BLACK
6
CONTINUOUS
10
5.8632545669291334
20
-3.7763779527559054
11
5.8799212204724407
21
-3.7763779527559054
0
LINE
8
BLACK
6
CONTINUOUS
10
5.8799212204724407
20
-3.7763779527559054
11
5.8799212204724407
21
-3.7930446062992127
0
LINE
8
BLACK
6
CONTINUOUS
10
5.6965879133858266
20
-3.7930446062992127
11
5.6965879133858266
21
-3.8097112992125983
0
LINE
8
BLACK
6
CONTINUOUS
10
5.6965879133858266
20
-3.8097112992125983
11
5.6965879133858266
21
-3.8263779527559056
0
LINE
8
BLACK
6
CONTINUOUS
10
5.6965879133858266
20
-3.8263779527559056
11
5.6799212598425193
21
-3.8263779527559056
0
LINE
8
BLACK
6
CONTINUOUS
10
5.6799212598425193
20
-3.8263779527559056
11
5.6632545669291341
21
-3.8263779527559056
0
LINE
8
BLACK
6
CONTINUOUS
10
5.6632545669291341
20
-3.8263779527559056
11
5.6465879133858268
21
-3.8263779527559056
0
LINE
8
BLACK
6
CONTINUOUS
10
5.6465879133858268
20
-3.8263779527559056
11
5.6465879133858268
21
-3.8097112992125983
0
LINE
8
BLACK
6
CONTINUOUS
10
5.6465879133858268
20
-3.8097112992125983
11
5.6465879133858268
21
-3.7930446062992127
0
LINE
8
BLACK
6
CONTINUOUS
10
5.6465879133858268
20
-3.7930446062992127
11
5.6465879133858268
21
-3.7763779527559054
0
LINE
8
BLACK
6
CONTINUOUS
10
5.6465879133858268
20
-3.7763779527559054
11
5.6632545669291341
21
-3.7763779527559054
0
LINE
8
BLACK
6
CONTINUOUS
10
5.6632545669291341
20
-3.7763779527559054
11
5.6799212598425193
21
-3.7763779527559054
0
LINE
8
BLACK
6
CONTINUOUS
10
5.6799212598425193
20
-3.7763779527559054
11
5.6965879133858266
21
-3.7763779527559054
0
LINE
8
BLACK
6
CONTINUOUS
10
5.6965879133858266
20
-3.7763779527559054
11
5.6965879133858266
21
-3.7930446062992127
0
LINE
8
BLACK
6
CONTINUOUS
10
5.7299212204724412
20
-3.7597112992125985
11
5.7299212204724412
21
-3.7763779527559054
0
LINE
8
BLACK
6
CONTINUOUS
10
5.7299212204724412
20
-3.7763779527559054
11
5.7299212204724412
21
-3.7930446062992127
0
LINE
8
BLACK
6
CONTINUOUS
10
5.7299212204724412
20
-3.7930446062992127
11
5.7299212204724412
21
-3.8097112992125983
0
LINE
8
BLACK
6
CONTINUOUS
10
5.7299212204724412
20
-3.8097112992125983
11
5.7299212204724412
21
-3.8263779527559056
0
LINE
8
BLACK
6
CONTINUOUS
10
5.7299212204724412
20
-3.8263779527559056
11
5.7299212204724412
21
-3.8430446062992125
0
LINE
8
BLACK
6
CONTINUOUS
10
5.7299212204724412
20
-3.8430446062992125
11
5.7299212204724412
21
-3.8597112598425194
0
LINE
8
BLACK
6
CONTINUOUS
10
5.7299212204724412
20
-3.8597112598425194
11
5.7132545669291339
21
-3.8597112598425194
0
LINE
8
BLACK
6
CONTINUOUS
10
5.7132545669291339
20
-3.8597112598425194
11
5.6965879133858266
21
-3.8597112598425194
0
LINE
8
BLACK
6
CONTINUOUS
10
5.6965879133858266
20
-3.8597112598425194
11
5.6799212598425193
21
-3.8597112598425194
0
LINE
8
BLACK
6
CONTINUOUS
10
5.6799212598425193
20
-3.8597112598425194
11
5.6632545669291341
21
-3.8597112598425194
0
LINE
8
BLACK
6
CONTINUOUS
10
5.6632545669291341
20
-3.8597112598425194
11
5.6465879133858268
21
-3.8597112598425194
0
LINE
8
BLACK
6
CONTINUOUS
10
5.6465879133858268
20
-3.8597112598425194
11
5.6299212598425195
21
-3.8597112598425194
0
LINE
8
BLACK
6
CONTINUOUS
10
5.6299212598425195
20
-3.8597112598425194
11
5.6132545669291334
21
-3.8597112598425194
0
LINE
8
BLACK
6
CONTINUOUS
10
5.6132545669291334
20
-3.8597112598425194
11
5.6132545669291334
21
-3.8430446062992125
0
LINE
8
BLACK
6
CONTINUOUS
10
5.6132545669291334
20
-3.8430446062992125
11
5.6132545669291334
21
-3.8263779527559056
0
LINE
8
BLACK
6
CONTINUOUS
10
5.6132545669291334
20
-3.8263779527559056
11
5.6132545669291334
21
-3.8097112992125983
0
LINE
8
BLACK
6
CONTINUOUS
10
5.6132545669291334
20
-3.8097112992125983
11
5.6132545669291334
21
-3.7930446062992127
0
LINE
8
BLACK
6
CONTINUOUS
10
5.6132545669291334
20
-3.7930446062992127
11
5.6132545669291334
21
-3.7763779527559054
0
LINE
8
BLACK
6
CONTINUOUS
10
5.6132545669291334
20
-3.7763779527559054
11
5.6132545669291334
21
-3.7597112992125985
0
LINE
8
BLACK
6
CONTINUOUS
10
5.6132545669291334
20
-3.7597112992125985
11
5.6132545669291334
21
-3.7430446062992124
0
LINE
8
BLACK
6
CONTINUOUS
10
5.6132545669291334
20
-3.7430446062992124
11
5.6299212598425195
21
-3.7430446062992124
0
LINE
8
BLACK
6
CONTINUOUS
10
5.6299212598425195
20
-3.7430446062992124
11
5.6465879133858268
21
-3.7430446062992124
0
LINE
8
BLACK
6
CONTINUOUS
10
5.6465879133858268
20
-3.7430446062992124
11
5.6632545669291341
21
-3.7430446062992124
0
LINE
8
BLACK
6
CONTINUOUS
10
5.6632545669291341
20
-3.7430446062992124
11
5.6799212598425193
21
-3.7430446062992124
0
LINE
8
BLACK
6
CONTINUOUS
10
5.6799212598425193
20
-3.7430446062992124
11
5.6965879133858266
21
-3.7430446062992124
0
LINE
8
BLACK
6
CONTINUOUS
10
5.6965879133858266
20
-3.7430446062992124
11
5.7132545669291339
21
-3.7430446062992124
0
LINE
8
BLACK
6
CONTINUOUS
10
5.7132545669291339
20
-3.7430446062992124
11
5.7299212204724412
21
-3.7430446062992124
0
LINE
8
BLACK
6
CONTINUOUS
10
5.7299212204724412
20
-3.7430446062992124
11
5.7299212204724412
21
-3.7597112992125985
0
LINE
8
BLACK
6
CONTINUOUS
10
5.6299212598425195
20
-3.7763779527559054
11
5.6299212598425195
21
-3.7930446062992127
0
LINE
8
BLACK
6
CONTINUOUS
10
5.6299212598425195
20
-3.7930446062992127
11
5.6299212598425195
21
-3.8097112992125983
0
LINE
8
BLACK
6
CONTINUOUS
10
5.6299212598425195
20
-3.8097112992125983
11
5.6299212598425195
21
-3.8263779527559056
0
LINE
8
BLACK
6
CONTINUOUS
10
5.6299212598425195
20
-3.8263779527559056
11
5.6299212598425195
21
-3.8430446062992125
0
LINE
8
BLACK
6
CONTINUOUS
10
5.6299212598425195
20
-3.8430446062992125
11
5.6465879133858268
21
-3.8430446062992125
0
LINE
8
BLACK
6
CONTINUOUS
10
5.6465879133858268
20
-3.8430446062992125
11
5.6632545669291341
21
-3.8430446062992125
0
LINE
8
BLACK
6
CONTINUOUS
10
5.6632545669291341
20
-3.8430446062992125
11
5.6799212598425193
21
-3.8430446062992125
0
LINE
8
BLACK
6
CONTINUOUS
10
5.6799212598425193
20
-3.8430446062992125
11
5.6965879133858266
21
-3.8430446062992125
0
LINE
8
BLACK
6
CONTINUOUS
10
5.6965879133858266
20
-3.8430446062992125
11
5.7132545669291339
21
-3.8430446062992125
0
LINE
8
BLACK
6
CONTINUOUS
10
5.7132545669291339
20
-3.8430446062992125
11
5.7132545669291339
21
-3.8263779527559056
0
LINE
8
BLACK
6
CONTINUOUS
10
5.7132545669291339
20
-3.8263779527559056
11
5.7132545669291339
21
-3.8097112992125983
0
LINE
8
BLACK
6
CONTINUOUS
10
5.7132545669291339
20
-3.8097112992125983
11
5.7132545669291339
21
-3.7930446062992127
0
LINE
8
BLACK
6
CONTINUOUS
10
5.7132545669291339
20
-3.7930446062992127
11
5.7132545669291339
21
-3.7763779527559054
0
LINE
8
BLACK
6
CONTINUOUS
10
5.7132545669291339
20
-3.7763779527559054
11
5.7132545669291339
21
-3.7597112992125985
0
LINE
8
BLACK
6
CONTINUOUS
10
5.7132545669291339
20
-3.7597112992125985
11
5.6965879133858266
21
-3.7597112992125985
0
LINE
8
BLACK
6
CONTINUOUS
10
5.6965879133858266
20
-3.7597112992125985
11
5.6799212598425193
21
-3.7597112992125985
0
LINE
8
BLACK
6
CONTINUOUS
10
5.6799212598425193
20
-3.7597112992125985
11
5.6632545669291341
21
-3.7597112992125985
0
LINE
8
BLACK
6
CONTINUOUS
10
5.6632545669291341
20
-3.7597112992125985
11
5.6465879133858268
21
-3.7597112992125985
0
LINE
8
BLACK
6
CONTINUOUS
10
5.6465879133858268
20
-3.7597112992125985
11
5.6299212598425195
21
-3.7597112992125985
0
LINE
8
BLACK
6
CONTINUOUS
10
5.6299212598425195
20
-3.7597112992125985
11
5.6299212598425195
21
-3.7763779527559054
0
LINE
8
BLACK
6
CONTINUOUS
10
5.7965879133858262
20
-3.8097112992125983
11
5.7799212598425198
21
-3.8097112992125983
0
LINE
8
BLACK
6
CONTINUOUS
10
5.7799212598425198
20
-3.8097112992125983
11
5.7799212598425198
21
-3.8263779527559056
0
LINE
8
BLACK
6
CONTINUOUS
10
5.7799212598425198
20
-3.8263779527559056
11
5.7799212598425198
21
-3.8430446062992125
0
LINE
8
BLACK
6
CONTINUOUS
10
5.7799212598425198
20
-3.8430446062992125
11
5.7632545669291337
21
-3.8430446062992125
0
LINE
8
BLACK
6
CONTINUOUS
10
5.7632545669291337
20
-3.8430446062992125
11
5.7632545669291337
21
-3.8597112598425194
0
LINE
8
BLACK
6
CONTINUOUS
10
5.7632545669291337
20
-3.8597112598425194
11
5.7465879133858264
21
-3.8597112598425194
0
LINE
8
BLACK
6
CONTINUOUS
10
5.7465879133858264
20
-3.8597112598425194
11
5.7465879133858264
21
-3.8430446062992125
0
LINE
8
BLACK
6
CONTINUOUS
10
5.7465879133858264
20
-3.8430446062992125
11
5.7465879133858264
21
-3.8263779527559056
0
LINE
8
BLACK
6
CONTINUOUS
10
5.7465879133858264
20
-3.8263779527559056
11
5.7632545669291337
21
-3.8263779527559056
0
LINE
8
BLACK
6
CONTINUOUS
10
5.7632545669291337
20
-3.8263779527559056
11
5.7632545669291337
21
-3.8097112992125983
0
LINE
8
BLACK
6
CONTINUOUS
10
5.7632545669291337
20
-3.8097112992125983
11
5.7465879133858264
21
-3.8097112992125983
0
LINE
8
BLACK
6
CONTINUOUS
10
5.7465879133858264
20
-3.8097112992125983
11
5.7465879133858264
21
-3.7930446062992127
0
LINE
8
BLACK
6
CONTINUOUS
10
5.7465879133858264
20
-3.7930446062992127
11
5.7632545669291337
21
-3.7930446062992127
0
LINE
8
BLACK
6
CONTINUOUS
10
5.7632545669291337
20
-3.7930446062992127
11
5.7799212598425198
21
-3.7930446062992127
0
LINE
8
BLACK
6
CONTINUOUS
10
5.7799212598425198
20
-3.7930446062992127
11
5.7965879133858262
21
-3.7930446062992127
0
LINE
8
BLACK
6
CONTINUOUS
10
5.7965879133858262
20
-3.7930446062992127
11
5.7965879133858262
21
-3.8097112992125983
0
LINE
8
BLACK
6
CONTINUOUS
10
6.0632545669291336
20
-3.7930446062992127
11
6.0632545669291336
21
-3.8097112992125983
0
LINE
8
BLACK
6
CONTINUOUS
10
6.0632545669291336
20
-3.8097112992125983
11
6.0632545669291336
21
-3.8263779527559056
0
LINE
8
BLACK
6
CONTINUOUS
10
6.0632545669291336
20
-3.8263779527559056
11
6.0465879133858262
21
-3.8263779527559056
0
LINE
8
BLACK
6
CONTINUOUS
10
6.0465879133858262
20
-3.8263779527559056
11
6.0299212204724411
21
-3.8263779527559056
0
LINE
8
BLACK
6
CONTINUOUS
10
6.0299212204724411
20
-3.8263779527559056
11
6.0132545669291337
21
-3.8263779527559056
0
LINE
8
BLACK
6
CONTINUOUS
10
6.0132545669291337
20
-3.8263779527559056
11
6.0132545669291337
21
-3.8097112992125983
0
LINE
8
BLACK
6
CONTINUOUS
10
6.0132545669291337
20
-3.8097112992125983
11
6.0132545669291337
21
-3.7930446062992127
0
LINE
8
BLACK
6
CONTINUOUS
10
6.0132545669291337
20
-3.7930446062992127
11
6.0132545669291337
21
-3.7763779527559054
0
LINE
8
BLACK
6
CONTINUOUS
10
6.0132545669291337
20
-3.7763779527559054
11
6.0299212204724411
21
-3.7763779527559054
0
LINE
8
BLACK
6
CONTINUOUS
10
6.0299212204724411
20
-3.7763779527559054
11
6.0465879133858262
21
-3.7763779527559054
0
LINE
8
BLACK
6
CONTINUOUS
10
6.0465879133858262
20
-3.7763779527559054
11
6.0632545669291336
21
-3.7763779527559054
0
LINE
8
BLACK
6
CONTINUOUS
10
6.0632545669291336
20
-3.7763779527559054
11
6.0632545669291336
21
-3.7930446062992127
0
LINE
8
BLACK
6
CONTINUOUS
10
6.0965878740157482
20
-3.7597112992125985
11
6.0965878740157482
21
-3.7763779527559054
0
LINE
8
BLACK
6
CONTINUOUS
10
6.0965878740157482
20
-3.7763779527559054
11
6.0965878740157482
21
-3.7930446062992127
0
LINE
8
BLACK
6
CONTINUOUS
10
6.0965878740157482
20
-3.7930446062992127
11
6.0965878740157482
21
-3.8097112992125983
0
LINE
8
BLACK
6
CONTINUOUS
10
6.0965878740157482
20
-3.8097112992125983
11
6.0965878740157482
21
-3.8263779527559056
0
LINE
8
BLACK
6
CONTINUOUS
10
6.0965878740157482
20
-3.8263779527559056
11
6.0965878740157482
21
-3.8430446062992125
0
LINE
8
BLACK
6
CONTINUOUS
10
6.0965878740157482
20
-3.8430446062992125
11
6.0965878740157482
21
-3.8597112598425194
0
LINE
8
BLACK
6
CONTINUOUS
10
6.0965878740157482
20
-3.8597112598425194
11
6.0799212204724409
21
-3.8597112598425194
0
LINE
8
BLACK
6
CONTINUOUS
10
6.0799212204724409
20
-3.8597112598425194
11
6.0632545669291336
21
-3.8597112598425194
0
LINE
8
BLACK
6
CONTINUOUS
10
6.0632545669291336
20
-3.8597112598425194
11
6.0465879133858262
21
-3.8597112598425194
0
LINE
8
BLACK
6
CONTINUOUS
10
6.0465879133858262
20
-3.8597112598425194
11
6.0299212204724411
21
-3.8597112598425194
0
LINE
8
BLACK
6
CONTINUOUS
10
6.0299212204724411
20
-3.8597112598425194
11
6.0132545669291337
21
-3.8597112598425194
0
LINE
8
BLACK
6
CONTINUOUS
10
6.0132545669291337
20
-3.8597112598425194
11
5.9965878740157477
21
-3.8597112598425194
0
LINE
8
BLACK
6
CONTINUOUS
10
5.9965878740157477
20
-3.8597112598425194
11
5.9799212204724412
21
-3.8597112598425194
0
LINE
8
BLACK
6
CONTINUOUS
10
5.9799212204724412
20
-3.8597112598425194
11
5.9799212204724412
21
-3.8430446062992125
0
LINE
8
BLACK
6
CONTINUOUS
10
5.9799212204724412
20
-3.8430446062992125
11
5.9799212204724412
21
-3.8263779527559056
0
LINE
8
BLACK
6
CONTINUOUS
10
5.9799212204724412
20
-3.8263779527559056
11
5.9799212204724412
21
-3.8097112992125983
0
LINE
8
BLACK
6
CONTINUOUS
10
5.9799212204724412
20
-3.8097112992125983
11
5.9799212204724412
21
-3.7930446062992127
0
LINE
8
BLACK
6
CONTINUOUS
10
5.9799212204724412
20
-3.7930446062992127
11
5.9799212204724412
21
-3.7763779527559054
0
LINE
8
BLACK
6
CONTINUOUS
10
5.9799212204724412
20
-3.7763779527559054
11
5.9799212204724412
21
-3.7597112992125985
0
LINE
8
BLACK
6
CONTINUOUS
10
5.9799212204724412
20
-3.7597112992125985
11
5.9799212204724412
21
-3.7430446062992124
0
LINE
8
BLACK
6
CONTINUOUS
10
5.9799212204724412
20
-3.7430446062992124
11
5.9965878740157477
21
-3.7430446062992124
0
LINE
8
BLACK
6
CONTINUOUS
10
5.9965878740157477
20
-3.7430446062992124
11
6.0132545669291337
21
-3.7430446062992124
0
LINE
8
BLACK
6
CONTINUOUS
10
6.0132545669291337
20
-3.7430446062992124
11
6.0299212204724411
21
-3.7430446062992124
0
LINE
8
BLACK
6
CONTINUOUS
10
6.0299212204724411
20
-3.7430446062992124
11
6.0465879133858262
21
-3.7430446062992124
0
LINE
8
BLACK
6
CONTINUOUS
10
6.0465879133858262
20
-3.7430446062992124
11
6.0632545669291336
21
-3.7430446062992124
0
LINE
8
BLACK
6
CONTINUOUS
10
6.0632545669291336
20
-3.7430446062992124
11
6.0799212204724409
21
-3.7430446062992124
0
LINE
8
BLACK
6
CONTINUOUS
10
6.0799212204724409
20
-3.7430446062992124
11
6.0965878740157482
21
-3.7430446062992124
0
LINE
8
BLACK
6
CONTINUOUS
10
6.0965878740157482
20
-3.7430446062992124
11
6.0965878740157482
21
-3.7597112992125985
0
LINE
8
BLACK
6
CONTINUOUS
10
5.9965878740157477
20
-3.7763779527559054
11
5.9965878740157477
21
-3.7930446062992127
0
LINE
8
BLACK
6
CONTINUOUS
10
5.9965878740157477
20
-3.7930446062992127
11
5.9965878740157477
21
-3.8097112992125983
0
LINE
8
BLACK
6
CONTINUOUS
10
5.9965878740157477
20
-3.8097112992125983
11
5.9965878740157477
21
-3.8263779527559056
0
LINE
8
BLACK
6
CONTINUOUS
10
5.9965878740157477
20
-3.8263779527559056
11
5.9965878740157477
21
-3.8430446062992125
0
LINE
8
BLACK
6
CONTINUOUS
10
5.9965878740157477
20
-3.8430446062992125
11
6.0132545669291337
21
-3.8430446062992125
0
LINE
8
BLACK
6
CONTINUOUS
10
6.0132545669291337
20
-3.8430446062992125
11
6.0299212204724411
21
-3.8430446062992125
0
LINE
8
BLACK
6
CONTINUOUS
10
6.0299212204724411
20
-3.8430446062992125
11
6.0465879133858262
21
-3.8430446062992125
0
LINE
8
BLACK
6
CONTINUOUS
10
6.0465879133858262
20
-3.8430446062992125
11
6.0632545669291336
21
-3.8430446062992125
0
LINE
8
BLACK
6
CONTINUOUS
10
6.0632545669291336
20
-3.8430446062992125
11
6.0799212204724409
21
-3.8430446062992125
0
LINE
8
BLACK
6
CONTINUOUS
10
6.0799212204724409
20
-3.8430446062992125
11
6.0799212204724409
21
-3.8263779527559056
0
LINE
8
BLACK
6
CONTINUOUS
10
6.0799212204724409
20
-3.8263779527559056
11
6.0799212204724409
21
-3.8097112992125983
0
LINE
8
BLACK
6
CONTINUOUS
10
6.0799212204724409
20
-3.8097112992125983
11
6.0799212204724409
21
-3.7930446062992127
0
LINE
8
BLACK
6
CONTINUOUS
10
6.0799212204724409
20
-3.7930446062992127
11
6.0799212204724409
21
-3.7763779527559054
0
LINE
8
BLACK
6
CONTINUOUS
10
6.0799212204724409
20
-3.7763779527559054
11
6.0799212204724409
21
-3.7597112992125985
0
LINE
8
BLACK
6
CONTINUOUS
10
6.0799212204724409
20
-3.7597112992125985
11
6.0632545669291336
21
-3.7597112992125985
0
LINE
8
BLACK
6
CONTINUOUS
10
6.0632545669291336
20
-3.7597112992125985
11
6.0465879133858262
21
-3.7597112992125985
0
LINE
8
BLACK
6
CONTINUOUS
10
6.0465879133858262
20
-3.7597112992125985
11
6.0299212204724411
21
-3.7597112992125985
0
LINE
8
BLACK
6
CONTINUOUS
10
6.0299212204724411
20
-3.7597112992125985
11
6.0132545669291337
21
-3.7597112992125985
0
LINE
8
BLACK
6
CONTINUOUS
10
6.0132545669291337
20
-3.7597112992125985
11
5.9965878740157477
21
-3.7597112992125985
0
LINE
8
BLACK
6
CONTINUOUS
10
5.9965878740157477
20
-3.7597112992125985
11
5.9965878740157477
21
-3.7763779527559054
0
LINE
8
BLACK
6
CONTINUOUS
10
5.8299212204724409
20
-3.7930446062992127
11
5.8299212204724409
21
-3.8097112992125983
0
LINE
8
BLACK
6
CONTINUOUS
10
5.8299212204724409
20
-3.8097112992125983
11
5.8132545669291336
21
-3.8097112992125983
0
LINE
8
BLACK
6
CONTINUOUS
10
5.8132545669291336
20
-3.8097112992125983
11
5.8132545669291336
21
-3.7930446062992127
0
LINE
8
BLACK
6
CONTINUOUS
10
5.8132545669291336
20
-3.7930446062992127
11
5.8132545669291336
21
-3.7763779527559054
0
LINE
8
BLACK
6
CONTINUOUS
10
5.8132545669291336
20
-3.7763779527559054
11
5.8299212204724409
21
-3.7763779527559054
0
LINE
8
BLACK
6
CONTINUOUS
10
5.8299212204724409
20
-3.7763779527559054
11
5.8299212204724409
21
-3.7930446062992127
0
LINE
8
BLACK
6
CONTINUOUS
10
5.9299212204724405
20
-3.7763779527559054
11
5.9465878740157478
21
-3.7763779527559054
0
LINE
8
BLACK
6
CONTINUOUS
10
5.9465878740157478
20
-3.7763779527559054
11
5.9465878740157478
21
-3.7930446062992127
0
LINE
8
BLACK
6
CONTINUOUS
10
5.9465878740157478
20
-3.7930446062992127
11
5.9299212204724405
21
-3.7930446062992127
0
LINE
8
BLACK
6
CONTINUOUS
10
5.9299212204724405
20
-3.7930446062992127
11
5.9132545669291341
21
-3.7930446062992127
0
LINE
8
BLACK
6
CONTINUOUS
10
5.9132545669291341
20
-3.7930446062992127
11
5.9132545669291341
21
-3.7763779527559054
0
LINE
8
BLACK
6
CONTINUOUS
10
5.9132545669291341
20
-3.7763779527559054
11
5.8965879133858268
21
-3.7763779527559054
0
LINE
8
BLACK
6
CONTINUOUS
10
5.8965879133858268
20
-3.7763779527559054
11
5.8965879133858268
21
-3.7597112992125985
0
LINE
8
BLACK
6
CONTINUOUS
10
5.8965879133858268
20
-3.7597112992125985
11
5.9132545669291341
21
-3.7597112992125985
0
LINE
8
BLACK
6
CONTINUOUS
10
5.9132545669291341
20
-3.7597112992125985
11
5.9299212204724405
21
-3.7597112992125985
0
LINE
8
BLACK
6
CONTINUOUS
10
5.9299212204724405
20
-3.7597112992125985
11
5.9299212204724405
21
-3.7763779527559054
0
LINE
8
BLACK
6
CONTINUOUS
10
5.7632545669291337
20
-3.7763779527559054
11
5.7465879133858264
21
-3.7763779527559054
0
LINE
8
BLACK
6
CONTINUOUS
10
5.7465879133858264
20
-3.7763779527559054
11
5.7465879133858264
21
-3.7597112992125985
0
LINE
8
BLACK
6
CONTINUOUS
10
5.7465879133858264
20
-3.7597112992125985
11
5.7632545669291337
21
-3.7597112992125985
0
LINE
8
BLACK
6
CONTINUOUS
10
5.7632545669291337
20
-3.7597112992125985
11
5.7632545669291337
21
-3.7763779527559054
0
LINE
8
BLACK
6
CONTINUOUS
10
5.7965879133858262
20
-3.7597112992125985
11
5.7965879133858262
21
-3.7763779527559054
0
LINE
8
BLACK
6
CONTINUOUS
10
5.7965879133858262
20
-3.7763779527559054
11
5.7799212598425198
21
-3.7763779527559054
0
LINE
8
BLACK
6
CONTINUOUS
10
5.7799212598425198
20
-3.7763779527559054
11
5.7799212598425198
21
-3.7597112992125985
0
LINE
8
BLACK
6
CONTINUOUS
10
5.7799212598425198
20
-3.7597112992125985
11
5.7799212598425198
21
-3.7430446062992124
0
LINE
8
BLACK
6
CONTINUOUS
10
5.7799212598425198
20
-3.7430446062992124
11
5.7965879133858262
21
-3.7430446062992124
0
LINE
8
BLACK
6
CONTINUOUS
10
5.7965879133858262
20
-3.7430446062992124
11
5.7965879133858262
21
-3.7597112992125985
0
LINE
8
BLACK
6
CONTINUOUS
10
5.8965879133858268
20
-3.7597112992125985
11
5.8799212204724407
21
-3.7597112992125985
0
LINE
8
BLACK
6
CONTINUOUS
10
5.8799212204724407
20
-3.7597112992125985
11
5.8632545669291334
21
-3.7597112992125985
0
LINE
8
BLACK
6
CONTINUOUS
10
5.8632545669291334
20
-3.7597112992125985
11
5.846587913385827
21
-3.7597112992125985
0
LINE
8
BLACK
6
CONTINUOUS
10
5.846587913385827
20
-3.7597112992125985
11
5.846587913385827
21
-3.7763779527559054
0
LINE
8
BLACK
6
CONTINUOUS
10
5.846587913385827
20
-3.7763779527559054
11
5.8299212204724409
21
-3.7763779527559054
0
LINE
8
BLACK
6
CONTINUOUS
10
5.8299212204724409
20
-3.7763779527559054
11
5.8299212204724409
21
-3.7597112992125985
0
LINE
8
BLACK
6
CONTINUOUS
10
5.8299212204724409
20
-3.7597112992125985
11
5.8132545669291336
21
-3.7597112992125985
0
LINE
8
BLACK
6
CONTINUOUS
10
5.8132545669291336
20
-3.7597112992125985
11
5.8132545669291336
21
-3.7430446062992124
0
LINE
8
BLACK
6
CONTINUOUS
10
5.8132545669291336
20
-3.7430446062992124
11
5.8299212204724409
21
-3.7430446062992124
0
LINE
8
BLACK
6
CONTINUOUS
10
5.8299212204724409
20
-3.7430446062992124
11
5.846587913385827
21
-3.7430446062992124
0
LINE
8
BLACK
6
CONTINUOUS
10
5.846587913385827
20
-3.7430446062992124
11
5.8632545669291334
21
-3.7430446062992124
0
LINE
8
BLACK
6
CONTINUOUS
10
5.8632545669291334
20
-3.7430446062992124
11
5.8799212204724407
21
-3.7430446062992124
0
LINE
8
BLACK
6
CONTINUOUS
10
5.8799212204724407
20
-3.7430446062992124
11
5.8965879133858268
21
-3.7430446062992124
0
LINE
8
BLACK
6
CONTINUOUS
10
5.8965879133858268
20
-3.7430446062992124
11
5.8965879133858268
21
-3.7597112992125985
0
LINE
8
BLACK
6
CONTINUOUS
10
5.9632545669291339
20
-3.7597112992125985
11
5.9465878740157478
21
-3.7597112992125985
0
LINE
8
BLACK
6
CONTINUOUS
10
5.9465878740157478
20
-3.7597112992125985
11
5.9299212204724405
21
-3.7597112992125985
0
LINE
8
BLACK
6
CONTINUOUS
10
5.9299212204724405
20
-3.7597112992125985
11
5.9299212204724405
21
-3.7430446062992124
0
LINE
8
BLACK
6
CONTINUOUS
10
5.9299212204724405
20
-3.7430446062992124
11
5.9465878740157478
21
-3.7430446062992124
0
LINE
8
BLACK
6
CONTINUOUS
10
5.9465878740157478
20
-3.7430446062992124
11
5.9632545669291339
21
-3.7430446062992124
0
LINE
8
BLACK
6
CONTINUOUS
10
5.9632545669291339
20
-3.7430446062992124
11
5.9632545669291339
21
-3.7597112992125985
  0
ENDSEC
  0
EOF
