  0
SECTION
  2
HEADER
  9
$ANGBASE
  50
0.0
  9
$ANGDIR
  70
1
  9
$MEASUREMENT
  70
0
  0
ENDSEC
  0
SECTION
  2
TABLES
  0
TABLE
  2
LTYPE
  70
4
  0
LTYPE
  5
40F
  2
CONTINUOUS
  70
0
  3
Solid line
  72
65
  73
0
  40
0.0
  0
LTYPE
  5
410
  2
DASHDOT
 70
0
  3
Dash Dot ____ _ ____ _
 72
65
 73
4
 40
2.0
 49
1.25
 49
-0.25
 49
0.25
 49
-0.25
  0
LTYPE
  5
411
  2
DASHED
 70
0
  3
Dashed __ __ __ __ __
 72
65
 73
2
 40
0.75
 49
0.5
 49
-0.25
  0
LTYPE
  5
43B
  2
DOTTED
 70
0
  3
Dotted .  .  .  .
 72
65
 73
2
 40
0.2
 49
0.0
 49
-0.2
  0
ENDTAB
  0
TABLE
  2
STYLE
  70
4
  0
STYLE
  2
KICAD
  70
0
  40
0
  41
1
  42
1
  50
0
  71
0
  3
isocp.shx
  0
STYLE
  2
KICADB
  70
0
  40
0
  41
1
  42
1
  50
0
  71
0
  3
isocp.shx
  0
STYLE
  2
KICADI
  70
0
  40
0
  41
1
  42
1
  50
15
  71
0
  3
isocp.shx
  0
STYLE
  2
KICADBI
  70
0
  40
0
  41
1
  42
1
  50
15
  71
0
  3
isocp.shx
  0
ENDTAB
  0
TABLE
  2
LAYER
  70
1
  0
LAYER
  2
BLACK
  70
0
  62
7
  6
CONTINUOUS
  0
ENDTAB
  0
ENDSEC
  0
SECTION
  2
ENTITIES
0
LINE
8
BLACK
6
CONTINUOUS
10
6.2377782283464569
20
-4.3666103543307084
11
6.2383109055118107
21
-4.3671430314960631
0
LINE
8
BLACK
6
CONTINUOUS
10
6.2383109055118107
20
-4.3671430314960631
11
6.238385826771653
21
-4.3675196850393698
0
LINE
8
BLACK
6
CONTINUOUS
10
6.238385826771653
20
-4.3675196850393698
11
6.238385826771653
21
-4.5131889763779522
0
LINE
8
BLACK
6
CONTINUOUS
10
6.238385826771653
20
-4.5131889763779522
11
6.2383109055118107
21
-4.5135656299212599
0
LINE
8
BLACK
6
CONTINUOUS
10
6.2383109055118107
20
-4.5135656299212599
11
6.2377782283464569
21
-4.5140983070866136
0
LINE
8
BLACK
6
CONTINUOUS
10
6.2377782283464569
20
-4.5140983070866136
11
6.2374015748031493
21
-4.5141732283464568
0
LINE
8
BLACK
6
CONTINUOUS
10
6.2374015748031493
20
-4.5141732283464568
11
6.1625984251968502
21
-4.5141732283464568
0
LINE
8
BLACK
6
CONTINUOUS
10
6.1625984251968502
20
-4.5141732283464568
11
6.1622217716535435
21
-4.5140983070866136
0
LINE
8
BLACK
6
CONTINUOUS
10
6.1622217716535435
20
-4.5140983070866136
11
6.1616890944881888
21
-4.5135656299212599
0
LINE
8
BLACK
6
CONTINUOUS
10
6.1616890944881888
20
-4.5135656299212599
11
6.1616141732283465
21
-4.5131889763779522
0
LINE
8
BLACK
6
CONTINUOUS
10
6.1616141732283465
20
-4.5131889763779522
11
6.1616141732283465
21
-4.3675196850393698
0
LINE
8
BLACK
6
CONTINUOUS
10
6.1616141732283465
20
-4.3675196850393698
11
6.1616890944881888
21
-4.3671430314960631
0
LINE
8
BLACK
6
CONTINUOUS
10
6.1616890944881888
20
-4.3671430314960631
11
6.1622217716535435
21
-4.3666103543307084
0
LINE
8
BLACK
6
CONTINUOUS
10
6.1622217716535435
20
-4.3666103543307084
11
6.1625984251968502
21
-4.3665354330708661
0
LINE
8
BLACK
6
CONTINUOUS
10
6.1625984251968502
20
-4.3665354330708661
11
6.2374015748031493
21
-4.3665354330708661
0
LINE
8
BLACK
6
CONTINUOUS
10
6.2374015748031493
20
-4.3665354330708661
11
6.2377782283464569
21
-4.3666103543307084
0
LINE
8
BLACK
6
CONTINUOUS
10
6.1635826771653539
20
-4.3685039370078735
11
6.1635826771653539
21
-4.5122047244094485
0
LINE
8
BLACK
6
CONTINUOUS
10
6.1635826771653539
20
-4.5122047244094485
11
6.2364173228346456
21
-4.5122047244094485
0
LINE
8
BLACK
6
CONTINUOUS
10
6.2364173228346456
20
-4.5122047244094485
11
6.2364173228346456
21
-4.3685039370078735
0
LINE
8
BLACK
6
CONTINUOUS
10
6.2364173228346456
20
-4.3685039370078735
11
6.1635826771653539
21
-4.3685039370078735
0
LINE
8
BLACK
6
CONTINUOUS
10
5.6224238976377947
20
-4.3672009055118108
11
5.6229565748031494
21
-4.3677335826771655
0
LINE
8
BLACK
6
CONTINUOUS
10
5.6229565748031494
20
-4.3677335826771655
11
5.6230314960629917
21
-4.3681102362204722
0
LINE
8
BLACK
6
CONTINUOUS
10
5.6230314960629917
20
-4.3681102362204722
11
5.6230314960629917
21
-4.5098425196850389
0
LINE
8
BLACK
6
CONTINUOUS
10
5.6230314960629917
20
-4.5098425196850389
11
5.6229565748031494
21
-4.5102191732283465
0
LINE
8
BLACK
6
CONTINUOUS
10
5.6229565748031494
20
-4.5102191732283465
11
5.6224238976377947
21
-4.5107518503937003
0
LINE
8
BLACK
6
CONTINUOUS
10
5.6224238976377947
20
-4.5107518503937003
11
5.622047244094488
21
-4.5108267716535435
0
LINE
8
BLACK
6
CONTINUOUS
10
5.622047244094488
20
-4.5108267716535435
11
5.3799212598425195
21
-4.5108267716535435
0
LINE
8
BLACK
6
CONTINUOUS
10
5.3799212598425195
20
-4.5108267716535435
11
5.3795446062992127
21
-4.5107518503937003
0
LINE
8
BLACK
6
CONTINUOUS
10
5.3795446062992127
20
-4.5107518503937003
11
5.3790119291338581
21
-4.5102191732283465
0
LINE
8
BLACK
6
CONTINUOUS
10
5.3790119291338581
20
-4.5102191732283465
11
5.3789370078740157
21
-4.5098425196850389
0
LINE
8
BLACK
6
CONTINUOUS
10
5.3789370078740157
20
-4.5098425196850389
11
5.3789370078740157
21
-4.3681102362204722
0
LINE
8
BLACK
6
CONTINUOUS
10
5.3789370078740157
20
-4.3681102362204722
11
5.3790119291338581
21
-4.3677335826771655
0
LINE
8
BLACK
6
CONTINUOUS
10
5.3790119291338581
20
-4.3677335826771655
11
5.3795446062992127
21
-4.3672009055118108
0
LINE
8
BLACK
6
CONTINUOUS
10
5.3795446062992127
20
-4.3672009055118108
11
5.3799212598425195
21
-4.3671259842519685
0
LINE
8
BLACK
6
CONTINUOUS
10
5.3799212598425195
20
-4.3671259842519685
11
5.622047244094488
21
-4.3671259842519685
0
LINE
8
BLACK
6
CONTINUOUS
10
5.622047244094488
20
-4.3671259842519685
11
5.6224238976377947
21
-4.3672009055118108
0
LINE
8
BLACK
6
CONTINUOUS
10
5.3809055118110232
20
-4.3690944881889759
11
5.3809055118110232
21
-4.5088582677165352
0
LINE
8
BLACK
6
CONTINUOUS
10
5.3809055118110232
20
-4.5088582677165352
11
5.6210629921259843
21
-4.5088582677165352
0
LINE
8
BLACK
6
CONTINUOUS
10
5.6210629921259843
20
-4.5088582677165352
11
5.6210629921259843
21
-4.3690944881889759
0
LINE
8
BLACK
6
CONTINUOUS
10
5.6210629921259843
20
-4.3690944881889759
11
5.3809055118110232
21
-4.3690944881889759
0
LINE
8
BLACK
6
CONTINUOUS
10
6.603856496062992
20
-4.2711418897637792
11
6.6041758267716535
21
-4.2713552362204723
0
LINE
8
BLACK
6
CONTINUOUS
10
6.6041758267716535
20
-4.2713552362204723
11
6.7071795669291339
21
-4.3743589763779527
0
LINE
8
BLACK
6
CONTINUOUS
10
6.7071795669291339
20
-4.3743589763779527
11
6.707392913385827
21
-4.3746783070866142
0
LINE
8
BLACK
6
CONTINUOUS
10
6.707392913385827
20
-4.3746783070866142
11
6.707392913385827
21
-4.3754316141732286
0
LINE
8
BLACK
6
CONTINUOUS
10
6.707392913385827
20
-4.3754316141732286
11
6.7071795669291339
21
-4.3757509448818901
0
LINE
8
BLACK
6
CONTINUOUS
10
6.7071795669291339
20
-4.3757509448818901
11
6.6542857480314961
21
-4.4286447637795279
0
LINE
8
BLACK
6
CONTINUOUS
10
6.6542857480314961
20
-4.4286447637795279
11
6.6539664173228346
21
-4.4288581102362201
0
LINE
8
BLACK
6
CONTINUOUS
10
6.6539664173228346
20
-4.4288581102362201
11
6.6532131102362202
21
-4.4288581102362201
0
LINE
8
BLACK
6
CONTINUOUS
10
6.6532131102362202
20
-4.4288581102362201
11
6.6528937795275587
21
-4.4286447637795279
0
LINE
8
BLACK
6
CONTINUOUS
10
6.6528937795275587
20
-4.4286447637795279
11
6.5498900393700783
21
-4.3256410236220475
0
LINE
8
BLACK
6
CONTINUOUS
10
6.5498900393700783
20
-4.3256410236220475
11
6.5496766929133861
21
-4.325321692913386
0
LINE
8
BLACK
6
CONTINUOUS
10
6.5496766929133861
20
-4.325321692913386
11
6.5496766929133861
21
-4.3245683858267716
0
LINE
8
BLACK
6
CONTINUOUS
10
6.5496766929133861
20
-4.3245683858267716
11
6.5498900393700783
21
-4.3242490551181101
0
LINE
8
BLACK
6
CONTINUOUS
10
6.5498900393700783
20
-4.3242490551181101
11
6.6027838582677161
21
-4.2713552362204723
0
LINE
8
BLACK
6
CONTINUOUS
10
6.6027838582677161
20
-4.2713552362204723
11
6.6031031889763776
21
-4.2711418897637792
0
LINE
8
BLACK
6
CONTINUOUS
10
6.6031031889763776
20
-4.2711418897637792
11
6.603856496062992
21
-4.2711418897637792
0
LINE
8
BLACK
6
CONTINUOUS
10
6.551977992125984
20
-4.3249450393700783
11
6.6535897637795278
21
-4.4265568110236222
0
LINE
8
BLACK
6
CONTINUOUS
10
6.6535897637795278
20
-4.4265568110236222
11
6.7050916141732282
21
-4.3750549606299209
0
LINE
8
BLACK
6
CONTINUOUS
10
6.7050916141732282
20
-4.3750549606299209
11
6.6034798425196852
21
-4.273443188976378
0
LINE
8
BLACK
6
CONTINUOUS
10
6.6034798425196852
20
-4.273443188976378
11
6.551977992125984
21
-4.3249450393700783
0
LINE
8
BLACK
6
CONTINUOUS
10
6.0377782283464567
20
-4.2666103543307088
11
6.0383109055118105
21
-4.2671430314960626
0
LINE
8
BLACK
6
CONTINUOUS
10
6.0383109055118105
20
-4.2671430314960626
11
6.0383858267716537
21
-4.2675196850393702
0
LINE
8
BLACK
6
CONTINUOUS
10
6.0383858267716537
20
-4.2675196850393702
11
6.0383858267716537
21
-4.4131889763779526
0
LINE
8
BLACK
6
CONTINUOUS
10
6.0383858267716537
20
-4.4131889763779526
11
6.0383109055118105
21
-4.4135656299212593
0
LINE
8
BLACK
6
CONTINUOUS
10
6.0383109055118105
20
-4.4135656299212593
11
6.0377782283464567
21
-4.414098307086614
0
LINE
8
BLACK
6
CONTINUOUS
10
6.0377782283464567
20
-4.414098307086614
11
6.0374015748031491
21
-4.4141732283464563
0
LINE
8
BLACK
6
CONTINUOUS
10
6.0374015748031491
20
-4.4141732283464563
11
5.96259842519685
21
-4.4141732283464563
0
LINE
8
BLACK
6
CONTINUOUS
10
5.96259842519685
20
-4.4141732283464563
11
5.9622217716535433
21
-4.414098307086614
0
LINE
8
BLACK
6
CONTINUOUS
10
5.9622217716535433
20
-4.414098307086614
11
5.9616890944881886
21
-4.4135656299212593
0
LINE
8
BLACK
6
CONTINUOUS
10
5.9616890944881886
20
-4.4135656299212593
11
5.9616141732283463
21
-4.4131889763779526
0
LINE
8
BLACK
6
CONTINUOUS
10
5.9616141732283463
20
-4.4131889763779526
11
5.9616141732283463
21
-4.2675196850393702
0
LINE
8
BLACK
6
CONTINUOUS
10
5.9616141732283463
20
-4.2675196850393702
11
5.9616890944881886
21
-4.2671430314960626
0
LINE
8
BLACK
6
CONTINUOUS
10
5.9616890944881886
20
-4.2671430314960626
11
5.9622217716535433
21
-4.2666103543307088
0
LINE
8
BLACK
6
CONTINUOUS
10
5.9622217716535433
20
-4.2666103543307088
11
5.96259842519685
21
-4.2665354330708665
0
LINE
8
BLACK
6
CONTINUOUS
10
5.96259842519685
20
-4.2665354330708665
11
6.0374015748031491
21
-4.2665354330708665
0
LINE
8
BLACK
6
CONTINUOUS
10
6.0374015748031491
20
-4.2665354330708665
11
6.0377782283464567
21
-4.2666103543307088
0
LINE
8
BLACK
6
CONTINUOUS
10
5.9635826771653546
20
-4.2685039370078739
11
5.9635826771653546
21
-4.4122047244094489
0
LINE
8
BLACK
6
CONTINUOUS
10
5.9635826771653546
20
-4.4122047244094489
11
6.0364173228346454
21
-4.4122047244094489
0
LINE
8
BLACK
6
CONTINUOUS
10
6.0364173228346454
20
-4.4122047244094489
11
6.0364173228346454
21
-4.2685039370078739
0
LINE
8
BLACK
6
CONTINUOUS
10
6.0364173228346454
20
-4.2685039370078739
11
5.9635826771653546
21
-4.2685039370078739
0
LINE
8
BLACK
6
CONTINUOUS
10
5.5652388582677164
20
-4.160507992125984
11
5.565771535433071
21
-4.1610406692913386
0
LINE
8
BLACK
6
CONTINUOUS
10
5.565771535433071
20
-4.1610406692913386
11
5.5658464566929133
21
-4.1614173228346454
0
LINE
8
BLACK
6
CONTINUOUS
10
5.5658464566929133
20
-4.1614173228346454
11
5.5658464566929133
21
-4.2385826771653541
0
LINE
8
BLACK
6
CONTINUOUS
10
5.5658464566929133
20
-4.2385826771653541
11
5.565771535433071
21
-4.2389593307086617
0
LINE
8
BLACK
6
CONTINUOUS
10
5.565771535433071
20
-4.2389593307086617
11
5.5652388582677164
21
-4.2394920078740155
0
LINE
8
BLACK
6
CONTINUOUS
10
5.5652388582677164
20
-4.2394920078740155
11
5.5648622047244096
21
-4.2395669291338578
0
LINE
8
BLACK
6
CONTINUOUS
10
5.5648622047244096
20
-4.2395669291338578
11
5.4168307086614176
21
-4.2395669291338578
0
LINE
8
BLACK
6
CONTINUOUS
10
5.4168307086614176
20
-4.2395669291338578
11
5.41645405511811
21
-4.2394920078740155
0
LINE
8
BLACK
6
CONTINUOUS
10
5.41645405511811
20
-4.2394920078740155
11
5.4159213779527562
21
-4.2389593307086617
0
LINE
8
BLACK
6
CONTINUOUS
10
5.4159213779527562
20
-4.2389593307086617
11
5.415846456692913
21
-4.2385826771653541
0
LINE
8
BLACK
6
CONTINUOUS
10
5.415846456692913
20
-4.2385826771653541
11
5.415846456692913
21
-4.1614173228346454
0
LINE
8
BLACK
6
CONTINUOUS
10
5.415846456692913
20
-4.1614173228346454
11
5.4159213779527562
21
-4.1610406692913386
0
LINE
8
BLACK
6
CONTINUOUS
10
5.4159213779527562
20
-4.1610406692913386
11
5.41645405511811
21
-4.160507992125984
0
LINE
8
BLACK
6
CONTINUOUS
10
5.41645405511811
20
-4.160507992125984
11
5.4168307086614176
21
-4.1604330708661417
0
LINE
8
BLACK
6
CONTINUOUS
10
5.4168307086614176
20
-4.1604330708661417
11
5.5648622047244096
21
-4.1604330708661417
0
LINE
8
BLACK
6
CONTINUOUS
10
5.5648622047244096
20
-4.1604330708661417
11
5.5652388582677164
21
-4.160507992125984
0
LINE
8
BLACK
6
CONTINUOUS
10
5.4178149606299213
20
-4.1624015748031491
11
5.4178149606299213
21
-4.2375984251968504
0
LINE
8
BLACK
6
CONTINUOUS
10
5.4178149606299213
20
-4.2375984251968504
11
5.563877952755905
21
-4.2375984251968504
0
LINE
8
BLACK
6
CONTINUOUS
10
5.563877952755905
20
-4.2375984251968504
11
5.563877952755905
21
-4.1624015748031491
0
LINE
8
BLACK
6
CONTINUOUS
10
5.563877952755905
20
-4.1624015748031491
11
5.4178149606299213
21
-4.1624015748031491
0
LINE
8
BLACK
6
CONTINUOUS
10
4.9944711417322836
20
-3.9526339763779528
11
4.9950038188976373
21
-3.953166653543307
0
LINE
8
BLACK
6
CONTINUOUS
10
4.9950038188976373
20
-3.953166653543307
11
4.9950787401574805
21
-3.9535433070866142
0
LINE
8
BLACK
6
CONTINUOUS
10
4.9950787401574805
20
-3.9535433070866142
11
4.9950787401574805
21
-4.1247190157480311
0
LINE
8
BLACK
6
CONTINUOUS
10
4.9950787401574805
20
-4.1247190157480311
11
5.0108346062992126
21
-4.1247190157480311
0
LINE
8
BLACK
6
CONTINUOUS
10
5.0108346062992126
20
-4.1247190157480311
11
5.0105079921259845
21
-4.124392401574803
0
LINE
8
BLACK
6
CONTINUOUS
10
5.0105079921259845
20
-4.124392401574803
11
5.0104330708661413
21
-4.1240157480314963
0
LINE
8
BLACK
6
CONTINUOUS
10
5.0104330708661413
20
-4.1240157480314963
11
5.0104330708661413
21
-3.9759842519685038
0
LINE
8
BLACK
6
CONTINUOUS
10
5.0104330708661413
20
-3.9759842519685038
11
5.0105079921259845
21
-3.9756075984251966
0
LINE
8
BLACK
6
CONTINUOUS
10
5.0105079921259845
20
-3.9756075984251966
11
5.0110406692913383
21
-3.9750749212598424
0
LINE
8
BLACK
6
CONTINUOUS
10
5.0110406692913383
20
-3.9750749212598424
11
5.0114173228346459
21
-3.9750000000000001
0
LINE
8
BLACK
6
CONTINUOUS
10
5.0114173228346459
20
-3.9750000000000001
11
5.0885826771653546
21
-3.9750000000000001
0
LINE
8
BLACK
6
CONTINUOUS
10
5.0885826771653546
20
-3.9750000000000001
11
5.0889593307086614
21
-3.9750749212598424
0
LINE
8
BLACK
6
CONTINUOUS
10
5.0889593307086614
20
-3.9750749212598424
11
5.089492007874016
21
-3.9756075984251966
0
LINE
8
BLACK
6
CONTINUOUS
10
5.089492007874016
20
-3.9756075984251966
11
5.0895669291338583
21
-3.9759842519685038
0
LINE
8
BLACK
6
CONTINUOUS
10
5.0895669291338583
20
-3.9759842519685038
11
5.0895669291338583
21
-4.1240157480314963
0
LINE
8
BLACK
6
CONTINUOUS
10
5.0895669291338583
20
-4.1240157480314963
11
5.089492007874016
21
-4.124392401574803
0
LINE
8
BLACK
6
CONTINUOUS
10
5.089492007874016
20
-4.124392401574803
11
5.089165393700787
21
-4.1247190157480311
0
LINE
8
BLACK
6
CONTINUOUS
10
5.089165393700787
20
-4.1247190157480311
11
5.1873165748031491
21
-4.1247190157480311
0
LINE
8
BLACK
6
CONTINUOUS
10
5.1873165748031491
20
-4.1247190157480311
11
5.1876932283464567
21
-4.1247939370078743
0
LINE
8
BLACK
6
CONTINUOUS
10
5.1876932283464567
20
-4.1247939370078743
11
5.1882259055118105
21
-4.1253266141732281
0
LINE
8
BLACK
6
CONTINUOUS
10
5.1882259055118105
20
-4.1253266141732281
11
5.1883008267716537
21
-4.1257032677165357
0
LINE
8
BLACK
6
CONTINUOUS
10
5.1883008267716537
20
-4.1257032677165357
11
5.1883008267716537
21
-4.2138922440944881
0
LINE
8
BLACK
6
CONTINUOUS
10
5.1883008267716537
20
-4.2138922440944881
11
5.1882259055118105
21
-4.2142688976377949
0
LINE
8
BLACK
6
CONTINUOUS
10
5.1882259055118105
20
-4.2142688976377949
11
5.1876932283464567
21
-4.2148015748031495
0
LINE
8
BLACK
6
CONTINUOUS
10
5.1876932283464567
20
-4.2148015748031495
11
5.1873165748031491
21
-4.2148764960629919
0
LINE
8
BLACK
6
CONTINUOUS
10
5.1873165748031491
20
-4.2148764960629919
11
4.9944031889763778
21
-4.2148764960629919
0
LINE
8
BLACK
6
CONTINUOUS
10
4.9944031889763778
20
-4.2148764960629919
11
4.9940265354330711
21
-4.2148015748031495
0
LINE
8
BLACK
6
CONTINUOUS
10
4.9940265354330711
20
-4.2148015748031495
11
4.9934938582677164
21
-4.2142688976377949
0
LINE
8
BLACK
6
CONTINUOUS
10
4.9934938582677164
20
-4.2142688976377949
11
4.9934189370078741
21
-4.2138922440944881
0
LINE
8
BLACK
6
CONTINUOUS
10
4.9934189370078741
20
-4.2138922440944881
11
4.9934189370078741
21
-4.1474409448818896
0
LINE
8
BLACK
6
CONTINUOUS
10
4.9934189370078741
20
-4.1474409448818896
11
4.9059055118110235
21
-4.1474409448818896
0
LINE
8
BLACK
6
CONTINUOUS
10
4.9059055118110235
20
-4.1474409448818896
11
4.9055288582677168
21
-4.1473660236220473
0
LINE
8
BLACK
6
CONTINUOUS
10
4.9055288582677168
20
-4.1473660236220473
11
4.9049961811023621
21
-4.1468333464566927
0
LINE
8
BLACK
6
CONTINUOUS
10
4.9049961811023621
20
-4.1468333464566927
11
4.9049212598425198
21
-4.1464566929133859
0
LINE
8
BLACK
6
CONTINUOUS
10
4.9049212598425198
20
-4.1464566929133859
11
4.9049212598425198
21
-3.9535433070866142
0
LINE
8
BLACK
6
CONTINUOUS
10
4.9049212598425198
20
-3.9535433070866142
11
4.9049961811023621
21
-3.953166653543307
0
LINE
8
BLACK
6
CONTINUOUS
10
4.9049961811023621
20
-3.953166653543307
11
4.9055288582677168
21
-3.9526339763779528
0
LINE
8
BLACK
6
CONTINUOUS
10
4.9055288582677168
20
-3.9526339763779528
11
4.9059055118110235
21
-3.95255905511811
0
LINE
8
BLACK
6
CONTINUOUS
10
4.9059055118110235
20
-3.95255905511811
11
4.9940944881889759
21
-3.95255905511811
0
LINE
8
BLACK
6
CONTINUOUS
10
4.9940944881889759
20
-3.95255905511811
11
4.9944711417322836
21
-3.9526339763779528
0
LINE
8
BLACK
6
CONTINUOUS
10
4.9953874409448815
20
-4.1266875196850394
11
4.9953874409448815
21
-4.2129079921259844
0
LINE
8
BLACK
6
CONTINUOUS
10
4.9953874409448815
20
-4.2129079921259844
11
5.1863323228346454
21
-4.2129079921259844
0
LINE
8
BLACK
6
CONTINUOUS
10
5.1863323228346454
20
-4.2129079921259844
11
5.1863323228346454
21
-4.1266875196850394
0
LINE
8
BLACK
6
CONTINUOUS
10
5.1863323228346454
20
-4.1266875196850394
11
4.9953874409448815
21
-4.1266875196850394
0
LINE
8
BLACK
6
CONTINUOUS
10
4.9068897637795272
20
-3.9545275590551179
11
4.9068897637795272
21
-4.1454724409448822
0
LINE
8
BLACK
6
CONTINUOUS
10
4.9068897637795272
20
-4.1454724409448822
11
4.9931102362204722
21
-4.1454724409448822
0
LINE
8
BLACK
6
CONTINUOUS
10
4.9931102362204722
20
-4.1454724409448822
11
4.9931102362204722
21
-3.9545275590551179
0
LINE
8
BLACK
6
CONTINUOUS
10
4.9931102362204722
20
-3.9545275590551179
11
4.9068897637795272
21
-3.9545275590551179
0
LINE
8
BLACK
6
CONTINUOUS
10
5.0124015748031496
20
-3.976968503937008
11
5.0124015748031496
21
-4.1230314960629917
0
LINE
8
BLACK
6
CONTINUOUS
10
5.0124015748031496
20
-4.1230314960629917
11
5.08759842519685
21
-4.1230314960629917
0
LINE
8
BLACK
6
CONTINUOUS
10
5.08759842519685
20
-4.1230314960629917
11
5.08759842519685
21
-3.976968503937008
0
LINE
8
BLACK
6
CONTINUOUS
10
5.08759842519685
20
-3.976968503937008
11
5.0124015748031496
21
-3.976968503937008
0
LINE
8
BLACK
6
CONTINUOUS
10
5.894471141732283
20
-4.0136575984251968
11
5.8950038188976377
21
-4.0141902755905514
0
LINE
8
BLACK
6
CONTINUOUS
10
5.8950038188976377
20
-4.0141902755905514
11
5.89507874015748
21
-4.0145669291338582
0
LINE
8
BLACK
6
CONTINUOUS
10
5.89507874015748
20
-4.0145669291338582
11
5.89507874015748
21
-4.2074803149606295
0
LINE
8
BLACK
6
CONTINUOUS
10
5.89507874015748
20
-4.2074803149606295
11
5.8950038188976377
21
-4.2078569685039371
0
LINE
8
BLACK
6
CONTINUOUS
10
5.8950038188976377
20
-4.2078569685039371
11
5.894471141732283
21
-4.2083896456692909
0
LINE
8
BLACK
6
CONTINUOUS
10
5.894471141732283
20
-4.2083896456692909
11
5.8940944881889763
21
-4.2084645669291341
0
LINE
8
BLACK
6
CONTINUOUS
10
5.8940944881889763
20
-4.2084645669291341
11
5.8059055118110239
21
-4.2084645669291341
0
LINE
8
BLACK
6
CONTINUOUS
10
5.8059055118110239
20
-4.2084645669291341
11
5.8055288582677163
21
-4.2083896456692909
0
LINE
8
BLACK
6
CONTINUOUS
10
5.8055288582677163
20
-4.2083896456692909
11
5.8049961811023625
21
-4.2078569685039371
0
LINE
8
BLACK
6
CONTINUOUS
10
5.8049961811023625
20
-4.2078569685039371
11
5.8049212598425193
21
-4.2074803149606295
0
LINE
8
BLACK
6
CONTINUOUS
10
5.8049212598425193
20
-4.2074803149606295
11
5.8049212598425193
21
-4.0145669291338582
0
LINE
8
BLACK
6
CONTINUOUS
10
5.8049212598425193
20
-4.0145669291338582
11
5.8049961811023625
21
-4.0141902755905514
0
LINE
8
BLACK
6
CONTINUOUS
10
5.8049961811023625
20
-4.0141902755905514
11
5.8055288582677163
21
-4.0136575984251968
0
LINE
8
BLACK
6
CONTINUOUS
10
5.8055288582677163
20
-4.0136575984251968
11
5.8059055118110239
21
-4.0135826771653544
0
LINE
8
BLACK
6
CONTINUOUS
10
5.8059055118110239
20
-4.0135826771653544
11
5.8940944881889763
21
-4.0135826771653544
0
LINE
8
BLACK
6
CONTINUOUS
10
5.8940944881889763
20
-4.0135826771653544
11
5.894471141732283
21
-4.0136575984251968
0
LINE
8
BLACK
6
CONTINUOUS
10
5.8068897637795276
20
-4.0155511811023619
11
5.8068897637795276
21
-4.2064960629921258
0
LINE
8
BLACK
6
CONTINUOUS
10
5.8068897637795276
20
-4.2064960629921258
11
5.8931102362204726
21
-4.2064960629921258
0
LINE
8
BLACK
6
CONTINUOUS
10
5.8931102362204726
20
-4.2064960629921258
11
5.8931102362204726
21
-4.0155511811023619
0
LINE
8
BLACK
6
CONTINUOUS
10
5.8931102362204726
20
-4.0155511811023619
11
5.8068897637795276
21
-4.0155511811023619
0
LINE
8
BLACK
6
CONTINUOUS
10
6.0444711417322834
20
-4.0136575984251968
11
6.045003818897638
21
-4.0141902755905514
0
LINE
8
BLACK
6
CONTINUOUS
10
6.045003818897638
20
-4.0141902755905514
11
6.0450787401574804
21
-4.0145669291338582
0
LINE
8
BLACK
6
CONTINUOUS
10
6.0450787401574804
20
-4.0145669291338582
11
6.0450787401574804
21
-4.2074803149606295
0
LINE
8
BLACK
6
CONTINUOUS
10
6.0450787401574804
20
-4.2074803149606295
11
6.045003818897638
21
-4.2078569685039371
0
LINE
8
BLACK
6
CONTINUOUS
10
6.045003818897638
20
-4.2078569685039371
11
6.0444711417322834
21
-4.2083896456692909
0
LINE
8
BLACK
6
CONTINUOUS
10
6.0444711417322834
20
-4.2083896456692909
11
6.0440944881889767
21
-4.2084645669291341
0
LINE
8
BLACK
6
CONTINUOUS
10
6.0440944881889767
20
-4.2084645669291341
11
5.9559055118110233
21
-4.2084645669291341
0
LINE
8
BLACK
6
CONTINUOUS
10
5.9559055118110233
20
-4.2084645669291341
11
5.9555288582677166
21
-4.2083896456692909
0
LINE
8
BLACK
6
CONTINUOUS
10
5.9555288582677166
20
-4.2083896456692909
11
5.954996181102362
21
-4.2078569685039371
0
LINE
8
BLACK
6
CONTINUOUS
10
5.954996181102362
20
-4.2078569685039371
11
5.9549212598425196
21
-4.2074803149606295
0
LINE
8
BLACK
6
CONTINUOUS
10
5.9549212598425196
20
-4.2074803149606295
11
5.9549212598425196
21
-4.0145669291338582
0
LINE
8
BLACK
6
CONTINUOUS
10
5.9549212598425196
20
-4.0145669291338582
11
5.954996181102362
21
-4.0141902755905514
0
LINE
8
BLACK
6
CONTINUOUS
10
5.954996181102362
20
-4.0141902755905514
11
5.9555288582677166
21
-4.0136575984251968
0
LINE
8
BLACK
6
CONTINUOUS
10
5.9555288582677166
20
-4.0136575984251968
11
5.9559055118110233
21
-4.0135826771653544
0
LINE
8
BLACK
6
CONTINUOUS
10
5.9559055118110233
20
-4.0135826771653544
11
6.0440944881889767
21
-4.0135826771653544
0
LINE
8
BLACK
6
CONTINUOUS
10
6.0440944881889767
20
-4.0135826771653544
11
6.0444711417322834
21
-4.0136575984251968
0
LINE
8
BLACK
6
CONTINUOUS
10
5.9568897637795271
20
-4.0155511811023619
11
5.9568897637795271
21
-4.2064960629921258
0
LINE
8
BLACK
6
CONTINUOUS
10
5.9568897637795271
20
-4.2064960629921258
11
6.0431102362204721
21
-4.2064960629921258
0
LINE
8
BLACK
6
CONTINUOUS
10
6.0431102362204721
20
-4.2064960629921258
11
6.0431102362204721
21
-4.0155511811023619
0
LINE
8
BLACK
6
CONTINUOUS
10
6.0431102362204721
20
-4.0155511811023619
11
5.9568897637795271
21
-4.0155511811023619
0
LINE
8
BLACK
6
CONTINUOUS
10
4.8578569685039366
20
-4.0549961811023625
11
4.8583896456692912
21
-4.0555288582677163
0
LINE
8
BLACK
6
CONTINUOUS
10
4.8583896456692912
20
-4.0555288582677163
11
4.8584645669291335
21
-4.0559055118110239
0
LINE
8
BLACK
6
CONTINUOUS
10
4.8584645669291335
20
-4.0559055118110239
11
4.8584645669291335
21
-4.1440944881889763
0
LINE
8
BLACK
6
CONTINUOUS
10
4.8584645669291335
20
-4.1440944881889763
11
4.8583896456692912
21
-4.144471141732283
0
LINE
8
BLACK
6
CONTINUOUS
10
4.8583896456692912
20
-4.144471141732283
11
4.8578569685039366
21
-4.1450038188976377
0
LINE
8
BLACK
6
CONTINUOUS
10
4.8578569685039366
20
-4.1450038188976377
11
4.8574803149606298
21
-4.14507874015748
0
LINE
8
BLACK
6
CONTINUOUS
10
4.8574803149606298
20
-4.14507874015748
11
4.6645669291338585
21
-4.14507874015748
0
LINE
8
BLACK
6
CONTINUOUS
10
4.6645669291338585
20
-4.14507874015748
11
4.6641902755905509
21
-4.1450038188976377
0
LINE
8
BLACK
6
CONTINUOUS
10
4.6641902755905509
20
-4.1450038188976377
11
4.6636575984251971
21
-4.144471141732283
0
LINE
8
BLACK
6
CONTINUOUS
10
4.6636575984251971
20
-4.144471141732283
11
4.6635826771653539
21
-4.1440944881889763
0
LINE
8
BLACK
6
CONTINUOUS
10
4.6635826771653539
20
-4.1440944881889763
11
4.6635826771653539
21
-4.1382938582677165
0
LINE
8
BLACK
6
CONTINUOUS
10
4.6635826771653539
20
-4.1382938582677165
11
4.6635656299212593
21
-4.138310905511811
0
LINE
8
BLACK
6
CONTINUOUS
10
4.6635656299212593
20
-4.138310905511811
11
4.6631889763779526
21
-4.1383858267716533
0
LINE
8
BLACK
6
CONTINUOUS
10
4.6631889763779526
20
-4.1383858267716533
11
4.5175196850393702
21
-4.1383858267716533
0
LINE
8
BLACK
6
CONTINUOUS
10
4.5175196850393702
20
-4.1383858267716533
11
4.5171430314960626
21
-4.138310905511811
0
LINE
8
BLACK
6
CONTINUOUS
10
4.5171430314960626
20
-4.138310905511811
11
4.5166103543307088
21
-4.1377782283464564
0
LINE
8
BLACK
6
CONTINUOUS
10
4.5166103543307088
20
-4.1377782283464564
11
4.5165354330708665
21
-4.1374015748031496
0
LINE
8
BLACK
6
CONTINUOUS
10
4.5165354330708665
20
-4.1374015748031496
11
4.5165354330708665
21
-4.0625984251968505
0
LINE
8
BLACK
6
CONTINUOUS
10
4.5165354330708665
20
-4.0625984251968505
11
4.5166103543307088
21
-4.0622217716535429
0
LINE
8
BLACK
6
CONTINUOUS
10
4.5166103543307088
20
-4.0622217716535429
11
4.5171430314960626
21
-4.0616890944881892
0
LINE
8
BLACK
6
CONTINUOUS
10
4.5171430314960626
20
-4.0616890944881892
11
4.5175196850393702
21
-4.0616141732283459
0
LINE
8
BLACK
6
CONTINUOUS
10
4.5175196850393702
20
-4.0616141732283459
11
4.6631889763779526
21
-4.0616141732283459
0
LINE
8
BLACK
6
CONTINUOUS
10
4.6631889763779526
20
-4.0616141732283459
11
4.6635656299212593
21
-4.0616890944881892
0
LINE
8
BLACK
6
CONTINUOUS
10
4.6635656299212593
20
-4.0616890944881892
11
4.6635826771653539
21
-4.0617061417322837
0
LINE
8
BLACK
6
CONTINUOUS
10
4.6635826771653539
20
-4.0617061417322837
11
4.6635826771653539
21
-4.0559055118110239
0
LINE
8
BLACK
6
CONTINUOUS
10
4.6635826771653539
20
-4.0559055118110239
11
4.6636575984251971
21
-4.0555288582677163
0
LINE
8
BLACK
6
CONTINUOUS
10
4.6636575984251971
20
-4.0555288582677163
11
4.6641902755905509
21
-4.0549961811023625
0
LINE
8
BLACK
6
CONTINUOUS
10
4.6641902755905509
20
-4.0549961811023625
11
4.6645669291338585
21
-4.0549212598425193
0
LINE
8
BLACK
6
CONTINUOUS
10
4.6645669291338585
20
-4.0549212598425193
11
4.8574803149606298
21
-4.0549212598425193
0
LINE
8
BLACK
6
CONTINUOUS
10
4.8574803149606298
20
-4.0549212598425193
11
4.8578569685039366
21
-4.0549961811023625
0
LINE
8
BLACK
6
CONTINUOUS
10
4.6655511811023622
20
-4.0568897637795276
11
4.6655511811023622
21
-4.1431102362204726
0
LINE
8
BLACK
6
CONTINUOUS
10
4.6655511811023622
20
-4.1431102362204726
11
4.8564960629921261
21
-4.1431102362204726
0
LINE
8
BLACK
6
CONTINUOUS
10
4.8564960629921261
20
-4.1431102362204726
11
4.8564960629921261
21
-4.0568897637795276
0
LINE
8
BLACK
6
CONTINUOUS
10
4.8564960629921261
20
-4.0568897637795276
11
4.6655511811023622
21
-4.0568897637795276
0
LINE
8
BLACK
6
CONTINUOUS
10
4.5185039370078739
20
-4.0635826771653543
11
4.5185039370078739
21
-4.1364173228346459
0
LINE
8
BLACK
6
CONTINUOUS
10
4.5185039370078739
20
-4.1364173228346459
11
4.6622047244094489
21
-4.1364173228346459
0
LINE
8
BLACK
6
CONTINUOUS
10
4.6622047244094489
20
-4.1364173228346459
11
4.6622047244094489
21
-4.0635826771653543
0
LINE
8
BLACK
6
CONTINUOUS
10
4.6622047244094489
20
-4.0635826771653543
11
4.5185039370078739
21
-4.0635826771653543
0
LINE
8
BLACK
6
CONTINUOUS
10
6.4078569685039373
20
-4.0549961811023625
11
6.408389645669291
21
-4.0555288582677163
0
LINE
8
BLACK
6
CONTINUOUS
10
6.408389645669291
20
-4.0555288582677163
11
6.4084645669291334
21
-4.0559055118110239
0
LINE
8
BLACK
6
CONTINUOUS
10
6.4084645669291334
20
-4.0559055118110239
11
6.4084645669291334
21
-4.1440944881889763
0
LINE
8
BLACK
6
CONTINUOUS
10
6.4084645669291334
20
-4.1440944881889763
11
6.408389645669291
21
-4.144471141732283
0
LINE
8
BLACK
6
CONTINUOUS
10
6.408389645669291
20
-4.144471141732283
11
6.4078569685039373
21
-4.1450038188976377
0
LINE
8
BLACK
6
CONTINUOUS
10
6.4078569685039373
20
-4.1450038188976377
11
6.4074803149606296
21
-4.14507874015748
0
LINE
8
BLACK
6
CONTINUOUS
10
6.4074803149606296
20
-4.14507874015748
11
6.2145669291338583
21
-4.14507874015748
0
LINE
8
BLACK
6
CONTINUOUS
10
6.2145669291338583
20
-4.14507874015748
11
6.2141902755905507
21
-4.1450038188976377
0
LINE
8
BLACK
6
CONTINUOUS
10
6.2141902755905507
20
-4.1450038188976377
11
6.2136575984251969
21
-4.144471141732283
0
LINE
8
BLACK
6
CONTINUOUS
10
6.2136575984251969
20
-4.144471141732283
11
6.2135826771653546
21
-4.1440944881889763
0
LINE
8
BLACK
6
CONTINUOUS
10
6.2135826771653546
20
-4.1440944881889763
11
6.2135826771653546
21
-4.0559055118110239
0
LINE
8
BLACK
6
CONTINUOUS
10
6.2135826771653546
20
-4.0559055118110239
11
6.2136575984251969
21
-4.0555288582677163
0
LINE
8
BLACK
6
CONTINUOUS
10
6.2136575984251969
20
-4.0555288582677163
11
6.2141902755905507
21
-4.0549961811023625
0
LINE
8
BLACK
6
CONTINUOUS
10
6.2141902755905507
20
-4.0549961811023625
11
6.2145669291338583
21
-4.0549212598425193
0
LINE
8
BLACK
6
CONTINUOUS
10
6.2145669291338583
20
-4.0549212598425193
11
6.4074803149606296
21
-4.0549212598425193
0
LINE
8
BLACK
6
CONTINUOUS
10
6.4074803149606296
20
-4.0549212598425193
11
6.4078569685039373
21
-4.0549961811023625
0
LINE
8
BLACK
6
CONTINUOUS
10
6.215551181102362
20
-4.0568897637795276
11
6.215551181102362
21
-4.1431102362204726
0
LINE
8
BLACK
6
CONTINUOUS
10
6.215551181102362
20
-4.1431102362204726
11
6.4064960629921259
21
-4.1431102362204726
0
LINE
8
BLACK
6
CONTINUOUS
10
6.4064960629921259
20
-4.1431102362204726
11
6.4064960629921259
21
-4.0568897637795276
0
LINE
8
BLACK
6
CONTINUOUS
10
6.4064960629921259
20
-4.0568897637795276
11
6.215551181102362
21
-4.0568897637795276
0
LINE
8
BLACK
6
CONTINUOUS
10
5.6551010629921254
20
-3.8284213779527558
11
5.6556337401574801
21
-3.82895405511811
0
LINE
8
BLACK
6
CONTINUOUS
10
5.6556337401574801
20
-3.82895405511811
11
5.6557086614173224
21
-3.8293307086614172
0
LINE
8
BLACK
6
CONTINUOUS
10
5.6557086614173224
20
-3.8293307086614172
11
5.6557086614173224
21
-4.120669291338583
0
LINE
8
BLACK
6
CONTINUOUS
10
5.6557086614173224
20
-4.120669291338583
11
5.6556337401574801
21
-4.1210459448818897
0
LINE
8
BLACK
6
CONTINUOUS
10
5.6556337401574801
20
-4.1210459448818897
11
5.6551010629921254
21
-4.1215786220472443
0
LINE
8
BLACK
6
CONTINUOUS
10
5.6551010629921254
20
-4.1215786220472443
11
5.6547244094488187
21
-4.1216535433070867
0
LINE
8
BLACK
6
CONTINUOUS
10
5.6547244094488187
20
-4.1216535433070867
11
5.2452755905511808
21
-4.1216535433070867
0
LINE
8
BLACK
6
CONTINUOUS
10
5.2452755905511808
20
-4.1216535433070867
11
5.244898937007874
21
-4.1215786220472443
0
LINE
8
BLACK
6
CONTINUOUS
10
5.244898937007874
20
-4.1215786220472443
11
5.2443662598425194
21
-4.1210459448818897
0
LINE
8
BLACK
6
CONTINUOUS
10
5.2443662598425194
20
-4.1210459448818897
11
5.244291338582677
21
-4.120669291338583
0
LINE
8
BLACK
6
CONTINUOUS
10
5.244291338582677
20
-4.120669291338583
11
5.244291338582677
21
-3.8293307086614172
0
LINE
8
BLACK
6
CONTINUOUS
10
5.244291338582677
20
-3.8293307086614172
11
5.2443662598425194
21
-3.82895405511811
0
LINE
8
BLACK
6
CONTINUOUS
10
5.2443662598425194
20
-3.82895405511811
11
5.244898937007874
21
-3.8284213779527558
0
LINE
8
BLACK
6
CONTINUOUS
10
5.244898937007874
20
-3.8284213779527558
11
5.2452755905511808
21
-3.8283464566929135
0
LINE
8
BLACK
6
CONTINUOUS
10
5.2452755905511808
20
-3.8283464566929135
11
5.6547244094488187
21
-3.8283464566929135
0
LINE
8
BLACK
6
CONTINUOUS
10
5.6547244094488187
20
-3.8283464566929135
11
5.6551010629921254
21
-3.8284213779527558
0
LINE
8
BLACK
6
CONTINUOUS
10
5.2462598425196854
20
-3.8303149606299214
11
5.2462598425196854
21
-4.1196850393700783
0
LINE
8
BLACK
6
CONTINUOUS
10
5.2462598425196854
20
-4.1196850393700783
11
5.653740157480315
21
-4.1196850393700783
0
LINE
8
BLACK
6
CONTINUOUS
10
5.653740157480315
20
-4.1196850393700783
11
5.653740157480315
21
-3.8303149606299214
0
LINE
8
BLACK
6
CONTINUOUS
10
5.653740157480315
20
-3.8303149606299214
11
5.2462598425196854
21
-3.8303149606299214
0
LINE
8
BLACK
6
CONTINUOUS
10
6.1944711417322837
20
-3.8636575984251968
11
6.1950038188976375
21
-3.8641902755905511
0
LINE
8
BLACK
6
CONTINUOUS
10
6.1950038188976375
20
-3.8641902755905511
11
6.1950787401574798
21
-3.8645669291338582
0
LINE
8
BLACK
6
CONTINUOUS
10
6.1950787401574798
20
-3.8645669291338582
11
6.1950787401574798
21
-4.05748031496063
0
LINE
8
BLACK
6
CONTINUOUS
10
6.1950787401574798
20
-4.05748031496063
11
6.1950038188976375
21
-4.0578569685039367
0
LINE
8
BLACK
6
CONTINUOUS
10
6.1950038188976375
20
-4.0578569685039367
11
6.1944711417322837
21
-4.0583896456692914
0
LINE
8
BLACK
6
CONTINUOUS
10
6.1944711417322837
20
-4.0583896456692914
11
6.1940944881889761
21
-4.0584645669291337
0
LINE
8
BLACK
6
CONTINUOUS
10
6.1940944881889761
20
-4.0584645669291337
11
6.1059055118110237
21
-4.0584645669291337
0
LINE
8
BLACK
6
CONTINUOUS
10
6.1059055118110237
20
-4.0584645669291337
11
6.1055288582677161
21
-4.0583896456692914
0
LINE
8
BLACK
6
CONTINUOUS
10
6.1055288582677161
20
-4.0583896456692914
11
6.1049961811023623
21
-4.0578569685039367
0
LINE
8
BLACK
6
CONTINUOUS
10
6.1049961811023623
20
-4.0578569685039367
11
6.10492125984252
21
-4.05748031496063
0
LINE
8
BLACK
6
CONTINUOUS
10
6.10492125984252
20
-4.05748031496063
11
6.10492125984252
21
-3.8645669291338582
0
LINE
8
BLACK
6
CONTINUOUS
10
6.10492125984252
20
-3.8645669291338582
11
6.1049961811023623
21
-3.8641902755905511
0
LINE
8
BLACK
6
CONTINUOUS
10
6.1049961811023623
20
-3.8641902755905511
11
6.1055288582677161
21
-3.8636575984251968
0
LINE
8
BLACK
6
CONTINUOUS
10
6.1055288582677161
20
-3.8636575984251968
11
6.1059055118110237
21
-3.8635826771653541
0
LINE
8
BLACK
6
CONTINUOUS
10
6.1059055118110237
20
-3.8635826771653541
11
6.1940944881889761
21
-3.8635826771653541
0
LINE
8
BLACK
6
CONTINUOUS
10
6.1940944881889761
20
-3.8635826771653541
11
6.1944711417322837
21
-3.8636575984251968
0
LINE
8
BLACK
6
CONTINUOUS
10
6.1068897637795274
20
-3.865551181102362
11
6.1068897637795274
21
-4.0564960629921263
0
LINE
8
BLACK
6
CONTINUOUS
10
6.1068897637795274
20
-4.0564960629921263
11
6.1931102362204724
21
-4.0564960629921263
0
LINE
8
BLACK
6
CONTINUOUS
10
6.1931102362204724
20
-4.0564960629921263
11
6.1931102362204724
21
-3.865551181102362
0
LINE
8
BLACK
6
CONTINUOUS
10
6.1931102362204724
20
-3.865551181102362
11
6.1068897637795274
21
-3.865551181102362
0
LINE
8
BLACK
6
CONTINUOUS
10
5.7944711417322834
20
-3.8026339763779529
11
5.795003818897638
21
-3.8031666535433071
0
LINE
8
BLACK
6
CONTINUOUS
10
5.795003818897638
20
-3.8031666535433071
11
5.7950787401574804
21
-3.8035433070866143
0
LINE
8
BLACK
6
CONTINUOUS
10
5.7950787401574804
20
-3.8035433070866143
11
5.7950787401574804
21
-3.9964566929133856
0
LINE
8
BLACK
6
CONTINUOUS
10
5.7950787401574804
20
-3.9964566929133856
11
5.795003818897638
21
-3.9968333464566927
0
LINE
8
BLACK
6
CONTINUOUS
10
5.795003818897638
20
-3.9968333464566927
11
5.7944711417322834
21
-3.997366023622047
0
LINE
8
BLACK
6
CONTINUOUS
10
5.7944711417322834
20
-3.997366023622047
11
5.7940944881889767
21
-3.9974409448818897
0
LINE
8
BLACK
6
CONTINUOUS
10
5.7940944881889767
20
-3.9974409448818897
11
5.7059055118110233
21
-3.9974409448818897
0
LINE
8
BLACK
6
CONTINUOUS
10
5.7059055118110233
20
-3.9974409448818897
11
5.7055288582677166
21
-3.997366023622047
0
LINE
8
BLACK
6
CONTINUOUS
10
5.7055288582677166
20
-3.997366023622047
11
5.704996181102362
21
-3.9968333464566927
0
LINE
8
BLACK
6
CONTINUOUS
10
5.704996181102362
20
-3.9968333464566927
11
5.7049212598425196
21
-3.9964566929133856
0
LINE
8
BLACK
6
CONTINUOUS
10
5.7049212598425196
20
-3.9964566929133856
11
5.7049212598425196
21
-3.8035433070866143
0
LINE
8
BLACK
6
CONTINUOUS
10
5.7049212598425196
20
-3.8035433070866143
11
5.704996181102362
21
-3.8031666535433071
0
LINE
8
BLACK
6
CONTINUOUS
10
5.704996181102362
20
-3.8031666535433071
11
5.7055288582677166
21
-3.8026339763779529
0
LINE
8
BLACK
6
CONTINUOUS
10
5.7055288582677166
20
-3.8026339763779529
11
5.7059055118110233
21
-3.8025590551181101
0
LINE
8
BLACK
6
CONTINUOUS
10
5.7059055118110233
20
-3.8025590551181101
11
5.7940944881889767
21
-3.8025590551181101
0
LINE
8
BLACK
6
CONTINUOUS
10
5.7940944881889767
20
-3.8025590551181101
11
5.7944711417322834
21
-3.8026339763779529
0
LINE
8
BLACK
6
CONTINUOUS
10
5.7068897637795271
20
-3.804527559055118
11
5.7068897637795271
21
-3.9954724409448819
0
LINE
8
BLACK
6
CONTINUOUS
10
5.7068897637795271
20
-3.9954724409448819
11
5.7931102362204721
21
-3.9954724409448819
0
LINE
8
BLACK
6
CONTINUOUS
10
5.7931102362204721
20
-3.9954724409448819
11
5.7931102362204721
21
-3.804527559055118
0
LINE
8
BLACK
6
CONTINUOUS
10
5.7931102362204721
20
-3.804527559055118
11
5.7068897637795271
21
-3.804527559055118
0
LINE
8
BLACK
6
CONTINUOUS
10
5.9944711417322836
20
-3.7916103543307087
11
5.9950038188976373
21
-3.7921430314960629
0
LINE
8
BLACK
6
CONTINUOUS
10
5.9950038188976373
20
-3.7921430314960629
11
5.9950787401574805
21
-3.7925196850393701
0
LINE
8
BLACK
6
CONTINUOUS
10
5.9950787401574805
20
-3.7925196850393701
11
5.9950787401574805
21
-3.9854330708661418
0
LINE
8
BLACK
6
CONTINUOUS
10
5.9950787401574805
20
-3.9854330708661418
11
5.9950038188976373
21
-3.9858097244094486
0
LINE
8
BLACK
6
CONTINUOUS
10
5.9950038188976373
20
-3.9858097244094486
11
5.9944711417322836
21
-3.9863424015748032
0
LINE
8
BLACK
6
CONTINUOUS
10
5.9944711417322836
20
-3.9863424015748032
11
5.9940944881889759
21
-3.9864173228346456
0
LINE
8
BLACK
6
CONTINUOUS
10
5.9940944881889759
20
-3.9864173228346456
11
5.9059055118110235
21
-3.9864173228346456
0
LINE
8
BLACK
6
CONTINUOUS
10
5.9059055118110235
20
-3.9864173228346456
11
5.9055288582677168
21
-3.9863424015748032
0
LINE
8
BLACK
6
CONTINUOUS
10
5.9055288582677168
20
-3.9863424015748032
11
5.9049961811023621
21
-3.9858097244094486
0
LINE
8
BLACK
6
CONTINUOUS
10
5.9049961811023621
20
-3.9858097244094486
11
5.9049212598425198
21
-3.9854330708661418
0
LINE
8
BLACK
6
CONTINUOUS
10
5.9049212598425198
20
-3.9854330708661418
11
5.9049212598425198
21
-3.7925196850393701
0
LINE
8
BLACK
6
CONTINUOUS
10
5.9049212598425198
20
-3.7925196850393701
11
5.9049961811023621
21
-3.7921430314960629
0
LINE
8
BLACK
6
CONTINUOUS
10
5.9049961811023621
20
-3.7921430314960629
11
5.9055288582677168
21
-3.7916103543307087
0
LINE
8
BLACK
6
CONTINUOUS
10
5.9055288582677168
20
-3.7916103543307087
11
5.9059055118110235
21
-3.7915354330708659
0
LINE
8
BLACK
6
CONTINUOUS
10
5.9059055118110235
20
-3.7915354330708659
11
5.9940944881889759
21
-3.7915354330708659
0
LINE
8
BLACK
6
CONTINUOUS
10
5.9940944881889759
20
-3.7915354330708659
11
5.9944711417322836
21
-3.7916103543307087
0
LINE
8
BLACK
6
CONTINUOUS
10
5.9068897637795272
20
-3.7935039370078738
11
5.9068897637795272
21
-3.9844488188976377
0
LINE
8
BLACK
6
CONTINUOUS
10
5.9068897637795272
20
-3.9844488188976377
11
5.9931102362204722
21
-3.9844488188976377
0
LINE
8
BLACK
6
CONTINUOUS
10
5.9931102362204722
20
-3.9844488188976377
11
5.9931102362204722
21
-3.7935039370078738
0
LINE
8
BLACK
6
CONTINUOUS
10
5.9931102362204722
20
-3.7935039370078738
11
5.9068897637795272
21
-3.7935039370078738
0
LINE
8
BLACK
6
CONTINUOUS
10
6.140140433070866
20
-3.7057835826771655
11
6.1406731102362206
21
-3.7063162598425197
0
LINE
8
BLACK
6
CONTINUOUS
10
6.1406731102362206
20
-3.7063162598425197
11
6.140748031496063
21
-3.7066929133858268
0
LINE
8
BLACK
6
CONTINUOUS
10
6.140748031496063
20
-3.7066929133858268
11
6.140748031496063
21
-3.8523622047244093
0
LINE
8
BLACK
6
CONTINUOUS
10
6.140748031496063
20
-3.8523622047244093
11
6.1406731102362206
21
-3.8527388582677164
0
LINE
8
BLACK
6
CONTINUOUS
10
6.1406731102362206
20
-3.8527388582677164
11
6.140140433070866
21
-3.8532715354330707
0
LINE
8
BLACK
6
CONTINUOUS
10
6.140140433070866
20
-3.8532715354330707
11
6.1397637795275593
21
-3.8533464566929134
0
LINE
8
BLACK
6
CONTINUOUS
10
6.1397637795275593
20
-3.8533464566929134
11
6.0649606299212593
21
-3.8533464566929134
0
LINE
8
BLACK
6
CONTINUOUS
10
6.0649606299212593
20
-3.8533464566929134
11
6.0645839763779525
21
-3.8532715354330707
0
LINE
8
BLACK
6
CONTINUOUS
10
6.0645839763779525
20
-3.8532715354330707
11
6.0640512992125979
21
-3.8527388582677164
0
LINE
8
BLACK
6
CONTINUOUS
10
6.0640512992125979
20
-3.8527388582677164
11
6.0639763779527556
21
-3.8523622047244093
0
LINE
8
BLACK
6
CONTINUOUS
10
6.0639763779527556
20
-3.8523622047244093
11
6.0639763779527556
21
-3.7066929133858268
0
LINE
8
BLACK
6
CONTINUOUS
10
6.0639763779527556
20
-3.7066929133858268
11
6.0640512992125979
21
-3.7063162598425197
0
LINE
8
BLACK
6
CONTINUOUS
10
6.0640512992125979
20
-3.7063162598425197
11
6.0645839763779525
21
-3.7057835826771655
0
LINE
8
BLACK
6
CONTINUOUS
10
6.0645839763779525
20
-3.7057835826771655
11
6.0649606299212593
21
-3.7057086614173227
0
LINE
8
BLACK
6
CONTINUOUS
10
6.0649606299212593
20
-3.7057086614173227
11
6.1397637795275593
21
-3.7057086614173227
0
LINE
8
BLACK
6
CONTINUOUS
10
6.1397637795275593
20
-3.7057086614173227
11
6.140140433070866
21
-3.7057835826771655
0
LINE
8
BLACK
6
CONTINUOUS
10
6.0659448818897639
20
-3.7076771653543306
11
6.0659448818897639
21
-3.8513779527559056
0
LINE
8
BLACK
6
CONTINUOUS
10
6.0659448818897639
20
-3.8513779527559056
11
6.1387795275590546
21
-3.8513779527559056
0
LINE
8
BLACK
6
CONTINUOUS
10
6.1387795275590546
20
-3.8513779527559056
11
6.1387795275590546
21
-3.7076771653543306
0
LINE
8
BLACK
6
CONTINUOUS
10
6.1387795275590546
20
-3.7076771653543306
11
6.0659448818897639
21
-3.7076771653543306
0
LINE
8
BLACK
6
CONTINUOUS
10
4.8363453149606297
20
-3.6711418897637795
11
4.8366646456692912
21
-3.6713552362204722
0
LINE
8
BLACK
6
CONTINUOUS
10
4.8366646456692912
20
-3.6713552362204722
11
4.9396683858267716
21
-3.7743589763779526
0
LINE
8
BLACK
6
CONTINUOUS
10
4.9396683858267716
20
-3.7743589763779526
11
4.9398817322834647
21
-3.7746783070866141
0
LINE
8
BLACK
6
CONTINUOUS
10
4.9398817322834647
20
-3.7746783070866141
11
4.9398817322834647
21
-3.7754316141732285
0
LINE
8
BLACK
6
CONTINUOUS
10
4.9398817322834647
20
-3.7754316141732285
11
4.9396683858267716
21
-3.7757509448818896
0
LINE
8
BLACK
6
CONTINUOUS
10
4.9396683858267716
20
-3.7757509448818896
11
4.8867745669291338
21
-3.8286447637795273
0
LINE
8
BLACK
6
CONTINUOUS
10
4.8867745669291338
20
-3.8286447637795273
11
4.8864552362204723
21
-3.8288581102362205
0
LINE
8
BLACK
6
CONTINUOUS
10
4.8864552362204723
20
-3.8288581102362205
11
4.8857019291338579
21
-3.8288581102362205
0
LINE
8
BLACK
6
CONTINUOUS
10
4.8857019291338579
20
-3.8288581102362205
11
4.8853825984251964
21
-3.8286447637795273
0
LINE
8
BLACK
6
CONTINUOUS
10
4.8853825984251964
20
-3.8286447637795273
11
4.782378858267716
21
-3.725641023622047
0
LINE
8
BLACK
6
CONTINUOUS
10
4.782378858267716
20
-3.725641023622047
11
4.7821655118110238
21
-3.7253216929133859
0
LINE
8
BLACK
6
CONTINUOUS
10
4.7821655118110238
20
-3.7253216929133859
11
4.7821655118110238
21
-3.7245683858267715
0
LINE
8
BLACK
6
CONTINUOUS
10
4.7821655118110238
20
-3.7245683858267715
11
4.782378858267716
21
-3.72424905511811
0
LINE
8
BLACK
6
CONTINUOUS
10
4.782378858267716
20
-3.72424905511811
11
4.8352726771653538
21
-3.6713552362204722
0
LINE
8
BLACK
6
CONTINUOUS
10
4.8352726771653538
20
-3.6713552362204722
11
4.8355920078740153
21
-3.6711418897637795
0
LINE
8
BLACK
6
CONTINUOUS
10
4.8355920078740153
20
-3.6711418897637795
11
4.8363453149606297
21
-3.6711418897637795
0
LINE
8
BLACK
6
CONTINUOUS
10
4.7844668110236217
20
-3.7249450393700787
11
4.8860785826771655
21
-3.8265568110236221
0
LINE
8
BLACK
6
CONTINUOUS
10
4.8860785826771655
20
-3.8265568110236221
11
4.9375804330708659
21
-3.7750549606299213
0
LINE
8
BLACK
6
CONTINUOUS
10
4.9375804330708659
20
-3.7750549606299213
11
4.835968661417323
21
-3.6734431889763779
0
LINE
8
BLACK
6
CONTINUOUS
10
4.835968661417323
20
-3.6734431889763779
11
4.7844668110236217
21
-3.7249450393700787
0
LINE
8
BLACK
6
CONTINUOUS
10
5.1578569685039373
20
-3.704996181102362
11
5.158389645669291
21
-3.7055288582677166
0
LINE
8
BLACK
6
CONTINUOUS
10
5.158389645669291
20
-3.7055288582677166
11
5.1584645669291334
21
-3.7059055118110233
0
LINE
8
BLACK
6
CONTINUOUS
10
5.1584645669291334
20
-3.7059055118110233
11
5.1584645669291334
21
-3.7940944881889762
0
LINE
8
BLACK
6
CONTINUOUS
10
5.1584645669291334
20
-3.7940944881889762
11
5.158389645669291
21
-3.7944711417322834
0
LINE
8
BLACK
6
CONTINUOUS
10
5.158389645669291
20
-3.7944711417322834
11
5.1578569685039373
21
-3.7950038188976376
0
LINE
8
BLACK
6
CONTINUOUS
10
5.1578569685039373
20
-3.7950038188976376
11
5.1574803149606296
21
-3.7950787401574804
0
LINE
8
BLACK
6
CONTINUOUS
10
5.1574803149606296
20
-3.7950787401574804
11
4.9645669291338583
21
-3.7950787401574804
0
LINE
8
BLACK
6
CONTINUOUS
10
4.9645669291338583
20
-3.7950787401574804
11
4.9641902755905507
21
-3.7950038188976376
0
LINE
8
BLACK
6
CONTINUOUS
10
4.9641902755905507
20
-3.7950038188976376
11
4.9636575984251969
21
-3.7944711417322834
0
LINE
8
BLACK
6
CONTINUOUS
10
4.9636575984251969
20
-3.7944711417322834
11
4.9635826771653546
21
-3.7940944881889762
0
LINE
8
BLACK
6
CONTINUOUS
10
4.9635826771653546
20
-3.7940944881889762
11
4.9635826771653546
21
-3.7059055118110233
0
LINE
8
BLACK
6
CONTINUOUS
10
4.9635826771653546
20
-3.7059055118110233
11
4.9636575984251969
21
-3.7055288582677166
0
LINE
8
BLACK
6
CONTINUOUS
10
4.9636575984251969
20
-3.7055288582677166
11
4.9641902755905507
21
-3.704996181102362
0
LINE
8
BLACK
6
CONTINUOUS
10
4.9641902755905507
20
-3.704996181102362
11
4.9645669291338583
21
-3.7049212598425196
0
LINE
8
BLACK
6
CONTINUOUS
10
4.9645669291338583
20
-3.7049212598425196
11
5.1574803149606296
21
-3.7049212598425196
0
LINE
8
BLACK
6
CONTINUOUS
10
5.1574803149606296
20
-3.7049212598425196
11
5.1578569685039373
21
-3.704996181102362
0
LINE
8
BLACK
6
CONTINUOUS
10
4.965551181102362
20
-3.7068897637795275
11
4.965551181102362
21
-3.7931102362204725
0
LINE
8
BLACK
6
CONTINUOUS
10
4.965551181102362
20
-3.7931102362204725
11
5.1564960629921259
21
-3.7931102362204725
0
LINE
8
BLACK
6
CONTINUOUS
10
5.1564960629921259
20
-3.7931102362204725
11
5.1564960629921259
21
-3.7068897637795275
0
LINE
8
BLACK
6
CONTINUOUS
10
5.1564960629921259
20
-3.7068897637795275
11
4.965551181102362
21
-3.7068897637795275
0
LINE
8
BLACK
6
CONTINUOUS
10
5.3444711417322832
20
-3.5916103543307085
11
5.3450038188976379
21
-3.5921430314960627
0
LINE
8
BLACK
6
CONTINUOUS
10
5.3450038188976379
20
-3.5921430314960627
11
5.3450787401574802
21
-3.5925196850393699
0
LINE
8
BLACK
6
CONTINUOUS
10
5.3450787401574802
20
-3.5925196850393699
11
5.3450787401574802
21
-3.7854330708661417
0
LINE
8
BLACK
6
CONTINUOUS
10
5.3450787401574802
20
-3.7854330708661417
11
5.3450038188976379
21
-3.7858097244094489
0
LINE
8
BLACK
6
CONTINUOUS
10
5.3450038188976379
20
-3.7858097244094489
11
5.3444711417322832
21
-3.7863424015748031
0
LINE
8
BLACK
6
CONTINUOUS
10
5.3444711417322832
20
-3.7863424015748031
11
5.3440944881889765
21
-3.7864173228346454
0
LINE
8
BLACK
6
CONTINUOUS
10
5.3440944881889765
20
-3.7864173228346454
11
5.2559055118110232
21
-3.7864173228346454
0
LINE
8
BLACK
6
CONTINUOUS
10
5.2559055118110232
20
-3.7864173228346454
11
5.2555288582677164
21
-3.7863424015748031
0
LINE
8
BLACK
6
CONTINUOUS
10
5.2555288582677164
20
-3.7863424015748031
11
5.2549961811023618
21
-3.7858097244094489
0
LINE
8
BLACK
6
CONTINUOUS
10
5.2549961811023618
20
-3.7858097244094489
11
5.2549212598425195
21
-3.7854330708661417
0
LINE
8
BLACK
6
CONTINUOUS
10
5.2549212598425195
20
-3.7854330708661417
11
5.2549212598425195
21
-3.5925196850393699
0
LINE
8
BLACK
6
CONTINUOUS
10
5.2549212598425195
20
-3.5925196850393699
11
5.2549961811023618
21
-3.5921430314960627
0
LINE
8
BLACK
6
CONTINUOUS
10
5.2549961811023618
20
-3.5921430314960627
11
5.2555288582677164
21
-3.5916103543307085
0
LINE
8
BLACK
6
CONTINUOUS
10
5.2555288582677164
20
-3.5916103543307085
11
5.2559055118110232
21
-3.5915354330708662
0
LINE
8
BLACK
6
CONTINUOUS
10
5.2559055118110232
20
-3.5915354330708662
11
5.3440944881889765
21
-3.5915354330708662
0
LINE
8
BLACK
6
CONTINUOUS
10
5.3440944881889765
20
-3.5915354330708662
11
5.3444711417322832
21
-3.5916103543307085
0
LINE
8
BLACK
6
CONTINUOUS
10
5.2568897637795278
20
-3.5935039370078741
11
5.2568897637795278
21
-3.7844488188976375
0
LINE
8
BLACK
6
CONTINUOUS
10
5.2568897637795278
20
-3.7844488188976375
11
5.3431102362204719
21
-3.7844488188976375
0
LINE
8
BLACK
6
CONTINUOUS
10
5.3431102362204719
20
-3.7844488188976375
11
5.3431102362204719
21
-3.5935039370078741
0
LINE
8
BLACK
6
CONTINUOUS
10
5.3431102362204719
20
-3.5935039370078741
11
5.2568897637795278
21
-3.5935039370078741
0
LINE
8
BLACK
6
CONTINUOUS
10
5.9877782283464569
20
-3.6359016929133858
11
5.9883109055118107
21
-3.63643437007874
0
LINE
8
BLACK
6
CONTINUOUS
10
5.9883109055118107
20
-3.63643437007874
11
5.988385826771653
21
-3.6368110236220472
0
LINE
8
BLACK
6
CONTINUOUS
10
5.988385826771653
20
-3.6368110236220472
11
5.988385826771653
21
-3.7824803149606296
0
LINE
8
BLACK
6
CONTINUOUS
10
5.988385826771653
20
-3.7824803149606296
11
5.9883109055118107
21
-3.7828569685039368
0
LINE
8
BLACK
6
CONTINUOUS
10
5.9883109055118107
20
-3.7828569685039368
11
5.9877782283464569
21
-3.783389645669291
0
LINE
8
BLACK
6
CONTINUOUS
10
5.9877782283464569
20
-3.783389645669291
11
5.9874015748031493
21
-3.7834645669291338
0
LINE
8
BLACK
6
CONTINUOUS
10
5.9874015748031493
20
-3.7834645669291338
11
5.9125984251968502
21
-3.7834645669291338
0
LINE
8
BLACK
6
CONTINUOUS
10
5.9125984251968502
20
-3.7834645669291338
11
5.9122217716535435
21
-3.783389645669291
0
LINE
8
BLACK
6
CONTINUOUS
10
5.9122217716535435
20
-3.783389645669291
11
5.9116890944881888
21
-3.7828569685039368
0
LINE
8
BLACK
6
CONTINUOUS
10
5.9116890944881888
20
-3.7828569685039368
11
5.9116141732283465
21
-3.7824803149606296
0
LINE
8
BLACK
6
CONTINUOUS
10
5.9116141732283465
20
-3.7824803149606296
11
5.9116141732283465
21
-3.6368110236220472
0
LINE
8
BLACK
6
CONTINUOUS
10
5.9116141732283465
20
-3.6368110236220472
11
5.9116890944881888
21
-3.63643437007874
0
LINE
8
BLACK
6
CONTINUOUS
10
5.9116890944881888
20
-3.63643437007874
11
5.9122217716535435
21
-3.6359016929133858
0
LINE
8
BLACK
6
CONTINUOUS
10
5.9122217716535435
20
-3.6359016929133858
11
5.9125984251968502
21
-3.6358267716535431
0
LINE
8
BLACK
6
CONTINUOUS
10
5.9125984251968502
20
-3.6358267716535431
11
5.9874015748031493
21
-3.6358267716535431
0
LINE
8
BLACK
6
CONTINUOUS
10
5.9874015748031493
20
-3.6358267716535431
11
5.9877782283464569
21
-3.6359016929133858
0
LINE
8
BLACK
6
CONTINUOUS
10
5.9135826771653539
20
-3.6377952755905509
11
5.9135826771653539
21
-3.7814960629921259
0
LINE
8
BLACK
6
CONTINUOUS
10
5.9135826771653539
20
-3.7814960629921259
11
5.9864173228346456
21
-3.7814960629921259
0
LINE
8
BLACK
6
CONTINUOUS
10
5.9864173228346456
20
-3.7814960629921259
11
5.9864173228346456
21
-3.6377952755905509
0
LINE
8
BLACK
6
CONTINUOUS
10
5.9864173228346456
20
-3.6377952755905509
11
5.9135826771653539
21
-3.6377952755905509
0
LINE
8
BLACK
6
CONTINUOUS
10
5.7877782283464567
20
-3.5859016929133856
11
5.7883109055118105
21
-3.5864343700787402
0
LINE
8
BLACK
6
CONTINUOUS
10
5.7883109055118105
20
-3.5864343700787402
11
5.7883858267716537
21
-3.586811023622047
0
LINE
8
BLACK
6
CONTINUOUS
10
5.7883858267716537
20
-3.586811023622047
11
5.7883858267716537
21
-3.7324803149606298
0
LINE
8
BLACK
6
CONTINUOUS
10
5.7883858267716537
20
-3.7324803149606298
11
5.7883109055118105
21
-3.732856968503937
0
LINE
8
BLACK
6
CONTINUOUS
10
5.7883109055118105
20
-3.732856968503937
11
5.7877782283464567
21
-3.7333896456692912
0
LINE
8
BLACK
6
CONTINUOUS
10
5.7877782283464567
20
-3.7333896456692912
11
5.7874015748031491
21
-3.733464566929134
0
LINE
8
BLACK
6
CONTINUOUS
10
5.7874015748031491
20
-3.733464566929134
11
5.71259842519685
21
-3.733464566929134
0
LINE
8
BLACK
6
CONTINUOUS
10
5.71259842519685
20
-3.733464566929134
11
5.7122217716535433
21
-3.7333896456692912
0
LINE
8
BLACK
6
CONTINUOUS
10
5.7122217716535433
20
-3.7333896456692912
11
5.7116890944881886
21
-3.732856968503937
0
LINE
8
BLACK
6
CONTINUOUS
10
5.7116890944881886
20
-3.732856968503937
11
5.7116141732283463
21
-3.7324803149606298
0
LINE
8
BLACK
6
CONTINUOUS
10
5.7116141732283463
20
-3.7324803149606298
11
5.7116141732283463
21
-3.586811023622047
0
LINE
8
BLACK
6
CONTINUOUS
10
5.7116141732283463
20
-3.586811023622047
11
5.7116890944881886
21
-3.5864343700787402
0
LINE
8
BLACK
6
CONTINUOUS
10
5.7116890944881886
20
-3.5864343700787402
11
5.7122217716535433
21
-3.5859016929133856
0
LINE
8
BLACK
6
CONTINUOUS
10
5.7122217716535433
20
-3.5859016929133856
11
5.71259842519685
21
-3.5858267716535432
0
LINE
8
BLACK
6
CONTINUOUS
10
5.71259842519685
20
-3.5858267716535432
11
5.7874015748031491
21
-3.5858267716535432
0
LINE
8
BLACK
6
CONTINUOUS
10
5.7874015748031491
20
-3.5858267716535432
11
5.7877782283464567
21
-3.5859016929133856
0
LINE
8
BLACK
6
CONTINUOUS
10
5.7135826771653546
20
-3.5877952755905511
11
5.7135826771653546
21
-3.7314960629921261
0
LINE
8
BLACK
6
CONTINUOUS
10
5.7135826771653546
20
-3.7314960629921261
11
5.7864173228346454
21
-3.7314960629921261
0
LINE
8
BLACK
6
CONTINUOUS
10
5.7864173228346454
20
-3.7314960629921261
11
5.7864173228346454
21
-3.5877952755905511
0
LINE
8
BLACK
6
CONTINUOUS
10
5.7864173228346454
20
-3.5877952755905511
11
5.7135826771653546
21
-3.5877952755905511
0
LINE
8
BLACK
6
CONTINUOUS
10
5.4444711417322837
20
-3.5026339763779526
11
5.4450038188976375
21
-3.5031666535433068
0
LINE
8
BLACK
6
CONTINUOUS
10
5.4450038188976375
20
-3.5031666535433068
11
5.4450787401574798
21
-3.503543307086614
0
LINE
8
BLACK
6
CONTINUOUS
10
5.4450787401574798
20
-3.503543307086614
11
5.4450787401574798
21
-3.6964566929133857
0
LINE
8
BLACK
6
CONTINUOUS
10
5.4450787401574798
20
-3.6964566929133857
11
5.4450038188976375
21
-3.6968333464566929
0
LINE
8
BLACK
6
CONTINUOUS
10
5.4450038188976375
20
-3.6968333464566929
11
5.4444711417322837
21
-3.6973660236220471
0
LINE
8
BLACK
6
CONTINUOUS
10
5.4444711417322837
20
-3.6973660236220471
11
5.4440944881889761
21
-3.6974409448818899
0
LINE
8
BLACK
6
CONTINUOUS
10
5.4440944881889761
20
-3.6974409448818899
11
5.3559055118110237
21
-3.6974409448818899
0
LINE
8
BLACK
6
CONTINUOUS
10
5.3559055118110237
20
-3.6974409448818899
11
5.3555288582677161
21
-3.6973660236220471
0
LINE
8
BLACK
6
CONTINUOUS
10
5.3555288582677161
20
-3.6973660236220471
11
5.3549961811023623
21
-3.6968333464566929
0
LINE
8
BLACK
6
CONTINUOUS
10
5.3549961811023623
20
-3.6968333464566929
11
5.35492125984252
21
-3.6964566929133857
0
LINE
8
BLACK
6
CONTINUOUS
10
5.35492125984252
20
-3.6964566929133857
11
5.35492125984252
21
-3.503543307086614
0
LINE
8
BLACK
6
CONTINUOUS
10
5.35492125984252
20
-3.503543307086614
11
5.3549961811023623
21
-3.5031666535433068
0
LINE
8
BLACK
6
CONTINUOUS
10
5.3549961811023623
20
-3.5031666535433068
11
5.3555288582677161
21
-3.5026339763779526
0
LINE
8
BLACK
6
CONTINUOUS
10
5.3555288582677161
20
-3.5026339763779526
11
5.3559055118110237
21
-3.5025590551181103
0
LINE
8
BLACK
6
CONTINUOUS
10
5.3559055118110237
20
-3.5025590551181103
11
5.4440944881889761
21
-3.5025590551181103
0
LINE
8
BLACK
6
CONTINUOUS
10
5.4440944881889761
20
-3.5025590551181103
11
5.4444711417322837
21
-3.5026339763779526
0
LINE
8
BLACK
6
CONTINUOUS
10
5.3568897637795274
20
-3.5045275590551181
11
5.3568897637795274
21
-3.6954724409448816
0
LINE
8
BLACK
6
CONTINUOUS
10
5.3568897637795274
20
-3.6954724409448816
11
5.4431102362204724
21
-3.6954724409448816
0
LINE
8
BLACK
6
CONTINUOUS
10
5.4431102362204724
20
-3.6954724409448816
11
5.4431102362204724
21
-3.5045275590551181
0
LINE
8
BLACK
6
CONTINUOUS
10
5.4431102362204724
20
-3.5045275590551181
11
5.3568897637795274
21
-3.5045275590551181
0
LINE
8
BLACK
6
CONTINUOUS
10
5.21356562992126
20
-3.4616890944881891
11
5.2140983070866138
21
-3.4622217716535433
0
LINE
8
BLACK
6
CONTINUOUS
10
5.2140983070866138
20
-3.4622217716535433
11
5.2141732283464561
21
-3.4625984251968505
0
LINE
8
BLACK
6
CONTINUOUS
10
5.2141732283464561
20
-3.4625984251968505
11
5.2141732283464561
21
-3.5374015748031495
0
LINE
8
BLACK
6
CONTINUOUS
10
5.2141732283464561
20
-3.5374015748031495
11
5.2140983070866138
21
-3.5377782283464567
0
LINE
8
BLACK
6
CONTINUOUS
10
5.2140983070866138
20
-3.5377782283464567
11
5.21356562992126
21
-3.5383109055118109
0
LINE
8
BLACK
6
CONTINUOUS
10
5.21356562992126
20
-3.5383109055118109
11
5.2131889763779524
21
-3.5383858267716533
0
LINE
8
BLACK
6
CONTINUOUS
10
5.2131889763779524
20
-3.5383858267716533
11
5.06751968503937
21
-3.5383858267716533
0
LINE
8
BLACK
6
CONTINUOUS
10
5.06751968503937
20
-3.5383858267716533
11
5.0671430314960633
21
-3.5383109055118109
0
LINE
8
BLACK
6
CONTINUOUS
10
5.0671430314960633
20
-3.5383109055118109
11
5.0666103543307086
21
-3.5377782283464567
0
LINE
8
BLACK
6
CONTINUOUS
10
5.0666103543307086
20
-3.5377782283464567
11
5.0665354330708663
21
-3.5374015748031495
0
LINE
8
BLACK
6
CONTINUOUS
10
5.0665354330708663
20
-3.5374015748031495
11
5.0665354330708663
21
-3.4625984251968505
0
LINE
8
BLACK
6
CONTINUOUS
10
5.0665354330708663
20
-3.4625984251968505
11
5.0666103543307086
21
-3.4622217716535433
0
LINE
8
BLACK
6
CONTINUOUS
10
5.0666103543307086
20
-3.4622217716535433
11
5.0671430314960633
21
-3.4616890944881891
0
LINE
8
BLACK
6
CONTINUOUS
10
5.0671430314960633
20
-3.4616890944881891
11
5.06751968503937
21
-3.4616141732283463
0
LINE
8
BLACK
6
CONTINUOUS
10
5.06751968503937
20
-3.4616141732283463
11
5.2131889763779524
21
-3.4616141732283463
0
LINE
8
BLACK
6
CONTINUOUS
10
5.2131889763779524
20
-3.4616141732283463
11
5.21356562992126
21
-3.4616890944881891
0
LINE
8
BLACK
6
CONTINUOUS
10
5.0685039370078737
20
-3.4635826771653542
11
5.0685039370078737
21
-3.5364173228346454
0
LINE
8
BLACK
6
CONTINUOUS
10
5.0685039370078737
20
-3.5364173228346454
11
5.2122047244094487
21
-3.5364173228346454
0
LINE
8
BLACK
6
CONTINUOUS
10
5.2122047244094487
20
-3.5364173228346454
11
5.2122047244094487
21
-3.4635826771653542
0
LINE
8
BLACK
6
CONTINUOUS
10
5.2122047244094487
20
-3.4635826771653542
11
5.0685039370078737
21
-3.4635826771653542
0
LINE
8
BLACK
6
CONTINUOUS
10
5.3232112992125984
20
-3.3116890944881887
11
5.323743976377953
21
-3.3122217716535434
0
LINE
8
BLACK
6
CONTINUOUS
10
5.323743976377953
20
-3.3122217716535434
11
5.3238188976377954
21
-3.3125984251968501
0
LINE
8
BLACK
6
CONTINUOUS
10
5.3238188976377954
20
-3.3125984251968501
11
5.3238188976377954
21
-3.3874015748031496
0
LINE
8
BLACK
6
CONTINUOUS
10
5.3238188976377954
20
-3.3874015748031496
11
5.323743976377953
21
-3.3877782283464568
0
LINE
8
BLACK
6
CONTINUOUS
10
5.323743976377953
20
-3.3877782283464568
11
5.3232112992125984
21
-3.388310905511811
0
LINE
8
BLACK
6
CONTINUOUS
10
5.3232112992125984
20
-3.388310905511811
11
5.3228346456692917
21
-3.3883858267716533
0
LINE
8
BLACK
6
CONTINUOUS
10
5.3228346456692917
20
-3.3883858267716533
11
5.1771653543307083
21
-3.3883858267716533
0
LINE
8
BLACK
6
CONTINUOUS
10
5.1771653543307083
20
-3.3883858267716533
11
5.1767887007874016
21
-3.388310905511811
0
LINE
8
BLACK
6
CONTINUOUS
10
5.1767887007874016
20
-3.388310905511811
11
5.176256023622047
21
-3.3877782283464568
0
LINE
8
BLACK
6
CONTINUOUS
10
5.176256023622047
20
-3.3877782283464568
11
5.1761811023622046
21
-3.3874015748031496
0
LINE
8
BLACK
6
CONTINUOUS
10
5.1761811023622046
20
-3.3874015748031496
11
5.1761811023622046
21
-3.3125984251968501
0
LINE
8
BLACK
6
CONTINUOUS
10
5.1761811023622046
20
-3.3125984251968501
11
5.176256023622047
21
-3.3122217716535434
0
LINE
8
BLACK
6
CONTINUOUS
10
5.176256023622047
20
-3.3122217716535434
11
5.1767887007874016
21
-3.3116890944881887
0
LINE
8
BLACK
6
CONTINUOUS
10
5.1767887007874016
20
-3.3116890944881887
11
5.1771653543307083
21
-3.3116141732283464
0
LINE
8
BLACK
6
CONTINUOUS
10
5.1771653543307083
20
-3.3116141732283464
11
5.3228346456692917
21
-3.3116141732283464
0
LINE
8
BLACK
6
CONTINUOUS
10
5.3228346456692917
20
-3.3116141732283464
11
5.3232112992125984
21
-3.3116890944881887
0
LINE
8
BLACK
6
CONTINUOUS
10
5.1781496062992121
20
-3.3135826771653543
11
5.1781496062992121
21
-3.3864173228346455
0
LINE
8
BLACK
6
CONTINUOUS
10
5.1781496062992121
20
-3.3864173228346455
11
5.3218503937007871
21
-3.3864173228346455
0
LINE
8
BLACK
6
CONTINUOUS
10
5.3218503937007871
20
-3.3864173228346455
11
5.3218503937007871
21
-3.3135826771653543
0
LINE
8
BLACK
6
CONTINUOUS
10
5.3218503937007871
20
-3.3135826771653543
11
5.1781496062992121
21
-3.3135826771653543
0
CIRCLE
8
BLACK
10
5.5511811023622046
20
-4.4389763779527556
40
0.0196850393700787
0
CIRCLE
8
BLACK
10
5.451181102362205
20
-4.4389763779527556
40
0.0196850393700787
  0
ENDSEC
  0
EOF
