<?xml version="1.0" standalone="no"?>
 <!DOCTYPE svg PUBLIC "-//W3C//DTD SVG 1.1//EN" 
 "http://www.w3.org/Graphics/SVG/1.1/DTD/svg11.dtd"> 
<svg
  xmlns:svg="http://www.w3.org/2000/svg"
  xmlns="http://www.w3.org/2000/svg"
  xmlns:xlink="http://www.w3.org/1999/xlink"
  version="1.1"
  width="297.0022mm" height="210.0072mm" viewBox="0.0000 0.0000 297.0022 210.0072">
<title>SVG Image created as Dino-Blinker-Edge_Cuts.svg date 2024/12/11 00:26:35 </title>
  <desc>Image generated by PCBNEW </desc>
<g style="fill:#000000; fill-opacity:1.0000;stroke:#000000; stroke-opacity:1.0000;
stroke-linecap:round; stroke-linejoin:round;"
 transform="translate(0 0) scale(1 1)">
<path style="fill:none; 
stroke:#000000; stroke-width:0.1000; stroke-opacity:1; 
stroke-linecap:round; stroke-linejoin:round;fill:none"
d="M 134.6200,82.5500
134.7835,82.5581
134.9475,82.5713
135.1115,82.5897
135.2748,82.6132
135.4371,82.6417
135.5976,82.6753
135.7560,82.7138
135.9116,82.7573
136.0639,82.8058
136.4821,82.9606
136.8853,83.1371
137.2731,83.3350
137.6453,83.5540
138.0017,83.7939
138.3419,84.0543
138.6656,84.3350
138.9726,84.6356
139.2626,84.9559
139.5353,85.2955
139.7904,85.6542
140.0277,86.0316
140.2468,86.4275
140.4474,86.8416
140.6294,87.2736
140.7923,87.7232
140.8813,88.0132
140.9693,88.3441
141.0530,88.6990
141.1291,89.0610
141.1942,89.4133
141.2450,89.7391
141.2782,90.0214
141.2872,90.1411
141.2905,90.2436
141.2910,90.3218
141.2928,90.3900
141.2947,90.4205
141.2974,90.4486
141.3011,90.4745
141.3061,90.4981
141.3125,90.5195
141.3204,90.5388
141.3301,90.5561
141.3417,90.5713
141.3553,90.5846
141.3713,90.5959
141.3897,90.6054
141.4108,90.6131
141.4346,90.6191
141.4614,90.6233
141.4914,90.6259
141.5247,90.6269
141.5616,90.6264
141.6021,90.6244
141.6465,90.6210
141.6949,90.6162
141.8045,90.6027
141.9325,90.5843
142.2488,90.5348
142.4975,90.5009
142.7877,90.4711
143.4691,90.4240
144.2444,90.3938
145.0654,90.3807
145.8837,90.3850
146.6508,90.4070
147.3183,90.4468
147.5996,90.4736
147.8379,90.5049
148.5758,90.6331
149.2980,90.7843
150.0046,90.9585
150.6958,91.1559
151.3715,91.3764
152.0320,91.6202
152.6773,91.8872
153.3075,92.1775
153.9228,92.4912
154.5232,92.8284
155.1089,93.1890
155.6799,93.5731
156.2363,93.9808
156.7783,94.4121
157.3060,94.8671
157.8195,95.3458
158.0664,95.5881
158.3017,95.8257
158.5264,96.0598
158.7416,96.2918
158.9482,96.5230
159.1475,96.7550
159.3404,96.9890
159.5280,97.2264
159.7114,97.4687
159.8917,97.7171
160.0699,97.9731
160.2471,98.2380
160.4243,98.5133
160.6027,98.8002
160.9670,99.4148
161.5906,100.4466
162.2518,101.4448
162.9501,102.4091
163.6852,103.3391
164.4566,104.2344
165.2638,105.0946
166.1064,105.9194
166.9840,106.7083
167.8962,107.4611
168.8424,108.1772
169.8223,108.8564
170.8354,109.4982
171.8812,110.1023
172.9594,110.6682
174.0695,111.1957
175.2110,111.6844
175.4145,111.7680
175.6021,111.8474
175.7698,111.9206
175.9138,111.9858
176.0300,112.0413
176.1145,112.0852
176.1633,112.1156
176.1731,112.1251
176.1742,112.1284
176.1726,112.1307
176.0261,112.1783
175.6995,112.2674
174.7165,112.5177
173.6453,112.7771
173.2082,112.8774
172.9072,112.9408
172.6659,112.9828
172.4184,113.0192
172.1659,113.0500
171.9094,113.0752
171.6500,113.0949
171.3886,113.1090
170.8646,113.1204
170.3457,113.1095
170.0909,113.0957
169.8406,113.0762
169.5958,113.0512
169.3576,113.0207
169.1271,112.9845
168.9054,112.9427
168.4703,112.8413
168.0240,112.7136
167.5671,112.5597
167.1002,112.3803
166.6239,112.1755
166.1389,111.9458
165.6458,111.6915
165.1452,111.4131
164.6378,111.1108
164.1242,110.7850
163.6051,110.4361
163.0810,110.0645
162.5526,109.6705
162.0206,109.2545
161.4855,108.8169
160.9481,108.3580
160.4653,107.9371
160.5139,108.4550
160.5416,108.8912
160.5595,109.4671
160.5678,110.1300
160.5671,110.8274
160.5577,111.5065
160.5399,112.1148
160.5143,112.5997
160.4811,112.9085
160.4296,113.1584
160.3622,113.4347
160.2823,113.7258
160.1938,114.0198
160.1003,114.3049
160.0056,114.5696
159.9132,114.8019
159.8691,114.9023
159.8270,114.9902
159.7862,115.0667
159.7413,115.1428
159.6925,115.2185
159.6399,115.2937
159.5836,115.3682
159.5238,115.4420
159.3944,115.5870
159.2528,115.7277
159.1002,115.8634
158.9380,115.9933
158.7673,116.1164
158.5893,116.2319
158.4053,116.3391
158.2165,116.4370
158.0241,116.5249
157.8293,116.6018
157.6333,116.6671
157.4375,116.7197
157.3399,116.7410
157.2429,116.7589
157.0996,116.7812
157.0352,116.7897
156.9744,116.7965
156.9164,116.8014
156.8606,116.8046
156.8059,116.8059
156.7516,116.8053
156.6970,116.8029
156.6411,116.7985
156.5832,116.7922
156.5224,116.7840
156.4579,116.7737
156.3890,116.7615
156.2343,116.7310
156.0638,116.6927
155.8976,116.6493
155.7362,116.6012
155.5801,116.5484
155.4296,116.4914
155.2853,116.4302
155.1477,116.3653
155.0171,116.2969
154.8941,116.2252
154.7790,116.1504
154.6725,116.0728
154.5749,115.9928
154.4866,115.9104
154.4083,115.8261
154.3402,115.7400
154.2829,115.6524
154.2478,115.5910
154.2174,115.5339
154.1916,115.4797
154.1805,115.4533
154.1705,115.4271
154.1617,115.4010
154.1540,115.3747
154.1476,115.3481
154.1422,115.3212
154.1381,115.2935
154.1351,115.2651
154.1333,115.2358
154.1326,115.2053
154.1331,115.1736
154.1348,115.1403
154.1376,115.1055
154.1416,115.0689
154.1531,114.9896
154.1692,114.9011
154.1900,114.8020
154.2153,114.6911
154.2453,114.5670
154.2800,114.4283
154.3628,114.0558
154.4361,113.6428
154.4974,113.2151
154.5442,112.7985
154.5740,112.4187
154.5844,112.1016
154.5815,111.9746
154.5729,111.8728
154.5581,111.7997
154.5483,111.7748
154.5369,111.7582
154.5344,111.7565
154.5316,111.7563
154.5287,111.7577
154.5256,111.7604
154.5223,111.7646
154.5189,111.7702
154.5117,111.7854
154.5040,111.8057
154.4958,111.8309
154.4873,111.8607
154.4785,111.8948
154.4695,111.9330
154.4602,111.9749
154.4509,112.0204
154.4416,112.0690
154.4323,112.1207
154.4231,112.1750
154.4141,112.2317
154.4053,112.2906
154.3838,112.4301
154.3602,112.5658
154.3345,112.6975
154.3067,112.8251
154.2769,112.9485
154.2452,113.0674
154.2116,113.1819
154.1762,113.2917
154.1389,113.3967
154.0999,113.4968
154.0591,113.5918
154.0167,113.6817
153.9726,113.7662
153.9270,113.8452
153.8798,113.9186
153.8312,113.9863
153.7381,114.1010
153.6388,114.2098
153.5337,114.3124
153.4235,114.4086
153.3087,114.4979
153.1901,114.5801
153.0680,114.6549
152.9433,114.7220
152.8163,114.7811
152.6878,114.8320
152.5584,114.8742
152.4285,114.9076
152.2989,114.9317
152.1701,114.9464
152.0427,114.9513
151.9797,114.9500
151.9173,114.9462
151.7885,114.9303
151.6575,114.9041
151.5254,114.8683
151.3930,114.8235
151.2615,114.7704
151.1316,114.7094
151.0044,114.6412
150.8809,114.5665
150.7620,114.4859
150.6486,114.4000
150.5417,114.3093
150.4424,114.2145
150.3514,114.1163
150.2699,114.0152
150.1988,113.9119
150.1389,113.8069
150.1158,113.7608
150.0956,113.7179
150.0783,113.6766
150.0707,113.6561
150.0637,113.6353
150.0575,113.6141
150.0519,113.5923
150.0470,113.5697
150.0427,113.5461
150.0391,113.5212
150.0360,113.4950
150.0337,113.4670
150.0319,113.4373
150.0307,113.4055
150.0301,113.3714
150.0306,113.2958
150.0334,113.2088
150.0383,113.1088
150.0453,112.9940
150.0543,112.8630
150.0780,112.5456
150.1074,112.0648
150.1314,111.4896
150.1476,110.8924
150.1534,110.3454
150.1530,109.1382
149.6735,109.1397
149.3124,109.1478
148.6839,109.1690
146.9780,109.2374
145.3282,109.3058
144.4733,109.3352
144.3845,109.3364
144.3481,109.3378
144.3167,109.3399
144.2899,109.3429
144.2675,109.3471
144.2579,109.3496
144.2493,109.3525
144.2416,109.3557
144.2349,109.3593
144.2290,109.3633
144.2240,109.3677
144.2199,109.3725
144.2165,109.3778
144.2138,109.3836
144.2119,109.3900
144.2106,109.3968
144.2100,109.4042
144.2105,109.4207
144.2132,109.4396
144.2178,109.4611
144.2239,109.4855
144.2335,109.5387
144.2456,109.6334
144.2598,109.7642
144.2755,109.9260
144.3097,110.3211
144.3441,110.7762
144.3681,111.1827
144.3812,111.5714
144.3831,111.9431
144.3738,112.2986
144.3531,112.6387
144.3207,112.9643
144.2765,113.2761
144.2203,113.5750
144.1520,113.8619
144.0714,114.1375
143.9783,114.4026
143.8725,114.6581
143.7539,114.9047
143.6223,115.1434
143.4774,115.3749
143.3193,115.6000
143.2541,115.6849
143.1857,115.7687
143.1142,115.8511
143.0397,115.9320
142.9625,116.0114
142.8828,116.0889
142.8007,116.1644
142.7165,116.2379
142.6303,116.3090
142.5423,116.3777
142.4527,116.4438
142.3618,116.5071
142.2696,116.5675
142.1765,116.6247
142.0825,116.6787
141.9879,116.7293
141.9034,116.7681
141.8089,116.8030
141.7056,116.8339
141.5947,116.8608
141.4775,116.8835
141.3550,116.9020
141.2284,116.9163
141.0989,116.9262
140.9678,116.9317
140.8360,116.9327
140.7049,116.9292
140.5756,116.9210
140.4493,116.9082
140.3271,116.8906
140.2102,116.8682
140.0998,116.8409
140.0997,116.8409
140.0019,116.8115
139.9029,116.7778
139.8032,116.7401
139.7036,116.6987
139.6046,116.6541
139.5070,116.6067
139.4114,116.5567
139.3184,116.5046
139.2286,116.4508
139.1429,116.3956
139.0617,116.3395
138.9857,116.2827
138.9157,116.2257
138.8521,116.1689
138.7958,116.1126
138.7473,116.0571
138.7152,116.0167
138.6865,115.9792
138.6613,115.9437
138.6391,115.9098
138.6199,115.8765
138.6113,115.8600
138.6034,115.8434
138.5962,115.8266
138.5895,115.8096
138.5834,115.7923
138.5779,115.7745
138.5729,115.7562
138.5684,115.7374
138.5608,115.6975
138.5550,115.6543
138.5507,115.6070
138.5477,115.5548
138.5458,115.4972
138.5448,115.4335
138.5446,115.3628
138.5442,115.2274
138.5423,115.1258
138.5406,115.0869
138.5382,115.0555
138.5351,115.0313
138.5312,115.0140
138.5288,115.0079
138.5263,115.0034
138.5234,115.0004
138.5203,114.9990
138.5169,114.9991
138.5132,115.0007
138.5049,115.0080
138.4953,115.0207
138.4842,115.0384
138.4573,115.0879
138.4264,115.1448
138.3938,115.1995
138.3596,115.2520
138.3238,115.3022
138.2863,115.3501
138.2471,115.3958
138.2062,115.4393
138.1637,115.4806
138.1195,115.5196
138.0735,115.5564
138.0258,115.5910
137.9765,115.6234
137.9253,115.6536
137.8725,115.6815
137.8178,115.7073
137.7614,115.7309
137.7032,115.7523
137.6433,115.7715
137.5815,115.7885
137.5179,115.8033
137.4525,115.8159
137.3853,115.8264
137.3163,115.8347
137.2454,115.8409
137.1726,115.8449
137.0980,115.8467
137.0215,115.8464
136.9431,115.8439
136.8628,115.8393
136.7806,115.8325
136.6964,115.8236
136.6104,115.8125
136.4964,115.7949
136.3865,115.7742
136.2803,115.7502
136.1775,115.7229
136.0778,115.6920
135.9809,115.6573
135.8863,115.6188
135.7938,115.5761
135.7031,115.5293
135.6137,115.4780
135.5253,115.4222
135.4377,115.3617
135.3504,115.2963
135.2632,115.2258
135.1756,115.1501
135.0874,115.0690
134.9586,114.9421
134.8426,114.8167
134.7391,114.6926
134.6482,114.5696
134.5697,114.4473
134.5351,114.3864
134.5036,114.3255
134.4752,114.2647
134.4498,114.2040
134.4275,114.1432
134.4083,114.0823
134.3920,114.0214
134.3788,113.9603
134.3686,113.8991
134.3614,113.8378
134.3572,113.7762
134.3560,113.7143
134.3578,113.6522
134.3625,113.5897
134.3702,113.5269
134.3808,113.4637
134.3944,113.4000
134.4109,113.3360
134.4303,113.2714
134.4526,113.2063
134.5059,113.0744
134.5546,112.9594
134.6048,112.8310
134.7086,112.5369
134.8156,112.1984
134.9240,111.8219
135.0321,111.4139
135.1380,110.9807
135.2401,110.5286
135.3366,110.0642
135.5534,108.9728
134.8788,108.2909
134.2043,107.6090
133.6139,108.1708
133.2834,108.4717
132.9436,108.7538
132.5940,109.0172
132.2340,109.2623
131.8631,109.4893
131.4806,109.6984
131.0860,109.8898
130.6787,110.0637
130.2580,110.2205
129.8235,110.3603
129.3746,110.4833
128.9106,110.5899
128.4309,110.6801
127.9350,110.7544
127.4224,110.8128
126.8923,110.8557
126.4508,110.8786
125.9911,110.8896
125.4930,110.8877
124.9360,110.8724
124.2996,110.8427
123.5635,110.7980
122.7072,110.7374
121.7103,110.6603
119.5440,110.4877
119.3961,110.4753
119.3351,110.4693
119.2820,110.4631
119.2363,110.4565
119.1974,110.4494
119.1648,110.4415
119.1379,110.4326
119.1163,110.4225
119.0993,110.4109
119.0923,110.4045
119.0864,110.3977
119.0770,110.3826
119.0707,110.3655
119.0669,110.3461
119.0650,110.3241
119.0645,110.2995
119.0648,110.2874
119.0658,110.2757
119.0676,110.2643
119.0703,110.2531
119.0740,110.2422
119.0788,110.2314
119.0847,110.2207
119.0918,110.2101
119.1003,110.1994
119.1102,110.1887
119.1217,110.1779
119.1348,110.1669
119.1495,110.1557
119.1661,110.1443
119.1845,110.1325
119.2049,110.1204
119.2274,110.1078
119.2521,110.0947
119.2790,110.0812
119.3082,110.0670
119.3399,110.0522
119.3741,110.0367
119.4504,110.0035
119.5379,109.9669
119.6373,109.9265
119.7493,109.8819
119.8748,109.8327
120.2422,109.6851
120.5817,109.5405
120.8902,109.4004
121.1647,109.2664
121.4021,109.1401
121.5994,109.0229
121.6821,108.9682
121.7536,108.9164
121.8135,108.8676
121.8616,108.8221
121.8797,108.8025
121.8983,108.7810
121.9173,108.7577
121.9366,108.7329
121.9560,108.7068
121.9754,108.6796
121.9946,108.6515
122.0135,108.6229
122.0319,108.5938
122.0498,108.5645
122.0669,108.5352
122.0831,108.5061
122.0984,108.4775
122.1125,108.4496
122.1252,108.4225
122.1366,108.3966
122.2392,108.1510
121.8259,108.1800
121.5924,108.1939
121.2620,108.2102
120.8788,108.2269
120.4866,108.2420
120.1131,108.2599
119.7574,108.2864
119.4185,108.3222
119.0951,108.3674
118.7861,108.4227
118.4904,108.4883
118.2067,108.5646
117.9339,108.6521
117.6709,108.7512
117.4165,108.8623
117.1695,108.9857
116.9287,109.1219
116.6931,109.2714
116.4614,109.4344
116.2325,109.6114
116.0052,109.8028
115.9732,109.8303
115.9421,109.8562
115.9121,109.8803
115.8833,109.9026
115.8558,109.9228
115.8299,109.9410
115.8058,109.9571
115.7834,109.9708
115.7632,109.9823
115.7451,109.9913
115.7293,109.9977
115.7161,110.0015
115.7055,110.0026
115.7013,110.0021
115.6978,110.0008
115.6950,109.9988
115.6930,109.9961
115.6918,109.9927
115.6914,109.9884
115.6753,109.8081
115.6312,109.3832
115.4858,108.0539
115.2798,106.2088
114.6140,105.3750
114.3489,105.0376
114.1078,104.7188
113.8896,104.4164
113.6935,104.1280
113.5184,103.8517
113.3635,103.5852
113.2277,103.3263
113.1103,103.0729
113.0101,102.8228
112.9263,102.5737
112.8580,102.3237
112.8041,102.0703
112.7638,101.8116
112.7362,101.5453
112.7202,101.2692
112.7149,100.9812
112.7145,100.2656
112.9167,100.4096
112.9711,100.4501
113.0484,100.5100
113.2576,100.6769
113.5154,100.8870
113.7931,101.1172
114.0155,101.3006
114.2262,101.4692
114.4265,101.6236
114.6174,101.7645
114.8002,101.8924
114.9760,102.0080
115.1459,102.1119
115.3112,102.2046
115.4729,102.2869
115.6322,102.3594
115.7902,102.4225
115.9482,102.4771
116.1072,102.5236
116.2684,102.5628
116.4330,102.5952
116.6021,102.6214
116.9509,102.6687
119.3141,101.3625
122.2422,99.7390
122.8072,99.4219
122.7624,98.9015
122.7312,98.6164
122.6860,98.3315
122.6262,98.0454
122.5512,97.7565
122.4601,97.4634
122.3523,97.1647
122.2272,96.8589
122.0839,96.5445
121.9219,96.2200
121.7403,95.8840
121.5385,95.5351
121.3159,95.1717
121.0716,94.7924
120.8050,94.3957
120.5154,93.9802
120.2022,93.5443
119.6035,92.7133
119.1401,92.0509
118.9698,91.7986
118.8463,91.6072
118.7737,91.4831
118.7579,91.4482
118.7564,91.4325
118.7586,91.4313
118.7618,91.4306
118.7662,91.4306
118.7717,91.4312
118.7858,91.4339
118.8038,91.4389
118.8256,91.4459
118.8508,91.4549
118.8793,91.4657
118.9107,91.4783
118.9815,91.5084
119.0612,91.5443
119.1479,91.5852
119.2396,91.6303
119.4360,91.7261
119.6603,91.8294
119.9221,91.9445
120.2314,92.0753
120.5981,92.2259
121.0318,92.4005
122.1402,92.8381
122.8680,93.1339
123.1938,93.2755
123.4960,93.4139
123.7756,93.5499
124.0340,93.6843
124.2723,93.8178
124.4918,93.9512
124.6936,94.0854
124.8790,94.2209
125.0493,94.3588
125.2056,94.4996
125.3491,94.6442
125.4811,94.7934
125.6029,94.9479
125.7155,95.1085
125.7344,95.1364
125.7532,95.1630
125.7718,95.1882
125.7901,95.2118
125.8079,95.2338
125.8252,95.2540
125.8419,95.2723
125.8577,95.2886
125.8727,95.3027
125.8867,95.3147
125.8995,95.3243
125.9111,95.3314
125.9213,95.3359
125.9258,95.3372
125.9300,95.3378
125.9338,95.3377
125.9372,95.3368
125.9401,95.3352
125.9426,95.3329
125.9477,95.3249
125.9538,95.3116
125.9609,95.2935
125.9688,95.2709
125.9870,95.2131
126.0077,95.1406
126.0302,95.0558
126.0540,94.9611
126.0783,94.8588
126.1024,94.7515
126.1898,94.3716
126.2948,93.9472
126.4141,93.4900
126.5446,93.0119
126.6828,92.5245
126.8256,92.0399
126.9695,91.5697
127.1114,91.1257
127.4227,90.2207
127.7480,89.3629
128.0870,88.5528
128.4393,87.7911
128.8044,87.0783
129.1818,86.4151
129.5710,85.8021
129.9717,85.2399
130.3834,84.7290
130.8055,84.2700
131.2378,83.8636
131.6796,83.5104
132.1307,83.2109
132.5904,82.9658
133.0584,82.7756
133.5342,82.6409
133.6792,82.6119
133.8285,82.5882
133.9816,82.5700
134.1377,82.5571
134.2966,82.5495
134.4575,82.5471
Z" /> 
</g>
<g style="fill:#000000; fill-opacity:1.0000; stroke:none;">
<circle cx="141.0000" cy="112.7500" r="0.5000" /> 
</g>
<g style="fill:#000000; fill-opacity:1.0000; stroke:none;">
<circle cx="138.4600" cy="112.7500" r="0.5000" /> 
</g> 
</svg>
