<?xml version="1.0" standalone="no"?>
 <!DOCTYPE svg PUBLIC "-//W3C//DTD SVG 1.1//EN" 
 "http://www.w3.org/Graphics/SVG/1.1/DTD/svg11.dtd"> 
<svg
  xmlns:svg="http://www.w3.org/2000/svg"
  xmlns="http://www.w3.org/2000/svg"
  xmlns:xlink="http://www.w3.org/1999/xlink"
  version="1.1"
  width="297.0022mm" height="210.0072mm" viewBox="0.0000 0.0000 297.0022 210.0072">
<title>SVG Image created as Dino-Blinker-B_Mask.svg date 2024/12/11 00:26:35 </title>
  <desc>Image generated by PCBNEW </desc>
<g style="fill:#000000; fill-opacity:1.0000;stroke:#000000; stroke-opacity:1.0000;
stroke-linecap:round; stroke-linejoin:round;"
 transform="translate(0 0) scale(1 1)">
<path style="fill:#000000; fill-opacity:1.0000; stroke:none;fill-rule:evenodd;"
d="M 151.0433,107.3500
150.6200,107.3500
150.1967,107.3500
149.7733,107.3500
149.7733,106.9267
150.1967,106.9267
150.6200,106.9267
151.0433,106.9267
Z" /> 
<path style="fill:#000000; fill-opacity:1.0000; stroke:none;fill-rule:evenodd;"
d="M 153.5833,100.1533
154.0067,100.1533
154.0067,100.5767
153.5833,100.5767
153.1600,100.5767
153.1600,100.1533
153.1600,99.7300
153.5833,99.7300
Z" /> 
<path style="fill:#000000; fill-opacity:1.0000; stroke:none;fill-rule:evenodd;"
d="M 145.5400,104.8100
145.5400,105.2333
145.5400,105.6567
145.5400,106.0800
145.5400,106.5033
145.5400,106.9267
145.5400,107.3500
145.1167,107.3500
144.6933,107.3500
144.2700,107.3500
143.8467,107.3500
143.4233,107.3500
143.0000,107.3500
142.5767,107.3500
142.5767,106.9267
142.5767,106.5033
142.5767,106.0800
142.5767,105.6567
142.5767,105.2333
143.0000,105.2333
143.0000,105.6567
143.0000,106.0800
143.0000,106.5033
143.0000,106.9267
143.4233,106.9267
143.8467,106.9267
144.2700,106.9267
144.6933,106.9267
145.1167,106.9267
145.1167,106.5033
145.1167,106.0800
145.1167,105.6567
145.1167,105.2333
145.1167,104.8100
144.6933,104.8100
144.2700,104.8100
143.8467,104.8100
143.4233,104.8100
143.0000,104.8100
143.0000,105.2333
142.5767,105.2333
142.5767,104.8100
142.5767,104.3867
143.0000,104.3867
143.4233,104.3867
143.8467,104.3867
144.2700,104.3867
144.6933,104.3867
145.1167,104.3867
145.5400,104.3867
Z" /> 
<path style="fill:#000000; fill-opacity:1.0000; stroke:none;fill-rule:evenodd;"
d="M 154.8533,105.6567
154.4300,105.6567
154.4300,105.2333
154.8533,105.2333
Z" /> 
<path style="fill:#000000; fill-opacity:1.0000; stroke:none;fill-rule:evenodd;"
d="M 151.4667,95.4967
151.0433,95.4967
150.6200,95.4967
150.6200,95.0733
151.0433,95.0733
151.4667,95.0733
Z" /> 
<path style="fill:#000000; fill-opacity:1.0000; stroke:none;fill-rule:evenodd;"
d="M 146.3867,105.6567
146.3867,106.0800
146.8100,106.0800
146.8100,105.6567
147.2333,105.6567
147.2333,106.0800
147.2333,106.5033
147.2333,106.9267
146.8100,106.9267
146.8100,107.3500
146.3867,107.3500
145.9633,107.3500
145.9633,106.9267
146.3867,106.9267
146.8100,106.9267
146.8100,106.5033
146.3867,106.5033
146.3867,106.9267
145.9633,106.9267
145.9633,106.5033
145.9633,106.0800
145.9633,105.6567
145.9633,105.2333
146.3867,105.2333
Z" /> 
<path style="fill:#000000; fill-opacity:1.0000; stroke:none;fill-rule:evenodd;"
d="M 154.4300,98.8833
154.0067,98.8833
154.0067,98.4600
154.4300,98.4600
Z" /> 
<path style="fill:#000000; fill-opacity:1.0000; stroke:none;fill-rule:evenodd;"
d="M 144.2700,100.5767
143.8467,100.5767
143.8467,100.1533
144.2700,100.1533
Z" /> 
<path style="fill:#000000; fill-opacity:1.0000; stroke:none;fill-rule:evenodd;"
d="M 143.4233,99.7300
143.0000,99.7300
143.0000,100.1533
142.5767,100.1533
142.5767,99.7300
142.5767,99.3067
143.0000,99.3067
143.4233,99.3067
Z" /> 
<path style="fill:#000000; fill-opacity:1.0000; stroke:none;fill-rule:evenodd;"
d="M 145.5400,100.5767
145.9633,100.5767
146.3867,100.5767
146.3867,100.1533
146.8100,100.1533
147.2333,100.1533
147.2333,100.5767
146.8100,100.5767
146.8100,101.0000
146.3867,101.0000
146.3867,101.4233
146.8100,101.4233
146.8100,101.0000
147.2333,101.0000
147.6567,101.0000
148.0800,101.0000
148.0800,101.4233
147.6567,101.4233
147.6567,101.8467
147.6567,102.2700
147.2333,102.2700
147.2333,101.8467
146.8100,101.8467
146.3867,101.8467
146.3867,102.2700
145.9633,102.2700
145.5400,102.2700
145.1167,102.2700
145.1167,102.6933
145.5400,102.6933
145.5400,103.1167
145.1167,103.1167
144.6933,103.1167
144.2700,103.1167
144.2700,102.6933
144.6933,102.6933
144.6933,102.2700
144.6933,101.8467
144.6933,101.4233
145.1167,101.4233
145.1167,101.8467
145.5400,101.8467
145.9633,101.8467
145.9633,101.4233
145.9633,101.0000
145.5400,101.0000
145.5400,101.4233
145.1167,101.4233
144.6933,101.4233
144.2700,101.4233
144.2700,101.8467
143.8467,101.8467
143.4233,101.8467
143.0000,101.8467
143.0000,101.4233
143.0000,101.0000
143.4233,101.0000
143.4233,101.4233
143.8467,101.4233
144.2700,101.4233
144.2700,101.0000
144.6933,101.0000
145.1167,101.0000
145.5400,101.0000
145.5400,100.5767
145.1167,100.5767
145.1167,101.0000
144.6933,101.0000
144.6933,100.5767
144.6933,100.1533
145.1167,100.1533
145.5400,100.1533
Z" /> 
<path style="fill:#000000; fill-opacity:1.0000; stroke:none;fill-rule:evenodd;"
d="M 147.2333,102.6933
146.8100,102.6933
146.8100,103.1167
146.8100,103.5400
146.3867,103.5400
145.9633,103.5400
145.5400,103.5400
145.5400,103.1167
145.9633,103.1167
145.9633,102.6933
146.3867,102.6933
146.3867,102.2700
146.8100,102.2700
147.2333,102.2700
Z" /> 
<path style="fill:#000000; fill-opacity:1.0000; stroke:none;fill-rule:evenodd;"
d="M 148.0800,96.3433
148.0800,96.7667
147.6567,96.7667
147.6567,96.3433
147.6567,95.9200
148.0800,95.9200
Z" /> 
<path style="fill:#000000; fill-opacity:1.0000; stroke:none;fill-rule:evenodd;"
d="M 154.0067,96.3433
154.0067,96.7667
154.0067,97.1900
153.5833,97.1900
153.1600,97.1900
152.7367,97.1900
152.7367,96.7667
152.7367,96.3433
152.7367,95.9200
153.1600,95.9200
153.5833,95.9200
154.0067,95.9200
Z" /> 
<path style="fill:#000000; fill-opacity:1.0000; stroke:none;fill-rule:evenodd;"
d="M 150.1967,98.8833
149.7733,98.8833
149.7733,98.4600
150.1967,98.4600
Z" /> 
<path style="fill:#000000; fill-opacity:1.0000; stroke:none;fill-rule:evenodd;"
d="M 151.8900,98.8833
151.4667,98.8833
151.4667,98.4600
151.8900,98.4600
Z" /> 
<path style="fill:#000000; fill-opacity:1.0000; stroke:none;fill-rule:evenodd;"
d="M 154.4300,100.1533
154.0067,100.1533
154.0067,99.7300
154.4300,99.7300
Z" /> 
<path style="fill:#000000; fill-opacity:1.0000; stroke:none;fill-rule:evenodd;"
d="M 154.8533,101.0000
154.4300,101.0000
154.4300,100.5767
154.8533,100.5767
Z" /> 
<path style="fill:#000000; fill-opacity:1.0000; stroke:none;fill-rule:evenodd;"
d="M 147.2333,95.4967
147.2333,95.9200
146.8100,95.9200
146.8100,95.4967
146.8100,95.0733
147.2333,95.0733
Z" /> 
<path style="fill:#000000; fill-opacity:1.0000; stroke:none;fill-rule:evenodd;"
d="M 154.4300,101.8467
154.0067,101.8467
154.0067,101.4233
154.4300,101.4233
Z" /> 
<path style="fill:#000000; fill-opacity:1.0000; stroke:none;fill-rule:evenodd;"
d="M 148.0800,104.8100
147.6567,104.8100
147.6567,105.2333
147.6567,105.6567
147.2333,105.6567
147.2333,105.2333
147.2333,104.8100
147.2333,104.3867
147.6567,104.3867
148.0800,104.3867
Z" /> 
<path style="fill:#000000; fill-opacity:1.0000; stroke:none;fill-rule:evenodd;"
d="M 150.6200,95.9200
151.0433,95.9200
151.0433,96.3433
150.6200,96.3433
150.1967,96.3433
150.1967,95.9200
149.7733,95.9200
149.7733,95.4967
150.1967,95.4967
150.6200,95.4967
Z" /> 
<path style="fill:#000000; fill-opacity:1.0000; stroke:none;fill-rule:evenodd;"
d="M 154.8533,99.3067
154.4300,99.3067
154.4300,98.8833
154.8533,98.8833
Z" /> 
<path style="fill:#000000; fill-opacity:1.0000; stroke:none;fill-rule:evenodd;"
d="M 149.3500,96.3433
149.3500,96.7667
149.3500,97.1900
149.7733,97.1900
149.7733,96.7667
149.7733,96.3433
150.1967,96.3433
150.1967,96.7667
151.0433,96.7667
151.0433,96.3433
151.4667,96.3433
151.4667,96.7667
151.4667,97.1900
151.4667,97.6133
151.4667,98.0367
151.4667,98.4600
151.0433,98.4600
151.0433,98.0367
151.0433,97.6133
151.0433,97.1900
150.6200,97.1900
150.6200,97.6133
150.6200,98.0367
150.1967,98.0367
150.1967,97.6133
150.1967,97.1900
149.7733,97.1900
149.7733,97.6133
149.7733,98.0367
149.3500,98.0367
149.3500,97.6133
148.9267,97.6133
148.9267,97.1900
148.5033,97.1900
148.5033,97.6133
148.0800,97.6133
148.0800,98.0367
147.6567,98.0367
147.6567,97.6133
147.2333,97.6133
147.2333,97.1900
147.6567,97.1900
148.0800,97.1900
148.0800,96.7667
148.5033,96.7667
148.5033,96.3433
148.9267,96.3433
148.9267,95.9200
149.3500,95.9200
Z" /> 
<path style="fill:#000000; fill-opacity:1.0000; stroke:none;fill-rule:evenodd;"
d="M 151.4667,99.3067
151.4667,99.7300
151.4667,100.1533
151.0433,100.1533
150.6200,100.1533
150.1967,100.1533
150.1967,99.7300
150.6200,99.7300
151.0433,99.7300
151.0433,99.3067
150.6200,99.3067
150.6200,98.8833
151.0433,98.8833
151.4667,98.8833
Z" /> 
<path style="fill:#000000; fill-opacity:1.0000; stroke:none;fill-rule:evenodd;"
d="M 145.5400,95.4967
145.5400,95.9200
145.5400,96.3433
145.5400,96.7667
145.5400,97.1900
145.5400,97.6133
145.5400,98.0367
145.1167,98.0367
144.6933,98.0367
144.2700,98.0367
143.8467,98.0367
143.4233,98.0367
143.0000,98.0367
142.5767,98.0367
142.5767,97.6133
142.5767,97.1900
142.5767,96.7667
142.5767,96.3433
142.5767,95.9200
143.0000,95.9200
143.0000,96.3433
143.0000,96.7667
143.0000,97.1900
143.0000,97.6133
143.4233,97.6133
143.8467,97.6133
144.2700,97.6133
144.6933,97.6133
145.1167,97.6133
145.1167,97.1900
145.1167,96.7667
145.1167,96.3433
145.1167,95.9200
145.1167,95.4967
144.6933,95.4967
144.2700,95.4967
143.8467,95.4967
143.4233,95.4967
143.0000,95.4967
143.0000,95.9200
142.5767,95.9200
142.5767,95.4967
142.5767,95.0733
143.0000,95.0733
143.4233,95.0733
143.8467,95.0733
144.2700,95.0733
144.6933,95.0733
145.1167,95.0733
145.5400,95.0733
Z" /> 
<path style="fill:#000000; fill-opacity:1.0000; stroke:none;fill-rule:evenodd;"
d="M 143.8467,100.1533
143.4233,100.1533
143.4233,99.7300
143.8467,99.7300
Z" /> 
<path style="fill:#000000; fill-opacity:1.0000; stroke:none;fill-rule:evenodd;"
d="M 153.5833,98.8833
153.1600,98.8833
153.1600,98.4600
153.5833,98.4600
Z" /> 
<path style="fill:#000000; fill-opacity:1.0000; stroke:none;fill-rule:evenodd;"
d="M 147.2333,98.0367
147.6567,98.0367
147.6567,98.4600
147.6567,98.8833
147.2333,98.8833
147.2333,98.4600
146.8100,98.4600
146.8100,98.8833
146.3867,98.8833
146.3867,99.3067
146.3867,99.7300
146.3867,100.1533
145.9633,100.1533
145.5400,100.1533
145.5400,99.7300
145.1167,99.7300
145.1167,99.3067
145.5400,99.3067
145.9633,99.3067
145.9633,98.8833
145.5400,98.8833
145.1167,98.8833
145.1167,98.4600
145.5400,98.4600
145.9633,98.4600
146.3867,98.4600
146.3867,98.0367
146.8100,98.0367
146.8100,97.6133
147.2333,97.6133
Z" /> 
<path style="fill:#000000; fill-opacity:1.0000; stroke:none;fill-rule:evenodd;"
d="M 154.8533,102.6933
154.4300,102.6933
154.4300,102.2700
154.8533,102.2700
Z" /> 
<path style="fill:#000000; fill-opacity:1.0000; stroke:none;fill-rule:evenodd;"
d="M 147.2333,99.3067
147.2333,99.7300
146.8100,99.7300
146.8100,99.3067
146.8100,98.8833
147.2333,98.8833
Z" /> 
<path style="fill:#000000; fill-opacity:1.0000; stroke:none;fill-rule:evenodd;"
d="M 154.8533,95.4967
154.8533,95.9200
154.8533,96.3433
154.8533,96.7667
154.8533,97.1900
154.8533,97.6133
154.8533,98.0367
154.4300,98.0367
154.0067,98.0367
153.5833,98.0367
153.1600,98.0367
152.7367,98.0367
152.3133,98.0367
151.8900,98.0367
151.8900,97.6133
151.8900,97.1900
151.8900,96.7667
151.8900,96.3433
151.8900,95.9200
152.3133,95.9200
152.3133,96.3433
152.3133,96.7667
152.3133,97.1900
152.3133,97.6133
152.7367,97.6133
153.1600,97.6133
153.5833,97.6133
154.0067,97.6133
154.4300,97.6133
154.4300,97.1900
154.4300,96.7667
154.4300,96.3433
154.4300,95.9200
154.4300,95.4967
154.0067,95.4967
153.5833,95.4967
153.1600,95.4967
152.7367,95.4967
152.3133,95.4967
152.3133,95.9200
151.8900,95.9200
151.8900,95.4967
151.8900,95.0733
152.3133,95.0733
152.7367,95.0733
153.1600,95.0733
153.5833,95.0733
154.0067,95.0733
154.4300,95.0733
154.8533,95.0733
Z" /> 
<path style="fill:#000000; fill-opacity:1.0000; stroke:none;fill-rule:evenodd;"
d="M 144.6933,96.3433
144.6933,96.7667
144.6933,97.1900
144.2700,97.1900
143.8467,97.1900
143.4233,97.1900
143.4233,96.7667
143.4233,96.3433
143.4233,95.9200
143.8467,95.9200
144.2700,95.9200
144.6933,95.9200
Z" /> 
<path style="fill:#000000; fill-opacity:1.0000; stroke:none;fill-rule:evenodd;"
d="M 148.9267,105.2333
148.5033,105.2333
148.5033,104.8100
148.9267,104.8100
Z" /> 
<path style="fill:#000000; fill-opacity:1.0000; stroke:none;fill-rule:evenodd;"
d="M 143.0000,101.0000
142.5767,101.0000
142.5767,100.5767
143.0000,100.5767
Z" /> 
<path style="fill:#000000; fill-opacity:1.0000; stroke:none;fill-rule:evenodd;"
d="M 146.3867,95.9200
145.9633,95.9200
145.9633,95.4967
146.3867,95.4967
Z" /> 
<path style="fill:#000000; fill-opacity:1.0000; stroke:none;fill-rule:evenodd;"
d="M 149.3500,99.3067
149.7733,99.3067
149.7733,99.7300
149.7733,100.1533
149.7733,100.5767
150.1967,100.5767
150.6200,100.5767
150.6200,101.0000
150.1967,101.0000
149.7733,101.0000
149.7733,101.4233
149.7733,101.8467
150.1967,101.8467
150.1967,102.2700
150.6200,102.2700
150.6200,101.8467
150.6200,101.4233
151.0433,101.4233
151.8900,101.4233
152.7367,101.4233
152.7367,101.0000
152.3133,101.0000
151.8900,101.0000
151.8900,101.4233
151.0433,101.4233
151.0433,101.0000
151.0433,100.5767
151.4667,100.5767
151.8900,100.5767
152.3133,100.5767
152.7367,100.5767
153.1600,100.5767
153.1600,101.0000
153.5833,101.0000
154.0067,101.0000
154.0067,101.4233
153.5833,101.4233
153.1600,101.4233
153.1600,101.8467
152.7367,101.8467
152.7367,102.2700
153.1600,102.2700
153.1600,101.8467
153.5833,101.8467
154.0067,101.8467
154.0067,102.2700
154.0067,102.6933
154.0067,103.1167
153.5833,103.1167
153.5833,102.6933
153.5833,102.2700
153.1600,102.2700
153.1600,102.6933
153.1600,103.1167
152.7367,103.1167
152.3133,103.1167
152.3133,103.5400
152.7367,103.5400
153.1600,103.5400
153.1600,103.9633
153.5833,103.9633
153.5833,103.5400
154.0067,103.5400
154.0067,103.1167
154.4300,103.1167
154.4300,103.5400
154.8533,103.5400
154.8533,103.9633
154.8533,104.3867
154.4300,104.3867
154.0067,104.3867
154.0067,104.8100
153.5833,104.8100
153.1600,104.8100
153.1600,105.2333
153.1600,105.6567
153.5833,105.6567
153.5833,105.2333
154.0067,105.2333
154.0067,105.6567
154.0067,106.0800
154.4300,106.0800
154.4300,106.5033
154.4300,106.9267
154.0067,106.9267
154.0067,106.5033
153.5833,106.5033
153.5833,106.9267
153.1600,106.9267
153.1600,107.3500
152.7367,107.3500
152.3133,107.3500
151.8900,107.3500
151.8900,106.9267
152.3133,106.9267
152.7367,106.9267
153.1600,106.9267
153.1600,106.5033
152.7367,106.5033
152.7367,106.9267
152.3133,106.9267
152.3133,106.5033
151.8900,106.5033
151.8900,106.9267
151.4667,106.9267
151.0433,106.9267
151.0433,106.5033
150.6200,106.5033
150.6200,106.0800
151.4667,106.0800
151.8900,106.0800
152.3133,106.0800
152.7367,106.0800
153.1600,106.0800
153.1600,105.6567
152.7367,105.6567
152.3133,105.6567
151.8900,105.6567
151.4667,105.6567
151.4667,106.0800
150.6200,106.0800
150.6200,105.6567
151.0433,105.6567
151.0433,105.2333
150.6200,105.2333
150.1967,105.2333
150.1967,105.6567
149.7733,105.6567
149.3500,105.6567
148.9267,105.6567
148.9267,105.2333
149.3500,105.2333
149.3500,104.8100
149.3500,104.3867
149.7733,104.3867
149.7733,104.8100
149.7733,105.2333
150.1967,105.2333
150.1967,104.8100
150.1967,104.3867
150.6200,104.3867
151.0433,104.3867
151.4667,104.3867
151.4667,104.8100
151.4667,105.2333
151.8900,105.2333
152.3133,105.2333
152.7367,105.2333
152.7367,104.8100
152.7367,104.3867
152.7367,103.9633
152.3133,103.9633
151.8900,103.9633
151.4667,103.9633
151.4667,104.3867
151.0433,104.3867
151.0433,103.9633
150.6200,103.9633
150.6200,104.3867
150.1967,104.3867
149.7733,104.3867
149.7733,103.9633
149.7733,103.5400
150.1967,103.5400
150.1967,103.9633
150.6200,103.9633
150.6200,103.5400
151.0433,103.5400
151.0433,103.1167
151.4667,103.1167
151.8900,103.1167
151.8900,102.6933
151.4667,102.6933
151.4667,103.1167
151.0433,103.1167
151.0433,102.6933
151.4667,102.6933
151.4667,102.2700
151.8900,102.2700
152.3133,102.2700
152.3133,101.8467
151.8900,101.8467
151.8900,102.2700
151.4667,102.2700
151.4667,101.8467
151.0433,101.8467
151.0433,102.2700
151.0433,102.6933
150.6200,102.6933
150.6200,103.1167
150.1967,103.1167
150.1967,102.6933
149.7733,102.6933
149.7733,103.1167
149.3500,103.1167
148.9267,103.1167
148.5033,103.1167
148.5033,103.5400
148.0800,103.5400
148.0800,103.9633
147.6567,103.9633
147.6567,103.5400
147.6567,103.1167
148.0800,103.1167
148.0800,102.6933
147.6567,102.6933
147.6567,102.2700
148.0800,102.2700
148.5033,102.2700
148.5033,102.6933
149.3500,102.6933
149.3500,102.2700
149.3500,101.8467
149.3500,101.4233
148.9267,101.4233
148.9267,101.0000
149.3500,101.0000
149.3500,100.5767
149.3500,100.1533
148.9267,100.1533
148.9267,100.5767
148.5033,100.5767
148.5033,100.1533
148.0800,100.1533
148.0800,100.5767
147.6567,100.5767
147.6567,100.1533
147.6567,99.7300
148.0800,99.7300
148.5033,99.7300
148.9267,99.7300
148.9267,99.3067
148.5033,99.3067
148.5033,99.7300
148.0800,99.7300
148.0800,99.3067
147.6567,99.3067
147.6567,98.8833
148.0800,98.8833
148.5033,98.8833
148.9267,98.8833
149.3500,98.8833
Z" /> 
<path style="fill:#000000; fill-opacity:1.0000; stroke:none;fill-rule:evenodd;"
d="M 143.0000,102.6933
143.0000,103.1167
143.0000,103.5400
143.0000,103.9633
142.5767,103.9633
142.5767,103.5400
142.5767,103.1167
142.5767,102.6933
142.5767,102.2700
143.0000,102.2700
Z" /> 
<path style="fill:#000000; fill-opacity:1.0000; stroke:none;fill-rule:evenodd;"
d="M 144.2700,103.5400
144.6933,103.5400
145.1167,103.5400
145.5400,103.5400
145.5400,103.9633
145.1167,103.9633
144.6933,103.9633
144.2700,103.9633
143.8467,103.9633
143.4233,103.9633
143.4233,103.5400
143.8467,103.5400
143.8467,103.1167
144.2700,103.1167
Z" /> 
<path style="fill:#000000; fill-opacity:1.0000; stroke:none;fill-rule:evenodd;"
d="M 144.6933,98.8833
144.6933,99.3067
144.2700,99.3067
144.2700,98.8833
143.8467,98.8833
143.8467,99.3067
143.4233,99.3067
143.4233,98.8833
143.0000,98.8833
142.5767,98.8833
142.5767,98.4600
143.0000,98.4600
143.4233,98.4600
143.8467,98.4600
144.2700,98.4600
144.6933,98.4600
Z" /> 
<path style="fill:#000000; fill-opacity:1.0000; stroke:none;fill-rule:evenodd;"
d="M 146.8100,104.3867
146.8100,104.8100
146.8100,105.2333
146.3867,105.2333
146.3867,104.8100
145.9633,104.8100
145.9633,104.3867
145.9633,103.9633
146.3867,103.9633
146.8100,103.9633
Z" /> 
<path style="fill:#000000; fill-opacity:1.0000; stroke:none;fill-rule:evenodd;"
d="M 144.6933,105.6567
144.6933,106.0800
144.6933,106.5033
144.2700,106.5033
143.8467,106.5033
143.4233,106.5033
143.4233,106.0800
143.4233,105.6567
143.4233,105.2333
143.8467,105.2333
144.2700,105.2333
144.6933,105.2333
Z" /> 
<path style="fill:#000000; fill-opacity:1.0000; stroke:none;fill-rule:evenodd;"
d="M 152.3133,104.8100
151.8900,104.8100
151.8900,104.3867
152.3133,104.3867
Z" /> 
<path style="fill:#000000; fill-opacity:1.0000; stroke:none;fill-rule:evenodd;"
d="M 148.9267,98.0367
149.3500,98.0367
149.3500,98.4600
148.9267,98.4600
148.5033,98.4600
148.0800,98.4600
148.0800,98.0367
148.5033,98.0367
148.5033,97.6133
148.9267,97.6133
Z" /> 
<path style="fill:#000000; fill-opacity:1.0000; stroke:none;fill-rule:evenodd;"
d="M 148.9267,103.9633
148.5033,103.9633
148.5033,103.5400
148.9267,103.5400
Z" /> 
<path style="fill:#000000; fill-opacity:1.0000; stroke:none;fill-rule:evenodd;"
d="M 149.7733,95.4967
149.3500,95.4967
148.9267,95.4967
148.5033,95.4967
148.5033,95.9200
148.0800,95.9200
148.0800,95.4967
147.6567,95.4967
147.6567,95.0733
148.0800,95.0733
148.5033,95.0733
148.9267,95.0733
149.3500,95.0733
149.7733,95.0733
Z" /> 
<path style="fill:#000000; fill-opacity:1.0000; stroke:none;fill-rule:evenodd;"
d="M 154.0067,107.3500
153.5833,107.3500
153.5833,106.9267
154.0067,106.9267
Z" /> 
<path style="fill:#000000; fill-opacity:1.0000; stroke:none;fill-rule:evenodd;"
d="M 148.9267,106.0800
149.3500,106.0800
149.3500,106.5033
149.3500,106.9267
149.3500,107.3500
148.9267,107.3500
148.5033,107.3500
148.5033,106.9267
148.9267,106.9267
148.9267,106.5033
148.5033,106.5033
148.5033,106.9267
148.0800,106.9267
148.0800,107.3500
147.6567,107.3500
147.6567,106.9267
147.6567,106.5033
148.0800,106.5033
148.0800,106.0800
147.6567,106.0800
147.6567,105.6567
148.0800,105.6567
148.5033,105.6567
148.9267,105.6567
Z" /> 
<path style="fill:#000000; fill-opacity:1.0000; stroke:none;fill-rule:evenodd;"
d="M 152.7367,98.8833
153.1600,98.8833
153.1600,99.3067
153.1600,99.7300
152.7367,99.7300
152.7367,99.3067
152.3133,99.3067
151.8900,99.3067
151.8900,98.8833
152.3133,98.8833
152.3133,98.4600
152.7367,98.4600
Z" /> 
<path style="fill:#000000; fill-opacity:1.0000; stroke:none;fill-rule:evenodd;"
d="M 147.2333,96.7667
146.8100,96.7667
146.8100,97.1900
146.8100,97.6133
146.3867,97.6133
146.3867,98.0367
145.9633,98.0367
145.9633,97.6133
145.9633,97.1900
146.3867,97.1900
146.3867,96.7667
145.9633,96.7667
145.9633,96.3433
146.3867,96.3433
146.8100,96.3433
147.2333,96.3433
Z" /> 
<path style="fill:#000000; fill-opacity:1.0000; stroke:none;fill-rule:evenodd;"
d="M 140.1500,111.9000
141.8500,111.9000
141.8500,113.6000
140.1500,113.6000
Z" /> 
</g>
<g style="fill:#000000; fill-opacity:1.0000; stroke:none;">
<circle cx="138.4600" cy="112.7500" r="0.8500" /> 
</g> 
</svg>
