<?xml version="1.0" standalone="no"?>
 <!DOCTYPE svg PUBLIC "-//W3C//DTD SVG 1.1//EN" 
 "http://www.w3.org/Graphics/SVG/1.1/DTD/svg11.dtd"> 
<svg
  xmlns:svg="http://www.w3.org/2000/svg"
  xmlns="http://www.w3.org/2000/svg"
  xmlns:xlink="http://www.w3.org/1999/xlink"
  version="1.1"
  width="297.0022mm" height="210.0072mm" viewBox="0.0000 0.0000 297.0022 210.0072">
<title>SVG Image created as Dino-Blinker-F_Courtyard.svg date 2024/12/11 00:26:35 </title>
  <desc>Image generated by PCBNEW </desc>
<g style="fill:#000000; fill-opacity:1.0000;stroke:#000000; stroke-opacity:1.0000;
stroke-linecap:round; stroke-linejoin:round;"
 transform="translate(0 0) scale(1 1)">
</g>
<g style="fill:none; 
stroke:#000000; stroke-width:0.0500; stroke-opacity:1; 
stroke-linecap:round; stroke-linejoin:round;">
<path d="M124.6100 100.4200
L126.8500 100.4200
" />
<path d="M124.6100 105.3200
L124.6100 100.4200
" />
<path d="M126.8500 100.4200
L126.8500 105.3200
" />
<path d="M126.8500 105.3200
L124.6100 105.3200
" />
<path d="M126.1000 94.1300
L131.0000 94.1300
" />
<path d="M126.1000 96.3700
L126.1000 94.1300
" />
<path d="M131.0000 94.1300
L131.0000 96.3700
" />
<path d="M131.0000 96.3700
L126.1000 96.3700
" />
<path d="M136.0400 88.9900
L138.2800 88.9900
" />
<path d="M136.0400 93.8900
L136.0400 88.9900
" />
<path d="M138.2800 88.9900
L138.2800 93.8900
" />
<path d="M138.2800 93.8900
L136.0400 93.8900
" />
<path d="M127.2900 100.9900
L129.2500 100.9900
" />
<path d="M127.2900 104.7500
L127.2900 100.9900
" />
<path d="M129.2500 100.9900
L129.2500 104.7500
" />
<path d="M129.2500 104.7500
L127.2900 104.7500
" />
<path d="M121.4901 94.6136
L122.8336 93.2701
" />
<path d="M122.8336 93.2701
L125.4499 95.8864
" />
<path d="M124.1064 97.2299
L121.4901 94.6136
" />
<path d="M125.4499 95.8864
L124.1064 97.2299
" />
<path d="M145.1000 91.1050
L147.0000 91.1050
" />
<path d="M145.1000 94.8050
L145.1000 91.1050
" />
<path d="M147.0000 91.1050
L147.0000 94.8050
" />
<path d="M147.0000 94.8050
L145.1000 94.8050
" />
<path d="M136.6500 110.9500
L136.6500 114.5500
" />
<path d="M136.6500 114.5500
L142.8000 114.5500
" />
<path d="M142.8000 110.9500
L136.6500 110.9500
" />
<path d="M142.8000 114.5500
L142.8000 110.9500
" />
<path d="M131.5000 84.1400
L135.2000 84.1400
" />
<path d="M131.5000 86.0400
L131.5000 84.1400
" />
<path d="M135.2000 84.1400
L135.2000 86.0400
" />
<path d="M135.2000 86.0400
L131.5000 86.0400
" />
<path d="M133.5000 91.2500
L135.7400 91.2500
" />
<path d="M133.5000 96.1500
L133.5000 91.2500
" />
<path d="M135.7400 91.2500
L135.7400 96.1500
" />
<path d="M135.7400 96.1500
L133.5000 96.1500
" />
<path d="M150.1800 92.3750
L152.0800 92.3750
" />
<path d="M150.1800 96.0750
L150.1800 92.3750
" />
<path d="M152.0800 92.3750
L152.0800 96.0750
" />
<path d="M152.0800 96.0750
L150.1800 96.0750
" />
<path d="M151.2800 101.9700
L153.5200 101.9700
" />
<path d="M151.2800 106.8700
L151.2800 101.9700
" />
<path d="M153.5200 101.9700
L153.5200 106.8700
" />
<path d="M153.5200 106.8700
L151.2800 106.8700
" />
<path d="M144.9300 96.6100
L147.1700 96.6100
" />
<path d="M144.9300 101.5100
L144.9300 96.6100
" />
<path d="M147.1700 96.6100
L147.1700 101.5100
" />
<path d="M147.1700 101.5100
L144.9300 101.5100
" />
<path d="M156.5300 110.9350
L158.4300 110.9350
" />
<path d="M156.5300 114.6350
L156.5300 110.9350
" />
<path d="M158.4300 110.9350
L158.4300 114.6350
" />
<path d="M158.4300 114.6350
L156.5300 114.6350
" />
<path d="M126.8578 104.7929
L131.7578 104.7929
" />
<path d="M126.8578 107.0329
L126.8578 104.7929
" />
<path d="M131.7578 104.7929
L131.7578 107.0329
" />
<path d="M131.7578 107.0329
L126.8578 107.0329
" />
<path d="M154.0500 94.1500
L155.9500 94.1500
" />
<path d="M154.0500 97.8500
L154.0500 94.1500
" />
<path d="M155.9500 94.1500
L155.9500 97.8500
" />
<path d="M155.9500 97.8500
L154.0500 97.8500
" />
<path d="M147.4700 101.9700
L149.7100 101.9700
" />
<path d="M147.4700 106.8700
L147.4700 101.9700
" />
<path d="M149.7100 101.9700
L149.7100 106.8700
" />
<path d="M149.7100 106.8700
L147.4700 106.8700
" />
<path d="M151.4500 108.3950
L153.3500 108.3950
" />
<path d="M151.4500 112.0950
L151.4500 108.3950
" />
<path d="M153.3500 108.3950
L153.3500 112.0950
" />
<path d="M153.3500 112.0950
L151.4500 112.0950
" />
<path d="M137.5875 105.7000
L141.3475 105.7000
" />
<path d="M137.5875 107.6600
L137.5875 105.7000
" />
<path d="M141.3475 105.7000
L141.3475 107.6600
" />
<path d="M141.3475 107.6600
L137.5875 107.6600
" />
<path d="M157.8500 103.0200
L162.7500 103.0200
" />
<path d="M157.8500 105.2600
L157.8500 103.0200
" />
<path d="M162.7500 103.0200
L162.7500 105.2600
" />
<path d="M162.7500 105.2600
L157.8500 105.2600
" />
<path d="M150.0100 96.3300
L152.2500 96.3300
" />
<path d="M150.0100 101.2300
L150.0100 96.3300
" />
<path d="M152.2500 96.3300
L152.2500 101.2300
" />
<path d="M152.2500 101.2300
L150.0100 101.2300
" />
<path d="M128.7150 87.9500
L132.4150 87.9500
" />
<path d="M128.7150 89.8500
L128.7150 87.9500
" />
<path d="M132.4150 87.9500
L132.4150 89.8500
" />
<path d="M132.4150 89.8500
L128.7150 89.8500
" />
<path d="M133.2300 97.2650
L133.2300 104.6650
" />
<path d="M133.2300 104.6650
L143.6300 104.6650
" />
<path d="M143.6300 97.2650
L133.2300 97.2650
" />
<path d="M143.6300 104.6650
L143.6300 97.2650
" />
<path d="M118.4800 103.0200
L123.3800 103.0200
" />
<path d="M118.4800 105.2600
L118.4800 103.0200
" />
<path d="M123.3800 103.0200
L123.3800 105.2600
" />
<path d="M123.3800 105.2600
L118.4800 105.2600
" />
<path d="M155.0900 98.1600
L157.3300 98.1600
" />
<path d="M155.0900 103.0600
L155.0900 98.1600
" />
<path d="M157.3300 98.1600
L157.3300 103.0600
" />
<path d="M157.3300 103.0600
L155.0900 103.0600
" />
<path d="M166.3849 109.8536
L167.7284 108.5101
" />
<path d="M167.7284 108.5101
L170.3447 111.1264
" />
<path d="M169.0012 112.4699
L166.3849 109.8536
" />
<path d="M170.3447 111.1264
L169.0012 112.4699
" />
<path d="M114.7450 103.1900
L118.4450 103.1900
" />
<path d="M114.7450 105.0900
L114.7450 103.1900
" />
<path d="M118.4450 103.1900
L118.4450 105.0900
" />
<path d="M118.4450 105.0900
L114.7450 105.0900
" />
</g>
<g style="fill:#000000; fill-opacity:1.0000; stroke:none;">
<circle cx="141.0000" cy="112.7500" r="0.5000" /> 
</g>
<g style="fill:#000000; fill-opacity:1.0000; stroke:none;">
<circle cx="138.4600" cy="112.7500" r="0.5000" /> 
</g> 
</svg>
