G04 #@! TF.GenerationSoftware,KiCad,Pcbnew,7.0.6*
G04 #@! TF.CreationDate,2023-12-11T14:45:34+01:00*
G04 #@! TF.ProjectId,Dino-Blinker,44696e6f-2d42-46c6-996e-6b65722e6b69,rev?*
G04 #@! TF.SameCoordinates,Original*
G04 #@! TF.FileFunction,Profile,NP*
%FSLAX46Y46*%
G04 Gerber Fmt 4.6, Leading zero omitted, Abs format (unit mm)*
G04 Created by KiCad (PCBNEW 7.0.6) date 2023-12-11 14:45:34*
%MOMM*%
%LPD*%
G01*
G04 APERTURE LIST*
G04 #@! TA.AperFunction,Profile*
%ADD10C,0.000000*%
G04 #@! TD*
G04 #@! TA.AperFunction,Profile*
%ADD11C,0.100000*%
G04 #@! TD*
G04 APERTURE END LIST*
D10*
D11*
X134620000Y-82550000D02*
X134783517Y-82558090D01*
X134947521Y-82571343D01*
X135111472Y-82589726D01*
X135274833Y-82613202D01*
X135437065Y-82641737D01*
X135597631Y-82675296D01*
X135755992Y-82713844D01*
X135911610Y-82757345D01*
X136063947Y-82805765D01*
X136482128Y-82960554D01*
X136885278Y-83137059D01*
X137273113Y-83334986D01*
X137645349Y-83554038D01*
X138001704Y-83793923D01*
X138341893Y-84054343D01*
X138665634Y-84335005D01*
X138972642Y-84635614D01*
X139262633Y-84955875D01*
X139535325Y-85295492D01*
X139790434Y-85654171D01*
X140027676Y-86031618D01*
X140246768Y-86427536D01*
X140447425Y-86841632D01*
X140629366Y-87273611D01*
X140792305Y-87723176D01*
X140881274Y-88013222D01*
X140969275Y-88344099D01*
X141052976Y-88698964D01*
X141129050Y-89060975D01*
X141194166Y-89413287D01*
X141244996Y-89739057D01*
X141278211Y-90021442D01*
X141287172Y-90141101D01*
X141290481Y-90243598D01*
X141290982Y-90321791D01*
X141292810Y-90389981D01*
X141294664Y-90420460D01*
X141297379Y-90448598D01*
X141301133Y-90474451D01*
X141306101Y-90498072D01*
X141312461Y-90519514D01*
X141320388Y-90538831D01*
X141330060Y-90556077D01*
X141341653Y-90571305D01*
X141355344Y-90584569D01*
X141371308Y-90595922D01*
X141389724Y-90605419D01*
X141410766Y-90613113D01*
X141434613Y-90619057D01*
X141461440Y-90623306D01*
X141491423Y-90625912D01*
X141524741Y-90626930D01*
X141561568Y-90626413D01*
X141602082Y-90624415D01*
X141646459Y-90620989D01*
X141694876Y-90616190D01*
X141804536Y-90602684D01*
X141932473Y-90584326D01*
X142248830Y-90534772D01*
X142497460Y-90500864D01*
X142787745Y-90471077D01*
X143469083Y-90423995D01*
X144244449Y-90393786D01*
X145065449Y-90380707D01*
X145883689Y-90385018D01*
X146650775Y-90406977D01*
X147318311Y-90446844D01*
X147599625Y-90473573D01*
X147837904Y-90504877D01*
X148575811Y-90633060D01*
X149298022Y-90784256D01*
X150004642Y-90958516D01*
X150695775Y-91155890D01*
X151371526Y-91376429D01*
X152032000Y-91620184D01*
X152677300Y-91887205D01*
X153307531Y-92177544D01*
X153922799Y-92491250D01*
X154523207Y-92828375D01*
X155108861Y-93188969D01*
X155679864Y-93573083D01*
X156236321Y-93980768D01*
X156778337Y-94412075D01*
X157306016Y-94867054D01*
X157819463Y-95345755D01*
X158066437Y-95588148D01*
X158301732Y-95825695D01*
X158526416Y-96059774D01*
X158741555Y-96291765D01*
X158948217Y-96523047D01*
X159147467Y-96754999D01*
X159340372Y-96989000D01*
X159528001Y-97226429D01*
X159711418Y-97468665D01*
X159891691Y-97717087D01*
X160069887Y-97973074D01*
X160247073Y-98238006D01*
X160424315Y-98513262D01*
X160602680Y-98800219D01*
X160967046Y-99414759D01*
X161590605Y-100446564D01*
X162251777Y-101444810D01*
X162950122Y-102409120D01*
X163685200Y-103339114D01*
X164456569Y-104234412D01*
X165263791Y-105094637D01*
X166106425Y-105919407D01*
X166984030Y-106708345D01*
X167896166Y-107461071D01*
X168842394Y-108177205D01*
X169822273Y-108856369D01*
X170835362Y-109498183D01*
X171881221Y-110102269D01*
X172959411Y-110668246D01*
X174069490Y-111195736D01*
X175211019Y-111684359D01*
X175414526Y-111768009D01*
X175602118Y-111847359D01*
X175769850Y-111920581D01*
X175913778Y-111985842D01*
X176029960Y-112041313D01*
X176114452Y-112085162D01*
X176163310Y-112115560D01*
X176173144Y-112125142D01*
X176174196Y-112128429D01*
X176172590Y-112130675D01*
X176026093Y-112178321D01*
X175699462Y-112267429D01*
X174716530Y-112517748D01*
X173645275Y-112777064D01*
X173208238Y-112877420D01*
X172907175Y-112940812D01*
X172665861Y-112982788D01*
X172418421Y-113019186D01*
X172165916Y-113050004D01*
X171909407Y-113075244D01*
X171649956Y-113094904D01*
X171388623Y-113108983D01*
X170864561Y-113120399D01*
X170345711Y-113109488D01*
X170090895Y-113095658D01*
X169840565Y-113076245D01*
X169595785Y-113051248D01*
X169357615Y-113020667D01*
X169127117Y-112984501D01*
X168905351Y-112942750D01*
X168470328Y-112841350D01*
X168024038Y-112713559D01*
X167567115Y-112559742D01*
X167100194Y-112380265D01*
X166623908Y-112175492D01*
X166138892Y-111945790D01*
X165645780Y-111691522D01*
X165145207Y-111413056D01*
X164637805Y-111110756D01*
X164124210Y-110784988D01*
X163605055Y-110436117D01*
X163080975Y-110064508D01*
X162552603Y-109670527D01*
X162020575Y-109254539D01*
X161485524Y-108816910D01*
X160948084Y-108358004D01*
X160465292Y-107937087D01*
X160513929Y-108454960D01*
X160541634Y-108891229D01*
X160559475Y-109467123D01*
X160567838Y-110130034D01*
X160567112Y-110827351D01*
X160557685Y-111506467D01*
X160539946Y-112114771D01*
X160514282Y-112599656D01*
X160481081Y-112908511D01*
X160429648Y-113158404D01*
X160362167Y-113434741D01*
X160282327Y-113725775D01*
X160193820Y-114019759D01*
X160100338Y-114304945D01*
X160005572Y-114569586D01*
X159913212Y-114801935D01*
X159869089Y-114902329D01*
X159826952Y-114990245D01*
X159786187Y-115066688D01*
X159741314Y-115142811D01*
X159692486Y-115218510D01*
X159639855Y-115293680D01*
X159583574Y-115368217D01*
X159523796Y-115442016D01*
X159394360Y-115586979D01*
X159252770Y-115727735D01*
X159100250Y-115863445D01*
X158938021Y-115993272D01*
X158767308Y-116116381D01*
X158589332Y-116231933D01*
X158405317Y-116339092D01*
X158216485Y-116437020D01*
X158024060Y-116524881D01*
X157829264Y-116601837D01*
X157633320Y-116667052D01*
X157437451Y-116719689D01*
X157339926Y-116741029D01*
X157242880Y-116758910D01*
X157099625Y-116781195D01*
X157035154Y-116789723D01*
X156974363Y-116796478D01*
X156916434Y-116801437D01*
X156860551Y-116804577D01*
X156805894Y-116805876D01*
X156751646Y-116805312D01*
X156696990Y-116802861D01*
X156641107Y-116798501D01*
X156583181Y-116792210D01*
X156522393Y-116783965D01*
X156457925Y-116773743D01*
X156388959Y-116761521D01*
X156234266Y-116730990D01*
X156063780Y-116692700D01*
X155897611Y-116649337D01*
X155736219Y-116601155D01*
X155580067Y-116548410D01*
X155429615Y-116491356D01*
X155285326Y-116430249D01*
X155147662Y-116365344D01*
X155017083Y-116296897D01*
X154894051Y-116225161D01*
X154779029Y-116150393D01*
X154672477Y-116072848D01*
X154574858Y-115992781D01*
X154486633Y-115910446D01*
X154408263Y-115826100D01*
X154340211Y-115739997D01*
X154282938Y-115652392D01*
X154247816Y-115591044D01*
X154217368Y-115533944D01*
X154191590Y-115479748D01*
X154180451Y-115453319D01*
X154170479Y-115427113D01*
X154161673Y-115400961D01*
X154154032Y-115374696D01*
X154147556Y-115348150D01*
X154142245Y-115321154D01*
X154138098Y-115293541D01*
X154135115Y-115265144D01*
X154133295Y-115235793D01*
X154132639Y-115205322D01*
X154133145Y-115173562D01*
X154134814Y-115140345D01*
X154137644Y-115105504D01*
X154141636Y-115068871D01*
X154153102Y-114989555D01*
X154169209Y-114901055D01*
X154189954Y-114802027D01*
X154215333Y-114691129D01*
X154245343Y-114567017D01*
X154279981Y-114428347D01*
X154362808Y-114055781D01*
X154436105Y-113642776D01*
X154497392Y-113215094D01*
X154544190Y-112798498D01*
X154574021Y-112418750D01*
X154584404Y-112101612D01*
X154581529Y-111974572D01*
X154572863Y-111872846D01*
X154558095Y-111799654D01*
X154548326Y-111774764D01*
X154536916Y-111758216D01*
X154534353Y-111756521D01*
X154531605Y-111756350D01*
X154528682Y-111757669D01*
X154525591Y-111760443D01*
X154522341Y-111764638D01*
X154518940Y-111770221D01*
X154511720Y-111785413D01*
X154504000Y-111805744D01*
X154495845Y-111830942D01*
X154487325Y-111860734D01*
X154478505Y-111894847D01*
X154469455Y-111933008D01*
X154460240Y-111974944D01*
X154450930Y-112020382D01*
X154441590Y-112069050D01*
X154432289Y-112120674D01*
X154423095Y-112174981D01*
X154414074Y-112231699D01*
X154405294Y-112290555D01*
X154383799Y-112430081D01*
X154360170Y-112565771D01*
X154334454Y-112697487D01*
X154306696Y-112825095D01*
X154276942Y-112948457D01*
X154245239Y-113067437D01*
X154211634Y-113181899D01*
X154176171Y-113291706D01*
X154138898Y-113396723D01*
X154099859Y-113496813D01*
X154059103Y-113591840D01*
X154016674Y-113681667D01*
X153972619Y-113766158D01*
X153926984Y-113845176D01*
X153879816Y-113918587D01*
X153831159Y-113986252D01*
X153738113Y-114100992D01*
X153638753Y-114209821D01*
X153533674Y-114312443D01*
X153423470Y-114408559D01*
X153308733Y-114497872D01*
X153190058Y-114580085D01*
X153068038Y-114654899D01*
X152943267Y-114722017D01*
X152816339Y-114781141D01*
X152687847Y-114831974D01*
X152558384Y-114874216D01*
X152428544Y-114907572D01*
X152298922Y-114931743D01*
X152170109Y-114946432D01*
X152042701Y-114951340D01*
X151979710Y-114950033D01*
X151917291Y-114946170D01*
X151788453Y-114930264D01*
X151657491Y-114904115D01*
X151525366Y-114868336D01*
X151393038Y-114823543D01*
X151261469Y-114770352D01*
X151131617Y-114709377D01*
X151004444Y-114641235D01*
X150880911Y-114566540D01*
X150761977Y-114485907D01*
X150648603Y-114399952D01*
X150541750Y-114309291D01*
X150442378Y-114214538D01*
X150351448Y-114116308D01*
X150269919Y-114015218D01*
X150198753Y-113911882D01*
X150138910Y-113806916D01*
X150115779Y-113760797D01*
X150095592Y-113717906D01*
X150078268Y-113676617D01*
X150070656Y-113656066D01*
X150063731Y-113635304D01*
X150057483Y-113614130D01*
X150051901Y-113592341D01*
X150046977Y-113569731D01*
X150042700Y-113546100D01*
X150039060Y-113521242D01*
X150036049Y-113494955D01*
X150033655Y-113467035D01*
X150031869Y-113437280D01*
X150030682Y-113405486D01*
X150030083Y-113371449D01*
X150030611Y-113295835D01*
X150033374Y-113208812D01*
X150038295Y-113108753D01*
X150045295Y-112994032D01*
X150054295Y-112863022D01*
X150077982Y-112545632D01*
X150107411Y-112064773D01*
X150131447Y-111489643D01*
X150147615Y-110892439D01*
X150153436Y-110345357D01*
X150153043Y-109138196D01*
X149673483Y-109139664D01*
X149312433Y-109147831D01*
X148683880Y-109168984D01*
X146978040Y-109237416D01*
X145328228Y-109305850D01*
X144473322Y-109335169D01*
X144384497Y-109336378D01*
X144348094Y-109337761D01*
X144316654Y-109339890D01*
X144289896Y-109342935D01*
X144267538Y-109347066D01*
X144257921Y-109349592D01*
X144249298Y-109352452D01*
X144241634Y-109355669D01*
X144234894Y-109359264D01*
X144229042Y-109363258D01*
X144224044Y-109367671D01*
X144219863Y-109372526D01*
X144216466Y-109377844D01*
X144213816Y-109383645D01*
X144211878Y-109389951D01*
X144210618Y-109396784D01*
X144209999Y-109404164D01*
X144210547Y-109420652D01*
X144213239Y-109439584D01*
X144217794Y-109461131D01*
X144223930Y-109485463D01*
X144233501Y-109538666D01*
X144245617Y-109633354D01*
X144259782Y-109764232D01*
X144275506Y-109926007D01*
X144309655Y-110321071D01*
X144344120Y-110776194D01*
X144368109Y-111182707D01*
X144381172Y-111571393D01*
X144383134Y-111943073D01*
X144373820Y-112298566D01*
X144353058Y-112638690D01*
X144320672Y-112964265D01*
X144276490Y-113276110D01*
X144220336Y-113575044D01*
X144152036Y-113861886D01*
X144071418Y-114137455D01*
X143978306Y-114402571D01*
X143872527Y-114658052D01*
X143753907Y-114904718D01*
X143622271Y-115143388D01*
X143477446Y-115374881D01*
X143319257Y-115600016D01*
X143254149Y-115684909D01*
X143185732Y-115768653D01*
X143114197Y-115851086D01*
X143039737Y-115932045D01*
X142962544Y-116011367D01*
X142882810Y-116088890D01*
X142800727Y-116164449D01*
X142716486Y-116237883D01*
X142630280Y-116309029D01*
X142542302Y-116377723D01*
X142452742Y-116443803D01*
X142361793Y-116507106D01*
X142269647Y-116567469D01*
X142176496Y-116624729D01*
X142082532Y-116678723D01*
X141987947Y-116729289D01*
X141903366Y-116768117D01*
X141808856Y-116803022D01*
X141705590Y-116833933D01*
X141594740Y-116860782D01*
X141477478Y-116883499D01*
X141354978Y-116902015D01*
X141228411Y-116916260D01*
X141098949Y-116926166D01*
X140967766Y-116931663D01*
X140836034Y-116932682D01*
X140704924Y-116929153D01*
X140575610Y-116921008D01*
X140449264Y-116908176D01*
X140327059Y-116890589D01*
X140210166Y-116868178D01*
X140099758Y-116840872D01*
X140099723Y-116840872D01*
X140001939Y-116811525D01*
X139902885Y-116777801D01*
X139803214Y-116740075D01*
X139703576Y-116698725D01*
X139604621Y-116654129D01*
X139507000Y-116606664D01*
X139411364Y-116556705D01*
X139318364Y-116504632D01*
X139228650Y-116450819D01*
X139142873Y-116395646D01*
X139061684Y-116339488D01*
X138985733Y-116282723D01*
X138915671Y-116225728D01*
X138852148Y-116168879D01*
X138795816Y-116112555D01*
X138747326Y-116057131D01*
X138715159Y-116016730D01*
X138686536Y-115979163D01*
X138661255Y-115943739D01*
X138639112Y-115909764D01*
X138619906Y-115876546D01*
X138611341Y-115860003D01*
X138603434Y-115843390D01*
X138596161Y-115826619D01*
X138589494Y-115809605D01*
X138583410Y-115792259D01*
X138577883Y-115774496D01*
X138572888Y-115756229D01*
X138568399Y-115737371D01*
X138560840Y-115697537D01*
X138555002Y-115654300D01*
X138550685Y-115606968D01*
X138547684Y-115554847D01*
X138545799Y-115497245D01*
X138544826Y-115433467D01*
X138544563Y-115362822D01*
X138544154Y-115227400D01*
X138542305Y-115125768D01*
X138540598Y-115086855D01*
X138538238Y-115055467D01*
X138535128Y-115031298D01*
X138531171Y-115014040D01*
X138528844Y-115007907D01*
X138526268Y-115003386D01*
X138523432Y-115000440D01*
X138520324Y-114999029D01*
X138516930Y-114999115D01*
X138513239Y-115000661D01*
X138504917Y-115007975D01*
X138495259Y-115020664D01*
X138484169Y-115038421D01*
X138457302Y-115087908D01*
X138426368Y-115144844D01*
X138393806Y-115199528D01*
X138359607Y-115251964D01*
X138323759Y-115302157D01*
X138286254Y-115350110D01*
X138247081Y-115395827D01*
X138206231Y-115439312D01*
X138163692Y-115480569D01*
X138119456Y-115519602D01*
X138073511Y-115556415D01*
X138025849Y-115591012D01*
X137976459Y-115623396D01*
X137925332Y-115653572D01*
X137872456Y-115681543D01*
X137817822Y-115707314D01*
X137761421Y-115730889D01*
X137703241Y-115752270D01*
X137643274Y-115771463D01*
X137581509Y-115788471D01*
X137517936Y-115803298D01*
X137452545Y-115815949D01*
X137385326Y-115826426D01*
X137316269Y-115834734D01*
X137245364Y-115840877D01*
X137172601Y-115844859D01*
X137097970Y-115846683D01*
X137021461Y-115846354D01*
X136943064Y-115843875D01*
X136862770Y-115839251D01*
X136780567Y-115832485D01*
X136696446Y-115823582D01*
X136610397Y-115812544D01*
X136496381Y-115794905D01*
X136386456Y-115774192D01*
X136280284Y-115750242D01*
X136177524Y-115722888D01*
X136077840Y-115691965D01*
X135980892Y-115657308D01*
X135886341Y-115618751D01*
X135793849Y-115576130D01*
X135703078Y-115529278D01*
X135613689Y-115478031D01*
X135525342Y-115422224D01*
X135437700Y-115361690D01*
X135350424Y-115296265D01*
X135263175Y-115225783D01*
X135175614Y-115150079D01*
X135087404Y-115068988D01*
X134958645Y-114942061D01*
X134842578Y-114816705D01*
X134739123Y-114692647D01*
X134648202Y-114569614D01*
X134569734Y-114447337D01*
X134535146Y-114386396D01*
X134503642Y-114325542D01*
X134475212Y-114264741D01*
X134449845Y-114203958D01*
X134427533Y-114143161D01*
X134408265Y-114082314D01*
X134392031Y-114021384D01*
X134378822Y-113960338D01*
X134368627Y-113899140D01*
X134361437Y-113837757D01*
X134357241Y-113776156D01*
X134356031Y-113714302D01*
X134357795Y-113652160D01*
X134362524Y-113589698D01*
X134370208Y-113526881D01*
X134380838Y-113463676D01*
X134394403Y-113400048D01*
X134410893Y-113335963D01*
X134430299Y-113271387D01*
X134452610Y-113206287D01*
X134505911Y-113074378D01*
X134554607Y-112959429D01*
X134604762Y-112830993D01*
X134708565Y-112536859D01*
X134815557Y-112198365D01*
X134923974Y-111821906D01*
X135032051Y-111413871D01*
X135138025Y-110980654D01*
X135240132Y-110528647D01*
X135336609Y-110064240D01*
X135553436Y-108972834D01*
X134878847Y-108290940D01*
X134204258Y-107609048D01*
X133613941Y-108170811D01*
X133283356Y-108471713D01*
X132943561Y-108753780D01*
X132593970Y-109017246D01*
X132234001Y-109262344D01*
X131863069Y-109489307D01*
X131480591Y-109698368D01*
X131085982Y-109889761D01*
X130678660Y-110063719D01*
X130258040Y-110220474D01*
X129823539Y-110360260D01*
X129374572Y-110483311D01*
X128910556Y-110589859D01*
X128430908Y-110680137D01*
X127935043Y-110754380D01*
X127422377Y-110812819D01*
X126892328Y-110855689D01*
X126450755Y-110878615D01*
X125991115Y-110889552D01*
X125492987Y-110887729D01*
X124935951Y-110872377D01*
X124299585Y-110842724D01*
X123563469Y-110798002D01*
X122707182Y-110737440D01*
X121710302Y-110660268D01*
X119544026Y-110487725D01*
X119396078Y-110475277D01*
X119335069Y-110469255D01*
X119281980Y-110463081D01*
X119236264Y-110456543D01*
X119197379Y-110449427D01*
X119164780Y-110441520D01*
X119137923Y-110432607D01*
X119116263Y-110422476D01*
X119099257Y-110410912D01*
X119092328Y-110404526D01*
X119086360Y-110397703D01*
X119077028Y-110382634D01*
X119070717Y-110365491D01*
X119066883Y-110346063D01*
X119064982Y-110324134D01*
X119064469Y-110299491D01*
X119064790Y-110287413D01*
X119065815Y-110275697D01*
X119067634Y-110264291D01*
X119070338Y-110253142D01*
X119074018Y-110242198D01*
X119078765Y-110231407D01*
X119084670Y-110220716D01*
X119091825Y-110210072D01*
X119100319Y-110199424D01*
X119110244Y-110188719D01*
X119121692Y-110177904D01*
X119134752Y-110166928D01*
X119149516Y-110155737D01*
X119166075Y-110144279D01*
X119184520Y-110132502D01*
X119204942Y-110120354D01*
X119227431Y-110107782D01*
X119252079Y-110094734D01*
X119278976Y-110081156D01*
X119308215Y-110066998D01*
X119339885Y-110052206D01*
X119374077Y-110036729D01*
X119450394Y-110003506D01*
X119537892Y-109966911D01*
X119637300Y-109926524D01*
X119749345Y-109881926D01*
X119874755Y-109832698D01*
X120242220Y-109685101D01*
X120581720Y-109540498D01*
X120890221Y-109400431D01*
X121164690Y-109266443D01*
X121402093Y-109140078D01*
X121599396Y-109022878D01*
X121682061Y-108968198D01*
X121753564Y-108916387D01*
X121813525Y-108867640D01*
X121861564Y-108822148D01*
X121879663Y-108802534D01*
X121898299Y-108780970D01*
X121917330Y-108757675D01*
X121936616Y-108732867D01*
X121956016Y-108706763D01*
X121975388Y-108679583D01*
X121994592Y-108651544D01*
X122013486Y-108622865D01*
X122031931Y-108593764D01*
X122049783Y-108564459D01*
X122066904Y-108535168D01*
X122083150Y-108506109D01*
X122098383Y-108477501D01*
X122112460Y-108449562D01*
X122125241Y-108422510D01*
X122136584Y-108396563D01*
X122239153Y-108151019D01*
X121825899Y-108180047D01*
X121592370Y-108193916D01*
X121262015Y-108210220D01*
X120878778Y-108226927D01*
X120486604Y-108242003D01*
X120113068Y-108259852D01*
X119757412Y-108286440D01*
X119418475Y-108322170D01*
X119095096Y-108367449D01*
X118786114Y-108422679D01*
X118490365Y-108488266D01*
X118206690Y-108564615D01*
X117933926Y-108652130D01*
X117670911Y-108751215D01*
X117416485Y-108862275D01*
X117169485Y-108985715D01*
X116928750Y-109121939D01*
X116693118Y-109271352D01*
X116461427Y-109434359D01*
X116232517Y-109611363D01*
X116005225Y-109802769D01*
X115973221Y-109830343D01*
X115942118Y-109856231D01*
X115912077Y-109880339D01*
X115883260Y-109902572D01*
X115855827Y-109922834D01*
X115829939Y-109941031D01*
X115805756Y-109957067D01*
X115783441Y-109970846D01*
X115763152Y-109982275D01*
X115745053Y-109991257D01*
X115729302Y-109997697D01*
X115716062Y-110001501D01*
X115705493Y-110002572D01*
X115701261Y-110002054D01*
X115697756Y-110000816D01*
X115695000Y-109998848D01*
X115693012Y-109996138D01*
X115691813Y-109992673D01*
X115691422Y-109988442D01*
X115675310Y-109808082D01*
X115631172Y-109383214D01*
X115485787Y-108053860D01*
X115279763Y-106208848D01*
X114613966Y-105374955D01*
X114348941Y-105037639D01*
X114107814Y-104718832D01*
X113889643Y-104416359D01*
X113693490Y-104128044D01*
X113518415Y-103851715D01*
X113363478Y-103585196D01*
X113227739Y-103326313D01*
X113110258Y-103072892D01*
X113010095Y-102822758D01*
X112926312Y-102573737D01*
X112857967Y-102323655D01*
X112804121Y-102070337D01*
X112763834Y-101811608D01*
X112736167Y-101545295D01*
X112720180Y-101269223D01*
X112714932Y-100981217D01*
X112714469Y-100265645D01*
X112916704Y-100409648D01*
X112971089Y-100450077D01*
X113048426Y-100510027D01*
X113257578Y-100676885D01*
X113515400Y-100887006D01*
X113793136Y-101117175D01*
X114015477Y-101300586D01*
X114226204Y-101469198D01*
X114426468Y-101623628D01*
X114617423Y-101764493D01*
X114800219Y-101892409D01*
X114976010Y-102007993D01*
X115145948Y-102111864D01*
X115311184Y-102204637D01*
X115472871Y-102286929D01*
X115632162Y-102359359D01*
X115790208Y-102422542D01*
X115948162Y-102477096D01*
X116107175Y-102523637D01*
X116268401Y-102562783D01*
X116432991Y-102595151D01*
X116602098Y-102621358D01*
X116950924Y-102668746D01*
X119314077Y-101362464D01*
X122242196Y-99739041D01*
X122807164Y-99421899D01*
X122762439Y-98901478D01*
X122731172Y-98616384D01*
X122686006Y-98331497D01*
X122626240Y-98045351D01*
X122551175Y-97756482D01*
X122460111Y-97463424D01*
X122352346Y-97164714D01*
X122227182Y-96858884D01*
X122083917Y-96544471D01*
X121921852Y-96220009D01*
X121740286Y-95884033D01*
X121538520Y-95535078D01*
X121315853Y-95171679D01*
X121071584Y-94792370D01*
X120805014Y-94395688D01*
X120515442Y-93980166D01*
X120202169Y-93544339D01*
X119603495Y-92713303D01*
X119140094Y-92050887D01*
X118969849Y-91798583D01*
X118846296Y-91607241D01*
X118773728Y-91483128D01*
X118757904Y-91448242D01*
X118756435Y-91432514D01*
X118758560Y-91431279D01*
X118761832Y-91430650D01*
X118766219Y-91430613D01*
X118771691Y-91431156D01*
X118785765Y-91433931D01*
X118803807Y-91438874D01*
X118825568Y-91445882D01*
X118850801Y-91454854D01*
X118879259Y-91465689D01*
X118910693Y-91478286D01*
X118981499Y-91508360D01*
X119061238Y-91544262D01*
X119147929Y-91585184D01*
X119239590Y-91630312D01*
X119436048Y-91726091D01*
X119660277Y-91829442D01*
X119922123Y-91944462D01*
X120231433Y-92075254D01*
X120598054Y-92225916D01*
X121031832Y-92400549D01*
X122140249Y-92838130D01*
X122867981Y-93133943D01*
X123193836Y-93275531D01*
X123495976Y-93413938D01*
X123775619Y-93549939D01*
X124033984Y-93684308D01*
X124272290Y-93817818D01*
X124491755Y-93951244D01*
X124693599Y-94085359D01*
X124879039Y-94220938D01*
X125049296Y-94358753D01*
X125205588Y-94499580D01*
X125349132Y-94644192D01*
X125481150Y-94793364D01*
X125602858Y-94947868D01*
X125715476Y-95108479D01*
X125734359Y-95136397D01*
X125753160Y-95163001D01*
X125771763Y-95188174D01*
X125790051Y-95211802D01*
X125807908Y-95233769D01*
X125825218Y-95253961D01*
X125841863Y-95272263D01*
X125857728Y-95288560D01*
X125872697Y-95302735D01*
X125886652Y-95314676D01*
X125899477Y-95324265D01*
X125911056Y-95331389D01*
X125921272Y-95335932D01*
X125925833Y-95337199D01*
X125930010Y-95337779D01*
X125933787Y-95337655D01*
X125937152Y-95336815D01*
X125940088Y-95335243D01*
X125942582Y-95332925D01*
X125947663Y-95324853D01*
X125953781Y-95311622D01*
X125960854Y-95293528D01*
X125968800Y-95270870D01*
X125986985Y-95213054D01*
X126007678Y-95140558D01*
X126030224Y-95055768D01*
X126053969Y-94961067D01*
X126078256Y-94858842D01*
X126102429Y-94751477D01*
X126189779Y-94371641D01*
X126294781Y-93947219D01*
X126414148Y-93490021D01*
X126544594Y-93011856D01*
X126682832Y-92524536D01*
X126825576Y-92039869D01*
X126969540Y-91569667D01*
X127111435Y-91125739D01*
X127422651Y-90220707D01*
X127748004Y-89362851D01*
X128087043Y-88552769D01*
X128439316Y-87791057D01*
X128804371Y-87078313D01*
X129181754Y-86415135D01*
X129571014Y-85802120D01*
X129971699Y-85239866D01*
X130383356Y-84728970D01*
X130805533Y-84270029D01*
X131237777Y-83863642D01*
X131679637Y-83510405D01*
X132130660Y-83210916D01*
X132590394Y-82965773D01*
X133058386Y-82775573D01*
X133534185Y-82640914D01*
X133679234Y-82611873D01*
X133828535Y-82588242D01*
X133981551Y-82569985D01*
X134137744Y-82557067D01*
X134296575Y-82549454D01*
X134457506Y-82547110D01*
X134620000Y-82550000D01*
M02*
