%TF.GenerationSoftware,KiCad,Pcbnew,8.0.6+1*%
%TF.CreationDate,2024-12-11T00:22:32+00:00*%
%TF.ProjectId,Dino-Blinker,44696e6f-2d42-46c6-996e-6b65722e6b69,rev?*%
%TF.SameCoordinates,Original*%
%TF.FileFunction,Legend,Top*%
%TF.FilePolarity,Positive*%
%FSLAX46Y46*%
G04 Gerber Fmt 4.6, Leading zero omitted, Abs format (unit mm)*
G04 Created by KiCad (PCBNEW 8.0.6+1) date 2024-12-11 00:22:32*
%MOMM*%
%LPD*%
G01*
G04 APERTURE LIST*
%ADD10C,0.150000*%
%ADD11C,0.120000*%
G04 APERTURE END LIST*
D10*
X124364819Y-103512857D02*
X123888628Y-103846190D01*
X124364819Y-104084285D02*
X123364819Y-104084285D01*
X123364819Y-104084285D02*
X123364819Y-103703333D01*
X123364819Y-103703333D02*
X123412438Y-103608095D01*
X123412438Y-103608095D02*
X123460057Y-103560476D01*
X123460057Y-103560476D02*
X123555295Y-103512857D01*
X123555295Y-103512857D02*
X123698152Y-103512857D01*
X123698152Y-103512857D02*
X123793390Y-103560476D01*
X123793390Y-103560476D02*
X123841009Y-103608095D01*
X123841009Y-103608095D02*
X123888628Y-103703333D01*
X123888628Y-103703333D02*
X123888628Y-104084285D01*
X124364819Y-102560476D02*
X124364819Y-103131904D01*
X124364819Y-102846190D02*
X123364819Y-102846190D01*
X123364819Y-102846190D02*
X123507676Y-102941428D01*
X123507676Y-102941428D02*
X123602914Y-103036666D01*
X123602914Y-103036666D02*
X123650533Y-103131904D01*
X123460057Y-102179523D02*
X123412438Y-102131904D01*
X123412438Y-102131904D02*
X123364819Y-102036666D01*
X123364819Y-102036666D02*
X123364819Y-101798571D01*
X123364819Y-101798571D02*
X123412438Y-101703333D01*
X123412438Y-101703333D02*
X123460057Y-101655714D01*
X123460057Y-101655714D02*
X123555295Y-101608095D01*
X123555295Y-101608095D02*
X123650533Y-101608095D01*
X123650533Y-101608095D02*
X123793390Y-101655714D01*
X123793390Y-101655714D02*
X124364819Y-102227142D01*
X124364819Y-102227142D02*
X124364819Y-101608095D01*
X128383333Y-97524819D02*
X128050000Y-97048628D01*
X127811905Y-97524819D02*
X127811905Y-96524819D01*
X127811905Y-96524819D02*
X128192857Y-96524819D01*
X128192857Y-96524819D02*
X128288095Y-96572438D01*
X128288095Y-96572438D02*
X128335714Y-96620057D01*
X128335714Y-96620057D02*
X128383333Y-96715295D01*
X128383333Y-96715295D02*
X128383333Y-96858152D01*
X128383333Y-96858152D02*
X128335714Y-96953390D01*
X128335714Y-96953390D02*
X128288095Y-97001009D01*
X128288095Y-97001009D02*
X128192857Y-97048628D01*
X128192857Y-97048628D02*
X127811905Y-97048628D01*
X129240476Y-96858152D02*
X129240476Y-97524819D01*
X129002381Y-96477200D02*
X128764286Y-97191485D01*
X128764286Y-97191485D02*
X129383333Y-97191485D01*
X135794819Y-90336666D02*
X135318628Y-90669999D01*
X135794819Y-90908094D02*
X134794819Y-90908094D01*
X134794819Y-90908094D02*
X134794819Y-90527142D01*
X134794819Y-90527142D02*
X134842438Y-90431904D01*
X134842438Y-90431904D02*
X134890057Y-90384285D01*
X134890057Y-90384285D02*
X134985295Y-90336666D01*
X134985295Y-90336666D02*
X135128152Y-90336666D01*
X135128152Y-90336666D02*
X135223390Y-90384285D01*
X135223390Y-90384285D02*
X135271009Y-90431904D01*
X135271009Y-90431904D02*
X135318628Y-90527142D01*
X135318628Y-90527142D02*
X135318628Y-90908094D01*
X134794819Y-90003332D02*
X134794819Y-89336666D01*
X134794819Y-89336666D02*
X135794819Y-89765237D01*
X128629580Y-100496666D02*
X128677200Y-100544285D01*
X128677200Y-100544285D02*
X128724819Y-100687142D01*
X128724819Y-100687142D02*
X128724819Y-100782380D01*
X128724819Y-100782380D02*
X128677200Y-100925237D01*
X128677200Y-100925237D02*
X128581961Y-101020475D01*
X128581961Y-101020475D02*
X128486723Y-101068094D01*
X128486723Y-101068094D02*
X128296247Y-101115713D01*
X128296247Y-101115713D02*
X128153390Y-101115713D01*
X128153390Y-101115713D02*
X127962914Y-101068094D01*
X127962914Y-101068094D02*
X127867676Y-101020475D01*
X127867676Y-101020475D02*
X127772438Y-100925237D01*
X127772438Y-100925237D02*
X127724819Y-100782380D01*
X127724819Y-100782380D02*
X127724819Y-100687142D01*
X127724819Y-100687142D02*
X127772438Y-100544285D01*
X127772438Y-100544285D02*
X127820057Y-100496666D01*
X128724819Y-99544285D02*
X128724819Y-100115713D01*
X128724819Y-99829999D02*
X127724819Y-99829999D01*
X127724819Y-99829999D02*
X127867676Y-99925237D01*
X127867676Y-99925237D02*
X127962914Y-100020475D01*
X127962914Y-100020475D02*
X128010533Y-100115713D01*
X125529693Y-98633517D02*
X124822587Y-97926410D01*
X124822587Y-97926410D02*
X124990945Y-97758051D01*
X124990945Y-97758051D02*
X125125632Y-97690708D01*
X125125632Y-97690708D02*
X125260319Y-97690708D01*
X125260319Y-97690708D02*
X125361335Y-97724380D01*
X125361335Y-97724380D02*
X125529693Y-97825395D01*
X125529693Y-97825395D02*
X125630709Y-97926410D01*
X125630709Y-97926410D02*
X125731724Y-98094769D01*
X125731724Y-98094769D02*
X125765396Y-98195784D01*
X125765396Y-98195784D02*
X125765396Y-98330471D01*
X125765396Y-98330471D02*
X125698052Y-98465158D01*
X125698052Y-98465158D02*
X125529693Y-98633517D01*
X126068441Y-97151960D02*
X126539846Y-97623364D01*
X125630709Y-97050945D02*
X125967426Y-97724380D01*
X125967426Y-97724380D02*
X126405159Y-97286647D01*
X148154819Y-93693094D02*
X147154819Y-93693094D01*
X147154819Y-93693094D02*
X147154819Y-93454999D01*
X147154819Y-93454999D02*
X147202438Y-93312142D01*
X147202438Y-93312142D02*
X147297676Y-93216904D01*
X147297676Y-93216904D02*
X147392914Y-93169285D01*
X147392914Y-93169285D02*
X147583390Y-93121666D01*
X147583390Y-93121666D02*
X147726247Y-93121666D01*
X147726247Y-93121666D02*
X147916723Y-93169285D01*
X147916723Y-93169285D02*
X148011961Y-93216904D01*
X148011961Y-93216904D02*
X148107200Y-93312142D01*
X148107200Y-93312142D02*
X148154819Y-93454999D01*
X148154819Y-93454999D02*
X148154819Y-93693094D01*
X148154819Y-92645475D02*
X148154819Y-92454999D01*
X148154819Y-92454999D02*
X148107200Y-92359761D01*
X148107200Y-92359761D02*
X148059580Y-92312142D01*
X148059580Y-92312142D02*
X147916723Y-92216904D01*
X147916723Y-92216904D02*
X147726247Y-92169285D01*
X147726247Y-92169285D02*
X147345295Y-92169285D01*
X147345295Y-92169285D02*
X147250057Y-92216904D01*
X147250057Y-92216904D02*
X147202438Y-92264523D01*
X147202438Y-92264523D02*
X147154819Y-92359761D01*
X147154819Y-92359761D02*
X147154819Y-92550237D01*
X147154819Y-92550237D02*
X147202438Y-92645475D01*
X147202438Y-92645475D02*
X147250057Y-92693094D01*
X147250057Y-92693094D02*
X147345295Y-92740713D01*
X147345295Y-92740713D02*
X147583390Y-92740713D01*
X147583390Y-92740713D02*
X147678628Y-92693094D01*
X147678628Y-92693094D02*
X147726247Y-92645475D01*
X147726247Y-92645475D02*
X147773866Y-92550237D01*
X147773866Y-92550237D02*
X147773866Y-92359761D01*
X147773866Y-92359761D02*
X147726247Y-92264523D01*
X147726247Y-92264523D02*
X147678628Y-92216904D01*
X147678628Y-92216904D02*
X147583390Y-92169285D01*
X142784819Y-113083333D02*
X143499104Y-113083333D01*
X143499104Y-113083333D02*
X143641961Y-113130952D01*
X143641961Y-113130952D02*
X143737200Y-113226190D01*
X143737200Y-113226190D02*
X143784819Y-113369047D01*
X143784819Y-113369047D02*
X143784819Y-113464285D01*
X143784819Y-112083333D02*
X143784819Y-112654761D01*
X143784819Y-112369047D02*
X142784819Y-112369047D01*
X142784819Y-112369047D02*
X142927676Y-112464285D01*
X142927676Y-112464285D02*
X143022914Y-112559523D01*
X143022914Y-112559523D02*
X143070533Y-112654761D01*
X133261905Y-83894819D02*
X133261905Y-82894819D01*
X133261905Y-82894819D02*
X133500000Y-82894819D01*
X133500000Y-82894819D02*
X133642857Y-82942438D01*
X133642857Y-82942438D02*
X133738095Y-83037676D01*
X133738095Y-83037676D02*
X133785714Y-83132914D01*
X133785714Y-83132914D02*
X133833333Y-83323390D01*
X133833333Y-83323390D02*
X133833333Y-83466247D01*
X133833333Y-83466247D02*
X133785714Y-83656723D01*
X133785714Y-83656723D02*
X133738095Y-83751961D01*
X133738095Y-83751961D02*
X133642857Y-83847200D01*
X133642857Y-83847200D02*
X133500000Y-83894819D01*
X133500000Y-83894819D02*
X133261905Y-83894819D01*
X134166667Y-82894819D02*
X134833333Y-82894819D01*
X134833333Y-82894819D02*
X134404762Y-83894819D01*
X133254819Y-93866666D02*
X132778628Y-94199999D01*
X133254819Y-94438094D02*
X132254819Y-94438094D01*
X132254819Y-94438094D02*
X132254819Y-94057142D01*
X132254819Y-94057142D02*
X132302438Y-93961904D01*
X132302438Y-93961904D02*
X132350057Y-93914285D01*
X132350057Y-93914285D02*
X132445295Y-93866666D01*
X132445295Y-93866666D02*
X132588152Y-93866666D01*
X132588152Y-93866666D02*
X132683390Y-93914285D01*
X132683390Y-93914285D02*
X132731009Y-93961904D01*
X132731009Y-93961904D02*
X132778628Y-94057142D01*
X132778628Y-94057142D02*
X132778628Y-94438094D01*
X132254819Y-93009523D02*
X132254819Y-93199999D01*
X132254819Y-93199999D02*
X132302438Y-93295237D01*
X132302438Y-93295237D02*
X132350057Y-93342856D01*
X132350057Y-93342856D02*
X132492914Y-93438094D01*
X132492914Y-93438094D02*
X132683390Y-93485713D01*
X132683390Y-93485713D02*
X133064342Y-93485713D01*
X133064342Y-93485713D02*
X133159580Y-93438094D01*
X133159580Y-93438094D02*
X133207200Y-93390475D01*
X133207200Y-93390475D02*
X133254819Y-93295237D01*
X133254819Y-93295237D02*
X133254819Y-93104761D01*
X133254819Y-93104761D02*
X133207200Y-93009523D01*
X133207200Y-93009523D02*
X133159580Y-92961904D01*
X133159580Y-92961904D02*
X133064342Y-92914285D01*
X133064342Y-92914285D02*
X132826247Y-92914285D01*
X132826247Y-92914285D02*
X132731009Y-92961904D01*
X132731009Y-92961904D02*
X132683390Y-93009523D01*
X132683390Y-93009523D02*
X132635771Y-93104761D01*
X132635771Y-93104761D02*
X132635771Y-93295237D01*
X132635771Y-93295237D02*
X132683390Y-93390475D01*
X132683390Y-93390475D02*
X132731009Y-93438094D01*
X132731009Y-93438094D02*
X132826247Y-93485713D01*
X153234819Y-95439285D02*
X152234819Y-95439285D01*
X152234819Y-95439285D02*
X152234819Y-95201190D01*
X152234819Y-95201190D02*
X152282438Y-95058333D01*
X152282438Y-95058333D02*
X152377676Y-94963095D01*
X152377676Y-94963095D02*
X152472914Y-94915476D01*
X152472914Y-94915476D02*
X152663390Y-94867857D01*
X152663390Y-94867857D02*
X152806247Y-94867857D01*
X152806247Y-94867857D02*
X152996723Y-94915476D01*
X152996723Y-94915476D02*
X153091961Y-94963095D01*
X153091961Y-94963095D02*
X153187200Y-95058333D01*
X153187200Y-95058333D02*
X153234819Y-95201190D01*
X153234819Y-95201190D02*
X153234819Y-95439285D01*
X153234819Y-93915476D02*
X153234819Y-94486904D01*
X153234819Y-94201190D02*
X152234819Y-94201190D01*
X152234819Y-94201190D02*
X152377676Y-94296428D01*
X152377676Y-94296428D02*
X152472914Y-94391666D01*
X152472914Y-94391666D02*
X152520533Y-94486904D01*
X152234819Y-93296428D02*
X152234819Y-93201190D01*
X152234819Y-93201190D02*
X152282438Y-93105952D01*
X152282438Y-93105952D02*
X152330057Y-93058333D01*
X152330057Y-93058333D02*
X152425295Y-93010714D01*
X152425295Y-93010714D02*
X152615771Y-92963095D01*
X152615771Y-92963095D02*
X152853866Y-92963095D01*
X152853866Y-92963095D02*
X153044342Y-93010714D01*
X153044342Y-93010714D02*
X153139580Y-93058333D01*
X153139580Y-93058333D02*
X153187200Y-93105952D01*
X153187200Y-93105952D02*
X153234819Y-93201190D01*
X153234819Y-93201190D02*
X153234819Y-93296428D01*
X153234819Y-93296428D02*
X153187200Y-93391666D01*
X153187200Y-93391666D02*
X153139580Y-93439285D01*
X153139580Y-93439285D02*
X153044342Y-93486904D01*
X153044342Y-93486904D02*
X152853866Y-93534523D01*
X152853866Y-93534523D02*
X152615771Y-93534523D01*
X152615771Y-93534523D02*
X152425295Y-93486904D01*
X152425295Y-93486904D02*
X152330057Y-93439285D01*
X152330057Y-93439285D02*
X152282438Y-93391666D01*
X152282438Y-93391666D02*
X152234819Y-93296428D01*
X154674819Y-104586666D02*
X154198628Y-104919999D01*
X154674819Y-105158094D02*
X153674819Y-105158094D01*
X153674819Y-105158094D02*
X153674819Y-104777142D01*
X153674819Y-104777142D02*
X153722438Y-104681904D01*
X153722438Y-104681904D02*
X153770057Y-104634285D01*
X153770057Y-104634285D02*
X153865295Y-104586666D01*
X153865295Y-104586666D02*
X154008152Y-104586666D01*
X154008152Y-104586666D02*
X154103390Y-104634285D01*
X154103390Y-104634285D02*
X154151009Y-104681904D01*
X154151009Y-104681904D02*
X154198628Y-104777142D01*
X154198628Y-104777142D02*
X154198628Y-105158094D01*
X154674819Y-103634285D02*
X154674819Y-104205713D01*
X154674819Y-103919999D02*
X153674819Y-103919999D01*
X153674819Y-103919999D02*
X153817676Y-104015237D01*
X153817676Y-104015237D02*
X153912914Y-104110475D01*
X153912914Y-104110475D02*
X153960533Y-104205713D01*
X144684819Y-96686666D02*
X144208628Y-97019999D01*
X144684819Y-97258094D02*
X143684819Y-97258094D01*
X143684819Y-97258094D02*
X143684819Y-96877142D01*
X143684819Y-96877142D02*
X143732438Y-96781904D01*
X143732438Y-96781904D02*
X143780057Y-96734285D01*
X143780057Y-96734285D02*
X143875295Y-96686666D01*
X143875295Y-96686666D02*
X144018152Y-96686666D01*
X144018152Y-96686666D02*
X144113390Y-96734285D01*
X144113390Y-96734285D02*
X144161009Y-96781904D01*
X144161009Y-96781904D02*
X144208628Y-96877142D01*
X144208628Y-96877142D02*
X144208628Y-97258094D01*
X144684819Y-96210475D02*
X144684819Y-96019999D01*
X144684819Y-96019999D02*
X144637200Y-95924761D01*
X144637200Y-95924761D02*
X144589580Y-95877142D01*
X144589580Y-95877142D02*
X144446723Y-95781904D01*
X144446723Y-95781904D02*
X144256247Y-95734285D01*
X144256247Y-95734285D02*
X143875295Y-95734285D01*
X143875295Y-95734285D02*
X143780057Y-95781904D01*
X143780057Y-95781904D02*
X143732438Y-95829523D01*
X143732438Y-95829523D02*
X143684819Y-95924761D01*
X143684819Y-95924761D02*
X143684819Y-96115237D01*
X143684819Y-96115237D02*
X143732438Y-96210475D01*
X143732438Y-96210475D02*
X143780057Y-96258094D01*
X143780057Y-96258094D02*
X143875295Y-96305713D01*
X143875295Y-96305713D02*
X144113390Y-96305713D01*
X144113390Y-96305713D02*
X144208628Y-96258094D01*
X144208628Y-96258094D02*
X144256247Y-96210475D01*
X144256247Y-96210475D02*
X144303866Y-96115237D01*
X144303866Y-96115237D02*
X144303866Y-95924761D01*
X144303866Y-95924761D02*
X144256247Y-95829523D01*
X144256247Y-95829523D02*
X144208628Y-95781904D01*
X144208628Y-95781904D02*
X144113390Y-95734285D01*
X159584819Y-113523094D02*
X158584819Y-113523094D01*
X158584819Y-113523094D02*
X158584819Y-113284999D01*
X158584819Y-113284999D02*
X158632438Y-113142142D01*
X158632438Y-113142142D02*
X158727676Y-113046904D01*
X158727676Y-113046904D02*
X158822914Y-112999285D01*
X158822914Y-112999285D02*
X159013390Y-112951666D01*
X159013390Y-112951666D02*
X159156247Y-112951666D01*
X159156247Y-112951666D02*
X159346723Y-112999285D01*
X159346723Y-112999285D02*
X159441961Y-113046904D01*
X159441961Y-113046904D02*
X159537200Y-113142142D01*
X159537200Y-113142142D02*
X159584819Y-113284999D01*
X159584819Y-113284999D02*
X159584819Y-113523094D01*
X159584819Y-111999285D02*
X159584819Y-112570713D01*
X159584819Y-112284999D02*
X158584819Y-112284999D01*
X158584819Y-112284999D02*
X158727676Y-112380237D01*
X158727676Y-112380237D02*
X158822914Y-112475475D01*
X158822914Y-112475475D02*
X158870533Y-112570713D01*
X130167142Y-104547682D02*
X129833809Y-104071491D01*
X129595714Y-104547682D02*
X129595714Y-103547682D01*
X129595714Y-103547682D02*
X129976666Y-103547682D01*
X129976666Y-103547682D02*
X130071904Y-103595301D01*
X130071904Y-103595301D02*
X130119523Y-103642920D01*
X130119523Y-103642920D02*
X130167142Y-103738158D01*
X130167142Y-103738158D02*
X130167142Y-103881015D01*
X130167142Y-103881015D02*
X130119523Y-103976253D01*
X130119523Y-103976253D02*
X130071904Y-104023872D01*
X130071904Y-104023872D02*
X129976666Y-104071491D01*
X129976666Y-104071491D02*
X129595714Y-104071491D01*
X131119523Y-104547682D02*
X130548095Y-104547682D01*
X130833809Y-104547682D02*
X130833809Y-103547682D01*
X130833809Y-103547682D02*
X130738571Y-103690539D01*
X130738571Y-103690539D02*
X130643333Y-103785777D01*
X130643333Y-103785777D02*
X130548095Y-103833396D01*
X132071904Y-104547682D02*
X131500476Y-104547682D01*
X131786190Y-104547682D02*
X131786190Y-103547682D01*
X131786190Y-103547682D02*
X131690952Y-103690539D01*
X131690952Y-103690539D02*
X131595714Y-103785777D01*
X131595714Y-103785777D02*
X131500476Y-103833396D01*
X157244819Y-97463094D02*
X156244819Y-97463094D01*
X156244819Y-97463094D02*
X156244819Y-97224999D01*
X156244819Y-97224999D02*
X156292438Y-97082142D01*
X156292438Y-97082142D02*
X156387676Y-96986904D01*
X156387676Y-96986904D02*
X156482914Y-96939285D01*
X156482914Y-96939285D02*
X156673390Y-96891666D01*
X156673390Y-96891666D02*
X156816247Y-96891666D01*
X156816247Y-96891666D02*
X157006723Y-96939285D01*
X157006723Y-96939285D02*
X157101961Y-96986904D01*
X157101961Y-96986904D02*
X157197200Y-97082142D01*
X157197200Y-97082142D02*
X157244819Y-97224999D01*
X157244819Y-97224999D02*
X157244819Y-97463094D01*
X156673390Y-96320237D02*
X156625771Y-96415475D01*
X156625771Y-96415475D02*
X156578152Y-96463094D01*
X156578152Y-96463094D02*
X156482914Y-96510713D01*
X156482914Y-96510713D02*
X156435295Y-96510713D01*
X156435295Y-96510713D02*
X156340057Y-96463094D01*
X156340057Y-96463094D02*
X156292438Y-96415475D01*
X156292438Y-96415475D02*
X156244819Y-96320237D01*
X156244819Y-96320237D02*
X156244819Y-96129761D01*
X156244819Y-96129761D02*
X156292438Y-96034523D01*
X156292438Y-96034523D02*
X156340057Y-95986904D01*
X156340057Y-95986904D02*
X156435295Y-95939285D01*
X156435295Y-95939285D02*
X156482914Y-95939285D01*
X156482914Y-95939285D02*
X156578152Y-95986904D01*
X156578152Y-95986904D02*
X156625771Y-96034523D01*
X156625771Y-96034523D02*
X156673390Y-96129761D01*
X156673390Y-96129761D02*
X156673390Y-96320237D01*
X156673390Y-96320237D02*
X156721009Y-96415475D01*
X156721009Y-96415475D02*
X156768628Y-96463094D01*
X156768628Y-96463094D02*
X156863866Y-96510713D01*
X156863866Y-96510713D02*
X157054342Y-96510713D01*
X157054342Y-96510713D02*
X157149580Y-96463094D01*
X157149580Y-96463094D02*
X157197200Y-96415475D01*
X157197200Y-96415475D02*
X157244819Y-96320237D01*
X157244819Y-96320237D02*
X157244819Y-96129761D01*
X157244819Y-96129761D02*
X157197200Y-96034523D01*
X157197200Y-96034523D02*
X157149580Y-95986904D01*
X157149580Y-95986904D02*
X157054342Y-95939285D01*
X157054342Y-95939285D02*
X156863866Y-95939285D01*
X156863866Y-95939285D02*
X156768628Y-95986904D01*
X156768628Y-95986904D02*
X156721009Y-96034523D01*
X156721009Y-96034523D02*
X156673390Y-96129761D01*
X150864819Y-104586666D02*
X150388628Y-104919999D01*
X150864819Y-105158094D02*
X149864819Y-105158094D01*
X149864819Y-105158094D02*
X149864819Y-104777142D01*
X149864819Y-104777142D02*
X149912438Y-104681904D01*
X149912438Y-104681904D02*
X149960057Y-104634285D01*
X149960057Y-104634285D02*
X150055295Y-104586666D01*
X150055295Y-104586666D02*
X150198152Y-104586666D01*
X150198152Y-104586666D02*
X150293390Y-104634285D01*
X150293390Y-104634285D02*
X150341009Y-104681904D01*
X150341009Y-104681904D02*
X150388628Y-104777142D01*
X150388628Y-104777142D02*
X150388628Y-105158094D01*
X149960057Y-104205713D02*
X149912438Y-104158094D01*
X149912438Y-104158094D02*
X149864819Y-104062856D01*
X149864819Y-104062856D02*
X149864819Y-103824761D01*
X149864819Y-103824761D02*
X149912438Y-103729523D01*
X149912438Y-103729523D02*
X149960057Y-103681904D01*
X149960057Y-103681904D02*
X150055295Y-103634285D01*
X150055295Y-103634285D02*
X150150533Y-103634285D01*
X150150533Y-103634285D02*
X150293390Y-103681904D01*
X150293390Y-103681904D02*
X150864819Y-104253332D01*
X150864819Y-104253332D02*
X150864819Y-103634285D01*
X154504819Y-110983094D02*
X153504819Y-110983094D01*
X153504819Y-110983094D02*
X153504819Y-110744999D01*
X153504819Y-110744999D02*
X153552438Y-110602142D01*
X153552438Y-110602142D02*
X153647676Y-110506904D01*
X153647676Y-110506904D02*
X153742914Y-110459285D01*
X153742914Y-110459285D02*
X153933390Y-110411666D01*
X153933390Y-110411666D02*
X154076247Y-110411666D01*
X154076247Y-110411666D02*
X154266723Y-110459285D01*
X154266723Y-110459285D02*
X154361961Y-110506904D01*
X154361961Y-110506904D02*
X154457200Y-110602142D01*
X154457200Y-110602142D02*
X154504819Y-110744999D01*
X154504819Y-110744999D02*
X154504819Y-110983094D01*
X153600057Y-110030713D02*
X153552438Y-109983094D01*
X153552438Y-109983094D02*
X153504819Y-109887856D01*
X153504819Y-109887856D02*
X153504819Y-109649761D01*
X153504819Y-109649761D02*
X153552438Y-109554523D01*
X153552438Y-109554523D02*
X153600057Y-109506904D01*
X153600057Y-109506904D02*
X153695295Y-109459285D01*
X153695295Y-109459285D02*
X153790533Y-109459285D01*
X153790533Y-109459285D02*
X153933390Y-109506904D01*
X153933390Y-109506904D02*
X154504819Y-110078332D01*
X154504819Y-110078332D02*
X154504819Y-109459285D01*
X136993333Y-105769580D02*
X136945714Y-105817200D01*
X136945714Y-105817200D02*
X136802857Y-105864819D01*
X136802857Y-105864819D02*
X136707619Y-105864819D01*
X136707619Y-105864819D02*
X136564762Y-105817200D01*
X136564762Y-105817200D02*
X136469524Y-105721961D01*
X136469524Y-105721961D02*
X136421905Y-105626723D01*
X136421905Y-105626723D02*
X136374286Y-105436247D01*
X136374286Y-105436247D02*
X136374286Y-105293390D01*
X136374286Y-105293390D02*
X136421905Y-105102914D01*
X136421905Y-105102914D02*
X136469524Y-105007676D01*
X136469524Y-105007676D02*
X136564762Y-104912438D01*
X136564762Y-104912438D02*
X136707619Y-104864819D01*
X136707619Y-104864819D02*
X136802857Y-104864819D01*
X136802857Y-104864819D02*
X136945714Y-104912438D01*
X136945714Y-104912438D02*
X136993333Y-104960057D01*
X137374286Y-104960057D02*
X137421905Y-104912438D01*
X137421905Y-104912438D02*
X137517143Y-104864819D01*
X137517143Y-104864819D02*
X137755238Y-104864819D01*
X137755238Y-104864819D02*
X137850476Y-104912438D01*
X137850476Y-104912438D02*
X137898095Y-104960057D01*
X137898095Y-104960057D02*
X137945714Y-105055295D01*
X137945714Y-105055295D02*
X137945714Y-105150533D01*
X137945714Y-105150533D02*
X137898095Y-105293390D01*
X137898095Y-105293390D02*
X137326667Y-105864819D01*
X137326667Y-105864819D02*
X137945714Y-105864819D01*
X160133333Y-102774819D02*
X159800000Y-102298628D01*
X159561905Y-102774819D02*
X159561905Y-101774819D01*
X159561905Y-101774819D02*
X159942857Y-101774819D01*
X159942857Y-101774819D02*
X160038095Y-101822438D01*
X160038095Y-101822438D02*
X160085714Y-101870057D01*
X160085714Y-101870057D02*
X160133333Y-101965295D01*
X160133333Y-101965295D02*
X160133333Y-102108152D01*
X160133333Y-102108152D02*
X160085714Y-102203390D01*
X160085714Y-102203390D02*
X160038095Y-102251009D01*
X160038095Y-102251009D02*
X159942857Y-102298628D01*
X159942857Y-102298628D02*
X159561905Y-102298628D01*
X160466667Y-101774819D02*
X161085714Y-101774819D01*
X161085714Y-101774819D02*
X160752381Y-102155771D01*
X160752381Y-102155771D02*
X160895238Y-102155771D01*
X160895238Y-102155771D02*
X160990476Y-102203390D01*
X160990476Y-102203390D02*
X161038095Y-102251009D01*
X161038095Y-102251009D02*
X161085714Y-102346247D01*
X161085714Y-102346247D02*
X161085714Y-102584342D01*
X161085714Y-102584342D02*
X161038095Y-102679580D01*
X161038095Y-102679580D02*
X160990476Y-102727200D01*
X160990476Y-102727200D02*
X160895238Y-102774819D01*
X160895238Y-102774819D02*
X160609524Y-102774819D01*
X160609524Y-102774819D02*
X160514286Y-102727200D01*
X160514286Y-102727200D02*
X160466667Y-102679580D01*
X149764819Y-99422857D02*
X149288628Y-99756190D01*
X149764819Y-99994285D02*
X148764819Y-99994285D01*
X148764819Y-99994285D02*
X148764819Y-99613333D01*
X148764819Y-99613333D02*
X148812438Y-99518095D01*
X148812438Y-99518095D02*
X148860057Y-99470476D01*
X148860057Y-99470476D02*
X148955295Y-99422857D01*
X148955295Y-99422857D02*
X149098152Y-99422857D01*
X149098152Y-99422857D02*
X149193390Y-99470476D01*
X149193390Y-99470476D02*
X149241009Y-99518095D01*
X149241009Y-99518095D02*
X149288628Y-99613333D01*
X149288628Y-99613333D02*
X149288628Y-99994285D01*
X149764819Y-98470476D02*
X149764819Y-99041904D01*
X149764819Y-98756190D02*
X148764819Y-98756190D01*
X148764819Y-98756190D02*
X148907676Y-98851428D01*
X148907676Y-98851428D02*
X149002914Y-98946666D01*
X149002914Y-98946666D02*
X149050533Y-99041904D01*
X148764819Y-97851428D02*
X148764819Y-97756190D01*
X148764819Y-97756190D02*
X148812438Y-97660952D01*
X148812438Y-97660952D02*
X148860057Y-97613333D01*
X148860057Y-97613333D02*
X148955295Y-97565714D01*
X148955295Y-97565714D02*
X149145771Y-97518095D01*
X149145771Y-97518095D02*
X149383866Y-97518095D01*
X149383866Y-97518095D02*
X149574342Y-97565714D01*
X149574342Y-97565714D02*
X149669580Y-97613333D01*
X149669580Y-97613333D02*
X149717200Y-97660952D01*
X149717200Y-97660952D02*
X149764819Y-97756190D01*
X149764819Y-97756190D02*
X149764819Y-97851428D01*
X149764819Y-97851428D02*
X149717200Y-97946666D01*
X149717200Y-97946666D02*
X149669580Y-97994285D01*
X149669580Y-97994285D02*
X149574342Y-98041904D01*
X149574342Y-98041904D02*
X149383866Y-98089523D01*
X149383866Y-98089523D02*
X149145771Y-98089523D01*
X149145771Y-98089523D02*
X148955295Y-98041904D01*
X148955295Y-98041904D02*
X148860057Y-97994285D01*
X148860057Y-97994285D02*
X148812438Y-97946666D01*
X148812438Y-97946666D02*
X148764819Y-97851428D01*
X129826905Y-87704819D02*
X129826905Y-86704819D01*
X129826905Y-86704819D02*
X130065000Y-86704819D01*
X130065000Y-86704819D02*
X130207857Y-86752438D01*
X130207857Y-86752438D02*
X130303095Y-86847676D01*
X130303095Y-86847676D02*
X130350714Y-86942914D01*
X130350714Y-86942914D02*
X130398333Y-87133390D01*
X130398333Y-87133390D02*
X130398333Y-87276247D01*
X130398333Y-87276247D02*
X130350714Y-87466723D01*
X130350714Y-87466723D02*
X130303095Y-87561961D01*
X130303095Y-87561961D02*
X130207857Y-87657200D01*
X130207857Y-87657200D02*
X130065000Y-87704819D01*
X130065000Y-87704819D02*
X129826905Y-87704819D01*
X131255476Y-86704819D02*
X131065000Y-86704819D01*
X131065000Y-86704819D02*
X130969762Y-86752438D01*
X130969762Y-86752438D02*
X130922143Y-86800057D01*
X130922143Y-86800057D02*
X130826905Y-86942914D01*
X130826905Y-86942914D02*
X130779286Y-87133390D01*
X130779286Y-87133390D02*
X130779286Y-87514342D01*
X130779286Y-87514342D02*
X130826905Y-87609580D01*
X130826905Y-87609580D02*
X130874524Y-87657200D01*
X130874524Y-87657200D02*
X130969762Y-87704819D01*
X130969762Y-87704819D02*
X131160238Y-87704819D01*
X131160238Y-87704819D02*
X131255476Y-87657200D01*
X131255476Y-87657200D02*
X131303095Y-87609580D01*
X131303095Y-87609580D02*
X131350714Y-87514342D01*
X131350714Y-87514342D02*
X131350714Y-87276247D01*
X131350714Y-87276247D02*
X131303095Y-87181009D01*
X131303095Y-87181009D02*
X131255476Y-87133390D01*
X131255476Y-87133390D02*
X131160238Y-87085771D01*
X131160238Y-87085771D02*
X130969762Y-87085771D01*
X130969762Y-87085771D02*
X130874524Y-87133390D01*
X130874524Y-87133390D02*
X130826905Y-87181009D01*
X130826905Y-87181009D02*
X130779286Y-87276247D01*
X144784819Y-101941189D02*
X143784819Y-101941189D01*
X144689580Y-100893571D02*
X144737200Y-100941190D01*
X144737200Y-100941190D02*
X144784819Y-101084047D01*
X144784819Y-101084047D02*
X144784819Y-101179285D01*
X144784819Y-101179285D02*
X144737200Y-101322142D01*
X144737200Y-101322142D02*
X144641961Y-101417380D01*
X144641961Y-101417380D02*
X144546723Y-101464999D01*
X144546723Y-101464999D02*
X144356247Y-101512618D01*
X144356247Y-101512618D02*
X144213390Y-101512618D01*
X144213390Y-101512618D02*
X144022914Y-101464999D01*
X144022914Y-101464999D02*
X143927676Y-101417380D01*
X143927676Y-101417380D02*
X143832438Y-101322142D01*
X143832438Y-101322142D02*
X143784819Y-101179285D01*
X143784819Y-101179285D02*
X143784819Y-101084047D01*
X143784819Y-101084047D02*
X143832438Y-100941190D01*
X143832438Y-100941190D02*
X143880057Y-100893571D01*
X144784819Y-99941190D02*
X144784819Y-100512618D01*
X144784819Y-100226904D02*
X143784819Y-100226904D01*
X143784819Y-100226904D02*
X143927676Y-100322142D01*
X143927676Y-100322142D02*
X144022914Y-100417380D01*
X144022914Y-100417380D02*
X144070533Y-100512618D01*
X120763333Y-106414819D02*
X120430000Y-105938628D01*
X120191905Y-106414819D02*
X120191905Y-105414819D01*
X120191905Y-105414819D02*
X120572857Y-105414819D01*
X120572857Y-105414819D02*
X120668095Y-105462438D01*
X120668095Y-105462438D02*
X120715714Y-105510057D01*
X120715714Y-105510057D02*
X120763333Y-105605295D01*
X120763333Y-105605295D02*
X120763333Y-105748152D01*
X120763333Y-105748152D02*
X120715714Y-105843390D01*
X120715714Y-105843390D02*
X120668095Y-105891009D01*
X120668095Y-105891009D02*
X120572857Y-105938628D01*
X120572857Y-105938628D02*
X120191905Y-105938628D01*
X121668095Y-105414819D02*
X121191905Y-105414819D01*
X121191905Y-105414819D02*
X121144286Y-105891009D01*
X121144286Y-105891009D02*
X121191905Y-105843390D01*
X121191905Y-105843390D02*
X121287143Y-105795771D01*
X121287143Y-105795771D02*
X121525238Y-105795771D01*
X121525238Y-105795771D02*
X121620476Y-105843390D01*
X121620476Y-105843390D02*
X121668095Y-105891009D01*
X121668095Y-105891009D02*
X121715714Y-105986247D01*
X121715714Y-105986247D02*
X121715714Y-106224342D01*
X121715714Y-106224342D02*
X121668095Y-106319580D01*
X121668095Y-106319580D02*
X121620476Y-106367200D01*
X121620476Y-106367200D02*
X121525238Y-106414819D01*
X121525238Y-106414819D02*
X121287143Y-106414819D01*
X121287143Y-106414819D02*
X121191905Y-106367200D01*
X121191905Y-106367200D02*
X121144286Y-106319580D01*
X154844819Y-100776666D02*
X154368628Y-101109999D01*
X154844819Y-101348094D02*
X153844819Y-101348094D01*
X153844819Y-101348094D02*
X153844819Y-100967142D01*
X153844819Y-100967142D02*
X153892438Y-100871904D01*
X153892438Y-100871904D02*
X153940057Y-100824285D01*
X153940057Y-100824285D02*
X154035295Y-100776666D01*
X154035295Y-100776666D02*
X154178152Y-100776666D01*
X154178152Y-100776666D02*
X154273390Y-100824285D01*
X154273390Y-100824285D02*
X154321009Y-100871904D01*
X154321009Y-100871904D02*
X154368628Y-100967142D01*
X154368628Y-100967142D02*
X154368628Y-101348094D01*
X154273390Y-100205237D02*
X154225771Y-100300475D01*
X154225771Y-100300475D02*
X154178152Y-100348094D01*
X154178152Y-100348094D02*
X154082914Y-100395713D01*
X154082914Y-100395713D02*
X154035295Y-100395713D01*
X154035295Y-100395713D02*
X153940057Y-100348094D01*
X153940057Y-100348094D02*
X153892438Y-100300475D01*
X153892438Y-100300475D02*
X153844819Y-100205237D01*
X153844819Y-100205237D02*
X153844819Y-100014761D01*
X153844819Y-100014761D02*
X153892438Y-99919523D01*
X153892438Y-99919523D02*
X153940057Y-99871904D01*
X153940057Y-99871904D02*
X154035295Y-99824285D01*
X154035295Y-99824285D02*
X154082914Y-99824285D01*
X154082914Y-99824285D02*
X154178152Y-99871904D01*
X154178152Y-99871904D02*
X154225771Y-99919523D01*
X154225771Y-99919523D02*
X154273390Y-100014761D01*
X154273390Y-100014761D02*
X154273390Y-100205237D01*
X154273390Y-100205237D02*
X154321009Y-100300475D01*
X154321009Y-100300475D02*
X154368628Y-100348094D01*
X154368628Y-100348094D02*
X154463866Y-100395713D01*
X154463866Y-100395713D02*
X154654342Y-100395713D01*
X154654342Y-100395713D02*
X154749580Y-100348094D01*
X154749580Y-100348094D02*
X154797200Y-100300475D01*
X154797200Y-100300475D02*
X154844819Y-100205237D01*
X154844819Y-100205237D02*
X154844819Y-100014761D01*
X154844819Y-100014761D02*
X154797200Y-99919523D01*
X154797200Y-99919523D02*
X154749580Y-99871904D01*
X154749580Y-99871904D02*
X154654342Y-99824285D01*
X154654342Y-99824285D02*
X154463866Y-99824285D01*
X154463866Y-99824285D02*
X154368628Y-99871904D01*
X154368628Y-99871904D02*
X154321009Y-99919523D01*
X154321009Y-99919523D02*
X154273390Y-100014761D01*
X164256482Y-109019692D02*
X164963589Y-108312586D01*
X164963589Y-108312586D02*
X165131948Y-108480944D01*
X165131948Y-108480944D02*
X165199291Y-108615631D01*
X165199291Y-108615631D02*
X165199291Y-108750318D01*
X165199291Y-108750318D02*
X165165619Y-108851334D01*
X165165619Y-108851334D02*
X165064604Y-109019692D01*
X165064604Y-109019692D02*
X164963589Y-109120708D01*
X164963589Y-109120708D02*
X164795230Y-109221723D01*
X164795230Y-109221723D02*
X164694215Y-109255395D01*
X164694215Y-109255395D02*
X164559528Y-109255395D01*
X164559528Y-109255395D02*
X164424841Y-109188051D01*
X164424841Y-109188051D02*
X164256482Y-109019692D01*
X165603352Y-108952349D02*
X166041085Y-109390082D01*
X166041085Y-109390082D02*
X165536009Y-109423753D01*
X165536009Y-109423753D02*
X165637024Y-109524769D01*
X165637024Y-109524769D02*
X165670696Y-109625784D01*
X165670696Y-109625784D02*
X165670696Y-109693127D01*
X165670696Y-109693127D02*
X165637024Y-109794143D01*
X165637024Y-109794143D02*
X165468665Y-109962501D01*
X165468665Y-109962501D02*
X165367650Y-109996173D01*
X165367650Y-109996173D02*
X165300306Y-109996173D01*
X165300306Y-109996173D02*
X165199291Y-109962501D01*
X165199291Y-109962501D02*
X164997261Y-109760471D01*
X164997261Y-109760471D02*
X164963589Y-109659456D01*
X164963589Y-109659456D02*
X164963589Y-109592112D01*
X115856905Y-106244819D02*
X115856905Y-105244819D01*
X115856905Y-105244819D02*
X116095000Y-105244819D01*
X116095000Y-105244819D02*
X116237857Y-105292438D01*
X116237857Y-105292438D02*
X116333095Y-105387676D01*
X116333095Y-105387676D02*
X116380714Y-105482914D01*
X116380714Y-105482914D02*
X116428333Y-105673390D01*
X116428333Y-105673390D02*
X116428333Y-105816247D01*
X116428333Y-105816247D02*
X116380714Y-106006723D01*
X116380714Y-106006723D02*
X116333095Y-106101961D01*
X116333095Y-106101961D02*
X116237857Y-106197200D01*
X116237857Y-106197200D02*
X116095000Y-106244819D01*
X116095000Y-106244819D02*
X115856905Y-106244819D01*
X117333095Y-105244819D02*
X116856905Y-105244819D01*
X116856905Y-105244819D02*
X116809286Y-105721009D01*
X116809286Y-105721009D02*
X116856905Y-105673390D01*
X116856905Y-105673390D02*
X116952143Y-105625771D01*
X116952143Y-105625771D02*
X117190238Y-105625771D01*
X117190238Y-105625771D02*
X117285476Y-105673390D01*
X117285476Y-105673390D02*
X117333095Y-105721009D01*
X117333095Y-105721009D02*
X117380714Y-105816247D01*
X117380714Y-105816247D02*
X117380714Y-106054342D01*
X117380714Y-106054342D02*
X117333095Y-106149580D01*
X117333095Y-106149580D02*
X117285476Y-106197200D01*
X117285476Y-106197200D02*
X117190238Y-106244819D01*
X117190238Y-106244819D02*
X116952143Y-106244819D01*
X116952143Y-106244819D02*
X116856905Y-106197200D01*
X116856905Y-106197200D02*
X116809286Y-106149580D01*
D11*
%TO.C,R12*%
X124820000Y-103597064D02*
X124820000Y-102142936D01*
X126640000Y-103597064D02*
X126640000Y-102142936D01*
%TO.C,R4*%
X129277064Y-94340000D02*
X127822936Y-94340000D01*
X129277064Y-96160000D02*
X127822936Y-96160000D01*
%TO.C,R7*%
X136250000Y-92167064D02*
X136250000Y-90712936D01*
X138070000Y-92167064D02*
X138070000Y-90712936D01*
%TO.C,C1*%
X127535000Y-103131252D02*
X127535000Y-102608748D01*
X129005000Y-103131252D02*
X129005000Y-102608748D01*
%TO.C,D4*%
X122084071Y-95221716D02*
X124106396Y-97244041D01*
X124106396Y-97244041D02*
X125464041Y-95886396D01*
X125464041Y-95886396D02*
X123441716Y-93864071D01*
%TO.C,D9*%
X145090000Y-91095000D02*
X145090000Y-93955000D01*
X147010000Y-91095000D02*
X145090000Y-91095000D01*
X147010000Y-93955000D02*
X147010000Y-91095000D01*
%TO.C,J1*%
X137130000Y-111420000D02*
X137130000Y-114080000D01*
X139730000Y-111420000D02*
X137130000Y-111420000D01*
X139730000Y-111420000D02*
X139730000Y-114080000D01*
X139730000Y-114080000D02*
X137130000Y-114080000D01*
X141000000Y-111420000D02*
X142330000Y-111420000D01*
X142330000Y-111420000D02*
X142330000Y-112750000D01*
%TO.C,D7*%
X131490000Y-84130000D02*
X131490000Y-86050000D01*
X131490000Y-86050000D02*
X134350000Y-86050000D01*
X134350000Y-84130000D02*
X131490000Y-84130000D01*
%TO.C,R6*%
X133710000Y-94427064D02*
X133710000Y-92972936D01*
X135530000Y-94427064D02*
X135530000Y-92972936D01*
%TO.C,D10*%
X150170000Y-92365000D02*
X150170000Y-95225000D01*
X152090000Y-92365000D02*
X150170000Y-92365000D01*
X152090000Y-95225000D02*
X152090000Y-92365000D01*
%TO.C,R1*%
X151490000Y-103692936D02*
X151490000Y-105147064D01*
X153310000Y-103692936D02*
X153310000Y-105147064D01*
%TO.C,R9*%
X145140000Y-99787064D02*
X145140000Y-98332936D01*
X146960000Y-99787064D02*
X146960000Y-98332936D01*
%TO.C,D1*%
X156520000Y-110925000D02*
X156520000Y-113785000D01*
X158440000Y-110925000D02*
X156520000Y-110925000D01*
X158440000Y-113785000D02*
X158440000Y-110925000D01*
%TO.C,R11*%
X128580777Y-105002863D02*
X130034905Y-105002863D01*
X128580777Y-106822863D02*
X130034905Y-106822863D01*
%TO.C,D8*%
X154040000Y-94140000D02*
X154040000Y-97000000D01*
X155960000Y-94140000D02*
X154040000Y-94140000D01*
X155960000Y-97000000D02*
X155960000Y-94140000D01*
%TO.C,R2*%
X147680000Y-103692936D02*
X147680000Y-105147064D01*
X149500000Y-103692936D02*
X149500000Y-105147064D01*
%TO.C,D2*%
X151440000Y-108385000D02*
X151440000Y-111245000D01*
X153360000Y-108385000D02*
X151440000Y-108385000D01*
X153360000Y-111245000D02*
X153360000Y-108385000D01*
%TO.C,C2*%
X139728752Y-105945000D02*
X139206248Y-105945000D01*
X139728752Y-107415000D02*
X139206248Y-107415000D01*
%TO.C,R3*%
X159572936Y-103230000D02*
X161027064Y-103230000D01*
X159572936Y-105050000D02*
X161027064Y-105050000D01*
%TO.C,R10*%
X150220000Y-99507064D02*
X150220000Y-98052936D01*
X152040000Y-99507064D02*
X152040000Y-98052936D01*
%TO.C,D6*%
X128705000Y-87940000D02*
X128705000Y-89860000D01*
X128705000Y-89860000D02*
X131565000Y-89860000D01*
X131565000Y-87940000D02*
X128705000Y-87940000D01*
%TO.C,IC1*%
X133370000Y-100965000D02*
X133370000Y-99015000D01*
X133370000Y-100965000D02*
X133370000Y-102915000D01*
X143490000Y-100965000D02*
X143490000Y-99015000D01*
X143490000Y-100965000D02*
X143490000Y-102915000D01*
X143765000Y-98505000D02*
X143435000Y-98265000D01*
X143765000Y-98025000D01*
X143765000Y-98505000D01*
G36*
X143765000Y-98505000D02*
G01*
X143435000Y-98265000D01*
X143765000Y-98025000D01*
X143765000Y-98505000D01*
G37*
%TO.C,R5*%
X121657064Y-103230000D02*
X120202936Y-103230000D01*
X121657064Y-105050000D02*
X120202936Y-105050000D01*
%TO.C,R8*%
X155300000Y-101337064D02*
X155300000Y-99882936D01*
X157120000Y-101337064D02*
X157120000Y-99882936D01*
%TO.C,D3*%
X166370743Y-109853604D02*
X168393068Y-111875929D01*
X167728388Y-108495959D02*
X166370743Y-109853604D01*
X169750713Y-110518284D02*
X167728388Y-108495959D01*
%TO.C,D5*%
X115595000Y-105100000D02*
X118455000Y-105100000D01*
X118455000Y-103180000D02*
X115595000Y-103180000D01*
X118455000Y-105100000D02*
X118455000Y-103180000D01*
%TD*%
M02*
