%TF.GenerationSoftware,KiCad,Pcbnew,8.0.6+1*%
%TF.CreationDate,2024-12-11T00:22:32+00:00*%
%TF.ProjectId,Dino-Blinker,44696e6f-2d42-46c6-996e-6b65722e6b69,rev?*%
%TF.SameCoordinates,Original*%
%TF.FileFunction,Copper,L1,Top*%
%TF.FilePolarity,Positive*%
%FSLAX46Y46*%
G04 Gerber Fmt 4.6, Leading zero omitted, Abs format (unit mm)*
G04 Created by KiCad (PCBNEW 8.0.6+1) date 2024-12-11 00:22:32*
%MOMM*%
%LPD*%
G01*
G04 APERTURE LIST*
G04 Aperture macros list*
%AMRoundRect*
0 Rectangle with rounded corners*
0 $1 Rounding radius*
0 $2 $3 $4 $5 $6 $7 $8 $9 X,Y pos of 4 corners*
0 Add a 4 corners polygon primitive as box body*
4,1,4,$2,$3,$4,$5,$6,$7,$8,$9,$2,$3,0*
0 Add four circle primitives for the rounded corners*
1,1,$1+$1,$2,$3*
1,1,$1+$1,$4,$5*
1,1,$1+$1,$6,$7*
1,1,$1+$1,$8,$9*
0 Add four rect primitives between the rounded corners*
20,1,$1+$1,$2,$3,$4,$5,0*
20,1,$1+$1,$4,$5,$6,$7,0*
20,1,$1+$1,$6,$7,$8,$9,0*
20,1,$1+$1,$8,$9,$2,$3,0*%
G04 Aperture macros list end*
%TA.AperFunction,SMDPad,CuDef*%
%ADD10RoundRect,0.250000X0.625000X-0.400000X0.625000X0.400000X-0.625000X0.400000X-0.625000X-0.400000X0*%
%TD*%
%TA.AperFunction,SMDPad,CuDef*%
%ADD11RoundRect,0.250000X0.400000X0.625000X-0.400000X0.625000X-0.400000X-0.625000X0.400000X-0.625000X0*%
%TD*%
%TA.AperFunction,SMDPad,CuDef*%
%ADD12RoundRect,0.250000X0.475000X-0.337500X0.475000X0.337500X-0.475000X0.337500X-0.475000X-0.337500X0*%
%TD*%
%TA.AperFunction,SMDPad,CuDef*%
%ADD13RoundRect,0.250000X0.548008X0.088388X0.088388X0.548008X-0.548008X-0.088388X-0.088388X-0.548008X0*%
%TD*%
%TA.AperFunction,SMDPad,CuDef*%
%ADD14RoundRect,0.250000X-0.450000X0.325000X-0.450000X-0.325000X0.450000X-0.325000X0.450000X0.325000X0*%
%TD*%
%TA.AperFunction,ComponentPad*%
%ADD15R,1.700000X1.700000*%
%TD*%
%TA.AperFunction,ComponentPad*%
%ADD16O,1.700000X1.700000*%
%TD*%
%TA.AperFunction,SMDPad,CuDef*%
%ADD17RoundRect,0.250000X-0.325000X-0.450000X0.325000X-0.450000X0.325000X0.450000X-0.325000X0.450000X0*%
%TD*%
%TA.AperFunction,SMDPad,CuDef*%
%ADD18RoundRect,0.250000X-0.625000X0.400000X-0.625000X-0.400000X0.625000X-0.400000X0.625000X0.400000X0*%
%TD*%
%TA.AperFunction,SMDPad,CuDef*%
%ADD19RoundRect,0.250000X-0.400000X-0.625000X0.400000X-0.625000X0.400000X0.625000X-0.400000X0.625000X0*%
%TD*%
%TA.AperFunction,SMDPad,CuDef*%
%ADD20RoundRect,0.250000X0.337500X0.475000X-0.337500X0.475000X-0.337500X-0.475000X0.337500X-0.475000X0*%
%TD*%
%TA.AperFunction,SMDPad,CuDef*%
%ADD21RoundRect,0.150000X-0.150000X0.825000X-0.150000X-0.825000X0.150000X-0.825000X0.150000X0.825000X0*%
%TD*%
%TA.AperFunction,SMDPad,CuDef*%
%ADD22RoundRect,0.250000X-0.548008X-0.088388X-0.088388X-0.548008X0.548008X0.088388X0.088388X0.548008X0*%
%TD*%
%TA.AperFunction,SMDPad,CuDef*%
%ADD23RoundRect,0.250000X0.325000X0.450000X-0.325000X0.450000X-0.325000X-0.450000X0.325000X-0.450000X0*%
%TD*%
%TA.AperFunction,Conductor*%
%ADD24C,0.400000*%
%TD*%
G04 APERTURE END LIST*
D10*
%TO.P,R12,1*%
%TO.N,Net-(C1-Pad1)*%
X125730000Y-104420000D03*
%TO.P,R12,2*%
%TO.N,Net-(IC1-[Oslash]O)*%
X125730000Y-101320000D03*
%TD*%
D11*
%TO.P,R4,1*%
%TO.N,/LED4*%
X130100000Y-95250000D03*
%TO.P,R4,2*%
%TO.N,Net-(D4-K)*%
X127000000Y-95250000D03*
%TD*%
D10*
%TO.P,R7,1*%
%TO.N,/LED4*%
X137160000Y-92990000D03*
%TO.P,R7,2*%
%TO.N,Net-(D7-A)*%
X137160000Y-89890000D03*
%TD*%
D12*
%TO.P,C1,1*%
%TO.N,Net-(C1-Pad1)*%
X128270000Y-103907500D03*
%TO.P,C1,2*%
%TO.N,Net-(IC1-~{[Oslash]O})*%
X128270000Y-101832500D03*
%TD*%
D13*
%TO.P,D4,1,K*%
%TO.N,Net-(D4-K)*%
X124194784Y-95974784D03*
%TO.P,D4,2,A*%
%TO.N,VCC*%
X122745216Y-94525216D03*
%TD*%
D14*
%TO.P,D9,1,K*%
%TO.N,GND*%
X146050000Y-91930000D03*
%TO.P,D9,2,A*%
%TO.N,Net-(D9-A)*%
X146050000Y-93980000D03*
%TD*%
D15*
%TO.P,J1,1,Pin_1*%
%TO.N,VCC*%
X141000000Y-112750000D03*
D16*
%TO.P,J1,2,Pin_2*%
%TO.N,GND*%
X138460000Y-112750000D03*
%TD*%
D17*
%TO.P,D7,1,K*%
%TO.N,GND*%
X132325000Y-85090000D03*
%TO.P,D7,2,A*%
%TO.N,Net-(D7-A)*%
X134375000Y-85090000D03*
%TD*%
D10*
%TO.P,R6,1*%
%TO.N,/LED5*%
X134620000Y-95250000D03*
%TO.P,R6,2*%
%TO.N,Net-(D6-A)*%
X134620000Y-92150000D03*
%TD*%
D14*
%TO.P,D10,1,K*%
%TO.N,GND*%
X151130000Y-93200000D03*
%TO.P,D10,2,A*%
%TO.N,Net-(D10-A)*%
X151130000Y-95250000D03*
%TD*%
D18*
%TO.P,R1,1*%
%TO.N,/LED1*%
X152400000Y-102870000D03*
%TO.P,R1,2*%
%TO.N,Net-(D1-K)*%
X152400000Y-105970000D03*
%TD*%
D10*
%TO.P,R9,1*%
%TO.N,/LED2*%
X146050000Y-100610000D03*
%TO.P,R9,2*%
%TO.N,Net-(D9-A)*%
X146050000Y-97510000D03*
%TD*%
D14*
%TO.P,D1,1,K*%
%TO.N,Net-(D1-K)*%
X157480000Y-111760000D03*
%TO.P,D1,2,A*%
%TO.N,VCC*%
X157480000Y-113810000D03*
%TD*%
D19*
%TO.P,R11,1*%
%TO.N,Net-(C1-Pad1)*%
X127757841Y-105912863D03*
%TO.P,R11,2*%
%TO.N,Net-(IC1-~{[Oslash]I})*%
X130857841Y-105912863D03*
%TD*%
D14*
%TO.P,D8,1,K*%
%TO.N,GND*%
X155000000Y-94975000D03*
%TO.P,D8,2,A*%
%TO.N,Net-(D8-A)*%
X155000000Y-97025000D03*
%TD*%
D18*
%TO.P,R2,1*%
%TO.N,/LED2*%
X148590000Y-102870000D03*
%TO.P,R2,2*%
%TO.N,Net-(D2-K)*%
X148590000Y-105970000D03*
%TD*%
D14*
%TO.P,D2,1,K*%
%TO.N,Net-(D2-K)*%
X152400000Y-109220000D03*
%TO.P,D2,2,A*%
%TO.N,VCC*%
X152400000Y-111270000D03*
%TD*%
D20*
%TO.P,C2,1*%
%TO.N,VCC*%
X140505000Y-106680000D03*
%TO.P,C2,2*%
%TO.N,GND*%
X138430000Y-106680000D03*
%TD*%
D19*
%TO.P,R3,1*%
%TO.N,/LED3*%
X158750000Y-104140000D03*
%TO.P,R3,2*%
%TO.N,Net-(D3-K)*%
X161850000Y-104140000D03*
%TD*%
D10*
%TO.P,R10,1*%
%TO.N,/LED1*%
X151130000Y-100330000D03*
%TO.P,R10,2*%
%TO.N,Net-(D10-A)*%
X151130000Y-97230000D03*
%TD*%
D17*
%TO.P,D6,1,K*%
%TO.N,GND*%
X129540000Y-88900000D03*
%TO.P,D6,2,A*%
%TO.N,Net-(D6-A)*%
X131590000Y-88900000D03*
%TD*%
D21*
%TO.P,IC1,1,Q12*%
%TO.N,unconnected-(IC1-Q12-Pad1)*%
X142875000Y-98490000D03*
%TO.P,IC1,2,Q13*%
%TO.N,unconnected-(IC1-Q13-Pad2)*%
X141605000Y-98490000D03*
%TO.P,IC1,3,Q14*%
%TO.N,unconnected-(IC1-Q14-Pad3)*%
X140335000Y-98490000D03*
%TO.P,IC1,4,Q6*%
%TO.N,/LED3*%
X139065000Y-98490000D03*
%TO.P,IC1,5,Q5*%
%TO.N,/LED4*%
X137795000Y-98490000D03*
%TO.P,IC1,6,Q7*%
%TO.N,/LED5*%
X136525000Y-98490000D03*
%TO.P,IC1,7,Q4*%
%TO.N,unconnected-(IC1-Q4-Pad7)*%
X135255000Y-98490000D03*
%TO.P,IC1,8,GND*%
%TO.N,GND*%
X133985000Y-98490000D03*
%TO.P,IC1,9,~{[Oslash]O}*%
%TO.N,Net-(IC1-~{[Oslash]O})*%
X133985000Y-103440000D03*
%TO.P,IC1,10,[Oslash]O*%
%TO.N,Net-(IC1-[Oslash]O)*%
X135255000Y-103440000D03*
%TO.P,IC1,11,~{[Oslash]I}*%
%TO.N,Net-(IC1-~{[Oslash]I})*%
X136525000Y-103440000D03*
%TO.P,IC1,12,CLEAR*%
%TO.N,Net-(IC1-CLEAR)*%
X137795000Y-103440000D03*
%TO.P,IC1,13,Q9*%
%TO.N,/LED2*%
X139065000Y-103440000D03*
%TO.P,IC1,14,Q8*%
%TO.N,/LED1*%
X140335000Y-103440000D03*
%TO.P,IC1,15,Q10*%
%TO.N,Net-(IC1-CLEAR)*%
X141605000Y-103440000D03*
%TO.P,IC1,16,VCC*%
%TO.N,VCC*%
X142875000Y-103440000D03*
%TD*%
D11*
%TO.P,R5,1*%
%TO.N,/LED5*%
X122480000Y-104140000D03*
%TO.P,R5,2*%
%TO.N,Net-(D5-K)*%
X119380000Y-104140000D03*
%TD*%
D10*
%TO.P,R8,1*%
%TO.N,/LED3*%
X156210000Y-102160000D03*
%TO.P,R8,2*%
%TO.N,Net-(D8-A)*%
X156210000Y-99060000D03*
%TD*%
D22*
%TO.P,D3,1,K*%
%TO.N,Net-(D3-K)*%
X167640000Y-109765216D03*
%TO.P,D3,2,A*%
%TO.N,VCC*%
X169089568Y-111214784D03*
%TD*%
D23*
%TO.P,D5,1,K*%
%TO.N,Net-(D5-K)*%
X117620000Y-104140000D03*
%TO.P,D5,2,A*%
%TO.N,VCC*%
X115570000Y-104140000D03*
%TD*%
D24*
%TO.N,Net-(C1-Pad1)*%
X127757841Y-105912863D02*
X126232863Y-105912863D01*
X126232863Y-105912863D02*
X125730000Y-105410000D01*
X125730000Y-105410000D02*
X125730000Y-104420000D01*
X128270000Y-105400704D02*
X127757841Y-105912863D01*
X128270000Y-103907500D02*
X128270000Y-105400704D01*
%TO.N,Net-(IC1-~{[Oslash]O})*%
X132887000Y-103677000D02*
X133985000Y-103677000D01*
X131042500Y-101832500D02*
X132887000Y-103677000D01*
X128270000Y-101832500D02*
X131042500Y-101832500D01*
%TO.N,VCC*%
X135753880Y-113313903D02*
X135753880Y-107084383D01*
X164454979Y-110000000D02*
X165669763Y-110000000D01*
X123190000Y-99343052D02*
X120430152Y-102102900D01*
X140795746Y-114795746D02*
X137235723Y-114795746D01*
X119217863Y-107787863D02*
X115570000Y-104140000D01*
X142875000Y-107394500D02*
X141930000Y-108339500D01*
X120430152Y-102102900D02*
X118387989Y-102102900D01*
X159190000Y-113810000D02*
X159423083Y-113576917D01*
X134397393Y-106680000D02*
X133289530Y-107787863D01*
X135753880Y-107084383D02*
X135349497Y-106680000D01*
X133289530Y-107787863D02*
X119217863Y-107787863D01*
X141930000Y-110070000D02*
X141000000Y-111000000D01*
X155447223Y-113318590D02*
X155938633Y-113810000D01*
X118387989Y-102102900D02*
X117450889Y-103040000D01*
X141930000Y-108339500D02*
X141930000Y-110070000D01*
X150831320Y-109067445D02*
X149158375Y-107394500D01*
X122745216Y-96080850D02*
X123190000Y-96525634D01*
X116670000Y-103040000D02*
X115570000Y-104140000D01*
X159423083Y-107276917D02*
X160020000Y-106680000D01*
X152400000Y-111270000D02*
X151037575Y-111270000D01*
X141000000Y-112750000D02*
X141000000Y-114591492D01*
X155447223Y-111677181D02*
X155447223Y-113318590D01*
X122745216Y-94525216D02*
X122745216Y-96080850D01*
X167424913Y-111755149D02*
X167804481Y-111901049D01*
X161134979Y-106680000D02*
X164454979Y-110000000D01*
X152400000Y-111270000D02*
X155040042Y-111270000D01*
X157480000Y-113810000D02*
X159190000Y-113810000D01*
X142875000Y-107394500D02*
X142875000Y-103677000D01*
X141000000Y-111000000D02*
X141000000Y-112750000D01*
X167804481Y-111901049D02*
X168232167Y-112045023D01*
X151037575Y-111270000D02*
X150831320Y-111063745D01*
X123190000Y-96525634D02*
X123190000Y-99343052D01*
X149158375Y-107394500D02*
X142875000Y-107394500D01*
X168253283Y-112051069D02*
X169089568Y-111214784D01*
X135349497Y-106680000D02*
X134397393Y-106680000D01*
X117450889Y-103040000D02*
X116670000Y-103040000D01*
X160020000Y-106680000D02*
X161134979Y-106680000D01*
X165669763Y-110000000D02*
X167424913Y-111755149D01*
X150831320Y-111063745D02*
X150831320Y-109067445D01*
X141000000Y-114591492D02*
X140795746Y-114795746D01*
X168232167Y-112045023D02*
X168253283Y-112051069D01*
X140505000Y-106680000D02*
X142875000Y-106680000D01*
X159423083Y-113576917D02*
X159423083Y-107276917D01*
X155938633Y-113810000D02*
X157480000Y-113810000D01*
X137235723Y-114795746D02*
X135753880Y-113313903D01*
X155040042Y-111270000D02*
X155447223Y-111677181D01*
%TO.N,GND*%
X155000000Y-94975000D02*
X154225000Y-94975000D01*
X134218865Y-106010000D02*
X133041002Y-107187863D01*
X141460000Y-91930000D02*
X137160000Y-87630000D01*
X137160000Y-85000380D02*
X135979620Y-83820000D01*
X121067531Y-105824723D02*
X121067531Y-102452469D01*
X137160000Y-87630000D02*
X137160000Y-85000380D01*
X138430000Y-113030000D02*
X138430000Y-106680000D01*
X121067531Y-102452469D02*
X126995000Y-96525000D01*
X136328028Y-106680000D02*
X135658028Y-106010000D01*
X152450000Y-93200000D02*
X151130000Y-93200000D01*
X129050000Y-96144239D02*
X129050000Y-89390000D01*
X126995000Y-96525000D02*
X129430761Y-96525000D01*
X133595000Y-83820000D02*
X132325000Y-85090000D01*
X151130000Y-93200000D02*
X149450000Y-93200000D01*
X121922808Y-106680000D02*
X121067531Y-105824723D01*
X129540000Y-88900000D02*
X132325000Y-86115000D01*
X146050000Y-91930000D02*
X141460000Y-91930000D01*
X132080000Y-98253000D02*
X130352000Y-96525000D01*
X132080000Y-98253000D02*
X133985000Y-98253000D01*
X149450000Y-93200000D02*
X148180000Y-91930000D01*
X148180000Y-91930000D02*
X146050000Y-91930000D01*
X154225000Y-94975000D02*
X152450000Y-93200000D01*
X138430000Y-106680000D02*
X136328028Y-106680000D01*
X135979620Y-83820000D02*
X133595000Y-83820000D01*
X132325000Y-86115000D02*
X132325000Y-85090000D01*
X123438528Y-106680000D02*
X121922808Y-106680000D01*
X133041002Y-107187863D02*
X123946391Y-107187863D01*
X135658028Y-106010000D02*
X134218865Y-106010000D01*
X129430761Y-96525000D02*
X129050000Y-96144239D01*
X129050000Y-89390000D02*
X129540000Y-88900000D01*
X130352000Y-96525000D02*
X129430761Y-96525000D01*
X123946391Y-107187863D02*
X123438528Y-106680000D01*
%TO.N,Net-(D1-K)*%
X157480000Y-107950000D02*
X157480000Y-111760000D01*
X155500000Y-105970000D02*
X157480000Y-107950000D01*
X152400000Y-105970000D02*
X155500000Y-105970000D01*
%TO.N,Net-(D2-K)*%
X149150000Y-105970000D02*
X152400000Y-109220000D01*
X148590000Y-105970000D02*
X149150000Y-105970000D01*
%TO.N,Net-(D3-K)*%
X161850000Y-104140000D02*
X162560000Y-104140000D01*
X162560000Y-104140000D02*
X167640000Y-109220000D01*
X167640000Y-109220000D02*
X167640000Y-109765216D01*
%TO.N,Net-(D4-K)*%
X126711862Y-95538138D02*
X127000000Y-95250000D01*
X124194784Y-95974784D02*
X124631430Y-95538138D01*
X124631430Y-95538138D02*
X126711862Y-95538138D01*
%TO.N,Net-(D5-K)*%
X117620000Y-104140000D02*
X119380000Y-104140000D01*
%TO.N,Net-(D6-A)*%
X134620000Y-91930000D02*
X131590000Y-88900000D01*
X134620000Y-92150000D02*
X134620000Y-91930000D01*
%TO.N,Net-(D7-A)*%
X137160000Y-89890000D02*
X135610000Y-89890000D01*
X134375000Y-88655000D02*
X134375000Y-85090000D01*
X135610000Y-89890000D02*
X134375000Y-88655000D01*
%TO.N,Net-(D8-A)*%
X156210000Y-99060000D02*
X156210000Y-98235000D01*
X156210000Y-98235000D02*
X155000000Y-97025000D01*
%TO.N,Net-(D9-A)*%
X146050000Y-97510000D02*
X146050000Y-93980000D01*
%TO.N,Net-(D10-A)*%
X151130000Y-97230000D02*
X151130000Y-95250000D01*
%TO.N,/LED3*%
X144377620Y-97138942D02*
X144377620Y-98219739D01*
X151840000Y-99060000D02*
X154940000Y-102160000D01*
X158750000Y-104140000D02*
X156770000Y-102160000D01*
X139065000Y-97155000D02*
X139700000Y-96520000D01*
X139065000Y-98253000D02*
X139065000Y-97155000D01*
X143758678Y-96520000D02*
X144377620Y-97138942D01*
X139700000Y-96520000D02*
X143758678Y-96520000D01*
X156770000Y-102160000D02*
X154940000Y-102160000D01*
X144377620Y-98219739D02*
X145217881Y-99060000D01*
X145217881Y-99060000D02*
X151840000Y-99060000D01*
%TO.N,/LED4*%
X137795000Y-98253000D02*
X137795000Y-93625000D01*
X131850838Y-93499162D02*
X130100000Y-95250000D01*
X137669162Y-93499162D02*
X131850838Y-93499162D01*
X137795000Y-93625000D02*
X137669162Y-93499162D01*
%TO.N,/LED5*%
X122480000Y-102310000D02*
X124872250Y-99917750D01*
X122480000Y-104140000D02*
X122480000Y-102310000D01*
X124872250Y-99917750D02*
X136525000Y-99917750D01*
X134620000Y-95250000D02*
X135890000Y-95250000D01*
X136525000Y-99917750D02*
X136525000Y-98253000D01*
X135890000Y-95250000D02*
X136525000Y-95885000D01*
X136525000Y-95885000D02*
X136525000Y-98253000D01*
%TO.N,Net-(IC1-[Oslash]O)*%
X127085000Y-100845000D02*
X133865000Y-100845000D01*
X135255000Y-102235000D02*
X135255000Y-103677000D01*
X126538528Y-100930000D02*
X127000000Y-100930000D01*
X127000000Y-100930000D02*
X127085000Y-100845000D01*
X126435000Y-101033528D02*
X126538528Y-100930000D01*
X133865000Y-100845000D02*
X135255000Y-102235000D01*
%TO.N,Net-(IC1-~{[Oslash]I})*%
X135814448Y-105410000D02*
X131370000Y-105410000D01*
X136525000Y-103677000D02*
X136525000Y-104699448D01*
X136525000Y-104699448D02*
X135814448Y-105410000D01*
%TO.N,Net-(IC1-CLEAR)*%
X141605000Y-103677000D02*
X141605000Y-104775000D01*
X137795000Y-104775000D02*
X137795000Y-103677000D01*
X141605000Y-104775000D02*
X140970000Y-105410000D01*
X140970000Y-105410000D02*
X138430000Y-105410000D01*
X138430000Y-105410000D02*
X137795000Y-104775000D01*
%TO.N,/LED2*%
X139065000Y-100965000D02*
X139420000Y-100610000D01*
X146050000Y-100610000D02*
X146330000Y-100610000D01*
X139420000Y-100610000D02*
X146050000Y-100610000D01*
X146330000Y-100610000D02*
X148590000Y-102870000D01*
X139065000Y-103677000D02*
X139065000Y-100965000D01*
%TO.N,/LED1*%
X140335000Y-103677000D02*
X140335000Y-102102250D01*
X140335000Y-102102250D02*
X140412986Y-102024264D01*
X151130000Y-102870000D02*
X151130000Y-100330000D01*
X146693828Y-104485947D02*
X150421585Y-104485947D01*
X144232145Y-102024264D02*
X146693828Y-104485947D01*
X140412986Y-102024264D02*
X144232145Y-102024264D01*
X152400000Y-102870000D02*
X151130000Y-102870000D01*
X151130000Y-103777532D02*
X151130000Y-102870000D01*
X150421585Y-104485947D02*
X151130000Y-103777532D01*
%TD*%
%TA.AperFunction,Conductor*%
%TO.N,GND*%
G36*
X134459468Y-82547144D02*
G01*
X134618048Y-82549965D01*
X134621893Y-82550093D01*
X134781622Y-82557996D01*
X134785446Y-82558245D01*
X134945612Y-82571188D01*
X134949406Y-82571554D01*
X135109600Y-82589516D01*
X135113358Y-82589997D01*
X135272930Y-82612928D01*
X135276738Y-82613537D01*
X135435162Y-82641402D01*
X135438942Y-82642129D01*
X135595649Y-82674881D01*
X135599586Y-82675772D01*
X135753963Y-82713350D01*
X135757989Y-82714402D01*
X135909539Y-82756766D01*
X135913684Y-82758004D01*
X136061201Y-82804892D01*
X136066649Y-82806765D01*
X136478762Y-82959308D01*
X136485410Y-82961991D01*
X136881929Y-83135593D01*
X136888543Y-83138725D01*
X137024494Y-83208106D01*
X137269782Y-83333286D01*
X137276305Y-83336864D01*
X137571203Y-83510405D01*
X137642114Y-83552134D01*
X137648462Y-83556134D01*
X137998583Y-83791822D01*
X138004698Y-83796215D01*
X138127210Y-83890000D01*
X138338892Y-84052046D01*
X138344744Y-84056815D01*
X138662793Y-84332542D01*
X138668319Y-84337634D01*
X138926070Y-84590013D01*
X138969982Y-84633009D01*
X138975140Y-84638372D01*
X139060033Y-84732127D01*
X139260164Y-84953148D01*
X139264936Y-84958743D01*
X139533059Y-85292671D01*
X139537418Y-85298436D01*
X139788384Y-85651289D01*
X139792320Y-85657172D01*
X140010143Y-86003724D01*
X140025832Y-86028684D01*
X140029344Y-86034632D01*
X140245146Y-86424606D01*
X140248239Y-86430572D01*
X140446004Y-86838699D01*
X140448686Y-86844626D01*
X140628142Y-87270706D01*
X140630443Y-87276584D01*
X140791246Y-87720256D01*
X140793215Y-87726145D01*
X140880589Y-88010989D01*
X140881875Y-88015482D01*
X140968825Y-88342408D01*
X140969679Y-88345812D01*
X141018493Y-88552769D01*
X141052619Y-88697449D01*
X141053281Y-88700415D01*
X141128741Y-89059506D01*
X141129326Y-89062470D01*
X141193850Y-89411577D01*
X141194433Y-89414998D01*
X141244637Y-89736758D01*
X141245270Y-89741389D01*
X141277903Y-90018827D01*
X141278406Y-90024052D01*
X141286976Y-90138490D01*
X141287257Y-90143749D01*
X141290429Y-90241996D01*
X141290491Y-90245202D01*
X141290981Y-90321793D01*
X141292809Y-90389974D01*
X141294662Y-90420447D01*
X141297378Y-90448596D01*
X141297379Y-90448604D01*
X141301133Y-90474452D01*
X141306099Y-90498067D01*
X141306103Y-90498081D01*
X141312455Y-90519498D01*
X141312459Y-90519510D01*
X141320388Y-90538831D01*
X141320391Y-90538838D01*
X141330052Y-90556064D01*
X141330056Y-90556070D01*
X141330060Y-90556077D01*
X141341653Y-90571305D01*
X141355344Y-90584569D01*
X141355347Y-90584571D01*
X141355350Y-90584574D01*
X141371302Y-90595918D01*
X141371308Y-90595922D01*
X141389724Y-90605419D01*
X141410766Y-90613113D01*
X141410768Y-90613113D01*
X141410775Y-90613116D01*
X141434581Y-90619050D01*
X141434596Y-90619052D01*
X141434613Y-90619057D01*
X141461440Y-90623306D01*
X141491423Y-90625912D01*
X141503322Y-90626275D01*
X141524732Y-90626930D01*
X141524738Y-90626929D01*
X141524741Y-90626930D01*
X141561568Y-90626413D01*
X141602082Y-90624415D01*
X141602091Y-90624414D01*
X141602097Y-90624414D01*
X141610390Y-90623773D01*
X141646459Y-90620989D01*
X141694876Y-90616190D01*
X141804536Y-90602684D01*
X141932473Y-90584326D01*
X142247686Y-90534951D01*
X142249936Y-90534621D01*
X142495472Y-90501135D01*
X142499494Y-90500655D01*
X142785697Y-90471287D01*
X142789779Y-90470936D01*
X143467254Y-90424121D01*
X143470914Y-90423923D01*
X144243045Y-90393840D01*
X144245876Y-90393763D01*
X145064222Y-90380726D01*
X145066675Y-90380713D01*
X145882268Y-90385010D01*
X145885104Y-90385058D01*
X146648868Y-90406922D01*
X146652693Y-90407091D01*
X147316154Y-90446715D01*
X147320436Y-90447045D01*
X147597401Y-90473361D01*
X147601818Y-90473861D01*
X147835413Y-90504549D01*
X147840415Y-90505313D01*
X148573732Y-90632698D01*
X148577837Y-90633484D01*
X149295922Y-90783816D01*
X149300121Y-90784773D01*
X150002472Y-90957980D01*
X150006789Y-90959129D01*
X150693582Y-91155263D01*
X150697933Y-91156594D01*
X151369334Y-91375713D01*
X151373710Y-91377235D01*
X152029748Y-91619353D01*
X152034198Y-91621093D01*
X152675075Y-91886284D01*
X152679510Y-91888223D01*
X153305287Y-92176510D01*
X153309720Y-92178660D01*
X153920587Y-92490122D01*
X153924935Y-92492449D01*
X154227006Y-92662060D01*
X154521041Y-92827159D01*
X154525344Y-92829691D01*
X154604428Y-92878384D01*
X155106742Y-93187664D01*
X155110909Y-93190346D01*
X155677825Y-93571711D01*
X155681859Y-93574545D01*
X156234336Y-93979313D01*
X156238235Y-93982291D01*
X156602497Y-94272151D01*
X156776418Y-94410548D01*
X156780181Y-94413665D01*
X157271570Y-94837354D01*
X157304199Y-94865487D01*
X157307776Y-94868695D01*
X157786128Y-95314676D01*
X157818295Y-95344666D01*
X157820593Y-95346864D01*
X158065801Y-95587524D01*
X158067042Y-95588759D01*
X158301053Y-95825010D01*
X158302413Y-95826405D01*
X158525687Y-96059015D01*
X158527150Y-96060566D01*
X158740775Y-96290924D01*
X158742318Y-96292619D01*
X158947392Y-96522124D01*
X158948989Y-96523946D01*
X159146651Y-96754049D01*
X159148270Y-96755973D01*
X159339549Y-96988002D01*
X159341157Y-96989995D01*
X159527219Y-97225440D01*
X159528764Y-97227437D01*
X159663063Y-97404803D01*
X159710654Y-97467656D01*
X159712156Y-97469682D01*
X159872678Y-97690887D01*
X159890981Y-97716108D01*
X159892391Y-97718093D01*
X160069217Y-97972113D01*
X160070520Y-97974021D01*
X160246481Y-98237121D01*
X160247664Y-98238924D01*
X160423775Y-98512423D01*
X160424820Y-98514074D01*
X160484434Y-98609983D01*
X160602013Y-98799146D01*
X160603360Y-98801366D01*
X160967046Y-99414759D01*
X161157262Y-99729510D01*
X161590599Y-100446555D01*
X161590605Y-100446564D01*
X162249030Y-101440663D01*
X162251780Y-101444814D01*
X162431362Y-101692791D01*
X162454741Y-101758634D01*
X162438810Y-101826663D01*
X162421892Y-101849797D01*
X161611216Y-102724775D01*
X161551214Y-102760573D01*
X161520257Y-102764500D01*
X161399999Y-102764500D01*
X161399980Y-102764501D01*
X161297203Y-102775000D01*
X161297200Y-102775001D01*
X161130668Y-102830185D01*
X161130663Y-102830187D01*
X160981342Y-102922289D01*
X160857289Y-103046342D01*
X160765187Y-103195663D01*
X160765186Y-103195666D01*
X160710001Y-103362203D01*
X160710001Y-103362204D01*
X160710000Y-103362204D01*
X160699500Y-103464983D01*
X160699500Y-103660196D01*
X160679815Y-103727235D01*
X160666460Y-103744471D01*
X160367627Y-104067007D01*
X160307625Y-104102805D01*
X160237794Y-104100481D01*
X160214092Y-104089785D01*
X159961924Y-103942388D01*
X159913980Y-103891564D01*
X159900499Y-103835335D01*
X159900499Y-103464998D01*
X159900498Y-103464981D01*
X159889999Y-103362203D01*
X159889998Y-103362200D01*
X159871489Y-103306343D01*
X159834814Y-103195666D01*
X159742712Y-103046344D01*
X159618656Y-102922288D01*
X159469334Y-102830186D01*
X159302797Y-102775001D01*
X159302795Y-102775000D01*
X159200016Y-102764500D01*
X159200009Y-102764500D01*
X158416519Y-102764500D01*
X158349480Y-102744815D01*
X158328838Y-102728181D01*
X157621818Y-102021161D01*
X157588333Y-101959838D01*
X157585499Y-101933480D01*
X157585499Y-101709998D01*
X157585498Y-101709981D01*
X157574999Y-101607203D01*
X157574998Y-101607200D01*
X157573511Y-101602712D01*
X157519814Y-101440666D01*
X157427712Y-101291344D01*
X157303656Y-101167288D01*
X157154334Y-101075186D01*
X156987797Y-101020001D01*
X156987795Y-101020000D01*
X156885010Y-101009500D01*
X155534998Y-101009500D01*
X155534981Y-101009501D01*
X155432203Y-101020000D01*
X155432200Y-101020001D01*
X155265667Y-101075185D01*
X155227345Y-101098822D01*
X155159952Y-101117260D01*
X155099678Y-101100335D01*
X154563070Y-100786680D01*
X154537967Y-100767310D01*
X152286546Y-98515888D01*
X152286543Y-98515885D01*
X152188749Y-98450542D01*
X152143944Y-98396930D01*
X152135237Y-98327605D01*
X152165391Y-98264578D01*
X152192542Y-98241902D01*
X152223656Y-98222712D01*
X152347712Y-98098656D01*
X152439814Y-97949334D01*
X152494999Y-97782797D01*
X152505500Y-97680009D01*
X152505499Y-96779992D01*
X152503045Y-96755973D01*
X152494999Y-96677203D01*
X152494998Y-96677200D01*
X152485979Y-96649983D01*
X153799500Y-96649983D01*
X153799500Y-97400001D01*
X153799501Y-97400019D01*
X153810000Y-97502796D01*
X153810001Y-97502799D01*
X153865185Y-97669331D01*
X153865187Y-97669336D01*
X153878479Y-97690886D01*
X153957288Y-97818656D01*
X154081344Y-97942712D01*
X154230666Y-98034814D01*
X154397203Y-98089999D01*
X154499991Y-98100500D01*
X154826148Y-98100499D01*
X154893186Y-98120183D01*
X154938941Y-98172987D01*
X154948885Y-98242146D01*
X154931686Y-98289595D01*
X154900190Y-98340659D01*
X154900185Y-98340668D01*
X154881542Y-98396930D01*
X154845001Y-98507203D01*
X154845001Y-98507204D01*
X154845000Y-98507204D01*
X154834500Y-98609983D01*
X154834500Y-99510001D01*
X154834501Y-99510019D01*
X154845000Y-99612796D01*
X154845001Y-99612799D01*
X154900185Y-99779331D01*
X154900187Y-99779336D01*
X154918548Y-99809104D01*
X154992288Y-99928656D01*
X155116344Y-100052712D01*
X155265666Y-100144814D01*
X155432203Y-100199999D01*
X155534991Y-100210500D01*
X156885008Y-100210499D01*
X156987797Y-100199999D01*
X157154334Y-100144814D01*
X157303656Y-100052712D01*
X157427712Y-99928656D01*
X157519814Y-99779334D01*
X157574999Y-99612797D01*
X157585500Y-99510009D01*
X157585499Y-98609992D01*
X157574999Y-98507203D01*
X157519814Y-98340666D01*
X157427712Y-98191344D01*
X157303656Y-98067288D01*
X157154334Y-97975186D01*
X156987797Y-97920001D01*
X156987795Y-97920000D01*
X156889396Y-97909948D01*
X156824705Y-97883552D01*
X156798898Y-97855483D01*
X156754114Y-97788458D01*
X156656542Y-97690886D01*
X156236818Y-97271162D01*
X156203333Y-97209839D01*
X156200499Y-97183481D01*
X156200499Y-96649998D01*
X156200498Y-96649981D01*
X156189999Y-96547203D01*
X156189998Y-96547200D01*
X156163658Y-96467712D01*
X156134814Y-96380666D01*
X156042712Y-96231344D01*
X155918656Y-96107288D01*
X155915342Y-96105243D01*
X155913546Y-96103248D01*
X155912989Y-96102807D01*
X155913064Y-96102711D01*
X155868618Y-96053297D01*
X155857397Y-95984334D01*
X155885240Y-95920252D01*
X155915348Y-95894165D01*
X155918342Y-95892318D01*
X156042315Y-95768345D01*
X156134356Y-95619124D01*
X156134358Y-95619119D01*
X156189505Y-95452697D01*
X156189506Y-95452690D01*
X156199999Y-95349986D01*
X156200000Y-95349973D01*
X156200000Y-95225000D01*
X153800001Y-95225000D01*
X153800001Y-95349986D01*
X153810494Y-95452697D01*
X153865641Y-95619119D01*
X153865643Y-95619124D01*
X153957684Y-95768345D01*
X154081655Y-95892316D01*
X154081659Y-95892319D01*
X154084656Y-95894168D01*
X154086279Y-95895972D01*
X154087323Y-95896798D01*
X154087181Y-95896976D01*
X154131381Y-95946116D01*
X154142602Y-96015079D01*
X154114759Y-96079161D01*
X154084661Y-96105241D01*
X154081349Y-96107283D01*
X154081343Y-96107288D01*
X153957289Y-96231342D01*
X153865187Y-96380663D01*
X153865185Y-96380668D01*
X153850433Y-96425187D01*
X153810001Y-96547203D01*
X153810001Y-96547204D01*
X153810000Y-96547204D01*
X153799500Y-96649983D01*
X152485979Y-96649983D01*
X152439814Y-96510666D01*
X152347712Y-96361344D01*
X152223656Y-96237288D01*
X152223652Y-96237285D01*
X152205092Y-96225837D01*
X152158367Y-96173889D01*
X152147146Y-96104927D01*
X152169967Y-96050449D01*
X152168920Y-96049803D01*
X152172710Y-96043657D01*
X152172712Y-96043656D01*
X152264814Y-95894334D01*
X152319999Y-95727797D01*
X152330500Y-95625009D01*
X152330499Y-94874992D01*
X152324672Y-94817953D01*
X152319999Y-94772203D01*
X152319998Y-94772200D01*
X152298024Y-94705887D01*
X152264814Y-94605666D01*
X152261327Y-94600013D01*
X153800000Y-94600013D01*
X153800000Y-94725000D01*
X154750000Y-94725000D01*
X155250000Y-94725000D01*
X156199999Y-94725000D01*
X156199999Y-94600028D01*
X156199998Y-94600013D01*
X156189505Y-94497302D01*
X156134358Y-94330880D01*
X156134356Y-94330875D01*
X156042315Y-94181654D01*
X155918345Y-94057684D01*
X155769124Y-93965643D01*
X155769119Y-93965641D01*
X155602697Y-93910494D01*
X155602690Y-93910493D01*
X155499986Y-93900000D01*
X155250000Y-93900000D01*
X155250000Y-94725000D01*
X154750000Y-94725000D01*
X154750000Y-93900000D01*
X154500029Y-93900000D01*
X154500012Y-93900001D01*
X154397302Y-93910494D01*
X154230880Y-93965641D01*
X154230875Y-93965643D01*
X154081654Y-94057684D01*
X153957684Y-94181654D01*
X153865643Y-94330875D01*
X153865641Y-94330880D01*
X153810494Y-94497302D01*
X153810493Y-94497309D01*
X153800000Y-94600013D01*
X152261327Y-94600013D01*
X152172712Y-94456344D01*
X152048656Y-94332288D01*
X152045342Y-94330243D01*
X152043546Y-94328248D01*
X152042989Y-94327807D01*
X152043064Y-94327711D01*
X151998618Y-94278297D01*
X151987397Y-94209334D01*
X152015240Y-94145252D01*
X152045348Y-94119165D01*
X152048342Y-94117318D01*
X152172315Y-93993345D01*
X152264356Y-93844124D01*
X152264358Y-93844119D01*
X152319505Y-93677697D01*
X152319506Y-93677690D01*
X152329999Y-93574986D01*
X152330000Y-93574973D01*
X152330000Y-93450000D01*
X149930001Y-93450000D01*
X149930001Y-93574986D01*
X149940494Y-93677697D01*
X149995641Y-93844119D01*
X149995643Y-93844124D01*
X150087684Y-93993345D01*
X150211655Y-94117316D01*
X150211659Y-94117319D01*
X150214656Y-94119168D01*
X150216279Y-94120972D01*
X150217323Y-94121798D01*
X150217181Y-94121976D01*
X150261381Y-94171116D01*
X150272602Y-94240079D01*
X150244759Y-94304161D01*
X150214661Y-94330241D01*
X150211349Y-94332283D01*
X150211343Y-94332288D01*
X150087289Y-94456342D01*
X149995187Y-94605663D01*
X149995185Y-94605668D01*
X149987380Y-94629222D01*
X149940001Y-94772203D01*
X149940001Y-94772204D01*
X149940000Y-94772204D01*
X149929500Y-94874983D01*
X149929500Y-95625001D01*
X149929501Y-95625019D01*
X149940000Y-95727796D01*
X149940001Y-95727799D01*
X149995185Y-95894331D01*
X149995187Y-95894336D01*
X149998201Y-95899222D01*
X150077507Y-96027799D01*
X150091080Y-96049803D01*
X150089946Y-96050502D01*
X150113217Y-96108185D01*
X150100176Y-96176827D01*
X150054909Y-96225836D01*
X150036347Y-96237285D01*
X150036343Y-96237288D01*
X149912289Y-96361342D01*
X149820187Y-96510663D01*
X149820185Y-96510668D01*
X149803900Y-96559814D01*
X149765001Y-96677203D01*
X149765001Y-96677204D01*
X149765000Y-96677204D01*
X149754500Y-96779983D01*
X149754500Y-97680001D01*
X149754501Y-97680019D01*
X149765000Y-97782796D01*
X149765001Y-97782799D01*
X149820185Y-97949331D01*
X149820187Y-97949336D01*
X149836132Y-97975187D01*
X149906948Y-98089999D01*
X149912289Y-98098657D01*
X149961451Y-98147819D01*
X149994936Y-98209142D01*
X149989952Y-98278834D01*
X149948080Y-98334767D01*
X149882616Y-98359184D01*
X149873770Y-98359500D01*
X147488401Y-98359500D01*
X147421362Y-98339815D01*
X147375607Y-98287011D01*
X147365663Y-98217853D01*
X147370695Y-98196496D01*
X147414999Y-98062797D01*
X147425500Y-97960009D01*
X147425499Y-97059992D01*
X147421148Y-97017402D01*
X147414999Y-96957203D01*
X147414998Y-96957200D01*
X147410732Y-96944326D01*
X147359814Y-96790666D01*
X147267712Y-96641344D01*
X147143656Y-96517288D01*
X146994334Y-96425186D01*
X146863157Y-96381718D01*
X146835496Y-96372552D01*
X146778051Y-96332779D01*
X146751228Y-96268263D01*
X146750500Y-96254846D01*
X146750500Y-95100908D01*
X146770185Y-95033869D01*
X146814271Y-94995363D01*
X146813187Y-94993605D01*
X146819332Y-94989814D01*
X146819334Y-94989814D01*
X146968656Y-94897712D01*
X147092712Y-94773656D01*
X147184814Y-94624334D01*
X147239999Y-94457797D01*
X147250500Y-94355009D01*
X147250499Y-93604992D01*
X147239999Y-93502203D01*
X147184814Y-93335666D01*
X147092712Y-93186344D01*
X146968656Y-93062288D01*
X146965342Y-93060243D01*
X146963546Y-93058248D01*
X146962989Y-93057807D01*
X146963064Y-93057711D01*
X146918618Y-93008297D01*
X146907397Y-92939334D01*
X146935240Y-92875252D01*
X146965348Y-92849165D01*
X146968342Y-92847318D01*
X146990647Y-92825013D01*
X149930000Y-92825013D01*
X149930000Y-92950000D01*
X150880000Y-92950000D01*
X151380000Y-92950000D01*
X152329999Y-92950000D01*
X152329999Y-92825028D01*
X152329998Y-92825013D01*
X152319505Y-92722302D01*
X152264358Y-92555880D01*
X152264356Y-92555875D01*
X152172315Y-92406654D01*
X152048345Y-92282684D01*
X151899124Y-92190643D01*
X151899119Y-92190641D01*
X151732697Y-92135494D01*
X151732690Y-92135493D01*
X151629986Y-92125000D01*
X151380000Y-92125000D01*
X151380000Y-92950000D01*
X150880000Y-92950000D01*
X150880000Y-92125000D01*
X150630029Y-92125000D01*
X150630012Y-92125001D01*
X150527302Y-92135494D01*
X150360880Y-92190641D01*
X150360875Y-92190643D01*
X150211654Y-92282684D01*
X150087684Y-92406654D01*
X149995643Y-92555875D01*
X149995641Y-92555880D01*
X149940494Y-92722302D01*
X149940493Y-92722309D01*
X149930000Y-92825013D01*
X146990647Y-92825013D01*
X147092315Y-92723345D01*
X147184356Y-92574124D01*
X147184358Y-92574119D01*
X147239505Y-92407697D01*
X147239506Y-92407690D01*
X147249999Y-92304986D01*
X147250000Y-92304973D01*
X147250000Y-92180000D01*
X144850001Y-92180000D01*
X144850001Y-92304986D01*
X144860494Y-92407697D01*
X144915641Y-92574119D01*
X144915643Y-92574124D01*
X145007684Y-92723345D01*
X145131655Y-92847316D01*
X145131659Y-92847319D01*
X145134656Y-92849168D01*
X145136279Y-92850972D01*
X145137323Y-92851798D01*
X145137181Y-92851976D01*
X145181381Y-92901116D01*
X145192602Y-92970079D01*
X145164759Y-93034161D01*
X145134661Y-93060241D01*
X145131349Y-93062283D01*
X145131343Y-93062288D01*
X145007289Y-93186342D01*
X144915187Y-93335663D01*
X144915185Y-93335668D01*
X144890169Y-93411163D01*
X144860001Y-93502203D01*
X144860001Y-93502204D01*
X144860000Y-93502204D01*
X144849500Y-93604983D01*
X144849500Y-94355001D01*
X144849501Y-94355019D01*
X144860000Y-94457796D01*
X144860001Y-94457799D01*
X144915185Y-94624331D01*
X144915187Y-94624336D01*
X144918201Y-94629222D01*
X145007288Y-94773656D01*
X145131344Y-94897712D01*
X145280666Y-94989814D01*
X145280667Y-94989814D01*
X145286813Y-94993605D01*
X145285706Y-94995399D01*
X145330337Y-95034687D01*
X145349500Y-95100908D01*
X145349500Y-96254845D01*
X145329815Y-96321884D01*
X145277011Y-96367639D01*
X145264505Y-96372551D01*
X145105666Y-96425186D01*
X145105663Y-96425187D01*
X145036723Y-96467710D01*
X144956344Y-96517288D01*
X144956342Y-96517289D01*
X144956337Y-96517293D01*
X144939159Y-96534470D01*
X144877835Y-96567952D01*
X144808143Y-96562965D01*
X144763801Y-96534466D01*
X144205224Y-95975888D01*
X144205223Y-95975887D01*
X144090485Y-95899222D01*
X143963010Y-95846421D01*
X143963000Y-95846418D01*
X143827674Y-95819500D01*
X143827672Y-95819500D01*
X143827671Y-95819500D01*
X139768994Y-95819500D01*
X139631006Y-95819500D01*
X139631004Y-95819500D01*
X139495677Y-95846418D01*
X139495667Y-95846421D01*
X139368192Y-95899222D01*
X139253454Y-95975887D01*
X139253453Y-95975888D01*
X138707181Y-96522161D01*
X138645858Y-96555646D01*
X138576166Y-96550662D01*
X138520233Y-96508790D01*
X138495816Y-96443326D01*
X138495500Y-96434480D01*
X138495500Y-93651827D01*
X138501794Y-93612823D01*
X138504389Y-93604992D01*
X138524999Y-93542797D01*
X138535500Y-93440009D01*
X138535499Y-92539992D01*
X138530642Y-92492449D01*
X138524999Y-92437203D01*
X138524998Y-92437200D01*
X138514876Y-92406654D01*
X138469814Y-92270666D01*
X138377712Y-92121344D01*
X138253656Y-91997288D01*
X138135404Y-91924350D01*
X138104336Y-91905187D01*
X138104331Y-91905185D01*
X138053143Y-91888223D01*
X137937797Y-91850001D01*
X137937795Y-91850000D01*
X137835010Y-91839500D01*
X136484998Y-91839500D01*
X136484981Y-91839501D01*
X136382203Y-91850000D01*
X136382200Y-91850001D01*
X136215668Y-91905185D01*
X136215654Y-91905192D01*
X136184594Y-91924350D01*
X136117202Y-91942790D01*
X136050539Y-91921867D01*
X136005770Y-91868224D01*
X135995499Y-91818811D01*
X135995499Y-91699998D01*
X135995498Y-91699981D01*
X135984999Y-91597203D01*
X135984998Y-91597200D01*
X135976095Y-91570332D01*
X135971019Y-91555013D01*
X144850000Y-91555013D01*
X144850000Y-91680000D01*
X145800000Y-91680000D01*
X146300000Y-91680000D01*
X147249999Y-91680000D01*
X147249999Y-91555028D01*
X147249998Y-91555013D01*
X147239505Y-91452302D01*
X147184358Y-91285880D01*
X147184356Y-91285875D01*
X147092315Y-91136654D01*
X146968345Y-91012684D01*
X146819124Y-90920643D01*
X146819119Y-90920641D01*
X146652697Y-90865494D01*
X146652690Y-90865493D01*
X146549986Y-90855000D01*
X146300000Y-90855000D01*
X146300000Y-91680000D01*
X145800000Y-91680000D01*
X145800000Y-90855000D01*
X145550029Y-90855000D01*
X145550012Y-90855001D01*
X145447302Y-90865494D01*
X145280880Y-90920641D01*
X145280875Y-90920643D01*
X145131654Y-91012684D01*
X145007684Y-91136654D01*
X144915643Y-91285875D01*
X144915641Y-91285880D01*
X144860494Y-91452302D01*
X144860493Y-91452309D01*
X144850000Y-91555013D01*
X135971019Y-91555013D01*
X135929814Y-91430666D01*
X135837712Y-91281344D01*
X135713656Y-91157288D01*
X135564334Y-91065186D01*
X135397797Y-91010001D01*
X135397795Y-91010000D01*
X135295016Y-90999500D01*
X135295009Y-90999500D01*
X134731519Y-90999500D01*
X134664480Y-90979815D01*
X134643838Y-90963181D01*
X132701818Y-89021161D01*
X132668333Y-88959838D01*
X132665499Y-88933480D01*
X132665499Y-88399998D01*
X132665498Y-88399981D01*
X132654999Y-88297203D01*
X132654998Y-88297200D01*
X132628610Y-88217566D01*
X132599814Y-88130666D01*
X132507712Y-87981344D01*
X132383656Y-87857288D01*
X132234334Y-87765186D01*
X132067797Y-87710001D01*
X132067795Y-87710000D01*
X131965010Y-87699500D01*
X131214998Y-87699500D01*
X131214980Y-87699501D01*
X131112203Y-87710000D01*
X131112200Y-87710001D01*
X130945668Y-87765185D01*
X130945663Y-87765187D01*
X130796342Y-87857289D01*
X130672288Y-87981343D01*
X130672283Y-87981349D01*
X130670241Y-87984661D01*
X130668247Y-87986453D01*
X130667807Y-87987011D01*
X130667711Y-87986935D01*
X130618291Y-88031383D01*
X130549328Y-88042602D01*
X130485247Y-88014755D01*
X130459168Y-87984656D01*
X130457319Y-87981659D01*
X130457316Y-87981655D01*
X130333345Y-87857684D01*
X130184124Y-87765643D01*
X130184119Y-87765641D01*
X130017697Y-87710494D01*
X130017690Y-87710493D01*
X129914986Y-87700000D01*
X129790000Y-87700000D01*
X129790000Y-90099999D01*
X129914972Y-90099999D01*
X129914986Y-90099998D01*
X130017697Y-90089505D01*
X130184119Y-90034358D01*
X130184124Y-90034356D01*
X130333345Y-89942315D01*
X130457318Y-89818342D01*
X130459165Y-89815348D01*
X130460969Y-89813724D01*
X130461798Y-89812677D01*
X130461976Y-89812818D01*
X130511110Y-89768621D01*
X130580073Y-89757396D01*
X130644156Y-89785236D01*
X130670243Y-89815341D01*
X130672288Y-89818656D01*
X130796344Y-89942712D01*
X130945666Y-90034814D01*
X131112203Y-90089999D01*
X131214991Y-90100500D01*
X131748480Y-90100499D01*
X131815519Y-90120183D01*
X131836161Y-90136818D01*
X133217186Y-91517843D01*
X133250671Y-91579166D01*
X133252863Y-91618126D01*
X133244500Y-91699981D01*
X133244500Y-92600001D01*
X133244501Y-92600017D01*
X133250840Y-92662060D01*
X133238070Y-92730753D01*
X133190190Y-92781637D01*
X133127482Y-92798662D01*
X131781842Y-92798662D01*
X131646515Y-92825580D01*
X131646505Y-92825583D01*
X131519030Y-92878384D01*
X131404292Y-92955049D01*
X130521160Y-93838181D01*
X130459837Y-93871666D01*
X130433479Y-93874500D01*
X129649998Y-93874500D01*
X129649980Y-93874501D01*
X129547203Y-93885000D01*
X129547200Y-93885001D01*
X129380668Y-93940185D01*
X129380663Y-93940187D01*
X129231342Y-94032289D01*
X129107289Y-94156342D01*
X129015187Y-94305663D01*
X129015185Y-94305668D01*
X128998275Y-94356699D01*
X128960001Y-94472203D01*
X128960001Y-94472204D01*
X128960000Y-94472204D01*
X128949500Y-94574983D01*
X128949500Y-95925001D01*
X128949501Y-95925018D01*
X128960000Y-96027796D01*
X128960001Y-96027799D01*
X128990109Y-96118657D01*
X129015186Y-96194334D01*
X129107288Y-96343656D01*
X129231344Y-96467712D01*
X129380666Y-96559814D01*
X129547203Y-96614999D01*
X129649991Y-96625500D01*
X130550008Y-96625499D01*
X130550016Y-96625498D01*
X130550019Y-96625498D01*
X130606302Y-96619748D01*
X130652797Y-96614999D01*
X130819334Y-96559814D01*
X130968656Y-96467712D01*
X131092712Y-96343656D01*
X131184814Y-96194334D01*
X131239999Y-96027797D01*
X131250500Y-95925009D01*
X131250499Y-95141517D01*
X131270183Y-95074479D01*
X131286813Y-95053842D01*
X132104676Y-94235981D01*
X132165999Y-94202496D01*
X132192357Y-94199662D01*
X133292176Y-94199662D01*
X133359215Y-94219347D01*
X133404970Y-94272151D01*
X133414914Y-94341309D01*
X133397715Y-94388756D01*
X133362171Y-94446383D01*
X133310187Y-94530663D01*
X133310185Y-94530668D01*
X133295024Y-94576421D01*
X133255001Y-94697203D01*
X133255001Y-94697204D01*
X133255000Y-94697204D01*
X133244500Y-94799983D01*
X133244500Y-95700001D01*
X133244501Y-95700019D01*
X133255000Y-95802796D01*
X133255001Y-95802799D01*
X133310185Y-95969331D01*
X133310187Y-95969336D01*
X133319438Y-95984334D01*
X133402288Y-96118656D01*
X133526344Y-96242712D01*
X133675666Y-96334814D01*
X133842203Y-96389999D01*
X133944991Y-96400500D01*
X135295008Y-96400499D01*
X135397797Y-96389999D01*
X135564334Y-96334814D01*
X135635404Y-96290977D01*
X135702796Y-96272538D01*
X135769459Y-96293461D01*
X135814229Y-96347103D01*
X135824500Y-96396517D01*
X135824500Y-96944326D01*
X135804815Y-97011365D01*
X135752011Y-97057120D01*
X135682853Y-97067064D01*
X135665905Y-97063402D01*
X135507573Y-97017402D01*
X135507567Y-97017401D01*
X135470701Y-97014500D01*
X135470694Y-97014500D01*
X135039306Y-97014500D01*
X135039298Y-97014500D01*
X135002432Y-97017401D01*
X135002426Y-97017402D01*
X134844606Y-97063254D01*
X134844603Y-97063255D01*
X134703140Y-97146915D01*
X134696974Y-97151699D01*
X134695174Y-97149379D01*
X134645913Y-97176230D01*
X134576225Y-97171193D01*
X134543992Y-97150461D01*
X134542722Y-97152100D01*
X134536552Y-97147314D01*
X134395196Y-97063717D01*
X134395193Y-97063716D01*
X134237494Y-97017900D01*
X134237497Y-97017900D01*
X134235000Y-97017703D01*
X134235000Y-98616000D01*
X134215315Y-98683039D01*
X134162511Y-98728794D01*
X134111000Y-98740000D01*
X133185000Y-98740000D01*
X133185000Y-99093250D01*
X133165315Y-99160289D01*
X133112511Y-99206044D01*
X133061000Y-99217250D01*
X124803253Y-99217250D01*
X124694840Y-99238815D01*
X124694839Y-99238815D01*
X124667921Y-99244170D01*
X124619256Y-99264328D01*
X124619255Y-99264328D01*
X124540443Y-99296972D01*
X124540441Y-99296973D01*
X124480107Y-99337288D01*
X124480106Y-99337288D01*
X124425711Y-99373633D01*
X124425703Y-99373639D01*
X124029754Y-99769587D01*
X123968431Y-99803072D01*
X123898739Y-99798088D01*
X123842806Y-99756216D01*
X123818389Y-99690752D01*
X123827511Y-99634457D01*
X123841707Y-99600186D01*
X123863580Y-99547381D01*
X123867623Y-99527053D01*
X123871703Y-99506545D01*
X123871703Y-99506542D01*
X123886740Y-99430944D01*
X123890500Y-99412046D01*
X123890500Y-97599350D01*
X133185000Y-97599350D01*
X133185000Y-98240000D01*
X133735000Y-98240000D01*
X133735000Y-97017703D01*
X133732503Y-97017900D01*
X133574806Y-97063716D01*
X133574803Y-97063717D01*
X133433447Y-97147314D01*
X133433438Y-97147321D01*
X133317321Y-97263438D01*
X133317314Y-97263447D01*
X133233717Y-97404803D01*
X133233716Y-97404806D01*
X133187900Y-97562504D01*
X133187899Y-97562510D01*
X133185000Y-97599350D01*
X123890500Y-97599350D01*
X123890500Y-97397292D01*
X123910185Y-97330253D01*
X123962989Y-97284498D01*
X124014500Y-97273292D01*
X124194114Y-97273292D01*
X124194116Y-97273292D01*
X124364829Y-97232832D01*
X124521610Y-97154094D01*
X124601718Y-97088837D01*
X125308836Y-96381718D01*
X125374094Y-96301610D01*
X125374096Y-96301605D01*
X125377771Y-96295929D01*
X125380229Y-96297520D01*
X125419072Y-96255912D01*
X125482204Y-96238638D01*
X125873306Y-96238638D01*
X125940345Y-96258323D01*
X125978843Y-96297539D01*
X126007288Y-96343656D01*
X126131344Y-96467712D01*
X126280666Y-96559814D01*
X126447203Y-96614999D01*
X126549991Y-96625500D01*
X127450008Y-96625499D01*
X127450016Y-96625498D01*
X127450019Y-96625498D01*
X127506302Y-96619748D01*
X127552797Y-96614999D01*
X127719334Y-96559814D01*
X127868656Y-96467712D01*
X127992712Y-96343656D01*
X128084814Y-96194334D01*
X128139999Y-96027797D01*
X128150500Y-95925009D01*
X128150499Y-94574992D01*
X128146607Y-94536896D01*
X128139999Y-94472203D01*
X128139998Y-94472200D01*
X128120601Y-94413665D01*
X128084814Y-94305666D01*
X127992712Y-94156344D01*
X127868656Y-94032288D01*
X127719334Y-93940186D01*
X127552797Y-93885001D01*
X127552795Y-93885000D01*
X127450010Y-93874500D01*
X126549998Y-93874500D01*
X126549980Y-93874501D01*
X126484996Y-93881140D01*
X126416303Y-93868370D01*
X126365419Y-93820489D01*
X126348499Y-93752699D01*
X126352415Y-93726469D01*
X126414017Y-93490522D01*
X126414295Y-93489478D01*
X126544472Y-93012300D01*
X126544709Y-93011447D01*
X126682705Y-92524982D01*
X126682968Y-92524074D01*
X126825423Y-92040385D01*
X126825728Y-92039371D01*
X126969336Y-91570332D01*
X126969771Y-91568943D01*
X126986105Y-91517843D01*
X127111023Y-91127025D01*
X127111868Y-91124479D01*
X127132258Y-91065185D01*
X127422026Y-90222521D01*
X127423339Y-90218892D01*
X127451838Y-90143749D01*
X127733919Y-89399986D01*
X128465001Y-89399986D01*
X128475494Y-89502697D01*
X128530641Y-89669119D01*
X128530643Y-89669124D01*
X128622684Y-89818345D01*
X128746654Y-89942315D01*
X128895875Y-90034356D01*
X128895880Y-90034358D01*
X129062302Y-90089505D01*
X129062309Y-90089506D01*
X129165019Y-90099999D01*
X129289999Y-90099999D01*
X129290000Y-90099998D01*
X129290000Y-89150000D01*
X128465001Y-89150000D01*
X128465001Y-89399986D01*
X127733919Y-89399986D01*
X127747276Y-89364768D01*
X127748804Y-89360937D01*
X128086177Y-88554836D01*
X128087979Y-88550744D01*
X128242065Y-88217566D01*
X128288070Y-88164985D01*
X128355203Y-88145621D01*
X128422147Y-88165626D01*
X128467649Y-88218648D01*
X128477262Y-88287854D01*
X128475865Y-88295568D01*
X128475494Y-88297300D01*
X128465000Y-88400013D01*
X128465000Y-88650000D01*
X129290000Y-88650000D01*
X129290000Y-87700000D01*
X129165027Y-87700000D01*
X129165012Y-87700001D01*
X129062302Y-87710494D01*
X128895880Y-87765641D01*
X128895875Y-87765643D01*
X128746654Y-87857684D01*
X128622683Y-87981655D01*
X128618202Y-87987323D01*
X128615957Y-87985548D01*
X128573713Y-88023536D01*
X128504749Y-88034748D01*
X128440670Y-88006897D01*
X128401822Y-87948823D01*
X128400538Y-87878965D01*
X128407590Y-87859658D01*
X128438268Y-87793322D01*
X128440430Y-87788881D01*
X128803143Y-87080708D01*
X128805715Y-87075950D01*
X129180282Y-86417721D01*
X129183346Y-86412626D01*
X129569254Y-85804891D01*
X129572929Y-85799432D01*
X129722189Y-85589986D01*
X131250001Y-85589986D01*
X131260494Y-85692697D01*
X131315641Y-85859119D01*
X131315643Y-85859124D01*
X131407684Y-86008345D01*
X131531654Y-86132315D01*
X131680875Y-86224356D01*
X131680880Y-86224358D01*
X131847302Y-86279505D01*
X131847309Y-86279506D01*
X131950019Y-86289999D01*
X132074999Y-86289999D01*
X132075000Y-86289998D01*
X132075000Y-85340000D01*
X131250001Y-85340000D01*
X131250001Y-85589986D01*
X129722189Y-85589986D01*
X129969578Y-85242841D01*
X129973972Y-85237043D01*
X130380830Y-84732104D01*
X130386087Y-84726000D01*
X130511181Y-84590013D01*
X131250000Y-84590013D01*
X131250000Y-84840000D01*
X132075000Y-84840000D01*
X132075000Y-83890000D01*
X132575000Y-83890000D01*
X132575000Y-86289999D01*
X132699972Y-86289999D01*
X132699986Y-86289998D01*
X132802697Y-86279505D01*
X132969119Y-86224358D01*
X132969124Y-86224356D01*
X133118345Y-86132315D01*
X133242318Y-86008342D01*
X133244165Y-86005348D01*
X133245969Y-86003724D01*
X133246798Y-86002677D01*
X133246976Y-86002818D01*
X133296110Y-85958621D01*
X133365073Y-85947396D01*
X133429156Y-85975236D01*
X133455243Y-86005341D01*
X133457288Y-86008656D01*
X133457289Y-86008657D01*
X133581345Y-86132713D01*
X133615594Y-86153837D01*
X133662320Y-86205784D01*
X133674500Y-86259377D01*
X133674500Y-88586006D01*
X133674500Y-88723994D01*
X133674500Y-88723996D01*
X133674499Y-88723996D01*
X133701418Y-88859322D01*
X133701421Y-88859332D01*
X133754222Y-88986807D01*
X133830887Y-89101545D01*
X135163454Y-90434112D01*
X135278192Y-90510777D01*
X135387541Y-90556070D01*
X135405672Y-90563580D01*
X135405676Y-90563580D01*
X135405677Y-90563581D01*
X135541003Y-90590500D01*
X135541006Y-90590500D01*
X135541007Y-90590500D01*
X135769362Y-90590500D01*
X135836401Y-90610185D01*
X135874899Y-90649401D01*
X135942288Y-90758656D01*
X136066344Y-90882712D01*
X136215666Y-90974814D01*
X136382203Y-91029999D01*
X136484991Y-91040500D01*
X137835008Y-91040499D01*
X137937797Y-91029999D01*
X138104334Y-90974814D01*
X138253656Y-90882712D01*
X138377712Y-90758656D01*
X138469814Y-90609334D01*
X138524999Y-90442797D01*
X138535500Y-90340009D01*
X138535499Y-89439992D01*
X138532596Y-89411577D01*
X138524999Y-89337203D01*
X138524998Y-89337200D01*
X138469814Y-89170666D01*
X138377712Y-89021344D01*
X138253656Y-88897288D01*
X138104334Y-88805186D01*
X137937797Y-88750001D01*
X137937795Y-88750000D01*
X137835010Y-88739500D01*
X136484998Y-88739500D01*
X136484981Y-88739501D01*
X136382203Y-88750000D01*
X136382200Y-88750001D01*
X136215668Y-88805185D01*
X136215663Y-88805187D01*
X136066342Y-88897289D01*
X135942288Y-89021343D01*
X135937807Y-89027011D01*
X135935940Y-89025534D01*
X135892444Y-89064657D01*
X135823481Y-89075878D01*
X135759399Y-89048034D01*
X135751173Y-89040516D01*
X135111819Y-88401162D01*
X135078334Y-88339839D01*
X135075500Y-88313481D01*
X135075500Y-86259377D01*
X135095185Y-86192338D01*
X135134406Y-86153837D01*
X135168654Y-86132713D01*
X135168653Y-86132713D01*
X135168656Y-86132712D01*
X135292712Y-86008656D01*
X135384814Y-85859334D01*
X135439999Y-85692797D01*
X135450500Y-85590009D01*
X135450499Y-84589992D01*
X135439999Y-84487203D01*
X135384814Y-84320666D01*
X135292712Y-84171344D01*
X135168656Y-84047288D01*
X135019334Y-83955186D01*
X134852797Y-83900001D01*
X134852795Y-83900000D01*
X134750010Y-83889500D01*
X133999998Y-83889500D01*
X133999980Y-83889501D01*
X133897203Y-83900000D01*
X133897200Y-83900001D01*
X133730668Y-83955185D01*
X133730663Y-83955187D01*
X133581342Y-84047289D01*
X133457288Y-84171343D01*
X133457283Y-84171349D01*
X133455241Y-84174661D01*
X133453247Y-84176453D01*
X133452807Y-84177011D01*
X133452711Y-84176935D01*
X133403291Y-84221383D01*
X133334328Y-84232602D01*
X133270247Y-84204755D01*
X133244168Y-84174656D01*
X133242319Y-84171659D01*
X133242316Y-84171655D01*
X133118345Y-84047684D01*
X132969124Y-83955643D01*
X132969119Y-83955641D01*
X132802697Y-83900494D01*
X132802690Y-83900493D01*
X132699986Y-83890000D01*
X132575000Y-83890000D01*
X132075000Y-83890000D01*
X131950027Y-83890000D01*
X131950012Y-83890001D01*
X131847302Y-83900494D01*
X131680880Y-83955641D01*
X131680875Y-83955643D01*
X131531654Y-84047684D01*
X131407684Y-84171654D01*
X131315643Y-84320875D01*
X131315641Y-84320880D01*
X131260494Y-84487302D01*
X131260493Y-84487309D01*
X131250000Y-84590013D01*
X130511181Y-84590013D01*
X130802503Y-84273322D01*
X130808795Y-84266961D01*
X131234158Y-83867043D01*
X131241643Y-83860551D01*
X131675381Y-83513806D01*
X131684194Y-83507378D01*
X132125680Y-83214223D01*
X132135922Y-83208109D01*
X132584717Y-82968800D01*
X132596365Y-82963345D01*
X133052057Y-82778145D01*
X133064947Y-82773716D01*
X133529544Y-82642227D01*
X133538927Y-82639964D01*
X133676782Y-82612363D01*
X133681719Y-82611479D01*
X133826202Y-82588611D01*
X133830842Y-82587966D01*
X133979384Y-82570243D01*
X133983750Y-82569803D01*
X134135629Y-82557241D01*
X134139844Y-82556966D01*
X134294564Y-82549550D01*
X134298590Y-82549424D01*
X134455576Y-82547138D01*
X134459468Y-82547144D01*
G37*
%TD.AperFunction*%
%TD*%
%TA.AperFunction,Conductor*%
%TO.N,VCC*%
G36*
X119086168Y-91556030D02*
G01*
X119147105Y-91584795D01*
X119148775Y-91585600D01*
X119239590Y-91630312D01*
X119239686Y-91630359D01*
X119239725Y-91630378D01*
X119436014Y-91726075D01*
X119436035Y-91726084D01*
X119436048Y-91726091D01*
X119660277Y-91829442D01*
X119922123Y-91944462D01*
X119922142Y-91944470D01*
X119922167Y-91944481D01*
X120127302Y-92031222D01*
X120231433Y-92075254D01*
X120598054Y-92225916D01*
X121031832Y-92400549D01*
X122139870Y-92837980D01*
X122140738Y-92838328D01*
X122608617Y-93028515D01*
X122663308Y-93071994D01*
X122685811Y-93138141D01*
X122668980Y-93205953D01*
X122618159Y-93253900D01*
X122590522Y-93264043D01*
X122575344Y-93267640D01*
X122418665Y-93346327D01*
X122338623Y-93411530D01*
X122338607Y-93411544D01*
X122161853Y-93588298D01*
X122161853Y-93588299D01*
X123011088Y-94437534D01*
X123044573Y-94498857D01*
X123039589Y-94568549D01*
X123011088Y-94612896D01*
X122832897Y-94791088D01*
X122771574Y-94824573D01*
X122701883Y-94819589D01*
X122657535Y-94791088D01*
X121808300Y-93941853D01*
X121631537Y-94118617D01*
X121631527Y-94118628D01*
X121566331Y-94198659D01*
X121566327Y-94198665D01*
X121487641Y-94355342D01*
X121447208Y-94525943D01*
X121447208Y-94701264D01*
X121487641Y-94871865D01*
X121566327Y-95028543D01*
X121631526Y-95108580D01*
X121631539Y-95108595D01*
X122161830Y-95638885D01*
X122161851Y-95638904D01*
X122241882Y-95704100D01*
X122241888Y-95704104D01*
X122398566Y-95782790D01*
X122569168Y-95823224D01*
X122744488Y-95823224D01*
X122747913Y-95822412D01*
X122750341Y-95822540D01*
X122751663Y-95822386D01*
X122751689Y-95822611D01*
X122817685Y-95826102D01*
X122874386Y-95866927D01*
X122900014Y-95931927D01*
X122897174Y-95971662D01*
X122896276Y-95975451D01*
X122896276Y-96150891D01*
X122936737Y-96321609D01*
X122993396Y-96434426D01*
X123015474Y-96478387D01*
X123069308Y-96544471D01*
X123080727Y-96558489D01*
X123080733Y-96558496D01*
X123453605Y-96931368D01*
X123487090Y-96992691D01*
X123482106Y-97062383D01*
X123478718Y-97070561D01*
X123425164Y-97187826D01*
X123405476Y-97254874D01*
X123385000Y-97397293D01*
X123385000Y-99092980D01*
X123365315Y-99160019D01*
X123348681Y-99180661D01*
X123019338Y-99510004D01*
X122958015Y-99543489D01*
X122888323Y-99538505D01*
X122871387Y-99525827D01*
X122883429Y-99541526D01*
X122889230Y-99611154D01*
X122856465Y-99672865D01*
X122855444Y-99673898D01*
X120523419Y-102005922D01*
X120523418Y-102005923D01*
X120446753Y-102120661D01*
X120393952Y-102248136D01*
X120393949Y-102248148D01*
X120367925Y-102378981D01*
X120367922Y-102378997D01*
X120367031Y-102383470D01*
X120367031Y-102773128D01*
X120347346Y-102840167D01*
X120294542Y-102885922D01*
X120225384Y-102895866D01*
X120177935Y-102878667D01*
X120099340Y-102830189D01*
X120099335Y-102830187D01*
X120099334Y-102830186D01*
X119932797Y-102775001D01*
X119932795Y-102775000D01*
X119830010Y-102764500D01*
X118929998Y-102764500D01*
X118929980Y-102764501D01*
X118827203Y-102775000D01*
X118827200Y-102775001D01*
X118660668Y-102830185D01*
X118660663Y-102830187D01*
X118511342Y-102922289D01*
X118435165Y-102998465D01*
X118373842Y-103031950D01*
X118304150Y-103026964D01*
X118282389Y-103016322D01*
X118273231Y-103010674D01*
X118264334Y-103005186D01*
X118097797Y-102950001D01*
X118097795Y-102950000D01*
X117995010Y-102939500D01*
X117244998Y-102939500D01*
X117244980Y-102939501D01*
X117142203Y-102950000D01*
X117142200Y-102950001D01*
X116975668Y-103005185D01*
X116975663Y-103005187D01*
X116826342Y-103097289D01*
X116702288Y-103221343D01*
X116702283Y-103221349D01*
X116700241Y-103224661D01*
X116698247Y-103226453D01*
X116697807Y-103227011D01*
X116697711Y-103226935D01*
X116648291Y-103271383D01*
X116579328Y-103282602D01*
X116515247Y-103254755D01*
X116489168Y-103224656D01*
X116487319Y-103221659D01*
X116487316Y-103221655D01*
X116363345Y-103097684D01*
X116214124Y-103005643D01*
X116214119Y-103005641D01*
X116047697Y-102950494D01*
X116047690Y-102950493D01*
X115944986Y-102940000D01*
X115820000Y-102940000D01*
X115820000Y-105339999D01*
X115944972Y-105339999D01*
X115944986Y-105339998D01*
X116047697Y-105329505D01*
X116214119Y-105274358D01*
X116214124Y-105274356D01*
X116363345Y-105182315D01*
X116487318Y-105058342D01*
X116489165Y-105055348D01*
X116490969Y-105053724D01*
X116491798Y-105052677D01*
X116491976Y-105052818D01*
X116541110Y-105008621D01*
X116610073Y-104997396D01*
X116674156Y-105025236D01*
X116700243Y-105055341D01*
X116702288Y-105058656D01*
X116826344Y-105182712D01*
X116975666Y-105274814D01*
X117142203Y-105329999D01*
X117244991Y-105340500D01*
X117995008Y-105340499D01*
X117995016Y-105340498D01*
X117995019Y-105340498D01*
X118051302Y-105334748D01*
X118097797Y-105329999D01*
X118264334Y-105274814D01*
X118266525Y-105273462D01*
X118282389Y-105263678D01*
X118349781Y-105245237D01*
X118416445Y-105266159D01*
X118435167Y-105281535D01*
X118511344Y-105357712D01*
X118660666Y-105449814D01*
X118827203Y-105504999D01*
X118929991Y-105515500D01*
X119830008Y-105515499D01*
X119830016Y-105515498D01*
X119830019Y-105515498D01*
X119914471Y-105506871D01*
X119932797Y-105504999D01*
X120099334Y-105449814D01*
X120177935Y-105401332D01*
X120245326Y-105382892D01*
X120311990Y-105403814D01*
X120356759Y-105457456D01*
X120367031Y-105506871D01*
X120367031Y-105755729D01*
X120367031Y-105893717D01*
X120367031Y-105893719D01*
X120367030Y-105893719D01*
X120393949Y-106029045D01*
X120393952Y-106029055D01*
X120446753Y-106156530D01*
X120523418Y-106271268D01*
X120523419Y-106271269D01*
X121378694Y-107126542D01*
X121431826Y-107179674D01*
X121476267Y-107224115D01*
X121590990Y-107300771D01*
X121590997Y-107300775D01*
X121659680Y-107329224D01*
X121659681Y-107329225D01*
X121684036Y-107339312D01*
X121718479Y-107353580D01*
X121718488Y-107353581D01*
X121718489Y-107353582D01*
X121745353Y-107358925D01*
X121745359Y-107358926D01*
X121745399Y-107358934D01*
X121835745Y-107376905D01*
X121853814Y-107380500D01*
X121853815Y-107380500D01*
X123097009Y-107380500D01*
X123164048Y-107400185D01*
X123184690Y-107416819D01*
X123499844Y-107731974D01*
X123499845Y-107731975D01*
X123614583Y-107808640D01*
X123742053Y-107861439D01*
X123742063Y-107861443D01*
X123742067Y-107861443D01*
X123742068Y-107861444D01*
X123877394Y-107888363D01*
X123877397Y-107888363D01*
X133109998Y-107888363D01*
X133201042Y-107870252D01*
X133245330Y-107861443D01*
X133357338Y-107815048D01*
X133372809Y-107808640D01*
X133372810Y-107808639D01*
X133372813Y-107808638D01*
X133487545Y-107731977D01*
X134472703Y-106746819D01*
X134534026Y-106713334D01*
X134560384Y-106710500D01*
X135316509Y-106710500D01*
X135383548Y-106730185D01*
X135404190Y-106746819D01*
X135881481Y-107224111D01*
X135881482Y-107224112D01*
X135996220Y-107300777D01*
X136123695Y-107353578D01*
X136123700Y-107353580D01*
X136123704Y-107353580D01*
X136123705Y-107353581D01*
X136259031Y-107380500D01*
X136259034Y-107380500D01*
X136259035Y-107380500D01*
X137287051Y-107380500D01*
X137354090Y-107400185D01*
X137399845Y-107452989D01*
X137404756Y-107465493D01*
X137407614Y-107474119D01*
X137407686Y-107474334D01*
X137499788Y-107623656D01*
X137623844Y-107747712D01*
X137670596Y-107776548D01*
X137717320Y-107828494D01*
X137729500Y-107882087D01*
X137729500Y-111548294D01*
X137709815Y-111615333D01*
X137676624Y-111649869D01*
X137588599Y-111711505D01*
X137588597Y-111711506D01*
X137421505Y-111878597D01*
X137285965Y-112072169D01*
X137285964Y-112072171D01*
X137186098Y-112286335D01*
X137186094Y-112286344D01*
X137124938Y-112514586D01*
X137124936Y-112514596D01*
X137104341Y-112749999D01*
X137104341Y-112750000D01*
X137124936Y-112985403D01*
X137124938Y-112985413D01*
X137186094Y-113213655D01*
X137186096Y-113213659D01*
X137186097Y-113213663D01*
X137258986Y-113369973D01*
X137285965Y-113427830D01*
X137285967Y-113427834D01*
X137389045Y-113575044D01*
X137421505Y-113621401D01*
X137588599Y-113788495D01*
X137673078Y-113847648D01*
X137782165Y-113924032D01*
X137782167Y-113924033D01*
X137782170Y-113924035D01*
X137996337Y-114023903D01*
X137996343Y-114023904D01*
X137996344Y-114023905D01*
X138051285Y-114038626D01*
X138224592Y-114085063D01*
X138395319Y-114100000D01*
X138459999Y-114105659D01*
X138460000Y-114105659D01*
X138460001Y-114105659D01*
X138524681Y-114100000D01*
X138695408Y-114085063D01*
X138923663Y-114023903D01*
X139137830Y-113924035D01*
X139331401Y-113788495D01*
X139453717Y-113666178D01*
X139515036Y-113632696D01*
X139584728Y-113637680D01*
X139640662Y-113679551D01*
X139657577Y-113710528D01*
X139706646Y-113842088D01*
X139706649Y-113842093D01*
X139792809Y-113957187D01*
X139792812Y-113957190D01*
X139907906Y-114043350D01*
X139907913Y-114043354D01*
X140042620Y-114093596D01*
X140042627Y-114093598D01*
X140102155Y-114099999D01*
X140102172Y-114100000D01*
X140750000Y-114100000D01*
X140750000Y-113183012D01*
X140807007Y-113215925D01*
X140934174Y-113250000D01*
X141065826Y-113250000D01*
X141192993Y-113215925D01*
X141250000Y-113183012D01*
X141250000Y-114100000D01*
X141897828Y-114100000D01*
X141897844Y-114099999D01*
X141957372Y-114093598D01*
X141957379Y-114093596D01*
X142092086Y-114043354D01*
X142092093Y-114043350D01*
X142207187Y-113957190D01*
X142207190Y-113957187D01*
X142293350Y-113842093D01*
X142293354Y-113842086D01*
X142343596Y-113707379D01*
X142343598Y-113707372D01*
X142349999Y-113647844D01*
X142350000Y-113647827D01*
X142350000Y-113000000D01*
X141433012Y-113000000D01*
X141465925Y-112942993D01*
X141500000Y-112815826D01*
X141500000Y-112684174D01*
X141465925Y-112557007D01*
X141433012Y-112500000D01*
X142350000Y-112500000D01*
X142350000Y-111852172D01*
X142349999Y-111852155D01*
X142343598Y-111792627D01*
X142343596Y-111792620D01*
X142293354Y-111657913D01*
X142293350Y-111657906D01*
X142207190Y-111542812D01*
X142207187Y-111542809D01*
X142092093Y-111456649D01*
X142092086Y-111456645D01*
X141957379Y-111406403D01*
X141957372Y-111406401D01*
X141897844Y-111400000D01*
X141250000Y-111400000D01*
X141250000Y-112316988D01*
X141192993Y-112284075D01*
X141065826Y-112250000D01*
X140934174Y-112250000D01*
X140807007Y-112284075D01*
X140750000Y-112316988D01*
X140750000Y-111400000D01*
X140102155Y-111400000D01*
X140042627Y-111406401D01*
X140042620Y-111406403D01*
X139907913Y-111456645D01*
X139907906Y-111456649D01*
X139792812Y-111542809D01*
X139792809Y-111542812D01*
X139706649Y-111657906D01*
X139706645Y-111657913D01*
X139657578Y-111789470D01*
X139615707Y-111845404D01*
X139550242Y-111869821D01*
X139481969Y-111854969D01*
X139453715Y-111833819D01*
X139394660Y-111774764D01*
X139331401Y-111711505D01*
X139183375Y-111607856D01*
X139139752Y-111553280D01*
X139130500Y-111506282D01*
X139130500Y-107882087D01*
X139150185Y-107815048D01*
X139189402Y-107776548D01*
X139236156Y-107747712D01*
X139360212Y-107623656D01*
X139362252Y-107620347D01*
X139364245Y-107618555D01*
X139364693Y-107617989D01*
X139364789Y-107618065D01*
X139414194Y-107573623D01*
X139483156Y-107562395D01*
X139547240Y-107590234D01*
X139573329Y-107620339D01*
X139575181Y-107623341D01*
X139575183Y-107623344D01*
X139699154Y-107747315D01*
X139848375Y-107839356D01*
X139848380Y-107839358D01*
X140014802Y-107894505D01*
X140014809Y-107894506D01*
X140117519Y-107904999D01*
X140254999Y-107904999D01*
X140755000Y-107904999D01*
X140892472Y-107904999D01*
X140892486Y-107904998D01*
X140995197Y-107894505D01*
X141161619Y-107839358D01*
X141161624Y-107839356D01*
X141310845Y-107747315D01*
X141434815Y-107623345D01*
X141526856Y-107474124D01*
X141526858Y-107474119D01*
X141582005Y-107307697D01*
X141582006Y-107307690D01*
X141592499Y-107204986D01*
X141592500Y-107204973D01*
X141592500Y-106930000D01*
X140755000Y-106930000D01*
X140755000Y-107904999D01*
X140254999Y-107904999D01*
X140255000Y-107904998D01*
X140255000Y-106554000D01*
X140274685Y-106486961D01*
X140327489Y-106441206D01*
X140379000Y-106430000D01*
X141592499Y-106430000D01*
X141592499Y-106155028D01*
X141592498Y-106155013D01*
X141582005Y-106052302D01*
X141540442Y-105926873D01*
X141538040Y-105857045D01*
X141570464Y-105800192D01*
X142149114Y-105221543D01*
X142225775Y-105106811D01*
X142228040Y-105101344D01*
X142271096Y-104997396D01*
X142278580Y-104979328D01*
X142284165Y-104951248D01*
X142316547Y-104889339D01*
X142377262Y-104854763D01*
X142447032Y-104858501D01*
X142457549Y-104863409D01*
X142457646Y-104863185D01*
X142464799Y-104866280D01*
X142622514Y-104912100D01*
X142622511Y-104912100D01*
X142624998Y-104912295D01*
X142625000Y-104912295D01*
X143125000Y-104912295D01*
X143125001Y-104912295D01*
X143127486Y-104912100D01*
X143285198Y-104866281D01*
X143426552Y-104782685D01*
X143426561Y-104782678D01*
X143542678Y-104666561D01*
X143542685Y-104666552D01*
X143626282Y-104525196D01*
X143626283Y-104525193D01*
X143672099Y-104367495D01*
X143672100Y-104367489D01*
X143674999Y-104330649D01*
X143675000Y-104330634D01*
X143675000Y-103690000D01*
X143125000Y-103690000D01*
X143125000Y-104912295D01*
X142625000Y-104912295D01*
X142625000Y-103314000D01*
X142644685Y-103246961D01*
X142697489Y-103201206D01*
X142749000Y-103190000D01*
X143675000Y-103190000D01*
X143675000Y-102848764D01*
X143694685Y-102781725D01*
X143747489Y-102735970D01*
X143799000Y-102724764D01*
X143890626Y-102724764D01*
X143957665Y-102744449D01*
X143978307Y-102761083D01*
X146149714Y-104932489D01*
X146199890Y-104982665D01*
X146247287Y-105030062D01*
X146362010Y-105106718D01*
X146362017Y-105106722D01*
X146430446Y-105135066D01*
X146489499Y-105159527D01*
X146489508Y-105159528D01*
X146489509Y-105159529D01*
X146516373Y-105164872D01*
X146516379Y-105164873D01*
X146516419Y-105164881D01*
X146604063Y-105182315D01*
X146624834Y-105186447D01*
X146624835Y-105186447D01*
X147129746Y-105186447D01*
X147196785Y-105206132D01*
X147242540Y-105258936D01*
X147252484Y-105328094D01*
X147247452Y-105349449D01*
X147230388Y-105400947D01*
X147225001Y-105417203D01*
X147225000Y-105417204D01*
X147214500Y-105519983D01*
X147214500Y-106420001D01*
X147214501Y-106420019D01*
X147225000Y-106522796D01*
X147225001Y-106522799D01*
X147273945Y-106670500D01*
X147280186Y-106689334D01*
X147372288Y-106838656D01*
X147496344Y-106962712D01*
X147645666Y-107054814D01*
X147812203Y-107109999D01*
X147914991Y-107120500D01*
X149258480Y-107120499D01*
X149325519Y-107140184D01*
X149346161Y-107156818D01*
X151163181Y-108973838D01*
X151196666Y-109035161D01*
X151199500Y-109061519D01*
X151199500Y-109595001D01*
X151199501Y-109595019D01*
X151210000Y-109697796D01*
X151210001Y-109697799D01*
X151265185Y-109864331D01*
X151265187Y-109864336D01*
X151276037Y-109881926D01*
X151357288Y-110013656D01*
X151481344Y-110137712D01*
X151484628Y-110139737D01*
X151484653Y-110139753D01*
X151486445Y-110141746D01*
X151487011Y-110142193D01*
X151486934Y-110142289D01*
X151531379Y-110191699D01*
X151542603Y-110260661D01*
X151514761Y-110324744D01*
X151484665Y-110350826D01*
X151481660Y-110352679D01*
X151481655Y-110352683D01*
X151357684Y-110476654D01*
X151265643Y-110625875D01*
X151265641Y-110625880D01*
X151210494Y-110792302D01*
X151210493Y-110792309D01*
X151200000Y-110895013D01*
X151200000Y-111020000D01*
X153599999Y-111020000D01*
X153599999Y-110895028D01*
X153599998Y-110895013D01*
X153589505Y-110792302D01*
X153534358Y-110625880D01*
X153534356Y-110625875D01*
X153442315Y-110476654D01*
X153318344Y-110352683D01*
X153318341Y-110352681D01*
X153315339Y-110350829D01*
X153313713Y-110349021D01*
X153312677Y-110348202D01*
X153312817Y-110348024D01*
X153268617Y-110298880D01*
X153257397Y-110229917D01*
X153285243Y-110165836D01*
X153315344Y-110139754D01*
X153318656Y-110137712D01*
X153442712Y-110013656D01*
X153534814Y-109864334D01*
X153589999Y-109697797D01*
X153600500Y-109595009D01*
X153600499Y-108844992D01*
X153598165Y-108822148D01*
X153589999Y-108742203D01*
X153589998Y-108742200D01*
X153578255Y-108706763D01*
X153534814Y-108575666D01*
X153442712Y-108426344D01*
X153318656Y-108302288D01*
X153196455Y-108226914D01*
X153169336Y-108210187D01*
X153169331Y-108210185D01*
X153150177Y-108203838D01*
X153002797Y-108155001D01*
X153002795Y-108155000D01*
X152900016Y-108144500D01*
X152900009Y-108144500D01*
X152366519Y-108144500D01*
X152299480Y-108124815D01*
X152278838Y-108108181D01*
X151481346Y-107310689D01*
X151447861Y-107249366D01*
X151452845Y-107179674D01*
X151494717Y-107123741D01*
X151560181Y-107099324D01*
X151608030Y-107105302D01*
X151622203Y-107109999D01*
X151724991Y-107120500D01*
X153075008Y-107120499D01*
X153177797Y-107109999D01*
X153344334Y-107054814D01*
X153493656Y-106962712D01*
X153617712Y-106838656D01*
X153685099Y-106729402D01*
X153737047Y-106682679D01*
X153790638Y-106670500D01*
X155158481Y-106670500D01*
X155225520Y-106690185D01*
X155246162Y-106706819D01*
X156743181Y-108203838D01*
X156776666Y-108265161D01*
X156779500Y-108291519D01*
X156779500Y-110639091D01*
X156759815Y-110706130D01*
X156715731Y-110744641D01*
X156716813Y-110746395D01*
X156710667Y-110750185D01*
X156710666Y-110750186D01*
X156633218Y-110797956D01*
X156561342Y-110842289D01*
X156437289Y-110966342D01*
X156345187Y-111115663D01*
X156345186Y-111115666D01*
X156290001Y-111282203D01*
X156290001Y-111282204D01*
X156290000Y-111282204D01*
X156279500Y-111384983D01*
X156279500Y-112135001D01*
X156279501Y-112135019D01*
X156290000Y-112237796D01*
X156290001Y-112237799D01*
X156345185Y-112404331D01*
X156345187Y-112404336D01*
X156369031Y-112442993D01*
X156437288Y-112553656D01*
X156561344Y-112677712D01*
X156564628Y-112679737D01*
X156564653Y-112679753D01*
X156566445Y-112681746D01*
X156567011Y-112682193D01*
X156566934Y-112682289D01*
X156611379Y-112731699D01*
X156622603Y-112800661D01*
X156594761Y-112864744D01*
X156564665Y-112890826D01*
X156561660Y-112892679D01*
X156561655Y-112892683D01*
X156437684Y-113016654D01*
X156345643Y-113165875D01*
X156345641Y-113165880D01*
X156290494Y-113332302D01*
X156290493Y-113332309D01*
X156280000Y-113435013D01*
X156280000Y-113560000D01*
X158679999Y-113560000D01*
X158679999Y-113435028D01*
X158679998Y-113435013D01*
X158669505Y-113332302D01*
X158614358Y-113165880D01*
X158614356Y-113165875D01*
X158522315Y-113016654D01*
X158398344Y-112892683D01*
X158398341Y-112892681D01*
X158395339Y-112890829D01*
X158393713Y-112889021D01*
X158392677Y-112888202D01*
X158392817Y-112888024D01*
X158348617Y-112838880D01*
X158337397Y-112769917D01*
X158365243Y-112705836D01*
X158395344Y-112679754D01*
X158398656Y-112677712D01*
X158522712Y-112553656D01*
X158614814Y-112404334D01*
X158669999Y-112237797D01*
X158680500Y-112135009D01*
X158680499Y-111384992D01*
X158669999Y-111282203D01*
X158614814Y-111115666D01*
X158522712Y-110966344D01*
X158398656Y-110842288D01*
X158249334Y-110750186D01*
X158249332Y-110750185D01*
X158243187Y-110746395D01*
X158244290Y-110744605D01*
X158199649Y-110705290D01*
X158180500Y-110639091D01*
X158180500Y-107881002D01*
X158176610Y-107861453D01*
X158176609Y-107861452D01*
X158176608Y-107861443D01*
X158153580Y-107745672D01*
X158153578Y-107745667D01*
X158100777Y-107618192D01*
X158024112Y-107503454D01*
X155946545Y-105425887D01*
X155831807Y-105349222D01*
X155704332Y-105296421D01*
X155704322Y-105296418D01*
X155568996Y-105269500D01*
X155568994Y-105269500D01*
X155568993Y-105269500D01*
X153790638Y-105269500D01*
X153723599Y-105249815D01*
X153685099Y-105210597D01*
X153682345Y-105206132D01*
X153617712Y-105101344D01*
X153493656Y-104977288D01*
X153344334Y-104885186D01*
X153177797Y-104830001D01*
X153177795Y-104830000D01*
X153075010Y-104819500D01*
X151724998Y-104819500D01*
X151724981Y-104819501D01*
X151622203Y-104830000D01*
X151622200Y-104830001D01*
X151455668Y-104885185D01*
X151455663Y-104885187D01*
X151306342Y-104977289D01*
X151182289Y-105101342D01*
X151090187Y-105250663D01*
X151090185Y-105250668D01*
X151075024Y-105296421D01*
X151035001Y-105417203D01*
X151035001Y-105417204D01*
X151035000Y-105417204D01*
X151024500Y-105519983D01*
X151024500Y-106420001D01*
X151024501Y-106420019D01*
X151035000Y-106522796D01*
X151035002Y-106522803D01*
X151039696Y-106536968D01*
X151042097Y-106606796D01*
X151006365Y-106666838D01*
X150943845Y-106698030D01*
X150874385Y-106690469D01*
X150834309Y-106663652D01*
X150001818Y-105831161D01*
X149968333Y-105769838D01*
X149965499Y-105743480D01*
X149965499Y-105519998D01*
X149965498Y-105519981D01*
X149954999Y-105417203D01*
X149949612Y-105400947D01*
X149932547Y-105349450D01*
X149930146Y-105279623D01*
X149965877Y-105219581D01*
X150028398Y-105188388D01*
X150050254Y-105186447D01*
X150490581Y-105186447D01*
X150605326Y-105163622D01*
X150625913Y-105159527D01*
X150689654Y-105133124D01*
X150753392Y-105106724D01*
X150753393Y-105106723D01*
X150753396Y-105106722D01*
X150868128Y-105030061D01*
X151674114Y-104224075D01*
X151750775Y-104109343D01*
X151755868Y-104097046D01*
X151799707Y-104042644D01*
X151866001Y-104020578D01*
X151870429Y-104020499D01*
X153075002Y-104020499D01*
X153075008Y-104020499D01*
X153177797Y-104009999D01*
X153344334Y-103954814D01*
X153493656Y-103862712D01*
X153617712Y-103738656D01*
X153709814Y-103589334D01*
X153764999Y-103422797D01*
X153775500Y-103320009D01*
X153775499Y-102419992D01*
X153764999Y-102317203D01*
X153760303Y-102303034D01*
X153757900Y-102233209D01*
X153793630Y-102173166D01*
X153856149Y-102141971D01*
X153925609Y-102149529D01*
X153965690Y-102176348D01*
X154493454Y-102704112D01*
X154608192Y-102780777D01*
X154727485Y-102830189D01*
X154735672Y-102833580D01*
X154838038Y-102853942D01*
X154899949Y-102886326D01*
X154919385Y-102910460D01*
X154992288Y-103028656D01*
X155116344Y-103152712D01*
X155265666Y-103244814D01*
X155432203Y-103299999D01*
X155534991Y-103310500D01*
X156878480Y-103310499D01*
X156945519Y-103330184D01*
X156966161Y-103346818D01*
X157563181Y-103943838D01*
X157596666Y-104005161D01*
X157599500Y-104031519D01*
X157599500Y-104815001D01*
X157599501Y-104815019D01*
X157610000Y-104917796D01*
X157610001Y-104917799D01*
X157665185Y-105084331D01*
X157665187Y-105084336D01*
X157675678Y-105101344D01*
X157757288Y-105233656D01*
X157881344Y-105357712D01*
X158030666Y-105449814D01*
X158197203Y-105504999D01*
X158299991Y-105515500D01*
X159200008Y-105515499D01*
X159200016Y-105515498D01*
X159200019Y-105515498D01*
X159284471Y-105506871D01*
X159302797Y-105504999D01*
X159469334Y-105449814D01*
X159618656Y-105357712D01*
X159742712Y-105233656D01*
X159834814Y-105084334D01*
X159889999Y-104917797D01*
X159900500Y-104815009D01*
X159900499Y-104692216D01*
X159920183Y-104625179D01*
X159972987Y-104579424D01*
X160042145Y-104569480D01*
X160069491Y-104576669D01*
X160079324Y-104580499D01*
X160220980Y-104605701D01*
X160234946Y-104606165D01*
X160290799Y-104608025D01*
X160290802Y-104608024D01*
X160290811Y-104608025D01*
X160433827Y-104592298D01*
X160527770Y-104553117D01*
X160597220Y-104545480D01*
X160659775Y-104576603D01*
X160695573Y-104636605D01*
X160699500Y-104667562D01*
X160699500Y-104815000D01*
X160699501Y-104815019D01*
X160710000Y-104917796D01*
X160710001Y-104917799D01*
X160765185Y-105084331D01*
X160765187Y-105084336D01*
X160775678Y-105101344D01*
X160857288Y-105233656D01*
X160981344Y-105357712D01*
X161130666Y-105449814D01*
X161297203Y-105504999D01*
X161399991Y-105515500D01*
X162300008Y-105515499D01*
X162300016Y-105515498D01*
X162300019Y-105515498D01*
X162384471Y-105506871D01*
X162402797Y-105504999D01*
X162569334Y-105449814D01*
X162677513Y-105383088D01*
X162744905Y-105364649D01*
X162811568Y-105385572D01*
X162830290Y-105400947D01*
X166569104Y-109139761D01*
X166602589Y-109201084D01*
X166597605Y-109270776D01*
X166569106Y-109315121D01*
X166525956Y-109358272D01*
X166460691Y-109438387D01*
X166460686Y-109438395D01*
X166381953Y-109595167D01*
X166381952Y-109595170D01*
X166381952Y-109595171D01*
X166341492Y-109765884D01*
X166341492Y-109941325D01*
X166377982Y-110095286D01*
X166381953Y-110112041D01*
X166460687Y-110268814D01*
X166460691Y-110268821D01*
X166512380Y-110332272D01*
X166525947Y-110348926D01*
X167056290Y-110879268D01*
X167056298Y-110879274D01*
X167056303Y-110879279D01*
X167136389Y-110944520D01*
X167136393Y-110944522D01*
X167136397Y-110944526D01*
X167136399Y-110944527D01*
X167136402Y-110944529D01*
X167179836Y-110966342D01*
X167293178Y-111023264D01*
X167463891Y-111063724D01*
X167463893Y-111063724D01*
X167639329Y-111063724D01*
X167639332Y-111063724D01*
X167643111Y-111062828D01*
X167645789Y-111062969D01*
X167646505Y-111062886D01*
X167646519Y-111063008D01*
X167712880Y-111066515D01*
X167769583Y-111107339D01*
X167795213Y-111172338D01*
X167792374Y-111212073D01*
X167791560Y-111215508D01*
X167791560Y-111390832D01*
X167831993Y-111561433D01*
X167910679Y-111718111D01*
X167975876Y-111798146D01*
X167975892Y-111798164D01*
X168064263Y-111886535D01*
X168736016Y-111214783D01*
X169443121Y-111214783D01*
X169443121Y-111214784D01*
X170026482Y-111798146D01*
X170203242Y-111621387D01*
X170203251Y-111621377D01*
X170268452Y-111541340D01*
X170268456Y-111541334D01*
X170347142Y-111384657D01*
X170387576Y-111214056D01*
X170387576Y-111038735D01*
X170347142Y-110868134D01*
X170268456Y-110711456D01*
X170203257Y-110631419D01*
X170203243Y-110631403D01*
X170114872Y-110543032D01*
X170114871Y-110543032D01*
X169443121Y-111214783D01*
X168736016Y-111214783D01*
X169089568Y-110861231D01*
X169761319Y-110189479D01*
X169672943Y-110101104D01*
X169592901Y-110035899D01*
X169592895Y-110035895D01*
X169436217Y-109957209D01*
X169265616Y-109916776D01*
X169090292Y-109916776D01*
X169086857Y-109917590D01*
X169084427Y-109917461D01*
X169083121Y-109917614D01*
X169083094Y-109917390D01*
X169017085Y-109913893D01*
X168960388Y-109873061D01*
X168934767Y-109808058D01*
X168937611Y-109768330D01*
X168938508Y-109764548D01*
X168938508Y-109589107D01*
X168898048Y-109418394D01*
X168819310Y-109261613D01*
X168812827Y-109253655D01*
X168754061Y-109181516D01*
X168754053Y-109181506D01*
X168223710Y-108651164D01*
X168223702Y-108651157D01*
X168223696Y-108651152D01*
X168143610Y-108585911D01*
X168143597Y-108585902D01*
X167986823Y-108507168D01*
X167930608Y-108493844D01*
X167871525Y-108460868D01*
X163036818Y-103626161D01*
X163003333Y-103564838D01*
X163000499Y-103538480D01*
X163000499Y-103464998D01*
X163000498Y-103464981D01*
X162989999Y-103362203D01*
X162989998Y-103362200D01*
X162977195Y-103323563D01*
X162934814Y-103195666D01*
X162842712Y-103046344D01*
X162718656Y-102922288D01*
X162585516Y-102840167D01*
X162569336Y-102830187D01*
X162569335Y-102830186D01*
X162569334Y-102830186D01*
X162471725Y-102797841D01*
X162414282Y-102758069D01*
X162387459Y-102693553D01*
X162399774Y-102624777D01*
X162419765Y-102595868D01*
X162690625Y-102303524D01*
X162750624Y-102267729D01*
X162820455Y-102270053D01*
X162877944Y-102309762D01*
X162882012Y-102315071D01*
X162950122Y-102409121D01*
X163685194Y-103339107D01*
X164456571Y-104234415D01*
X165263784Y-105094631D01*
X165503746Y-105329505D01*
X166106425Y-105919407D01*
X166674850Y-106430402D01*
X166984034Y-106708349D01*
X167403871Y-107054812D01*
X167896166Y-107461071D01*
X168842394Y-108177205D01*
X169822273Y-108856369D01*
X170835362Y-109498183D01*
X171881221Y-110102269D01*
X172959411Y-110668246D01*
X174069490Y-111195736D01*
X175211019Y-111684359D01*
X175414044Y-111767810D01*
X175415032Y-111768223D01*
X175601560Y-111847123D01*
X175602677Y-111847603D01*
X175769089Y-111920248D01*
X175770541Y-111920894D01*
X175907753Y-111983110D01*
X175960680Y-112028723D01*
X175980546Y-112095709D01*
X175961042Y-112162801D01*
X175908361Y-112208698D01*
X175889182Y-112215671D01*
X175700509Y-112267143D01*
X175698475Y-112267680D01*
X174717191Y-112517579D01*
X174715763Y-112517933D01*
X173646036Y-112776879D01*
X173644614Y-112777215D01*
X173209293Y-112877177D01*
X173207090Y-112877661D01*
X172909338Y-112940356D01*
X172905039Y-112941183D01*
X172667451Y-112982511D01*
X172664247Y-112983025D01*
X172419939Y-113018962D01*
X172416916Y-113019369D01*
X172167337Y-113049830D01*
X172164457Y-113050147D01*
X171910812Y-113075105D01*
X171908038Y-113075347D01*
X171651264Y-113094804D01*
X171648566Y-113094978D01*
X171390633Y-113108874D01*
X171386663Y-113109025D01*
X170867214Y-113120341D01*
X170861906Y-113120343D01*
X170347763Y-113109531D01*
X170343650Y-113109376D01*
X170092327Y-113095735D01*
X170089460Y-113095546D01*
X169842045Y-113076359D01*
X169839035Y-113076088D01*
X169597392Y-113051412D01*
X169594197Y-113051044D01*
X169359334Y-113020887D01*
X169355905Y-113020398D01*
X169128983Y-112984793D01*
X169125262Y-112984151D01*
X168907976Y-112943244D01*
X168902769Y-112942148D01*
X168473328Y-112842049D01*
X168467343Y-112840495D01*
X168026780Y-112714344D01*
X168021353Y-112712655D01*
X167569599Y-112560578D01*
X167564670Y-112558802D01*
X167303136Y-112458272D01*
X167102450Y-112381132D01*
X167097970Y-112379309D01*
X167018165Y-112344998D01*
X166774152Y-112240087D01*
X168417816Y-112240087D01*
X168506192Y-112328463D01*
X168586234Y-112393668D01*
X168586240Y-112393672D01*
X168742918Y-112472358D01*
X168913520Y-112512792D01*
X169088840Y-112512792D01*
X169259441Y-112472358D01*
X169416118Y-112393672D01*
X169496155Y-112328473D01*
X169496170Y-112328460D01*
X169672930Y-112151700D01*
X169672930Y-112151699D01*
X169089569Y-111568337D01*
X169089568Y-111568337D01*
X168417816Y-112240087D01*
X166774152Y-112240087D01*
X166625961Y-112176374D01*
X166621866Y-112174525D01*
X166140787Y-111946687D01*
X166137033Y-111944831D01*
X165647509Y-111692413D01*
X165644057Y-111690563D01*
X165146831Y-111413959D01*
X165143645Y-111412125D01*
X164639279Y-111111634D01*
X164636328Y-111109819D01*
X164125588Y-110785862D01*
X164122844Y-110784070D01*
X163606366Y-110436998D01*
X163603804Y-110435230D01*
X163498074Y-110360260D01*
X163082158Y-110065347D01*
X163079773Y-110063612D01*
X163064911Y-110052530D01*
X162553744Y-109671377D01*
X162551504Y-109669668D01*
X162505060Y-109633354D01*
X162021613Y-109255350D01*
X162019494Y-109253655D01*
X161878332Y-109138196D01*
X161732507Y-109018922D01*
X161486544Y-108817744D01*
X161484530Y-108816061D01*
X161291837Y-108651526D01*
X160948512Y-108358369D01*
X160947691Y-108357661D01*
X160465292Y-107937087D01*
X160513753Y-108453094D01*
X160514047Y-108456829D01*
X160541506Y-108889215D01*
X160541696Y-108893235D01*
X160559440Y-109466019D01*
X160559489Y-109468294D01*
X160567827Y-110129172D01*
X160567837Y-110130865D01*
X160567112Y-110826564D01*
X160567100Y-110828156D01*
X160557697Y-111505537D01*
X160557656Y-111507430D01*
X160539989Y-112113272D01*
X160539869Y-112116212D01*
X160514459Y-112596300D01*
X160513922Y-112602999D01*
X160481716Y-112902598D01*
X160479880Y-112914343D01*
X160430103Y-113156192D01*
X160429109Y-113160610D01*
X160362586Y-113433024D01*
X160361708Y-113436413D01*
X160282734Y-113724288D01*
X160281888Y-113727230D01*
X160194248Y-114018335D01*
X160193343Y-114021212D01*
X160100865Y-114303336D01*
X160099775Y-114306516D01*
X160006293Y-114567570D01*
X160004782Y-114571570D01*
X159914028Y-114799880D01*
X159912318Y-114803968D01*
X159869909Y-114900461D01*
X159868209Y-114904163D01*
X159828098Y-114987852D01*
X159825693Y-114992605D01*
X159787440Y-115064338D01*
X159784847Y-115068960D01*
X159742578Y-115140666D01*
X159739959Y-115144911D01*
X159693759Y-115216536D01*
X159691142Y-115220428D01*
X159641882Y-115290785D01*
X159641130Y-115291859D01*
X159638519Y-115295449D01*
X159587476Y-115363050D01*
X159584849Y-115366529D01*
X159582245Y-115369857D01*
X159525680Y-115439689D01*
X159521820Y-115444228D01*
X159396814Y-115584230D01*
X159391741Y-115589582D01*
X159255200Y-115725319D01*
X159250206Y-115730016D01*
X159102672Y-115861290D01*
X159097722Y-115865468D01*
X158940457Y-115991322D01*
X158935509Y-115995083D01*
X158769753Y-116114617D01*
X158764747Y-116118043D01*
X158591858Y-116230292D01*
X158586734Y-116233445D01*
X158407939Y-116337564D01*
X158402625Y-116340487D01*
X158219239Y-116435591D01*
X158213656Y-116438311D01*
X158027010Y-116523533D01*
X158021068Y-116526062D01*
X157832428Y-116600586D01*
X157826026Y-116602914D01*
X157636769Y-116665904D01*
X157629791Y-116668000D01*
X157440279Y-116718928D01*
X157434605Y-116720311D01*
X157341928Y-116740591D01*
X157337890Y-116741404D01*
X157244577Y-116758597D01*
X157241168Y-116759176D01*
X157101031Y-116780976D01*
X157098231Y-116781379D01*
X157036417Y-116789555D01*
X157033852Y-116789867D01*
X156975935Y-116796303D01*
X156972817Y-116796610D01*
X156926055Y-116800613D01*
X156918253Y-116801281D01*
X156914634Y-116801538D01*
X156862544Y-116804464D01*
X156858536Y-116804624D01*
X156808002Y-116805825D01*
X156803768Y-116805853D01*
X156753804Y-116805334D01*
X156749536Y-116805216D01*
X156699011Y-116802950D01*
X156694922Y-116802699D01*
X156642987Y-116798647D01*
X156639245Y-116798298D01*
X156584832Y-116792389D01*
X156581552Y-116791989D01*
X156523766Y-116784151D01*
X156521014Y-116783746D01*
X156459063Y-116773923D01*
X156456844Y-116773550D01*
X156390108Y-116761723D01*
X156387736Y-116761279D01*
X156235859Y-116731304D01*
X156232696Y-116730637D01*
X156065858Y-116693166D01*
X156061721Y-116692162D01*
X155899700Y-116649882D01*
X155895538Y-116648718D01*
X155738335Y-116601786D01*
X155734125Y-116600447D01*
X155582222Y-116549138D01*
X155577936Y-116547602D01*
X155431822Y-116492193D01*
X155427433Y-116490432D01*
X155287608Y-116431215D01*
X155283085Y-116429192D01*
X155150031Y-116366461D01*
X155145342Y-116364128D01*
X155100794Y-116340777D01*
X155019565Y-116298198D01*
X155014675Y-116295493D01*
X154896641Y-116226671D01*
X154891519Y-116223515D01*
X154781782Y-116152182D01*
X154776397Y-116148477D01*
X154675369Y-116074952D01*
X154669698Y-116070568D01*
X154577925Y-115995296D01*
X154571960Y-115990076D01*
X154509777Y-115932045D01*
X154489853Y-115913451D01*
X154483643Y-115907228D01*
X154411632Y-115829726D01*
X154405196Y-115822219D01*
X154343663Y-115744364D01*
X154337159Y-115735329D01*
X154336662Y-115734569D01*
X154284920Y-115655424D01*
X154281137Y-115649246D01*
X154248714Y-115592614D01*
X154246966Y-115589450D01*
X154218680Y-115536405D01*
X154216155Y-115531393D01*
X154192780Y-115482251D01*
X154190528Y-115477228D01*
X154181278Y-115455282D01*
X154179688Y-115451314D01*
X154171322Y-115429328D01*
X154169714Y-115424841D01*
X154162495Y-115403401D01*
X154160948Y-115398468D01*
X154154789Y-115377296D01*
X154153386Y-115372050D01*
X154148211Y-115350837D01*
X154147019Y-115345420D01*
X154142786Y-115323906D01*
X154141833Y-115318411D01*
X154138500Y-115296223D01*
X154137815Y-115290851D01*
X154135387Y-115267734D01*
X154134951Y-115262502D01*
X154133450Y-115238293D01*
X154133241Y-115233293D01*
X154133114Y-115227397D01*
X154132687Y-115207590D01*
X154132675Y-115203052D01*
X154133111Y-115175646D01*
X154133248Y-115171510D01*
X154134720Y-115142215D01*
X154134969Y-115138434D01*
X154137510Y-115107141D01*
X154137822Y-115103863D01*
X154141406Y-115070974D01*
X154141938Y-115066780D01*
X154152782Y-114991766D01*
X154153505Y-114987338D01*
X154160071Y-114951263D01*
X154168921Y-114902632D01*
X154169543Y-114899461D01*
X154189726Y-114803119D01*
X154190216Y-114800882D01*
X154197535Y-114768901D01*
X154215173Y-114691827D01*
X154215484Y-114690501D01*
X154245260Y-114567356D01*
X154245419Y-114566709D01*
X154279981Y-114428347D01*
X154334084Y-114184986D01*
X156280001Y-114184986D01*
X156290494Y-114287697D01*
X156345641Y-114454119D01*
X156345643Y-114454124D01*
X156437684Y-114603345D01*
X156561654Y-114727315D01*
X156710875Y-114819356D01*
X156710880Y-114819358D01*
X156877302Y-114874505D01*
X156877309Y-114874506D01*
X156980019Y-114884999D01*
X157229999Y-114884999D01*
X157730000Y-114884999D01*
X157979972Y-114884999D01*
X157979986Y-114884998D01*
X158082697Y-114874505D01*
X158249119Y-114819358D01*
X158249124Y-114819356D01*
X158398345Y-114727315D01*
X158522315Y-114603345D01*
X158614356Y-114454124D01*
X158614358Y-114454119D01*
X158669505Y-114287697D01*
X158669506Y-114287690D01*
X158679999Y-114184986D01*
X158680000Y-114184973D01*
X158680000Y-114060000D01*
X157730000Y-114060000D01*
X157730000Y-114884999D01*
X157229999Y-114884999D01*
X157230000Y-114884998D01*
X157230000Y-114060000D01*
X156280001Y-114060000D01*
X156280001Y-114184986D01*
X154334084Y-114184986D01*
X154362808Y-114055781D01*
X154436105Y-113642776D01*
X154497392Y-113215094D01*
X154544190Y-112798498D01*
X154574021Y-112418750D01*
X154584404Y-112101612D01*
X154584270Y-112095709D01*
X154581529Y-111974570D01*
X154572864Y-111872856D01*
X154572863Y-111872853D01*
X154572863Y-111872846D01*
X154558095Y-111799654D01*
X154548326Y-111774764D01*
X154536916Y-111758216D01*
X154536915Y-111758215D01*
X154536047Y-111757641D01*
X154534353Y-111756521D01*
X154531605Y-111756350D01*
X154528681Y-111757669D01*
X154528680Y-111757670D01*
X154525590Y-111760443D01*
X154522341Y-111764637D01*
X154518943Y-111770215D01*
X154518941Y-111770219D01*
X154511727Y-111785397D01*
X154511714Y-111785428D01*
X154504002Y-111805736D01*
X154503991Y-111805768D01*
X154495846Y-111830935D01*
X154487322Y-111860740D01*
X154478514Y-111894809D01*
X154469449Y-111933032D01*
X154460232Y-111974974D01*
X154450936Y-112020345D01*
X154441591Y-112069042D01*
X154432285Y-112120696D01*
X154423100Y-112174944D01*
X154414076Y-112231684D01*
X154405323Y-112290357D01*
X154405234Y-112290940D01*
X154383988Y-112428850D01*
X154383596Y-112431243D01*
X154360382Y-112564550D01*
X154359922Y-112567038D01*
X154334705Y-112696199D01*
X154334175Y-112698767D01*
X154306981Y-112823781D01*
X154306371Y-112826439D01*
X154305273Y-112830995D01*
X154277287Y-112947025D01*
X154276563Y-112949876D01*
X154245641Y-113065926D01*
X154244800Y-113068931D01*
X154212107Y-113180286D01*
X154211128Y-113183464D01*
X154176716Y-113290015D01*
X154175575Y-113293382D01*
X154139539Y-113394914D01*
X154138205Y-113398497D01*
X154100606Y-113494895D01*
X154099043Y-113498712D01*
X154059987Y-113589777D01*
X154058147Y-113593861D01*
X154017708Y-113679474D01*
X154015538Y-113683844D01*
X153973856Y-113763785D01*
X153971284Y-113768470D01*
X153928452Y-113842634D01*
X153925395Y-113847648D01*
X153881571Y-113915855D01*
X153877923Y-113921219D01*
X153833254Y-113983338D01*
X153828892Y-113989047D01*
X153740409Y-114098160D01*
X153735672Y-114103665D01*
X153641141Y-114207205D01*
X153636203Y-114212311D01*
X153536174Y-114310000D01*
X153531042Y-114314738D01*
X153426069Y-114406292D01*
X153420732Y-114410690D01*
X153311459Y-114495750D01*
X153305904Y-114499831D01*
X153192909Y-114578109D01*
X153187111Y-114581891D01*
X153071025Y-114653067D01*
X153064953Y-114656558D01*
X152946411Y-114720325D01*
X152940026Y-114723526D01*
X152819669Y-114779589D01*
X152812927Y-114782490D01*
X152691386Y-114830573D01*
X152684234Y-114833152D01*
X152562145Y-114872988D01*
X152554535Y-114875204D01*
X152432580Y-114906535D01*
X152424457Y-114908334D01*
X152303242Y-114930937D01*
X152294560Y-114932240D01*
X152174726Y-114945905D01*
X152165450Y-114946611D01*
X152046368Y-114951198D01*
X152039022Y-114951263D01*
X151982257Y-114950085D01*
X151977172Y-114949875D01*
X151921078Y-114946404D01*
X151913543Y-114945707D01*
X151793024Y-114930828D01*
X151783937Y-114929362D01*
X151661580Y-114904931D01*
X151653448Y-114903020D01*
X151529071Y-114869339D01*
X151521725Y-114867103D01*
X151396448Y-114824697D01*
X151389730Y-114822205D01*
X151264609Y-114771621D01*
X151258380Y-114768901D01*
X151134597Y-114710776D01*
X151128737Y-114707834D01*
X151099016Y-114691909D01*
X151007276Y-114642752D01*
X151001681Y-114639564D01*
X150883660Y-114568201D01*
X150878238Y-114564727D01*
X150764701Y-114487754D01*
X150759369Y-114483930D01*
X150651310Y-114402004D01*
X150646001Y-114397744D01*
X150544495Y-114311620D01*
X150539148Y-114306810D01*
X150445175Y-114217205D01*
X150439765Y-114211715D01*
X150354310Y-114119400D01*
X150348795Y-114113018D01*
X150272866Y-114018872D01*
X150267262Y-114011360D01*
X150201740Y-113916219D01*
X150196142Y-113907302D01*
X150156493Y-113837757D01*
X150140537Y-113809769D01*
X150137426Y-113803957D01*
X150116465Y-113762164D01*
X150115145Y-113759450D01*
X150096706Y-113720274D01*
X150094575Y-113715482D01*
X150079290Y-113679053D01*
X150077354Y-113674149D01*
X150075508Y-113669167D01*
X150071349Y-113657937D01*
X150070015Y-113654145D01*
X150064416Y-113637358D01*
X150063118Y-113633228D01*
X150062961Y-113632696D01*
X150058110Y-113616256D01*
X150056938Y-113612003D01*
X150052449Y-113594481D01*
X150051430Y-113590180D01*
X150047433Y-113571825D01*
X150046596Y-113567628D01*
X150043063Y-113548110D01*
X150042397Y-113544034D01*
X150039885Y-113526881D01*
X150039335Y-113523122D01*
X150038840Y-113519321D01*
X150036248Y-113496693D01*
X150035903Y-113493263D01*
X150033784Y-113468547D01*
X150033561Y-113465470D01*
X150031952Y-113438665D01*
X150031817Y-113435900D01*
X150031784Y-113435028D01*
X150030726Y-113406664D01*
X150030660Y-113404258D01*
X150030108Y-113372909D01*
X150030093Y-113369973D01*
X150030600Y-113297372D01*
X150030659Y-113294318D01*
X150031315Y-113273647D01*
X150033341Y-113209827D01*
X150033429Y-113207691D01*
X150033650Y-113203196D01*
X150038265Y-113109347D01*
X150038326Y-113108236D01*
X150045275Y-112994349D01*
X150045333Y-112993475D01*
X150045888Y-112985403D01*
X150054278Y-112863263D01*
X150054317Y-112862721D01*
X150056097Y-112838880D01*
X150074201Y-112596300D01*
X150077984Y-112545607D01*
X150107409Y-112064802D01*
X150107411Y-112064773D01*
X150124955Y-111644986D01*
X151200001Y-111644986D01*
X151210494Y-111747697D01*
X151265641Y-111914119D01*
X151265643Y-111914124D01*
X151357684Y-112063345D01*
X151481654Y-112187315D01*
X151630875Y-112279356D01*
X151630880Y-112279358D01*
X151797302Y-112334505D01*
X151797309Y-112334506D01*
X151900019Y-112344999D01*
X152149999Y-112344999D01*
X152650000Y-112344999D01*
X152899972Y-112344999D01*
X152899986Y-112344998D01*
X153002697Y-112334505D01*
X153169119Y-112279358D01*
X153169124Y-112279356D01*
X153318345Y-112187315D01*
X153442315Y-112063345D01*
X153534356Y-111914124D01*
X153534358Y-111914119D01*
X153589505Y-111747697D01*
X153589506Y-111747690D01*
X153599999Y-111644986D01*
X153600000Y-111644973D01*
X153600000Y-111520000D01*
X152650000Y-111520000D01*
X152650000Y-112344999D01*
X152149999Y-112344999D01*
X152150000Y-112344998D01*
X152150000Y-111520000D01*
X151200001Y-111520000D01*
X151200001Y-111644986D01*
X150124955Y-111644986D01*
X150131447Y-111489643D01*
X150147615Y-110892439D01*
X150153436Y-110345357D01*
X150153043Y-109138196D01*
X150153042Y-109138196D01*
X150153042Y-109138195D01*
X149673489Y-109139663D01*
X149312474Y-109147829D01*
X148840980Y-109163697D01*
X148683880Y-109168984D01*
X148683848Y-109168985D01*
X148683797Y-109168987D01*
X146977955Y-109237419D01*
X145328716Y-109305829D01*
X145327827Y-109305863D01*
X144474633Y-109335124D01*
X144472071Y-109335186D01*
X144384492Y-109336378D01*
X144348093Y-109337761D01*
X144316646Y-109339890D01*
X144289906Y-109342933D01*
X144280952Y-109344587D01*
X144267538Y-109347066D01*
X144267535Y-109347066D01*
X144267523Y-109347069D01*
X144257940Y-109349586D01*
X144257924Y-109349591D01*
X144249288Y-109352455D01*
X144249287Y-109352455D01*
X144241644Y-109355664D01*
X144241629Y-109355671D01*
X144234898Y-109359261D01*
X144234894Y-109359263D01*
X144229038Y-109363260D01*
X144224049Y-109367665D01*
X144219857Y-109372533D01*
X144216472Y-109377833D01*
X144216464Y-109377847D01*
X144213817Y-109383642D01*
X144211877Y-109389953D01*
X144211876Y-109389957D01*
X144210618Y-109396778D01*
X144209999Y-109404161D01*
X144210547Y-109420657D01*
X144213241Y-109439598D01*
X144217794Y-109461135D01*
X144222883Y-109481315D01*
X144224688Y-109489679D01*
X144232945Y-109535576D01*
X144233901Y-109541793D01*
X144245462Y-109632148D01*
X144245745Y-109634543D01*
X144259712Y-109763590D01*
X144259850Y-109764937D01*
X144275441Y-109925341D01*
X144275562Y-109926658D01*
X144309595Y-110320385D01*
X144309702Y-110321701D01*
X144344040Y-110775143D01*
X144344179Y-110777201D01*
X144368017Y-111181153D01*
X144368162Y-111184293D01*
X144381113Y-111569646D01*
X144381181Y-111573157D01*
X144383123Y-111941127D01*
X144383082Y-111945028D01*
X144373877Y-112296386D01*
X144373690Y-112300694D01*
X144353201Y-112636337D01*
X144352822Y-112641056D01*
X144320927Y-112961693D01*
X144320310Y-112966813D01*
X144276879Y-113273362D01*
X144275973Y-113278861D01*
X144220889Y-113572095D01*
X144219649Y-113577924D01*
X144152765Y-113858821D01*
X144151149Y-113864916D01*
X144072341Y-114134298D01*
X144070323Y-114140571D01*
X143979432Y-114399363D01*
X143977006Y-114405709D01*
X143873849Y-114654857D01*
X143871031Y-114661161D01*
X143755402Y-114901607D01*
X143752232Y-114907753D01*
X143623921Y-115140396D01*
X143620470Y-115146266D01*
X143618085Y-115150079D01*
X143479205Y-115372068D01*
X143475541Y-115377590D01*
X143320745Y-115597897D01*
X143317680Y-115602071D01*
X143255297Y-115683411D01*
X143252930Y-115686400D01*
X143186908Y-115767212D01*
X143184534Y-115770032D01*
X143115362Y-115849742D01*
X143112977Y-115852411D01*
X143040938Y-115930738D01*
X143038536Y-115933277D01*
X142963724Y-116010153D01*
X142961317Y-116012559D01*
X142917789Y-116054881D01*
X142884035Y-116087699D01*
X142881576Y-116090025D01*
X142801953Y-116163320D01*
X142799452Y-116165560D01*
X142717749Y-116236781D01*
X142715198Y-116238945D01*
X142631570Y-116307964D01*
X142628953Y-116310065D01*
X142543644Y-116376674D01*
X142540953Y-116378717D01*
X142454104Y-116442797D01*
X142451321Y-116444791D01*
X142363245Y-116506095D01*
X142360355Y-116508047D01*
X142271129Y-116566497D01*
X142268117Y-116568409D01*
X142178055Y-116623770D01*
X142174899Y-116625646D01*
X142084185Y-116677772D01*
X142080867Y-116679611D01*
X141991255Y-116727519D01*
X141984525Y-116730859D01*
X141907676Y-116766137D01*
X141898904Y-116769764D01*
X141812522Y-116801667D01*
X141805121Y-116804139D01*
X141708747Y-116832987D01*
X141702378Y-116834710D01*
X141597544Y-116860102D01*
X141591938Y-116861324D01*
X141479976Y-116883014D01*
X141474924Y-116883884D01*
X141357314Y-116901661D01*
X141352651Y-116902276D01*
X141230621Y-116916011D01*
X141226212Y-116916428D01*
X141101061Y-116926004D01*
X141096792Y-116926256D01*
X140969880Y-116931574D01*
X140965648Y-116931679D01*
X140838187Y-116932665D01*
X140833892Y-116932624D01*
X140707165Y-116929213D01*
X140702706Y-116929013D01*
X140577963Y-116921156D01*
X140573229Y-116920766D01*
X140451857Y-116908439D01*
X140446723Y-116907810D01*
X140329902Y-116890998D01*
X140324217Y-116890044D01*
X140213395Y-116868797D01*
X140206972Y-116867388D01*
X140102523Y-116841555D01*
X140096650Y-116839949D01*
X140004090Y-116812170D01*
X139999770Y-116810786D01*
X139904880Y-116778480D01*
X139900949Y-116777068D01*
X139853678Y-116759176D01*
X139805016Y-116740757D01*
X139801422Y-116739331D01*
X139739340Y-116713567D01*
X139705297Y-116699439D01*
X139701879Y-116697960D01*
X139606263Y-116654869D01*
X139603017Y-116653349D01*
X139508597Y-116607440D01*
X139505410Y-116605833D01*
X139412969Y-116557543D01*
X139409802Y-116555830D01*
X139319974Y-116505533D01*
X139316771Y-116503676D01*
X139230310Y-116451814D01*
X139227015Y-116449767D01*
X139195027Y-116429192D01*
X139144607Y-116396761D01*
X139141171Y-116394469D01*
X139063548Y-116340777D01*
X139059879Y-116338139D01*
X138987739Y-116284222D01*
X138983780Y-116281135D01*
X138917942Y-116227575D01*
X138913504Y-116223788D01*
X138854695Y-116171158D01*
X138849714Y-116166445D01*
X138826605Y-116143340D01*
X138798743Y-116115482D01*
X138793099Y-116109449D01*
X138749218Y-116059292D01*
X138745536Y-116054881D01*
X138715970Y-116017747D01*
X138714366Y-116015689D01*
X138687678Y-115980663D01*
X138685423Y-115977604D01*
X138662761Y-115945849D01*
X138659829Y-115941551D01*
X138640924Y-115912543D01*
X138637461Y-115906906D01*
X138621340Y-115879024D01*
X138618572Y-115873970D01*
X138612301Y-115861858D01*
X138610454Y-115858138D01*
X138604368Y-115845352D01*
X138602567Y-115841391D01*
X138597049Y-115828666D01*
X138595360Y-115824572D01*
X138590303Y-115811666D01*
X138588747Y-115807475D01*
X138587093Y-115802759D01*
X138584136Y-115794331D01*
X138582757Y-115790161D01*
X138578521Y-115776548D01*
X138577323Y-115772448D01*
X138573423Y-115758187D01*
X138572419Y-115754261D01*
X138569057Y-115740137D01*
X138567867Y-115734569D01*
X138565773Y-115723535D01*
X138561452Y-115700766D01*
X138560397Y-115694259D01*
X138560087Y-115691965D01*
X138555357Y-115656933D01*
X138554757Y-115651618D01*
X138554537Y-115649207D01*
X138550870Y-115609005D01*
X138550568Y-115604939D01*
X138547773Y-115556392D01*
X138547634Y-115553323D01*
X138547000Y-115533944D01*
X138545832Y-115498266D01*
X138545783Y-115496227D01*
X138544835Y-115434109D01*
X138544823Y-115432701D01*
X138544693Y-115397895D01*
X138544563Y-115362822D01*
X138544510Y-115345420D01*
X138544154Y-115227397D01*
X138542306Y-115125795D01*
X138541341Y-115103798D01*
X138540598Y-115086855D01*
X138538238Y-115055467D01*
X138535128Y-115031298D01*
X138531171Y-115014040D01*
X138528844Y-115007907D01*
X138526268Y-115003386D01*
X138526267Y-115003385D01*
X138526266Y-115003383D01*
X138523434Y-115000441D01*
X138523432Y-115000439D01*
X138520326Y-114999029D01*
X138520321Y-114999028D01*
X138516934Y-114999114D01*
X138516929Y-114999115D01*
X138513238Y-115000661D01*
X138504920Y-115007971D01*
X138495256Y-115020668D01*
X138495254Y-115020671D01*
X138484165Y-115038426D01*
X138457321Y-115087873D01*
X138457302Y-115087907D01*
X138427533Y-115142699D01*
X138425117Y-115146944D01*
X138395097Y-115197358D01*
X138392418Y-115201656D01*
X138361045Y-115249758D01*
X138358090Y-115254086D01*
X138325332Y-115299953D01*
X138322099Y-115304277D01*
X138287958Y-115347929D01*
X138284446Y-115352219D01*
X138248924Y-115393676D01*
X138245138Y-115397895D01*
X138208205Y-115437210D01*
X138204158Y-115441322D01*
X138165796Y-115478527D01*
X138161510Y-115482492D01*
X138121649Y-115517665D01*
X138117141Y-115521456D01*
X138075825Y-115554560D01*
X138071132Y-115558141D01*
X138028227Y-115589285D01*
X138023376Y-115592632D01*
X137978904Y-115621791D01*
X137973941Y-115624881D01*
X137927826Y-115652099D01*
X137922781Y-115654920D01*
X137874957Y-115680219D01*
X137869875Y-115682760D01*
X137820346Y-115706123D01*
X137815264Y-115708383D01*
X137763911Y-115729847D01*
X137758865Y-115731827D01*
X137705728Y-115751355D01*
X137700755Y-115753064D01*
X137645680Y-115770692D01*
X137640800Y-115772144D01*
X137583876Y-115787819D01*
X137579146Y-115789021D01*
X137537542Y-115798725D01*
X137520246Y-115802759D01*
X137515637Y-115803741D01*
X137454765Y-115815518D01*
X137450307Y-115816297D01*
X137387444Y-115826095D01*
X137383160Y-115826686D01*
X137318322Y-115834487D01*
X137314212Y-115834912D01*
X137247340Y-115840705D01*
X137243415Y-115840983D01*
X137174465Y-115844757D01*
X137170717Y-115844905D01*
X137099754Y-115846639D01*
X137096192Y-115846675D01*
X137023147Y-115846361D01*
X137019760Y-115846300D01*
X136944674Y-115843925D01*
X136941466Y-115843782D01*
X136864286Y-115839338D01*
X136861241Y-115839125D01*
X136781998Y-115832602D01*
X136779121Y-115832331D01*
X136697814Y-115823726D01*
X136695088Y-115823407D01*
X136611991Y-115812748D01*
X136608809Y-115812298D01*
X136498405Y-115795218D01*
X136494401Y-115794531D01*
X136388625Y-115774599D01*
X136384301Y-115773705D01*
X136282584Y-115750760D01*
X136277974Y-115749626D01*
X136179956Y-115723535D01*
X136175113Y-115722140D01*
X136080381Y-115692753D01*
X136075380Y-115691085D01*
X135983444Y-115658220D01*
X135978361Y-115656276D01*
X135975036Y-115654920D01*
X135888885Y-115619788D01*
X135883819Y-115617589D01*
X135860770Y-115606968D01*
X135796374Y-115577293D01*
X135791397Y-115574864D01*
X135705496Y-115530525D01*
X135700698Y-115527913D01*
X135616004Y-115479358D01*
X135611454Y-115476619D01*
X135527495Y-115423584D01*
X135523247Y-115420777D01*
X135439669Y-115363050D01*
X135435764Y-115360239D01*
X135352201Y-115297597D01*
X135348693Y-115294867D01*
X135264782Y-115227081D01*
X135261611Y-115224431D01*
X135256998Y-115220443D01*
X135177045Y-115151316D01*
X135174227Y-115148803D01*
X135088990Y-115070445D01*
X135085859Y-115067465D01*
X134960661Y-114944048D01*
X134956725Y-114939986D01*
X134844763Y-114819064D01*
X134840518Y-114814235D01*
X134741450Y-114695437D01*
X134736958Y-114689717D01*
X134650631Y-114572901D01*
X134645995Y-114566175D01*
X134595670Y-114487754D01*
X134571551Y-114450169D01*
X134568071Y-114444407D01*
X134544326Y-114402571D01*
X134536313Y-114388453D01*
X134534043Y-114384266D01*
X134504787Y-114327754D01*
X134502588Y-114323288D01*
X134476313Y-114267095D01*
X134474206Y-114262330D01*
X134450885Y-114206449D01*
X134448911Y-114201413D01*
X134428501Y-114145799D01*
X134426694Y-114140512D01*
X134424726Y-114134298D01*
X134409125Y-114085031D01*
X134407528Y-114079551D01*
X134392774Y-114024173D01*
X134391421Y-114018565D01*
X134379445Y-113963219D01*
X134378332Y-113957398D01*
X134369119Y-113902096D01*
X134368278Y-113896164D01*
X134363904Y-113858821D01*
X134361782Y-113840708D01*
X134361233Y-113834771D01*
X134357444Y-113779147D01*
X134357182Y-113773152D01*
X134357090Y-113768470D01*
X134356089Y-113717268D01*
X134356115Y-113711334D01*
X134356228Y-113707379D01*
X134357712Y-113655079D01*
X134358016Y-113649242D01*
X134359228Y-113633228D01*
X134362309Y-113592528D01*
X134362870Y-113586867D01*
X134364317Y-113575044D01*
X134368110Y-113544034D01*
X134369871Y-113529641D01*
X134370670Y-113524133D01*
X134371486Y-113519283D01*
X134380393Y-113466318D01*
X134381399Y-113461044D01*
X134386650Y-113436413D01*
X134393873Y-113402533D01*
X134395036Y-113397587D01*
X134410280Y-113338343D01*
X134411604Y-113333597D01*
X134411993Y-113332302D01*
X134429631Y-113273607D01*
X134431053Y-113269186D01*
X134451537Y-113209417D01*
X134453846Y-113203227D01*
X134505562Y-113075240D01*
X134506271Y-113073526D01*
X134554607Y-112959429D01*
X134604762Y-112830993D01*
X134708565Y-112536859D01*
X134815557Y-112198365D01*
X134923974Y-111821906D01*
X135032051Y-111413871D01*
X135138025Y-110980654D01*
X135240132Y-110528647D01*
X135336609Y-110064240D01*
X135553436Y-108972834D01*
X134878847Y-108290940D01*
X134204258Y-107609048D01*
X134204257Y-107609047D01*
X133614926Y-108169872D01*
X133612912Y-108171746D01*
X133285452Y-108469804D01*
X133281185Y-108473513D01*
X132945808Y-108751913D01*
X132941237Y-108755530D01*
X132596348Y-109015452D01*
X132591507Y-109018922D01*
X132236481Y-109260655D01*
X132231410Y-109263929D01*
X131865659Y-109487721D01*
X131860414Y-109490757D01*
X131483226Y-109696927D01*
X131477866Y-109699689D01*
X131088675Y-109888454D01*
X131083264Y-109890920D01*
X130681320Y-110062582D01*
X130675920Y-110064740D01*
X130260699Y-110219482D01*
X130255373Y-110221331D01*
X129826122Y-110359428D01*
X129820923Y-110360976D01*
X129377067Y-110482627D01*
X129372041Y-110483892D01*
X128912940Y-110589311D01*
X128908125Y-110590316D01*
X128433194Y-110679706D01*
X128428619Y-110680479D01*
X127937195Y-110754057D01*
X127932878Y-110754626D01*
X127424388Y-110812589D01*
X127420340Y-110812983D01*
X126894116Y-110855544D01*
X126890549Y-110855781D01*
X126452505Y-110878524D01*
X126449026Y-110878656D01*
X125992807Y-110889511D01*
X125989403Y-110889545D01*
X125494477Y-110887734D01*
X125491515Y-110887688D01*
X124937147Y-110872409D01*
X124934791Y-110872322D01*
X124300446Y-110842764D01*
X124298698Y-110842670D01*
X123564055Y-110798037D01*
X123562827Y-110797956D01*
X122707587Y-110737468D01*
X122706764Y-110737407D01*
X121710575Y-110660289D01*
X121710473Y-110660250D01*
X121710302Y-110660268D01*
X119544106Y-110487731D01*
X119543555Y-110487685D01*
X119396976Y-110475352D01*
X119395192Y-110475189D01*
X119336168Y-110469363D01*
X119334024Y-110469133D01*
X119283592Y-110463268D01*
X119280361Y-110462849D01*
X119238644Y-110456883D01*
X119233876Y-110456106D01*
X119200862Y-110450064D01*
X119193957Y-110448596D01*
X119169747Y-110442724D01*
X119159926Y-110439909D01*
X119149939Y-110436594D01*
X119092513Y-110396799D01*
X119065716Y-110332272D01*
X119065457Y-110329611D01*
X119065333Y-110328180D01*
X119064897Y-110320056D01*
X119064530Y-110302426D01*
X119064545Y-110296596D01*
X119064690Y-110291148D01*
X119065116Y-110283675D01*
X119065434Y-110280048D01*
X119066503Y-110271384D01*
X119066852Y-110269193D01*
X119068814Y-110259424D01*
X119069089Y-110258292D01*
X119072048Y-110248056D01*
X119072238Y-110247491D01*
X119076238Y-110237151D01*
X119076485Y-110236589D01*
X119081451Y-110226542D01*
X119082056Y-110225448D01*
X119087670Y-110216252D01*
X119089016Y-110214250D01*
X119094979Y-110206118D01*
X119097461Y-110203007D01*
X119103442Y-110196054D01*
X119107459Y-110191722D01*
X119113227Y-110185901D01*
X119119081Y-110180371D01*
X119124432Y-110175600D01*
X119132381Y-110168920D01*
X119137212Y-110165062D01*
X119147399Y-110157341D01*
X119151734Y-110154202D01*
X119164213Y-110145566D01*
X119167977Y-110143064D01*
X119182869Y-110133556D01*
X119186196Y-110131505D01*
X119190118Y-110129172D01*
X119203527Y-110121195D01*
X119206384Y-110119548D01*
X119219812Y-110112041D01*
X119226249Y-110108442D01*
X119228639Y-110107142D01*
X119251036Y-110095286D01*
X119253075Y-110094230D01*
X119278128Y-110081583D01*
X119279868Y-110080724D01*
X119307482Y-110067353D01*
X119309004Y-110066629D01*
X119339346Y-110052457D01*
X119340371Y-110051985D01*
X119373342Y-110037061D01*
X119374791Y-110036417D01*
X119449747Y-110003787D01*
X119451058Y-110003228D01*
X119537431Y-109967103D01*
X119538320Y-109966736D01*
X119637211Y-109926560D01*
X119637424Y-109926474D01*
X119749345Y-109881926D01*
X119874755Y-109832698D01*
X120242220Y-109685101D01*
X120581720Y-109540498D01*
X120890221Y-109400431D01*
X121164690Y-109266443D01*
X121402093Y-109140078D01*
X121599396Y-109022878D01*
X121682061Y-108968198D01*
X121753564Y-108916387D01*
X121813525Y-108867640D01*
X121861564Y-108822148D01*
X121879663Y-108802534D01*
X121898299Y-108780970D01*
X121917330Y-108757675D01*
X121936616Y-108732867D01*
X121956016Y-108706763D01*
X121975388Y-108679583D01*
X121994592Y-108651544D01*
X122013486Y-108622865D01*
X122031931Y-108593764D01*
X122049783Y-108564459D01*
X122066904Y-108535168D01*
X122083150Y-108506109D01*
X122098383Y-108477501D01*
X122112460Y-108449562D01*
X122125241Y-108422510D01*
X122136584Y-108396563D01*
X122239153Y-108151019D01*
X122239151Y-108151019D01*
X122239152Y-108151018D01*
X121826593Y-108179998D01*
X121825255Y-108180085D01*
X121592953Y-108193881D01*
X121591714Y-108193948D01*
X121262363Y-108210202D01*
X121261652Y-108210235D01*
X120879064Y-108226914D01*
X120878426Y-108226940D01*
X120486688Y-108241999D01*
X120113058Y-108259852D01*
X119757421Y-108286439D01*
X119418464Y-108322171D01*
X119095088Y-108367450D01*
X118786124Y-108422676D01*
X118490361Y-108488266D01*
X118206704Y-108564610D01*
X117933926Y-108652130D01*
X117670903Y-108751218D01*
X117416478Y-108862278D01*
X117169479Y-108985718D01*
X116928760Y-109121932D01*
X116693121Y-109271349D01*
X116461442Y-109434346D01*
X116461441Y-109434347D01*
X116232516Y-109611362D01*
X116005203Y-109802787D01*
X115973981Y-109829687D01*
X115972370Y-109831051D01*
X115943018Y-109855481D01*
X115941303Y-109856883D01*
X115912952Y-109879635D01*
X115911088Y-109881102D01*
X115884306Y-109901765D01*
X115882228Y-109903334D01*
X115873637Y-109909679D01*
X115808016Y-109933673D01*
X115739841Y-109918380D01*
X115690755Y-109868657D01*
X115676460Y-109820964D01*
X115675310Y-109808082D01*
X115675308Y-109808058D01*
X115675306Y-109808037D01*
X115639267Y-109461135D01*
X115631172Y-109383214D01*
X115567666Y-108802534D01*
X115485803Y-108054000D01*
X115279763Y-106208848D01*
X115279762Y-106208846D01*
X114614285Y-105375354D01*
X114613683Y-105374594D01*
X114592509Y-105347645D01*
X114566569Y-105282769D01*
X114579822Y-105214168D01*
X114628060Y-105163622D01*
X114695967Y-105147179D01*
X114761984Y-105170060D01*
X114773781Y-105180044D01*
X114776653Y-105182315D01*
X114925875Y-105274356D01*
X114925880Y-105274358D01*
X115092302Y-105329505D01*
X115092309Y-105329506D01*
X115195019Y-105339999D01*
X115319999Y-105339999D01*
X115320000Y-105339998D01*
X115320000Y-104390000D01*
X114495001Y-104390000D01*
X114495001Y-104639986D01*
X114505494Y-104742697D01*
X114560643Y-104909123D01*
X114562724Y-104913587D01*
X114573212Y-104982665D01*
X114544689Y-105046448D01*
X114486210Y-105084684D01*
X114416343Y-105085235D01*
X114357269Y-105047925D01*
X114352836Y-105042596D01*
X114349646Y-105038536D01*
X114348251Y-105036727D01*
X114318503Y-104997396D01*
X114108665Y-104719957D01*
X114106994Y-104717695D01*
X114005276Y-104576673D01*
X113890625Y-104417720D01*
X113888684Y-104414950D01*
X113871709Y-104390000D01*
X113694618Y-104129702D01*
X113692397Y-104126319D01*
X113615634Y-104005161D01*
X113519686Y-103853721D01*
X113517233Y-103849682D01*
X113478243Y-103782613D01*
X113395345Y-103640013D01*
X114495000Y-103640013D01*
X114495000Y-103890000D01*
X115320000Y-103890000D01*
X115320000Y-102940000D01*
X115195027Y-102940000D01*
X115195012Y-102940001D01*
X115092302Y-102950494D01*
X114925880Y-103005641D01*
X114925875Y-103005643D01*
X114776654Y-103097684D01*
X114652684Y-103221654D01*
X114560643Y-103370875D01*
X114560641Y-103370880D01*
X114505494Y-103537302D01*
X114505493Y-103537309D01*
X114495000Y-103640013D01*
X113395345Y-103640013D01*
X113364835Y-103587531D01*
X113362218Y-103582793D01*
X113300446Y-103464981D01*
X113229140Y-103328986D01*
X113226464Y-103323563D01*
X113207475Y-103282602D01*
X113111646Y-103075886D01*
X113109034Y-103069836D01*
X113093863Y-103031950D01*
X113011382Y-102825972D01*
X113008977Y-102819436D01*
X112995970Y-102780777D01*
X112958278Y-102668746D01*
X112927458Y-102577142D01*
X112925370Y-102570290D01*
X112867726Y-102359364D01*
X112858900Y-102327070D01*
X112857226Y-102320170D01*
X112856596Y-102317204D01*
X112804825Y-102073652D01*
X112803602Y-102067005D01*
X112764317Y-101814712D01*
X112763506Y-101808452D01*
X112759686Y-101771686D01*
X112736460Y-101548124D01*
X112736004Y-101542481D01*
X112728611Y-101414814D01*
X112720318Y-101271613D01*
X112720135Y-101266788D01*
X112714951Y-100982296D01*
X112714931Y-100980152D01*
X112714624Y-100506351D01*
X112734265Y-100439302D01*
X112787039Y-100393513D01*
X112856192Y-100383525D01*
X112910533Y-100405254D01*
X112915727Y-100408952D01*
X112917685Y-100410377D01*
X112938101Y-100425554D01*
X112970078Y-100449326D01*
X112972069Y-100450837D01*
X113047772Y-100509520D01*
X113049043Y-100510519D01*
X113257205Y-100676587D01*
X113258024Y-100677248D01*
X113515097Y-100886759D01*
X113515624Y-100887191D01*
X113793136Y-101117175D01*
X114015477Y-101300586D01*
X114226204Y-101469198D01*
X114426468Y-101623628D01*
X114617423Y-101764493D01*
X114800219Y-101892409D01*
X114972862Y-102005923D01*
X114976021Y-102008000D01*
X115145928Y-102111852D01*
X115145948Y-102111864D01*
X115311184Y-102204637D01*
X115422773Y-102261431D01*
X115472874Y-102286931D01*
X115632154Y-102359356D01*
X115632162Y-102359359D01*
X115790208Y-102422542D01*
X115948162Y-102477096D01*
X115948167Y-102477097D01*
X115948174Y-102477100D01*
X116107168Y-102523635D01*
X116107182Y-102523639D01*
X116160231Y-102536519D01*
X116268401Y-102562783D01*
X116432991Y-102595151D01*
X116572049Y-102616701D01*
X116602104Y-102621359D01*
X116627265Y-102624777D01*
X116950924Y-102668746D01*
X119314077Y-101362464D01*
X122242196Y-99739041D01*
X122707068Y-99478087D01*
X122775160Y-99462438D01*
X122826377Y-99480860D01*
X122808112Y-99432940D01*
X122807163Y-99421899D01*
X122807164Y-99421899D01*
X122762439Y-98901478D01*
X122731172Y-98616384D01*
X122686006Y-98331497D01*
X122626240Y-98045351D01*
X122551175Y-97756482D01*
X122460111Y-97463424D01*
X122352346Y-97164714D01*
X122227182Y-96858884D01*
X122083917Y-96544471D01*
X121921852Y-96220009D01*
X121740286Y-95884033D01*
X121538520Y-95535078D01*
X121315853Y-95171679D01*
X121071584Y-94792370D01*
X121071566Y-94792343D01*
X120805024Y-94395702D01*
X120515423Y-93980139D01*
X120262145Y-93627778D01*
X120202169Y-93544339D01*
X119604004Y-92714009D01*
X119603015Y-92712617D01*
X119140707Y-92051763D01*
X119139525Y-92050042D01*
X118970535Y-91799599D01*
X118969193Y-91797567D01*
X118929069Y-91735429D01*
X118909241Y-91668434D01*
X118928781Y-91601353D01*
X118981486Y-91555484D01*
X119050623Y-91545391D01*
X119086168Y-91556030D01*
G37*
%TD.AperFunction*%
%TD*%
M02*
