%TF.GenerationSoftware,KiCad,Pcbnew,8.0.6+1*%
%TF.CreationDate,2024-12-11T00:22:32+00:00*%
%TF.ProjectId,Dino-Blinker,44696e6f-2d42-46c6-996e-6b65722e6b69,rev?*%
%TF.SameCoordinates,Original*%
%TF.FileFunction,Drillmap*%
%TF.FilePolarity,Positive*%
%FSLAX45Y45*%
G04 Gerber Fmt 4.5, Leading zero omitted, Abs format (unit mm)*
G04 Created by KiCad (PCBNEW 8.0.6+1) date 2024-12-11 00:22:32*
%MOMM*%
%LPD*%
G01*
G04 APERTURE LIST*
%ADD10C,0.100000*%
%ADD11C,0.200000*%
G04 APERTURE END LIST*
D10*
X13462000Y-8255000D02*
X13478352Y-8255809D01*
X13494752Y-8257134D01*
X13511147Y-8258973D01*
X13527483Y-8261320D01*
X13543706Y-8264174D01*
X13559763Y-8267530D01*
X13575599Y-8271384D01*
X13591161Y-8275734D01*
X13606395Y-8280576D01*
X13648213Y-8296055D01*
X13688528Y-8313706D01*
X13727311Y-8333499D01*
X13764535Y-8355404D01*
X13800170Y-8379392D01*
X13834189Y-8405434D01*
X13866563Y-8433501D01*
X13897264Y-8463561D01*
X13926263Y-8495588D01*
X13953532Y-8529549D01*
X13979043Y-8565417D01*
X14002768Y-8603162D01*
X14024677Y-8642754D01*
X14044742Y-8684163D01*
X14062937Y-8727361D01*
X14079230Y-8772318D01*
X14088127Y-8801322D01*
X14096927Y-8834410D01*
X14105298Y-8869896D01*
X14112905Y-8906098D01*
X14119417Y-8941329D01*
X14124500Y-8973906D01*
X14127821Y-9002144D01*
X14128717Y-9014110D01*
X14129048Y-9024360D01*
X14129098Y-9032179D01*
X14129281Y-9038998D01*
X14129466Y-9042046D01*
X14129738Y-9044860D01*
X14130113Y-9047445D01*
X14130610Y-9049807D01*
X14131246Y-9051951D01*
X14132039Y-9053883D01*
X14133006Y-9055608D01*
X14134165Y-9057131D01*
X14135534Y-9058457D01*
X14137131Y-9059592D01*
X14138972Y-9060542D01*
X14141077Y-9061311D01*
X14143461Y-9061906D01*
X14146144Y-9062331D01*
X14149142Y-9062591D01*
X14152474Y-9062693D01*
X14156157Y-9062641D01*
X14160208Y-9062442D01*
X14164646Y-9062099D01*
X14169488Y-9061619D01*
X14180454Y-9060268D01*
X14193247Y-9058433D01*
X14224883Y-9053477D01*
X14249746Y-9050086D01*
X14278774Y-9047108D01*
X14346908Y-9042400D01*
X14424445Y-9039379D01*
X14506545Y-9038071D01*
X14588369Y-9038502D01*
X14665077Y-9040698D01*
X14731831Y-9044684D01*
X14759962Y-9047357D01*
X14783790Y-9050488D01*
X14857581Y-9063306D01*
X14929802Y-9078426D01*
X15000464Y-9095852D01*
X15069577Y-9115589D01*
X15137153Y-9137643D01*
X15203200Y-9162018D01*
X15267730Y-9188721D01*
X15330753Y-9217754D01*
X15392280Y-9249125D01*
X15452321Y-9282838D01*
X15510886Y-9318897D01*
X15567986Y-9357308D01*
X15623632Y-9398077D01*
X15677834Y-9441208D01*
X15730602Y-9486705D01*
X15781946Y-9534576D01*
X15806644Y-9558815D01*
X15830173Y-9582570D01*
X15852642Y-9605977D01*
X15874155Y-9629177D01*
X15894822Y-9652305D01*
X15914747Y-9675500D01*
X15934037Y-9698900D01*
X15952800Y-9722643D01*
X15971142Y-9746867D01*
X15989169Y-9771709D01*
X16006989Y-9797307D01*
X16024707Y-9823801D01*
X16042431Y-9851326D01*
X16060268Y-9880022D01*
X16096705Y-9941476D01*
X16159060Y-10044656D01*
X16225178Y-10144481D01*
X16295012Y-10240912D01*
X16368520Y-10333911D01*
X16445657Y-10423441D01*
X16526379Y-10509464D01*
X16610642Y-10591941D01*
X16698403Y-10670835D01*
X16789617Y-10746107D01*
X16884239Y-10817721D01*
X16982227Y-10885637D01*
X17083536Y-10949818D01*
X17188122Y-11010227D01*
X17295941Y-11066825D01*
X17406949Y-11119574D01*
X17521102Y-11168436D01*
X17541453Y-11176801D01*
X17560212Y-11184736D01*
X17576985Y-11192058D01*
X17591378Y-11198584D01*
X17602996Y-11204131D01*
X17611445Y-11208516D01*
X17616331Y-11211556D01*
X17617314Y-11212514D01*
X17617420Y-11212843D01*
X17617259Y-11213067D01*
X17602609Y-11217832D01*
X17569946Y-11226743D01*
X17471653Y-11251775D01*
X17364528Y-11277706D01*
X17320824Y-11287742D01*
X17290718Y-11294081D01*
X17266586Y-11298279D01*
X17241842Y-11301919D01*
X17216592Y-11305000D01*
X17190941Y-11307524D01*
X17164996Y-11309490D01*
X17138862Y-11310898D01*
X17086456Y-11312040D01*
X17034571Y-11310949D01*
X17009090Y-11309566D01*
X16984057Y-11307624D01*
X16959579Y-11305125D01*
X16935762Y-11302067D01*
X16912712Y-11298450D01*
X16890535Y-11294275D01*
X16847033Y-11284135D01*
X16802404Y-11271356D01*
X16756711Y-11255974D01*
X16710019Y-11238026D01*
X16662391Y-11217549D01*
X16613889Y-11194579D01*
X16564578Y-11169152D01*
X16514521Y-11141306D01*
X16463780Y-11111076D01*
X16412421Y-11078499D01*
X16360505Y-11043612D01*
X16308097Y-11006451D01*
X16255260Y-10967053D01*
X16202057Y-10925454D01*
X16148552Y-10881691D01*
X16094808Y-10835800D01*
X16046529Y-10793709D01*
X16051393Y-10845496D01*
X16054163Y-10889123D01*
X16055947Y-10946712D01*
X16056784Y-11013003D01*
X16056711Y-11082735D01*
X16055768Y-11150647D01*
X16053995Y-11211477D01*
X16051428Y-11259966D01*
X16048108Y-11290851D01*
X16042965Y-11315840D01*
X16036217Y-11343474D01*
X16028233Y-11372577D01*
X16019382Y-11401976D01*
X16010034Y-11430494D01*
X16000557Y-11456959D01*
X15991321Y-11480193D01*
X15986909Y-11490233D01*
X15982695Y-11499024D01*
X15978619Y-11506669D01*
X15974131Y-11514281D01*
X15969249Y-11521851D01*
X15963985Y-11529368D01*
X15958357Y-11536822D01*
X15952380Y-11544202D01*
X15939436Y-11558698D01*
X15925277Y-11572773D01*
X15910025Y-11586344D01*
X15893802Y-11599327D01*
X15876731Y-11611638D01*
X15858933Y-11623193D01*
X15840532Y-11633909D01*
X15821648Y-11643702D01*
X15802406Y-11652488D01*
X15782926Y-11660184D01*
X15763332Y-11666705D01*
X15743745Y-11671969D01*
X15733993Y-11674103D01*
X15724288Y-11675891D01*
X15709962Y-11678119D01*
X15703515Y-11678972D01*
X15697436Y-11679648D01*
X15691643Y-11680144D01*
X15686055Y-11680458D01*
X15680589Y-11680588D01*
X15675165Y-11680531D01*
X15669699Y-11680286D01*
X15664111Y-11679850D01*
X15658318Y-11679221D01*
X15652239Y-11678396D01*
X15645792Y-11677374D01*
X15638896Y-11676152D01*
X15623427Y-11673099D01*
X15606378Y-11669270D01*
X15589761Y-11664934D01*
X15573622Y-11660115D01*
X15558007Y-11654841D01*
X15542961Y-11649136D01*
X15528533Y-11643025D01*
X15514766Y-11636534D01*
X15501708Y-11629690D01*
X15489405Y-11622516D01*
X15477903Y-11615039D01*
X15467248Y-11607285D01*
X15457486Y-11599278D01*
X15448663Y-11591045D01*
X15440826Y-11582610D01*
X15434021Y-11574000D01*
X15428294Y-11565239D01*
X15424782Y-11559104D01*
X15421737Y-11553394D01*
X15419159Y-11547975D01*
X15418045Y-11545332D01*
X15417048Y-11542711D01*
X15416167Y-11540096D01*
X15415403Y-11537470D01*
X15414756Y-11534815D01*
X15414224Y-11532115D01*
X15413810Y-11529354D01*
X15413511Y-11526514D01*
X15413329Y-11523579D01*
X15413264Y-11520532D01*
X15413314Y-11517356D01*
X15413481Y-11514034D01*
X15413764Y-11510550D01*
X15414164Y-11506887D01*
X15415310Y-11498955D01*
X15416921Y-11490105D01*
X15418995Y-11480203D01*
X15421533Y-11469113D01*
X15424534Y-11456702D01*
X15427998Y-11442835D01*
X15436281Y-11405578D01*
X15443610Y-11364278D01*
X15449739Y-11321509D01*
X15454419Y-11279850D01*
X15457402Y-11241875D01*
X15458440Y-11210161D01*
X15458153Y-11197457D01*
X15457286Y-11187285D01*
X15455809Y-11179965D01*
X15454833Y-11177476D01*
X15453692Y-11175822D01*
X15453435Y-11175652D01*
X15453160Y-11175635D01*
X15452868Y-11175767D01*
X15452559Y-11176044D01*
X15452234Y-11176464D01*
X15451894Y-11177022D01*
X15451172Y-11178541D01*
X15450400Y-11180574D01*
X15449584Y-11183094D01*
X15448732Y-11186073D01*
X15447850Y-11189485D01*
X15446945Y-11193301D01*
X15446024Y-11197494D01*
X15445093Y-11202038D01*
X15444159Y-11206905D01*
X15443229Y-11212067D01*
X15442309Y-11217498D01*
X15441407Y-11223170D01*
X15440529Y-11229055D01*
X15438380Y-11243008D01*
X15436017Y-11256577D01*
X15433445Y-11269749D01*
X15430670Y-11282509D01*
X15427694Y-11294846D01*
X15424524Y-11306744D01*
X15421163Y-11318190D01*
X15417617Y-11329171D01*
X15413890Y-11339672D01*
X15409986Y-11349681D01*
X15405910Y-11359184D01*
X15401667Y-11368167D01*
X15397262Y-11376616D01*
X15392698Y-11384518D01*
X15387982Y-11391859D01*
X15383116Y-11398625D01*
X15373811Y-11410099D01*
X15363875Y-11420982D01*
X15353367Y-11431244D01*
X15342347Y-11440856D01*
X15330873Y-11449787D01*
X15319006Y-11458008D01*
X15306804Y-11465490D01*
X15294327Y-11472202D01*
X15281634Y-11478114D01*
X15268785Y-11483197D01*
X15255838Y-11487422D01*
X15242854Y-11490757D01*
X15229892Y-11493174D01*
X15217011Y-11494643D01*
X15204270Y-11495134D01*
X15197971Y-11495003D01*
X15191729Y-11494617D01*
X15178845Y-11493026D01*
X15165749Y-11490411D01*
X15152537Y-11486834D01*
X15139304Y-11482354D01*
X15126147Y-11477035D01*
X15113162Y-11470938D01*
X15100444Y-11464123D01*
X15088091Y-11456654D01*
X15076198Y-11448591D01*
X15064860Y-11439995D01*
X15054175Y-11430929D01*
X15044238Y-11421454D01*
X15035145Y-11411631D01*
X15026992Y-11401522D01*
X15019875Y-11391188D01*
X15013891Y-11380692D01*
X15011578Y-11376080D01*
X15009559Y-11371791D01*
X15007827Y-11367662D01*
X15007066Y-11365607D01*
X15006373Y-11363530D01*
X15005748Y-11361413D01*
X15005190Y-11359234D01*
X15004698Y-11356973D01*
X15004270Y-11354610D01*
X15003906Y-11352124D01*
X15003605Y-11349495D01*
X15003365Y-11346703D01*
X15003187Y-11343728D01*
X15003068Y-11340549D01*
X15003008Y-11337145D01*
X15003061Y-11329583D01*
X15003337Y-11320881D01*
X15003829Y-11310875D01*
X15004529Y-11299403D01*
X15005429Y-11286302D01*
X15007798Y-11254563D01*
X15010741Y-11206477D01*
X15013145Y-11148964D01*
X15014761Y-11089244D01*
X15015344Y-11034536D01*
X15015304Y-10913820D01*
X14967348Y-10913966D01*
X14931243Y-10914783D01*
X14868388Y-10916898D01*
X14697804Y-10923742D01*
X14532823Y-10930585D01*
X14447332Y-10933517D01*
X14438450Y-10933638D01*
X14434809Y-10933776D01*
X14431665Y-10933989D01*
X14428990Y-10934294D01*
X14426754Y-10934707D01*
X14425792Y-10934959D01*
X14424930Y-10935245D01*
X14424163Y-10935567D01*
X14423489Y-10935926D01*
X14422904Y-10936326D01*
X14422404Y-10936767D01*
X14421986Y-10937253D01*
X14421647Y-10937784D01*
X14421382Y-10938365D01*
X14421188Y-10938995D01*
X14421062Y-10939678D01*
X14421000Y-10940416D01*
X14421055Y-10942065D01*
X14421324Y-10943958D01*
X14421779Y-10946113D01*
X14422393Y-10948546D01*
X14423350Y-10953867D01*
X14424562Y-10963335D01*
X14425978Y-10976423D01*
X14427551Y-10992601D01*
X14430965Y-11032107D01*
X14434412Y-11077619D01*
X14436811Y-11118271D01*
X14438117Y-11157139D01*
X14438313Y-11194307D01*
X14437382Y-11229857D01*
X14435306Y-11263869D01*
X14432067Y-11296426D01*
X14427649Y-11327611D01*
X14422034Y-11357504D01*
X14415204Y-11386189D01*
X14407142Y-11413745D01*
X14397831Y-11440257D01*
X14387253Y-11465805D01*
X14375391Y-11490472D01*
X14362227Y-11514339D01*
X14347745Y-11537488D01*
X14331926Y-11560002D01*
X14325415Y-11568491D01*
X14318573Y-11576865D01*
X14311420Y-11585109D01*
X14303974Y-11593204D01*
X14296254Y-11601137D01*
X14288281Y-11608889D01*
X14280073Y-11616445D01*
X14271649Y-11623788D01*
X14263028Y-11630903D01*
X14254230Y-11637772D01*
X14245274Y-11644380D01*
X14236179Y-11650711D01*
X14226965Y-11656747D01*
X14217650Y-11662473D01*
X14208253Y-11667872D01*
X14198795Y-11672929D01*
X14190337Y-11676812D01*
X14180886Y-11680302D01*
X14170559Y-11683393D01*
X14159474Y-11686078D01*
X14147748Y-11688350D01*
X14135498Y-11690201D01*
X14122841Y-11691626D01*
X14109895Y-11692617D01*
X14096777Y-11693166D01*
X14083603Y-11693268D01*
X14070492Y-11692915D01*
X14057561Y-11692101D01*
X14044926Y-11690818D01*
X14032706Y-11689059D01*
X14021017Y-11686818D01*
X14009976Y-11684087D01*
X14009972Y-11684087D01*
X14000194Y-11681152D01*
X13990288Y-11677780D01*
X13980321Y-11674007D01*
X13970358Y-11669872D01*
X13960462Y-11665413D01*
X13950700Y-11660666D01*
X13941136Y-11655670D01*
X13931836Y-11650463D01*
X13922865Y-11645082D01*
X13914287Y-11639565D01*
X13906168Y-11633949D01*
X13898573Y-11628272D01*
X13891567Y-11622573D01*
X13885215Y-11616888D01*
X13879582Y-11611255D01*
X13874733Y-11605713D01*
X13871516Y-11601673D01*
X13868654Y-11597916D01*
X13866125Y-11594374D01*
X13863911Y-11590976D01*
X13861991Y-11587655D01*
X13861134Y-11586000D01*
X13860343Y-11584339D01*
X13859616Y-11582662D01*
X13858949Y-11580960D01*
X13858341Y-11579226D01*
X13857788Y-11577450D01*
X13857289Y-11575623D01*
X13856840Y-11573737D01*
X13856084Y-11569754D01*
X13855500Y-11565430D01*
X13855068Y-11560697D01*
X13854768Y-11555485D01*
X13854580Y-11549724D01*
X13854483Y-11543347D01*
X13854456Y-11536282D01*
X13854415Y-11522740D01*
X13854230Y-11512577D01*
X13854060Y-11508685D01*
X13853824Y-11505547D01*
X13853513Y-11503130D01*
X13853117Y-11501404D01*
X13852884Y-11500791D01*
X13852627Y-11500339D01*
X13852343Y-11500044D01*
X13852032Y-11499903D01*
X13851693Y-11499911D01*
X13851324Y-11500066D01*
X13850492Y-11500797D01*
X13849526Y-11502066D01*
X13848417Y-11503842D01*
X13845730Y-11508791D01*
X13842637Y-11514484D01*
X13839381Y-11519953D01*
X13835961Y-11525196D01*
X13832376Y-11530216D01*
X13828625Y-11535011D01*
X13824708Y-11539583D01*
X13820623Y-11543931D01*
X13816369Y-11548057D01*
X13811946Y-11551960D01*
X13807351Y-11555641D01*
X13802585Y-11559101D01*
X13797646Y-11562340D01*
X13792533Y-11565357D01*
X13787246Y-11568154D01*
X13781782Y-11570731D01*
X13776142Y-11573089D01*
X13770324Y-11575227D01*
X13764327Y-11577146D01*
X13758151Y-11578847D01*
X13751794Y-11580330D01*
X13745254Y-11581595D01*
X13738533Y-11582643D01*
X13731627Y-11583473D01*
X13724536Y-11584088D01*
X13717260Y-11584486D01*
X13709797Y-11584668D01*
X13702146Y-11584635D01*
X13694306Y-11584387D01*
X13686277Y-11583925D01*
X13678057Y-11583248D01*
X13669645Y-11582358D01*
X13661040Y-11581254D01*
X13649638Y-11579490D01*
X13638646Y-11577419D01*
X13628028Y-11575024D01*
X13617752Y-11572289D01*
X13607784Y-11569196D01*
X13598089Y-11565731D01*
X13588634Y-11561875D01*
X13579385Y-11557613D01*
X13570308Y-11552928D01*
X13561369Y-11547803D01*
X13552534Y-11542222D01*
X13543770Y-11536169D01*
X13535042Y-11529626D01*
X13526317Y-11522578D01*
X13517561Y-11515008D01*
X13508740Y-11506899D01*
X13495864Y-11494206D01*
X13484258Y-11481670D01*
X13473912Y-11469265D01*
X13464820Y-11456961D01*
X13456973Y-11444734D01*
X13453515Y-11438640D01*
X13450364Y-11432554D01*
X13447521Y-11426474D01*
X13444984Y-11420396D01*
X13442753Y-11414316D01*
X13440826Y-11408231D01*
X13439203Y-11402138D01*
X13437882Y-11396034D01*
X13436863Y-11389914D01*
X13436144Y-11383776D01*
X13435724Y-11377616D01*
X13435603Y-11371430D01*
X13435779Y-11365216D01*
X13436252Y-11358970D01*
X13437021Y-11352688D01*
X13438084Y-11346368D01*
X13439440Y-11340005D01*
X13441089Y-11333596D01*
X13443030Y-11327139D01*
X13445261Y-11320629D01*
X13450591Y-11307438D01*
X13455461Y-11295943D01*
X13460476Y-11283099D01*
X13470856Y-11253686D01*
X13481556Y-11219836D01*
X13492397Y-11182191D01*
X13503205Y-11141387D01*
X13513802Y-11098065D01*
X13524013Y-11052865D01*
X13533661Y-11006424D01*
X13555344Y-10897283D01*
X13487885Y-10829094D01*
X13420426Y-10760905D01*
X13361394Y-10817081D01*
X13328336Y-10847171D01*
X13294356Y-10875378D01*
X13259397Y-10901725D01*
X13223400Y-10926234D01*
X13186307Y-10948931D01*
X13148059Y-10969837D01*
X13108598Y-10988976D01*
X13067866Y-11006372D01*
X13025804Y-11022047D01*
X12982354Y-11036026D01*
X12937457Y-11048331D01*
X12891056Y-11058986D01*
X12843091Y-11068014D01*
X12793504Y-11075438D01*
X12742238Y-11081282D01*
X12689233Y-11085569D01*
X12645075Y-11087862D01*
X12599111Y-11088955D01*
X12549299Y-11088773D01*
X12493595Y-11087238D01*
X12429958Y-11084272D01*
X12356347Y-11079800D01*
X12270718Y-11073744D01*
X12171030Y-11066027D01*
X11954403Y-11048773D01*
X11939608Y-11047528D01*
X11933507Y-11046926D01*
X11928198Y-11046308D01*
X11923626Y-11045654D01*
X11919738Y-11044943D01*
X11916478Y-11044152D01*
X11913792Y-11043261D01*
X11911626Y-11042248D01*
X11909926Y-11041091D01*
X11909233Y-11040453D01*
X11908636Y-11039770D01*
X11907703Y-11038263D01*
X11907072Y-11036549D01*
X11906688Y-11034606D01*
X11906498Y-11032413D01*
X11906447Y-11029949D01*
X11906479Y-11028741D01*
X11906581Y-11027570D01*
X11906763Y-11026429D01*
X11907034Y-11025314D01*
X11907402Y-11024220D01*
X11907876Y-11023141D01*
X11908467Y-11022072D01*
X11909182Y-11021007D01*
X11910032Y-11019942D01*
X11911024Y-11018872D01*
X11912169Y-11017790D01*
X11913475Y-11016693D01*
X11914952Y-11015574D01*
X11916607Y-11014428D01*
X11918452Y-11013250D01*
X11920494Y-11012035D01*
X11922743Y-11010778D01*
X11925208Y-11009473D01*
X11927898Y-11008116D01*
X11930821Y-11006700D01*
X11933988Y-11005221D01*
X11937408Y-11003673D01*
X11945039Y-11000351D01*
X11953789Y-10996691D01*
X11963730Y-10992652D01*
X11974934Y-10988193D01*
X11987475Y-10983270D01*
X12024222Y-10968510D01*
X12058172Y-10954050D01*
X12089022Y-10940043D01*
X12116469Y-10926644D01*
X12140209Y-10914008D01*
X12159940Y-10902288D01*
X12168206Y-10896820D01*
X12175356Y-10891639D01*
X12181352Y-10886764D01*
X12186156Y-10882215D01*
X12187966Y-10880253D01*
X12189830Y-10878097D01*
X12191733Y-10875768D01*
X12193662Y-10873287D01*
X12195602Y-10870676D01*
X12197539Y-10867958D01*
X12199459Y-10865154D01*
X12201349Y-10862287D01*
X12203193Y-10859376D01*
X12204978Y-10856446D01*
X12206690Y-10853517D01*
X12208315Y-10850611D01*
X12209838Y-10847750D01*
X12211246Y-10844956D01*
X12212524Y-10842251D01*
X12213658Y-10839656D01*
X12223915Y-10815102D01*
X12182590Y-10818005D01*
X12159237Y-10819392D01*
X12126201Y-10821022D01*
X12087878Y-10822693D01*
X12048660Y-10824200D01*
X12011307Y-10825985D01*
X11975741Y-10828644D01*
X11941847Y-10832217D01*
X11909510Y-10836745D01*
X11878611Y-10842268D01*
X11849036Y-10848827D01*
X11820669Y-10856462D01*
X11793393Y-10865213D01*
X11767091Y-10875122D01*
X11741648Y-10886228D01*
X11716948Y-10898572D01*
X11692875Y-10912194D01*
X11669312Y-10927135D01*
X11646143Y-10943436D01*
X11623252Y-10961136D01*
X11600522Y-10980277D01*
X11597322Y-10983034D01*
X11594212Y-10985623D01*
X11591208Y-10988034D01*
X11588326Y-10990257D01*
X11585583Y-10992283D01*
X11582994Y-10994103D01*
X11580576Y-10995707D01*
X11578344Y-10997085D01*
X11576315Y-10998228D01*
X11574505Y-10999126D01*
X11572930Y-10999770D01*
X11571606Y-11000150D01*
X11570549Y-11000257D01*
X11570126Y-11000205D01*
X11569776Y-11000082D01*
X11569500Y-10999885D01*
X11569301Y-10999614D01*
X11569181Y-10999267D01*
X11569142Y-10998844D01*
X11567531Y-10980808D01*
X11563117Y-10938321D01*
X11548579Y-10805386D01*
X11527976Y-10620885D01*
X11461397Y-10537496D01*
X11434894Y-10503764D01*
X11410781Y-10471883D01*
X11388964Y-10441636D01*
X11369349Y-10412804D01*
X11351841Y-10385172D01*
X11336348Y-10358520D01*
X11322774Y-10332631D01*
X11311026Y-10307289D01*
X11301009Y-10282276D01*
X11292631Y-10257374D01*
X11285797Y-10232366D01*
X11280412Y-10207034D01*
X11276383Y-10181161D01*
X11273617Y-10154530D01*
X11272018Y-10126922D01*
X11271493Y-10098122D01*
X11271447Y-10026565D01*
X11291670Y-10040965D01*
X11297109Y-10045008D01*
X11304843Y-10051003D01*
X11325758Y-10067689D01*
X11351540Y-10088701D01*
X11379314Y-10111718D01*
X11401548Y-10130059D01*
X11422620Y-10146920D01*
X11442647Y-10162363D01*
X11461742Y-10176449D01*
X11480022Y-10189241D01*
X11497601Y-10200799D01*
X11514595Y-10211186D01*
X11531118Y-10220464D01*
X11547287Y-10228693D01*
X11563216Y-10235936D01*
X11579021Y-10242254D01*
X11594816Y-10247710D01*
X11610717Y-10252364D01*
X11626840Y-10256278D01*
X11643299Y-10259515D01*
X11660210Y-10262136D01*
X11695092Y-10266875D01*
X11931408Y-10136246D01*
X12224220Y-9973904D01*
X12280716Y-9942190D01*
X12276244Y-9890148D01*
X12273117Y-9861638D01*
X12268601Y-9833150D01*
X12262624Y-9804535D01*
X12255117Y-9775648D01*
X12246011Y-9746342D01*
X12235235Y-9716471D01*
X12222718Y-9685888D01*
X12208392Y-9654447D01*
X12192185Y-9622001D01*
X12174029Y-9588403D01*
X12153852Y-9553508D01*
X12131585Y-9517168D01*
X12107158Y-9479237D01*
X12080501Y-9439569D01*
X12051544Y-9398017D01*
X12020217Y-9354434D01*
X11960349Y-9271330D01*
X11914009Y-9205089D01*
X11896985Y-9179858D01*
X11884630Y-9160724D01*
X11877373Y-9148313D01*
X11875790Y-9144824D01*
X11875643Y-9143251D01*
X11875856Y-9143128D01*
X11876183Y-9143065D01*
X11876622Y-9143061D01*
X11877169Y-9143116D01*
X11878576Y-9143393D01*
X11880381Y-9143887D01*
X11882557Y-9144588D01*
X11885080Y-9145485D01*
X11887926Y-9146569D01*
X11891069Y-9147829D01*
X11898150Y-9150836D01*
X11906124Y-9154426D01*
X11914793Y-9158518D01*
X11923959Y-9163031D01*
X11943605Y-9172609D01*
X11966028Y-9182944D01*
X11992212Y-9194446D01*
X12023143Y-9207525D01*
X12059805Y-9222592D01*
X12103183Y-9240055D01*
X12214025Y-9283813D01*
X12286798Y-9313394D01*
X12319384Y-9327553D01*
X12349598Y-9341394D01*
X12377562Y-9354994D01*
X12403398Y-9368431D01*
X12427229Y-9381782D01*
X12449175Y-9395124D01*
X12469360Y-9408536D01*
X12487904Y-9422094D01*
X12504930Y-9435875D01*
X12520559Y-9449958D01*
X12534913Y-9464419D01*
X12548115Y-9479336D01*
X12560286Y-9494787D01*
X12571548Y-9510848D01*
X12573436Y-9513640D01*
X12575316Y-9516300D01*
X12577176Y-9518817D01*
X12579005Y-9521180D01*
X12580791Y-9523377D01*
X12582522Y-9525396D01*
X12584186Y-9527226D01*
X12585773Y-9528856D01*
X12587270Y-9530274D01*
X12588665Y-9531468D01*
X12589948Y-9532427D01*
X12591106Y-9533139D01*
X12592127Y-9533593D01*
X12592583Y-9533720D01*
X12593001Y-9533778D01*
X12593379Y-9533766D01*
X12593715Y-9533682D01*
X12594009Y-9533524D01*
X12594258Y-9533293D01*
X12594766Y-9532485D01*
X12595378Y-9531162D01*
X12596085Y-9529353D01*
X12596880Y-9527087D01*
X12598698Y-9521305D01*
X12600768Y-9514056D01*
X12603022Y-9505577D01*
X12605397Y-9496107D01*
X12607826Y-9485884D01*
X12610243Y-9475148D01*
X12618978Y-9437164D01*
X12629478Y-9394722D01*
X12641415Y-9349002D01*
X12654459Y-9301186D01*
X12668283Y-9252454D01*
X12682558Y-9203987D01*
X12696954Y-9156967D01*
X12711143Y-9112574D01*
X12742265Y-9022071D01*
X12774800Y-8936285D01*
X12808704Y-8855277D01*
X12843932Y-8779106D01*
X12880437Y-8707831D01*
X12918175Y-8641514D01*
X12957101Y-8580212D01*
X12997170Y-8523987D01*
X13038336Y-8472897D01*
X13080553Y-8427003D01*
X13123778Y-8386364D01*
X13167964Y-8351040D01*
X13213066Y-8321092D01*
X13259039Y-8296577D01*
X13305839Y-8277557D01*
X13353418Y-8264091D01*
X13367923Y-8261187D01*
X13382853Y-8258824D01*
X13398155Y-8256998D01*
X13413774Y-8255707D01*
X13429657Y-8254945D01*
X13445751Y-8254711D01*
X13462000Y-8255000D01*
D11*
X11527224Y-12009752D02*
X11527224Y-11809752D01*
X11527224Y-11809752D02*
X11574843Y-11809752D01*
X11574843Y-11809752D02*
X11603414Y-11819276D01*
X11603414Y-11819276D02*
X11622462Y-11838323D01*
X11622462Y-11838323D02*
X11631986Y-11857371D01*
X11631986Y-11857371D02*
X11641509Y-11895466D01*
X11641509Y-11895466D02*
X11641509Y-11924038D01*
X11641509Y-11924038D02*
X11631986Y-11962133D01*
X11631986Y-11962133D02*
X11622462Y-11981180D01*
X11622462Y-11981180D02*
X11603414Y-12000228D01*
X11603414Y-12000228D02*
X11574843Y-12009752D01*
X11574843Y-12009752D02*
X11527224Y-12009752D01*
X11727224Y-12009752D02*
X11727224Y-11876419D01*
X11727224Y-11914514D02*
X11736747Y-11895466D01*
X11736747Y-11895466D02*
X11746271Y-11885942D01*
X11746271Y-11885942D02*
X11765319Y-11876419D01*
X11765319Y-11876419D02*
X11784367Y-11876419D01*
X11851033Y-12009752D02*
X11851033Y-11876419D01*
X11851033Y-11809752D02*
X11841509Y-11819276D01*
X11841509Y-11819276D02*
X11851033Y-11828800D01*
X11851033Y-11828800D02*
X11860557Y-11819276D01*
X11860557Y-11819276D02*
X11851033Y-11809752D01*
X11851033Y-11809752D02*
X11851033Y-11828800D01*
X11974843Y-12009752D02*
X11955795Y-12000228D01*
X11955795Y-12000228D02*
X11946271Y-11981180D01*
X11946271Y-11981180D02*
X11946271Y-11809752D01*
X12079605Y-12009752D02*
X12060557Y-12000228D01*
X12060557Y-12000228D02*
X12051033Y-11981180D01*
X12051033Y-11981180D02*
X12051033Y-11809752D01*
X12308176Y-12009752D02*
X12308176Y-11809752D01*
X12308176Y-11809752D02*
X12374843Y-11952609D01*
X12374843Y-11952609D02*
X12441509Y-11809752D01*
X12441509Y-11809752D02*
X12441509Y-12009752D01*
X12622462Y-12009752D02*
X12622462Y-11904990D01*
X12622462Y-11904990D02*
X12612938Y-11885942D01*
X12612938Y-11885942D02*
X12593890Y-11876419D01*
X12593890Y-11876419D02*
X12555795Y-11876419D01*
X12555795Y-11876419D02*
X12536747Y-11885942D01*
X12622462Y-12000228D02*
X12603414Y-12009752D01*
X12603414Y-12009752D02*
X12555795Y-12009752D01*
X12555795Y-12009752D02*
X12536747Y-12000228D01*
X12536747Y-12000228D02*
X12527224Y-11981180D01*
X12527224Y-11981180D02*
X12527224Y-11962133D01*
X12527224Y-11962133D02*
X12536747Y-11943085D01*
X12536747Y-11943085D02*
X12555795Y-11933561D01*
X12555795Y-11933561D02*
X12603414Y-11933561D01*
X12603414Y-11933561D02*
X12622462Y-11924038D01*
X12717700Y-11876419D02*
X12717700Y-12076419D01*
X12717700Y-11885942D02*
X12736747Y-11876419D01*
X12736747Y-11876419D02*
X12774843Y-11876419D01*
X12774843Y-11876419D02*
X12793890Y-11885942D01*
X12793890Y-11885942D02*
X12803414Y-11895466D01*
X12803414Y-11895466D02*
X12812938Y-11914514D01*
X12812938Y-11914514D02*
X12812938Y-11971657D01*
X12812938Y-11971657D02*
X12803414Y-11990704D01*
X12803414Y-11990704D02*
X12793890Y-12000228D01*
X12793890Y-12000228D02*
X12774843Y-12009752D01*
X12774843Y-12009752D02*
X12736747Y-12009752D01*
X12736747Y-12009752D02*
X12717700Y-12000228D01*
X12898652Y-11990704D02*
X12908176Y-12000228D01*
X12908176Y-12000228D02*
X12898652Y-12009752D01*
X12898652Y-12009752D02*
X12889128Y-12000228D01*
X12889128Y-12000228D02*
X12898652Y-11990704D01*
X12898652Y-11990704D02*
X12898652Y-12009752D01*
X12898652Y-11885942D02*
X12908176Y-11895466D01*
X12908176Y-11895466D02*
X12898652Y-11904990D01*
X12898652Y-11904990D02*
X12889128Y-11895466D01*
X12889128Y-11895466D02*
X12898652Y-11885942D01*
X12898652Y-11885942D02*
X12898652Y-11904990D01*
M02*
