%TF.GenerationSoftware,KiCad,Pcbnew,8.0.6+1*%
%TF.CreationDate,2024-12-11T00:22:32+00:00*%
%TF.ProjectId,Dino-Blinker,44696e6f-2d42-46c6-996e-6b65722e6b69,rev?*%
%TF.SameCoordinates,Original*%
%TF.FileFunction,Soldermask,Bot*%
%TF.FilePolarity,Negative*%
%FSLAX46Y46*%
G04 Gerber Fmt 4.6, Leading zero omitted, Abs format (unit mm)*
G04 Created by KiCad (PCBNEW 8.0.6+1) date 2024-12-11 00:22:32*
%MOMM*%
%LPD*%
G01*
G04 APERTURE LIST*
%ADD10C,0.000000*%
%ADD11R,1.700000X1.700000*%
%ADD12O,1.700000X1.700000*%
G04 APERTURE END LIST*
D10*
G36*
X151043332Y-107349999D02*
G01*
X150619999Y-107349999D01*
X150196666Y-107349999D01*
X149773333Y-107349999D01*
X149773333Y-106926666D01*
X150196666Y-106926666D01*
X150619999Y-106926666D01*
X151043332Y-106926666D01*
X151043332Y-107349999D01*
G37*
G36*
X153583333Y-100153333D02*
G01*
X154006666Y-100153333D01*
X154006666Y-100576666D01*
X153583333Y-100576666D01*
X153159999Y-100576666D01*
X153159999Y-100153333D01*
X153159999Y-99730000D01*
X153583333Y-99730000D01*
X153583333Y-100153333D01*
G37*
G36*
X145539999Y-104809999D02*
G01*
X145539999Y-105233333D01*
X145539999Y-105656666D01*
X145539999Y-106080000D01*
X145539999Y-106503333D01*
X145539999Y-106926666D01*
X145539999Y-107349999D01*
X145116666Y-107349999D01*
X144693333Y-107349999D01*
X144270000Y-107349999D01*
X143846666Y-107349999D01*
X143423333Y-107349999D01*
X143000000Y-107349999D01*
X142576666Y-107349999D01*
X142576666Y-106926666D01*
X142576666Y-106503333D01*
X142576666Y-106080000D01*
X142576666Y-105656666D01*
X142576666Y-105233333D01*
X143000000Y-105233333D01*
X143000000Y-105656666D01*
X143000000Y-106080000D01*
X143000000Y-106503333D01*
X143000000Y-106926666D01*
X143423333Y-106926666D01*
X143846666Y-106926666D01*
X144270000Y-106926666D01*
X144693333Y-106926666D01*
X145116666Y-106926666D01*
X145116666Y-106503333D01*
X145116666Y-106080000D01*
X145116666Y-105656666D01*
X145116666Y-105233333D01*
X145116666Y-104809999D01*
X144693333Y-104809999D01*
X144270000Y-104809999D01*
X143846666Y-104809999D01*
X143423333Y-104809999D01*
X143000000Y-104809999D01*
X143000000Y-105233333D01*
X142576666Y-105233333D01*
X142576666Y-104809999D01*
X142576666Y-104386666D01*
X143000000Y-104386666D01*
X143423333Y-104386666D01*
X143846666Y-104386666D01*
X144270000Y-104386666D01*
X144693333Y-104386666D01*
X145116666Y-104386666D01*
X145539999Y-104386666D01*
X145539999Y-104809999D01*
G37*
G36*
X154853332Y-105656666D02*
G01*
X154429999Y-105656666D01*
X154429999Y-105233333D01*
X154853332Y-105233333D01*
X154853332Y-105656666D01*
G37*
G36*
X151466666Y-95496667D02*
G01*
X151043332Y-95496667D01*
X150619999Y-95496667D01*
X150619999Y-95073333D01*
X151043332Y-95073333D01*
X151466666Y-95073333D01*
X151466666Y-95496667D01*
G37*
G36*
X146386666Y-105656666D02*
G01*
X146386666Y-106080000D01*
X146810000Y-106080000D01*
X146810000Y-105656666D01*
X147233333Y-105656666D01*
X147233333Y-106080000D01*
X147233333Y-106503333D01*
X147233333Y-106926666D01*
X146810000Y-106926666D01*
X146810000Y-107349999D01*
X146386666Y-107349999D01*
X145963333Y-107349999D01*
X145963333Y-106926666D01*
X146386666Y-106926666D01*
X146810000Y-106926666D01*
X146810000Y-106503333D01*
X146386666Y-106503333D01*
X146386666Y-106926666D01*
X145963333Y-106926666D01*
X145963333Y-106503333D01*
X145963333Y-106080000D01*
X145963333Y-105656666D01*
X145963333Y-105233333D01*
X146386666Y-105233333D01*
X146386666Y-105656666D01*
G37*
G36*
X154429999Y-98883333D02*
G01*
X154006666Y-98883333D01*
X154006666Y-98460000D01*
X154429999Y-98460000D01*
X154429999Y-98883333D01*
G37*
G36*
X144270000Y-100576666D02*
G01*
X143846666Y-100576666D01*
X143846666Y-100153333D01*
X144270000Y-100153333D01*
X144270000Y-100576666D01*
G37*
G36*
X143423333Y-99730000D02*
G01*
X143000000Y-99730000D01*
X143000000Y-100153333D01*
X142576666Y-100153333D01*
X142576666Y-99730000D01*
X142576666Y-99306667D01*
X143000000Y-99306667D01*
X143423333Y-99306667D01*
X143423333Y-99730000D01*
G37*
G36*
X145539999Y-100576666D02*
G01*
X145963333Y-100576666D01*
X146386666Y-100576666D01*
X146386666Y-100153333D01*
X146810000Y-100153333D01*
X147233333Y-100153333D01*
X147233333Y-100576666D01*
X146810000Y-100576666D01*
X146810000Y-101000000D01*
X146386666Y-101000000D01*
X146386666Y-101423333D01*
X146810000Y-101423333D01*
X146810000Y-101000000D01*
X147233333Y-101000000D01*
X147656666Y-101000000D01*
X148079999Y-101000000D01*
X148079999Y-101423333D01*
X147656666Y-101423333D01*
X147656666Y-101846666D01*
X147656666Y-102270000D01*
X147233333Y-102270000D01*
X147233333Y-101846666D01*
X146810000Y-101846666D01*
X146386666Y-101846666D01*
X146386666Y-102270000D01*
X145963333Y-102270000D01*
X145539999Y-102270000D01*
X145116666Y-102270000D01*
X145116666Y-102693333D01*
X145539999Y-102693333D01*
X145539999Y-103116666D01*
X145116666Y-103116666D01*
X144693333Y-103116666D01*
X144270000Y-103116666D01*
X144270000Y-102693333D01*
X144693333Y-102693333D01*
X144693333Y-102270000D01*
X144693333Y-101846666D01*
X144693333Y-101423333D01*
X145116666Y-101423333D01*
X145116666Y-101846666D01*
X145539999Y-101846666D01*
X145963333Y-101846666D01*
X145963333Y-101423333D01*
X145963333Y-101000000D01*
X145539999Y-101000000D01*
X145539999Y-101423333D01*
X145116666Y-101423333D01*
X144693333Y-101423333D01*
X144270000Y-101423333D01*
X144270000Y-101846666D01*
X143846666Y-101846666D01*
X143423333Y-101846666D01*
X143000000Y-101846666D01*
X143000000Y-101423333D01*
X143000000Y-101000000D01*
X143423333Y-101000000D01*
X143423333Y-101423333D01*
X143846666Y-101423333D01*
X144270000Y-101423333D01*
X144270000Y-101000000D01*
X144693333Y-101000000D01*
X145116666Y-101000000D01*
X145539999Y-101000000D01*
X145539999Y-100576666D01*
X145116666Y-100576666D01*
X145116666Y-101000000D01*
X144693333Y-101000000D01*
X144693333Y-100576666D01*
X144693333Y-100153333D01*
X145116666Y-100153333D01*
X145539999Y-100153333D01*
X145539999Y-100576666D01*
G37*
G36*
X147233333Y-102693333D02*
G01*
X146810000Y-102693333D01*
X146810000Y-103116666D01*
X146810000Y-103539999D01*
X146386666Y-103539999D01*
X145963333Y-103539999D01*
X145539999Y-103539999D01*
X145539999Y-103116666D01*
X145963333Y-103116666D01*
X145963333Y-102693333D01*
X146386666Y-102693333D01*
X146386666Y-102270000D01*
X146810000Y-102270000D01*
X147233333Y-102270000D01*
X147233333Y-102693333D01*
G37*
G36*
X148079999Y-96343333D02*
G01*
X148079999Y-96766667D01*
X147656666Y-96766667D01*
X147656666Y-96343333D01*
X147656666Y-95920000D01*
X148079999Y-95920000D01*
X148079999Y-96343333D01*
G37*
G36*
X154006666Y-96343333D02*
G01*
X154006666Y-96766667D01*
X154006666Y-97190000D01*
X153583333Y-97190000D01*
X153159999Y-97190000D01*
X152736666Y-97190000D01*
X152736666Y-96766667D01*
X152736666Y-96343333D01*
X152736666Y-95920000D01*
X153159999Y-95920000D01*
X153583333Y-95920000D01*
X154006666Y-95920000D01*
X154006666Y-96343333D01*
G37*
G36*
X150196666Y-98883333D02*
G01*
X149773333Y-98883333D01*
X149773333Y-98460000D01*
X150196666Y-98460000D01*
X150196666Y-98883333D01*
G37*
G36*
X151889999Y-98883333D02*
G01*
X151466666Y-98883333D01*
X151466666Y-98460000D01*
X151889999Y-98460000D01*
X151889999Y-98883333D01*
G37*
G36*
X154429999Y-100153333D02*
G01*
X154006666Y-100153333D01*
X154006666Y-99730000D01*
X154429999Y-99730000D01*
X154429999Y-100153333D01*
G37*
G36*
X154853332Y-101000000D02*
G01*
X154429999Y-101000000D01*
X154429999Y-100576666D01*
X154853332Y-100576666D01*
X154853332Y-101000000D01*
G37*
G36*
X147233333Y-95496667D02*
G01*
X147233333Y-95920000D01*
X146810000Y-95920000D01*
X146810000Y-95496667D01*
X146810000Y-95073333D01*
X147233333Y-95073333D01*
X147233333Y-95496667D01*
G37*
G36*
X154429999Y-101846666D02*
G01*
X154006666Y-101846666D01*
X154006666Y-101423333D01*
X154429999Y-101423333D01*
X154429999Y-101846666D01*
G37*
G36*
X148079999Y-104809999D02*
G01*
X147656666Y-104809999D01*
X147656666Y-105233333D01*
X147656666Y-105656666D01*
X147233333Y-105656666D01*
X147233333Y-105233333D01*
X147233333Y-104809999D01*
X147233333Y-104386666D01*
X147656666Y-104386666D01*
X148079999Y-104386666D01*
X148079999Y-104809999D01*
G37*
G36*
X150619999Y-95920000D02*
G01*
X151043332Y-95920000D01*
X151043332Y-96343333D01*
X150619999Y-96343333D01*
X150196666Y-96343333D01*
X150196666Y-95920000D01*
X149773333Y-95920000D01*
X149773333Y-95496667D01*
X150196666Y-95496667D01*
X150619999Y-95496667D01*
X150619999Y-95920000D01*
G37*
G36*
X154853332Y-99306667D02*
G01*
X154429999Y-99306667D01*
X154429999Y-98883333D01*
X154853332Y-98883333D01*
X154853332Y-99306667D01*
G37*
G36*
X149349999Y-96343333D02*
G01*
X149349999Y-96766667D01*
X149349999Y-97190000D01*
X149773333Y-97190000D01*
X149773333Y-96766667D01*
X149773333Y-96343333D01*
X150196666Y-96343333D01*
X150196666Y-96766667D01*
X151043332Y-96766667D01*
X151043332Y-96343333D01*
X151466666Y-96343333D01*
X151466666Y-96766667D01*
X151466666Y-97190000D01*
X151466666Y-97613333D01*
X151466666Y-98036666D01*
X151466666Y-98460000D01*
X151043332Y-98460000D01*
X151043332Y-98036666D01*
X151043332Y-97613333D01*
X151043332Y-97190000D01*
X150619999Y-97190000D01*
X150619999Y-97613333D01*
X150619999Y-98036666D01*
X150196666Y-98036666D01*
X150196666Y-97613333D01*
X150196666Y-97190000D01*
X149773333Y-97190000D01*
X149773333Y-97613333D01*
X149773333Y-98036666D01*
X149349999Y-98036666D01*
X149349999Y-97613333D01*
X148926666Y-97613333D01*
X148926666Y-97190000D01*
X148503333Y-97190000D01*
X148503333Y-97613333D01*
X148079999Y-97613333D01*
X148079999Y-98036666D01*
X147656666Y-98036666D01*
X147656666Y-97613333D01*
X147233333Y-97613333D01*
X147233333Y-97190000D01*
X147656666Y-97190000D01*
X148079999Y-97190000D01*
X148079999Y-96766667D01*
X148503333Y-96766667D01*
X148503333Y-96343333D01*
X148926666Y-96343333D01*
X148926666Y-95920000D01*
X149349999Y-95920000D01*
X149349999Y-96343333D01*
G37*
G36*
X151466666Y-99306667D02*
G01*
X151466666Y-99730000D01*
X151466666Y-100153333D01*
X151043332Y-100153333D01*
X150619999Y-100153333D01*
X150196666Y-100153333D01*
X150196666Y-99730000D01*
X150619999Y-99730000D01*
X151043332Y-99730000D01*
X151043332Y-99306667D01*
X150619999Y-99306667D01*
X150619999Y-98883333D01*
X151043332Y-98883333D01*
X151466666Y-98883333D01*
X151466666Y-99306667D01*
G37*
G36*
X145539999Y-95496667D02*
G01*
X145539999Y-95920000D01*
X145539999Y-96343333D01*
X145539999Y-96766667D01*
X145539999Y-97190000D01*
X145539999Y-97613333D01*
X145539999Y-98036666D01*
X145116666Y-98036666D01*
X144693333Y-98036666D01*
X144270000Y-98036666D01*
X143846666Y-98036666D01*
X143423333Y-98036666D01*
X143000000Y-98036666D01*
X142576666Y-98036666D01*
X142576666Y-97613333D01*
X142576666Y-97190000D01*
X142576666Y-96766667D01*
X142576666Y-96343333D01*
X142576666Y-95920000D01*
X143000000Y-95920000D01*
X143000000Y-96343333D01*
X143000000Y-96766667D01*
X143000000Y-97190000D01*
X143000000Y-97613333D01*
X143423333Y-97613333D01*
X143846666Y-97613333D01*
X144270000Y-97613333D01*
X144693333Y-97613333D01*
X145116666Y-97613333D01*
X145116666Y-97190000D01*
X145116666Y-96766667D01*
X145116666Y-96343333D01*
X145116666Y-95920000D01*
X145116666Y-95496667D01*
X144693333Y-95496667D01*
X144270000Y-95496667D01*
X143846666Y-95496667D01*
X143423333Y-95496667D01*
X143000000Y-95496667D01*
X143000000Y-95920000D01*
X142576666Y-95920000D01*
X142576666Y-95496667D01*
X142576666Y-95073333D01*
X143000000Y-95073333D01*
X143423333Y-95073333D01*
X143846666Y-95073333D01*
X144270000Y-95073333D01*
X144693333Y-95073333D01*
X145116666Y-95073333D01*
X145539999Y-95073333D01*
X145539999Y-95496667D01*
G37*
G36*
X143846666Y-100153333D02*
G01*
X143423333Y-100153333D01*
X143423333Y-99730000D01*
X143846666Y-99730000D01*
X143846666Y-100153333D01*
G37*
G36*
X153583333Y-98883333D02*
G01*
X153159999Y-98883333D01*
X153159999Y-98460000D01*
X153583333Y-98460000D01*
X153583333Y-98883333D01*
G37*
G36*
X147233333Y-98036666D02*
G01*
X147656666Y-98036666D01*
X147656666Y-98460000D01*
X147656666Y-98883333D01*
X147233333Y-98883333D01*
X147233333Y-98460000D01*
X146810000Y-98460000D01*
X146810000Y-98883333D01*
X146386666Y-98883333D01*
X146386666Y-99306667D01*
X146386666Y-99730000D01*
X146386666Y-100153333D01*
X145963333Y-100153333D01*
X145539999Y-100153333D01*
X145539999Y-99730000D01*
X145116666Y-99730000D01*
X145116666Y-99306667D01*
X145539999Y-99306667D01*
X145963333Y-99306667D01*
X145963333Y-98883333D01*
X145539999Y-98883333D01*
X145116666Y-98883333D01*
X145116666Y-98460000D01*
X145539999Y-98460000D01*
X145963333Y-98460000D01*
X146386666Y-98460000D01*
X146386666Y-98036666D01*
X146810000Y-98036666D01*
X146810000Y-97613333D01*
X147233333Y-97613333D01*
X147233333Y-98036666D01*
G37*
G36*
X154853332Y-102693333D02*
G01*
X154429999Y-102693333D01*
X154429999Y-102270000D01*
X154853332Y-102270000D01*
X154853332Y-102693333D01*
G37*
G36*
X147233333Y-99306667D02*
G01*
X147233333Y-99730000D01*
X146810000Y-99730000D01*
X146810000Y-99306667D01*
X146810000Y-98883333D01*
X147233333Y-98883333D01*
X147233333Y-99306667D01*
G37*
G36*
X154853332Y-95496667D02*
G01*
X154853332Y-95920000D01*
X154853332Y-96343333D01*
X154853332Y-96766667D01*
X154853332Y-97190000D01*
X154853332Y-97613333D01*
X154853332Y-98036666D01*
X154429999Y-98036666D01*
X154006666Y-98036666D01*
X153583333Y-98036666D01*
X153159999Y-98036666D01*
X152736666Y-98036666D01*
X152313332Y-98036666D01*
X151889999Y-98036666D01*
X151889999Y-97613333D01*
X151889999Y-97190000D01*
X151889999Y-96766667D01*
X151889999Y-96343333D01*
X151889999Y-95920000D01*
X152313332Y-95920000D01*
X152313332Y-96343333D01*
X152313332Y-96766667D01*
X152313332Y-97190000D01*
X152313332Y-97613333D01*
X152736666Y-97613333D01*
X153159999Y-97613333D01*
X153583333Y-97613333D01*
X154006666Y-97613333D01*
X154429999Y-97613333D01*
X154429999Y-97190000D01*
X154429999Y-96766667D01*
X154429999Y-96343333D01*
X154429999Y-95920000D01*
X154429999Y-95496667D01*
X154006666Y-95496667D01*
X153583333Y-95496667D01*
X153159999Y-95496667D01*
X152736666Y-95496667D01*
X152313332Y-95496667D01*
X152313332Y-95920000D01*
X151889999Y-95920000D01*
X151889999Y-95496667D01*
X151889999Y-95073333D01*
X152313332Y-95073333D01*
X152736666Y-95073333D01*
X153159999Y-95073333D01*
X153583333Y-95073333D01*
X154006666Y-95073333D01*
X154429999Y-95073333D01*
X154853332Y-95073333D01*
X154853332Y-95496667D01*
G37*
G36*
X144693333Y-96343333D02*
G01*
X144693333Y-96766667D01*
X144693333Y-97190000D01*
X144270000Y-97190000D01*
X143846666Y-97190000D01*
X143423333Y-97190000D01*
X143423333Y-96766667D01*
X143423333Y-96343333D01*
X143423333Y-95920000D01*
X143846666Y-95920000D01*
X144270000Y-95920000D01*
X144693333Y-95920000D01*
X144693333Y-96343333D01*
G37*
G36*
X148926666Y-105233333D02*
G01*
X148503333Y-105233333D01*
X148503333Y-104809999D01*
X148926666Y-104809999D01*
X148926666Y-105233333D01*
G37*
G36*
X143000000Y-101000000D02*
G01*
X142576666Y-101000000D01*
X142576666Y-100576666D01*
X143000000Y-100576666D01*
X143000000Y-101000000D01*
G37*
G36*
X146386666Y-95920000D02*
G01*
X145963333Y-95920000D01*
X145963333Y-95496667D01*
X146386666Y-95496667D01*
X146386666Y-95920000D01*
G37*
G36*
X149349999Y-99306667D02*
G01*
X149773333Y-99306667D01*
X149773333Y-99730000D01*
X149773333Y-100153333D01*
X149773333Y-100576666D01*
X150196666Y-100576666D01*
X150619999Y-100576666D01*
X150619999Y-101000000D01*
X150196666Y-101000000D01*
X149773333Y-101000000D01*
X149773333Y-101423333D01*
X149773333Y-101846666D01*
X150196666Y-101846666D01*
X150196666Y-102270000D01*
X150619999Y-102270000D01*
X150619999Y-101846666D01*
X150619999Y-101423333D01*
X151043332Y-101423333D01*
X151889999Y-101423333D01*
X152736666Y-101423333D01*
X152736666Y-101000000D01*
X152313332Y-101000000D01*
X151889999Y-101000000D01*
X151889999Y-101423333D01*
X151043332Y-101423333D01*
X151043332Y-101000000D01*
X151043332Y-100576666D01*
X151466666Y-100576666D01*
X151889999Y-100576666D01*
X152313332Y-100576666D01*
X152736666Y-100576666D01*
X153159999Y-100576666D01*
X153159999Y-101000000D01*
X153583333Y-101000000D01*
X154006666Y-101000000D01*
X154006666Y-101423333D01*
X153583333Y-101423333D01*
X153159999Y-101423333D01*
X153159999Y-101846666D01*
X152736666Y-101846666D01*
X152736666Y-102270000D01*
X153159999Y-102270000D01*
X153159999Y-101846666D01*
X153583333Y-101846666D01*
X154006666Y-101846666D01*
X154006666Y-102270000D01*
X154006666Y-102693333D01*
X154006666Y-103116666D01*
X153583333Y-103116666D01*
X153583333Y-102693333D01*
X153583333Y-102270000D01*
X153159999Y-102270000D01*
X153159999Y-102693333D01*
X153159999Y-103116666D01*
X152736666Y-103116666D01*
X152313332Y-103116666D01*
X152313332Y-103539999D01*
X152736666Y-103539999D01*
X153159999Y-103539999D01*
X153159999Y-103963333D01*
X153583333Y-103963333D01*
X153583333Y-103539999D01*
X154006666Y-103539999D01*
X154006666Y-103116666D01*
X154429999Y-103116666D01*
X154429999Y-103539999D01*
X154853332Y-103539999D01*
X154853332Y-103963333D01*
X154853332Y-104386666D01*
X154429999Y-104386666D01*
X154006666Y-104386666D01*
X154006666Y-104809999D01*
X153583333Y-104809999D01*
X153159999Y-104809999D01*
X153159999Y-105233333D01*
X153159999Y-105656666D01*
X153583333Y-105656666D01*
X153583333Y-105233333D01*
X154006666Y-105233333D01*
X154006666Y-105656666D01*
X154006666Y-106080000D01*
X154429999Y-106080000D01*
X154429999Y-106503333D01*
X154429999Y-106926666D01*
X154006666Y-106926666D01*
X154006666Y-106503333D01*
X153583333Y-106503333D01*
X153583333Y-106926666D01*
X153159999Y-106926666D01*
X153159999Y-107349999D01*
X152736666Y-107349999D01*
X152313332Y-107349999D01*
X151889999Y-107349999D01*
X151889999Y-106926666D01*
X152313332Y-106926666D01*
X152736666Y-106926666D01*
X153159999Y-106926666D01*
X153159999Y-106503333D01*
X152736666Y-106503333D01*
X152736666Y-106926666D01*
X152313332Y-106926666D01*
X152313332Y-106503333D01*
X151889999Y-106503333D01*
X151889999Y-106926666D01*
X151466666Y-106926666D01*
X151043332Y-106926666D01*
X151043332Y-106503333D01*
X150619999Y-106503333D01*
X150619999Y-106080000D01*
X151466666Y-106080000D01*
X151889999Y-106080000D01*
X152313332Y-106080000D01*
X152736666Y-106080000D01*
X153159999Y-106080000D01*
X153159999Y-105656666D01*
X152736666Y-105656666D01*
X152313332Y-105656666D01*
X151889999Y-105656666D01*
X151466666Y-105656666D01*
X151466666Y-106080000D01*
X150619999Y-106080000D01*
X150619999Y-105656666D01*
X151043332Y-105656666D01*
X151043332Y-105233333D01*
X150619999Y-105233333D01*
X150196666Y-105233333D01*
X150196666Y-105656666D01*
X149773333Y-105656666D01*
X149349999Y-105656666D01*
X148926666Y-105656666D01*
X148926666Y-105233333D01*
X149349999Y-105233333D01*
X149349999Y-104809999D01*
X149349999Y-104386666D01*
X149773333Y-104386666D01*
X149773333Y-104809999D01*
X149773333Y-105233333D01*
X150196666Y-105233333D01*
X150196666Y-104809999D01*
X150196666Y-104386666D01*
X150619999Y-104386666D01*
X151043332Y-104386666D01*
X151466666Y-104386666D01*
X151466666Y-104809999D01*
X151466666Y-105233333D01*
X151889999Y-105233333D01*
X152313332Y-105233333D01*
X152736666Y-105233333D01*
X152736666Y-104809999D01*
X152736666Y-104386666D01*
X152736666Y-103963333D01*
X152313332Y-103963333D01*
X151889999Y-103963333D01*
X151466666Y-103963333D01*
X151466666Y-104386666D01*
X151043332Y-104386666D01*
X151043332Y-103963333D01*
X150619999Y-103963333D01*
X150619999Y-104386666D01*
X150196666Y-104386666D01*
X149773333Y-104386666D01*
X149773333Y-103963333D01*
X149773333Y-103539999D01*
X150196666Y-103539999D01*
X150196666Y-103963333D01*
X150619999Y-103963333D01*
X150619999Y-103539999D01*
X151043332Y-103539999D01*
X151043332Y-103116666D01*
X151466666Y-103116666D01*
X151889999Y-103116666D01*
X151889999Y-102693333D01*
X151466666Y-102693333D01*
X151466666Y-103116666D01*
X151043332Y-103116666D01*
X151043332Y-102693333D01*
X151466666Y-102693333D01*
X151466666Y-102270000D01*
X151889999Y-102270000D01*
X152313332Y-102270000D01*
X152313332Y-101846666D01*
X151889999Y-101846666D01*
X151889999Y-102270000D01*
X151466666Y-102270000D01*
X151466666Y-101846666D01*
X151043332Y-101846666D01*
X151043332Y-102270000D01*
X151043332Y-102693333D01*
X150619999Y-102693333D01*
X150619999Y-103116666D01*
X150196666Y-103116666D01*
X150196666Y-102693333D01*
X149773333Y-102693333D01*
X149773333Y-103116666D01*
X149349999Y-103116666D01*
X148926666Y-103116666D01*
X148503333Y-103116666D01*
X148503333Y-103539999D01*
X148079999Y-103539999D01*
X148079999Y-103963333D01*
X147656666Y-103963333D01*
X147656666Y-103539999D01*
X147656666Y-103116666D01*
X148079999Y-103116666D01*
X148079999Y-102693333D01*
X147656666Y-102693333D01*
X147656666Y-102270000D01*
X148079999Y-102270000D01*
X148503333Y-102270000D01*
X148503333Y-102693333D01*
X149349999Y-102693333D01*
X149349999Y-102270000D01*
X149349999Y-101846666D01*
X149349999Y-101423333D01*
X148926666Y-101423333D01*
X148926666Y-101000000D01*
X149349999Y-101000000D01*
X149349999Y-100576666D01*
X149349999Y-100153333D01*
X148926666Y-100153333D01*
X148926666Y-100576666D01*
X148503333Y-100576666D01*
X148503333Y-100153333D01*
X148079999Y-100153333D01*
X148079999Y-100576666D01*
X147656666Y-100576666D01*
X147656666Y-100153333D01*
X147656666Y-99730000D01*
X148079999Y-99730000D01*
X148503333Y-99730000D01*
X148926666Y-99730000D01*
X148926666Y-99306667D01*
X148503333Y-99306667D01*
X148503333Y-99730000D01*
X148079999Y-99730000D01*
X148079999Y-99306667D01*
X147656666Y-99306667D01*
X147656666Y-98883333D01*
X148079999Y-98883333D01*
X148503333Y-98883333D01*
X148926666Y-98883333D01*
X149349999Y-98883333D01*
X149349999Y-99306667D01*
G37*
G36*
X143000000Y-102693333D02*
G01*
X143000000Y-103116666D01*
X143000000Y-103539999D01*
X143000000Y-103963333D01*
X142576666Y-103963333D01*
X142576666Y-103539999D01*
X142576666Y-103116666D01*
X142576666Y-102693333D01*
X142576666Y-102270000D01*
X143000000Y-102270000D01*
X143000000Y-102693333D01*
G37*
G36*
X144270000Y-103539999D02*
G01*
X144693333Y-103539999D01*
X145116666Y-103539999D01*
X145539999Y-103539999D01*
X145539999Y-103963333D01*
X145116666Y-103963333D01*
X144693333Y-103963333D01*
X144270000Y-103963333D01*
X143846666Y-103963333D01*
X143423333Y-103963333D01*
X143423333Y-103539999D01*
X143846666Y-103539999D01*
X143846666Y-103116666D01*
X144270000Y-103116666D01*
X144270000Y-103539999D01*
G37*
G36*
X144693333Y-98883333D02*
G01*
X144693333Y-99306667D01*
X144270000Y-99306667D01*
X144270000Y-98883333D01*
X143846666Y-98883333D01*
X143846666Y-99306667D01*
X143423333Y-99306667D01*
X143423333Y-98883333D01*
X143000000Y-98883333D01*
X142576666Y-98883333D01*
X142576666Y-98460000D01*
X143000000Y-98460000D01*
X143423333Y-98460000D01*
X143846666Y-98460000D01*
X144270000Y-98460000D01*
X144693333Y-98460000D01*
X144693333Y-98883333D01*
G37*
G36*
X146810000Y-104386666D02*
G01*
X146810000Y-104809999D01*
X146810000Y-105233333D01*
X146386666Y-105233333D01*
X146386666Y-104809999D01*
X145963333Y-104809999D01*
X145963333Y-104386666D01*
X145963333Y-103963333D01*
X146386666Y-103963333D01*
X146810000Y-103963333D01*
X146810000Y-104386666D01*
G37*
G36*
X144693333Y-105656666D02*
G01*
X144693333Y-106080000D01*
X144693333Y-106503333D01*
X144270000Y-106503333D01*
X143846666Y-106503333D01*
X143423333Y-106503333D01*
X143423333Y-106080000D01*
X143423333Y-105656666D01*
X143423333Y-105233333D01*
X143846666Y-105233333D01*
X144270000Y-105233333D01*
X144693333Y-105233333D01*
X144693333Y-105656666D01*
G37*
G36*
X152313332Y-104809999D02*
G01*
X151889999Y-104809999D01*
X151889999Y-104386666D01*
X152313332Y-104386666D01*
X152313332Y-104809999D01*
G37*
G36*
X148926666Y-98036666D02*
G01*
X149349999Y-98036666D01*
X149349999Y-98460000D01*
X148926666Y-98460000D01*
X148503333Y-98460000D01*
X148079999Y-98460000D01*
X148079999Y-98036666D01*
X148503333Y-98036666D01*
X148503333Y-97613333D01*
X148926666Y-97613333D01*
X148926666Y-98036666D01*
G37*
G36*
X148926666Y-103963333D02*
G01*
X148503333Y-103963333D01*
X148503333Y-103539999D01*
X148926666Y-103539999D01*
X148926666Y-103963333D01*
G37*
G36*
X149773333Y-95496667D02*
G01*
X149349999Y-95496667D01*
X148926666Y-95496667D01*
X148503333Y-95496667D01*
X148503333Y-95920000D01*
X148079999Y-95920000D01*
X148079999Y-95496667D01*
X147656666Y-95496667D01*
X147656666Y-95073333D01*
X148079999Y-95073333D01*
X148503333Y-95073333D01*
X148926666Y-95073333D01*
X149349999Y-95073333D01*
X149773333Y-95073333D01*
X149773333Y-95496667D01*
G37*
G36*
X154006666Y-107349999D02*
G01*
X153583333Y-107349999D01*
X153583333Y-106926666D01*
X154006666Y-106926666D01*
X154006666Y-107349999D01*
G37*
G36*
X148926666Y-106080000D02*
G01*
X149349999Y-106080000D01*
X149349999Y-106503333D01*
X149349999Y-106926666D01*
X149349999Y-107349999D01*
X148926666Y-107349999D01*
X148503333Y-107349999D01*
X148503333Y-106926666D01*
X148926666Y-106926666D01*
X148926666Y-106503333D01*
X148503333Y-106503333D01*
X148503333Y-106926666D01*
X148079999Y-106926666D01*
X148079999Y-107349999D01*
X147656666Y-107349999D01*
X147656666Y-106926666D01*
X147656666Y-106503333D01*
X148079999Y-106503333D01*
X148079999Y-106080000D01*
X147656666Y-106080000D01*
X147656666Y-105656666D01*
X148079999Y-105656666D01*
X148503333Y-105656666D01*
X148926666Y-105656666D01*
X148926666Y-106080000D01*
G37*
G36*
X152736666Y-98883333D02*
G01*
X153159999Y-98883333D01*
X153159999Y-99306667D01*
X153159999Y-99730000D01*
X152736666Y-99730000D01*
X152736666Y-99306667D01*
X152313332Y-99306667D01*
X151889999Y-99306667D01*
X151889999Y-98883333D01*
X152313332Y-98883333D01*
X152313332Y-98460000D01*
X152736666Y-98460000D01*
X152736666Y-98883333D01*
G37*
G36*
X147233333Y-96766667D02*
G01*
X146810000Y-96766667D01*
X146810000Y-97190000D01*
X146810000Y-97613333D01*
X146386666Y-97613333D01*
X146386666Y-98036666D01*
X145963333Y-98036666D01*
X145963333Y-97613333D01*
X145963333Y-97190000D01*
X146386666Y-97190000D01*
X146386666Y-96766667D01*
X145963333Y-96766667D01*
X145963333Y-96343333D01*
X146386666Y-96343333D01*
X146810000Y-96343333D01*
X147233333Y-96343333D01*
X147233333Y-96766667D01*
G37*
D11*
%TO.C,J1*%
X141000000Y-112750000D03*
D12*
X138460000Y-112750000D03*
%TD*%
M02*
