<?xml version="1.0" standalone="no"?>
 <!DOCTYPE svg PUBLIC "-//W3C//DTD SVG 1.1//EN" 
 "http://www.w3.org/Graphics/SVG/1.1/DTD/svg11.dtd"> 
<svg
  xmlns:svg="http://www.w3.org/2000/svg"
  xmlns="http://www.w3.org/2000/svg"
  xmlns:xlink="http://www.w3.org/1999/xlink"
  version="1.1"
  width="297.0022mm" height="210.0072mm" viewBox="0.0000 0.0000 297.0022 210.0072">
<title>SVG Image created as Dino-Blinker-F_Paste.svg date 2024/12/11 00:22:53 </title>
  <desc>Image generated by PCBNEW </desc>
<g style="fill:#000000; fill-opacity:1.0000;stroke:#000000; stroke-opacity:1.0000;
stroke-linecap:round; stroke-linejoin:round;"
 transform="translate(0 0) scale(1 1)">
<path style="fill:#000000; fill-opacity:1.0000; stroke:none;fill-rule:evenodd;"
d="M 125.1050,105.0700
125.0093,105.0510
124.9282,104.9968
124.8740,104.9157
124.8550,104.8200
124.8550,104.0200
124.8740,103.9243
124.9282,103.8432
125.0093,103.7890
125.1050,103.7700
126.3550,103.7700
126.4507,103.7890
126.5318,103.8432
126.5860,103.9243
126.6050,104.0200
126.6050,104.8200
126.5860,104.9157
126.5318,104.9968
126.4507,105.0510
126.3550,105.0700
Z" /> 
<path style="fill:#000000; fill-opacity:1.0000; stroke:none;fill-rule:evenodd;"
d="M 125.1050,101.9700
125.0093,101.9510
124.9282,101.8968
124.8740,101.8157
124.8550,101.7200
124.8550,100.9200
124.8740,100.8243
124.9282,100.7432
125.0093,100.6890
125.1050,100.6700
126.3550,100.6700
126.4507,100.6890
126.5318,100.7432
126.5860,100.8243
126.6050,100.9200
126.6050,101.7200
126.5860,101.8157
126.5318,101.8968
126.4507,101.9510
126.3550,101.9700
Z" /> 
<path style="fill:#000000; fill-opacity:1.0000; stroke:none;fill-rule:evenodd;"
d="M 130.7500,95.8750
130.7310,95.9707
130.6768,96.0518
130.5957,96.1060
130.5000,96.1250
129.7000,96.1250
129.6043,96.1060
129.5232,96.0518
129.4690,95.9707
129.4500,95.8750
129.4500,94.6250
129.4690,94.5293
129.5232,94.4482
129.6043,94.3940
129.7000,94.3750
130.5000,94.3750
130.5957,94.3940
130.6768,94.4482
130.7310,94.5293
130.7500,94.6250
Z" /> 
<path style="fill:#000000; fill-opacity:1.0000; stroke:none;fill-rule:evenodd;"
d="M 127.6500,95.8750
127.6310,95.9707
127.5768,96.0518
127.4957,96.1060
127.4000,96.1250
126.6000,96.1250
126.5043,96.1060
126.4232,96.0518
126.3690,95.9707
126.3500,95.8750
126.3500,94.6250
126.3690,94.5293
126.4232,94.4482
126.5043,94.3940
126.6000,94.3750
127.4000,94.3750
127.4957,94.3940
127.5768,94.4482
127.6310,94.5293
127.6500,94.6250
Z" /> 
<path style="fill:#000000; fill-opacity:1.0000; stroke:none;fill-rule:evenodd;"
d="M 136.5350,93.6400
136.4393,93.6210
136.3582,93.5668
136.3040,93.4857
136.2850,93.3900
136.2850,92.5900
136.3040,92.4943
136.3582,92.4132
136.4393,92.3590
136.5350,92.3400
137.7850,92.3400
137.8807,92.3590
137.9618,92.4132
138.0160,92.4943
138.0350,92.5900
138.0350,93.3900
138.0160,93.4857
137.9618,93.5668
137.8807,93.6210
137.7850,93.6400
Z" /> 
<path style="fill:#000000; fill-opacity:1.0000; stroke:none;fill-rule:evenodd;"
d="M 136.5350,90.5400
136.4393,90.5210
136.3582,90.4668
136.3040,90.3857
136.2850,90.2900
136.2850,89.4900
136.3040,89.3943
136.3582,89.3132
136.4393,89.2590
136.5350,89.2400
137.7850,89.2400
137.8807,89.2590
137.9618,89.3132
138.0160,89.3943
138.0350,89.4900
138.0350,90.2900
138.0160,90.3857
137.9618,90.4668
137.8807,90.5210
137.7850,90.5400
Z" /> 
<path style="fill:#000000; fill-opacity:1.0000; stroke:none;fill-rule:evenodd;"
d="M 127.7950,104.4950
127.6993,104.4760
127.6182,104.4218
127.5640,104.3407
127.5450,104.2450
127.5450,103.5700
127.5640,103.4743
127.6182,103.3932
127.6993,103.3390
127.7950,103.3200
128.7450,103.3200
128.8407,103.3390
128.9218,103.3932
128.9760,103.4743
128.9950,103.5700
128.9950,104.2450
128.9760,104.3407
128.9218,104.4218
128.8407,104.4760
128.7450,104.4950
Z" /> 
<path style="fill:#000000; fill-opacity:1.0000; stroke:none;fill-rule:evenodd;"
d="M 127.7950,102.4200
127.6993,102.4010
127.6182,102.3468
127.5640,102.2657
127.5450,102.1700
127.5450,101.4950
127.5640,101.3993
127.6182,101.3182
127.6993,101.2640
127.7950,101.2450
128.7450,101.2450
128.8407,101.2640
128.9218,101.3182
128.9760,101.3993
128.9950,101.4950
128.9950,102.1700
128.9760,102.2657
128.9218,102.3468
128.8407,102.4010
128.7450,102.4200
Z" /> 
<path style="fill:#000000; fill-opacity:1.0000; stroke:none;fill-rule:evenodd;"
d="M 124.2832,96.6996
124.2021,96.7538
124.1064,96.7728
124.0107,96.7538
123.9296,96.6996
123.4700,96.2399
123.4158,96.1588
123.3968,96.0632
123.4158,95.9675
123.4700,95.8864
124.1064,95.2500
124.1875,95.1958
124.2832,95.1768
124.3788,95.1958
124.4599,95.2500
124.9196,95.7096
124.9738,95.7907
124.9928,95.8864
124.9738,95.9821
124.9196,96.0632
Z" /> 
<path style="fill:#000000; fill-opacity:1.0000; stroke:none;fill-rule:evenodd;"
d="M 122.8336,95.2500
122.7525,95.3042
122.6568,95.3232
122.5612,95.3042
122.4801,95.2500
122.0204,94.7904
121.9662,94.7093
121.9472,94.6136
121.9662,94.5179
122.0204,94.4368
122.6568,93.8004
122.7379,93.7462
122.8336,93.7272
122.9293,93.7462
123.0104,93.8004
123.4700,94.2601
123.5242,94.3412
123.5432,94.4368
123.5242,94.5325
123.4700,94.6136
Z" /> 
<path style="fill:#000000; fill-opacity:1.0000; stroke:none;fill-rule:evenodd;"
d="M 146.5000,91.3550
146.5957,91.3740
146.6768,91.4282
146.7310,91.5093
146.7500,91.6050
146.7500,92.2550
146.7310,92.3507
146.6768,92.4318
146.5957,92.4860
146.5000,92.5050
145.6000,92.5050
145.5043,92.4860
145.4232,92.4318
145.3690,92.3507
145.3500,92.2550
145.3500,91.6050
145.3690,91.5093
145.4232,91.4282
145.5043,91.3740
145.6000,91.3550
Z" /> 
<path style="fill:#000000; fill-opacity:1.0000; stroke:none;fill-rule:evenodd;"
d="M 146.5000,93.4050
146.5957,93.4240
146.6768,93.4782
146.7310,93.5593
146.7500,93.6550
146.7500,94.3050
146.7310,94.4007
146.6768,94.4818
146.5957,94.5360
146.5000,94.5550
145.6000,94.5550
145.5043,94.5360
145.4232,94.4818
145.3690,94.4007
145.3500,94.3050
145.3500,93.6550
145.3690,93.5593
145.4232,93.4782
145.5043,93.4240
145.6000,93.4050
Z" /> 
<path style="fill:#000000; fill-opacity:1.0000; stroke:none;fill-rule:evenodd;"
d="M 131.7500,84.6400
131.7690,84.5443
131.8232,84.4632
131.9043,84.4090
132.0000,84.3900
132.6500,84.3900
132.7457,84.4090
132.8268,84.4632
132.8810,84.5443
132.9000,84.6400
132.9000,85.5400
132.8810,85.6357
132.8268,85.7168
132.7457,85.7710
132.6500,85.7900
132.0000,85.7900
131.9043,85.7710
131.8232,85.7168
131.7690,85.6357
131.7500,85.5400
Z" /> 
<path style="fill:#000000; fill-opacity:1.0000; stroke:none;fill-rule:evenodd;"
d="M 133.8000,84.6400
133.8190,84.5443
133.8732,84.4632
133.9543,84.4090
134.0500,84.3900
134.7000,84.3900
134.7957,84.4090
134.8768,84.4632
134.9310,84.5443
134.9500,84.6400
134.9500,85.5400
134.9310,85.6357
134.8768,85.7168
134.7957,85.7710
134.7000,85.7900
134.0500,85.7900
133.9543,85.7710
133.8732,85.7168
133.8190,85.6357
133.8000,85.5400
Z" /> 
<path style="fill:#000000; fill-opacity:1.0000; stroke:none;fill-rule:evenodd;"
d="M 133.9950,95.9000
133.8993,95.8810
133.8182,95.8268
133.7640,95.7457
133.7450,95.6500
133.7450,94.8500
133.7640,94.7543
133.8182,94.6732
133.8993,94.6190
133.9950,94.6000
135.2450,94.6000
135.3407,94.6190
135.4218,94.6732
135.4760,94.7543
135.4950,94.8500
135.4950,95.6500
135.4760,95.7457
135.4218,95.8268
135.3407,95.8810
135.2450,95.9000
Z" /> 
<path style="fill:#000000; fill-opacity:1.0000; stroke:none;fill-rule:evenodd;"
d="M 133.9950,92.8000
133.8993,92.7810
133.8182,92.7268
133.7640,92.6457
133.7450,92.5500
133.7450,91.7500
133.7640,91.6543
133.8182,91.5732
133.8993,91.5190
133.9950,91.5000
135.2450,91.5000
135.3407,91.5190
135.4218,91.5732
135.4760,91.6543
135.4950,91.7500
135.4950,92.5500
135.4760,92.6457
135.4218,92.7268
135.3407,92.7810
135.2450,92.8000
Z" /> 
<path style="fill:#000000; fill-opacity:1.0000; stroke:none;fill-rule:evenodd;"
d="M 151.5800,92.6250
151.6757,92.6440
151.7568,92.6982
151.8110,92.7793
151.8300,92.8750
151.8300,93.5250
151.8110,93.6207
151.7568,93.7018
151.6757,93.7560
151.5800,93.7750
150.6800,93.7750
150.5843,93.7560
150.5032,93.7018
150.4490,93.6207
150.4300,93.5250
150.4300,92.8750
150.4490,92.7793
150.5032,92.6982
150.5843,92.6440
150.6800,92.6250
Z" /> 
<path style="fill:#000000; fill-opacity:1.0000; stroke:none;fill-rule:evenodd;"
d="M 151.5800,94.6750
151.6757,94.6940
151.7568,94.7482
151.8110,94.8293
151.8300,94.9250
151.8300,95.5750
151.8110,95.6707
151.7568,95.7518
151.6757,95.8060
151.5800,95.8250
150.6800,95.8250
150.5843,95.8060
150.5032,95.7518
150.4490,95.6707
150.4300,95.5750
150.4300,94.9250
150.4490,94.8293
150.5032,94.7482
150.5843,94.6940
150.6800,94.6750
Z" /> 
<path style="fill:#000000; fill-opacity:1.0000; stroke:none;fill-rule:evenodd;"
d="M 153.0250,102.2200
153.1207,102.2390
153.2018,102.2932
153.2560,102.3743
153.2750,102.4700
153.2750,103.2700
153.2560,103.3657
153.2018,103.4468
153.1207,103.5010
153.0250,103.5200
151.7750,103.5200
151.6793,103.5010
151.5982,103.4468
151.5440,103.3657
151.5250,103.2700
151.5250,102.4700
151.5440,102.3743
151.5982,102.2932
151.6793,102.2390
151.7750,102.2200
Z" /> 
<path style="fill:#000000; fill-opacity:1.0000; stroke:none;fill-rule:evenodd;"
d="M 153.0250,105.3200
153.1207,105.3390
153.2018,105.3932
153.2560,105.4743
153.2750,105.5700
153.2750,106.3700
153.2560,106.4657
153.2018,106.5468
153.1207,106.6010
153.0250,106.6200
151.7750,106.6200
151.6793,106.6010
151.5982,106.5468
151.5440,106.4657
151.5250,106.3700
151.5250,105.5700
151.5440,105.4743
151.5982,105.3932
151.6793,105.3390
151.7750,105.3200
Z" /> 
<path style="fill:#000000; fill-opacity:1.0000; stroke:none;fill-rule:evenodd;"
d="M 145.4250,101.2600
145.3293,101.2410
145.2482,101.1868
145.1940,101.1057
145.1750,101.0100
145.1750,100.2100
145.1940,100.1143
145.2482,100.0332
145.3293,99.9790
145.4250,99.9600
146.6750,99.9600
146.7707,99.9790
146.8518,100.0332
146.9060,100.1143
146.9250,100.2100
146.9250,101.0100
146.9060,101.1057
146.8518,101.1868
146.7707,101.2410
146.6750,101.2600
Z" /> 
<path style="fill:#000000; fill-opacity:1.0000; stroke:none;fill-rule:evenodd;"
d="M 145.4250,98.1600
145.3293,98.1410
145.2482,98.0868
145.1940,98.0057
145.1750,97.9100
145.1750,97.1100
145.1940,97.0143
145.2482,96.9332
145.3293,96.8790
145.4250,96.8600
146.6750,96.8600
146.7707,96.8790
146.8518,96.9332
146.9060,97.0143
146.9250,97.1100
146.9250,97.9100
146.9060,98.0057
146.8518,98.0868
146.7707,98.1410
146.6750,98.1600
Z" /> 
<path style="fill:#000000; fill-opacity:1.0000; stroke:none;fill-rule:evenodd;"
d="M 157.9300,111.1850
158.0257,111.2040
158.1068,111.2582
158.1610,111.3393
158.1800,111.4350
158.1800,112.0850
158.1610,112.1807
158.1068,112.2618
158.0257,112.3160
157.9300,112.3350
157.0300,112.3350
156.9343,112.3160
156.8532,112.2618
156.7990,112.1807
156.7800,112.0850
156.7800,111.4350
156.7990,111.3393
156.8532,111.2582
156.9343,111.2040
157.0300,111.1850
Z" /> 
<path style="fill:#000000; fill-opacity:1.0000; stroke:none;fill-rule:evenodd;"
d="M 157.9300,113.2350
158.0257,113.2540
158.1068,113.3082
158.1610,113.3893
158.1800,113.4850
158.1800,114.1350
158.1610,114.2307
158.1068,114.3118
158.0257,114.3660
157.9300,114.3850
157.0300,114.3850
156.9343,114.3660
156.8532,114.3118
156.7990,114.2307
156.7800,114.1350
156.7800,113.4850
156.7990,113.3893
156.8532,113.3082
156.9343,113.2540
157.0300,113.2350
Z" /> 
<path style="fill:#000000; fill-opacity:1.0000; stroke:none;fill-rule:evenodd;"
d="M 127.1078,105.2879
127.1269,105.1922
127.1811,105.1111
127.2622,105.0569
127.3578,105.0379
128.1578,105.0379
128.2535,105.0569
128.3346,105.1111
128.3888,105.1922
128.4078,105.2879
128.4078,106.5379
128.3888,106.6335
128.3346,106.7146
128.2535,106.7688
128.1578,106.7879
127.3578,106.7879
127.2622,106.7688
127.1811,106.7146
127.1269,106.6335
127.1078,106.5379
Z" /> 
<path style="fill:#000000; fill-opacity:1.0000; stroke:none;fill-rule:evenodd;"
d="M 130.2078,105.2879
130.2269,105.1922
130.2811,105.1111
130.3622,105.0569
130.4578,105.0379
131.2578,105.0379
131.3535,105.0569
131.4346,105.1111
131.4888,105.1922
131.5078,105.2879
131.5078,106.5379
131.4888,106.6335
131.4346,106.7146
131.3535,106.7688
131.2578,106.7879
130.4578,106.7879
130.3622,106.7688
130.2811,106.7146
130.2269,106.6335
130.2078,106.5379
Z" /> 
<path style="fill:#000000; fill-opacity:1.0000; stroke:none;fill-rule:evenodd;"
d="M 155.4500,94.4000
155.5457,94.4190
155.6268,94.4732
155.6810,94.5543
155.7000,94.6500
155.7000,95.3000
155.6810,95.3957
155.6268,95.4768
155.5457,95.5310
155.4500,95.5500
154.5500,95.5500
154.4543,95.5310
154.3732,95.4768
154.3190,95.3957
154.3000,95.3000
154.3000,94.6500
154.3190,94.5543
154.3732,94.4732
154.4543,94.4190
154.5500,94.4000
Z" /> 
<path style="fill:#000000; fill-opacity:1.0000; stroke:none;fill-rule:evenodd;"
d="M 155.4500,96.4500
155.5457,96.4690
155.6268,96.5232
155.6810,96.6043
155.7000,96.7000
155.7000,97.3500
155.6810,97.4457
155.6268,97.5268
155.5457,97.5810
155.4500,97.6000
154.5500,97.6000
154.4543,97.5810
154.3732,97.5268
154.3190,97.4457
154.3000,97.3500
154.3000,96.7000
154.3190,96.6043
154.3732,96.5232
154.4543,96.4690
154.5500,96.4500
Z" /> 
<path style="fill:#000000; fill-opacity:1.0000; stroke:none;fill-rule:evenodd;"
d="M 149.2150,102.2200
149.3107,102.2390
149.3918,102.2932
149.4460,102.3743
149.4650,102.4700
149.4650,103.2700
149.4460,103.3657
149.3918,103.4468
149.3107,103.5010
149.2150,103.5200
147.9650,103.5200
147.8693,103.5010
147.7882,103.4468
147.7340,103.3657
147.7150,103.2700
147.7150,102.4700
147.7340,102.3743
147.7882,102.2932
147.8693,102.2390
147.9650,102.2200
Z" /> 
<path style="fill:#000000; fill-opacity:1.0000; stroke:none;fill-rule:evenodd;"
d="M 149.2150,105.3200
149.3107,105.3390
149.3918,105.3932
149.4460,105.4743
149.4650,105.5700
149.4650,106.3700
149.4460,106.4657
149.3918,106.5468
149.3107,106.6010
149.2150,106.6200
147.9650,106.6200
147.8693,106.6010
147.7882,106.5468
147.7340,106.4657
147.7150,106.3700
147.7150,105.5700
147.7340,105.4743
147.7882,105.3932
147.8693,105.3390
147.9650,105.3200
Z" /> 
<path style="fill:#000000; fill-opacity:1.0000; stroke:none;fill-rule:evenodd;"
d="M 152.8500,108.6450
152.9457,108.6640
153.0268,108.7182
153.0810,108.7993
153.1000,108.8950
153.1000,109.5450
153.0810,109.6407
153.0268,109.7218
152.9457,109.7760
152.8500,109.7950
151.9500,109.7950
151.8543,109.7760
151.7732,109.7218
151.7190,109.6407
151.7000,109.5450
151.7000,108.8950
151.7190,108.7993
151.7732,108.7182
151.8543,108.6640
151.9500,108.6450
Z" /> 
<path style="fill:#000000; fill-opacity:1.0000; stroke:none;fill-rule:evenodd;"
d="M 152.8500,110.6950
152.9457,110.7140
153.0268,110.7682
153.0810,110.8493
153.1000,110.9450
153.1000,111.5950
153.0810,111.6907
153.0268,111.7718
152.9457,111.8260
152.8500,111.8450
151.9500,111.8450
151.8543,111.8260
151.7732,111.7718
151.7190,111.6907
151.7000,111.5950
151.7000,110.9450
151.7190,110.8493
151.7732,110.7682
151.8543,110.7140
151.9500,110.6950
Z" /> 
<path style="fill:#000000; fill-opacity:1.0000; stroke:none;fill-rule:evenodd;"
d="M 141.0925,107.1550
141.0735,107.2507
141.0193,107.3318
140.9382,107.3860
140.8425,107.4050
140.1675,107.4050
140.0718,107.3860
139.9907,107.3318
139.9365,107.2507
139.9175,107.1550
139.9175,106.2050
139.9365,106.1093
139.9907,106.0282
140.0718,105.9740
140.1675,105.9550
140.8425,105.9550
140.9382,105.9740
141.0193,106.0282
141.0735,106.1093
141.0925,106.2050
Z" /> 
<path style="fill:#000000; fill-opacity:1.0000; stroke:none;fill-rule:evenodd;"
d="M 139.0175,107.1550
138.9985,107.2507
138.9443,107.3318
138.8632,107.3860
138.7675,107.4050
138.0925,107.4050
137.9968,107.3860
137.9157,107.3318
137.8615,107.2507
137.8425,107.1550
137.8425,106.2050
137.8615,106.1093
137.9157,106.0282
137.9968,105.9740
138.0925,105.9550
138.7675,105.9550
138.8632,105.9740
138.9443,106.0282
138.9985,106.1093
139.0175,106.2050
Z" /> 
<path style="fill:#000000; fill-opacity:1.0000; stroke:none;fill-rule:evenodd;"
d="M 158.1000,103.5150
158.1190,103.4193
158.1732,103.3382
158.2543,103.2840
158.3500,103.2650
159.1500,103.2650
159.2457,103.2840
159.3268,103.3382
159.3810,103.4193
159.4000,103.5150
159.4000,104.7650
159.3810,104.8607
159.3268,104.9418
159.2457,104.9960
159.1500,105.0150
158.3500,105.0150
158.2543,104.9960
158.1732,104.9418
158.1190,104.8607
158.1000,104.7650
Z" /> 
<path style="fill:#000000; fill-opacity:1.0000; stroke:none;fill-rule:evenodd;"
d="M 161.2000,103.5150
161.2190,103.4193
161.2732,103.3382
161.3543,103.2840
161.4500,103.2650
162.2500,103.2650
162.3457,103.2840
162.4268,103.3382
162.4810,103.4193
162.5000,103.5150
162.5000,104.7650
162.4810,104.8607
162.4268,104.9418
162.3457,104.9960
162.2500,105.0150
161.4500,105.0150
161.3543,104.9960
161.2732,104.9418
161.2190,104.8607
161.2000,104.7650
Z" /> 
<path style="fill:#000000; fill-opacity:1.0000; stroke:none;fill-rule:evenodd;"
d="M 150.5050,100.9800
150.4093,100.9610
150.3282,100.9068
150.2740,100.8257
150.2550,100.7300
150.2550,99.9300
150.2740,99.8343
150.3282,99.7532
150.4093,99.6990
150.5050,99.6800
151.7550,99.6800
151.8507,99.6990
151.9318,99.7532
151.9860,99.8343
152.0050,99.9300
152.0050,100.7300
151.9860,100.8257
151.9318,100.9068
151.8507,100.9610
151.7550,100.9800
Z" /> 
<path style="fill:#000000; fill-opacity:1.0000; stroke:none;fill-rule:evenodd;"
d="M 150.5050,97.8800
150.4093,97.8610
150.3282,97.8068
150.2740,97.7257
150.2550,97.6300
150.2550,96.8300
150.2740,96.7343
150.3282,96.6532
150.4093,96.5990
150.5050,96.5800
151.7550,96.5800
151.8507,96.5990
151.9318,96.6532
151.9860,96.7343
152.0050,96.8300
152.0050,97.6300
151.9860,97.7257
151.9318,97.8068
151.8507,97.8610
151.7550,97.8800
Z" /> 
<path style="fill:#000000; fill-opacity:1.0000; stroke:none;fill-rule:evenodd;"
d="M 128.9650,88.4500
128.9840,88.3543
129.0382,88.2732
129.1193,88.2190
129.2150,88.2000
129.8650,88.2000
129.9607,88.2190
130.0418,88.2732
130.0960,88.3543
130.1150,88.4500
130.1150,89.3500
130.0960,89.4457
130.0418,89.5268
129.9607,89.5810
129.8650,89.6000
129.2150,89.6000
129.1193,89.5810
129.0382,89.5268
128.9840,89.4457
128.9650,89.3500
Z" /> 
<path style="fill:#000000; fill-opacity:1.0000; stroke:none;fill-rule:evenodd;"
d="M 131.0150,88.4500
131.0340,88.3543
131.0882,88.2732
131.1693,88.2190
131.2650,88.2000
131.9150,88.2000
132.0107,88.2190
132.0918,88.2732
132.1460,88.3543
132.1650,88.4500
132.1650,89.3500
132.1460,89.4457
132.0918,89.5268
132.0107,89.5810
131.9150,89.6000
131.2650,89.6000
131.1693,89.5810
131.0882,89.5268
131.0340,89.4457
131.0150,89.3500
Z" /> 
<path style="fill:#000000; fill-opacity:1.0000; stroke:none;fill-rule:evenodd;"
d="M 143.0250,97.5150
143.0824,97.5264
143.1311,97.5589
143.1636,97.6076
143.1750,97.6650
143.1750,99.3150
143.1636,99.3724
143.1311,99.4211
143.0824,99.4536
143.0250,99.4650
142.7250,99.4650
142.6676,99.4536
142.6189,99.4211
142.5864,99.3724
142.5750,99.3150
142.5750,97.6650
142.5864,97.6076
142.6189,97.5589
142.6676,97.5264
142.7250,97.5150
Z" /> 
<path style="fill:#000000; fill-opacity:1.0000; stroke:none;fill-rule:evenodd;"
d="M 141.7550,97.5150
141.8124,97.5264
141.8611,97.5589
141.8936,97.6076
141.9050,97.6650
141.9050,99.3150
141.8936,99.3724
141.8611,99.4211
141.8124,99.4536
141.7550,99.4650
141.4550,99.4650
141.3976,99.4536
141.3489,99.4211
141.3164,99.3724
141.3050,99.3150
141.3050,97.6650
141.3164,97.6076
141.3489,97.5589
141.3976,97.5264
141.4550,97.5150
Z" /> 
<path style="fill:#000000; fill-opacity:1.0000; stroke:none;fill-rule:evenodd;"
d="M 140.4850,97.5150
140.5424,97.5264
140.5911,97.5589
140.6236,97.6076
140.6350,97.6650
140.6350,99.3150
140.6236,99.3724
140.5911,99.4211
140.5424,99.4536
140.4850,99.4650
140.1850,99.4650
140.1276,99.4536
140.0789,99.4211
140.0464,99.3724
140.0350,99.3150
140.0350,97.6650
140.0464,97.6076
140.0789,97.5589
140.1276,97.5264
140.1850,97.5150
Z" /> 
<path style="fill:#000000; fill-opacity:1.0000; stroke:none;fill-rule:evenodd;"
d="M 139.2150,97.5150
139.2724,97.5264
139.3211,97.5589
139.3536,97.6076
139.3650,97.6650
139.3650,99.3150
139.3536,99.3724
139.3211,99.4211
139.2724,99.4536
139.2150,99.4650
138.9150,99.4650
138.8576,99.4536
138.8089,99.4211
138.7764,99.3724
138.7650,99.3150
138.7650,97.6650
138.7764,97.6076
138.8089,97.5589
138.8576,97.5264
138.9150,97.5150
Z" /> 
<path style="fill:#000000; fill-opacity:1.0000; stroke:none;fill-rule:evenodd;"
d="M 137.9450,97.5150
138.0024,97.5264
138.0511,97.5589
138.0836,97.6076
138.0950,97.6650
138.0950,99.3150
138.0836,99.3724
138.0511,99.4211
138.0024,99.4536
137.9450,99.4650
137.6450,99.4650
137.5876,99.4536
137.5389,99.4211
137.5064,99.3724
137.4950,99.3150
137.4950,97.6650
137.5064,97.6076
137.5389,97.5589
137.5876,97.5264
137.6450,97.5150
Z" /> 
<path style="fill:#000000; fill-opacity:1.0000; stroke:none;fill-rule:evenodd;"
d="M 136.6750,97.5150
136.7324,97.5264
136.7811,97.5589
136.8136,97.6076
136.8250,97.6650
136.8250,99.3150
136.8136,99.3724
136.7811,99.4211
136.7324,99.4536
136.6750,99.4650
136.3750,99.4650
136.3176,99.4536
136.2689,99.4211
136.2364,99.3724
136.2250,99.3150
136.2250,97.6650
136.2364,97.6076
136.2689,97.5589
136.3176,97.5264
136.3750,97.5150
Z" /> 
<path style="fill:#000000; fill-opacity:1.0000; stroke:none;fill-rule:evenodd;"
d="M 135.4050,97.5150
135.4624,97.5264
135.5111,97.5589
135.5436,97.6076
135.5550,97.6650
135.5550,99.3150
135.5436,99.3724
135.5111,99.4211
135.4624,99.4536
135.4050,99.4650
135.1050,99.4650
135.0476,99.4536
134.9989,99.4211
134.9664,99.3724
134.9550,99.3150
134.9550,97.6650
134.9664,97.6076
134.9989,97.5589
135.0476,97.5264
135.1050,97.5150
Z" /> 
<path style="fill:#000000; fill-opacity:1.0000; stroke:none;fill-rule:evenodd;"
d="M 134.1350,97.5150
134.1924,97.5264
134.2411,97.5589
134.2736,97.6076
134.2850,97.6650
134.2850,99.3150
134.2736,99.3724
134.2411,99.4211
134.1924,99.4536
134.1350,99.4650
133.8350,99.4650
133.7776,99.4536
133.7289,99.4211
133.6964,99.3724
133.6850,99.3150
133.6850,97.6650
133.6964,97.6076
133.7289,97.5589
133.7776,97.5264
133.8350,97.5150
Z" /> 
<path style="fill:#000000; fill-opacity:1.0000; stroke:none;fill-rule:evenodd;"
d="M 134.1350,102.4650
134.1924,102.4764
134.2411,102.5089
134.2736,102.5576
134.2850,102.6150
134.2850,104.2650
134.2736,104.3224
134.2411,104.3711
134.1924,104.4036
134.1350,104.4150
133.8350,104.4150
133.7776,104.4036
133.7289,104.3711
133.6964,104.3224
133.6850,104.2650
133.6850,102.6150
133.6964,102.5576
133.7289,102.5089
133.7776,102.4764
133.8350,102.4650
Z" /> 
<path style="fill:#000000; fill-opacity:1.0000; stroke:none;fill-rule:evenodd;"
d="M 135.4050,102.4650
135.4624,102.4764
135.5111,102.5089
135.5436,102.5576
135.5550,102.6150
135.5550,104.2650
135.5436,104.3224
135.5111,104.3711
135.4624,104.4036
135.4050,104.4150
135.1050,104.4150
135.0476,104.4036
134.9989,104.3711
134.9664,104.3224
134.9550,104.2650
134.9550,102.6150
134.9664,102.5576
134.9989,102.5089
135.0476,102.4764
135.1050,102.4650
Z" /> 
<path style="fill:#000000; fill-opacity:1.0000; stroke:none;fill-rule:evenodd;"
d="M 136.6750,102.4650
136.7324,102.4764
136.7811,102.5089
136.8136,102.5576
136.8250,102.6150
136.8250,104.2650
136.8136,104.3224
136.7811,104.3711
136.7324,104.4036
136.6750,104.4150
136.3750,104.4150
136.3176,104.4036
136.2689,104.3711
136.2364,104.3224
136.2250,104.2650
136.2250,102.6150
136.2364,102.5576
136.2689,102.5089
136.3176,102.4764
136.3750,102.4650
Z" /> 
<path style="fill:#000000; fill-opacity:1.0000; stroke:none;fill-rule:evenodd;"
d="M 137.9450,102.4650
138.0024,102.4764
138.0511,102.5089
138.0836,102.5576
138.0950,102.6150
138.0950,104.2650
138.0836,104.3224
138.0511,104.3711
138.0024,104.4036
137.9450,104.4150
137.6450,104.4150
137.5876,104.4036
137.5389,104.3711
137.5064,104.3224
137.4950,104.2650
137.4950,102.6150
137.5064,102.5576
137.5389,102.5089
137.5876,102.4764
137.6450,102.4650
Z" /> 
<path style="fill:#000000; fill-opacity:1.0000; stroke:none;fill-rule:evenodd;"
d="M 139.2150,102.4650
139.2724,102.4764
139.3211,102.5089
139.3536,102.5576
139.3650,102.6150
139.3650,104.2650
139.3536,104.3224
139.3211,104.3711
139.2724,104.4036
139.2150,104.4150
138.9150,104.4150
138.8576,104.4036
138.8089,104.3711
138.7764,104.3224
138.7650,104.2650
138.7650,102.6150
138.7764,102.5576
138.8089,102.5089
138.8576,102.4764
138.9150,102.4650
Z" /> 
<path style="fill:#000000; fill-opacity:1.0000; stroke:none;fill-rule:evenodd;"
d="M 140.4850,102.4650
140.5424,102.4764
140.5911,102.5089
140.6236,102.5576
140.6350,102.6150
140.6350,104.2650
140.6236,104.3224
140.5911,104.3711
140.5424,104.4036
140.4850,104.4150
140.1850,104.4150
140.1276,104.4036
140.0789,104.3711
140.0464,104.3224
140.0350,104.2650
140.0350,102.6150
140.0464,102.5576
140.0789,102.5089
140.1276,102.4764
140.1850,102.4650
Z" /> 
<path style="fill:#000000; fill-opacity:1.0000; stroke:none;fill-rule:evenodd;"
d="M 141.7550,102.4650
141.8124,102.4764
141.8611,102.5089
141.8936,102.5576
141.9050,102.6150
141.9050,104.2650
141.8936,104.3224
141.8611,104.3711
141.8124,104.4036
141.7550,104.4150
141.4550,104.4150
141.3976,104.4036
141.3489,104.3711
141.3164,104.3224
141.3050,104.2650
141.3050,102.6150
141.3164,102.5576
141.3489,102.5089
141.3976,102.4764
141.4550,102.4650
Z" /> 
<path style="fill:#000000; fill-opacity:1.0000; stroke:none;fill-rule:evenodd;"
d="M 143.0250,102.4650
143.0824,102.4764
143.1311,102.5089
143.1636,102.5576
143.1750,102.6150
143.1750,104.2650
143.1636,104.3224
143.1311,104.3711
143.0824,104.4036
143.0250,104.4150
142.7250,104.4150
142.6676,104.4036
142.6189,104.3711
142.5864,104.3224
142.5750,104.2650
142.5750,102.6150
142.5864,102.5576
142.6189,102.5089
142.6676,102.4764
142.7250,102.4650
Z" /> 
<path style="fill:#000000; fill-opacity:1.0000; stroke:none;fill-rule:evenodd;"
d="M 123.1300,104.7650
123.1110,104.8607
123.0568,104.9418
122.9757,104.9960
122.8800,105.0150
122.0800,105.0150
121.9843,104.9960
121.9032,104.9418
121.8490,104.8607
121.8300,104.7650
121.8300,103.5150
121.8490,103.4193
121.9032,103.3382
121.9843,103.2840
122.0800,103.2650
122.8800,103.2650
122.9757,103.2840
123.0568,103.3382
123.1110,103.4193
123.1300,103.5150
Z" /> 
<path style="fill:#000000; fill-opacity:1.0000; stroke:none;fill-rule:evenodd;"
d="M 120.0300,104.7650
120.0110,104.8607
119.9568,104.9418
119.8757,104.9960
119.7800,105.0150
118.9800,105.0150
118.8843,104.9960
118.8032,104.9418
118.7490,104.8607
118.7300,104.7650
118.7300,103.5150
118.7490,103.4193
118.8032,103.3382
118.8843,103.2840
118.9800,103.2650
119.7800,103.2650
119.8757,103.2840
119.9568,103.3382
120.0110,103.4193
120.0300,103.5150
Z" /> 
<path style="fill:#000000; fill-opacity:1.0000; stroke:none;fill-rule:evenodd;"
d="M 155.5850,102.8100
155.4893,102.7910
155.4082,102.7368
155.3540,102.6557
155.3350,102.5600
155.3350,101.7600
155.3540,101.6643
155.4082,101.5832
155.4893,101.5290
155.5850,101.5100
156.8350,101.5100
156.9307,101.5290
157.0118,101.5832
157.0660,101.6643
157.0850,101.7600
157.0850,102.5600
157.0660,102.6557
157.0118,102.7368
156.9307,102.7910
156.8350,102.8100
Z" /> 
<path style="fill:#000000; fill-opacity:1.0000; stroke:none;fill-rule:evenodd;"
d="M 155.5850,99.7100
155.4893,99.6910
155.4082,99.6368
155.3540,99.5557
155.3350,99.4600
155.3350,98.6600
155.3540,98.5643
155.4082,98.4832
155.4893,98.4290
155.5850,98.4100
156.8350,98.4100
156.9307,98.4290
157.0118,98.4832
157.0660,98.5643
157.0850,98.6600
157.0850,99.4600
157.0660,99.5557
157.0118,99.6368
156.9307,99.6910
156.8350,99.7100
Z" /> 
<path style="fill:#000000; fill-opacity:1.0000; stroke:none;fill-rule:evenodd;"
d="M 167.5516,109.0404
167.6327,108.9862
167.7284,108.9672
167.8241,108.9862
167.9052,109.0404
168.3648,109.5001
168.4190,109.5812
168.4380,109.6768
168.4190,109.7725
168.3648,109.8536
167.7284,110.4900
167.6473,110.5442
167.5516,110.5632
167.4559,110.5442
167.3748,110.4900
166.9152,110.0304
166.8610,109.9493
166.8420,109.8536
166.8610,109.7579
166.9152,109.6768
Z" /> 
<path style="fill:#000000; fill-opacity:1.0000; stroke:none;fill-rule:evenodd;"
d="M 169.0012,110.4900
169.0823,110.4358
169.1780,110.4168
169.2736,110.4358
169.3547,110.4900
169.8144,110.9496
169.8685,111.0307
169.8876,111.1264
169.8685,111.2221
169.8144,111.3032
169.1780,111.9396
169.0968,111.9938
169.0012,112.0128
168.9055,111.9938
168.8244,111.9396
168.3648,111.4799
168.3106,111.3988
168.2916,111.3032
168.3106,111.2075
168.3648,111.1264
Z" /> 
<path style="fill:#000000; fill-opacity:1.0000; stroke:none;fill-rule:evenodd;"
d="M 118.1950,104.5900
118.1760,104.6857
118.1218,104.7668
118.0407,104.8210
117.9450,104.8400
117.2950,104.8400
117.1993,104.8210
117.1182,104.7668
117.0640,104.6857
117.0450,104.5900
117.0450,103.6900
117.0640,103.5943
117.1182,103.5132
117.1993,103.4590
117.2950,103.4400
117.9450,103.4400
118.0407,103.4590
118.1218,103.5132
118.1760,103.5943
118.1950,103.6900
Z" /> 
<path style="fill:#000000; fill-opacity:1.0000; stroke:none;fill-rule:evenodd;"
d="M 116.1450,104.5900
116.1260,104.6857
116.0718,104.7668
115.9907,104.8210
115.8950,104.8400
115.2450,104.8400
115.1493,104.8210
115.0682,104.7668
115.0140,104.6857
114.9950,104.5900
114.9950,103.6900
115.0140,103.5943
115.0682,103.5132
115.1493,103.4590
115.2450,103.4400
115.8950,103.4400
115.9907,103.4590
116.0718,103.5132
116.1260,103.5943
116.1450,103.6900
Z" /> 
</g> 
</svg>
