<?xml version="1.0" standalone="no"?>
 <!DOCTYPE svg PUBLIC "-//W3C//DTD SVG 1.1//EN" 
 "http://www.w3.org/Graphics/SVG/1.1/DTD/svg11.dtd"> 
<svg
  xmlns:svg="http://www.w3.org/2000/svg"
  xmlns="http://www.w3.org/2000/svg"
  xmlns:xlink="http://www.w3.org/1999/xlink"
  version="1.1"
  width="297.0022mm" height="210.0072mm" viewBox="0.0000 0.0000 297.0022 210.0072">
<title>SVG Image created as Dino-Blinker-F_Silkscreen.svg date 2024/12/11 00:23:26 </title>
  <desc>Image generated by PCBNEW </desc>
<g style="fill:#000000; fill-opacity:1.0000;stroke:#000000; stroke-opacity:1.0000;
stroke-linecap:round; stroke-linejoin:round;"
 transform="translate(0 0) scale(1 1)">
</g>
<g style="fill:none; 
stroke:#000000; stroke-width:0.1500; stroke-opacity:1; 
stroke-linecap:round; stroke-linejoin:round;">
<g transform="rotate(-90.000000 123.9100 102.8700)">
<text x="123.9100" y="103.3700"
textLength="3.1548" font-size="1.3333" lengthAdjust="spacingAndGlyphs"
text-anchor="middle" opacity="0" stroke-opacity="0">R12</text>
</g>
<g class="stroked-text"><desc>R12</desc>
<path d="M124.3648 103.5129
L123.8886 103.8462
" />
<path d="M124.3648 104.0843
L123.3648 104.0843
" />
<path d="M123.3648 104.0843
L123.3648 103.7033
" />
<path d="M123.3648 103.7033
L123.4124 103.6081
" />
<path d="M123.4124 103.6081
L123.4601 103.5605
" />
<path d="M123.4601 103.5605
L123.5553 103.5129
" />
<path d="M123.5553 103.5129
L123.6982 103.5129
" />
<path d="M123.6982 103.5129
L123.7934 103.5605
" />
<path d="M123.7934 103.5605
L123.8410 103.6081
" />
<path d="M123.8410 103.6081
L123.8886 103.7033
" />
<path d="M123.8886 103.7033
L123.8886 104.0843
" />
<path d="M124.3648 102.5605
L124.3648 103.1319
" />
<path d="M124.3648 102.8462
L123.3648 102.8462
" />
<path d="M123.3648 102.8462
L123.5077 102.9414
" />
<path d="M123.5077 102.9414
L123.6029 103.0367
" />
<path d="M123.6029 103.0367
L123.6505 103.1319
" />
<path d="M123.4601 102.1795
L123.4124 102.1319
" />
<path d="M123.4124 102.1319
L123.3648 102.0367
" />
<path d="M123.3648 102.0367
L123.3648 101.7986
" />
<path d="M123.3648 101.7986
L123.4124 101.7033
" />
<path d="M123.4124 101.7033
L123.4601 101.6557
" />
<path d="M123.4601 101.6557
L123.5553 101.6081
" />
<path d="M123.5553 101.6081
L123.6505 101.6081
" />
<path d="M123.6505 101.6081
L123.7934 101.6557
" />
<path d="M123.7934 101.6557
L124.3648 102.2271
" />
<path d="M124.3648 102.2271
L124.3648 101.6081
" />
</g><text x="128.5500" y="97.5700"
textLength="2.2024" font-size="1.3333" lengthAdjust="spacingAndGlyphs"
text-anchor="middle" opacity="0" stroke-opacity="0">R4</text>
<g class="stroked-text"><desc>R4</desc>
<path d="M128.3833 97.5248
L128.0500 97.0486
" />
<path d="M127.8119 97.5248
L127.8119 96.5248
" />
<path d="M127.8119 96.5248
L128.1929 96.5248
" />
<path d="M128.1929 96.5248
L128.2881 96.5724
" />
<path d="M128.2881 96.5724
L128.3357 96.6201
" />
<path d="M128.3357 96.6201
L128.3833 96.7153
" />
<path d="M128.3833 96.7153
L128.3833 96.8582
" />
<path d="M128.3833 96.8582
L128.3357 96.9534
" />
<path d="M128.3357 96.9534
L128.2881 97.0010
" />
<path d="M128.2881 97.0010
L128.1929 97.0486
" />
<path d="M128.1929 97.0486
L127.8119 97.0486
" />
<path d="M129.2405 96.8582
L129.2405 97.5248
" />
<path d="M129.0024 96.4772
L128.7643 97.1915
" />
<path d="M128.7643 97.1915
L129.3833 97.1915
" />
</g><g transform="rotate(-90.000000 135.3400 90.1700)">
<text x="135.3400" y="90.6700"
textLength="2.2024" font-size="1.3333" lengthAdjust="spacingAndGlyphs"
text-anchor="middle" opacity="0" stroke-opacity="0">R7</text>
</g>
<g class="stroked-text"><desc>R7</desc>
<path d="M135.7948 90.3367
L135.3186 90.6700
" />
<path d="M135.7948 90.9081
L134.7948 90.9081
" />
<path d="M134.7948 90.9081
L134.7948 90.5271
" />
<path d="M134.7948 90.5271
L134.8424 90.4319
" />
<path d="M134.8424 90.4319
L134.8901 90.3843
" />
<path d="M134.8901 90.3843
L134.9853 90.3367
" />
<path d="M134.9853 90.3367
L135.1282 90.3367
" />
<path d="M135.1282 90.3367
L135.2234 90.3843
" />
<path d="M135.2234 90.3843
L135.2710 90.4319
" />
<path d="M135.2710 90.4319
L135.3186 90.5271
" />
<path d="M135.3186 90.5271
L135.3186 90.9081
" />
<path d="M134.7948 90.0033
L134.7948 89.3367
" />
<path d="M134.7948 89.3367
L135.7948 89.7652
" />
</g><g transform="rotate(-90.000000 128.2700 100.3300)">
<text x="128.2700" y="100.8300"
textLength="2.2024" font-size="1.3333" lengthAdjust="spacingAndGlyphs"
text-anchor="middle" opacity="0" stroke-opacity="0">C1</text>
</g>
<g class="stroked-text"><desc>C1</desc>
<path d="M128.6296 100.4967
L128.6772 100.5443
" />
<path d="M128.6772 100.5443
L128.7248 100.6871
" />
<path d="M128.7248 100.6871
L128.7248 100.7824
" />
<path d="M128.7248 100.7824
L128.6772 100.9252
" />
<path d="M128.6772 100.9252
L128.5820 101.0205
" />
<path d="M128.5820 101.0205
L128.4867 101.0681
" />
<path d="M128.4867 101.0681
L128.2962 101.1157
" />
<path d="M128.2962 101.1157
L128.1534 101.1157
" />
<path d="M128.1534 101.1157
L127.9629 101.0681
" />
<path d="M127.9629 101.0681
L127.8677 101.0205
" />
<path d="M127.8677 101.0205
L127.7724 100.9252
" />
<path d="M127.7724 100.9252
L127.7248 100.7824
" />
<path d="M127.7248 100.7824
L127.7248 100.6871
" />
<path d="M127.7248 100.6871
L127.7724 100.5443
" />
<path d="M127.7724 100.5443
L127.8201 100.4967
" />
<path d="M128.7248 99.5443
L128.7248 100.1157
" />
<path d="M128.7248 99.8300
L127.7248 99.8300
" />
<path d="M127.7248 99.8300
L127.8677 99.9252
" />
<path d="M127.8677 99.9252
L127.9629 100.0205
" />
<path d="M127.9629 100.0205
L128.0105 100.1157
" />
</g><g transform="rotate(-45.000000 125.7300 97.7900)">
<text x="125.7300" y="98.2900"
textLength="2.2024" font-size="1.3333" lengthAdjust="spacingAndGlyphs"
text-anchor="middle" opacity="0" stroke-opacity="0">D4</text>
</g>
<g class="stroked-text"><desc>D4</desc>
<path d="M125.5297 98.6335
L124.8226 97.9264
" />
<path d="M124.8226 97.9264
L124.9909 97.7581
" />
<path d="M124.9909 97.7581
L125.1256 97.6907
" />
<path d="M125.1256 97.6907
L125.2603 97.6907
" />
<path d="M125.2603 97.6907
L125.3613 97.7244
" />
<path d="M125.3613 97.7244
L125.5297 97.8254
" />
<path d="M125.5297 97.8254
L125.6307 97.9264
" />
<path d="M125.6307 97.9264
L125.7317 98.0948
" />
<path d="M125.7317 98.0948
L125.7654 98.1958
" />
<path d="M125.7654 98.1958
L125.7654 98.3305
" />
<path d="M125.7654 98.3305
L125.6981 98.4652
" />
<path d="M125.6981 98.4652
L125.5297 98.6335
" />
<path d="M126.0684 97.1520
L126.5398 97.6234
" />
<path d="M125.6307 97.0509
L125.9674 97.7244
" />
<path d="M125.9674 97.7244
L126.4052 97.2866
" />
</g><g transform="rotate(-90.000000 147.7000 92.9550)">
<text x="147.7000" y="93.4550"
textLength="2.2024" font-size="1.3333" lengthAdjust="spacingAndGlyphs"
text-anchor="middle" opacity="0" stroke-opacity="0">D9</text>
</g>
<g class="stroked-text"><desc>D9</desc>
<path d="M148.1548 93.6931
L147.1548 93.6931
" />
<path d="M147.1548 93.6931
L147.1548 93.4550
" />
<path d="M147.1548 93.4550
L147.2024 93.3121
" />
<path d="M147.2024 93.3121
L147.2977 93.2169
" />
<path d="M147.2977 93.2169
L147.3929 93.1693
" />
<path d="M147.3929 93.1693
L147.5834 93.1217
" />
<path d="M147.5834 93.1217
L147.7262 93.1217
" />
<path d="M147.7262 93.1217
L147.9167 93.1693
" />
<path d="M147.9167 93.1693
L148.0120 93.2169
" />
<path d="M148.0120 93.2169
L148.1072 93.3121
" />
<path d="M148.1072 93.3121
L148.1548 93.4550
" />
<path d="M148.1548 93.4550
L148.1548 93.6931
" />
<path d="M148.1548 92.6455
L148.1548 92.4550
" />
<path d="M148.1548 92.4550
L148.1072 92.3598
" />
<path d="M148.1072 92.3598
L148.0596 92.3121
" />
<path d="M148.0596 92.3121
L147.9167 92.2169
" />
<path d="M147.9167 92.2169
L147.7262 92.1693
" />
<path d="M147.7262 92.1693
L147.3453 92.1693
" />
<path d="M147.3453 92.1693
L147.2501 92.2169
" />
<path d="M147.2501 92.2169
L147.2024 92.2645
" />
<path d="M147.2024 92.2645
L147.1548 92.3598
" />
<path d="M147.1548 92.3598
L147.1548 92.5502
" />
<path d="M147.1548 92.5502
L147.2024 92.6455
" />
<path d="M147.2024 92.6455
L147.2501 92.6931
" />
<path d="M147.2501 92.6931
L147.3453 92.7407
" />
<path d="M147.3453 92.7407
L147.5834 92.7407
" />
<path d="M147.5834 92.7407
L147.6786 92.6931
" />
<path d="M147.6786 92.6931
L147.7262 92.6455
" />
<path d="M147.7262 92.6455
L147.7739 92.5502
" />
<path d="M147.7739 92.5502
L147.7739 92.3598
" />
<path d="M147.7739 92.3598
L147.7262 92.2645
" />
<path d="M147.7262 92.2645
L147.6786 92.2169
" />
<path d="M147.6786 92.2169
L147.5834 92.1693
" />
</g><g transform="rotate(-90.000000 143.3300 112.7500)">
<text x="143.3300" y="113.2500"
textLength="1.9643" font-size="1.3333" lengthAdjust="spacingAndGlyphs"
text-anchor="middle" opacity="0" stroke-opacity="0">J1</text>
</g>
<g class="stroked-text"><desc>J1</desc>
<path d="M142.7848 113.0833
L143.4991 113.0833
" />
<path d="M143.4991 113.0833
L143.6420 113.1310
" />
<path d="M143.6420 113.1310
L143.7372 113.2262
" />
<path d="M143.7372 113.2262
L143.7848 113.3690
" />
<path d="M143.7848 113.3690
L143.7848 113.4643
" />
<path d="M143.7848 112.0833
L143.7848 112.6548
" />
<path d="M143.7848 112.3690
L142.7848 112.3690
" />
<path d="M142.7848 112.3690
L142.9277 112.4643
" />
<path d="M142.9277 112.4643
L143.0229 112.5595
" />
<path d="M143.0229 112.5595
L143.0705 112.6548
" />
</g><text x="134.0000" y="83.9400"
textLength="2.2024" font-size="1.3333" lengthAdjust="spacingAndGlyphs"
text-anchor="middle" opacity="0" stroke-opacity="0">D7</text>
<g class="stroked-text"><desc>D7</desc>
<path d="M133.2619 83.8948
L133.2619 82.8948
" />
<path d="M133.2619 82.8948
L133.5000 82.8948
" />
<path d="M133.5000 82.8948
L133.6429 82.9424
" />
<path d="M133.6429 82.9424
L133.7381 83.0377
" />
<path d="M133.7381 83.0377
L133.7857 83.1329
" />
<path d="M133.7857 83.1329
L133.8333 83.3234
" />
<path d="M133.8333 83.3234
L133.8333 83.4662
" />
<path d="M133.8333 83.4662
L133.7857 83.6567
" />
<path d="M133.7857 83.6567
L133.7381 83.7520
" />
<path d="M133.7381 83.7520
L133.6429 83.8472
" />
<path d="M133.6429 83.8472
L133.5000 83.8948
" />
<path d="M133.5000 83.8948
L133.2619 83.8948
" />
<path d="M134.1667 82.8948
L134.8333 82.8948
" />
<path d="M134.8333 82.8948
L134.4048 83.8948
" />
</g><g transform="rotate(-90.000000 132.8000 93.7000)">
<text x="132.8000" y="94.2000"
textLength="2.2024" font-size="1.3333" lengthAdjust="spacingAndGlyphs"
text-anchor="middle" opacity="0" stroke-opacity="0">R6</text>
</g>
<g class="stroked-text"><desc>R6</desc>
<path d="M133.2548 93.8667
L132.7786 94.2000
" />
<path d="M133.2548 94.4381
L132.2548 94.4381
" />
<path d="M132.2548 94.4381
L132.2548 94.0571
" />
<path d="M132.2548 94.0571
L132.3024 93.9619
" />
<path d="M132.3024 93.9619
L132.3501 93.9143
" />
<path d="M132.3501 93.9143
L132.4453 93.8667
" />
<path d="M132.4453 93.8667
L132.5882 93.8667
" />
<path d="M132.5882 93.8667
L132.6834 93.9143
" />
<path d="M132.6834 93.9143
L132.7310 93.9619
" />
<path d="M132.7310 93.9619
L132.7786 94.0571
" />
<path d="M132.7786 94.0571
L132.7786 94.4381
" />
<path d="M132.2548 93.0095
L132.2548 93.2000
" />
<path d="M132.2548 93.2000
L132.3024 93.2952
" />
<path d="M132.3024 93.2952
L132.3501 93.3429
" />
<path d="M132.3501 93.3429
L132.4929 93.4381
" />
<path d="M132.4929 93.4381
L132.6834 93.4857
" />
<path d="M132.6834 93.4857
L133.0643 93.4857
" />
<path d="M133.0643 93.4857
L133.1596 93.4381
" />
<path d="M133.1596 93.4381
L133.2072 93.3905
" />
<path d="M133.2072 93.3905
L133.2548 93.2952
" />
<path d="M133.2548 93.2952
L133.2548 93.1048
" />
<path d="M133.2548 93.1048
L133.2072 93.0095
" />
<path d="M133.2072 93.0095
L133.1596 92.9619
" />
<path d="M133.1596 92.9619
L133.0643 92.9143
" />
<path d="M133.0643 92.9143
L132.8262 92.9143
" />
<path d="M132.8262 92.9143
L132.7310 92.9619
" />
<path d="M132.7310 92.9619
L132.6834 93.0095
" />
<path d="M132.6834 93.0095
L132.6358 93.1048
" />
<path d="M132.6358 93.1048
L132.6358 93.2952
" />
<path d="M132.6358 93.2952
L132.6834 93.3905
" />
<path d="M132.6834 93.3905
L132.7310 93.4381
" />
<path d="M132.7310 93.4381
L132.8262 93.4857
" />
</g><g transform="rotate(-90.000000 152.7800 94.2250)">
<text x="152.7800" y="94.7250"
textLength="3.1548" font-size="1.3333" lengthAdjust="spacingAndGlyphs"
text-anchor="middle" opacity="0" stroke-opacity="0">D10</text>
</g>
<g class="stroked-text"><desc>D10</desc>
<path d="M153.2348 95.4393
L152.2348 95.4393
" />
<path d="M152.2348 95.4393
L152.2348 95.2012
" />
<path d="M152.2348 95.2012
L152.2824 95.0583
" />
<path d="M152.2824 95.0583
L152.3777 94.9631
" />
<path d="M152.3777 94.9631
L152.4729 94.9155
" />
<path d="M152.4729 94.9155
L152.6634 94.8679
" />
<path d="M152.6634 94.8679
L152.8062 94.8679
" />
<path d="M152.8062 94.8679
L152.9967 94.9155
" />
<path d="M152.9967 94.9155
L153.0920 94.9631
" />
<path d="M153.0920 94.9631
L153.1872 95.0583
" />
<path d="M153.1872 95.0583
L153.2348 95.2012
" />
<path d="M153.2348 95.2012
L153.2348 95.4393
" />
<path d="M153.2348 93.9155
L153.2348 94.4869
" />
<path d="M153.2348 94.2012
L152.2348 94.2012
" />
<path d="M152.2348 94.2012
L152.3777 94.2964
" />
<path d="M152.3777 94.2964
L152.4729 94.3917
" />
<path d="M152.4729 94.3917
L152.5205 94.4869
" />
<path d="M152.2348 93.2964
L152.2348 93.2012
" />
<path d="M152.2348 93.2012
L152.2824 93.1060
" />
<path d="M152.2824 93.1060
L152.3301 93.0583
" />
<path d="M152.3301 93.0583
L152.4253 93.0107
" />
<path d="M152.4253 93.0107
L152.6158 92.9631
" />
<path d="M152.6158 92.9631
L152.8539 92.9631
" />
<path d="M152.8539 92.9631
L153.0443 93.0107
" />
<path d="M153.0443 93.0107
L153.1396 93.0583
" />
<path d="M153.1396 93.0583
L153.1872 93.1060
" />
<path d="M153.1872 93.1060
L153.2348 93.2012
" />
<path d="M153.2348 93.2012
L153.2348 93.2964
" />
<path d="M153.2348 93.2964
L153.1872 93.3917
" />
<path d="M153.1872 93.3917
L153.1396 93.4393
" />
<path d="M153.1396 93.4393
L153.0443 93.4869
" />
<path d="M153.0443 93.4869
L152.8539 93.5345
" />
<path d="M152.8539 93.5345
L152.6158 93.5345
" />
<path d="M152.6158 93.5345
L152.4253 93.4869
" />
<path d="M152.4253 93.4869
L152.3301 93.4393
" />
<path d="M152.3301 93.4393
L152.2824 93.3917
" />
<path d="M152.2824 93.3917
L152.2348 93.2964
" />
</g><g transform="rotate(-90.000000 154.2200 104.4200)">
<text x="154.2200" y="104.9200"
textLength="2.2024" font-size="1.3333" lengthAdjust="spacingAndGlyphs"
text-anchor="middle" opacity="0" stroke-opacity="0">R1</text>
</g>
<g class="stroked-text"><desc>R1</desc>
<path d="M154.6748 104.5867
L154.1986 104.9200
" />
<path d="M154.6748 105.1581
L153.6748 105.1581
" />
<path d="M153.6748 105.1581
L153.6748 104.7771
" />
<path d="M153.6748 104.7771
L153.7224 104.6819
" />
<path d="M153.7224 104.6819
L153.7701 104.6343
" />
<path d="M153.7701 104.6343
L153.8653 104.5867
" />
<path d="M153.8653 104.5867
L154.0082 104.5867
" />
<path d="M154.0082 104.5867
L154.1034 104.6343
" />
<path d="M154.1034 104.6343
L154.1510 104.6819
" />
<path d="M154.1510 104.6819
L154.1986 104.7771
" />
<path d="M154.1986 104.7771
L154.1986 105.1581
" />
<path d="M154.6748 103.6343
L154.6748 104.2057
" />
<path d="M154.6748 103.9200
L153.6748 103.9200
" />
<path d="M153.6748 103.9200
L153.8177 104.0152
" />
<path d="M153.8177 104.0152
L153.9129 104.1105
" />
<path d="M153.9129 104.1105
L153.9605 104.2057
" />
</g><g transform="rotate(-90.000000 144.2300 96.5200)">
<text x="144.2300" y="97.0200"
textLength="2.2024" font-size="1.3333" lengthAdjust="spacingAndGlyphs"
text-anchor="middle" opacity="0" stroke-opacity="0">R9</text>
</g>
<g class="stroked-text"><desc>R9</desc>
<path d="M144.6848 96.6867
L144.2086 97.0200
" />
<path d="M144.6848 97.2581
L143.6848 97.2581
" />
<path d="M143.6848 97.2581
L143.6848 96.8771
" />
<path d="M143.6848 96.8771
L143.7324 96.7819
" />
<path d="M143.7324 96.7819
L143.7801 96.7343
" />
<path d="M143.7801 96.7343
L143.8753 96.6867
" />
<path d="M143.8753 96.6867
L144.0182 96.6867
" />
<path d="M144.0182 96.6867
L144.1134 96.7343
" />
<path d="M144.1134 96.7343
L144.1610 96.7819
" />
<path d="M144.1610 96.7819
L144.2086 96.8771
" />
<path d="M144.2086 96.8771
L144.2086 97.2581
" />
<path d="M144.6848 96.2105
L144.6848 96.0200
" />
<path d="M144.6848 96.0200
L144.6372 95.9248
" />
<path d="M144.6372 95.9248
L144.5896 95.8771
" />
<path d="M144.5896 95.8771
L144.4467 95.7819
" />
<path d="M144.4467 95.7819
L144.2562 95.7343
" />
<path d="M144.2562 95.7343
L143.8753 95.7343
" />
<path d="M143.8753 95.7343
L143.7801 95.7819
" />
<path d="M143.7801 95.7819
L143.7324 95.8295
" />
<path d="M143.7324 95.8295
L143.6848 95.9248
" />
<path d="M143.6848 95.9248
L143.6848 96.1152
" />
<path d="M143.6848 96.1152
L143.7324 96.2105
" />
<path d="M143.7324 96.2105
L143.7801 96.2581
" />
<path d="M143.7801 96.2581
L143.8753 96.3057
" />
<path d="M143.8753 96.3057
L144.1134 96.3057
" />
<path d="M144.1134 96.3057
L144.2086 96.2581
" />
<path d="M144.2086 96.2581
L144.2562 96.2105
" />
<path d="M144.2562 96.2105
L144.3039 96.1152
" />
<path d="M144.3039 96.1152
L144.3039 95.9248
" />
<path d="M144.3039 95.9248
L144.2562 95.8295
" />
<path d="M144.2562 95.8295
L144.2086 95.7819
" />
<path d="M144.2086 95.7819
L144.1134 95.7343
" />
</g><g transform="rotate(-90.000000 159.1300 112.7850)">
<text x="159.1300" y="113.2850"
textLength="2.2024" font-size="1.3333" lengthAdjust="spacingAndGlyphs"
text-anchor="middle" opacity="0" stroke-opacity="0">D1</text>
</g>
<g class="stroked-text"><desc>D1</desc>
<path d="M159.5848 113.5231
L158.5848 113.5231
" />
<path d="M158.5848 113.5231
L158.5848 113.2850
" />
<path d="M158.5848 113.2850
L158.6324 113.1421
" />
<path d="M158.6324 113.1421
L158.7277 113.0469
" />
<path d="M158.7277 113.0469
L158.8229 112.9993
" />
<path d="M158.8229 112.9993
L159.0134 112.9517
" />
<path d="M159.0134 112.9517
L159.1562 112.9517
" />
<path d="M159.1562 112.9517
L159.3467 112.9993
" />
<path d="M159.3467 112.9993
L159.4420 113.0469
" />
<path d="M159.4420 113.0469
L159.5372 113.1421
" />
<path d="M159.5372 113.1421
L159.5848 113.2850
" />
<path d="M159.5848 113.2850
L159.5848 113.5231
" />
<path d="M159.5848 111.9993
L159.5848 112.5707
" />
<path d="M159.5848 112.2850
L158.5848 112.2850
" />
<path d="M158.5848 112.2850
L158.7277 112.3802
" />
<path d="M158.7277 112.3802
L158.8229 112.4755
" />
<path d="M158.8229 112.4755
L158.8705 112.5707
" />
</g><text x="130.8100" y="104.5929"
textLength="3.1548" font-size="1.3333" lengthAdjust="spacingAndGlyphs"
text-anchor="middle" opacity="0" stroke-opacity="0">R11</text>
<g class="stroked-text"><desc>R11</desc>
<path d="M130.1671 104.5477
L129.8338 104.0715
" />
<path d="M129.5957 104.5477
L129.5957 103.5477
" />
<path d="M129.5957 103.5477
L129.9767 103.5477
" />
<path d="M129.9767 103.5477
L130.0719 103.5953
" />
<path d="M130.0719 103.5953
L130.1195 103.6429
" />
<path d="M130.1195 103.6429
L130.1671 103.7382
" />
<path d="M130.1671 103.7382
L130.1671 103.8810
" />
<path d="M130.1671 103.8810
L130.1195 103.9763
" />
<path d="M130.1195 103.9763
L130.0719 104.0239
" />
<path d="M130.0719 104.0239
L129.9767 104.0715
" />
<path d="M129.9767 104.0715
L129.5957 104.0715
" />
<path d="M131.1195 104.5477
L130.5481 104.5477
" />
<path d="M130.8338 104.5477
L130.8338 103.5477
" />
<path d="M130.8338 103.5477
L130.7386 103.6905
" />
<path d="M130.7386 103.6905
L130.6433 103.7858
" />
<path d="M130.6433 103.7858
L130.5481 103.8334
" />
<path d="M132.0719 104.5477
L131.5005 104.5477
" />
<path d="M131.7862 104.5477
L131.7862 103.5477
" />
<path d="M131.7862 103.5477
L131.6910 103.6905
" />
<path d="M131.6910 103.6905
L131.5957 103.7858
" />
<path d="M131.5957 103.7858
L131.5005 103.8334
" />
</g><g transform="rotate(-90.000000 156.7900 96.7250)">
<text x="156.7900" y="97.2250"
textLength="2.2024" font-size="1.3333" lengthAdjust="spacingAndGlyphs"
text-anchor="middle" opacity="0" stroke-opacity="0">D8</text>
</g>
<g class="stroked-text"><desc>D8</desc>
<path d="M157.2448 97.4631
L156.2448 97.4631
" />
<path d="M156.2448 97.4631
L156.2448 97.2250
" />
<path d="M156.2448 97.2250
L156.2924 97.0821
" />
<path d="M156.2924 97.0821
L156.3877 96.9869
" />
<path d="M156.3877 96.9869
L156.4829 96.9393
" />
<path d="M156.4829 96.9393
L156.6734 96.8917
" />
<path d="M156.6734 96.8917
L156.8162 96.8917
" />
<path d="M156.8162 96.8917
L157.0067 96.9393
" />
<path d="M157.0067 96.9393
L157.1020 96.9869
" />
<path d="M157.1020 96.9869
L157.1972 97.0821
" />
<path d="M157.1972 97.0821
L157.2448 97.2250
" />
<path d="M157.2448 97.2250
L157.2448 97.4631
" />
<path d="M156.6734 96.3202
L156.6258 96.4155
" />
<path d="M156.6258 96.4155
L156.5782 96.4631
" />
<path d="M156.5782 96.4631
L156.4829 96.5107
" />
<path d="M156.4829 96.5107
L156.4353 96.5107
" />
<path d="M156.4353 96.5107
L156.3401 96.4631
" />
<path d="M156.3401 96.4631
L156.2924 96.4155
" />
<path d="M156.2924 96.4155
L156.2448 96.3202
" />
<path d="M156.2448 96.3202
L156.2448 96.1298
" />
<path d="M156.2448 96.1298
L156.2924 96.0345
" />
<path d="M156.2924 96.0345
L156.3401 95.9869
" />
<path d="M156.3401 95.9869
L156.4353 95.9393
" />
<path d="M156.4353 95.9393
L156.4829 95.9393
" />
<path d="M156.4829 95.9393
L156.5782 95.9869
" />
<path d="M156.5782 95.9869
L156.6258 96.0345
" />
<path d="M156.6258 96.0345
L156.6734 96.1298
" />
<path d="M156.6734 96.1298
L156.6734 96.3202
" />
<path d="M156.6734 96.3202
L156.7210 96.4155
" />
<path d="M156.7210 96.4155
L156.7686 96.4631
" />
<path d="M156.7686 96.4631
L156.8639 96.5107
" />
<path d="M156.8639 96.5107
L157.0543 96.5107
" />
<path d="M157.0543 96.5107
L157.1496 96.4631
" />
<path d="M157.1496 96.4631
L157.1972 96.4155
" />
<path d="M157.1972 96.4155
L157.2448 96.3202
" />
<path d="M157.2448 96.3202
L157.2448 96.1298
" />
<path d="M157.2448 96.1298
L157.1972 96.0345
" />
<path d="M157.1972 96.0345
L157.1496 95.9869
" />
<path d="M157.1496 95.9869
L157.0543 95.9393
" />
<path d="M157.0543 95.9393
L156.8639 95.9393
" />
<path d="M156.8639 95.9393
L156.7686 95.9869
" />
<path d="M156.7686 95.9869
L156.7210 96.0345
" />
<path d="M156.7210 96.0345
L156.6734 96.1298
" />
</g><g transform="rotate(-90.000000 150.4100 104.4200)">
<text x="150.4100" y="104.9200"
textLength="2.2024" font-size="1.3333" lengthAdjust="spacingAndGlyphs"
text-anchor="middle" opacity="0" stroke-opacity="0">R2</text>
</g>
<g class="stroked-text"><desc>R2</desc>
<path d="M150.8648 104.5867
L150.3886 104.9200
" />
<path d="M150.8648 105.1581
L149.8648 105.1581
" />
<path d="M149.8648 105.1581
L149.8648 104.7771
" />
<path d="M149.8648 104.7771
L149.9124 104.6819
" />
<path d="M149.9124 104.6819
L149.9601 104.6343
" />
<path d="M149.9601 104.6343
L150.0553 104.5867
" />
<path d="M150.0553 104.5867
L150.1982 104.5867
" />
<path d="M150.1982 104.5867
L150.2934 104.6343
" />
<path d="M150.2934 104.6343
L150.3410 104.6819
" />
<path d="M150.3410 104.6819
L150.3886 104.7771
" />
<path d="M150.3886 104.7771
L150.3886 105.1581
" />
<path d="M149.9601 104.2057
L149.9124 104.1581
" />
<path d="M149.9124 104.1581
L149.8648 104.0629
" />
<path d="M149.8648 104.0629
L149.8648 103.8248
" />
<path d="M149.8648 103.8248
L149.9124 103.7295
" />
<path d="M149.9124 103.7295
L149.9601 103.6819
" />
<path d="M149.9601 103.6819
L150.0553 103.6343
" />
<path d="M150.0553 103.6343
L150.1505 103.6343
" />
<path d="M150.1505 103.6343
L150.2934 103.6819
" />
<path d="M150.2934 103.6819
L150.8648 104.2533
" />
<path d="M150.8648 104.2533
L150.8648 103.6343
" />
</g><g transform="rotate(-90.000000 154.0500 110.2450)">
<text x="154.0500" y="110.7450"
textLength="2.2024" font-size="1.3333" lengthAdjust="spacingAndGlyphs"
text-anchor="middle" opacity="0" stroke-opacity="0">D2</text>
</g>
<g class="stroked-text"><desc>D2</desc>
<path d="M154.5048 110.9831
L153.5048 110.9831
" />
<path d="M153.5048 110.9831
L153.5048 110.7450
" />
<path d="M153.5048 110.7450
L153.5524 110.6021
" />
<path d="M153.5524 110.6021
L153.6477 110.5069
" />
<path d="M153.6477 110.5069
L153.7429 110.4593
" />
<path d="M153.7429 110.4593
L153.9334 110.4117
" />
<path d="M153.9334 110.4117
L154.0762 110.4117
" />
<path d="M154.0762 110.4117
L154.2667 110.4593
" />
<path d="M154.2667 110.4593
L154.3620 110.5069
" />
<path d="M154.3620 110.5069
L154.4572 110.6021
" />
<path d="M154.4572 110.6021
L154.5048 110.7450
" />
<path d="M154.5048 110.7450
L154.5048 110.9831
" />
<path d="M153.6001 110.0307
L153.5524 109.9831
" />
<path d="M153.5524 109.9831
L153.5048 109.8879
" />
<path d="M153.5048 109.8879
L153.5048 109.6498
" />
<path d="M153.5048 109.6498
L153.5524 109.5545
" />
<path d="M153.5524 109.5545
L153.6001 109.5069
" />
<path d="M153.6001 109.5069
L153.6953 109.4593
" />
<path d="M153.6953 109.4593
L153.7905 109.4593
" />
<path d="M153.7905 109.4593
L153.9334 109.5069
" />
<path d="M153.9334 109.5069
L154.5048 110.0783
" />
<path d="M154.5048 110.0783
L154.5048 109.4593
" />
</g><text x="137.1600" y="105.9100"
textLength="2.2024" font-size="1.3333" lengthAdjust="spacingAndGlyphs"
text-anchor="middle" opacity="0" stroke-opacity="0">C2</text>
<g class="stroked-text"><desc>C2</desc>
<path d="M136.9933 105.7696
L136.9457 105.8172
" />
<path d="M136.9457 105.8172
L136.8029 105.8648
" />
<path d="M136.8029 105.8648
L136.7076 105.8648
" />
<path d="M136.7076 105.8648
L136.5648 105.8172
" />
<path d="M136.5648 105.8172
L136.4695 105.7220
" />
<path d="M136.4695 105.7220
L136.4219 105.6267
" />
<path d="M136.4219 105.6267
L136.3743 105.4362
" />
<path d="M136.3743 105.4362
L136.3743 105.2934
" />
<path d="M136.3743 105.2934
L136.4219 105.1029
" />
<path d="M136.4219 105.1029
L136.4695 105.0077
" />
<path d="M136.4695 105.0077
L136.5648 104.9124
" />
<path d="M136.5648 104.9124
L136.7076 104.8648
" />
<path d="M136.7076 104.8648
L136.8029 104.8648
" />
<path d="M136.8029 104.8648
L136.9457 104.9124
" />
<path d="M136.9457 104.9124
L136.9933 104.9601
" />
<path d="M137.3743 104.9601
L137.4219 104.9124
" />
<path d="M137.4219 104.9124
L137.5171 104.8648
" />
<path d="M137.5171 104.8648
L137.7552 104.8648
" />
<path d="M137.7552 104.8648
L137.8505 104.9124
" />
<path d="M137.8505 104.9124
L137.8981 104.9601
" />
<path d="M137.8981 104.9601
L137.9457 105.0553
" />
<path d="M137.9457 105.0553
L137.9457 105.1505
" />
<path d="M137.9457 105.1505
L137.8981 105.2934
" />
<path d="M137.8981 105.2934
L137.3267 105.8648
" />
<path d="M137.3267 105.8648
L137.9457 105.8648
" />
</g><text x="160.3000" y="102.8200"
textLength="2.2024" font-size="1.3333" lengthAdjust="spacingAndGlyphs"
text-anchor="middle" opacity="0" stroke-opacity="0">R3</text>
<g class="stroked-text"><desc>R3</desc>
<path d="M160.1333 102.7748
L159.8000 102.2986
" />
<path d="M159.5619 102.7748
L159.5619 101.7748
" />
<path d="M159.5619 101.7748
L159.9429 101.7748
" />
<path d="M159.9429 101.7748
L160.0381 101.8224
" />
<path d="M160.0381 101.8224
L160.0857 101.8701
" />
<path d="M160.0857 101.8701
L160.1333 101.9653
" />
<path d="M160.1333 101.9653
L160.1333 102.1082
" />
<path d="M160.1333 102.1082
L160.0857 102.2034
" />
<path d="M160.0857 102.2034
L160.0381 102.2510
" />
<path d="M160.0381 102.2510
L159.9429 102.2986
" />
<path d="M159.9429 102.2986
L159.5619 102.2986
" />
<path d="M160.4667 101.7748
L161.0857 101.7748
" />
<path d="M161.0857 101.7748
L160.7524 102.1558
" />
<path d="M160.7524 102.1558
L160.8952 102.1558
" />
<path d="M160.8952 102.1558
L160.9905 102.2034
" />
<path d="M160.9905 102.2034
L161.0381 102.2510
" />
<path d="M161.0381 102.2510
L161.0857 102.3462
" />
<path d="M161.0857 102.3462
L161.0857 102.5843
" />
<path d="M161.0857 102.5843
L161.0381 102.6796
" />
<path d="M161.0381 102.6796
L160.9905 102.7272
" />
<path d="M160.9905 102.7272
L160.8952 102.7748
" />
<path d="M160.8952 102.7748
L160.6095 102.7748
" />
<path d="M160.6095 102.7748
L160.5143 102.7272
" />
<path d="M160.5143 102.7272
L160.4667 102.6796
" />
</g><g transform="rotate(-90.000000 149.3100 98.7800)">
<text x="149.3100" y="99.2800"
textLength="3.1548" font-size="1.3333" lengthAdjust="spacingAndGlyphs"
text-anchor="middle" opacity="0" stroke-opacity="0">R10</text>
</g>
<g class="stroked-text"><desc>R10</desc>
<path d="M149.7648 99.4229
L149.2886 99.7562
" />
<path d="M149.7648 99.9943
L148.7648 99.9943
" />
<path d="M148.7648 99.9943
L148.7648 99.6133
" />
<path d="M148.7648 99.6133
L148.8124 99.5181
" />
<path d="M148.8124 99.5181
L148.8601 99.4705
" />
<path d="M148.8601 99.4705
L148.9553 99.4229
" />
<path d="M148.9553 99.4229
L149.0982 99.4229
" />
<path d="M149.0982 99.4229
L149.1934 99.4705
" />
<path d="M149.1934 99.4705
L149.2410 99.5181
" />
<path d="M149.2410 99.5181
L149.2886 99.6133
" />
<path d="M149.2886 99.6133
L149.2886 99.9943
" />
<path d="M149.7648 98.4705
L149.7648 99.0419
" />
<path d="M149.7648 98.7562
L148.7648 98.7562
" />
<path d="M148.7648 98.7562
L148.9077 98.8514
" />
<path d="M148.9077 98.8514
L149.0029 98.9467
" />
<path d="M149.0029 98.9467
L149.0505 99.0419
" />
<path d="M148.7648 97.8514
L148.7648 97.7562
" />
<path d="M148.7648 97.7562
L148.8124 97.6610
" />
<path d="M148.8124 97.6610
L148.8601 97.6133
" />
<path d="M148.8601 97.6133
L148.9553 97.5657
" />
<path d="M148.9553 97.5657
L149.1458 97.5181
" />
<path d="M149.1458 97.5181
L149.3839 97.5181
" />
<path d="M149.3839 97.5181
L149.5743 97.5657
" />
<path d="M149.5743 97.5657
L149.6696 97.6133
" />
<path d="M149.6696 97.6133
L149.7172 97.6610
" />
<path d="M149.7172 97.6610
L149.7648 97.7562
" />
<path d="M149.7648 97.7562
L149.7648 97.8514
" />
<path d="M149.7648 97.8514
L149.7172 97.9467
" />
<path d="M149.7172 97.9467
L149.6696 97.9943
" />
<path d="M149.6696 97.9943
L149.5743 98.0419
" />
<path d="M149.5743 98.0419
L149.3839 98.0895
" />
<path d="M149.3839 98.0895
L149.1458 98.0895
" />
<path d="M149.1458 98.0895
L148.9553 98.0419
" />
<path d="M148.9553 98.0419
L148.8601 97.9943
" />
<path d="M148.8601 97.9943
L148.8124 97.9467
" />
<path d="M148.8124 97.9467
L148.7648 97.8514
" />
</g><text x="130.5650" y="87.7500"
textLength="2.2024" font-size="1.3333" lengthAdjust="spacingAndGlyphs"
text-anchor="middle" opacity="0" stroke-opacity="0">D6</text>
<g class="stroked-text"><desc>D6</desc>
<path d="M129.8269 87.7048
L129.8269 86.7048
" />
<path d="M129.8269 86.7048
L130.0650 86.7048
" />
<path d="M130.0650 86.7048
L130.2079 86.7524
" />
<path d="M130.2079 86.7524
L130.3031 86.8477
" />
<path d="M130.3031 86.8477
L130.3507 86.9429
" />
<path d="M130.3507 86.9429
L130.3983 87.1334
" />
<path d="M130.3983 87.1334
L130.3983 87.2762
" />
<path d="M130.3983 87.2762
L130.3507 87.4667
" />
<path d="M130.3507 87.4667
L130.3031 87.5620
" />
<path d="M130.3031 87.5620
L130.2079 87.6572
" />
<path d="M130.2079 87.6572
L130.0650 87.7048
" />
<path d="M130.0650 87.7048
L129.8269 87.7048
" />
<path d="M131.2555 86.7048
L131.0650 86.7048
" />
<path d="M131.0650 86.7048
L130.9698 86.7524
" />
<path d="M130.9698 86.7524
L130.9221 86.8001
" />
<path d="M130.9221 86.8001
L130.8269 86.9429
" />
<path d="M130.8269 86.9429
L130.7793 87.1334
" />
<path d="M130.7793 87.1334
L130.7793 87.5143
" />
<path d="M130.7793 87.5143
L130.8269 87.6096
" />
<path d="M130.8269 87.6096
L130.8745 87.6572
" />
<path d="M130.8745 87.6572
L130.9698 87.7048
" />
<path d="M130.9698 87.7048
L131.1602 87.7048
" />
<path d="M131.1602 87.7048
L131.2555 87.6572
" />
<path d="M131.2555 87.6572
L131.3031 87.6096
" />
<path d="M131.3031 87.6096
L131.3507 87.5143
" />
<path d="M131.3507 87.5143
L131.3507 87.2762
" />
<path d="M131.3507 87.2762
L131.3031 87.1810
" />
<path d="M131.3031 87.1810
L131.2555 87.1334
" />
<path d="M131.2555 87.1334
L131.1602 87.0858
" />
<path d="M131.1602 87.0858
L130.9698 87.0858
" />
<path d="M130.9698 87.0858
L130.8745 87.1334
" />
<path d="M130.8745 87.1334
L130.8269 87.1810
" />
<path d="M130.8269 87.1810
L130.7793 87.2762
" />
</g><g transform="rotate(-90.000000 144.3300 100.9650)">
<text x="144.3300" y="101.4650"
textLength="2.6786" font-size="1.3333" lengthAdjust="spacingAndGlyphs"
text-anchor="middle" opacity="0" stroke-opacity="0">IC1</text>
</g>
<g class="stroked-text"><desc>IC1</desc>
<path d="M144.7848 101.9412
L143.7848 101.9412
" />
<path d="M144.6896 100.8936
L144.7372 100.9412
" />
<path d="M144.7372 100.9412
L144.7848 101.0840
" />
<path d="M144.7848 101.0840
L144.7848 101.1793
" />
<path d="M144.7848 101.1793
L144.7372 101.3221
" />
<path d="M144.7372 101.3221
L144.6420 101.4174
" />
<path d="M144.6420 101.4174
L144.5467 101.4650
" />
<path d="M144.5467 101.4650
L144.3562 101.5126
" />
<path d="M144.3562 101.5126
L144.2134 101.5126
" />
<path d="M144.2134 101.5126
L144.0229 101.4650
" />
<path d="M144.0229 101.4650
L143.9277 101.4174
" />
<path d="M143.9277 101.4174
L143.8324 101.3221
" />
<path d="M143.8324 101.3221
L143.7848 101.1793
" />
<path d="M143.7848 101.1793
L143.7848 101.0840
" />
<path d="M143.7848 101.0840
L143.8324 100.9412
" />
<path d="M143.8324 100.9412
L143.8801 100.8936
" />
<path d="M144.7848 99.9412
L144.7848 100.5126
" />
<path d="M144.7848 100.2269
L143.7848 100.2269
" />
<path d="M143.7848 100.2269
L143.9277 100.3221
" />
<path d="M143.9277 100.3221
L144.0229 100.4174
" />
<path d="M144.0229 100.4174
L144.0705 100.5126
" />
</g><text x="120.9300" y="106.4600"
textLength="2.2024" font-size="1.3333" lengthAdjust="spacingAndGlyphs"
text-anchor="middle" opacity="0" stroke-opacity="0">R5</text>
<g class="stroked-text"><desc>R5</desc>
<path d="M120.7633 106.4148
L120.4300 105.9386
" />
<path d="M120.1919 106.4148
L120.1919 105.4148
" />
<path d="M120.1919 105.4148
L120.5729 105.4148
" />
<path d="M120.5729 105.4148
L120.6681 105.4624
" />
<path d="M120.6681 105.4624
L120.7157 105.5101
" />
<path d="M120.7157 105.5101
L120.7633 105.6053
" />
<path d="M120.7633 105.6053
L120.7633 105.7482
" />
<path d="M120.7633 105.7482
L120.7157 105.8434
" />
<path d="M120.7157 105.8434
L120.6681 105.8910
" />
<path d="M120.6681 105.8910
L120.5729 105.9386
" />
<path d="M120.5729 105.9386
L120.1919 105.9386
" />
<path d="M121.6681 105.4148
L121.1919 105.4148
" />
<path d="M121.1919 105.4148
L121.1443 105.8910
" />
<path d="M121.1443 105.8910
L121.1919 105.8434
" />
<path d="M121.1919 105.8434
L121.2871 105.7958
" />
<path d="M121.2871 105.7958
L121.5252 105.7958
" />
<path d="M121.5252 105.7958
L121.6205 105.8434
" />
<path d="M121.6205 105.8434
L121.6681 105.8910
" />
<path d="M121.6681 105.8910
L121.7157 105.9862
" />
<path d="M121.7157 105.9862
L121.7157 106.2243
" />
<path d="M121.7157 106.2243
L121.6681 106.3196
" />
<path d="M121.6681 106.3196
L121.6205 106.3672
" />
<path d="M121.6205 106.3672
L121.5252 106.4148
" />
<path d="M121.5252 106.4148
L121.2871 106.4148
" />
<path d="M121.2871 106.4148
L121.1919 106.3672
" />
<path d="M121.1919 106.3672
L121.1443 106.3196
" />
</g><g transform="rotate(-90.000000 154.3900 100.6100)">
<text x="154.3900" y="101.1100"
textLength="2.2024" font-size="1.3333" lengthAdjust="spacingAndGlyphs"
text-anchor="middle" opacity="0" stroke-opacity="0">R8</text>
</g>
<g class="stroked-text"><desc>R8</desc>
<path d="M154.8448 100.7767
L154.3686 101.1100
" />
<path d="M154.8448 101.3481
L153.8448 101.3481
" />
<path d="M153.8448 101.3481
L153.8448 100.9671
" />
<path d="M153.8448 100.9671
L153.8924 100.8719
" />
<path d="M153.8924 100.8719
L153.9401 100.8243
" />
<path d="M153.9401 100.8243
L154.0353 100.7767
" />
<path d="M154.0353 100.7767
L154.1782 100.7767
" />
<path d="M154.1782 100.7767
L154.2734 100.8243
" />
<path d="M154.2734 100.8243
L154.3210 100.8719
" />
<path d="M154.3210 100.8719
L154.3686 100.9671
" />
<path d="M154.3686 100.9671
L154.3686 101.3481
" />
<path d="M154.2734 100.2052
L154.2258 100.3005
" />
<path d="M154.2258 100.3005
L154.1782 100.3481
" />
<path d="M154.1782 100.3481
L154.0829 100.3957
" />
<path d="M154.0829 100.3957
L154.0353 100.3957
" />
<path d="M154.0353 100.3957
L153.9401 100.3481
" />
<path d="M153.9401 100.3481
L153.8924 100.3005
" />
<path d="M153.8924 100.3005
L153.8448 100.2052
" />
<path d="M153.8448 100.2052
L153.8448 100.0148
" />
<path d="M153.8448 100.0148
L153.8924 99.9195
" />
<path d="M153.8924 99.9195
L153.9401 99.8719
" />
<path d="M153.9401 99.8719
L154.0353 99.8243
" />
<path d="M154.0353 99.8243
L154.0829 99.8243
" />
<path d="M154.0829 99.8243
L154.1782 99.8719
" />
<path d="M154.1782 99.8719
L154.2258 99.9195
" />
<path d="M154.2258 99.9195
L154.2734 100.0148
" />
<path d="M154.2734 100.0148
L154.2734 100.2052
" />
<path d="M154.2734 100.2052
L154.3210 100.3005
" />
<path d="M154.3210 100.3005
L154.3686 100.3481
" />
<path d="M154.3686 100.3481
L154.4639 100.3957
" />
<path d="M154.4639 100.3957
L154.6543 100.3957
" />
<path d="M154.6543 100.3957
L154.7496 100.3481
" />
<path d="M154.7496 100.3481
L154.7972 100.3005
" />
<path d="M154.7972 100.3005
L154.8448 100.2052
" />
<path d="M154.8448 100.2052
L154.8448 100.0148
" />
<path d="M154.8448 100.0148
L154.7972 99.9195
" />
<path d="M154.7972 99.9195
L154.7496 99.8719
" />
<path d="M154.7496 99.8719
L154.6543 99.8243
" />
<path d="M154.6543 99.8243
L154.4639 99.8243
" />
<path d="M154.4639 99.8243
L154.3686 99.8719
" />
<path d="M154.3686 99.8719
L154.3210 99.9195
" />
<path d="M154.3210 99.9195
L154.2734 100.0148
" />
</g><g transform="rotate(45.000000 165.1000 109.2200)">
<text x="165.1000" y="109.7200"
textLength="2.2024" font-size="1.3333" lengthAdjust="spacingAndGlyphs"
text-anchor="middle" opacity="0" stroke-opacity="0">D3</text>
</g>
<g class="stroked-text"><desc>D3</desc>
<path d="M164.2565 109.0197
L164.9636 108.3126
" />
<path d="M164.9636 108.3126
L165.1319 108.4809
" />
<path d="M165.1319 108.4809
L165.1993 108.6156
" />
<path d="M165.1993 108.6156
L165.1993 108.7503
" />
<path d="M165.1993 108.7503
L165.1656 108.8513
" />
<path d="M165.1656 108.8513
L165.0646 109.0197
" />
<path d="M165.0646 109.0197
L164.9636 109.1207
" />
<path d="M164.9636 109.1207
L164.7952 109.2217
" />
<path d="M164.7952 109.2217
L164.6942 109.2554
" />
<path d="M164.6942 109.2554
L164.5595 109.2554
" />
<path d="M164.5595 109.2554
L164.4248 109.1881
" />
<path d="M164.4248 109.1881
L164.2565 109.0197
" />
<path d="M165.6034 108.9523
L166.0411 109.3901
" />
<path d="M166.0411 109.3901
L165.5360 109.4238
" />
<path d="M165.5360 109.4238
L165.6370 109.5248
" />
<path d="M165.6370 109.5248
L165.6707 109.6258
" />
<path d="M165.6707 109.6258
L165.6707 109.6931
" />
<path d="M165.6707 109.6931
L165.6370 109.7941
" />
<path d="M165.6370 109.7941
L165.4687 109.9625
" />
<path d="M165.4687 109.9625
L165.3676 109.9962
" />
<path d="M165.3676 109.9962
L165.3003 109.9962
" />
<path d="M165.3003 109.9962
L165.1993 109.9625
" />
<path d="M165.1993 109.9625
L164.9973 109.7605
" />
<path d="M164.9973 109.7605
L164.9636 109.6595
" />
<path d="M164.9636 109.6595
L164.9636 109.5921
" />
</g><text x="116.5950" y="106.2900"
textLength="2.2024" font-size="1.3333" lengthAdjust="spacingAndGlyphs"
text-anchor="middle" opacity="0" stroke-opacity="0">D5</text>
<g class="stroked-text"><desc>D5</desc>
<path d="M115.8569 106.2448
L115.8569 105.2448
" />
<path d="M115.8569 105.2448
L116.0950 105.2448
" />
<path d="M116.0950 105.2448
L116.2379 105.2924
" />
<path d="M116.2379 105.2924
L116.3331 105.3877
" />
<path d="M116.3331 105.3877
L116.3807 105.4829
" />
<path d="M116.3807 105.4829
L116.4283 105.6734
" />
<path d="M116.4283 105.6734
L116.4283 105.8162
" />
<path d="M116.4283 105.8162
L116.3807 106.0067
" />
<path d="M116.3807 106.0067
L116.3331 106.1020
" />
<path d="M116.3331 106.1020
L116.2379 106.1972
" />
<path d="M116.2379 106.1972
L116.0950 106.2448
" />
<path d="M116.0950 106.2448
L115.8569 106.2448
" />
<path d="M117.3331 105.2448
L116.8569 105.2448
" />
<path d="M116.8569 105.2448
L116.8093 105.7210
" />
<path d="M116.8093 105.7210
L116.8569 105.6734
" />
<path d="M116.8569 105.6734
L116.9521 105.6258
" />
<path d="M116.9521 105.6258
L117.1902 105.6258
" />
<path d="M117.1902 105.6258
L117.2855 105.6734
" />
<path d="M117.2855 105.6734
L117.3331 105.7210
" />
<path d="M117.3331 105.7210
L117.3807 105.8162
" />
<path d="M117.3807 105.8162
L117.3807 106.0543
" />
<path d="M117.3807 106.0543
L117.3331 106.1496
" />
<path d="M117.3331 106.1496
L117.2855 106.1972
" />
<path d="M117.2855 106.1972
L117.1902 106.2448
" />
<path d="M117.1902 106.2448
L116.9521 106.2448
" />
<path d="M116.9521 106.2448
L116.8569 106.1972
" />
<path d="M116.8569 106.1972
L116.8093 106.1496
" />
</g></g>
<g style="fill:none; 
stroke:#000000; stroke-width:0.1200; stroke-opacity:1; 
stroke-linecap:round; stroke-linejoin:round;">
<path d="M124.8200 103.5971
L124.8200 102.1429
" />
<path d="M126.6400 103.5971
L126.6400 102.1429
" />
<path d="M129.2771 94.3400
L127.8229 94.3400
" />
<path d="M129.2771 96.1600
L127.8229 96.1600
" />
<path d="M136.2500 92.1671
L136.2500 90.7129
" />
<path d="M138.0700 92.1671
L138.0700 90.7129
" />
<path d="M127.5350 103.1313
L127.5350 102.6087
" />
<path d="M129.0050 103.1313
L129.0050 102.6087
" />
<path d="M122.0841 95.2217
L124.1064 97.2440
" />
<path d="M124.1064 97.2440
L125.4640 95.8864
" />
<path d="M125.4640 95.8864
L123.4417 93.8641
" />
<path d="M145.0900 91.0950
L145.0900 93.9550
" />
<path d="M147.0100 91.0950
L145.0900 91.0950
" />
<path d="M147.0100 93.9550
L147.0100 91.0950
" />
<path d="M137.1300 111.4200
L137.1300 114.0800
" />
<path d="M139.7300 111.4200
L137.1300 111.4200
" />
<path d="M139.7300 111.4200
L139.7300 114.0800
" />
<path d="M139.7300 114.0800
L137.1300 114.0800
" />
<path d="M141.0000 111.4200
L142.3300 111.4200
" />
<path d="M142.3300 111.4200
L142.3300 112.7500
" />
<path d="M131.4900 84.1300
L131.4900 86.0500
" />
<path d="M131.4900 86.0500
L134.3500 86.0500
" />
<path d="M134.3500 84.1300
L131.4900 84.1300
" />
<path d="M133.7100 94.4271
L133.7100 92.9729
" />
<path d="M135.5300 94.4271
L135.5300 92.9729
" />
<path d="M150.1700 92.3650
L150.1700 95.2250
" />
<path d="M152.0900 92.3650
L150.1700 92.3650
" />
<path d="M152.0900 95.2250
L152.0900 92.3650
" />
<path d="M151.4900 103.6929
L151.4900 105.1471
" />
<path d="M153.3100 103.6929
L153.3100 105.1471
" />
<path d="M145.1400 99.7871
L145.1400 98.3329
" />
<path d="M146.9600 99.7871
L146.9600 98.3329
" />
<path d="M156.5200 110.9250
L156.5200 113.7850
" />
<path d="M158.4400 110.9250
L156.5200 110.9250
" />
<path d="M158.4400 113.7850
L158.4400 110.9250
" />
<path d="M128.5808 105.0029
L130.0349 105.0029
" />
<path d="M128.5808 106.8229
L130.0349 106.8229
" />
<path d="M154.0400 94.1400
L154.0400 97.0000
" />
<path d="M155.9600 94.1400
L154.0400 94.1400
" />
<path d="M155.9600 97.0000
L155.9600 94.1400
" />
<path d="M147.6800 103.6929
L147.6800 105.1471
" />
<path d="M149.5000 103.6929
L149.5000 105.1471
" />
<path d="M151.4400 108.3850
L151.4400 111.2450
" />
<path d="M153.3600 108.3850
L151.4400 108.3850
" />
<path d="M153.3600 111.2450
L153.3600 108.3850
" />
<path d="M139.7288 105.9450
L139.2062 105.9450
" />
<path d="M139.7288 107.4150
L139.2062 107.4150
" />
<path d="M159.5729 103.2300
L161.0271 103.2300
" />
<path d="M159.5729 105.0500
L161.0271 105.0500
" />
<path d="M150.2200 99.5071
L150.2200 98.0529
" />
<path d="M152.0400 99.5071
L152.0400 98.0529
" />
<path d="M128.7050 87.9400
L128.7050 89.8600
" />
<path d="M128.7050 89.8600
L131.5650 89.8600
" />
<path d="M131.5650 87.9400
L128.7050 87.9400
" />
<path d="M133.3700 100.9650
L133.3700 99.0150
" />
<path d="M133.3700 100.9650
L133.3700 102.9150
" />
<path d="M143.4900 100.9650
L143.4900 99.0150
" />
<path d="M143.4900 100.9650
L143.4900 102.9150
" />
<path style="fill:#000000; fill-opacity:1.0000; 
stroke:#000000; stroke-width:0.1200; stroke-opacity:1; 
stroke-linecap:round; stroke-linejoin:round;fill-rule:evenodd;"
d="M 143.7650,98.5050
143.4350,98.2650
143.7650,98.0250
Z" /> 
</g>
<g style="fill:none; 
stroke:#000000; stroke-width:0.1200; stroke-opacity:1; 
stroke-linecap:round; stroke-linejoin:round;">
<path d="M121.6571 103.2300
L120.2029 103.2300
" />
<path d="M121.6571 105.0500
L120.2029 105.0500
" />
<path d="M155.3000 101.3371
L155.3000 99.8829
" />
<path d="M157.1200 101.3371
L157.1200 99.8829
" />
<path d="M166.3707 109.8536
L168.3931 111.8759
" />
<path d="M167.7284 108.4960
L166.3707 109.8536
" />
<path d="M169.7507 110.5183
L167.7284 108.4960
" />
<path d="M115.5950 105.1000
L118.4550 105.1000
" />
<path d="M118.4550 103.1800
L115.5950 103.1800
" />
<path d="M118.4550 105.1000
L118.4550 103.1800
" />
</g> 
</svg>
